<svg version="1.1" xmlns="http://www.w3.org/2000/svg" xmlns:xlink="http://www.w3.org/1999/xlink" width="85.49398" height="85.49398" viewBox="0,0,85.49398,85.49398"><defs><linearGradient x1="-3285.69704" y1="-2895.28054" x2="-3285.69704" y2="4105.40968" gradientUnits="userSpaceOnUse" id="color-1"><stop offset="0" stop-color="#ffffff"/><stop offset="1" stop-color="#ffffff" stop-opacity="0"/></linearGradient></defs><g transform="translate(-197.25302,-137.25303)"><g data-paper-data="{&quot;isPaintingLayer&quot;:true}" fill-rule="nonzero" stroke-linecap="butt" stroke-linejoin="miter" stroke-miterlimit="10" stroke-dasharray="" stroke-dashoffset="0" style="mix-blend-mode: normal"><path d="M197.25302,222.74701v-85.49398h85.49398v85.49398z" fill="none" stroke="none" stroke-width="0"/><path d="M208.63952,205.58014c0.00324,-13.1024 0,-44.63208 0,-51.75c0,-3.5626 2.97813,-5.21784 6.54073,-5.21784c12.68063,0 43.89984,0 51,0c2.96729,0 5.18024,2.50056 5.18024,5.46784c0,6.43742 0,39.20833 0,51.75c0,2.95974 -2.72049,5.55758 -5.68024,5.55758c-6.61442,0 -39.17756,0 -52,0c-3.13138,0 -5.04177,-1.58613 -5.04073,-5.80758z" fill="url(#color-1)" stroke="#a97a4a" stroke-width="2"/><path d="M207.25301,212.74699v-65.49398h65.49398v65.49398z" fill="none" stroke="none" stroke-width="0"/><g stroke="none"><path d="M219.55374,200.58049v-39.87689h7.54783l-0.01018,19.31782l25.98999,-0.15389v-19.16393h7.49349v39.87689z" fill="#dc570f" stroke-width="0"/><g><path d="M219.42616,200.61432v-3.60894h41.26032v3.60894z" fill="#752e08" stroke-width="0"/><path d="M219.42616,190.30309v-3.60894h41.2603v3.60894z" fill="#752e08" stroke-width="0"/><path d="M219.42616,180.16371v-3.60893h41.2603v3.60893z" fill="#752e08" stroke-width="0"/><path d="M260.68646,166.24354v3.60894h-7.55576l0.05819,-3.60894z" fill="#752e08" stroke-width="0"/><path d="M219.42616,169.85249v-3.60894h7.75086l-0.12478,3.60894z" fill="#752e08" stroke-width="0"/><g fill="#752e08" stroke-width="0"><path d="M257.10536,166.30384v-5.34872h3.47845v5.34872z"/></g><g fill="none" stroke-width="1" font-family="sans-serif" font-weight="normal" font-size="12" text-anchor="start"/><g fill="#752e08" stroke-width="0"><path d="M236.97313,186.86225v-7.21035h3.47847v7.21035z"/><path d="M257.10536,186.91878v-7.21036h3.47845v7.21036z"/></g><g fill="#752e08" stroke-width="0"><path d="M226.85398,197.00538v-6.87414h3.47846v6.87414z"/><path d="M246.98619,197.06191v-6.87415h3.47847v6.87415z"/></g></g><path d="M219.23445,163.9596v-4.39096h11.70921v16.83199l19.22848,0.07346l-0.01806,-17.0884h10.61147v4.57391h-7.31826l0.0009,16.1408l-26.34662,-0.04064v-16.10016z" fill="#ffe2e2" stroke-width="0"/></g></g></g></svg>