<svg version="1.1" xmlns="http://www.w3.org/2000/svg" xmlns:xlink="http://www.w3.org/1999/xlink" width="41.14809" height="41.41043" viewBox="0,0,41.14809,41.41043"><g transform="translate(-219.17988,-159.24491)"><g data-paper-data="{&quot;isPaintingLayer&quot;:true}" fill-rule="nonzero" stroke-width="0" stroke-linecap="butt" stroke-linejoin="miter" stroke-miterlimit="10" stroke-dasharray="" stroke-dashoffset="0" style="mix-blend-mode: normal"><g><g stroke="none"><path d="M226.43568,200.63942v-41.25894h33.89229v41.25894z" fill="#20ad00"/><path d="M226.5013,200.56522v-41.32031h2.85582v41.32031z" fill="#000000"/><g fill="#a5e62a"><path d="M229.30001,200.65534v-41.35342h8.13559v41.35342z"/><path d="M240.36441,200.65534v-41.35342h7.33559v41.35342z"/><path d="M249.50002,200.65534v-41.35342h3.2v41.35342z"/></g></g><g stroke="none"><g><path d="M232.77514,200.64861h-13.56734v-32.64841h10.21522z" data-paper-data="{&quot;index&quot;:null}" fill="#20ad00"/><path d="M229.44591,169.9039h-10.26603v-2.85582h10.26603z" data-paper-data="{&quot;index&quot;:null}" fill="#000000"/></g><path d="M229.47496,177.71913h-10.29012v-8.13559h10.29012z" fill="#a5e62a"/><path d="M230.953,184.51913h-11.73672v-7.14285h10.24689z" fill="#45c613"/></g><path d="M230.97181,200.61912c0,0 0.2944,-10.32154 -1.00911,-20.19319c-0.90461,-6.85071 -3.27415,-13.14174 -3.27415,-13.14174h2.79343c0,0 2.71994,6.3912 3.53523,12.68788c1.30181,10.05423 0.74803,20.64705 0.74803,20.64705z" fill="#000000" stroke="#000000"/></g></g></g></svg>