<svg version="1.1" xmlns="http://www.w3.org/2000/svg" xmlns:xlink="http://www.w3.org/1999/xlink" width="119.71806" height="119.71806" viewBox="0,0,119.71806,119.71806"><g transform="translate(-180.14097,-120.14097)"><g data-paper-data="{&quot;isPaintingLayer&quot;:true}" fill-rule="nonzero" stroke-width="0" stroke-linecap="butt" stroke-linejoin="miter" stroke-miterlimit="10" stroke-dasharray="" stroke-dashoffset="0" style="mix-blend-mode: normal"><path d="M180.14097,239.85903v-119.71806h119.71806v119.71806z" data-paper-data="{&quot;index&quot;:null}" fill="none" stroke="none"/><g><path d="M236.89696,171.85658h6.23631c0,0 -0.35745,8.99011 0.53289,17.80526c0.7352,7.27908 1.85144,12.70519 -3.37889,12.70519c-6.38816,0 -4.37851,-5.63572 -3.96204,-12.58547c0.54605,-9.11184 0.57172,-17.92497 0.57172,-17.92497z" data-paper-data="{&quot;index&quot;:null}" fill="#dc570f" stroke="none"/><g data-paper-data="{&quot;index&quot;:null}"><g data-paper-data="{&quot;index&quot;:null}"><path d="M260.96129,185.0262c0,0 -4.96503,7.55143 -8.91636,14.11395c-2.52523,4.19402 -7.38209,3.7807 -9.62604,2.66919c-0.73257,-0.36287 0.52098,-0.31226 -0.02302,-0.84236c-2.21032,-2.15384 -1.68633,-5.51636 3.21425,-9.73551c7.59938,-6.54267 15.35118,-6.20527 15.35118,-6.20527z" fill="#dc570f" stroke="none"/><path d="M254.33946,189.01095c2.48165,-2.39442 5.1009,-3.4971 5.25873,-3.32496c0.16163,0.17628 -2.31265,1.34082 -4.98071,3.99818c-1.47409,1.46818 -4.17783,1.87962 -5.77276,3.34202c-4.37125,4.00802 -6.21345,7.66779 -6.46793,7.39026c-0.25448,-0.27754 1.5711,-3.95543 5.94236,-7.96345c1.66014,-1.52219 4.47074,-1.94693 6.02031,-3.44203z" fill="#148382" stroke="#20ad00"/></g><g data-paper-data="{&quot;index&quot;:null}"><path d="M234.22921,191.24814c4.90058,4.21915 5.42456,7.58167 3.21424,9.73552c-0.544,0.53009 0.70956,0.4795 -0.02302,0.84236c-2.24395,1.11152 -7.10081,1.52482 -9.62605,-2.66919c-3.95133,-6.56253 -8.91636,-14.11396 -8.91636,-14.11396c0,0 7.7518,-0.3374 15.35118,6.20527z" fill="#dc570f" stroke="none"/><path d="M231.52014,192.46964c4.37125,4.00801 6.19683,7.68591 5.94236,7.96345c-0.25448,0.27754 -2.09668,-3.38224 -6.46793,-7.39025c-1.59492,-1.4624 -4.29866,-1.87384 -5.77276,-3.34202c-2.66806,-2.65736 -5.14233,-3.82191 -4.98071,-3.99818c0.15783,-0.17213 2.77708,0.93055 5.25873,3.32497c1.54957,1.4951 4.36017,1.91985 6.02031,3.44203z" fill="#148382" stroke="#20ad00"/></g></g></g><g data-paper-data="{&quot;index&quot;:null}" stroke="none"><g fill="#ffffff"><path d="M235.36311,151.7643c0,0 3.11055,1.63225 4.90039,3.22753c1.91774,1.70927 2.03284,2.70703 1.40973,3.6099c-0.30468,0.44146 -1.60562,-0.26055 -2.90501,-0.5785c-1.57883,-0.38633 -2.7446,0.26082 -3.36116,0.39746z"/><path d="M234.40833,147.15476c0,0 4.36193,0.90033 6.15178,2.4956c1.91774,1.70927 2.03284,2.70703 1.40973,3.6099c-0.30467,0.44146 -1.60561,-0.26055 -2.905,-0.57851c-1.57883,-0.38633 -2.7446,0.26082 -3.36116,0.39746z"/><path d="M233.92102,141.02695c0,0 3.39634,1.05509 5.48888,2.306c2.24205,1.34029 2.56524,2.29918 2.14402,3.29466c-0.20596,0.48675 -1.6305,0.02648 -2.9726,-0.05715c-1.63073,-0.10164 -2.63835,0.73828 -3.21458,0.98073z"/><path d="M233.66595,134.84352c0,0 3.45774,0.88257 5.73455,1.82765c2.43952,1.01261 2.94002,2.57449 2.68983,3.61696c-0.12234,0.50975 -1.62813,-0.40606 -2.96852,-0.30195c-1.62864,0.1265 -4.00286,1.44781 -4.53193,1.76764z"/></g><path d="M222.83768,161.51083c-4.14585,-13.78203 11.30582,-28.41198 11.40756,-27.97516c3.90108,16.74829 2.39187,21.91372 4.6,33.00067c0.43869,2.20263 2.24623,5.35719 2.24623,5.35719l-1.29565,3.75087c0,0 -12.8646,-0.52544 -16.95813,-14.13356z" data-paper-data="{&quot;index&quot;:null}" fill="#148382"/><path d="M233.30976,161.91266c-0.9163,-0.18342 -1.4963,-1.01048 -1.29546,-1.84731c0.20084,-0.83683 1.10645,-1.36652 2.02275,-1.1831c0.9163,0.18342 1.4963,1.01048 1.29546,1.84731c-0.20084,0.83683 -1.10645,1.36652 -2.02275,1.1831z" fill="#dc570f"/><path d="M232.66621,154.49881c-0.80177,-0.16049 -1.30926,-0.88418 -1.13353,-1.6164c0.17573,-0.73223 0.96815,-1.1957 1.76991,-1.03521c0.80177,0.16049 1.30926,0.88418 1.13353,1.6164c-0.17573,0.73223 -0.96815,1.1957 -1.76991,1.03521z" fill="#dc570f"/><path d="M225.88643,152.08975c-0.80177,-0.16049 -1.30926,-0.88418 -1.13353,-1.6164c0.17573,-0.73223 0.96815,-1.1957 1.76991,-1.03521c0.80177,0.16049 1.30926,0.88418 1.13353,1.6164c-0.17573,0.73223 -0.96815,1.1957 -1.76991,1.03521z" fill="#dc570f"/><path d="M233.80982,145.33881c-0.68723,-0.13757 -1.12222,-0.75787 -0.9716,-1.38549c0.15063,-0.62762 0.82984,-1.02489 1.51707,-0.88733c0.68723,0.13757 1.12222,0.75787 0.9716,1.38549c-0.15063,0.62762 -0.82984,1.02489 -1.51707,0.88733z" fill="#dc570f"/><path d="M227.03698,159.06904c-0.68723,-0.13757 -1.12222,-0.75787 -0.9716,-1.38549c0.15063,-0.62762 0.82984,-1.02489 1.51707,-0.88733c0.68723,0.13757 1.12222,0.75787 0.9716,1.38549c-0.15063,0.62762 -0.82984,1.02489 -1.51707,0.88733z" fill="#dc570f"/><path d="M232.55404,170.49536c-0.9163,-0.18342 -1.4963,-1.01048 -1.29546,-1.84731c0.20084,-0.83683 1.10645,-1.36652 2.02275,-1.1831c0.9163,0.18342 1.4963,1.01048 1.29546,1.84731c-0.20084,0.83683 -1.10645,1.36652 -2.02275,1.1831z" fill="#dc570f"/><path d="M229.22449,166.25589c-0.45814,-0.09171 -0.74814,-0.50524 -0.64773,-0.92365c0.10042,-0.4184 0.55322,-0.68325 1.01137,-0.59155c0.45814,0.09171 0.74814,0.50524 0.64773,0.92365c-0.10042,0.4184 -0.55322,0.68325 -1.01137,0.59155z" fill="#dc570f"/><path d="M230.66208,140.34174c-0.68723,-0.13757 -1.12222,-0.75787 -0.9716,-1.38549c0.15063,-0.62762 0.82984,-1.02489 1.51707,-0.88733c0.68723,0.13757 1.12222,0.75787 0.9716,1.38549c-0.15063,0.62762 -0.82984,1.02489 -1.51707,0.88733z" fill="#dc570f"/></g><g data-paper-data="{&quot;index&quot;:null}" stroke="none"><g fill="#ffffff"><path d="M244.26798,158.42069c-0.61656,-0.13664 -1.78232,-0.78379 -3.36115,-0.39746c-1.2994,0.31794 -2.60034,1.01996 -2.90501,0.5785c-0.62311,-0.90286 -0.50801,-1.90063 1.40973,-3.6099c1.78985,-1.59528 4.9004,-3.22752 4.9004,-3.22752z"/><path d="M243.97137,153.07922c-0.61656,-0.13664 -1.78232,-0.78379 -3.36116,-0.39746c-1.2994,0.31794 -2.60033,1.01997 -2.905,0.5785c-0.62311,-0.90286 -0.50801,-1.90063 1.40973,-3.6099c1.78985,-1.59528 6.15178,-2.4956 6.15178,-2.4956z"/><path d="M244.30832,147.5512c-0.57624,-0.24245 -1.58386,-1.08237 -3.21458,-0.98073c-1.3421,0.08365 -2.76665,0.5439 -2.9726,0.05715c-0.42122,-0.9955 -0.09803,-1.95437 2.14402,-3.29466c2.09254,-1.25091 5.48888,-2.306 5.48888,-2.306z"/><path d="M245.08516,141.75382c-0.52907,-0.31983 -2.90329,-1.64114 -4.53193,-1.76764c-1.34038,-0.1041 -2.84617,0.8117 -2.96851,0.30195c-0.25019,-1.04248 0.25031,-2.60435 2.68983,-3.61696c2.27682,-0.94508 5.73456,-1.82765 5.73456,-1.82765z"/></g><path d="M256.83736,161.51084c-4.09353,13.60813 -16.95812,14.13356 -16.95812,14.13356l-1.29565,-3.75087c0,0 1.80754,-3.15458 2.24623,-5.35719c2.20814,-11.08695 0.69892,-16.25237 4.60001,-33.00067c0.10174,-0.43682 15.55342,14.19313 11.40756,27.97516z" data-paper-data="{&quot;index&quot;:null}" fill="#148382"/><path d="M244.34254,160.72956c-0.20084,-0.83683 0.37916,-1.66389 1.29546,-1.84731c0.9163,-0.18342 1.82191,0.34627 2.02275,1.1831c0.20084,0.83683 -0.37916,1.66389 -1.29546,1.84731c-0.9163,0.18342 -1.82191,-0.34627 -2.02275,-1.1831z" fill="#dc570f"/><path d="M245.23893,153.46359c-0.17573,-0.73222 0.33177,-1.45591 1.13353,-1.6164c0.80176,-0.16049 1.59418,0.30299 1.7699,1.03521c0.17573,0.73222 -0.33176,1.45591 -1.13352,1.6164c-0.80176,0.16049 -1.59418,-0.30299 -1.76991,-1.03521z" fill="#dc570f"/><path d="M252.01871,151.05453c-0.17573,-0.73222 0.33177,-1.45591 1.13353,-1.61639c0.80176,-0.16049 1.59418,0.30299 1.7699,1.03521c0.17573,0.73222 -0.33176,1.45591 -1.13353,1.61639c-0.80176,0.16049 -1.59418,-0.30299 -1.76991,-1.03521z" fill="#dc570f"/><path d="M244.34817,144.45149c-0.15062,-0.62762 0.28437,-1.24792 0.9716,-1.38549c0.68723,-0.13756 1.36644,0.25971 1.51707,0.88733c0.15062,0.62762 -0.28437,1.24792 -0.9716,1.38549c-0.68723,0.13756 -1.36644,-0.25971 -1.51707,-0.88733z" fill="#dc570f"/><path d="M251.121,158.18171c-0.15062,-0.62762 0.28437,-1.24792 0.9716,-1.38549c0.68723,-0.13756 1.36644,0.25971 1.51707,0.88732c0.15062,0.62762 -0.28437,1.24792 -0.9716,1.38549c-0.68723,0.13756 -1.36644,-0.25971 -1.51707,-0.88732z" fill="#dc570f"/><path d="M245.09826,169.31226c-0.20084,-0.83683 0.37916,-1.66389 1.29546,-1.84731c0.9163,-0.18342 1.82191,0.34627 2.02275,1.1831c0.20084,0.83683 -0.37916,1.66389 -1.29546,1.84731c-0.9163,0.18342 -1.82191,-0.34627 -2.02275,-1.1831z" fill="#dc570f"/><path d="M249.43919,165.66434c-0.10041,-0.41841 0.18958,-0.83195 0.64773,-0.92365c0.45815,-0.0917 0.91096,0.17314 1.01137,0.59155c0.10041,0.41841 -0.18958,0.83195 -0.64773,0.92365c-0.45815,0.0917 -0.91096,-0.17314 -1.01137,-0.59155z" fill="#dc570f"/><path d="M247.49591,139.45441c-0.15062,-0.62762 0.28437,-1.24792 0.97159,-1.38549c0.68723,-0.13756 1.36645,0.25971 1.51707,0.88733c0.15062,0.62762 -0.28438,1.24792 -0.9716,1.38549c-0.68723,0.13756 -1.36644,-0.25971 -1.51706,-0.88733z" fill="#dc570f"/></g></g></g></svg>