<svg version="1.1" xmlns="http://www.w3.org/2000/svg" xmlns:xlink="http://www.w3.org/1999/xlink" width="65.3551" height="24.3147" viewBox="0,0,65.3551,24.3147"><g transform="translate(-216.09806,-167.00503)"><g data-paper-data="{&quot;isPaintingLayer&quot;:true}" fill-rule="nonzero" stroke-linecap="butt" stroke-linejoin="miter" stroke-miterlimit="10" stroke-dasharray="" stroke-dashoffset="0" style="mix-blend-mode: normal"><text transform="translate(270.46098,184.85659) scale(0.5,0.5)" font-size="40" xml:space="preserve" fill="#ffffff" fill-rule="nonzero" stroke="none" stroke-width="1" stroke-linecap="butt" stroke-linejoin="miter" stroke-miterlimit="10" stroke-dasharray="" stroke-dashoffset="0" font-family="&quot;ヒラギノ角ゴ Pro W3&quot;, &quot;Hiragino Kaku Gothic Pro&quot;, Osaka, &quot;メイリオ&quot;, Meiryo, &quot;ＭＳ Ｐゴシック&quot;, &quot;MS PGothic&quot;" font-weight="normal" text-anchor="start" style="mix-blend-mode: normal"><tspan x="0" dy="0">&gt;</tspan></text><path d="M216.12322,171.84301c0.07856,-2.406 1.79906,-3.16273 3.05279,-3.16273c0.70856,0 40.56593,0 41.71454,0c1.81928,0 3.01139,1.26293 3.01139,3.08221c0,0.71722 0,15.62261 0,16.75644c0,1.81514 -1.35728,2.8008 -3.17242,2.8008c-1.12809,0 -40.94359,0 -41.63403,0c-1.7722,0 -2.97228,-1.18963 -2.97228,-2.96182c0,-1.05482 -0.05657,-14.78223 0,-16.5149z" fill="#66c7ff" stroke="none" stroke-width="0"/><text transform="translate(219.86265,184.80473) scale(0.37562,0.37562)" font-size="40" xml:space="preserve" fill="#ffffff" fill-rule="nonzero" stroke="#ffffff" stroke-width="1" stroke-linecap="butt" stroke-linejoin="miter" stroke-miterlimit="10" stroke-dasharray="" stroke-dashoffset="0" font-family="&quot;ヒラギノ角ゴ Pro W3&quot;, &quot;Hiragino Kaku Gothic Pro&quot;, Osaka, &quot;メイリオ&quot;, Meiryo, &quot;ＭＳ Ｐゴシック&quot;, &quot;MS PGothic&quot;" font-weight="normal" text-anchor="start" style="mix-blend-mode: normal"><tspan x="0" dy="0">Jugar</tspan></text></g></g></svg>