<svg version="1.1" xmlns="http://www.w3.org/2000/svg" xmlns:xlink="http://www.w3.org/1999/xlink" width="85.49398" height="85.49398" viewBox="0,0,85.49398,85.49398"><defs><linearGradient x1="-3285.69704" y1="-2895.28055" x2="-3285.69704" y2="4105.40967" gradientUnits="userSpaceOnUse" id="color-1"><stop offset="0" stop-color="#ffffff"/><stop offset="1" stop-color="#ffffff" stop-opacity="0"/></linearGradient></defs><g transform="translate(-197.25302,-137.25301)"><g data-paper-data="{&quot;isPaintingLayer&quot;:true}" fill-rule="nonzero" stroke-linecap="butt" stroke-linejoin="miter" stroke-miterlimit="10" stroke-dasharray="" stroke-dashoffset="0" style="mix-blend-mode: normal"><path d="M197.25302,222.74699v-85.49398h85.49398v85.49398z" fill="none" stroke="none" stroke-width="0"/><path d="M208.63952,205.58013c0.00324,-13.1024 0,-44.63208 0,-51.75c0,-3.5626 2.97813,-5.21784 6.54073,-5.21784c12.68063,0 43.89984,0 51,0c2.96729,0 5.18024,2.50056 5.18024,5.46784c0,6.43742 0,39.20833 0,51.75c0,2.95974 -2.72049,5.55758 -5.68024,5.55758c-6.61442,0 -39.17756,0 -52,0c-3.13138,0 -5.04177,-1.58613 -5.04073,-5.80758z" fill="url(#color-1)" stroke="#a97a4a" stroke-width="2"/><g stroke-width="0"><g><path d="M215.29067,202.90462c-2.06585,-2.06585 -2.06585,-5.41524 0,-7.48109c2.06585,-2.06585 5.30443,-2.24648 7.06822,0.08257c2.57656,3.40228 -0.41172,4.74006 0.11388,6.77948c0.55194,2.14161 2.44167,1.50406 2.59603,1.88989c0.15436,0.38583 -2.81737,2.05362 -5.39944,1.52531c-2.086,-0.42681 -3.45555,-1.87301 -4.37871,-2.79616z" fill="#f32f00" stroke="#000000"/><path d="M224.7124,201.95522l-0.82572,-0.82572l0.82572,-0.82572l0.82572,0.82572z" fill="#f32f00" stroke="#000000"/><path d="M225.70327,203.27638l-0.66058,-0.66058l0.66058,-0.66058l0.66058,0.66058z" fill="#f32f00" stroke="none"/><path d="M216.70788,201.28273c-1.11765,-1.11765 -1.11765,-2.92971 0,-4.04735c1.11765,-1.11765 2.86975,-1.21537 3.82398,0.04467c0.73723,0.9735 -0.06255,2.5956 -0.26232,4.00866c-0.11809,0.83531 0.25113,1.50501 0.51926,2.17523c0,0 -1.15266,-0.33221 -2.17496,-0.85195c-0.90239,-0.45878 -1.6718,-1.09509 -1.90596,-1.32926z" fill="#f29e4a" stroke="#000000"/><path d="M217.72154,199.40308c-0.42688,-0.42688 -0.42688,-1.11899 0,-1.54587c0.42688,-0.42688 1.11899,-0.42688 1.54587,0c0.42688,0.42688 0.42688,1.11899 0,1.54587c-0.42688,0.42688 -1.11899,0.42688 -1.54587,0z" fill="#ffffff" stroke="#000000"/><path d="M217.7918,200.87868c-0.23284,-0.23284 -0.23284,-0.61036 0,-0.8432c0.23284,-0.23284 0.61036,-0.23284 0.8432,0c0.23284,0.23284 0.23284,0.61036 0,0.8432c-0.23284,0.23284 -0.61036,0.23284 -0.8432,0z" fill="#ffffff" stroke="none"/></g><g><path d="M223.26539,194.9299c-2.06585,-2.06585 -2.06585,-5.41524 0,-7.48109c2.06585,-2.06585 5.30443,-2.24648 7.06822,0.08257c2.57656,3.40228 -0.41172,4.74006 0.11388,6.77948c0.55194,2.14161 2.44167,1.50406 2.59603,1.88989c0.15436,0.38583 -2.81737,2.05362 -5.39944,1.52531c-2.086,-0.42681 -3.45555,-1.87301 -4.37871,-2.79616z" fill="#f32f00" stroke="#000000"/><path d="M232.68712,193.9805l-0.82572,-0.82572l0.82572,-0.82572l0.82572,0.82572z" fill="#f32f00" stroke="#000000"/><path d="M233.67799,195.30167l-0.66058,-0.66058l0.66058,-0.66058l0.66058,0.66058z" fill="#f32f00" stroke="none"/><path d="M224.6826,193.30801c-1.11765,-1.11765 -1.11765,-2.92971 0,-4.04735c1.11765,-1.11765 2.86975,-1.21537 3.82398,0.04467c0.73723,0.9735 -0.06255,2.5956 -0.26232,4.00866c-0.11809,0.83531 0.25113,1.50501 0.51926,2.17523c0,0 -1.15266,-0.33221 -2.17496,-0.85195c-0.90239,-0.45878 -1.6718,-1.09509 -1.90596,-1.32926z" fill="#f29e4a" stroke="#000000"/><path d="M225.69625,191.42836c-0.42688,-0.42688 -0.42688,-1.11899 0,-1.54587c0.42688,-0.42688 1.11899,-0.42688 1.54587,0c0.42688,0.42688 0.42688,1.11899 0,1.54587c-0.42688,0.42688 -1.11899,0.42688 -1.54587,0z" fill="#ffffff" stroke="#000000"/><path d="M225.76652,192.90397c-0.23284,-0.23284 -0.23284,-0.61036 0,-0.8432c0.23284,-0.23284 0.61036,-0.23284 0.8432,0c0.23284,0.23284 0.23284,0.61036 0,0.8432c-0.23284,0.23284 -0.61036,0.23284 -0.8432,0z" fill="#ffffff" stroke="none"/></g><g><path d="M231.35939,186.8359c-2.06585,-2.06585 -2.06585,-5.41524 0,-7.48109c2.06585,-2.06585 5.30443,-2.24648 7.06822,0.08257c2.57656,3.40228 -0.41172,4.74006 0.11388,6.77948c0.55194,2.14161 2.44167,1.50406 2.59603,1.88989c0.15436,0.38583 -2.81737,2.05362 -5.39944,1.52531c-2.086,-0.42681 -3.45555,-1.87301 -4.37871,-2.79616z" fill="#f32f00" stroke="#000000"/><path d="M240.78112,185.8865l-0.82572,-0.82572l0.82572,-0.82572l0.82572,0.82572z" fill="#f32f00" stroke="#000000"/><path d="M241.77199,187.20767l-0.66058,-0.66058l0.66058,-0.66058l0.66058,0.66058z" fill="#f32f00" stroke="none"/><path d="M232.7766,185.21401c-1.11765,-1.11765 -1.11765,-2.92971 0,-4.04735c1.11765,-1.11765 2.86975,-1.21537 3.82398,0.04467c0.73723,0.9735 -0.06255,2.5956 -0.26232,4.00866c-0.11809,0.83531 0.25113,1.50501 0.51926,2.17523c0,0 -1.15266,-0.33221 -2.17496,-0.85195c-0.90239,-0.45878 -1.6718,-1.09509 -1.90596,-1.32926z" fill="#f29e4a" stroke="#000000"/><path d="M233.79025,183.33436c-0.42688,-0.42688 -0.42688,-1.11899 0,-1.54587c0.42688,-0.42688 1.11899,-0.42688 1.54587,0c0.42688,0.42688 0.42688,1.11899 0,1.54587c-0.42688,0.42688 -1.11899,0.42688 -1.54587,0z" fill="#ffffff" stroke="#000000"/><path d="M233.86052,184.80997c-0.23284,-0.23284 -0.23284,-0.61036 0,-0.8432c0.23284,-0.23284 0.61036,-0.23284 0.8432,0c0.23284,0.23284 0.23284,0.61036 0,0.8432c-0.23284,0.23284 -0.61036,0.23284 -0.8432,0z" fill="#ffffff" stroke="none"/></g><g><path d="M239.45339,178.7419c-2.06585,-2.06585 -2.06585,-5.41524 0,-7.48109c2.06585,-2.06585 5.30443,-2.24648 7.06822,0.08257c2.57656,3.40228 -0.41172,4.74006 0.11388,6.77948c0.55194,2.14161 2.44167,1.50406 2.59603,1.88989c0.15436,0.38583 -2.81737,2.05362 -5.39944,1.52531c-2.086,-0.42681 -3.45555,-1.87301 -4.37871,-2.79616z" fill="#f32f00" stroke="#000000"/><path d="M248.87512,177.7925l-0.82572,-0.82572l0.82572,-0.82572l0.82572,0.82572z" fill="#f32f00" stroke="#000000"/><path d="M249.86599,179.11367l-0.66058,-0.66058l0.66058,-0.66058l0.66058,0.66058z" fill="#f32f00" stroke="none"/><path d="M240.8706,177.12001c-1.11765,-1.11765 -1.11765,-2.92971 0,-4.04735c1.11765,-1.11765 2.86975,-1.21537 3.82398,0.04467c0.73723,0.9735 -0.06255,2.5956 -0.26232,4.00866c-0.11809,0.83531 0.25113,1.50501 0.51926,2.17523c0,0 -1.15266,-0.33221 -2.17496,-0.85195c-0.90239,-0.45878 -1.6718,-1.09509 -1.90596,-1.32926z" fill="#f29e4a" stroke="#000000"/><path d="M241.88425,175.24036c-0.42688,-0.42688 -0.42688,-1.11899 0,-1.54587c0.42688,-0.42688 1.11899,-0.42688 1.54587,0c0.42688,0.42688 0.42688,1.11899 0,1.54587c-0.42688,0.42688 -1.11899,0.42688 -1.54587,0z" fill="#ffffff" stroke="#000000"/><path d="M241.95452,176.71597c-0.23284,-0.23284 -0.23284,-0.61036 0,-0.8432c0.23284,-0.23284 0.61036,-0.23284 0.8432,0c0.23284,0.23284 0.23284,0.61036 0,0.8432c-0.23284,0.23284 -0.61036,0.23284 -0.8432,0z" fill="#ffffff" stroke="none"/></g><g><path d="M247.41683,170.77845c-2.06585,-2.06585 -2.06585,-5.41524 0,-7.48109c2.06585,-2.06585 5.30443,-2.24648 7.06822,0.08257c2.57656,3.40228 -0.41172,4.74006 0.11388,6.77948c0.55194,2.14161 2.44167,1.50406 2.59603,1.88989c0.15436,0.38583 -2.81737,2.05362 -5.39944,1.52531c-2.086,-0.42681 -3.45555,-1.87301 -4.37871,-2.79616z" fill="#f32f00" stroke="#000000"/><path d="M256.83856,169.82906l-0.82572,-0.82572l0.82572,-0.82572l0.82572,0.82572z" fill="#f32f00" stroke="#000000"/><path d="M257.82943,171.15022l-0.66058,-0.66058l0.66058,-0.66058l0.66058,0.66058z" fill="#f32f00" stroke="none"/><path d="M248.83405,169.15656c-1.11765,-1.11765 -1.11765,-2.92971 0,-4.04735c1.11765,-1.11765 2.86975,-1.21537 3.82398,0.04467c0.73723,0.9735 -0.06255,2.5956 -0.26232,4.00866c-0.11809,0.83531 0.25113,1.50501 0.51926,2.17523c0,0 -1.15266,-0.33221 -2.17496,-0.85195c-0.90239,-0.45878 -1.6718,-1.09509 -1.90596,-1.32926z" fill="#f29e4a" stroke="#000000"/><path d="M249.8477,167.27691c-0.42688,-0.42688 -0.42688,-1.11899 0,-1.54587c0.42688,-0.42688 1.11899,-0.42688 1.54587,0c0.42688,0.42688 0.42688,1.11899 0,1.54587c-0.42688,0.42688 -1.11899,0.42688 -1.54587,0z" fill="#ffffff" stroke="#000000"/><path d="M249.91797,168.75252c-0.23284,-0.23284 -0.23284,-0.61036 0,-0.8432c0.23284,-0.23284 0.61036,-0.23284 0.8432,0c0.23284,0.23284 0.23284,0.61036 0,0.8432c-0.23284,0.23284 -0.61036,0.23284 -0.8432,0z" fill="#ffffff" stroke="none"/></g><g><path d="M255.51083,162.68445c-2.06585,-2.06585 -2.06585,-5.41524 0,-7.48109c2.06585,-2.06585 5.30443,-2.24648 7.06822,0.08257c2.57656,3.40228 -0.41172,4.74006 0.11388,6.77948c0.55194,2.14161 2.44167,1.50406 2.59603,1.88989c0.15436,0.38583 -2.81737,2.05362 -5.39944,1.52531c-2.086,-0.42681 -3.45555,-1.87301 -4.37871,-2.79616z" fill="#f32f00" stroke="#000000"/><path d="M264.93256,161.73506l-0.82572,-0.82572l0.82572,-0.82572l0.82572,0.82572z" fill="#f32f00" stroke="#000000"/><path d="M265.92343,163.05622l-0.66058,-0.66058l0.66058,-0.66058l0.66058,0.66058z" fill="#f32f00" stroke="none"/><path d="M256.92805,161.06256c-1.11765,-1.11765 -1.11765,-2.92971 0,-4.04735c1.11765,-1.11765 2.86975,-1.21537 3.82398,0.04467c0.73723,0.9735 -0.06255,2.5956 -0.26232,4.00866c-0.11809,0.83531 0.25113,1.50501 0.51926,2.17523c0,0 -1.15266,-0.33221 -2.17496,-0.85195c-0.90239,-0.45878 -1.6718,-1.09509 -1.90596,-1.32926z" fill="#f29e4a" stroke="#000000"/><path d="M257.9417,159.18291c-0.42688,-0.42688 -0.42688,-1.11899 0,-1.54587c0.42688,-0.42688 1.11899,-0.42688 1.54587,0c0.42688,0.42688 0.42688,1.11899 0,1.54587c-0.42688,0.42688 -1.11899,0.42688 -1.54587,0z" fill="#ffffff" stroke="#000000"/><path d="M258.01197,160.65852c-0.23284,-0.23284 -0.23284,-0.61036 0,-0.8432c0.23284,-0.23284 0.61036,-0.23284 0.8432,0c0.23284,0.23284 0.23284,0.61036 0,0.8432c-0.23284,0.23284 -0.61036,0.23284 -0.8432,0z" fill="#ffffff" stroke="none"/></g></g></g></g></svg>