<svg version="1.1" xmlns="http://www.w3.org/2000/svg" xmlns:xlink="http://www.w3.org/1999/xlink" width="43.16667" height="50.82607" viewBox="0,0,43.16667,50.82607"><g transform="translate(-216.64333,-155.52941)"><g data-paper-data="{&quot;isPaintingLayer&quot;:true}" fill-rule="nonzero" stroke-linejoin="miter" stroke-miterlimit="10" stroke-dasharray="" stroke-dashoffset="0" style="mix-blend-mode: normal"><g><path d="M217.4288,202.44581v-46.16641c0,0 3.63619,-1.09272 6.10797,1.40188c2.17429,2.19439 1.55313,5.6498 3.706,8.61159c1.52151,2.09321 0.80686,-2.72771 6.08176,-1.56863c4.65557,1.023 3.72017,6.78629 6.90428,6.42277c2.23732,-0.25542 2.80416,-3.32629 4.65196,-6.69382c1.3097,-2.38688 3.9921,-3.43357 6.27946,-4.70725c1.82231,-1.01472 2.15446,-2.26948 3.59691,-2.89414c1.35045,-0.58482 4.47167,-0.57243 4.47167,-0.57243v46.16641c0,0 -6.32761,3.38636 -9.83656,3.41228c-3.31395,0.02448 -10.6656,-3.26081 -10.6656,-3.26081c0,0 -7.50579,2.3748 -11.00157,2.34993c-3.60042,-0.0256 -10.29628,-2.50139 -10.29628,-2.50139z" fill="#ffffff" stroke="none" stroke-width="0" stroke-linecap="butt"/><path d="M258.82881,156.46115c0,0 -2.11469,-0.30196 -4.78302,0.93894c-1.26122,0.58653 -2.00992,1.52939 -3.13797,2.59817c-0.94789,0.89808 -3.8812,1.88508 -4.85444,2.82426c-2.75448,2.65808 -2.99385,7.60444 -5.66516,8.5979c-3.7491,1.39428 -3.03961,-6.98522 -7.16883,-6.59917c-4.12922,0.38605 -3.46933,3.35104 -4.99299,2.18136c-2.26594,-1.7395 -2.51106,-7.91463 -4.7149,-9.4978c-2.07735,-1.49231 -5.48269,-1.2254 -5.48269,-1.2254" fill="none" stroke="#a5a5a5" stroke-width="1.5" stroke-linecap="round"/><g fill="#f32f00" stroke="none" stroke-width="0" stroke-linecap="butt"><path d="M227.42881,171.51054c0.7973,-0.37571 4.99724,-1.21203 5.24595,-0.74735c0.29415,0.54958 -3.50298,2.48409 -4.44595,2.92843c-1.09053,0.51389 -4.09373,0.70305 -4.02271,0.03304c0.07169,-0.67623 3.22271,-2.21411 3.22271,-2.21411z"/><path d="M226.40301,175.96418c1.04363,-0.49179 6.54119,-1.5865 6.86675,-0.97825c0.38503,0.71938 -4.58526,3.25157 -5.81958,3.83321c-1.42746,0.67265 -5.35854,0.92026 -5.26557,0.04323c0.09384,-0.88516 4.2184,-2.8982 4.2184,-2.8982z"/></g></g><path d="M217.07064,194.96777c0,0 6.22479,0.5922 9.62252,-0.25516c5.09775,-1.27132 12.35492,-4.15895 12.35492,-4.15895c0,0 -0.50643,0.97221 -2.30452,2.02472c-1.15973,0.67885 -4.19165,1.54274 -3.50849,1.69373c1.36547,0.30179 5.23387,2.89625 9.82225,2.90913c5.92062,0.01661 6.4569,-3.94037 7.2754,-4.71172c1.6213,-1.52789 1.51464,-4.32003 2.73776,-4.16495c1.66254,0.21079 1.26533,3.24261 2.23316,4.57805c1.33111,1.83673 4.26474,2.08514 4.26474,2.08514v4.28429c0,0 -3.94857,0.32272 -5.6534,0.22415c-1.71149,-0.09897 -6.57309,-1.8554 -6.57309,-1.8554c0,0 -6.74393,3.18918 -9.72238,3.18918c-4.16611,0 -13.12708,-1.58235 -13.12708,-1.58235c0,0 -2.53939,0.00902 -3.72944,0.01325c-1.09258,0.00388 -3.69235,0.01117 -3.69235,0.01117z" fill="#f32f00" stroke="none" stroke-width="0" stroke-linecap="butt"/><path d="M259.06,202.34194c0,0 -3.01325,2.7895 -8.3355,3.26354c-6.62756,0.5903 -11.91731,-2.79725 -11.91731,-2.79725c0,0 -7.37727,1.95715 -10.74719,1.95715c-7.70371,0 -10.66667,-2.42344 -10.66667,-2.42344" fill="none" stroke="#a5a5a5" stroke-width="1.5" stroke-linecap="round"/></g></g></svg>