<svg version="1.1" xmlns="http://www.w3.org/2000/svg" xmlns:xlink="http://www.w3.org/1999/xlink" width="54.44671" height="24.07911" viewBox="0,0,54.44671,24.07911"><g transform="translate(-212.77664,-167.96045)"><g data-paper-data="{&quot;isPaintingLayer&quot;:true}" fill-rule="nonzero" stroke="none" stroke-width="0" stroke-linecap="butt" stroke-linejoin="miter" stroke-miterlimit="10" stroke-dasharray="" stroke-dashoffset="0" style="mix-blend-mode: normal"><g><path d="M213.73469,190.50322v-20.54878h22.0662v20.54878z" data-paper-data="{&quot;index&quot;:null}" fill="#000000"/><path d="M219.05773,175.2872v-2.37602h16.74316v2.37602z" data-paper-data="{&quot;index&quot;:null}" fill="#ffffff"/><path d="M219.05773,171.61526v-2.2153h16.74316v2.2153z" data-paper-data="{&quot;index&quot;:null}" fill="#ffffff"/><path d="M212.77664,191.94273v-23.98229h4.68449v2.86048l-2.10703,0.71683l-0.61298,20.40497z" fill="#ffffff"/><path d="M214.54064,191.94273v-21.76436h2.9205v21.76436z" fill="#000000"/><path d="M214.07575,174.36962v-2.88331h3.43779v2.88331z" fill="#ffffff"/><path d="M214.29754,190.33873v-1.55255h3.1051v1.55255z" fill="#ffffff"/><g><path d="M232.07265,191.94273v-23.98229h4.68449v2.4169l-2.21793,1.16042l-0.39118,20.40497z" fill="#ffffff"/><path d="M233.83664,191.94273v-21.76436h2.9205v21.76436z" fill="#000000"/><path d="M233.37175,174.36962v-2.88331h3.4378v2.88331z" fill="#ffffff"/><path d="M233.59355,190.33873v-1.55255h3.1051v1.55255z" fill="#ffffff"/></g><path d="M219.81424,192.03955v-6.00527c0,0 -0.25105,-4.73106 4.87908,-4.7704c5.27312,-0.04043 5.10088,4.7704 5.10088,4.7704v6.00527z" data-paper-data="{&quot;index&quot;:null}" fill="#000000"/><path d="M228.39485,192.03955c0,0 0.26945,-6.19268 -0.52562,-7.98456c-1.4376,-3.23997 -5.72817,-2.12266 -5.72817,-2.12266c0,0 0.22799,-0.16351 0.39646,-0.23512c0.64616,-0.27467 1.44946,-0.44098 2.44803,-0.43333c5.13013,0.03934 4.87908,4.7704 4.87908,4.7704v6.00527z" data-paper-data="{&quot;index&quot;:null}" fill="#dc570f"/><path d="M219.81424,192.03955v-6.00527c0,0 -0.25105,-4.73107 4.87908,-4.7704c0.99857,-0.00766 1.80186,0.15866 2.44803,0.43333c0.16847,0.07161 0.39646,0.23512 0.39646,0.23512c0,0 -4.29056,-1.11731 -5.72817,2.12266c-0.79506,1.79187 -0.52562,7.98455 -0.52562,7.98455z" data-paper-data="{&quot;index&quot;:null}" fill="#ffffff"/><g><path d="M222.75196,185.04357c0,-0.94932 0.76957,-1.71889 1.7189,-1.71889c0.94932,0 1.71889,0.76957 1.71889,1.71889c0,0.94932 -0.76957,1.7189 -1.71889,1.7189c-0.94932,0 -1.7189,-0.76957 -1.7189,-1.7189z" fill="#ffffff"/><path d="M223.41734,185.70895c0,-0.94932 0.76957,-1.7189 1.7189,-1.7189c0.94932,0 1.71889,0.76957 1.71889,1.7189c0,0.94932 -0.76957,1.7189 -1.71889,1.7189c-0.94932,0 -1.7189,-0.76957 -1.7189,-1.7189z" fill="#dc570f"/><path d="M223.08465,185.37626c0,-0.94932 0.76957,-1.7189 1.71889,-1.7189c0.94932,0 1.71889,0.76957 1.71889,1.7189c0,0.94932 -0.76957,1.7189 -1.71889,1.7189c-0.94932,0 -1.71889,-0.76957 -1.71889,-1.7189z" fill="#000000"/></g></g><g><path d="M259.58533,170.62476h4.93573v18.63513h-4.93573z" fill="#dc570f"/><path d="M260.66336,174.27182v-2.4461h3.11322v2.4461z" fill="#ffffff"/><g fill="#000000"><path d="M250.32302,191.33138c0,0 -10.39393,-7.93259 -10.39393,-11.79402c0,-3.72648 10.39393,-10.98409 10.39393,-10.98409h10.78509v22.77811z"/><path d="M238.71922,179.83114c0,-7.4087 11.67458,-11.27787 11.67458,-11.27787v22.77811c0,0 -11.67458,-4.09154 -11.67458,-11.50024z"/><path d="M263.22064,191.33138v-22.77811h4.00272v22.77811z"/></g><path d="M250.87895,171.71452c-3.1124,0 -7.33831,3.66915 -7.33831,3.66915v-1.11187c0,0 4.22591,-3.66915 7.33831,-3.66915c2.7799,0 7.89424,0 7.89424,0v1.11187c0,0 -5.11434,0 -7.89424,0z" fill="#ffffff"/><path d="M247.54335,179.09415c0,2.20221 -2.11145,3.86117 -4.01506,3.86117c-1.90361,0 -2.87851,-1.65896 -2.87851,-3.86117c0,-0.03952 2.08385,-2.23027 4.52813,-3.04128c0.39555,-0.13124 2.36544,0.83907 2.36544,3.04128z" fill="#dc570f"/><path d="M246.46995,179.03101c0,1.8865 -1.79574,3.10347 -2.87851,3.10347c-1.90361,0 -2.94165,-0.83812 -2.94165,-3.04032c0,-0.03952 2.08385,-2.23027 4.52813,-3.04128c0.39555,-0.13125 1.29203,0.77593 1.29203,2.97814z" fill="#ffffff"/><path d="M241.92844,180.83181c-0.58336,0 -1.05627,-0.47291 -1.05627,-1.05627c0,-0.58336 0.47291,-1.05627 1.05627,-1.05627c0.58336,0 1.05627,0.47291 1.05627,1.05627c0,0.58336 -0.47291,1.05627 -1.05627,1.05627z" fill="#000000"/><path d="M256.33969,184.24728c-1.52472,0 -2.76076,-1.23604 -2.76076,-2.76076c0,-1.52472 1.23604,-2.76076 2.76076,-2.76076c1.52472,0 2.76076,1.23604 2.76076,2.76076c0,1.52472 -1.23604,2.76076 -2.76076,2.76076z" fill="#dc570f"/><g fill="#ffffff"><path d="M253.55743,186.33555c0,1.75009 -1.19472,3.16881 -2.66847,3.16881c-0.58997,0 -1.43124,-0.19714 -1.9132,-0.84837c-0.28996,-0.3918 -0.2692,-1.12861 -0.49438,-1.57678c-0.33551,-0.66776 -0.68563,-1.17748 -0.68563,-1.80549c0,-0.93698 2.09915,-0.79915 2.38401,-1.04837c0.16981,-0.14857 -0.45,-1.2441 0.56763,-1.76651c0.33261,-0.17075 1.88124,0.16327 2.18208,0.62165c0.33167,0.50536 0.62798,2.26299 0.62798,3.25506z"/><path d="M258.39257,182.08823c0.92025,6.52077 -5.16594,5.63124 -5.16594,5.63124l-0.8157,-2.90587c0,0 4.35351,0.86646 2.513,-2.513c-0.53291,-0.97851 0.55671,-2.22985 1.59275,-2.22985c1.03603,0 1.7202,0.91419 1.8759,2.01748z"/></g></g></g></g></svg>