<svg version="1.1" xmlns="http://www.w3.org/2000/svg" xmlns:xlink="http://www.w3.org/1999/xlink" width="162" height="74" viewBox="0,0,162,74"><g transform="translate(-201.5,-142)"><g data-paper-data="{&quot;isPaintingLayer&quot;:true}" fill-rule="nonzero" stroke-width="0" stroke-linecap="butt" stroke-linejoin="miter" stroke-miterlimit="10" stroke-dasharray="" stroke-dashoffset="0" style="mix-blend-mode: normal"><g data-paper-data="{&quot;index&quot;:null}"><path d="M333.00638,181.9548c0,4.38148 -3.55189,7.93337 -7.93337,7.93337c-4.38148,0 -8.00741,-3.24283 -7.40798,-7.58311c0.87564,-6.34029 5.46324,-4.59001 7.06857,-7.31011c1.68577,-2.85639 -0.9943,-4.18428 -0.74883,-4.75713c0.24547,-0.57285 5.16547,0.80993 7.3434,4.10835c1.7595,2.66473 1.67822,5.65071 1.67822,7.60864z" fill="#f32f00" stroke="#000000"/><path d="M322.00825,172.97026v1.75129h-1.75129v-1.75129z" fill="#f32f00" stroke="#000000"/><path d="M322.35851,170.51845v1.40103h-1.40103v-1.40103z" fill="#f32f00" stroke="none"/><path d="M329.78354,182.17185c0,2.37043 -1.92161,4.29204 -4.29204,4.29204c-2.37043,0 -4.33209,-1.7544 -4.00779,-4.10254c0.25055,-1.81415 2.81886,-2.68619 4.52918,-3.97283c1.01103,-0.76058 1.32968,-1.86231 1.75608,-2.85739c0,0 0.87006,1.57464 1.403,3.20991c0.47043,1.44347 0.61157,2.93417 0.61157,3.43081z" fill="#f29e4a" stroke="#000000"/><path d="M326.71532,183.0902c0,0.90538 -0.73395,1.63933 -1.63933,1.63933c-0.90538,0 -1.63933,-0.73395 -1.63933,-1.63933c0,-0.90538 0.73395,-1.63933 1.63933,-1.63933c0.90538,0 1.63933,0.73395 1.63933,1.63933z" fill="#ffffff" stroke="#000000"/><path d="M328.20562,181.45087c0,0.49384 -0.40034,0.89418 -0.89418,0.89418c-0.49384,0 -0.89418,-0.40034 -0.89418,-0.89418c0,-0.49384 0.40034,-0.89418 0.89418,-0.89418c0.49384,0 0.89418,0.40034 0.89418,0.89418z" fill="#ffffff" stroke="none"/></g><g data-paper-data="{&quot;index&quot;:null}"><path d="M316.0927,181.9548c0,4.38148 -3.55189,7.93337 -7.93337,7.93337c-4.38148,0 -8.00741,-3.24283 -7.40798,-7.58311c0.87564,-6.34029 5.46324,-4.59001 7.06857,-7.31011c1.68577,-2.85639 -0.9943,-4.18428 -0.74883,-4.75713c0.24547,-0.57285 5.16547,0.80993 7.3434,4.10835c1.7595,2.66473 1.67822,5.65071 1.67822,7.60864z" fill="#f32f00" stroke="#000000"/><path d="M305.09457,172.97026v1.75129h-1.75129v-1.75129z" fill="#f32f00" stroke="#000000"/><path d="M305.44483,170.51845v1.40103h-1.40103v-1.40103z" fill="#f32f00" stroke="none"/><path d="M312.86986,182.17185c0,2.37043 -1.92161,4.29204 -4.29204,4.29204c-2.37043,0 -4.33209,-1.7544 -4.00779,-4.10254c0.25055,-1.81415 2.81886,-2.68619 4.52918,-3.97283c1.01103,-0.76058 1.32968,-1.86231 1.75608,-2.85739c0,0 0.87006,1.57464 1.403,3.20991c0.47043,1.44347 0.61157,2.93417 0.61157,3.43081z" fill="#f29e4a" stroke="#000000"/><path d="M309.80164,183.0902c0,0.90538 -0.73395,1.63933 -1.63933,1.63933c-0.90538,0 -1.63933,-0.73395 -1.63933,-1.63933c0,-0.90538 0.73395,-1.63933 1.63933,-1.63933c0.90538,0 1.63933,0.73395 1.63933,1.63933z" fill="#ffffff" stroke="#000000"/><path d="M311.29194,181.45087c0,0.49384 -0.40034,0.89418 -0.89418,0.89418c-0.49384,0 -0.89418,-0.40034 -0.89418,-0.89418c0,-0.49384 0.40034,-0.89418 0.89418,-0.89418c0.49384,0 0.89418,0.40034 0.89418,0.89418z" fill="#ffffff" stroke="none"/></g><g data-paper-data="{&quot;index&quot;:null}"><path d="M298.92603,181.9548c0,4.38148 -3.55189,7.93337 -7.93337,7.93337c-4.38148,0 -8.00741,-3.24283 -7.40798,-7.58311c0.87564,-6.34029 5.46324,-4.59001 7.06857,-7.31011c1.68577,-2.85639 -0.9943,-4.18428 -0.74883,-4.75713c0.24547,-0.57285 5.16547,0.80993 7.3434,4.10835c1.7595,2.66473 1.67822,5.65071 1.67822,7.60864z" fill="#f32f00" stroke="#000000"/><path d="M287.9279,172.97026v1.75129h-1.75129v-1.75129z" fill="#f32f00" stroke="#000000"/><path d="M288.27816,170.51845v1.40103h-1.40103v-1.40103z" fill="#f32f00" stroke="none"/><path d="M295.70319,182.17185c0,2.37043 -1.92161,4.29204 -4.29204,4.29204c-2.37043,0 -4.33209,-1.7544 -4.00779,-4.10254c0.25055,-1.81415 2.81886,-2.68619 4.52918,-3.97283c1.01103,-0.76058 1.32968,-1.86231 1.75608,-2.85739c0,0 0.87006,1.57464 1.403,3.20991c0.47043,1.44347 0.61157,2.93417 0.61157,3.43081z" fill="#f29e4a" stroke="#000000"/><path d="M292.63497,183.0902c0,0.90538 -0.73395,1.63933 -1.63933,1.63933c-0.90538,0 -1.63933,-0.73395 -1.63933,-1.63933c0,-0.90538 0.73395,-1.63933 1.63933,-1.63933c0.90538,0 1.63933,0.73395 1.63933,1.63933z" fill="#ffffff" stroke="#000000"/><path d="M294.12527,181.45087c0,0.49384 -0.40034,0.89418 -0.89418,0.89418c-0.49384,0 -0.89418,-0.40034 -0.89418,-0.89418c0,-0.49384 0.40034,-0.89418 0.89418,-0.89418c0.49384,0 0.89418,0.40034 0.89418,0.89418z" fill="#ffffff" stroke="none"/></g><g data-paper-data="{&quot;index&quot;:null}"><path d="M281.75936,181.9548c0,4.38148 -3.55189,7.93337 -7.93337,7.93337c-4.38148,0 -8.00741,-3.24283 -7.40798,-7.58311c0.87564,-6.34029 5.46324,-4.59001 7.06857,-7.31011c1.68577,-2.85639 -0.9943,-4.18428 -0.74883,-4.75713c0.24547,-0.57285 5.16547,0.80993 7.3434,4.10835c1.7595,2.66473 1.67822,5.65071 1.67822,7.60864z" fill="#f32f00" stroke="#000000"/><path d="M270.76123,172.97026v1.75129h-1.75129v-1.75129z" fill="#f32f00" stroke="#000000"/><path d="M271.11149,170.51845v1.40103h-1.40103v-1.40103z" fill="#f32f00" stroke="none"/><path d="M278.53652,182.17185c0,2.37043 -1.92161,4.29204 -4.29204,4.29204c-2.37043,0 -4.33209,-1.7544 -4.00779,-4.10254c0.25055,-1.81415 2.81886,-2.68619 4.52918,-3.97283c1.01103,-0.76058 1.32968,-1.86231 1.75608,-2.85739c0,0 0.87006,1.57464 1.403,3.20991c0.47043,1.44347 0.61157,2.93417 0.61157,3.43081z" fill="#f29e4a" stroke="#000000"/><path d="M275.4683,183.0902c0,0.90538 -0.73395,1.63933 -1.63933,1.63933c-0.90538,0 -1.63933,-0.73395 -1.63933,-1.63933c0,-0.90538 0.73395,-1.63933 1.63933,-1.63933c0.90538,0 1.63933,0.73395 1.63933,1.63933z" fill="#ffffff" stroke="#000000"/><path d="M276.9586,181.45087c0,0.49384 -0.40034,0.89418 -0.89418,0.89418c-0.49384,0 -0.89418,-0.40034 -0.89418,-0.89418c0,-0.49384 0.40034,-0.89418 0.89418,-0.89418c0.49384,0 0.89418,0.40034 0.89418,0.89418z" fill="#ffffff" stroke="none"/></g><g data-paper-data="{&quot;index&quot;:null}"><path d="M264.86958,181.9548c0,4.38148 -3.55189,7.93337 -7.93337,7.93337c-4.38148,0 -8.00741,-3.24283 -7.40798,-7.58311c0.87564,-6.34029 5.46324,-4.59001 7.06857,-7.31011c1.68577,-2.85639 -0.9943,-4.18428 -0.74883,-4.75713c0.24547,-0.57285 5.16547,0.80993 7.3434,4.10835c1.7595,2.66473 1.67822,5.65071 1.67822,7.60864z" fill="#f32f00" stroke="#000000"/><path d="M253.87145,172.97026v1.75129h-1.75129v-1.75129z" fill="#f32f00" stroke="#000000"/><path d="M254.22171,170.51845v1.40103h-1.40103v-1.40103z" fill="#f32f00" stroke="none"/><path d="M261.64674,182.17185c0,2.37043 -1.92161,4.29204 -4.29204,4.29204c-2.37043,0 -4.33209,-1.7544 -4.00779,-4.10254c0.25055,-1.81415 2.81886,-2.68619 4.52918,-3.97283c1.01103,-0.76058 1.32968,-1.86231 1.75608,-2.85739c0,0 0.87006,1.57464 1.403,3.20991c0.47043,1.44347 0.61157,2.93417 0.61157,3.43081z" fill="#f29e4a" stroke="#000000"/><path d="M258.57852,183.0902c0,0.90538 -0.73395,1.63933 -1.63933,1.63933c-0.90538,0 -1.63933,-0.73395 -1.63933,-1.63933c0,-0.90538 0.73395,-1.63933 1.63933,-1.63933c0.90538,0 1.63933,0.73395 1.63933,1.63933z" fill="#ffffff" stroke="#000000"/><path d="M260.06882,181.45087c0,0.49384 -0.40034,0.89418 -0.89418,0.89418c-0.49384,0 -0.89418,-0.40034 -0.89418,-0.89418c0,-0.49384 0.40034,-0.89418 0.89418,-0.89418c0.49384,0 0.89418,0.40034 0.89418,0.89418z" fill="#ffffff" stroke="none"/></g><g data-paper-data="{&quot;index&quot;:null}"><path d="M247.70291,181.9548c0,4.38148 -3.55189,7.93337 -7.93337,7.93337c-4.38148,0 -8.00741,-3.24283 -7.40798,-7.58311c0.87564,-6.34029 5.46324,-4.59001 7.06857,-7.31011c1.68577,-2.85639 -0.9943,-4.18428 -0.74883,-4.75713c0.24547,-0.57285 5.16547,0.80993 7.3434,4.10835c1.7595,2.66473 1.67822,5.65071 1.67822,7.60864z" fill="#f32f00" stroke="#000000"/><path d="M236.70478,172.97026v1.75129h-1.75129v-1.75129z" fill="#f32f00" stroke="#000000"/><path d="M237.05504,170.51845v1.40103h-1.40103v-1.40103z" fill="#f32f00" stroke="none"/><path d="M244.48007,182.17185c0,2.37043 -1.92161,4.29204 -4.29204,4.29204c-2.37043,0 -4.33209,-1.7544 -4.00779,-4.10254c0.25055,-1.81415 2.81886,-2.68619 4.52918,-3.97283c1.01103,-0.76058 1.32968,-1.86231 1.75608,-2.85739c0,0 0.87006,1.57464 1.403,3.20991c0.47043,1.44347 0.61157,2.93417 0.61157,3.43081z" fill="#f29e4a" stroke="#000000"/><path d="M241.41185,183.0902c0,0.90538 -0.73395,1.63933 -1.63933,1.63933c-0.90538,0 -1.63933,-0.73395 -1.63933,-1.63933c0,-0.90538 0.73395,-1.63933 1.63933,-1.63933c0.90538,0 1.63933,0.73395 1.63933,1.63933z" fill="#ffffff" stroke="#000000"/><path d="M242.90215,181.45087c0,0.49384 -0.40034,0.89418 -0.89418,0.89418c-0.49384,0 -0.89418,-0.40034 -0.89418,-0.89418c0,-0.49384 0.40034,-0.89418 0.89418,-0.89418c0.49384,0 0.89418,0.40034 0.89418,0.89418z" fill="#ffffff" stroke="none"/></g><path d="M201.5,216v-74h162v74z" fill="none" stroke="#a97a4a"/></g></g></svg>