<svg version="1.1" xmlns="http://www.w3.org/2000/svg" xmlns:xlink="http://www.w3.org/1999/xlink" width="235.82023" height="85.49398" viewBox="0,0,235.82023,85.49398"><defs><linearGradient x1="266.52614" y1="153.80291" x2="431.82326" y2="153.80291" gradientUnits="userSpaceOnUse" id="color-1"><stop offset="0" stop-color="#a97a4a"/><stop offset="1" stop-color="#a97a4a" stop-opacity="0"/></linearGradient></defs><g transform="translate(-197.25302,-137.25301)"><g data-paper-data="{&quot;isPaintingLayer&quot;:true}" fill-rule="nonzero" stroke-linejoin="miter" stroke-miterlimit="10" stroke-dasharray="" stroke-dashoffset="0" style="mix-blend-mode: normal"><path d="M197.25302,222.74699v-85.49398h85.49398v85.49398z" data-paper-data="{&quot;index&quot;:null}" fill="none" stroke="none" stroke-width="0" stroke-linecap="butt"/><path d="M213.19281,153.80291h53.29711" fill="none" stroke="#a97a4a" stroke-width="2.5" stroke-linecap="round"/><path d="M266.52614,153.80291h165.29711" fill="none" stroke="url(#color-1)" stroke-width="2.5" stroke-linecap="round"/><g><g><path d="M213.74128,202.57371v-48.23715h52.96141v48.23716l-4.47561,3.97832h-44.25884z" fill="#ffffff" stroke="none" stroke-width="0" stroke-linecap="butt"/><path d="M266.59918,154.63054c0,0 0.08078,37.68837 0.09924,45.62254c0.00918,3.9444 -2.55058,6.39264 -6.49499,6.3929c-11.37037,0.00073 -34.23725,0.00222 -40.50616,0.00263c-3.84934,0.00025 -6.39571,-2.54596 -6.39571,-6.3953c0,-7.93565 0,-45.62277 0,-45.62277" fill="none" stroke="#a97a4a" stroke-width="2.5" stroke-linecap="round"/></g><g><g><g><path d="M221.45552,186.80443c0,0 -1.07004,-1.01553 -1.42492,-1.99812c-0.40959,-1.13406 -0.11191,-2.27329 -0.11191,-2.55556c0,-0.51755 1.54439,-0.43814 1.7257,-0.9373c0.26271,-0.72328 0.61831,-2.01141 1.50821,-2.66205c1.42611,-1.04268 5.23293,-1.19744 5.23293,-1.19744l1.72446,-2.12022c0,0 -0.72877,-2.23198 0.82818,-4.23417c0.37192,-0.47828 1.32129,-1.45049 2.03317,-1.76175c0.75518,-0.33019 1.72345,0.15207 2.34206,-0.24009c1.44931,-0.91879 1.60497,-1.66113 2.71163,-1.66113c2.07226,0 3.91984,0 3.91984,0v23.78875l-1.30842,0.06421c0,0 -2.33864,1.50864 -4.46968,1.65812c-0.93507,0.06559 -3.41149,-1.17456 -3.76497,-1.15825c-1.21327,0.05597 -4.0584,-0.11842 -4.81515,-0.29172c-2.27948,-0.52203 -2.12383,-2.24702 -3.04827,-3.15509c-1.14845,-1.12813 -3.08288,-1.5382 -3.08288,-1.5382z" fill="#ffe2e2" stroke="#000000" stroke-width="0" stroke-linecap="butt"/><path d="M241.67851,191.51053c0,0 -0.29633,0.00113 -0.7012,-0.07849c-0.2063,-0.04057 -0.44079,-0.29356 -0.67861,-0.18418c-0.71832,0.33036 -1.48244,1.57171 -3.20579,1.58244c-3.67213,0.02287 -4.12355,-1.16893 -4.9311,-1.10548c-2.4009,0.18867 -2.28177,0.59654 -4.65066,-0.09794c-2.48296,-0.72793 -2.07733,-2.21769 -3.33251,-3.68034c-0.58303,-0.67939 -1.64099,-0.53945 -2.52583,-1.19619c-1.56655,-1.1627 -1.98958,-3.43385 -1.74139,-4.24618c0.24819,-0.81233 1.49726,-0.38657 1.82889,-1.21636c1.17436,-2.93854 3.4977,-4.17808 6.65188,-3.92268c0.42613,0.0345 1.31445,-1.50136 1.47976,-2.01678c0.3755,-1.17084 -0.21189,-2.83901 0.94602,-4.1847c0.59777,-0.69471 1.19171,-1.56456 2.32392,-2.03423c0.3088,-0.1281 1.73926,0.35645 2.00855,0.21056c1.27091,-0.68852 1.24017,-1.2585 2.56045,-1.68616c0.56035,-0.1815 0.99591,-0.6071 1.78799,-0.60399c1.0742,0.00421 2.23235,0.48129 2.23235,0.48129" fill="none" stroke="#752e08" stroke-width="1" stroke-linecap="round"/></g><g stroke="none" stroke-width="0" stroke-linecap="butt"><path d="" fill="#6ff1ff"/><path d="M233.4345,171.83198c0.88085,-0.42663 4.02961,-0.82061 4.19798,-0.506c0.19915,0.3721 -2.6301,1.29397 -3.26849,1.59482c-0.73828,0.34793 -2.25424,1.5104 -2.20615,1.05676c0.04853,-0.45785 0.3958,-1.71895 1.27665,-2.14559z" fill="#a97a4a"/></g><path d="M225.40686,186.5435c0,0 1.96427,2.44139 4.00704,2.81908c0.81126,0.14999 0.42039,-1.231 1.80221,-1.56844c0.47779,-0.11668 1.18976,0.63125 1.60528,0.83866c0.47793,0.23857 1.61975,0.82347 2.65085,0.5757c1.77369,-0.42623 1.90509,0.49515 3.5753,-0.10917c0.75053,-0.27157 1.18051,-1.01936 1.67962,-1.50741c0.61159,-0.59803 1.44157,-0.8064 1.44157,-0.8064v2.18103c0,0 -0.3321,0.15651 -0.70824,0.38521c-0.96272,0.58537 -2.85193,1.64375 -4.92174,1.7616c-0.79568,0.04531 -1.34623,-0.20158 -2.22188,-0.49215c-0.83843,-0.27821 -2.00359,-0.59649 -2.70112,-0.73666c-1.04511,-0.21002 -1.69478,0.33885 -2.31733,0.21799c-1.96499,-0.38146 -3.89157,-3.55903 -3.89157,-3.55903z" fill="#a97a4a" stroke="none" stroke-width="0" stroke-linecap="butt"/></g><g><g data-paper-data="{&quot;index&quot;:null}"><path d="M251.59074,190.62602c0,0 -1.32108,1.82484 -4.89928,2.01119c-3.57821,0.18635 -5.52454,-1.60483 -5.52454,-1.60483l0.18925,-23.55699c0,0 3.61338,-0.10491 4.90818,0.87422c1.43352,1.08403 2.90546,5.34732 2.90546,5.34732c0,0 1.33565,-1.75605 2.36188,-1.76643c3.85379,-0.03895 3.72816,7.05938 3.72816,7.05938c0,0 1.78063,-1.61793 3.13708,-0.31203c1.6232,1.56272 0.57799,5.09748 0.57799,5.09748c0,0 0.86044,0.96798 1.07568,2.13651c0.20438,1.10957 0.25157,1.8496 -0.4013,2.7092c-2.10667,2.77377 -8.05855,2.00497 -8.05855,2.00497z" fill="#ffe2e2" stroke="#000000" stroke-width="0" stroke-linecap="butt"/><path d="M241.47519,167.56899c0,0 3.44854,-0.37929 4.90787,1.0181c2.22854,2.13395 2.17963,5.09804 2.50642,5.20196c0.38112,0.1212 0.98594,-1.34903 2.55854,-1.76308c2.90788,-0.76562 3.61715,3.38343 3.75436,6.38727c0.05544,1.21376 0.88213,-0.945 2.49922,-0.26923c1.0707,0.44744 1.73743,1.87301 1.52563,3.28963c-0.16168,1.08141 -0.38898,2.10269 -0.33097,2.19367c1.30186,2.04193 1.51001,2.95722 0.82441,4.61339c-1.31055,3.16583 -8.23556,2.42632 -8.23556,2.42632c0,0 -1.61423,1.76771 -5.0967,1.96437c-3.32948,0.18801 -4.76585,-1.31661 -4.76585,-1.31661" fill="none" stroke="#752e08" stroke-width="1" stroke-linecap="round"/></g><path d="M245.20936,174.11156c-0.14551,0.28498 -1.63228,-1.21354 -2.09638,-1.48606c-0.53673,-0.31516 -1.94097,-1.09603 -1.63751,-1.26046c0.30627,-0.16596 1.46033,0.0558 2.17503,0.58151c0.7147,0.52571 1.68189,1.92407 1.55886,2.16501z" fill="#a97a4a" stroke="none" stroke-width="0" stroke-linecap="butt"/><path d="M241.13234,189.56381v-2.15978c0,0 2.97251,1.65256 4.8896,1.17047c2.47156,-0.62152 4.30502,-1.73443 4.5222,-1.06616c0.15473,0.47613 -1.82082,2.72926 -4.4675,2.90417c-2.44336,0.16148 -4.9443,-0.84871 -4.9443,-0.84871z" data-paper-data="{&quot;index&quot;:null}" fill="#a97a4a" stroke="none" stroke-width="0" stroke-linecap="butt"/><path d="M251.52982,186.02466c0.17653,0.2746 -0.06993,0.74764 -0.55048,1.05657c-0.48054,0.30893 -1.01321,0.33675 -1.18975,0.06215c-0.17653,-0.2746 0.2177,-0.30432 0.69825,-0.61325c0.48055,-0.30892 0.86545,-0.78006 1.04198,-0.50547z" fill="#a97a4a" stroke="none" stroke-width="0" stroke-linecap="butt"/></g></g></g></g></g></svg>