<svg version="1.1" xmlns="http://www.w3.org/2000/svg" xmlns:xlink="http://www.w3.org/1999/xlink" width="85.49398" height="85.49398" viewBox="0,0,85.49398,85.49398"><defs><linearGradient x1="-3285.69704" y1="-2895.28054" x2="-3285.69704" y2="4105.40968" gradientUnits="userSpaceOnUse" id="color-1"><stop offset="0" stop-color="#ffffff"/><stop offset="1" stop-color="#ffffff" stop-opacity="0"/></linearGradient></defs><g transform="translate(-199.57062,-137.63928)"><g data-paper-data="{&quot;isPaintingLayer&quot;:true}" fill-rule="nonzero" stroke-linecap="butt" stroke-linejoin="miter" stroke-miterlimit="10" stroke-dasharray="" stroke-dashoffset="0" style="mix-blend-mode: normal"><path d="M199.57062,223.13326v-85.49398h85.49398v85.49398z" fill="none" stroke="none" stroke-width="0"/><path d="M208.63952,205.58014c0.00324,-13.1024 0,-44.63208 0,-51.75c0,-3.5626 2.97813,-5.21784 6.54073,-5.21784c12.68063,0 43.89984,0 51,0c2.96729,0 5.18024,2.50056 5.18024,5.46784c0,6.43742 0,39.20833 0,51.75c0,2.95974 -2.72049,5.55758 -5.68024,5.55758c-6.61442,0 -39.17756,0 -52,0c-3.13138,0 -5.04177,-1.58613 -5.04073,-5.80758z" fill="url(#color-1)" stroke="#a97a4a" stroke-width="2"/><g stroke-width="0"><g data-paper-data="{&quot;index&quot;:null}" stroke="none"><path d="M232.03071,175.11502c-0.71269,-0.65708 -1.47898,-1.26878 -1.47898,-1.26878c0,0 5.18958,-0.33243 9.14109,1.32739c3.95151,1.65983 5.99884,4.86713 5.99884,4.86713l-12.569,-3.39223c0,0 -0.49056,-0.97903 -1.09196,-1.5335z" fill="#f29e4a"/><path d="M253.69011,194.19961c0,0 1.04136,0.21149 1.65961,-0.22886c1.13163,-0.80599 2.1885,-2.40926 2.33962,-1.68849c0.24739,1.17992 0.99977,4.17897 -0.57131,8.40683c-1.02006,2.74504 -3.46619,5.75205 -4.57055,5.75205c-0.7346,0 -0.98047,-4.95821 -0.98047,-4.95821l2.1231,-7.28331z" fill="#f29e4a"/><g><path d="M224.83856,189.27192c0,-6.66978 5.02661,-13.21334 12.24561,-13.21334c7.219,0 18.02443,11.6584 17.74925,20.03313c-0.21903,6.66595 -4.60622,9.82561 -12.24561,10.65593c-5.12381,0.55689 -12.76748,-0.62994 -14.24175,-3.3362c-0.50497,-0.92696 -0.05843,-2.14144 -0.43756,-3.05233c-0.67368,-1.61858 -2.04515,-2.91495 -2.38558,-4.47241c-0.49942,-2.28488 -0.68437,-4.49681 -0.68437,-6.61477z" fill="#f32f00"/><path d="M231.96823,197.58477c0,0 3.20327,0.16577 8.8666,2.96821c5.66334,2.80244 7.33397,5.13726 7.33397,5.13726c0,0 -3.38743,0.976 -5.4434,1.19947c-5.1238,0.55689 -12.58783,-0.25897 -14.60099,-3.70717z" fill="#ffffff"/></g><g><g><path d="M230.88196,181.51206c3.33288,0 4.00898,2.56875 4.00898,5.73747c0,3.16872 -0.48964,5.73747 -4.00898,5.73747c-2.95994,0 -4.00896,-2.56875 -4.00896,-5.73747c0,-3.16872 0.48963,-5.73747 4.00896,-5.73747z" fill="#ffffff"/><path d="M229.76319,185.68476c0.77235,0 1.39847,0.98079 1.39847,2.19066c0,1.20986 -0.62611,2.19066 -1.39847,2.19066c-0.77235,0 -1.39847,-0.98079 -1.39847,-2.19066c0,-1.20987 0.62611,-2.19066 1.39847,-2.19066z" fill="#f32f00"/></g><g><path d="M221.91285,187.54135c0,-3.16872 -0.06975,-5.94609 3.44958,-5.94609c1.84116,0 3.07666,2.56875 3.07666,5.73747c0,3.16872 -1.2355,5.32019 -3.07666,5.32019c-2.95996,0 -3.44958,-1.94284 -3.44958,-5.11155z" fill="#ffffff"/><path d="M224.80301,185.55933c0.77236,0 1.39849,0.98081 1.39849,2.19068c0,1.20987 -0.62613,2.19066 -1.39849,2.19066c-0.77235,0 -1.39846,-0.98079 -1.39846,-2.19066c0,-1.20987 0.62611,-2.19068 1.39846,-2.19068z" fill="#f32f00"/></g></g><path d="M228.71097,202.07135c1.50844,-0.64106 -0.97717,-5.63206 -3.40983,-5.99969c-1.223,-0.18482 -1.93399,-0.06209 -2.19243,-0.95613c-0.3625,-1.25402 0.99638,-2.64873 2.42205,-2.64873c2.33374,0 5.25291,2.0838 6.21217,5.1781c0.38562,1.24391 1.45758,3.59182 0.28925,4.85855c-2.10599,2.28338 -6.52231,2.89072 -6.50143,0.55445c0.01314,-1.46932 1.67178,-0.3455 3.18021,-0.98655z" fill="#f29e4a"/><path d="M243.79076,187.60586c9.75127,-10.26324 15.66112,-4.77089 13.88817,1.22053c-0.49537,1.67404 -1.31284,4.09605 -2.75129,4.9455c-3.7098,2.19074 -9.88011,0.81939 -12.90982,0.39429c-2.17465,-0.30513 -1.25577,-3.37257 1.77295,-6.56032z" fill="#ffffff"/></g><path d="M236.20266,162.60363c-0.56916,0.56889 -1.49223,0.56821 -2.06098,-0.00151c-0.56916,-0.56946 -0.56848,-1.49226 0.0015,-2.06142c2.24889,-2.24562 5.19148,-5.18378 5.19148,-5.18378c0.56946,-0.56875 1.49242,-0.56807 2.06128,0.0015c0,0 3.40513,3.40968 5.22575,5.23325c0.56889,0.56957 0.56807,1.49223 -0.0015,2.06139c-0.56957,0.56889 -1.49239,0.56821 -2.06128,-0.0015c-2.24547,-2.24889 -2.73812,-2.73638 -2.73812,-2.73638c0,0 -0.0083,7.25583 -0.01018,9.83255c-0.00059,0.80507 -0.65349,1.45717 -1.45856,1.45658c-0.80495,-0.00059 -1.45717,-0.65367 -1.45661,-1.45871c0.00224,-3.07338 0.01006,-9.84046 0.01006,-9.84046c0,0 -0.87874,0.87757 -2.70285,2.69848z" fill="#f29e4a" stroke="#ffffff"/></g></g></g></svg>