<svg version="1.1" xmlns="http://www.w3.org/2000/svg" xmlns:xlink="http://www.w3.org/1999/xlink" width="241.74852" height="120.52929" viewBox="0,0,241.74852,120.52929"><defs><linearGradient x1="239.36133" y1="35.39944" x2="239.36133" y2="153.42873" gradientUnits="userSpaceOnUse" id="color-1"><stop offset="0" stop-color="#c84c0c"/><stop offset="1" stop-color="#aa3900"/></linearGradient></defs><g transform="translate(-118.48706,-33.97286)"><g data-paper-data="{&quot;isPaintingLayer&quot;:true}" fill-rule="nonzero" stroke-linecap="butt" stroke-linejoin="miter" stroke-miterlimit="10" stroke-dasharray="" stroke-dashoffset="0" style="mix-blend-mode: normal"><path d="M119.73706,153.25213v-118.02927h239.24852v118.02929z" fill="url(#color-1)" stroke="#fcbcb0" stroke-width="2.5"/><g><g fill="#000000" stroke="none" stroke-width="0"><path d="M205.16338,147.34267v-54.53348h8.2028v54.53348z"/><g><path d="M183.28922,147.34267v-54.53348h8.2028v54.53348z"/><path d="M194.39719,114.53145v-10.78518h8.2028v10.78518z"/><path d="M183.42527,104.02488c0,-6.23619 4.25415,-11.29163 9.50191,-11.29163c5.24777,0 9.50191,5.05543 9.50191,11.29163c0,0.72577 -0.16771,-0.09084 -0.16771,-0.09084l-18.86778,0.1381c0,0 0.03167,0.64924 0.03167,-0.04726z"/><path d="M194.4216,147.34267v-26.40957h5.33183c0,0 0.81576,0.28395 1.57762,1.59046c0.66737,1.14446 1.29335,3.23263 1.29335,4.47485c0,4.79006 0,20.34428 0,20.34428z"/><path d="M192.70469,114.37372l9.5567,-0.03676c0,0 0.16771,-0.81659 0.16771,-0.09084c0,6.23619 -4.25415,11.29163 -9.50191,11.29163c-0.28985,0 -0.12376,-0.04561 -0.12376,-0.04561z" data-paper-data="{&quot;index&quot;:null}"/></g><g><path d="M216.10046,136.4056v-32.65933h8.2028v32.65933z"/><path d="M227.03753,136.4056v-32.65933h8.2028v32.65933z"/><path d="M216.2365,104.02488c0,-6.23619 4.25415,-11.29163 9.50191,-11.29163c5.24777,0 9.50191,5.05543 9.50191,11.29163c0,0.72577 -0.16771,-0.09084 -0.16771,-0.09084l-18.86778,0.1381c0,0 0.03167,0.64924 0.03167,-0.04726z"/><path d="M216.20483,136.17069l18.86778,0.1381c0,0 0.16771,-0.81659 0.16771,-0.09084c0,6.23619 -4.25415,11.29163 -9.50191,11.29163c-5.24777,0 -9.50191,-5.05543 -9.50191,-11.29163c0,-0.69651 -0.03167,-0.04726 -0.03167,-0.04726z" data-paper-data="{&quot;index&quot;:null}"/></g><g><path d="M161.41507,147.34267v-43.5964h8.2028v43.5964z"/><path d="M172.35216,147.34267v-43.5964h8.2028v43.5964z"/><path d="M161.55111,104.02488c0,-6.23619 4.25415,-11.29163 9.50191,-11.29163c5.24777,0 9.50191,5.05543 9.50191,11.29163c0,0.72577 -0.16771,-0.09084 -0.16771,-0.09084l-18.86778,0.1381c0,0 0.03167,0.64924 0.03167,-0.04726z"/><path d="M165.51648,136.43816v-10.93708h8.2028v10.93708z"/></g><g><path d="M128.60385,147.34267v-43.5964h8.2028v43.5964z"/><path d="M139.54091,147.34267v-43.5964h8.2028v43.5964z"/><path d="M150.478,147.34267v-43.5964h8.2028v43.5964z"/><path d="M143.1866,104.02488c0,-6.23619 3.4685,-11.29163 7.74709,-11.29163c4.27861,0 7.74708,5.05543 7.74708,11.29163c0,0.72577 -0.13674,-0.09084 -0.13674,-0.09084l-15.38325,0.1381c0,0 0.02581,0.64924 0.02581,-0.04726z"/><path d="M128.60385,104.02488c0,-6.23619 3.4685,-11.29163 7.74709,-11.29163c4.27861,0 7.74708,5.05543 7.74708,11.29163c0,0.72577 -0.13674,-0.09084 -0.13674,-0.09084l-15.38325,0.1381c0,0 0.02581,0.64924 0.02581,-0.04726z"/></g><g><g><path d="M248.96863,147.34267v-54.53348h8.2028v54.53348z"/><path d="M260.0766,114.53145v-10.78518h8.2028v10.78518z"/><path d="M249.10469,104.02488c0,-6.23619 4.25415,-11.29163 9.50191,-11.29163c5.24775,0 9.50191,5.05543 9.50191,11.29163c0,0.72577 -0.16771,-0.09084 -0.16771,-0.09084l-18.86778,0.1381c0,0 0.03167,0.64924 0.03167,-0.04726z"/><path d="M258.73389,147.34267v-10.76285h1.36714v-15.64672h5.33184c0,0 0.81576,0.28395 1.57762,1.59046c0.66737,1.14446 1.29335,3.23263 1.29335,4.47485c0,2.27512 0,6.97856 0,11.29035c0,4.05929 0.06824,9.05392 -3.99103,9.05392c-1.70428,0 -5.57891,0 -5.57891,0z"/><path d="M258.38409,114.37372l9.5567,-0.03676c0,0 0.16771,-0.81659 0.16771,-0.09084c0,6.23619 -4.25415,11.29163 -9.50191,11.29163c-0.28985,0 -0.12376,-0.04561 -0.12376,-0.04561z" data-paper-data="{&quot;index&quot;:null}"/></g><g><path d="M270.78583,147.34267v-54.53348h8.2028v54.53348z"/><path d="M281.8938,114.53145v-10.78518h8.2028v10.78518z"/><path d="M270.92188,104.02488c0,-6.23619 4.25415,-11.29163 9.50191,-11.29163c5.24775,0 9.50191,5.05543 9.50191,11.29163c0,0.72577 -0.16771,-0.09084 -0.16771,-0.09084l-18.86778,0.1381c0,0 0.03167,0.64924 0.03167,-0.04726z"/><path d="M281.91821,147.34267v-26.40957h5.33183c0,0 0.81576,0.28395 1.57762,1.59046c0.66737,1.14446 1.29337,3.23263 1.29337,4.47485c0,4.79006 0,20.34428 0,20.34428z"/><path d="M280.20129,114.37372l9.5567,-0.03676c0,0 0.16771,-0.81659 0.16771,-0.09084c0,6.23619 -4.25415,11.29163 -9.50191,11.29163c-0.28985,0 -0.12378,-0.04561 -0.12378,-0.04561z" data-paper-data="{&quot;index&quot;:null}"/></g><path d="M336.45578,147.62866v-11.27886h8.2028v11.27886z"/><g><g><path d="M314.69687,117.26572v-13.51944h8.2028v13.51944z"/><path d="M314.67017,104.02488c0,-6.23619 4.25415,-11.29163 9.50191,-11.29163c5.24775,0 9.50191,5.05543 9.50191,11.29163c0,0.72577 -0.16771,-0.09084 -0.16771,-0.09084l-18.86778,0.1381c0,0 0.03167,0.64924 0.03167,-0.04726z"/><path d="M325.63395,114.53145v-10.78518h8.2028v10.78518z"/></g><g><path d="M333.77839,123.0055v13.51944h-8.2028v-13.51944z"/><path d="M333.8051,136.24638c0,6.23619 -4.25415,11.29163 -9.50191,11.29163c-5.24775,0 -9.50191,-5.05543 -9.50191,-11.29163c0,-0.72577 0.16771,0.09084 0.16771,0.09084l18.86778,-0.1381c0,0 -0.03167,-0.64924 -0.03167,0.04726z"/><path d="M322.84132,125.73977v10.78518h-8.2028v-10.78518z"/></g><path d="M325.5204,126.09629c0,0 -0.21104,-1.9967 -2.01672,-2.79073c-1.73961,-0.76498 -3.96996,-0.80805 -6.46754,-2.64078c-1.96754,-1.44377 -2.30091,-3.5308 -2.30091,-3.5308l8.2028,-4.70902c0,0 -0.11915,2.38494 1.01654,2.99396c2.34833,1.25931 5.37555,3.33225 6.87394,4.1558c3.23625,1.77873 2.7428,5.15443 2.7428,5.15443z"/></g><g><path d="M292.65998,136.4056v-32.65933h8.2028v32.65933z"/><path d="M303.59706,136.4056v-32.65933h8.2028v32.65933z"/><path d="M292.79601,104.02488c0,-6.23619 4.25415,-11.29163 9.50191,-11.29163c5.24775,0 9.50191,5.05543 9.50191,11.29163c0,0.72577 -0.16771,-0.09084 -0.16771,-0.09084l-18.86778,0.1381c0,0 0.03167,0.64924 0.03167,-0.04726z"/><path d="M292.76436,136.17069l18.86778,0.1381c0,0 0.16771,-0.81659 0.16771,-0.09084c0,6.23619 -4.25415,11.29163 -9.50191,11.29163c-5.24775,0 -9.50191,-5.05543 -9.50191,-11.29163c0,-0.69651 -0.03167,-0.04726 -0.03167,-0.04726z" data-paper-data="{&quot;index&quot;:null}"/></g></g></g><g fill="#000000" stroke="none" stroke-width="0"><path d="M138.63079,84.03083c-10.62341,0.54463 -10.65233,-11.40427 -10.65233,-11.40427l11.5468,-0.13082c0,0 -2.67763,-1.58207 -6.18013,-3.85472c-4.69653,-3.04738 -7.4331,-8.93111 -3.97797,-14.38251c3.82218,-6.03054 12.40943,-5.06795 15.33485,-1.70972c3.31877,3.8098 2.87925,9.12488 2.87925,9.12488l-9.45178,-0.01276c0,0 7.72566,3.26723 9.45478,10.83492c1.20376,5.26847 -1.50231,11.15299 -8.95349,11.53499z"/><path d="M150.21216,75.24993v-24.60843h7.899v21.87415l3.63749,-0.04926l0.00821,-21.82489h7.899v24.60843c0,0 -0.76289,8.00583 -9.41804,8.2028c-9.06474,0.20629 -10.02566,-8.2028 -10.02566,-8.2028z"/><path d="M172.39014,83.45274v-32.81123c0,0 10.6597,-2.62707 16.19473,1.78366c2.07164,1.65082 2.90288,5.07127 2.94515,8.84961c0.03726,3.33229 -0.68045,6.29411 -2.06246,7.9525c-2.78433,3.34111 -7.33565,3.25014 -7.33565,3.25014l-0.0245,-10.92408l-1.81827,0.02527v21.87415z"/><path d="M204.28993,70.69281v-7.89899h7.899v7.89899z"/><path d="M194.56809,74.6423c0,-3.24387 0,-10.16724 0,-15.79799c0,-4.7386 2.55279,-8.50661 7.2914,-8.50661c3.47245,0 11.84849,0 11.84849,0v10.93708l-10.91232,-0.00763l-0.02475,10.94471h10.93708v10.63327c0,0 -8.37605,0 -11.84849,0c-2.72401,0 -7.2914,-2.24869 -7.2914,-8.2028z"/><path d="M216.48971,83.12994v-32.81123c0,0 8.75215,0 12.30421,0c4.64075,0 7.17746,3.90384 7.17746,8.54459c0,7.1196 -2.39249,9.22816 -2.39249,9.22816c0,0 1.71177,1.82452 1.9758,5.19302c0.13131,1.67532 0.41669,9.84545 0.41669,9.84545h-7.86102c0,0 -1.5421,-7.07336 -1.91986,-11.08812c-0.31966,-3.3973 -0.20171,-11.45887 -0.20171,-11.45887l-1.29626,-0.01073l-0.34179,22.55772z"/></g><g fill="#fcbcb0" stroke="none" stroke-width="0"><path d="M137.26366,77.87872c-10.62341,0.54463 -10.65233,-11.40427 -10.65233,-11.40427l10.52146,-0.13082c0,0 -1.65227,-1.58207 -5.15478,-3.85472c-4.69653,-3.04738 -7.4331,-8.93111 -3.97797,-14.38251c3.82218,-6.03054 12.40943,-5.06795 15.33485,-1.70972c3.31877,3.8098 2.87925,8.09953 2.87925,8.09953l-9.45178,-0.01276c0,0 2.35322,2.33286 4.75285,4.77685c1.94826,1.9843 3.92712,3.69238 4.70193,7.08343c1.20376,5.26847 -1.50231,11.15299 -8.95349,11.53499z" data-paper-data="{&quot;index&quot;:null}"/><path d="M148.84502,69.09783v-24.60843h7.899v21.87415l3.63749,-0.04926l0.00821,-21.82489h7.899v24.60843c0,0 -0.76289,8.00583 -9.41804,8.2028c-9.06474,0.20629 -10.02566,-8.2028 -10.02566,-8.2028z"/><path d="M171.02299,77.30062v-32.81123c0,0 3.18299,-0.11457 6.91305,-0.0948c3.26356,0.01729 6.94595,0.01719 9.28168,1.87847c2.07164,1.65082 2.90288,5.07127 2.94515,8.84961c0.03726,3.33229 -0.68045,6.29411 -2.06246,7.9525c-2.78433,3.34111 -7.33565,3.25014 -7.33565,3.25014l-0.0245,-10.92408l-1.81827,0.02527v21.87415z"/><path d="M202.9228,64.5407v-7.89899h7.899v7.89899z"/><path d="M193.20095,68.49021c0,-3.24387 0,-10.16724 0,-15.79799c0,-4.7386 2.55279,-8.50661 7.2914,-8.50661c3.47245,0 11.84849,0 11.84849,0v10.93708l-10.91232,-0.00763l-0.02475,10.94471h10.93708v10.63327c0,0 -8.37605,0 -11.84849,0c-2.72401,0 -7.2914,-2.24869 -7.2914,-8.2028z"/><path d="M215.59346,76.97783v-32.81123c0,0 8.75215,0 12.30421,0c4.64075,0 7.17746,3.90384 7.17746,8.54459c0,7.1196 -2.39249,9.22816 -2.39249,9.22816c0,0 1.71177,1.82452 1.9758,5.19302c0.13131,1.67532 0.41669,9.84545 0.41669,9.84545h-7.86102c0,0 -0.14625,-5.47606 -0.49366,-7.48252c-0.27592,-1.59366 -1.42623,-3.6056 -1.42623,-3.6056l-0.20171,-11.45887l-1.29626,-0.01073l-0.34179,22.55772z"/></g><g fill="#fcbcb0" stroke="#fcbcb0"><path d="M203.79625,141.87414v-54.53348h8.2028v54.53348z" stroke-width="0.5"/><g stroke-width="0.5"><path d="M181.37524,141.87414v-54.53348h8.2028v54.53348z"/><path d="M193.22536,109.41608v-11.4915h7.8122v11.4915z"/><path d="M182.05813,98.55634c0,-6.23619 4.25415,-11.29163 9.50191,-11.29163c5.24777,0 9.50191,5.05543 9.50191,11.29163c0,0.72577 -0.16771,-0.09084 -0.16771,-0.09084l-18.86778,0.1381c0,0 0.03167,0.64924 0.03167,-0.04726z"/><path d="M193.05446,141.87414v-26.40957h5.33183c0,0 0.81576,0.28395 1.57762,1.59046c0.66737,1.14446 1.29335,3.23263 1.29335,4.47485c0,4.79006 0,20.34428 0,20.34428z"/><path d="M191.33754,108.90519l9.5567,-0.03676c0,0 0.16771,-0.81659 0.16771,-0.09084c0,6.23619 -4.25415,11.29163 -9.50191,11.29163c-0.28985,0 -0.12376,-0.04561 -0.12376,-0.04561z" data-paper-data="{&quot;index&quot;:null}"/></g><g><path d="M214.87458,130.93707v-32.65933h8.2028v32.65933z" stroke-width="0.5"/><path d="M225.81166,130.93707v-32.65933h8.2028v32.65933z" stroke-width="0"/><path d="M214.86936,98.73291c0,-6.23619 4.25415,-11.29163 9.50191,-11.29163c5.24777,0 9.50191,5.05543 9.50191,11.29163c0,0.72577 -0.16771,-0.09084 -0.16771,-0.09084l-18.86778,0.1381c0,0 0.03167,0.64924 0.03167,-0.04726z" stroke-width="0.5"/><path d="M214.80808,130.18946l18.86778,0.1381c0,0 0.16771,-0.81659 0.16771,-0.09084c0,6.23619 -4.25415,11.29163 -9.50191,11.29163c-5.24777,0 -9.50191,-5.05543 -9.50191,-11.29163c0,-0.69651 -0.03167,-0.04726 -0.03167,-0.04726z" data-paper-data="{&quot;index&quot;:null}" stroke-width="0.5"/></g><g stroke-width="0.5"><path d="M160.04794,141.87414v-43.5964h8.2028v43.5964z"/><path d="M170.98502,141.87414v-43.5964h8.2028v43.5964z"/><path d="M160.18398,98.55634c0,-6.23619 4.25415,-11.29163 9.50191,-11.29163c5.24777,0 9.50191,5.05543 9.50191,11.29163c0,0.72577 -0.16771,-0.09084 -0.16771,-0.09084l-18.86778,0.1381c0,0 0.03167,0.64924 0.03167,-0.04726z"/><path d="M164.14935,130.96961v-10.93708h8.2028v10.93708z"/></g><g stroke-width="0.5"><path d="M127.2367,141.87414v-43.5964h8.2028v43.5964z"/><path d="M138.17379,141.87414v-43.5964h8.2028v43.5964z"/><path d="M149.11085,141.87414v-43.5964h8.2028v43.5964z"/><path d="M141.81947,98.55634c0,-6.23619 3.4685,-11.29163 7.74709,-11.29163c4.27861,0 7.74708,5.05543 7.74708,11.29163c0,0.72577 -0.13674,-0.09084 -0.13674,-0.09084l-15.38325,0.1381c0,0 0.02581,0.64924 0.02581,-0.04726z"/><path d="M127.2367,98.55634c0,-6.23619 3.4685,-11.29163 7.74709,-11.29163c4.27861,0 7.74708,5.05543 7.74708,11.29163c0,0.72577 -0.13674,-0.09084 -0.13674,-0.09084l-15.38325,0.1381c0,0 0.02581,0.64924 0.02581,-0.04726z"/></g><g><g stroke-width="0.5"><path d="M247.2109,141.87414v-54.19169h8.2028v54.19169z"/><path d="M258.53857,109.06292v-10.78518h8.2028v10.78518z"/><path d="M247.73756,98.89812c0,-6.23619 4.25415,-11.29163 9.50191,-11.29163c5.24775,0 9.50191,5.05543 9.50191,11.29163c0,0.72577 -0.16771,-0.09084 -0.16771,-0.09084l-18.86778,0.1381c0,0 0.03167,0.64924 0.03167,-0.04726z"/><path d="M257.36676,141.87414v-10.76285h1.36714v-15.64672h5.33184c0,0 0.81576,0.28395 1.57762,1.59046c0.66737,1.14446 1.29335,3.23263 1.29335,4.47485c0,2.27512 0,6.97856 0,11.29035c0,4.05929 0.06824,9.05392 -3.99103,9.05392c-1.70428,0 -5.57891,0 -5.57891,0z"/><path d="M257.01697,108.90519l9.5567,-0.03676c0,0 0.16771,-0.81659 0.16771,-0.09084c0,6.23619 -4.25415,11.29163 -9.50191,11.29163c-0.28985,0 -0.12376,-0.04561 -0.12376,-0.04561z" data-paper-data="{&quot;index&quot;:null}"/></g><g stroke-width="0.5"><path d="M269.22339,141.87414v-54.19169h8.2028v54.19169z"/><path d="M280.35576,109.06292v-10.78518h8.2028v10.78518z"/><path d="M269.55474,98.89812c0,-6.23619 4.25415,-11.29163 9.50191,-11.29163c5.24775,0 9.50191,5.05543 9.50191,11.29163c0,0.72577 -0.16771,-0.09084 -0.16771,-0.09084l-18.86778,0.1381c0,0 0.03167,0.64924 0.03167,-0.04726z"/><path d="M280.55107,141.87414v-26.40957h5.33183c0,0 0.81576,0.28395 1.57762,1.59046c0.66737,1.14446 1.29337,3.23263 1.29337,4.47485c0,4.79006 0,20.34428 0,20.34428z"/><path d="M278.83415,108.90519l9.5567,-0.03676c0,0 0.16771,-0.81659 0.16771,-0.09084c0,6.23619 -4.25415,11.29163 -9.50191,11.29163c-0.28985,0 -0.12378,-0.04561 -0.12378,-0.04561z" data-paper-data="{&quot;index&quot;:null}"/></g><path d="M335.08864,142.16011v-11.27886h8.2028v11.27886z" stroke-width="0.5"/><g><g><path d="M313.50063,111.79718c0,0 -0.17089,-1.37007 -0.17089,-2.49845c0,-2.3699 0,-11.021 0,-11.021h8.2028v13.51944z" stroke-width="0.5"/><path d="M313.30304,98.55634c0,-6.23619 4.25415,-11.29163 9.50191,-11.29163c5.24775,0 9.50191,5.05543 9.50191,11.29163c0,0.72577 -0.16771,-0.09084 -0.16771,-0.09084l-18.86778,0.1381c0,0 0.03167,0.64924 0.03167,-0.04726z" stroke-width="0.5"/><path d="M324.46212,109.06292v-10.78518h8.2028v10.78518z" stroke-width="0"/></g><g><path d="M332.41126,117.53697c0,0 0.34179,3.18148 0.34179,5.09132c0,2.45723 0,8.42813 0,8.42813h-8.88638v-13.51944z" stroke-width="0"/><path d="M332.43796,130.77784c0,6.23619 -4.25415,11.29163 -9.50191,11.29163c-5.24775,0 -9.50191,-5.05543 -9.50191,-11.29163c0,-0.72577 0.16771,0.09084 0.16771,0.09084l18.86778,-0.1381c0,0 -0.03167,-0.64924 -0.03167,0.04726z" stroke-width="0.5"/><path d="M321.27887,120.27124v10.78518h-8.2028v-10.78518z" stroke-width="0"/></g><path d="M324.15327,120.62775c0,0 -0.21104,-1.9967 -2.01672,-2.79073c-1.73961,-0.76498 -3.96996,-0.80805 -6.46754,-2.64078c-1.96754,-1.44377 -2.13001,-3.5308 -2.13001,-3.5308l7.86102,-4.70902c0,0 0.05175,2.38494 1.18743,2.99396c2.34833,1.25931 5.37555,3.33225 6.87394,4.1558c3.23625,1.77873 2.7428,5.15443 2.7428,5.15443z" stroke-width="0.5"/></g><g stroke-width="0.5"><path d="M291.29285,130.93707v-32.65933h8.2028v32.65933z"/><path d="M302.22993,130.93707v-32.65933h8.2028v32.65933z"/><path d="M291.42889,98.55634c0,-6.23619 4.25415,-11.29163 9.50191,-11.29163c5.24775,0 9.50191,5.05543 9.50191,11.29163c0,0.72577 -0.16771,-0.09084 -0.16771,-0.09084l-18.86778,0.1381c0,0 0.03167,0.64924 0.03167,-0.04726z"/><path d="M291.39722,130.70214l18.86778,0.1381c0,0 0.16771,-0.81659 0.16771,-0.09084c0,6.23619 -4.25415,11.29163 -9.50191,11.29163c-5.24775,0 -9.50191,-5.05543 -9.50191,-11.29163c0,-0.69651 -0.03167,-0.04726 -0.03167,-0.04726z" data-paper-data="{&quot;index&quot;:null}"/></g></g></g></g><g stroke="none" stroke-width="0"><g><path d="M125.74484,43.79771v-3.28112h3.28112v3.28112z" fill="#000000"/><path d="M124.10429,42.15714v-3.28112h3.28112v3.28112z" fill="#fcbcb0"/></g><g><path d="M125.74484,150.8899v-3.28112h3.28112v3.28112z" fill="#000000"/><path d="M124.1043,149.24935v-3.28112h3.28112v3.28112z" fill="#fcbcb0"/></g></g><g stroke="none" stroke-width="0"><g><path d="M353.14489,43.79771v-3.28112h3.28112v3.28112z" fill="#000000"/><path d="M351.50434,42.15714v-3.28112h3.28112v3.28112z" fill="#fcbcb0"/></g><g><path d="M353.14489,150.88991v-3.28112h3.28112v3.28112z" fill="#000000"/><path d="M351.50434,149.24936v-3.28112h3.28112v3.28112z" fill="#fcbcb0"/></g></g></g></g></svg>