<svg version="1.1" xmlns="http://www.w3.org/2000/svg" xmlns:xlink="http://www.w3.org/1999/xlink" width="85.49398" height="85.49398" viewBox="0,0,85.49398,85.49398"><defs><linearGradient x1="-3285.69704" y1="-2895.28054" x2="-3285.69704" y2="4105.40968" gradientUnits="userSpaceOnUse" id="color-1"><stop offset="0" stop-color="#ffffff"/><stop offset="1" stop-color="#ffffff" stop-opacity="0"/></linearGradient></defs><g transform="translate(-197.25302,-137.25304)"><g data-paper-data="{&quot;isPaintingLayer&quot;:true}" fill-rule="nonzero" stroke-linecap="butt" stroke-linejoin="miter" stroke-miterlimit="10" stroke-dasharray="" stroke-dashoffset="0" style="mix-blend-mode: normal"><path d="M197.25302,222.74702v-85.49398h85.49398v85.49398z" fill="none" stroke="none" stroke-width="0"/><path d="M208.63952,205.58015c0.00324,-13.1024 0,-44.63208 0,-51.75c0,-3.5626 2.97813,-5.21784 6.54073,-5.21784c12.68063,0 43.89984,0 51,0c2.96729,0 5.18024,2.50056 5.18024,5.46784c0,6.43742 0,39.20833 0,51.75c0,2.95974 -2.72049,5.55758 -5.68024,5.55758c-6.61442,0 -39.17756,0 -52,0c-3.13138,0 -5.04177,-1.58613 -5.04073,-5.80758z" fill="url(#color-1)" stroke="#a97a4a" stroke-width="2"/><g stroke="none" stroke-width="0"><g><path d="M231.83689,180.1594h-13.02617v-14.34069h13.02617z" fill="#20ad00"/><g><path d="M231.02379,169.49371h-9.5124v-2.83922h9.5124z" fill="#a5e62a"/><path d="M231.03376,171.86682h-9.52237v-2.49277h9.52237z" fill="#45c613"/></g><path d="M232.80808,180.20092h-1.17528v-11.89291h1.17528z" fill="#000000"/><path d="M231.43768,166.64952h-12.56267v-0.99665h12.56267z" fill="#000000"/><path d="M231.90351,180.20225h-0.93063v-14.54982h0.93063z" fill="#000000"/><path d="M219.65588,180.24952h-0.93063v-14.56366h0.93063z" fill="#000000"/><path d="M220.77507,180.03902h-1.09682v-13.4194h1.09682z" fill="#a5e62a"/></g><g data-paper-data="{&quot;index&quot;:null}"><path d="M231.61056,193.9472h-12.42213v-13.91787h12.42213z" fill="#20ad00"/><path d="M230.96955,193.30062h-9.5124v-2.83922h9.5124z" fill="#a5e62a"/><path d="M230.96955,189.43928h-10.50951v-2.56003h10.50951z" fill="#a5e62a"/><path d="M230.96955,186.25108h-9.5124v-1.11676h9.5124z" fill="#a5e62a"/><path d="M231.9035,194.34758h-0.93063v-14.38504h0.93063z" fill="#000000"/><path d="M231.43768,194.34713h-12.56267v-0.99665h12.56267z" fill="#000000"/><path d="M219.65588,194.34758h-0.93063v-14.39872h0.93063z" fill="#000000"/><path d="M220.77507,193.38038h-1.09682v-13.4194h1.09682z" fill="#a5e62a"/><path d="M232.80809,191.85234h-1.17528v-11.89291h1.17528z" fill="#000000"/></g><g><g><g><path d="M247.10885,180.0782h-14.39885v-11.39388h14.39885z" data-paper-data="{&quot;index&quot;:null}" fill="#20ad00"/><path d="M247.14112,169.34867h-14.47047v-0.99665h14.47047z" data-paper-data="{&quot;index&quot;:null}" fill="#000000"/></g><path d="M247.18207,172.0761h-14.50443v-2.83922h14.50443z" fill="#a5e62a"/><path d="M247.16545,174.44921h-14.44349v-2.49276h14.44349z" fill="#45c613"/></g><g><path d="M247.04941,191.79807h-14.39885v-11.82798h14.39885z" fill="#20ad00"/><path d="M247.02352,191.77518h-14.42026v-0.99665h14.42026z" fill="#000000"/><g fill="#a5e62a"><path d="M247.05497,190.79846h-14.43182v-2.83922h14.43182z"/><path d="M247.05497,186.93713h-14.43182v-2.56003h14.43182z"/><path d="M247.05497,183.74891h-14.43182v-1.11676h14.43182z"/></g></g></g><g><g><g><path d="M261.20154,180.0782h-14.39885v-11.39388h14.39885z" data-paper-data="{&quot;index&quot;:null}" fill="#20ad00"/><path d="M261.23381,169.34867h-14.47047v-0.99665h14.47047z" data-paper-data="{&quot;index&quot;:null}" fill="#000000"/></g><path d="M261.27475,172.0761h-14.50443v-2.83922h14.50443z" fill="#a5e62a"/><path d="M261.25813,174.44921h-14.44349v-2.49276h14.44349z" fill="#45c613"/></g><g><path d="M261.1421,191.79807h-14.39885v-11.82798h14.39885z" fill="#20ad00"/><path d="M261.1162,191.77518h-14.42026v-0.99665h14.42026z" fill="#000000"/><g fill="#a5e62a"><path d="M261.14765,190.79846h-14.43182v-2.83922h14.43182z"/><path d="M261.14765,186.93713h-14.43182v-2.56003h14.43182z"/><path d="M261.14765,183.74891h-14.43182v-1.11676h14.43182z"/></g></g></g></g></g></g></svg>