<svg version="1.1" xmlns="http://www.w3.org/2000/svg" xmlns:xlink="http://www.w3.org/1999/xlink" width="85.49398" height="85.49398" viewBox="0,0,85.49398,85.49398"><defs><linearGradient x1="-3285.69704" y1="-2895.28053" x2="-3285.69704" y2="4105.40968" gradientUnits="userSpaceOnUse" id="color-1"><stop offset="0" stop-color="#ffffff"/><stop offset="1" stop-color="#ffffff" stop-opacity="0"/></linearGradient></defs><g transform="translate(-197.25302,-137.25303)"><g data-paper-data="{&quot;isPaintingLayer&quot;:true}" fill-rule="nonzero" stroke-linecap="butt" stroke-linejoin="miter" stroke-miterlimit="10" stroke-dasharray="" stroke-dashoffset="0" style="mix-blend-mode: normal"><path d="M208.63952,205.58015c0.00324,-13.1024 0,-44.63208 0,-51.75c0,-3.5626 2.97813,-5.21784 6.54073,-5.21784c12.68063,0 43.89984,0 51,0c2.96729,0 5.18024,2.50056 5.18024,5.46784c0,6.43742 0,39.20833 0,51.75c0,2.95974 -2.72049,5.55758 -5.68024,5.55758c-6.61442,0 -39.17756,0 -52,0c-3.13138,0 -5.04177,-1.58613 -5.04073,-5.80758z" fill="url(#color-1)" stroke="#a97a4a" stroke-width="2"/><path d="M197.25302,222.74701v-85.49398h85.49398v85.49398z" fill="none" stroke="none" stroke-width="0"/><path d="M207.25301,212.74701v-65.49398h65.49398v65.49398z" fill="none" stroke="none" stroke-width="0"/><g stroke="none"><g data-paper-data="{&quot;index&quot;:null}"><path d="M227.62334,187.53672c-2.71204,-0.03858 -4.13263,-1.24797 -4.13263,-1.24797c0,0 -1.4825,1.20581 -3.87806,1.2768c-2.62911,0.07791 -4.02578,-2.04335 -4.02578,-2.04335c0,0 -0.13113,-6.12477 -0.18461,-8.62298c-0.05847,-2.7309 1.38806,-5.0937 4.11958,-5.0937c3.01796,0 12.27411,0 12.27411,0v14.30401c0,0 -2.46128,1.45153 -4.17259,1.42719z" fill="#ffffff" stroke-width="0"/><g fill="none" stroke-width="1" font-family="sans-serif" font-weight="normal" font-size="12" text-anchor="start"/></g><path d="M215.93369,176.18644l-0.62405,-0.01464c0,0 0.48922,-4.4326 4.30472,-4.4326c2.95834,0 12.23277,0 12.23277,0v0.59738c0,0 -8.78599,0.0546 -11.78951,0c-4.03834,-0.07342 -4.12393,3.84986 -4.12393,3.84986z" data-paper-data="{&quot;index&quot;:null}" fill="#a5a5a5" stroke-width="0"/><g data-paper-data="{&quot;index&quot;:null}" fill="#a5a5a5" stroke-width="0"><path d="M223.50537,185.86031c0,0 0.99652,1.62214 4.04464,1.5532c2.83046,-0.06401 4.23468,-1.5532 4.23468,-1.5532v0.71686c0,0 -1.31712,1.43373 -4.10593,1.43373c-3.21796,0 -4.17338,-1.43373 -4.17338,-1.43373z"/><path d="M223.53328,186.57717c0,0 -1.22979,1.43372 -4.35169,1.43372c-1.19251,0 -3.21663,-1.12191 -3.53241,-2.0676c-0.77479,-2.32035 -0.30066,-9.92086 -0.30066,-9.92086l0.58684,0.01579c0,0 -0.34682,8.39676 0.23592,9.68031c0.37071,0.81654 2.24439,1.67421 3.13522,1.69497c2.95713,0.06893 4.22678,-1.5532 4.22678,-1.5532z" data-paper-data="{&quot;index&quot;:null}"/></g><g><path d="M231.75033,188.2608v-2.60352h16.60369v2.60352z" fill="#7b7b7b" stroke-width="0"/><g data-paper-data="{&quot;index&quot;:null}"><path d="M244.07527,187.53672c-2.71204,-0.03858 -4.13263,-1.24797 -4.13263,-1.24797c0,0 -1.4825,1.20581 -3.87806,1.2768c-2.62911,0.07791 -4.31946,-1.45601 -4.31946,-1.45601v-14.30401h16.60369v14.30401c0,0 -2.56223,1.45153 -4.27354,1.42719z" fill="#ffffff" stroke-width="0"/><g fill="none" stroke-width="1" font-family="sans-serif" font-weight="normal" font-size="12" text-anchor="start"/></g><path d="M231.76157,172.33659v-0.59738h16.63844v0.59738z" data-paper-data="{&quot;index&quot;:null}" fill="#a5a5a5" stroke-width="0"/><g data-paper-data="{&quot;index&quot;:null}" fill="#a5a5a5" stroke-width="0"><path d="M239.9573,185.86031c0,0 0.99652,1.62214 4.04464,1.5532c2.83046,-0.06401 4.33563,-1.5532 4.33563,-1.5532v0.71686c0,0 -1.41807,1.43373 -4.20688,1.43373c-3.21796,0 -4.17338,-1.43373 -4.17338,-1.43373z"/><path d="M239.98521,186.57717c0,0 -1.22979,1.43372 -4.35169,1.43372c-2.70557,0 -3.9344,-1.43372 -3.9344,-1.43372v-0.71686c0,0 1.31334,1.48919 4.0593,1.5532c2.95713,0.06893 4.22678,-1.5532 4.22678,-1.5532z" data-paper-data="{&quot;index&quot;:null}"/></g><g><g data-paper-data="{&quot;index&quot;:null}"><path d="M252.37666,187.53672c-1.71131,0.02434 -4.12211,-1.42719 -4.12211,-1.42719v-14.30401c0,0 9.20568,0 12.22363,0c2.73152,0 4.17805,2.3628 4.11958,5.0937c-0.05349,2.49821 -0.18461,8.62298 -0.18461,8.62298c0,0 -1.39667,2.12126 -4.02578,2.04335c-2.39556,-0.07099 -3.87806,-1.2768 -3.87806,-1.2768c0,0 -1.42059,1.20939 -4.13263,1.24797z" fill="#ffffff" stroke-width="0"/><g fill="none" stroke-width="1" font-family="sans-serif" font-weight="normal" font-size="12" text-anchor="start"/></g><path d="M264.06631,176.18644c0,0 -0.08559,-3.92327 -4.12393,-3.84986c-3.00352,0.0546 -11.73904,0 -11.73904,0v-0.59738c0,0 9.22396,0 12.1823,0c3.8155,0 4.30472,4.4326 4.30472,4.4326l-0.62405,0.01464z" data-paper-data="{&quot;index&quot;:null}" fill="#a5a5a5" stroke-width="0"/><g data-paper-data="{&quot;index&quot;:null}" fill="#a5a5a5" stroke-width="0"><path d="M256.49463,186.57717c0,0 -0.95542,1.43373 -4.17338,1.43373c-2.78881,0 -4.05546,-1.43373 -4.05546,-1.43373v-0.71686c0,0 1.35375,1.48919 4.1842,1.5532c3.04812,0.06893 4.04464,-1.5532 4.04464,-1.5532z"/><path d="M256.46672,185.86031c0,0 1.26966,1.62213 4.22678,1.5532c0.89083,-0.02076 2.7645,-0.87843 3.13522,-1.69497c0.58274,-1.28355 0.23592,-9.68031 0.23592,-9.68031l0.58684,-0.01579c0,0 0.47413,7.60051 -0.30066,9.92086c-0.31578,0.94569 -2.3399,2.0676 -3.53241,2.0676c-3.12189,0 -4.35169,-1.43372 -4.35169,-1.43372z" data-paper-data="{&quot;index&quot;:null}"/></g></g></g></g></g></g></svg>