<svg version="1.1" xmlns="http://www.w3.org/2000/svg" xmlns:xlink="http://www.w3.org/1999/xlink" width="162" height="74" viewBox="0,0,162,74"><g transform="translate(-201.5,-142)"><g data-paper-data="{&quot;isPaintingLayer&quot;:true}" fill-rule="nonzero" stroke-width="0" stroke-linecap="butt" stroke-linejoin="miter" stroke-miterlimit="10" stroke-dasharray="" stroke-dashoffset="0" style="mix-blend-mode: normal"><g data-paper-data="{&quot;index&quot;:null}"><path d="M330.90605,187.4243c-3.05391,3.14181 -8.07654,3.21307 -11.21835,0.15916c-3.14181,-3.05391 -3.48158,-7.90653 -0.02655,-10.60099c5.0471,-3.93609 7.11677,0.51656 10.16382,-0.31501c3.19973,-0.87323 2.20348,-3.69344 2.77878,-3.93312c0.5753,-0.23968 3.13946,4.18113 2.40217,8.06434c-0.59565,3.13717 -2.73518,5.22166 -4.09986,6.62563z" fill="#f32f00" stroke="#000000"/><path d="M329.28192,173.31604l-1.22066,1.25579l-1.25579,-1.22066l1.22066,-1.25579z" fill="#f32f00" stroke="#000000"/><path d="M331.24201,171.80206l-0.97652,1.00463l-1.00463,-0.97652l0.97652,-1.00463z" fill="#f32f00" stroke="none"/><path d="M328.44377,185.33361c-1.6522,1.69976 -4.36949,1.73831 -6.06925,0.08611c-1.69976,-1.6522 -1.88357,-4.27751 -0.01436,-5.73524c1.44413,-1.12623 3.8936,0.03858 6.0168,0.30808c1.2551,0.15931 2.25151,-0.40861 3.25084,-0.82494c0,0 -0.47364,1.73556 -1.23128,3.27962c-0.66878,1.36296 -1.60659,2.53026 -1.95275,2.88639z" fill="#f29e4a" stroke="#000000"/><path d="M325.60356,183.85356c-0.63105,0.64922 -1.66891,0.66394 -2.31813,0.03289c-0.64922,-0.63105 -0.66394,-1.66891 -0.03289,-2.31813c0.63105,-0.64922 1.66891,-0.66394 2.31813,-0.03289c0.64922,0.63105 0.66394,1.66891 0.03289,2.31813z" fill="#ffffff" stroke="#000000"/><path d="M327.81483,183.7168c-0.34421,0.35412 -0.91032,0.36215 -1.26443,0.01794c-0.35412,-0.34421 -0.36215,-0.91032 -0.01794,-1.26443c0.34421,-0.35412 0.91032,-0.36215 1.26443,-0.01794c0.35412,0.34421 0.36215,0.91032 0.01794,1.26443z" fill="#ffffff" stroke="none"/></g><g data-paper-data="{&quot;index&quot;:null}"><path d="M312.85032,188.00495c-3.51908,2.61025 -8.48789,1.8735 -11.09814,-1.64558c-2.61025,-3.51908 -2.16584,-8.36323 1.67726,-10.4675c5.614,-3.07392 6.94128,1.65344 10.08236,1.3223c3.29847,-0.34772 2.76835,-3.29137 3.37468,-3.43549c0.60634,-0.14412 2.4268,4.63128 1.0751,8.34555c-1.09202,3.00069 -3.5387,4.71429 -5.11125,5.88072z" fill="#f32f00" stroke="#000000"/><path d="M313.51435,173.81904l-1.40659,1.04333l-1.04333,-1.40659l1.40659,-1.04333z" fill="#f32f00" stroke="#000000"/><path d="M315.69224,172.6397l-1.12527,0.83466l-0.83466,-1.12527l1.12527,-0.83466z" fill="#f32f00" stroke="none"/><path d="M310.75599,185.54576c-1.90386,1.41218 -4.59204,1.01359 -6.00422,-0.89028c-1.41218,-1.90386 -1.17174,-4.52459 0.90742,-5.66302c1.60634,-0.87954 3.8368,0.66374 5.88911,1.27091c1.21319,0.35892 2.28791,-0.0415 3.34116,-0.29185c0,0 -0.74637,1.6369 -1.74228,3.03914c-0.8791,1.23778 -1.9923,2.23922 -2.39119,2.53509z" fill="#f29e4a" stroke="#000000"/><path d="M308.19052,183.62855c-0.72718,0.53938 -1.75391,0.38714 -2.29329,-0.34004c-0.53938,-0.72718 -0.38714,-1.75391 0.34004,-2.29329c0.72718,-0.53938 1.75391,-0.38714 2.29329,0.34004c0.53938,0.72718 0.38714,1.75391 -0.34004,2.29329z" fill="#ffffff" stroke="#000000"/><path d="M310.39502,183.8489c-0.39664,0.2942 -0.95668,0.21116 -1.25089,-0.18548c-0.2942,-0.39664 -0.21116,-0.95668 0.18548,-1.25089c0.39664,-0.2942 0.95668,-0.21116 1.25089,0.18548c0.2942,0.39664 0.21116,0.95668 -0.18548,1.25089z" fill="#ffffff" stroke="none"/></g><g data-paper-data="{&quot;index&quot;:null}"><path d="M295.74221,187.94504c-3.49793,2.63853 -8.47251,1.94185 -11.11105,-1.55608c-2.63853,-3.49793 -2.23318,-8.34551 1.59284,-10.48068c5.58905,-3.11907 6.95438,1.59744 10.09269,1.241c3.29556,-0.3743 2.74173,-3.31357 3.34688,-3.46257c0.60515,-0.149 2.46405,4.61156 1.14233,8.33662c-1.0678,3.00939 -3.50059,4.74266 -5.06369,5.92173z" fill="#f32f00" stroke="#000000"/><path d="M296.29188,173.75424l-1.39813,1.05463l-1.05463,-1.39813l1.39813,-1.05463z" fill="#f32f00" stroke="#000000"/><path d="M298.46019,172.55739l-1.1185,0.8437l-0.8437,-1.1185l1.1185,-0.8437z" fill="#f32f00" stroke="none"/><path d="M293.62813,185.50281c-1.89242,1.42748 -4.58372,1.05056 -6.0112,-0.84185c-1.42748,-1.89242 -1.20817,-4.515 0.86174,-5.67015c1.5992,-0.89246 3.84203,0.63279 5.89916,1.2234c1.21605,0.34913 2.2875,-0.05994 3.33869,-0.31877c0,0 -0.73315,1.64286 -1.71773,3.05309c-0.86909,1.24482 -1.97419,2.2552 -2.37068,2.55428z" fill="#f29e4a" stroke="#000000"/><path d="M291.04728,183.60635c-0.72281,0.54522 -1.75074,0.40126 -2.29596,-0.32154c-0.54522,-0.72281 -0.40126,-1.75074 0.32154,-2.29596c0.72281,-0.54522 1.75074,-0.40126 2.29596,0.32154c0.54522,0.72281 0.40126,1.75074 -0.32154,2.29596z" fill="#ffffff" stroke="#000000"/><path d="M293.25349,183.80891c-0.39425,0.29739 -0.95495,0.21887 -1.25234,-0.17539c-0.29739,-0.39425 -0.21887,-0.95495 0.17539,-1.25234c0.39425,-0.29739 0.95495,-0.21887 1.25234,0.17539c0.29739,0.39425 0.21887,0.95495 -0.17539,1.25234z" fill="#ffffff" stroke="none"/></g><g data-paper-data="{&quot;index&quot;:null}"><path d="M277.71951,188.28389c-3.7763,2.22192 -8.63881,0.96186 -10.86074,-2.81444c-2.22192,-3.7763 -1.26577,-8.5459 2.779,-10.23029c5.9086,-2.46058 6.72653,2.38097 9.88501,2.38516c3.31674,0.0044 3.10211,-2.97888 3.72032,-3.05782c0.61821,-0.07894 1.92144,4.86273 0.18307,8.41252c-1.4044,2.8678 -4.01916,4.31199 -5.70666,5.30489z" fill="#f32f00" stroke="#000000"/><path d="M279.88574,174.24864l-1.5094,0.88811l-0.88811,-1.5094l1.5094,-0.88811z" fill="#f32f00" stroke="#000000"/><path d="M282.17653,173.30717l-1.20752,0.71049l-0.71049,-1.20752l1.20752,-0.71049z" fill="#f32f00" stroke="none"/><path d="M275.89809,185.61627c-2.04302,1.20209 -4.67369,0.52038 -5.87578,-1.52264c-1.20209,-2.04302 -0.6848,-4.62342 1.50347,-5.53469c1.69063,-0.70404 3.74466,1.0673 5.72092,1.88891c1.16824,0.48568 2.27939,0.20161 3.35326,0.06449c0,0 -0.91592,1.54841 -2.05506,2.83701c-1.00553,1.13746 -2.21876,2.01507 -2.6468,2.26692z" fill="#f29e4a" stroke="#000000"/><path d="M273.55063,183.43755c-0.78033,0.45913 -1.7851,0.19876 -2.24423,-0.58157c-0.45913,-0.78033 -0.19876,-1.7851 0.58157,-2.24423c0.78033,-0.45913 1.7851,-0.19876 2.24423,0.58157c0.45913,0.78033 0.19876,1.7851 -0.58157,2.24423z" fill="#ffffff" stroke="#000000"/><path d="M275.71929,183.89068c-0.42563,0.25043 -0.97369,0.10841 -1.22413,-0.31722c-0.25043,-0.42563 -0.10841,-0.97369 0.31722,-1.22413c0.42563,-0.25043 0.97369,-0.10841 1.22413,0.31722c0.25043,0.42563 0.10841,0.97369 -0.31722,1.22413z" fill="#ffffff" stroke="none"/></g><g data-paper-data="{&quot;index&quot;:null}"><path d="M260.66067,188.3311c-3.82445,2.13798 -8.65795,0.77082 -10.79593,-3.05363c-2.13798,-3.82445 -1.07672,-8.57177 3.00427,-10.16642c5.96151,-2.32948 6.6723,2.52895 9.82992,2.6029c3.31583,0.07766 3.16714,-2.90964 3.78695,-2.97491c0.6198,-0.06526 1.81357,4.90398 -0.00278,8.41451c-1.46739,2.83609 -4.11342,4.22217 -5.82243,5.17756z" fill="#f32f00" stroke="#000000"/><path d="M263.13636,174.34711l-1.52864,0.85456l-0.85456,-1.52864l1.52864,-0.85456z" fill="#f32f00" stroke="#000000"/><path d="M265.44737,173.45646l-1.22291,0.68364l-0.68364,-1.22291l1.22291,-0.68364z" fill="#f32f00" stroke="none"/><path d="M258.8986,185.6239c-2.06907,1.15667 -4.68405,0.41702 -5.84072,-1.65205c-1.15667,-2.06907 -0.58252,-4.63741 1.62534,-5.50013c1.70577,-0.66653 3.72017,1.14974 5.6778,2.0148c1.15723,0.51136 2.27438,0.25191 3.35101,0.13854c0,0 -0.9499,1.5278 -2.11722,2.79093c-1.03041,1.11498 -2.26272,1.96557 -2.69622,2.20791z" fill="#f29e4a" stroke="#000000"/><path d="M256.59984,183.39386c-0.79028,0.44179 -1.78905,0.15928 -2.23084,-0.63099c-0.44179,-0.79028 -0.15928,-1.78905 0.63099,-2.23084c0.79028,-0.44179 1.78905,-0.15928 2.23084,0.63099c0.44179,0.79028 0.15928,1.78905 -0.63099,2.23084z" fill="#ffffff" stroke="#000000"/><path d="M258.75796,183.89477c-0.43106,0.24097 -0.97585,0.08688 -1.21682,-0.34418c-0.24097,-0.43106 -0.08688,-0.97585 0.34418,-1.21682c0.43106,-0.24097 0.97585,-0.08688 1.21682,0.34418c0.24097,0.43106 0.08688,0.97585 -0.34418,1.21682z" fill="#ffffff" stroke="none"/></g><g data-paper-data="{&quot;index&quot;:null}"><path d="M243.32318,188.37474c-3.87094,2.05261 -8.67292,0.57857 -10.72553,-3.29236c-2.05261,-3.87094 -0.88631,-8.59355 3.22905,-10.09728c6.01171,-2.19666 6.61456,2.67634 9.76976,2.82031c3.3133,0.15119 3.23091,-2.83867 3.85201,-2.89017c0.6211,-0.0515 1.70434,4.943 -0.18943,8.41238c-1.52995,2.80284 -4.20607,4.12988 -5.93585,5.04713z" fill="#f32f00" stroke="#000000"/><path d="M246.10847,174.44911l-1.54722,0.82044l-0.82044,-1.54722l1.54722,-0.82044z" fill="#f32f00" stroke="#000000"/><path d="M248.43867,173.60995l-1.23778,0.65635l-0.65635,-1.23778l1.23778,-0.65635z" fill="#f32f00" stroke="none"/><path d="M241.62161,185.62911c-2.09422,1.11049 -4.69214,0.31302 -5.80263,-1.7812c-1.11049,-2.09422 -0.4795,-4.64919 1.74695,-5.46273c1.72014,-0.62853 3.69375,1.23198 5.63171,2.14025c1.1456,0.53691 2.26823,0.3023 3.34712,0.21284c0,0 -0.98356,1.50636 -2.17861,2.74328c-1.05489,1.09184 -2.30577,1.91489 -2.74454,2.14756z" fill="#f29e4a" stroke="#000000"/><path d="M239.37288,183.34864c-0.79988,0.42415 -1.79215,0.11956 -2.2163,-0.68032c-0.42415,-0.79988 -0.11956,-1.79215 0.68032,-2.2163c0.79988,-0.42415 1.79215,-0.11956 2.2163,0.68032c0.42415,0.79988 0.11956,1.79215 -0.68032,2.2163z" fill="#ffffff" stroke="#000000"/><path d="M241.51936,183.8973c-0.4363,0.23135 -0.97754,0.06521 -1.20889,-0.37109c-0.23135,-0.4363 -0.06521,-0.97754 0.37109,-1.20889c0.4363,-0.23135 0.97754,-0.06521 1.20889,0.37109c0.23135,0.4363 0.06521,0.97754 -0.37109,1.20889z" fill="#ffffff" stroke="none"/></g><path d="M201.5,216v-74h162v74z" fill="none" stroke="#a97a4a"/></g></g></svg>