<svg version="1.1" xmlns="http://www.w3.org/2000/svg" xmlns:xlink="http://www.w3.org/1999/xlink" width="85.49398" height="85.49398" viewBox="0,0,85.49398,85.49398"><defs><linearGradient x1="-3285.69704" y1="-2895.28055" x2="-3285.69704" y2="4105.40967" gradientUnits="userSpaceOnUse" id="color-1"><stop offset="0" stop-color="#ffffff"/><stop offset="1" stop-color="#ffffff" stop-opacity="0"/></linearGradient></defs><g transform="translate(-197.25302,-137.25301)"><g data-paper-data="{&quot;isPaintingLayer&quot;:true}" fill-rule="nonzero" stroke-linejoin="miter" stroke-miterlimit="10" stroke-dasharray="" stroke-dashoffset="0" style="mix-blend-mode: normal"><path d="M197.25302,222.74699v-85.49398h85.49398v85.49398z" fill="none" stroke="none" stroke-width="0" stroke-linecap="butt"/><path d="M208.63952,205.58013c0.00324,-13.1024 0,-44.63208 0,-51.75c0,-3.5626 2.97813,-5.21784 6.54073,-5.21784c12.68063,0 43.89984,0 51,0c2.96729,0 5.18024,2.50056 5.18024,5.46784c0,6.43742 0,39.20833 0,51.75c0,2.95974 -2.72049,5.55758 -5.68024,5.55758c-6.61442,0 -39.17756,0 -52,0c-3.13138,0 -5.04177,-1.58613 -5.04073,-5.80758z" fill="url(#color-1)" stroke="#a97a4a" stroke-width="2" stroke-linecap="butt"/><g><g data-paper-data="{&quot;index&quot;:null}" stroke="none" stroke-width="0" stroke-linecap="butt"><path d="M235.48357,194.33192c-0.74062,0.2189 -3.52557,-0.14716 -5.1454,-1.48488c-1.61983,-1.33771 -1.25407,-3.34307 -2.30604,-4.6688c-0.61427,-0.77412 -0.91901,-1.87588 -1.77137,-2.8043c-0.60737,-0.66155 -1.87727,-1.2351 -1.9924,-1.53936c-0.15092,-0.3989 1.44871,-1.11229 1.75995,-1.63437c0.62101,-1.04164 0.77824,-2.64728 0.82055,-4.14529c0.06398,-2.26557 2.59915,-2.95566 -0.00713,-4.09086c-0.73451,-0.31993 -1.35269,1.03488 -1.77846,1.85523c-0.57833,1.1143 -1.36655,0.74463 -1.82874,2.01178c-0.55781,1.52928 -0.75966,4.61059 -1.09971,4.6767c-0.38315,0.0745 -1.31505,-0.96156 -2.15127,-3.81378c-0.41573,-1.41799 -0.98119,-4.93461 -0.58311,-8.09188c0.39807,-3.15726 1.75131,-2.06524 2.7348,-4.29509c0.64862,-1.4706 1.28709,-4.87165 2.0179,-6.54192c1.09802,-2.50955 2.40445,-2.30326 4.26681,-2.30326c1.74383,0 4.1115,1.71734 5.42892,4.78923c1.41843,3.30746 1.92001,8.75879 0.51184,11.57182c-1.01491,2.02745 -2.21621,4.34196 -2.87225,5.96457c-0.49983,1.23627 -0.58948,2.0709 -0.58948,2.0709l5.03175,0.84055z" data-paper-data="{&quot;index&quot;:null}" fill="#dc570f"/><path d="M223.71415,171.3864c0,0.36326 -1.10165,0.1728 -1.51889,0.41831c-0.45345,0.2668 -0.24001,0.95422 -0.63478,0.95422c-0.75803,0 -0.5914,-0.6145 -0.5914,-1.37253c0,-0.75803 0.6145,-1.37254 1.37253,-1.37254c0.75802,0 1.37253,0.61451 1.37253,1.37254z" data-paper-data="{&quot;index&quot;:null}" fill="#148382"/><g data-paper-data="{&quot;index&quot;:null}"><path d="M230.38072,163.93551c0,4.43989 -1.88452,6.47051 -3.72545,6.47051c-1.84092,0 -2.94114,-2.03062 -2.94114,-6.47051c0,-4.43989 -0.09034,-7.79949 3.33329,-8.03912c3.00533,-0.21036 3.33329,3.59923 3.33329,8.03912z" fill="#ffffff"/><path d="M226.45998,164.32765c0,1.62435 -0.7439,2.68077 -1.50193,2.68077c-0.75803,0 -0.85178,-1.05642 -0.85178,-2.68077c0,-1.62434 0.09375,-2.68075 0.85178,-2.68075c0.75803,0 1.50193,1.0564 1.50193,2.68075z" fill="#148382"/></g></g><path d="M252.41871,199.44028c0.83015,-0.65605 1.60425,-1.97891 1.60425,-1.97891c0,0 1.64866,1.4128 2.49503,1.88254c1.56223,0.86703 3.22475,1.97821 2.9995,2.10099c-0.01861,0.50892 -2.76344,1.23628 -5.49453,1.23628c-2.7311,0 -5.49454,-0.96155 -5.49454,-0.96155c0,0 2.29461,-1.01831 3.89029,-2.27935z" data-paper-data="{&quot;index&quot;:null}" fill="#dc570f" stroke="none" stroke-width="0" stroke-linecap="butt"/><path d="M235.94601,197.1489c2.27771,1.80005 5.5531,3.25361 5.5531,3.25361c0,0 -3.9446,1.37253 -7.84304,1.37253c-3.89845,0 -8.70972,-0.14501 -8.73628,-0.87145c-0.32154,-0.17526 2.94483,-2.65461 5.17479,-3.89224c1.20813,-0.67052 3.56148,-2.68719 3.56148,-2.68719c0,0 1.10497,1.88828 2.28994,2.82475z" data-paper-data="{&quot;index&quot;:null}" fill="#dc570f" stroke="none" stroke-width="0" stroke-linecap="butt"/><path d="M246.07778,200.99074c-4.01682,0 -6.85596,-1.59591 -9.3692,-3.28644c-1.58358,-1.0652 -3.46794,-1.45859 -4.08249,-3.74614c-1.13065,-4.20857 0.76069,-5.41613 0.76069,-7.09759c0,-2.08184 -0.19758,-6.16638 -0.19758,-6.16638c0,0 1.3075,-1.47158 2.90483,-3.73942c2.85429,-4.05246 6.10536,-5.13521 11.4105,-4.19898c8.07191,1.42448 9.24899,9.32885 9.24899,17.77545c0,1.96286 -0.15971,5.94323 -0.15971,5.94323z" data-paper-data="{&quot;index&quot;:null}" fill="#148382" stroke="none" stroke-width="NaN" stroke-linecap="butt"/><g data-paper-data="{&quot;index&quot;:null}" fill="#dc570f" stroke="none" stroke-width="0" stroke-linecap="butt"><path d="M256.6947,193.68135l-17.77169,-19.76061l1.71408,-0.97418l16.29039,17.86606z"/><path d="M251.39072,200.57142l-18.04059,-19.88603l1.15763,-1.55197l18.14404,20.05155z"/></g><g data-paper-data="{&quot;index&quot;:null}" fill="#dc570f" stroke="none" stroke-width="0" stroke-linecap="butt"><path d="M232.6375,192.42031l17.22376,-18.93621l1.79612,0.79823l-17.75878,19.52445z"/><path d="M239.05791,198.69475l16.57996,-18.4492l0.64402,2.29937l-15.96289,17.5363z"/></g><path d="M253.80287,178.55845c0.98871,2.19012 0.48545,4.92255 0.48545,4.92255c0,0 -0.50356,-2.51422 -0.99387,-3.71772c-0.46282,-1.136 -1.87027,-3.31244 -1.87027,-3.31244c0,0 1.86837,0.97718 2.37869,2.10761z" data-paper-data="{&quot;index&quot;:null}" fill="#ffffff" stroke="none" stroke-width="0" stroke-linecap="butt"/><path d="M258.31056,197.46135c0,0 -2.22801,-0.33337 -3.88757,0.06333c-1.7618,0.42114 -3.79823,2.42383 -6.18843,2.81594c-3.88381,0.63713 -8.30825,-0.36932 -11.07511,-2.05999c-1.94265,-1.18703 -3.9217,-3.01754 -4.51136,-5.06134c-0.79537,-2.7568 0.20521,-5.90168 0.33002,-8.37889c0.11993,-2.38013 -0.20998,-4.29922 -0.20998,-4.29922" data-paper-data="{&quot;index&quot;:null}" fill="none" stroke="#ffffff" stroke-width="3.5" stroke-linecap="round"/></g></g></g></svg>