<svg version="1.1" xmlns="http://www.w3.org/2000/svg" xmlns:xlink="http://www.w3.org/1999/xlink" width="81.67068" height="81.67068" viewBox="0,0,81.67068,81.67068"><g transform="translate(-199.16466,-139.16466)"><g data-paper-data="{&quot;isPaintingLayer&quot;:true}" fill-rule="nonzero" stroke="none" stroke-width="0" stroke-linecap="butt" stroke-linejoin="miter" stroke-miterlimit="10" stroke-dasharray="" stroke-dashoffset="0" style="mix-blend-mode: normal"><path d="M199.16466,220.83534v-81.67068h81.67068v81.67068z" data-paper-data="{&quot;index&quot;:null}" fill="none"/><path d="M250.6723,161.20678c-0.69944,0.64487 -1.26999,1.78354 -1.26999,1.78354l-14.61836,3.94532c0,0 2.38115,-3.73024 6.97694,-5.6607c4.5958,-1.93045 10.63151,-1.54381 10.63151,-1.54381c0,0 -0.89122,0.71142 -1.72011,1.47565z" fill="#f29e4a"/><path d="M226.54533,185.53103l2.46927,7.93885c0,0 -1.63929,1.62798 -2.3276,3.2944c-0.7216,1.74699 -0.5034,3.53621 -0.94066,3.53621c-1.28442,0 -4.12939,-3.4973 -5.31576,-6.68991c-1.82724,-4.91721 -0.95219,-8.40525 -0.66447,-9.77755c0.17577,-0.83829 1.40494,1.02639 2.72109,1.9638z" fill="#f29e4a"/><g><path d="M259.03712,177.67194c0,2.46329 -0.21511,5.03587 -0.79596,7.69329c-0.39593,1.8114 -1.99102,3.31914 -2.77454,5.20163c-0.44093,1.05941 0.07841,2.47192 -0.50889,3.55001c-1.71465,3.1475 -10.6046,4.52784 -16.56384,3.88016c-8.88498,-0.9657 -13.98748,-4.64053 -14.24223,-12.39335c-0.32004,-9.74021 12.24719,-23.2995 20.64323,-23.2995c8.39604,0 14.24223,7.61047 14.24223,15.36775z" fill="#f32f00"/><path d="M255.2155,193.85066c-2.3414,4.01042 -11.02243,4.9593 -16.98165,4.31161c-2.3912,-0.2599 -6.33093,-1.39504 -6.33093,-1.39504c0,0 1.94303,-2.71552 8.52976,-5.97488c6.58672,-3.25937 10.31228,-3.45217 10.31228,-3.45217z" fill="#ffffff"/></g><g><g><path d="M256.67096,175.3198c0,3.68537 -1.22006,6.67294 -4.66261,6.67294c-4.09314,0 -4.66262,-2.98757 -4.66262,-6.67294c0,-3.68537 0.78633,-6.67295 4.66262,-6.67295c4.09314,0 4.66261,2.98758 4.66261,6.67295z" fill="#ffffff"/><path d="M254.93602,176.04774c0,1.40714 -0.72821,2.54784 -1.6265,2.54784c-0.89828,0 -1.6265,-1.1407 -1.6265,-2.54784c0,-1.40714 0.72821,-2.54784 1.6265,-2.54784c0.89828,0 1.6265,1.1407 1.6265,2.54784z" fill="#f32f00"/></g><g><path d="M262.43984,175.65921c0,3.68537 -0.56946,5.94498 -4.01202,5.94498c-2.14136,0 -3.57829,-2.50226 -3.57829,-6.18763c0,-3.68537 1.43694,-6.67294 3.57829,-6.67294c4.09314,0 4.01202,3.23022 4.01202,6.91559z" fill="#ffffff"/><path d="M260.70493,175.90187c0,1.40714 -0.7282,2.54784 -1.62649,2.54784c-0.89828,0 -1.62651,-1.1407 -1.62651,-2.54784c0,-1.40714 0.72822,-2.54785 1.62651,-2.54785c0.89828,0 1.62649,1.14072 1.62649,2.54785z" fill="#f32f00"/></g></g><path d="M254.53332,192.55828c1.75439,0.74559 3.68346,-0.56149 3.69873,1.1474c0.02429,2.71719 -5.1121,2.01084 -7.56147,-0.64485c-1.35882,-1.47327 -0.11209,-4.204 0.33641,-5.65074c1.11567,-3.59882 4.5108,-6.02238 7.22505,-6.02238c1.65812,0 3.23857,1.62212 2.81697,3.08061c-0.30058,1.03982 -1.1275,0.89708 -2.5499,1.11203c-2.82931,0.42756 -5.72018,6.23234 -3.9658,6.97792z" fill="#f29e4a"/><path d="M232.71363,177.46972c5.04044,0.86478 8.03054,3.08494 6.21569,4.88195c-2.52844,2.50358 -7.32619,8.07365 -12.30802,8.61194c-1.93168,0.20872 -4.3783,-1.48034 -6.00445,-2.69623c-5.82,-4.35166 -4.1314,-13.58193 12.09677,-10.79767z" data-paper-data="{&quot;index&quot;:null}" fill="#ffffff"/></g></g></svg>