<svg version="1.1" xmlns="http://www.w3.org/2000/svg" xmlns:xlink="http://www.w3.org/1999/xlink" width="141.60048" height="44.8185" viewBox="0,0,141.60048,44.8185"><defs><linearGradient x1="17100.92184" y1="37568.05333" x2="17100.92184" y2="-34386.42847" gradientUnits="userSpaceOnUse" id="color-1"><stop offset="0" stop-color="#4e87ff"/><stop offset="1" stop-color="#4e87ff" stop-opacity="0"/></linearGradient></defs><g transform="translate(-169.19976,-157.59075)"><g data-paper-data="{&quot;isPaintingLayer&quot;:true}" fill-rule="nonzero" stroke-linecap="butt" stroke-linejoin="miter" stroke-miterlimit="10" stroke-dasharray="" stroke-dashoffset="0" style="mix-blend-mode: normal"><path d="M169.19976,202.40925v-44.8185h141.60048v44.8185z" fill="none" stroke="none" stroke-width="0"/><path d="M180.05896,164.65352c0.96061,0 118.41507,0 119.97228,0c2.46645,0 4.08264,1.71219 4.08264,4.17864c0,0.97235 0,21.18003 0,22.71719c0,2.46084 -1.8401,3.79712 -4.30094,3.79712c-1.52939,0 -118.92707,0 -119.86313,0c-2.40262,0 -4.0296,-1.61281 -4.0296,-4.01542c0,-1.43004 -0.07669,-20.0407 0,-22.38973c0.07669,-2.34903 3.17814,-4.2878 4.13875,-4.2878z" fill="url(#color-1)" stroke="none" stroke-width="0"/><text transform="translate(179.89596,187.11852) scale(0.59321,0.59321)" font-size="40" xml:space="preserve" fill="#ffffff" fill-rule="nonzero" stroke="#ffffff" stroke-width="1" stroke-linecap="butt" stroke-linejoin="miter" stroke-miterlimit="10" stroke-dasharray="" stroke-dashoffset="0" font-family="&quot;ヒラギノ角ゴ Pro W3&quot;, &quot;Hiragino Kaku Gothic Pro&quot;, Osaka, &quot;メイリオ&quot;, Meiryo, &quot;ＭＳ Ｐゴシック&quot;, &quot;MS PGothic&quot;" font-weight="normal" text-anchor="start" style="mix-blend-mode: normal"><tspan x="0" dy="0">Juguemos</tspan></text></g></g></svg>