<svg version="1.1" xmlns="http://www.w3.org/2000/svg" xmlns:xlink="http://www.w3.org/1999/xlink" width="114.78911" height="42.77503" viewBox="0,0,114.78911,42.77503"><g transform="translate(-218.21788,-158.48095)"><g data-paper-data="{&quot;isPaintingLayer&quot;:true}" fill-rule="nonzero" stroke-linejoin="miter" stroke-miterlimit="10" stroke-dasharray="" stroke-dashoffset="0" style="mix-blend-mode: normal"><g fill="none" stroke="#8a8a8a" stroke-width="2" stroke-linecap="round"><path d="M219.21788,159.83171l40.42428,40.42428"/><path d="M260.0806,159.48095l-40.68734,40.68734"/></g><g stroke-width="0" stroke-linecap="butt"><path d="M232.29709,178.04523c0,-4.38148 3.55189,-7.93337 7.93337,-7.93337c4.38148,0 8.00741,3.24283 7.40798,7.58311c-0.87564,6.34029 -5.46324,4.59001 -7.06857,7.31011c-1.68577,2.85639 0.9943,4.18428 0.74883,4.75713c-0.24547,0.57285 -5.16547,-0.80993 -7.3434,-4.10835c-1.7595,-2.66473 -1.67822,-5.65071 -1.67822,-7.60864z" fill="#f32f00" stroke="#000000"/><path d="M243.29522,187.02977v-1.75129h1.75129v1.75129z" fill="#f32f00" stroke="#000000"/><path d="M242.94496,189.48158v-1.40103h1.40103v1.40103z" fill="#f32f00" stroke="none"/><path d="M235.51993,177.82818c0,-2.37043 1.92161,-4.29204 4.29204,-4.29204c2.37043,0 4.33209,1.7544 4.00779,4.10254c-0.25055,1.81415 -2.81886,2.68619 -4.52918,3.97283c-1.01103,0.76058 -1.32968,1.86231 -1.75608,2.85739c0,0 -0.87006,-1.57464 -1.403,-3.20991c-0.47043,-1.44347 -0.61157,-2.93417 -0.61157,-3.43081z" fill="#f29e4a" stroke="#000000"/><path d="M238.58815,176.90981c0,-0.90538 0.73395,-1.63933 1.63933,-1.63933c0.90538,0 1.63933,0.73395 1.63933,1.63933c0,0.90538 -0.73395,1.63933 -1.63933,1.63933c-0.90538,0 -1.63933,-0.73395 -1.63933,-1.63933z" fill="#ffffff" stroke="#000000"/><path d="M237.09785,178.54916c0,-0.49384 0.40034,-0.89418 0.89418,-0.89418c0.49384,0 0.89418,0.40034 0.89418,0.89418c0,0.49384 -0.40034,0.89418 -0.89418,0.89418c-0.49384,0 -0.89418,-0.40034 -0.89418,-0.89418z" fill="#ffffff" stroke="none"/></g><g stroke-width="0" stroke-linecap="butt"><path d="M249.21077,178.04523c0,-4.38148 3.55189,-7.93337 7.93337,-7.93337c4.38148,0 8.00741,3.24283 7.40798,7.58311c-0.87564,6.34029 -5.46324,4.59001 -7.06857,7.31011c-1.68577,2.85639 0.9943,4.18428 0.74883,4.75713c-0.24547,0.57285 -5.16547,-0.80993 -7.3434,-4.10835c-1.7595,-2.66473 -1.67822,-5.65071 -1.67822,-7.60864z" fill="#f32f00" stroke="#000000"/><path d="M260.2089,187.02977v-1.75129h1.75129v1.75129z" fill="#f32f00" stroke="#000000"/><path d="M259.85864,189.48158v-1.40103h1.40103v1.40103z" fill="#f32f00" stroke="none"/><path d="M252.43361,177.82818c0,-2.37043 1.92161,-4.29204 4.29204,-4.29204c2.37043,0 4.33209,1.7544 4.00779,4.10254c-0.25055,1.81415 -2.81886,2.68619 -4.52918,3.97283c-1.01103,0.76058 -1.32968,1.86231 -1.75608,2.85739c0,0 -0.87006,-1.57464 -1.403,-3.20991c-0.47043,-1.44347 -0.61157,-2.93417 -0.61157,-3.43081z" fill="#f29e4a" stroke="#000000"/><path d="M255.50183,176.90981c0,-0.90538 0.73395,-1.63933 1.63933,-1.63933c0.90538,0 1.63933,0.73395 1.63933,1.63933c0,0.90538 -0.73395,1.63933 -1.63933,1.63933c-0.90538,0 -1.63933,-0.73395 -1.63933,-1.63933z" fill="#ffffff" stroke="#000000"/><path d="M254.01153,178.54916c0,-0.49384 0.40034,-0.89418 0.89418,-0.89418c0.49384,0 0.89418,0.40034 0.89418,0.89418c0,0.49384 -0.40034,0.89418 -0.89418,0.89418c-0.49384,0 -0.89418,-0.40034 -0.89418,-0.89418z" fill="#ffffff" stroke="none"/></g><g stroke-width="0" stroke-linecap="butt"><path d="M266.37744,178.04523c0,-4.38148 3.55189,-7.93337 7.93337,-7.93337c4.38148,0 8.00741,3.24283 7.40798,7.58311c-0.87564,6.34029 -5.46324,4.59001 -7.06857,7.31011c-1.68577,2.85639 0.9943,4.18428 0.74883,4.75713c-0.24547,0.57285 -5.16547,-0.80993 -7.3434,-4.10835c-1.7595,-2.66473 -1.67822,-5.65071 -1.67822,-7.60864z" fill="#f32f00" stroke="#000000"/><path d="M277.37557,187.02977v-1.75129h1.75129v1.75129z" fill="#f32f00" stroke="#000000"/><path d="M277.02531,189.48158v-1.40103h1.40103v1.40103z" fill="#f32f00" stroke="none"/><path d="M269.60028,177.82818c0,-2.37043 1.92161,-4.29204 4.29204,-4.29204c2.37043,0 4.33209,1.7544 4.00779,4.10254c-0.25055,1.81415 -2.81886,2.68619 -4.52918,3.97283c-1.01103,0.76058 -1.32968,1.86231 -1.75608,2.85739c0,0 -0.87006,-1.57464 -1.403,-3.20991c-0.47043,-1.44347 -0.61157,-2.93417 -0.61157,-3.43081z" fill="#f29e4a" stroke="#000000"/><path d="M272.6685,176.90981c0,-0.90538 0.73395,-1.63933 1.63933,-1.63933c0.90538,0 1.63933,0.73395 1.63933,1.63933c0,0.90538 -0.73395,1.63933 -1.63933,1.63933c-0.90538,0 -1.63933,-0.73395 -1.63933,-1.63933z" fill="#ffffff" stroke="#000000"/><path d="M271.17819,178.54916c0,-0.49384 0.40034,-0.89418 0.89418,-0.89418c0.49384,0 0.89418,0.40034 0.89418,0.89418c0,0.49384 -0.40034,0.89418 -0.89418,0.89418c-0.49384,0 -0.89418,-0.40034 -0.89418,-0.89418z" fill="#ffffff" stroke="none"/></g><g stroke-width="0" stroke-linecap="butt"><path d="M283.54411,178.04523c0,-4.38148 3.55189,-7.93337 7.93337,-7.93337c4.38148,0 8.00741,3.24283 7.40798,7.58311c-0.87564,6.34029 -5.46324,4.59001 -7.06857,7.31011c-1.68577,2.85639 0.9943,4.18428 0.74883,4.75713c-0.24547,0.57285 -5.16547,-0.80993 -7.3434,-4.10835c-1.7595,-2.66473 -1.67822,-5.65071 -1.67822,-7.60864z" fill="#f32f00" stroke="#000000"/><path d="M294.54224,187.02977v-1.75129h1.75129v1.75129z" fill="#f32f00" stroke="#000000"/><path d="M294.19198,189.48158v-1.40103h1.40103v1.40103z" fill="#f32f00" stroke="none"/><path d="M286.76694,177.82818c0,-2.37043 1.92161,-4.29204 4.29204,-4.29204c2.37043,0 4.33209,1.7544 4.00779,4.10254c-0.25055,1.81415 -2.81886,2.68619 -4.52918,3.97283c-1.01103,0.76058 -1.32968,1.86231 -1.75608,2.85739c0,0 -0.87006,-1.57464 -1.403,-3.20991c-0.47043,-1.44347 -0.61157,-2.93417 -0.61157,-3.43081z" fill="#f29e4a" stroke="#000000"/><path d="M289.83516,176.90981c0,-0.90538 0.73395,-1.63933 1.63933,-1.63933c0.90538,0 1.63933,0.73395 1.63933,1.63933c0,0.90538 -0.73395,1.63933 -1.63933,1.63933c-0.90538,0 -1.63933,-0.73395 -1.63933,-1.63933z" fill="#ffffff" stroke="#000000"/><path d="M288.34487,178.54916c0,-0.49384 0.40034,-0.89418 0.89418,-0.89418c0.49384,0 0.89418,0.40034 0.89418,0.89418c0,0.49384 -0.40034,0.89418 -0.89418,0.89418c-0.49384,0 -0.89418,-0.40034 -0.89418,-0.89418z" fill="#ffffff" stroke="none"/></g><g stroke-width="0" stroke-linecap="butt"><path d="M300.43389,178.04523c0,-4.38148 3.55189,-7.93337 7.93337,-7.93337c4.38148,0 8.00741,3.24283 7.40798,7.58311c-0.87564,6.34029 -5.46324,4.59001 -7.06857,7.31011c-1.68577,2.85639 0.9943,4.18428 0.74883,4.75713c-0.24547,0.57285 -5.16547,-0.80993 -7.3434,-4.10835c-1.7595,-2.66473 -1.67822,-5.65071 -1.67822,-7.60864z" fill="#f32f00" stroke="#000000"/><path d="M311.43201,187.02977v-1.75129h1.75129v1.75129z" fill="#f32f00" stroke="#000000"/><path d="M311.08176,189.48158v-1.40103h1.40103v1.40103z" fill="#f32f00" stroke="none"/><path d="M303.65673,177.82818c0,-2.37043 1.92161,-4.29204 4.29204,-4.29204c2.37043,0 4.33209,1.7544 4.00779,4.10254c-0.25055,1.81415 -2.81886,2.68619 -4.52918,3.97283c-1.01103,0.76058 -1.32968,1.86231 -1.75608,2.85739c0,0 -0.87006,-1.57464 -1.403,-3.20991c-0.47043,-1.44347 -0.61157,-2.93417 -0.61157,-3.43081z" fill="#f29e4a" stroke="#000000"/><path d="M306.72495,176.90981c0,-0.90538 0.73395,-1.63933 1.63933,-1.63933c0.90538,0 1.63933,0.73395 1.63933,1.63933c0,0.90538 -0.73395,1.63933 -1.63933,1.63933c-0.90538,0 -1.63933,-0.73395 -1.63933,-1.63933z" fill="#ffffff" stroke="#000000"/><path d="M305.23465,178.54916c0,-0.49384 0.40034,-0.89418 0.89418,-0.89418c0.49384,0 0.89418,0.40034 0.89418,0.89418c0,0.49384 -0.40034,0.89418 -0.89418,0.89418c-0.49384,0 -0.89418,-0.40034 -0.89418,-0.89418z" fill="#ffffff" stroke="none"/></g><g stroke-width="0" stroke-linecap="butt"><path d="M317.60056,178.04523c0,-4.38148 3.55189,-7.93337 7.93337,-7.93337c4.38148,0 8.00741,3.24283 7.40798,7.58311c-0.87564,6.34029 -5.46324,4.59001 -7.06857,7.31011c-1.68577,2.85639 0.9943,4.18428 0.74883,4.75713c-0.24547,0.57285 -5.16547,-0.80993 -7.3434,-4.10835c-1.7595,-2.66473 -1.67822,-5.65071 -1.67822,-7.60864z" fill="#f32f00" stroke="#000000"/><path d="M328.59869,187.02977v-1.75129h1.75129v1.75129z" fill="#f32f00" stroke="#000000"/><path d="M328.24843,189.48158v-1.40103h1.40103v1.40103z" fill="#f32f00" stroke="none"/><path d="M320.8234,177.82818c0,-2.37043 1.92161,-4.29204 4.29204,-4.29204c2.37043,0 4.33209,1.7544 4.00779,4.10254c-0.25055,1.81415 -2.81886,2.68619 -4.52918,3.97283c-1.01103,0.76058 -1.32968,1.86231 -1.75608,2.85739c0,0 -0.87006,-1.57464 -1.403,-3.20991c-0.47043,-1.44347 -0.61157,-2.93417 -0.61157,-3.43081z" fill="#f29e4a" stroke="#000000"/><path d="M323.89162,176.90981c0,-0.90538 0.73395,-1.63933 1.63933,-1.63933c0.90538,0 1.63933,0.73395 1.63933,1.63933c0,0.90538 -0.73395,1.63933 -1.63933,1.63933c-0.90538,0 -1.63933,-0.73395 -1.63933,-1.63933z" fill="#ffffff" stroke="#000000"/><path d="M322.40132,178.54916c0,-0.49384 0.40034,-0.89418 0.89418,-0.89418c0.49384,0 0.89418,0.40034 0.89418,0.89418c0,0.49384 -0.40034,0.89418 -0.89418,0.89418c-0.49384,0 -0.89418,-0.40034 -0.89418,-0.89418z" fill="#ffffff" stroke="none"/></g></g></g></svg>