<svg version="1.1" xmlns="http://www.w3.org/2000/svg" xmlns:xlink="http://www.w3.org/1999/xlink" width="93.39969" height="93.39969" viewBox="0,0,93.39969,93.39969"><defs><linearGradient x1="241.15557" y1="168.4271" x2="241.15557" y2="191.64901" gradientUnits="userSpaceOnUse" id="color-1"><stop offset="0" stop-color="#e3872b"/><stop offset="1" stop-color="#dc570f"/></linearGradient></defs><g transform="translate(-193.30016,-133.30015)"><g data-paper-data="{&quot;isPaintingLayer&quot;:true}" fill-rule="nonzero" stroke="#000000" stroke-width="0" stroke-linecap="butt" stroke-linejoin="miter" stroke-miterlimit="10" stroke-dasharray="" stroke-dashoffset="0" style="mix-blend-mode: normal"><path d="M193.30017,226.69985v-93.39969h93.39969v93.39969z" fill="none"/><path d="M241.15557,168.4271c4.68468,0 7.08749,5.10569 7.08749,11.57281c0,6.46712 -2.25047,11.60976 -7.08749,11.57281c-1.06548,-0.00573 -2.74036,0.07629 -2.74036,0.07629c0,0 -4.34713,-6.12509 -4.34713,-11.64909c0,-5.37111 3.90141,-11.55151 3.90141,-11.55151c0,0 1.97436,-0.0213 3.18608,-0.0213z" fill="url(#color-1)"/><path d="M238.84443,168.29014c4.68469,0 7.08749,5.24263 7.08749,11.70976c0,6.46713 -2.25047,11.74671 -7.08749,11.70976c-5.14908,-0.03933 -7.08749,-5.24263 -7.08749,-11.70976c0,-6.46713 2.24872,-11.70976 7.08749,-11.70976z" fill="#f29e4a"/><path d="M238.99851,173.12682c2.13866,0 3.69782,4.00166 3.69782,7.79758c0,3.79592 -1.02739,6.89482 -3.23559,6.87312c-1.10854,-0.01088 -2.50742,-1.00401 -3.02493,-2.12298c-0.57987,-1.25379 -0.21066,-2.74434 -0.21066,-4.75014c0,-3.79592 0.56436,-7.79758 2.77336,-7.79758z" fill="#dc570f"/><path d="M237.84294,172.43348c0.91564,0 2.10257,0.56407 2.63197,1.5071c0.70712,1.2596 0.60362,3.19529 0.60362,5.36603c0,3.79592 -1.02739,7.51112 -3.23559,7.48943c-2.35065,-0.02309 -3.23559,-3.69351 -3.23559,-7.48943c0,-3.79592 1.02659,-6.87312 3.23559,-6.87312z" fill="#ffffff"/><path d="M238.53628,173.12682c2.13866,0 3.23559,3.0772 3.23559,6.87312c0,3.79592 -1.02739,6.89482 -3.23559,6.87312c-2.35067,-0.02309 -3.23559,-3.0772 -3.23559,-6.87312c0,-3.79592 1.02659,-6.87312 3.23559,-6.87312z" fill="#f29e4a"/></g></g></svg>