<svg version="1.1" xmlns="http://www.w3.org/2000/svg" xmlns:xlink="http://www.w3.org/1999/xlink" width="93.39969" height="93.39969" viewBox="0,0,93.39969,93.39969"><g transform="translate(-193.30016,-133.30015)"><g data-paper-data="{&quot;isPaintingLayer&quot;:true}" fill-rule="nonzero" stroke-linecap="butt" stroke-linejoin="miter" stroke-miterlimit="10" stroke-dasharray="" stroke-dashoffset="0" style="mix-blend-mode: normal"><path d="M193.30017,226.69985v-93.39969h93.39969v93.39969z" fill="none" stroke="#000000" stroke-width="0"/><path d="M236.75,180c0,-1.79493 1.45507,-3.25 3.25,-3.25c1.79493,0 3.25,1.45507 3.25,3.25c0,1.79493 -1.45507,3.25 -3.25,3.25c-1.79493,0 -3.25,-1.45507 -3.25,-3.25z" fill="none" stroke="#ffffff" stroke-width="2"/><path d="M239.82337,179.0462c0,-0.64383 0.52193,-1.16576 1.16576,-1.16576c0.64383,0 1.16576,0.52193 1.16576,1.16576c0,0.64383 -0.52193,1.16576 -1.16576,1.16576c-0.64383,0 -1.16576,-0.52193 -1.16576,-1.16576z" fill="#ffffff" stroke="none" stroke-width="0"/></g></g></svg>