<svg version="1.1" xmlns="http://www.w3.org/2000/svg" xmlns:xlink="http://www.w3.org/1999/xlink" width="57.37053" height="25.04532" viewBox="0,0,57.37053,25.04532"><g transform="translate(-211.31473,-167.47734)"><g data-paper-data="{&quot;isPaintingLayer&quot;:true}" fill-rule="nonzero" stroke="none" stroke-width="0" stroke-linecap="butt" stroke-linejoin="miter" stroke-miterlimit="10" stroke-dasharray="" stroke-dashoffset="0" style="mix-blend-mode: normal"><g><path d="M212.31123,190.92468v-21.37333h22.95164v21.37333z" data-paper-data="{&quot;index&quot;:null}" fill="#aeaeae"/><path d="M217.84786,175.09809v-2.47136h17.41501v2.47136z" data-paper-data="{&quot;index&quot;:null}" fill="#ffffff"/><path d="M217.84786,171.27881v-2.3042h17.41501v2.3042z" data-paper-data="{&quot;index&quot;:null}" fill="#ffffff"/><path d="M211.31473,192.42195v-24.94461h4.87246v2.97526l-2.19158,0.74559l-0.63757,21.22376z" fill="#ffffff"/><path d="M213.14951,192.42195v-22.63769h3.03769v22.63769z" fill="#aeaeae"/><path d="M212.66597,174.14369v-2.99901h3.57574v2.99901z" fill="#ffffff"/><path d="M212.89666,190.75359v-1.61485h3.2297v1.61485z" fill="#ffffff"/><g><path d="M231.38503,192.42195v-24.94461h4.87246v2.51388l-2.30693,1.20698l-0.40688,21.22376z" fill="#ffffff"/><path d="M233.2198,192.42195v-22.63769h3.03769v22.63769z" fill="#aeaeae"/><path d="M232.73626,174.14369v-2.99901h3.57575v2.99901z" fill="#ffffff"/><path d="M232.96695,190.75359v-1.61485h3.2297v1.61485z" fill="#ffffff"/></g><path d="M218.63472,192.52266v-6.24624c0,0 -0.26113,-4.9209 5.07486,-4.96182c5.48472,-0.04205 5.30556,4.96182 5.30556,4.96182v6.24624z" data-paper-data="{&quot;index&quot;:null}" fill="#aeaeae"/><path d="M227.55965,192.52266c0,0 0.28026,-6.44118 -0.54671,-8.30495c-1.49529,-3.36998 -5.95802,-2.20784 -5.95802,-2.20784c0,0 0.23714,-0.17007 0.41237,-0.24455c0.67209,-0.28569 1.50762,-0.45868 2.54626,-0.45071c5.33599,0.04091 5.07486,4.96182 5.07486,4.96182v6.24624z" data-paper-data="{&quot;index&quot;:null}" fill="#cccccc"/><path d="M218.63472,192.52266v-6.24624c0,0 -0.26113,-4.92091 5.07486,-4.96182c1.03864,-0.00796 1.87416,0.16502 2.54626,0.45071c0.17523,0.07449 0.41237,0.24455 0.41237,0.24455c0,0 -4.46273,-1.16214 -5.95802,2.20784c-0.82697,1.86377 -0.54671,8.30495 -0.54671,8.30495z" data-paper-data="{&quot;index&quot;:null}" fill="#ffffff"/><g><path d="M221.69033,185.24595c0,-0.98742 0.80046,-1.78787 1.78787,-1.78787c0.98742,0 1.78787,0.80046 1.78787,1.78787c0,0.98742 -0.80046,1.78787 -1.78787,1.78787c-0.98742,0 -1.78787,-0.80046 -1.78787,-1.78787z" fill="#ffffff"/><path d="M222.3824,185.93803c0,-0.98742 0.80046,-1.78787 1.78787,-1.78787c0.98742,0 1.78787,0.80046 1.78787,1.78787c0,0.98742 -0.80046,1.78787 -1.78787,1.78787c-0.98742,0 -1.78787,-0.80046 -1.78787,-1.78787z" fill="#cccccc"/><path d="M222.03637,185.59199c0,-0.98742 0.80046,-1.78787 1.78787,-1.78787c0.98742,0 1.78787,0.80046 1.78787,1.78787c0,0.98742 -0.80046,1.78787 -1.78787,1.78787c-0.98742,0 -1.78787,-0.80046 -1.78787,-1.78787z" fill="#aeaeae"/></g></g><g><path d="M260.74077,170.24857h5.13378v19.3829h-5.13378z" fill="#cccccc"/><path d="M261.86205,174.04196v-2.54426h3.23815v2.54426z" fill="#ffffff"/><g fill="#aeaeae"><path d="M251.10679,191.78607c0,0 -10.81101,-8.2509 -10.81101,-12.26727c0,-3.87601 10.81101,-11.42485 10.81101,-11.42485h11.21786v23.69212z"/><path d="M239.03737,179.82436c0,-7.70599 12.14305,-11.73041 12.14305,-11.73041v23.69212c0,0 -12.14305,-4.25572 -12.14305,-11.96171z"/><path d="M264.52193,191.78607v-23.69212h4.16333v23.69212z"/></g><path d="M251.68502,171.38206c-3.23729,0 -7.63277,3.81638 -7.63277,3.81638v-1.15648c0,0 4.39548,-3.81638 7.63277,-3.81638c2.89145,0 8.21101,0 8.21101,0v1.15648c0,0 -5.31956,0 -8.21101,0z" fill="#ffffff"/><path d="M248.21559,179.0578c0,2.29058 -2.19618,4.01611 -4.17617,4.01611c-1.97999,0 -2.99401,-1.72553 -2.99401,-4.01611c0,-0.04111 2.16746,-2.31976 4.70982,-3.16331c0.41142,-0.13651 2.46035,0.87273 2.46035,3.16331z" fill="#cccccc"/><path d="M247.09911,178.99213c0,1.9622 -1.8678,3.228 -2.99401,3.228c-1.97999,0 -3.05969,-0.87175 -3.05969,-3.16232c0,-0.04111 2.16747,-2.31977 4.70982,-3.16331c0.41142,-0.13651 1.34388,0.80706 1.34388,3.09764z" fill="#ffffff"/><path d="M242.37537,180.86519c-0.60677,0 -1.09865,-0.49188 -1.09865,-1.09865c0,-0.60677 0.49188,-1.09865 1.09865,-1.09865c0.60677,0 1.09865,0.49188 1.09865,1.09865c0,0.60677 -0.49188,1.09865 -1.09865,1.09865z" fill="#aeaeae"/><path d="M257.36488,184.41771c-1.58591,0 -2.87154,-1.28563 -2.87154,-2.87154c0,-1.58591 1.28563,-2.87154 2.87154,-2.87154c1.58591,0 2.87154,1.28563 2.87154,2.87154c0,1.58591 -1.28563,2.87154 -2.87154,2.87154z" fill="#cccccc"/><g fill="#ffffff"><path d="M254.47098,186.58977c0,1.82031 -1.24266,3.29597 -2.77555,3.29597c-0.61364,0 -1.48867,-0.20505 -1.98997,-0.88241c-0.3016,-0.40752 -0.28,-1.1739 -0.51421,-1.64005c-0.34897,-0.69456 -0.71314,-1.22472 -0.71314,-1.87794c0,-0.97458 2.18339,-0.83122 2.47967,-1.09043c0.17662,-0.15453 -0.46805,-1.29402 0.5904,-1.83739c0.34595,-0.1776 1.95672,0.16982 2.26964,0.64659c0.34498,0.52564 0.65317,2.35379 0.65317,3.38568z"/><path d="M259.50014,182.17202c0.95718,6.78242 -5.37324,5.8572 -5.37324,5.8572l-0.84843,-3.02247c0,0 4.5282,0.90123 2.61384,-2.61384c-0.5543,-1.01778 0.57905,-2.31932 1.65666,-2.31932c1.07761,0 1.78922,0.95087 1.95117,2.09844z"/></g></g></g></g></svg>