<svg version="1.1" xmlns="http://www.w3.org/2000/svg" xmlns:xlink="http://www.w3.org/1999/xlink" width="136.1363" height="137.33333" viewBox="0,0,136.1363,137.33333"><g transform="translate(-171.93185,-111.33335)"><g data-paper-data="{&quot;isPaintingLayer&quot;:true}" fill-rule="nonzero" stroke="none" stroke-width="0" stroke-linecap="butt" stroke-linejoin="miter" stroke-miterlimit="10" stroke-dasharray="" stroke-dashoffset="0" style="mix-blend-mode: normal"><path d="M171.93185,248.66668v-137.33333h136.1363v137.33333z" fill="none"/><g><path d="M260.8806,194.52432c0,0.40223 -8.97775,3.25478 -14.9424,3.25478c-5.96465,0 -12.87118,-2.26077 -12.87118,-2.663c0,-4.24879 4.8353,-10.65201 11.68762,-10.35612c8.91523,0.38496 16.12597,6.10733 16.12597,9.76434z" fill="#faa428"/><path d="M263.32168,195.6339c-0.00925,0.03507 -3.74262,0.22192 -5.6219,0.22192c-1.87927,0 -1.68963,-1.58969 -1.68963,-3.55067c0,-1.96098 0.03227,-3.10684 1.91154,-3.10684c1.87927,0 6.28765,3.07056 5.39998,6.43559z" fill="#fafafa"/></g><path d="M259.24333,138.53544c0,-8.48343 5.31036,-17.86288 13.98025,-17.45174c2.68615,0.12738 6.28444,0.10315 8.0125,1.5895c1.72958,1.48767 1.58774,4.48589 1.58774,4.48589c0,0 7.56147,5.11219 9.10971,6.11246c1.55073,1.00189 2.73861,3.46752 2.73861,3.46752l-3.90077,10.1241c0,0 -5.70019,1.56907 -7.47888,2.83882c-3.61199,2.57849 -8.24635,5.99074 -8.24635,5.99074c0,0 -1.56177,-0.19584 -2.38151,-0.41144c-8.81212,-2.31775 -13.4213,-8.26242 -13.4213,-16.74585z" fill="#20ad00"/><g fill="#fafafa"><path d="M292.04967,146.62858c0,0 -0.95318,2.42677 -1.71173,3.36921c-1.04245,1.29517 -2.2436,2.09337 -3.20805,1.69352c-0.31254,-0.12958 0.50235,-1.55165 0.48072,-3.25834c-0.01365,-1.07738 -0.65558,-2.21995 0.42189,-2.21995c1.30057,0 4.01717,0.41556 4.01717,0.41556z"/><path d="M300.36106,142.19583c0,0 -0.56838,3.21726 -1.27146,4.89596c-0.82464,1.96892 -1.83459,3.55395 -2.33014,3.55395c-0.58777,0 0.08024,-1.95795 0.19322,-3.4696c0.06349,-0.84943 -0.81878,-2.54952 -0.81878,-2.54952z"/><path d="M285.59729,145.73039c0,0 -2.29643,2.92548 -2.76604,2.42194c-0.25838,-0.27704 -0.83114,-3.87864 -0.83114,-3.87864z"/><path d="M280.89159,143.5188c0,0 -1.88529,2.71991 -2.3549,2.21637c-0.25838,-0.27704 -0.83114,-3.87864 -0.83114,-3.87864z"/><path d="M280.83416,156.16839c0,0 3.17221,-0.94303 3.22367,-0.25642c0.02832,0.37777 -1.77746,3.54617 -1.77746,3.54617z" data-paper-data="{&quot;index&quot;:null}"/><path d="M276.29809,153.65956c0,0 2.82202,-1.72871 3.04869,-1.07856c0.12472,0.35771 -0.80351,3.88446 -0.80351,3.88446z" data-paper-data="{&quot;index&quot;:null}"/><path d="M274.00547,150.13419c0,0 2.82202,-1.72871 3.04869,-1.07856c0.12472,0.35771 -0.80351,3.88446 -0.80351,3.88446z" data-paper-data="{&quot;index&quot;:null}"/></g><g><path d="M283.18045,127.09761c0,0 2.89878,0.31978 6.61082,3.49589c2.60842,2.23183 3.94459,4.51237 3.94459,4.51237c0,0 -1.60308,4.49296 -4.46348,5.28145c-2.79623,0.77081 -3.68402,-0.27993 -5.18476,-1.80196c-1.83534,-1.86139 -2.4211,-5.62699 -1.95829,-8.52898c0.40389,-2.53255 1.05112,-2.95877 1.05112,-2.95877z" fill="#fafafa"/><path d="M288.78177,129.654c0,0 1.45418,0.93732 2.10655,1.62617c0.49134,0.51882 2.01212,2.52083 2.01212,2.52083c0,0 -0.43779,2.8059 -3.33726,2.51509c-1.43824,-0.14424 -2.03058,-1.54046 -2.02583,-3.5319c0.0053,-2.22398 1.24441,-3.13019 1.24441,-3.13019z" fill="#20ad00"/></g><g><path d="M272.84454,121.17744c0,0 -0.37358,3.80848 -2.92711,5.57312c-2.98115,2.06016 -4.92629,-0.09812 -4.92629,-0.09812c0,0 -0.85799,-0.89642 -1.4813,-2.31409c-0.41422,-0.94209 -0.31522,-2.21326 -1.27987,-3.24527c-1.48962,-1.59363 -4.92712,-2.55555 -5.12252,-3.63818c-0.17418,-0.96509 4.24263,-1.10312 5.28863,-0.95673c1.78943,0.25042 3.60331,-0.40559 6.19189,2.41646c2.17571,2.37195 4.25658,2.26281 4.25658,2.26281z" fill="#faa428"/><path d="M272.9796,121.05646c0,0 -0.37358,3.80848 -2.92711,5.57312c-0.00311,0.01043 -0.5421,-1.54866 -1.07841,-2.30047c-0.36888,-0.51711 -0.69533,-0.05693 -1.01118,-0.84124c-0.28412,-0.70551 -0.49645,-1.50373 -0.54645,-2.36695c-0.02852,-0.49241 -0.9631,0.22649 -1.61777,-0.06687c-0.8056,-0.361 -1.3855,-1.70712 -1.73628,-2.08238c-0.39916,-0.42702 -0.60008,-1.19103 -1.08071,-1.4742c-0.74996,-0.44184 -1.39427,0.12896 -2.36036,0.1788c-0.72538,0.03742 -2.65119,-0.52398 -3.37883,-0.34235c-0.17418,-0.96509 4.24263,-1.10311 5.28863,-0.95673c1.78943,0.25042 3.60331,-0.4056 6.19189,2.41645c2.17571,2.37195 4.25657,2.26282 4.25657,2.26282z" fill="#fafafa"/></g><g><path d="M288.77657,142.60787c2.08144,-0.84544 3.2195,-3.96541 3.66113,-5.68777c0.44163,-1.72237 1.53858,-3.13891 2.11753,-4.19949c0.39665,-0.72663 0.58803,-1.91134 2.02041,-1.79995c1.43239,0.11138 3.55557,1.39811 4.2072,2.61886c0.7068,1.32412 1.27452,3.17537 0.92833,5.46131c-0.85698,5.65876 -5.18315,7.3719 -10.87805,7.94127c-1.71178,0.17114 -4.16373,-0.00296 -5.78711,-0.5808c-1.18303,-0.42109 -2.28003,-1.18163 -3.19984,-1.56462c-1.46313,-0.60921 -2.11103,-0.95739 -3.31184,-1.66762c-0.92175,-0.54518 -1.87251,-1.93103 -2.32824,-3.13288c-0.56864,-1.49962 -0.58929,-2.71275 -1.39771,-1.6488c-0.30892,0.40657 -0.38829,1.61492 -0.69872,2.38263c-0.27408,0.67782 -0.78705,0.95335 -0.95566,0.87173c-0.47393,-0.2294 -0.47019,-4.03901 -0.33784,-4.41947c0.57637,-1.6568 2.11628,-3.1164 2.92146,-2.75981c1.20974,0.53574 1.01812,2.72201 2.81275,4.87079c0.72583,0.86907 3.04289,1.45584 4.18016,2.1349c1.20884,0.7218 0.96886,1.19777 2.02918,1.40895c0.82375,0.16406 2.90797,0.22116 4.01687,-0.22925z" fill="#faa428"/><path d="M282.07601,160.61942c-1.32603,2.52489 -5.96543,1.30105 -8.53336,-2.02558c-1.9587,-2.5374 -2.13291,-6.64579 -2.13291,-9.19479c0,-5.89083 0.50023,-12.32855 1.8008,-12.32855c0.54512,0 0.8627,0.99389 1.10457,2.57853c0.33518,2.19605 0.52492,5.52665 0.97329,8.91888c1.10818,8.38424 9.61733,6.66346 6.78763,12.05151z" fill="#faa428"/><path d="M299.58875,133.66622c0,0.68854 -0.62019,0.59203 -1.38523,0.59203c-0.76504,0 -1.38523,0.09651 -1.38523,-0.59203c0,-0.68854 0.62019,-1.24671 1.38523,-1.24671c0.76504,0 1.38523,0.55817 1.38523,1.24671z" fill="#000000"/></g><path d="M230.36239,143.10359c8.78346,-8.92363 29.67966,-7.84332 29.67966,-7.84332l11.43244,19.21149c0,0 -12.4562,8.33875 -14.34858,17.50664c-1.15529,5.59696 0.8891,10.89889 -2.7371,14.93189c-6.52584,7.25794 -17.50554,7.79214 -26.72438,7.45199c-13.329,-0.4918 -10.0109,-21.18331 -9.25075,-28.52314c0.97563,-9.42035 6.85555,-17.56112 11.9487,-22.73554z" fill="#20ad00"/><g><path d="M250.19803,199.37442c0,0.46576 -10.39565,3.76882 -17.30232,3.76882c-6.90668,0 -14.90398,-2.61782 -14.90398,-3.08358c0,-4.91982 5.59896,-12.33433 13.5335,-11.99171c10.32326,0.44577 18.67281,7.07189 18.67281,11.30647z" fill="#faa428"/><path d="M253.02465,200.65925c-0.01072,0.04061 -4.33371,0.25697 -6.50979,0.25697c-2.17607,0 -3.94013,-1.84076 -3.94013,-4.11144c0,-2.27069 2.02102,-3.59751 4.1971,-3.59751c2.17607,0 7.28068,3.55551 6.25282,7.45199z" fill="#fafafa"/><path d="M244.28782,203.22891c-0.01072,0.04061 -4.33371,0.25697 -6.50978,0.25697c-2.17607,0 -3.94014,-1.84076 -3.94014,-4.11144c0,-2.27069 2.02103,-3.59751 4.1971,-3.59751c2.17607,0 7.28068,3.55551 6.25282,7.45199z" fill="#fafafa"/></g><g><path d="M278.42138,169.91539c3.93869,8.66687 -8.62315,13.50176 -16.95971,9.76468c-8.33656,-3.73708 -12.33433,-13.5075 -12.33433,-18.75846c0,-5.25097 2.70739,-5.39627 6.6811,-5.39627c2.22274,0 0.43732,7.18871 6.08243,10.42635c2.59883,1.49052 7.59602,-3.21436 11.73108,-2.59088c2.34215,0.35315 4.71974,0.78548 5.12684,3.11886c0.21528,1.23389 -0.7387,2.5307 -0.32741,3.43572z" fill="#faa428"/><g><path d="M271.29059,181.35035c0,0 -2.18408,0.66938 -2.1842,-0.38545c-0.00009,-0.75763 2.81927,-1.46379 2.21025,-8.18643c-0.55283,-6.10237 -4.12803,-7.38704 -4.39445,-8.13086c-0.16917,-0.47232 2.1842,-1.15634 2.1842,-1.15634c0,0 3.94074,1.20365 4.6288,8.94622c0.70732,7.95915 -2.4446,8.91286 -2.4446,8.91286z" fill="#000000"/><path d="M272.74858,163.80253c0.37842,0.31572 -0.42928,3.32923 -1.35755,3.32923c-0.92827,0 -1.68077,-0.69463 -1.68077,-1.55149c0,-1.42284 2.9132,-1.88213 3.03833,-1.77774z" fill="#fafafa"/><path d="M272.16582,169.94345c0.56357,-1.0534 4.47368,-0.14043 4.60221,0.48067c0.0425,0.20537 -2.24736,3.23243 -3.862,2.3686c-0.97237,-0.52021 -1.30377,-1.79588 -0.7402,-2.84928z" data-paper-data="{&quot;index&quot;:null}" fill="#fafafa"/><path d="M276.36179,177.71054c-0.0572,0.163 -2.95874,1.3274 -3.73166,0.03211c-0.46547,-0.78005 -0.15776,-1.82118 0.68729,-2.32544c0.84505,-0.50425 3.21735,1.80035 3.04436,2.29333z" data-paper-data="{&quot;index&quot;:null}" fill="#fafafa"/><path d="M273.31608,181.61857c-0.08115,0.10885 -2.53092,0.3015 -2.8068,-0.8515c-0.16614,-0.69436 0.30898,-1.40315 1.0612,-1.58313c0.75222,-0.17998 1.99103,2.10541 1.7456,2.43463z" data-paper-data="{&quot;index&quot;:null}" fill="#fafafa"/></g><g><path d="M251.42012,170.64233c0,0 -1.05432,-0.92916 -0.50149,-1.26898c0.39707,-0.24408 1.67529,1.00621 5.00272,-1.47831c3.02042,-2.25529 2.54222,-4.54296 2.84628,-4.92218c0.19307,-0.2408 1.3096,0.77238 1.3096,0.77238c0,0 0.6384,2.45317 -3.19815,5.30763c-3.94387,2.93431 -5.45895,1.58946 -5.45895,1.58946z" fill="#000000"/><path d="M258.90495,166.11528c-0.29898,-0.48654 -0.17729,-1.10469 0.27183,-1.38068c0.74576,-0.45829 1.92481,0.9207 1.9104,1.01991c-0.0436,0.30003 -1.88325,0.84732 -2.18223,0.36077z" fill="#fafafa"/><path d="M258.9112,169.99402c-0.09396,0.08843 -2.41809,-0.13678 -2.48539,-1.26131c-0.04053,-0.67722 0.52136,-1.2618 1.255,-1.3057c0.73364,-0.04391 1.51454,2.29959 1.23039,2.56701z" data-paper-data="{&quot;index&quot;:null}" fill="#fafafa"/><path d="M255.18272,169.79367c0.53649,0.28051 0.09266,2.26622 -0.22145,2.33433c-0.10386,0.02252 -1.64873,-1.12325 -1.21877,-1.94556c0.25893,-0.49522 0.90374,-0.66928 1.44022,-0.38877z" data-paper-data="{&quot;index&quot;:null}" fill="#fafafa"/><path d="M251.93193,171.79036c-0.0832,-0.00747 -0.97322,-1.22944 -0.45775,-1.74541c0.31043,-0.31073 0.83496,-0.29 1.17159,0.04629c0.33662,0.3363 -0.46223,1.72171 -0.71383,1.69911z" data-paper-data="{&quot;index&quot;:null}" fill="#fafafa"/></g></g><g><g><path d="M220.45546,158.67321c1.85231,1.72189 0.6215,4.36862 -1.58267,6.04239c-0.10417,0.0791 -3.65172,-4.24618 -3.62232,-4.66939c0.00615,-0.08863 4.92904,-1.62951 5.20499,-1.373z" fill="#faa428"/><path d="M215.25047,160.0462c0.00615,-0.08863 4.92904,-1.62951 5.20499,-1.37299c0.94134,0.87506 1.08642,1.98899 0.71213,3.09268c-0.40938,1.20716 -1.38787,0.31191 -2.80024,-0.41709c-1.38442,-0.71457 -3.20817,-1.25093 -3.11689,-1.3026z" fill="#fafafa"/></g><g><path d="M249.43664,140.37707c-0.95285,4.16719 -5.86716,4.60502 -10.18105,2.79538c-0.20388,-0.08552 3.12464,-8.93577 3.76882,-9.25075c0.1349,-0.06596 6.55419,5.83455 6.41223,6.45537z" fill="#faa428"/><path d="M243.02442,133.92169c0.1349,-0.06596 6.55418,5.83455 6.41223,6.45537c-0.48424,2.11777 -1.9916,3.27237 -3.92332,3.65829c-2.11283,0.4221 -1.63048,-1.76711 -1.75844,-4.4506c-0.12543,-2.63038 -0.88329,-5.75293 -0.73046,-5.66305z" fill="#fafafa"/></g><g><path d="M227.66788,140.01957c0.07094,-0.10395 7.19224,1.53458 7.34607,2.04565c1.03259,3.43056 -2.366,5.78581 -6.25844,6.25503c-0.18396,0.02218 -1.42638,-7.8043 -1.08763,-8.30069z" fill="#faa428"/><path d="M235.01396,142.06523c0.52476,1.74341 -0.09491,3.20912 -1.34223,4.29068c-1.36426,1.18297 -1.92,-0.61171 -3.12516,-2.51357c-1.18131,-1.86422 -3.02727,-3.82492 -2.87868,-3.82277c0.07094,-0.10395 7.19224,1.53458 7.34607,2.04565z" fill="#fafafa"/></g><g><path d="M220.47286,149.78425c0.07094,-0.10395 7.19224,1.53458 7.34607,2.04565c1.03259,3.43056 -2.366,5.78581 -6.25844,6.25503c-0.18396,0.02218 -1.42638,-7.8043 -1.08763,-8.30069z" fill="#faa428"/><path d="M227.81893,151.82988c0.52476,1.74341 -0.0949,3.20912 -1.34223,4.29068c-1.36426,1.18297 -1.92,-0.61171 -3.12516,-2.51357c-1.18131,-1.86422 -3.02727,-3.82492 -2.87868,-3.82277c0.07094,-0.10395 7.19224,1.53458 7.34607,2.04565z" fill="#fafafa"/></g><g><path d="M236.40469,148.24246c0.07093,-0.10395 7.19224,1.53458 7.34607,2.04565c1.03259,3.43056 -2.366,5.78581 -6.25844,6.25503c-0.18396,0.02218 -1.42638,-7.8043 -1.08763,-8.30069z" fill="#faa428"/><path d="M243.75076,150.2881c0.52476,1.74341 -0.09491,3.20912 -1.34223,4.29068c-1.36426,1.18297 -1.92,-0.61171 -3.12516,-2.51357c-1.18131,-1.86422 -3.02727,-3.82492 -2.87868,-3.82277c0.07094,-0.10395 7.19224,1.53458 7.34607,2.04565z" fill="#fafafa"/></g><g><path d="M230.23754,162.11859c0.07094,-0.10395 7.19224,1.53458 7.34607,2.04565c1.03259,3.43056 -2.366,5.78581 -6.25844,6.25503c-0.18396,0.02218 -1.42638,-7.8043 -1.08763,-8.30069z" fill="#faa428"/><path d="M237.58361,164.16422c0.52476,1.74341 -0.09491,3.20912 -1.34223,4.29068c-1.36426,1.18297 -1.92,-0.61171 -3.12516,-2.51357c-1.18131,-1.86422 -3.02727,-3.82492 -2.87868,-3.82277c0.07094,-0.10395 7.19224,1.53458 7.34607,2.04565z" fill="#fafafa"/></g><g><path d="M220.05711,165.7222c2.7572,1.56209 2.59578,6.65915 0.95546,10.82508c-0.07752,0.19689 -5.81096,-4.45771 -5.96575,-5.16206c-0.03242,-0.14749 4.59953,-5.89573 5.01029,-5.66302z" fill="#faa428"/><path d="M220.05711,165.7222c1.40121,0.79385 2.04864,2.50068 2.13124,4.5343c0.09034,2.22427 -1.35984,1.4223 -3.20483,1.17624c-1.80849,-0.24119 -4.01241,0.09645 -3.9367,-0.04752c-0.03242,-0.14749 4.59953,-5.89573 5.01029,-5.66302z" fill="#fafafa"/></g><g><path d="M227.87308,175.08376c2.25736,1.14031 1.80928,4.02464 0.15608,6.24428c-0.07813,0.1049 -4.68653,-3.06619 -4.77572,-3.48094c-0.01868,-0.08685 4.28335,-2.93321 4.61964,-2.76333z" fill="#faa428"/><path d="M227.87308,175.08376c1.14719,0.57951 1.59565,1.60944 1.54231,2.77365c-0.05835,1.27336 -1.24683,0.68476 -2.80601,0.37628c-1.52833,-0.30238 -3.4293,-0.31163 -3.35594,-0.3866c-0.01868,-0.08685 4.28335,-2.93321 4.61964,-2.76333z" fill="#fafafa"/></g><path d="M259.13306,134.22967c1.21443,1.89907 0.73769,6.12084 0.73769,8.79092c0,4.68329 4.83074,5.03445 5.39627,9.71329c0.31694,2.62209 -1.63693,3.11153 -3.76691,3.56746c-0.71703,0.15348 -8.41969,1.06274 -10.75409,4.95892c-4.38799,7.32365 2.68691,15.25922 -12.74296,27.09832c-4.7057,3.61061 -16.35754,4.79826 -16.70844,4.4598c-0.19506,-0.18814 -2.20497,-2.68422 -2.69837,-3.4241c-0.9111,-1.36627 -1.39444,-2.65581 -0.91756,-3.03688c2.53948,-2.02922 17.34404,-0.23039 20.70891,-3.38179c8.22534,-7.70351 4.34286,-14.91535 8.21045,-21.83596c2.71836,-4.86421 2.27089,-5.60023 12.7291,-8.2912c1.15856,-0.29811 0.58988,-1.39812 -0.32717,-2.31322c-1.49167,-1.48849 -4.49965,-3.85869 -4.88525,-6.89791c-0.36742,-2.89593 -0.18396,-6.69592 0.05911,-8.7233c0.24307,-2.02738 1.31975,-1.66213 2.40776,-1.81227c1.08801,-0.15014 1.63579,-0.30394 2.55147,1.12794z" fill="#fafafa"/></g></g></g></svg>