<svg version="1.1" xmlns="http://www.w3.org/2000/svg" xmlns:xlink="http://www.w3.org/1999/xlink" width="109.33333" height="109.33333" viewBox="0,0,109.33333,109.33333"><g transform="translate(-185.33335,-125.33335)"><g data-paper-data="{&quot;isPaintingLayer&quot;:true}" fill-rule="nonzero" stroke="none" stroke-width="0" stroke-linecap="butt" stroke-linejoin="miter" stroke-miterlimit="10" stroke-dasharray="" stroke-dashoffset="0" style="mix-blend-mode: normal"><path d="M185.33335,234.66668v-109.33333h109.33333v109.33333z" fill="none"/><g><g data-paper-data="{&quot;index&quot;:null}"><path d="M246.06818,187.74166c-2.13538,-0.91211 -1.94949,-2.0131 -1.51753,-4.69662c0.19551,-1.2146 0.91763,-2.96701 1.63394,-3.69022c0.7574,-0.76469 1.88815,-1.33194 2.93652,-1.1632c0.73196,0.11782 0.5315,2.18025 1.00848,2.87501c0.85231,1.24145 2.06601,1.56527 1.65947,4.09087c-0.64005,3.97627 -3.82083,3.39576 -5.7209,2.58416z" data-paper-data="{&quot;index&quot;:null}" fill="#f29e4a"/><path d="M247.0242,177.9537l-2.25161,9.27994c0,0 -5.14638,-2.59578 -6.92245,-5.61919c-2.64969,-4.51056 -2.1947,-6.25706 -2.1947,-6.25706l7.52811,-1.9407c0,0 0.54491,2.54765 1.06716,3.39255c0.56098,0.90756 2.7735,1.14445 2.7735,1.14445z" data-paper-data="{&quot;index&quot;:null}" fill="#908816"/></g><path d="M249.16476,199.56661c-0.13991,1.52584 -5.8994,1.13664 -9.12408,0.96431c-3.22468,-0.17233 -3.16766,-4.61137 -3.16766,-4.61137c0,0 5.5806,-0.31401 8.80528,-0.14168c0.2617,0.01399 3.62636,2.26291 3.48645,3.78876z" data-paper-data="{&quot;index&quot;:null}" fill="#908816"/><path d="M227.91369,191.4948c-0.62373,-3.05075 3.5634,-4.61226 3.5634,-4.61226c0,0 2.392,5.77749 3.01572,8.82823c0.05062,0.24759 1.05122,3.65779 -2.41628,4.38221c-3.15349,0.65881 -3.53911,-5.54743 -4.16284,-8.59818z" data-paper-data="{&quot;index&quot;:null}" fill="#908816"/><path d="M240.29989,172.00536c4.89882,0 8.76071,2.28626 9.53953,7.02913c1.33888,8.15359 -4.64276,8.22663 -9.53953,8.36801c-11.59322,0.33472 -10.15986,-4.07263 -8.87009,-8.70273c1.33888,-4.80639 3.97128,-6.69441 8.87009,-6.69441z" data-paper-data="{&quot;index&quot;:null}" fill="#908816"/><path d="M230.93485,184.59653c0,0 5.74466,-1.76919 7.06814,-3.4848c2.48835,-3.22563 2.46919,-9.067 2.46919,-9.067l1.88441,-0.1617c0,0 -1.41568,6.39546 0.16131,7.72065c0.41552,0.34918 1.14324,1.25658 1.96895,0.10969c0.81731,-1.1352 0.40688,-6.90907 0.40688,-6.90907l2.47059,1.454l1.86913,7.78864c0,0 0.30105,2.70173 0.58951,4.20727c0.17602,0.91867 -1.35884,2.26004 -1.74396,3.23301c-0.96082,2.4274 -2.10093,7.0826 -2.10093,7.0826l-5.23019,-0.44127c0,0 1.24715,-1.10949 0.45508,-0.58903c-3.17924,2.08907 -6.17888,2.35263 -9.06155,-0.12969c-2.58527,-2.22623 -1.10803,-8.5888 -1.10803,-8.5888c0.56303,0 0.72652,0.42708 0.40605,-0.03584c-0.60269,-0.87056 -0.50461,-2.18868 -0.50461,-2.18868z" data-paper-data="{&quot;index&quot;:null}" fill="#f32f00"/><path d="M239.90833,182.47795c0,-0.7748 0.6281,-1.4029 1.4029,-1.4029c0.7748,0 1.4029,0.6281 1.4029,1.4029c0,0.7748 -0.6281,1.4029 -1.4029,1.4029c-0.7748,0 -1.4029,-0.6281 -1.4029,-1.4029z" data-paper-data="{&quot;index&quot;:null}" fill="#f29e4a"/><path d="M245.23005,182.14595c0,-0.7748 0.6281,-1.4029 1.4029,-1.4029c0.7748,0 1.4029,0.6281 1.4029,1.4029c0,0.7748 -0.6281,1.4029 -1.4029,1.4029c-0.7748,0 -1.4029,-0.6281 -1.4029,-1.4029z" data-paper-data="{&quot;index&quot;:null}" fill="#f29e4a"/><path d="M232.59503,164.5722c0,-4.85542 4.03781,-7.70348 10.90394,-7.4757c6.61047,0.2193 4.69022,2.12894 7.4405,4.34811c1.12532,0.908 3.24892,1.12351 4.66539,2.17303c1.41646,1.04952 2.3069,2.47596 2.3069,3.8055c0,0.93882 -1.66469,1.29868 -2.77421,1.49497c-1.96301,0.34728 -2.06196,2.37903 -3.87036,3.21789c-2.94335,1.36533 -4.95615,1.22771 -8.20683,1.22771c-4.92997,0 -7.87426,0.16604 -9.88711,-2.77308c-0.79206,-1.15655 -0.57823,-4.64736 -0.57823,-6.01844z" data-paper-data="{&quot;index&quot;:null}" fill="#f29e4a"/><path d="M243.83009,170.6096c-0.04146,-0.38096 0.95442,-0.44165 1.6617,-1.22063c0.64158,-0.70661 0.93681,-2.14784 2.04264,-2.26817c1.04463,-0.11367 2.02627,1.58691 3.39548,1.94923c1.67807,0.44405 3.66583,-0.38768 3.70937,0.01241c0.00949,0.08717 0.27304,1.77687 -0.16109,2.13249c-0.48808,0.39981 -1.68085,-0.53535 -1.68085,-0.53535c0,0 -0.71961,1.23475 -1.3328,1.52534c-1.2689,0.60133 -1.83782,-0.36864 -1.83782,-0.36864c0,0 -1.57212,0.89747 -2.06715,0.75744c-0.88916,-0.25151 -1.40015,-1.38467 -1.40015,-1.38467c0,0 -2.29256,-0.2615 -2.32934,-0.59946z" data-paper-data="{&quot;index&quot;:null}" fill="#908816"/><path d="M234.3819,158.5114c3.04434,-1.44057 7.05335,-2.37897 8.30893,-0.64016c0.68823,0.95312 -3.58922,5.24878 -3.04566,6.12274c0.52579,0.84537 1.39509,1.76705 1.0406,2.90197c-0.14822,0.47454 -0.65942,1.68985 -1.24746,1.78241c-0.61778,0.09724 -1.32036,-0.931 -1.77594,-0.50963c-1.10172,1.01899 -1.34566,3.28156 -2.40326,3.28156c-1.87981,0 -4.8447,0.24523 -5.66583,-1.33633c-1.57795,-3.03924 0.41035,-5.33428 0.62186,-6.33928c0.65791,-3.12613 1.12242,-3.82271 4.16676,-5.26328z" data-paper-data="{&quot;index&quot;:null}" fill="#908816"/><path d="M235.62165,166.73529c0,-1.63509 1.15284,-2.61749 1.94011,-2.61749c0.78727,0 1.42547,0.9824 1.42547,2.61749c0,1.63509 -0.6382,2.96059 -1.42547,2.96059c-0.78727,0 -1.94011,-1.3255 -1.94011,-2.96059z" data-paper-data="{&quot;index&quot;:null}" fill="#f29e4a"/><path d="M247.10147,160.70446c0.84782,0 1.53512,1.03094 1.53512,2.30268c0,1.27173 -0.6873,2.30268 -1.53512,2.30268c-0.84782,0 -1.53512,-1.03094 -1.53512,-2.30268c0,-1.27173 0.6873,-2.30268 1.53512,-2.30268z" data-paper-data="{&quot;index&quot;:null}" fill="#908816"/><path d="M231.31162,158.73072c0.3843,-0.75573 1.80687,-5.75107 10.85551,-5.26328c5.41768,0.29205 7.1849,3.7924 7.55483,3.7625c2.90251,-0.23459 6.15162,1.01267 6.15162,1.50077c0,0.84782 -5.74385,1.53512 -12.82924,1.53512c-7.08539,0 -12.60993,0.18992 -11.73272,-1.53512z" data-paper-data="{&quot;index&quot;:null}" fill="#f32f00"/><g><path d="M243.58588,177.41058c0,0 -1.37058,3.90133 -1.17057,5.52699c0.15204,1.23586 1.03784,3.53335 1.03784,3.53335c0,0 -5.23906,-0.98117 -7.59466,-3.20952c-3.51426,-3.32441 -3.09337,-3.87741 -3.09337,-3.87741l3.61432,-5.49901c0,0 3.24615,2.8452 3.92746,3.46122c0.73182,0.66174 3.27897,0.06438 3.27897,0.06438z" data-paper-data="{&quot;index&quot;:null}" fill="#908816"/><path d="M241.76704,182.75592c-0.13891,-1.12913 0.05149,-2.87146 0.50162,-3.69817c0.47593,-0.87412 1.33429,-1.66895 2.3089,-1.78886c0.68045,-0.08372 1.03316,1.79974 1.63561,2.29407c1.07651,0.88333 2.23786,0.8586 2.52673,3.20648c0.45479,3.69646 -2.51981,3.99941 -4.41631,3.76753c-2.13139,-0.26061 -2.24961,-1.28634 -2.55655,-3.78104z" data-paper-data="{&quot;index&quot;:null}" fill="#f29e4a"/></g></g></g></g></svg>