<svg version="1.1" xmlns="http://www.w3.org/2000/svg" xmlns:xlink="http://www.w3.org/1999/xlink" width="119.71806" height="119.71806" viewBox="0,0,119.71806,119.71806"><g transform="translate(-180.14097,-120.14097)"><g data-paper-data="{&quot;isPaintingLayer&quot;:true}" fill-rule="nonzero" stroke-linecap="butt" stroke-linejoin="miter" stroke-miterlimit="10" stroke-dasharray="" stroke-dashoffset="0" style="mix-blend-mode: normal"><path d="M180.14097,239.85903v-119.71806h119.71806v119.71806z" data-paper-data="{&quot;index&quot;:null}" fill="none" stroke="none" stroke-width="0"/><g stroke-width="0"><path d="M236.89696,171.85658h6.23631c0,0 -0.35745,8.99011 0.53289,17.80526c0.7352,7.27908 1.85144,12.70519 -3.37889,12.70519c-6.38816,0 -4.37851,-5.63572 -3.96204,-12.58547c0.54605,-9.11184 0.57172,-17.92497 0.57172,-17.92497z" data-paper-data="{&quot;index&quot;:null}" fill="#dc570f" stroke="none"/><g data-paper-data="{&quot;index&quot;:null}"><g data-paper-data="{&quot;index&quot;:null}"><path d="M260.96129,185.0262c0,0 -4.96503,7.55143 -8.91636,14.11395c-2.52523,4.19402 -7.38209,3.7807 -9.62604,2.66919c-0.73257,-0.36287 0.52098,-0.31226 -0.02302,-0.84236c-2.21032,-2.15384 -1.68633,-5.51636 3.21425,-9.73551c7.59938,-6.54267 15.35118,-6.20527 15.35118,-6.20527z" fill="#dc570f" stroke="none"/><path d="M254.33946,189.01095c2.48165,-2.39442 5.1009,-3.4971 5.25873,-3.32496c0.16163,0.17628 -2.31265,1.34082 -4.98071,3.99818c-1.47409,1.46818 -4.17783,1.87962 -5.77276,3.34202c-4.37125,4.00802 -6.21345,7.66779 -6.46793,7.39026c-0.25448,-0.27754 1.5711,-3.95543 5.94236,-7.96345c1.66014,-1.52219 4.47074,-1.94693 6.02031,-3.44203z" fill="#148382" stroke="#20ad00"/></g><g data-paper-data="{&quot;index&quot;:null}"><path d="M234.22921,191.24814c4.90058,4.21915 5.42456,7.58167 3.21424,9.73552c-0.544,0.53009 0.70956,0.4795 -0.02302,0.84236c-2.24395,1.11152 -7.10081,1.52482 -9.62605,-2.66919c-3.95133,-6.56253 -8.91636,-14.11396 -8.91636,-14.11396c0,0 7.7518,-0.3374 15.35118,6.20527z" fill="#dc570f" stroke="none"/><path d="M231.52014,192.46964c4.37125,4.00801 6.19683,7.68591 5.94236,7.96345c-0.25448,0.27754 -2.09668,-3.38224 -6.46793,-7.39025c-1.59492,-1.4624 -4.29866,-1.87384 -5.77276,-3.34202c-2.66806,-2.65736 -5.14233,-3.82191 -4.98071,-3.99818c0.15783,-0.17213 2.77708,0.93055 5.25873,3.32497c1.54957,1.4951 4.36017,1.91985 6.02031,3.44203z" fill="#148382" stroke="#20ad00"/></g></g></g><g data-paper-data="{&quot;index&quot;:null}" stroke="none"><g fill="none" stroke-width="1" font-family="sans-serif" font-weight="normal" font-size="12" text-anchor="start"/><path d="M224.97947,157.79364c-2.27719,-15.48349 15.01035,-29.50187 15.05308,-29.01474c1.63869,18.67747 -0.54808,24.10757 0.16519,36.426c0.14171,2.44728 1.51514,6.09586 1.51514,6.09586l-1.78618,3.91873c0,0 -12.69878,-2.13774 -14.94723,-17.42584z" data-paper-data="{&quot;index&quot;:null}" fill="#148382" stroke-width="0"/><path d="M235.32002,159.50566c-0.88502,-0.31093 -1.35042,-1.28044 -1.03948,-2.16546c0.31093,-0.88502 1.28044,-1.35042 2.16546,-1.03948c0.88502,0.31093 1.35042,1.28044 1.03948,2.16546c-0.31093,0.88502 -1.28044,1.35042 -2.16546,1.03948z" fill="#dc570f" stroke-width="0"/><path d="M235.66989,151.36976c-0.7744,-0.27206 -1.18161,-1.12039 -0.90955,-1.89478c0.27206,-0.7744 1.12039,-1.18161 1.89478,-0.90955c0.7744,0.27206 1.18161,1.12039 0.90955,1.89478c-0.27206,0.7744 -1.12039,1.18161 -1.89478,0.90955z" fill="#dc570f" stroke-width="0"/><path d="M229.26181,147.92589c-0.7744,-0.27206 -1.18161,-1.12039 -0.90955,-1.89478c0.27206,-0.7744 1.12039,-1.18161 1.89478,-0.90955c0.7744,0.27206 1.18161,1.12039 0.90955,1.89478c-0.27206,0.7744 -1.12039,1.18161 -1.89478,0.90955z" fill="#dc570f" stroke-width="0"/><path d="M238.02645,141.55376c-0.66377,-0.2332 -1.01281,-0.96033 -0.77962,-1.6241c0.2332,-0.66377 0.96033,-1.01281 1.6241,-0.77962c0.66377,0.2332 1.01281,0.96033 0.77962,1.6241c-0.2332,0.66377 -0.96033,1.01281 -1.6241,0.77962z" fill="#dc570f" stroke-width="0"/><path d="M229.47312,155.65125c-0.66377,-0.2332 -1.01281,-0.96033 -0.77962,-1.6241c0.2332,-0.66377 0.96033,-1.01281 1.6241,-0.77962c0.66377,0.2332 1.01281,0.96033 0.77962,1.6241c-0.2332,0.66377 -0.96033,1.01281 -1.6241,0.77962z" fill="#dc570f" stroke-width="0"/><path d="M233.42544,168.74148c-0.88502,-0.31093 -1.35042,-1.28044 -1.03948,-2.16546c0.31093,-0.88502 1.28044,-1.35042 2.16546,-1.03948c0.88502,0.31093 1.35042,1.28044 1.03948,2.16546c-0.31093,0.88502 -1.28044,1.35042 -2.16546,1.03948z" fill="#dc570f" stroke-width="0"/><path d="M230.686,163.72846c-0.4425,-0.15547 -0.6752,-0.64021 -0.51974,-1.08272c0.15547,-0.4425 0.64021,-0.6752 1.08272,-0.51974c0.4425,0.15547 0.6752,0.64021 0.51974,1.08272c-0.15547,0.4425 -0.64021,0.6752 -1.08272,0.51974z" fill="#dc570f" stroke-width="0"/><path d="M235.56849,135.73951c-0.66377,-0.2332 -1.01281,-0.96033 -0.77962,-1.6241c0.2332,-0.66377 0.96033,-1.01281 1.6241,-0.77962c0.66377,0.2332 1.01281,0.96033 0.77962,1.6241c-0.2332,0.66377 -0.96033,1.01281 -1.6241,0.77962z" fill="#dc570f" stroke-width="0"/></g><g stroke="none" stroke-width="0"><path d="M254.55307,158.25125c-2.57985,15.23569 -15.32204,17.0972 -15.32204,17.0972l-1.70067,-3.95659c0,0 1.45232,-3.61791 1.64714,-6.06153c0.98057,-12.30004 -1.0878,-17.77634 0.95604,-36.41383c0.0533,-0.4861 17.0324,13.90434 14.41957,29.33473z" data-paper-data="{&quot;index&quot;:null}" fill="#148382"/><path d="M242.03542,158.6521c-0.29165,-0.89156 0.19469,-1.85073 1.08625,-2.14238c0.89156,-0.29165 1.85073,0.19469 2.14238,1.08625c0.29165,0.89156 -0.19469,1.85073 -1.08625,2.14238c-0.89156,0.29165 -1.85073,-0.19469 -2.14238,-1.08625z" fill="#dc570f"/><path d="M242.13008,150.6463c-0.25518,-0.78012 0.17036,-1.6194 0.95047,-1.87459c0.78012,-0.25518 1.6194,0.17035 1.87458,0.95048c0.25518,0.78012 -0.17035,1.6194 -0.95046,1.87458c-0.78012,0.25518 -1.6194,-0.17035 -1.87459,-0.95047z" fill="#dc570f"/><path d="M248.61141,147.34237c-0.25518,-0.78012 0.17036,-1.6194 0.95048,-1.87458c0.78012,-0.25518 1.6194,0.17036 1.87458,0.95048c0.25518,0.78012 -0.17035,1.6194 -0.95048,1.87458c-0.78012,0.25518 -1.6194,-0.17036 -1.87459,-0.95047z" fill="#dc570f"/><path d="M240.25499,140.91723c-0.21872,-0.66868 0.14602,-1.38806 0.81469,-1.60679c0.66868,-0.21872 1.38806,0.14602 1.60679,0.81469c0.21872,0.66868 -0.14602,1.38806 -0.81469,1.60679c-0.66868,0.21872 -1.38806,-0.14602 -1.60679,-0.81469z" fill="#dc570f"/><path d="M248.50021,155.1971c-0.21872,-0.66868 0.14602,-1.38806 0.81469,-1.60679c0.66868,-0.21872 1.38806,0.14602 1.60679,0.81468c0.21872,0.66868 -0.14602,1.38806 -0.81469,1.60679c-0.66868,0.21872 -1.38806,-0.14602 -1.60679,-0.81468z" fill="#dc570f"/><path d="M243.72902,167.92687c-0.29165,-0.89156 0.19469,-1.85073 1.08625,-2.14238c0.89156,-0.29165 1.85073,0.19469 2.14238,1.08625c0.29165,0.89156 -0.19469,1.85073 -1.08625,2.14238c-0.89156,0.29165 -1.85073,-0.19469 -2.14238,-1.08625z" fill="#dc570f"/><path d="M247.64786,163.51764c-0.14581,-0.44578 0.09734,-0.92537 0.54313,-1.07118c0.44578,-0.14581 0.92537,0.09734 1.07118,0.54313c0.14581,0.44578 -0.09734,0.92537 -0.54313,1.07118c-0.44578,0.14581 -0.92537,-0.09734 -1.07118,-0.54313z" fill="#dc570f"/><path d="M242.83861,135.15771c-0.21872,-0.66868 0.14602,-1.38806 0.81468,-1.60679c0.66868,-0.21872 1.38807,0.14602 1.60679,0.81469c0.21872,0.66868 -0.14603,1.38806 -0.81469,1.60679c-0.66868,0.21872 -1.38806,-0.14602 -1.60678,-0.8147z" fill="#dc570f"/></g></g></g></svg>