<svg version="1.1" xmlns="http://www.w3.org/2000/svg" xmlns:xlink="http://www.w3.org/1999/xlink" width="41.17943" height="40.81848" viewBox="0,0,41.17943,40.81848"><g transform="translate(-219.41029,-159.59076)"><g data-paper-data="{&quot;isPaintingLayer&quot;:true}" fill-rule="nonzero" stroke="none" stroke-width="0" stroke-linecap="butt" stroke-linejoin="miter" stroke-miterlimit="10" stroke-dasharray="" stroke-dashoffset="0" style="mix-blend-mode: normal"><g><path d="M219.60457,200.33501v-40.74425h40.74426v40.74425z" data-paper-data="{&quot;index&quot;:null}" fill="#525252"/><g><path d="M239.90837,200.34799v-18.20795h18.20796v18.20795z" data-paper-data="{&quot;index&quot;:null}" fill="#a4a4a4"/><path d="M258.05507,182.07878v2.95205l-15.43682,0.07215l-0.04927,15.18375h-2.72187v-18.20795z" data-paper-data="{&quot;index&quot;:null}" fill="#cccccc"/><path d="M239.90837,200.34799v-2.95205l15.43682,-0.07214l0.04927,-15.31029h2.72187v18.33448z" data-paper-data="{&quot;index&quot;:null}" fill="#767676"/></g><g><path d="M219.47155,200.40924v-18.20795h18.20796v18.20795z" data-paper-data="{&quot;index&quot;:null}" fill="#a4a4a4"/><path d="M237.61825,182.14004v2.95205l-15.43682,0.07214l-0.04928,15.18376h-2.72186v-18.20795z" data-paper-data="{&quot;index&quot;:null}" fill="#cccccc"/><path d="M219.47155,200.40924v-2.95205l15.43682,-0.07214l0.04927,-15.31029h2.72187v18.33448z" data-paper-data="{&quot;index&quot;:null}" fill="#767676"/></g><g><g><path d="M229.72461,179.76035v-18.20795h18.20796v18.20795z" data-paper-data="{&quot;index&quot;:null}" fill="#a4a4a4"/><path d="M247.87131,161.49115v2.95205l-15.43682,0.07215l-0.04927,15.18375h-2.72186v-18.20795z" data-paper-data="{&quot;index&quot;:null}" fill="#cccccc"/><path d="M229.72461,179.76035v-2.95205l15.43682,-0.07214l0.04927,-15.31029h2.72186v18.33448z" data-paper-data="{&quot;index&quot;:null}" fill="#767676"/></g><g><path d="M250.0349,179.6991v-18.20795h10.48496v18.20795z" data-paper-data="{&quot;index&quot;:null}" fill="#a4a4a4"/><path d="M260.58972,161.42989v2.95205l-7.84494,0.07214l-0.04927,15.18376h-2.72187v-18.20795z" data-paper-data="{&quot;index&quot;:null}" fill="#cccccc"/><path d="M250.0349,179.6991v-2.95205l10.47654,-0.07214l-0.01255,3.02419z" data-paper-data="{&quot;index&quot;:null}" fill="#767676"/></g><g><path d="M227.25793,161.48199v18.20795h-7.68649v-18.20795z" data-paper-data="{&quot;index&quot;:null}" fill="#a4a4a4"/><path d="M227.25794,161.48199v2.95205l-7.64917,0.07214l0.01255,-3.02419z" data-paper-data="{&quot;index&quot;:null}" fill="#cccccc"/><path d="M219.42951,179.75119v-2.95205l5.11854,-0.07215l0.04927,-15.18375h2.72187v18.20795z" data-paper-data="{&quot;index&quot;:null}" fill="#767676"/></g></g></g></g></g></svg>