<svg version="1.1" xmlns="http://www.w3.org/2000/svg" xmlns:xlink="http://www.w3.org/1999/xlink" width="109.33333" height="109.33335" viewBox="0,0,109.33333,109.33335"><g transform="translate(-185.33335,-125.33333)"><g data-paper-data="{&quot;isPaintingLayer&quot;:true}" fill-rule="nonzero" stroke="none" stroke-width="0" stroke-linecap="butt" stroke-linejoin="miter" stroke-miterlimit="10" stroke-dasharray="" stroke-dashoffset="0" style="mix-blend-mode: normal"><path d="M185.33335,234.66666v-109.33333h109.33333v109.33333z" fill="none"/><path d="M185.33335,234.66668v-109.33333h109.33333v109.33333z" fill="none"/><path d="M185.33335,234.66666v-109.33333h109.33333v109.33333z" fill="none"/><g><path d="M248.65367,131.03165c0,0 4.66863,3.37159 6.71087,3.34229c1.55256,-0.02227 4.51457,-1.18541 4.51457,-1.18541c0,0 -1.2161,10.55333 -3.13167,15.13829c-1.86083,4.45393 -8.2023,11.98977 -8.2023,11.98977l-11.3802,-4.56807c0,0 10.147,-17.49462 10.99698,-18.63189c0.91301,-1.22161 0.49177,-6.08497 0.49177,-6.08497z" data-paper-data="{&quot;index&quot;:null}" fill="#f32f00"/><path d="M255.05471,135.3306c-1.41848,0.02035 -3.55286,-0.45008 -4.5172,-1.1193c-1.01964,-0.7076 -1.88956,-1.87861 -1.90712,-3.10296c-0.01226,-0.85482 2.37013,-1.03875 3.06399,-1.71912c1.23986,-1.21575 1.36544,-2.65881 4.31498,-2.70112c4.64372,-0.06659 4.61919,3.66177 4.07661,5.9817c-0.60977,2.60724 -1.89728,2.61584 -5.03128,2.66079z" data-paper-data="{&quot;index&quot;:null}" fill="#f29e4a"/></g><path d="M257.64379,192.93898c-1.85037,3.04571 -5.73559,-0.28589 -5.73559,-0.28589c0,0 4.13624,-7.52432 5.98661,-10.57003c0.15017,-0.24718 3.56756,-4.61441 6.68134,-1.9748c1.33912,1.1352 -6.93235,12.83072 -6.93235,12.83072z" data-paper-data="{&quot;index&quot;:null}" fill="#f32f00"/><path d="M226.26634,198.87683c-1.7772,0.18586 -3.19743,-7.39108 -4.27715,-11.233c-1.07971,-3.8419 3.78734,-5.65749 3.78734,-5.65749c0,0 2.89883,7.92309 3.97855,11.76501c0,0 1.01848,4.6541 -3.48874,5.12548z" data-paper-data="{&quot;index&quot;:null}" fill="#f32f00"/><path d="M239.61487,154.00085c5.649,0 10.10229,3.95759 11.00037,12.16762c1.54391,14.11409 -5.35373,14.24052 -11.00037,14.48526c-13.36856,0.5794 -11.7157,-7.04983 -10.22842,-15.06467c1.54391,-8.31999 4.57943,-11.58821 10.22842,-11.58821z" data-paper-data="{&quot;index&quot;:null}" fill="#f32f00"/><path d="M238.89562,156.59218l3.82171,-1.16298c0,0 0.26855,10.45391 2.08704,12.74785c1.10163,1.38969 2.32084,0.43569 2.95255,-1.46001c1.27257,-3.81887 -2.84467,-11.33311 -2.84467,-11.33311l2.84893,2.51691c0,0 2.117,7.9709 3.08583,13.15403c0.96883,5.18313 0.73427,6.27056 0.73427,6.27056c0,0 2.5625,0.42385 3.53624,0.87507c2.10071,0.97345 3.87444,3.3616 3.87444,3.3616l-7.57424,12.61285c0,0 -4.39711,-6.4243 -8.64305,-6.51033c-0.58314,-0.01182 -3.39987,2.20856 -5.00853,4.31437c-1.42454,1.8648 -8.86557,3.77853 -8.86557,3.77853l-3.49082,-13.9343c0,0 1.42037,0.54424 1.78014,-0.28759c0.22518,-0.86299 -1.30647,0.04474 -0.56707,-4.04515c0.58961,-3.26132 1.59213,-7.05329 2.49838,-10.58602c0.7862,-3.06476 1.17036,-5.87495 2.07019,-7.95981c0.79979,-1.85307 2.29206,-2.65501 2.29206,-2.65501c0,0 -3.81535,10.86347 -2.41286,13.9625c1.52316,3.36567 7.91649,-1.57274 8.48792,-3.13738c1.44875,-3.96683 -0.66288,-10.5226 -0.66288,-10.5226z" data-paper-data="{&quot;index&quot;:null}" fill="#ffe2e2"/><path d="M240.02025,171.99395c0,-0.89345 0.72428,-1.61773 1.61773,-1.61773c0.89345,0 1.61773,0.72428 1.61773,1.61773c0,0.89345 -0.72428,1.61773 -1.61773,1.61773c-0.89345,0 -1.61773,-0.72428 -1.61773,-1.61773z" data-paper-data="{&quot;index&quot;:null}" fill="#f29e4a"/><path d="M246.03952,171.61549c0,-0.89345 0.72428,-1.61773 1.61773,-1.61773c0.89345,0 1.61773,0.72428 1.61773,1.61773c0,0.89345 -0.72428,1.61773 -1.61773,1.61773c-0.89345,0 -1.61773,-0.72428 -1.61773,-1.61773z" data-paper-data="{&quot;index&quot;:null}" fill="#f29e4a"/><g><path d="M229.01291,145.54401c0,-6.36705 5.2949,-10.10179 14.29865,-9.80311c8.6685,0.28757 6.15042,2.79174 9.75695,5.70181c1.47567,1.19068 4.2604,1.47329 6.11786,2.84956c1.85745,1.37627 3.0251,3.2468 3.0251,4.99026c0,1.2311 -2.18296,1.703 -3.6379,1.9604c-2.57416,0.4554 -2.70391,3.11969 -5.07532,4.21972c-3.8597,1.79039 -6.49914,1.60993 -10.76186,1.60993c-6.46481,0 -10.32574,0.21774 -12.96526,-3.63643c-1.03865,-1.51662 -0.75824,-6.09422 -0.75824,-7.89215z" data-paper-data="{&quot;index&quot;:null}" fill="#f29e4a"/><path d="M243.74575,153.46109c-0.05437,-0.49956 1.25156,-0.57915 2.17903,-1.60064c0.84133,-0.9266 1.22847,-2.81652 2.67857,-2.97432c1.36986,-0.14905 2.6571,2.08096 4.45259,2.55609c2.20051,0.5823 4.80711,-0.50837 4.8642,0.01627c0.01244,0.11431 0.35805,2.33006 -0.21124,2.7964c-0.64004,0.52428 -2.20415,-0.70202 -2.20415,-0.70202c0,0 -0.94365,1.61916 -1.74774,2.00022c-1.66394,0.78854 -2.40998,-0.48341 -2.40998,-0.48341c0,0 -2.06156,1.17688 -2.71071,0.99325c-1.16598,-0.32981 -1.83606,-1.81576 -1.83606,-1.81576c0,0 -3.00631,-0.34291 -3.05453,-0.78609z" data-paper-data="{&quot;index&quot;:null}" fill="#f32f00"/><path d="M231.35602,137.59641c3.99213,-1.88906 9.24927,-3.11961 10.89574,-0.83946c0.90249,1.24985 -4.70665,6.88288 -3.99386,8.02893c0.68948,1.10856 1.82943,2.31718 1.36456,3.80544c-0.19436,0.62228 -0.86471,2.21595 -1.63583,2.33733c-0.81011,0.12751 -1.73142,-1.22085 -2.32884,-0.66829c-1.44472,1.33623 -1.7646,4.3032 -3.15146,4.3032c-2.46505,0 -6.35299,0.32157 -7.42977,-1.75236c-2.06921,-3.98544 0.5381,-6.99499 0.81546,-8.31289c0.86274,-4.09939 1.47186,-5.01283 5.464,-6.90189z" data-paper-data="{&quot;index&quot;:null}" fill="#f32f00"/><path d="M232.7989,148.3806c0,-2.14414 1.69463,-3.53921 2.727,-3.53921c1.03237,0 1.86926,1.39507 1.86926,3.53921c0,2.14414 -0.83689,3.88231 -1.86926,3.88231c-1.03237,0 -2.727,-1.73817 -2.727,-3.88231z" data-paper-data="{&quot;index&quot;:null}" fill="#f29e4a"/><path d="M248.03558,140.47219c1.11177,0 2.01305,1.3519 2.01305,3.01957c0,1.66765 -0.90128,3.01957 -2.01305,3.01957c-1.11177,0 -2.01305,-1.3519 -2.01305,-3.01957c0,-1.66765 0.90128,-3.01957 2.01305,-3.01957z" data-paper-data="{&quot;index&quot;:null}" fill="#f32f00"/><path d="M227.32991,137.884c0.50394,-0.991 2.36941,-7.54154 14.23515,-6.90189c7.10437,0.38297 9.42176,4.97308 9.90687,4.93388c3.80614,-0.30762 8.0668,1.32794 8.0668,1.968c0,1.11177 -7.53208,2.01305 -16.82335,2.01305c-9.29128,0 -16.53577,0.24904 -15.38546,-2.01305z" data-paper-data="{&quot;index&quot;:null}" fill="#ffe2e2"/></g><g data-paper-data="{&quot;index&quot;:null}"><path d="M218.43097,173.45343c0.62916,-2.60264 1.9167,-2.60167 5.05093,-2.6233c1.41859,-0.00979 3.54942,0.4765 4.50874,1.15289c1.01435,0.71517 1.87552,1.89262 1.88397,3.11708c0.00589,0.85489 -2.37779,1.02108 -3.0767,1.69627c-1.24887,1.20648 -1.38519,2.64858 -4.33495,2.66893c-4.64408,0.03204 -4.59179,-3.69605 -4.03198,-6.01188z" data-paper-data="{&quot;index&quot;:null}" fill="#f29e4a"/><path d="M229.74947,173.40286l-10.98634,-1.2194c0,0 0.47336,-7.31367 3.56322,-11.20218c3.11929,-3.92556 10.66005,-5.69745 14.24562,-3.33562c2.08749,1.37503 1.83056,4.15116 1.21259,8.71912c-0.94955,7.01896 -7.27534,1.97791 -7.27534,1.97791z" data-paper-data="{&quot;index&quot;:null}" fill="#f32f00"/></g></g></g></svg>