<svg version="1.1" xmlns="http://www.w3.org/2000/svg" xmlns:xlink="http://www.w3.org/1999/xlink" width="35.26525" height="41.34988" viewBox="0,0,35.26525,41.34988"><g transform="translate(-222.19724,-159.43078)"><g data-paper-data="{&quot;isPaintingLayer&quot;:true}" fill-rule="nonzero" stroke="none" stroke-width="0" stroke-linecap="butt" stroke-linejoin="miter" stroke-miterlimit="10" stroke-dasharray="" stroke-dashoffset="0" style="mix-blend-mode: normal"><g><path d="M230.0517,194.03597c3.71277,-0.47766 7.1368,3.37484 7.1368,3.37484c0,0 -0.62675,1.40677 -1.84896,3.09306c-4.30179,0.05405 -8.6031,0.19613 -12.91334,0.27679c0.55497,-2.12625 2.34083,-6.0648 7.6255,-6.74469z" fill="#20ad00"/><path d="M227.00163,199.47408c0,-0.64407 2.06975,-2.96036 4.84423,-2.96036c2.77448,0 5.20306,1.06037 5.20306,1.70445c0,0.64408 -2.42858,0.62796 -5.20306,0.62796c-2.77448,0 -4.84423,1.27204 -4.84423,0.62796z" fill="#f29e4a"/></g><path d="M236.91495,200.53125v-41.03081h6.04778v41.03081z" fill="#20ad00"/><path d="M257.46249,181.52316c0,0 -5.54642,1.04244 -9.28979,1.04244c-3.74337,0 -5.70147,-6.06608 -5.70147,-6.06608c0,0 3.42403,-3.8525 7.13679,-3.37484c6.97285,0.89708 7.85447,8.39848 7.85447,8.39848z" data-paper-data="{&quot;index&quot;:null}" fill="#20ad00"/><path d="M253.01693,178.20396c0,0.64407 -2.06974,-0.62796 -4.84422,-0.62796c-2.77448,0 -5.20306,0.01612 -5.20306,-0.62795c0,-0.64407 2.42858,-1.70445 5.20306,-1.70445c2.77448,0 4.84422,2.31629 4.84422,2.96036z" data-paper-data="{&quot;index&quot;:null}" fill="#f29e4a"/><g fill="#20ad00"><path d="M231.48703,163.00477c-3.74239,0 -9.28688,-1.04189 -9.28979,-1.04244c0.0005,-0.00421 0.16126,-0.83025 0.88374,-2.46089c4.40256,-0.04187 8.82747,-0.14712 13.22275,0.02338c-0.91591,1.76018 -2.53453,3.47995 -4.8167,3.47995z"/><path d="M222.19724,161.96233v0c0,0 0,0.00001 0,0.00001z"/></g></g></g></svg>