<svg version="1.1" xmlns="http://www.w3.org/2000/svg" xmlns:xlink="http://www.w3.org/1999/xlink" width="41.41093" height="41.41092" viewBox="0,0,41.41093,41.41092"><g transform="translate(-219.29454,-159.29454)"><g data-paper-data="{&quot;isPaintingLayer&quot;:true}" fill-rule="nonzero" stroke-width="0" stroke-linecap="butt" stroke-linejoin="miter" stroke-miterlimit="10" stroke-dasharray="" stroke-dashoffset="0" style="mix-blend-mode: normal"><path d="M219.29454,200.70546v-41.41092h41.41093v41.41092z" data-paper-data="{&quot;index&quot;:null}" fill="#355aff" stroke="none"/><path d="M222.72154,200.45281c0,0 -3.84925,-5.95369 -1.27959,-10.19757c3.2926,-5.43782 9.10154,-3.40416 9.40274,-7.3016c0.41714,-5.39757 -1.34759,-11.13307 -1.34759,-11.13307c0,0 3.02469,3.42326 5.08252,10.05407c0.46024,1.48301 0.64526,4.96917 -0.85057,6.54202c-1.7655,1.85641 -2.1097,3.35061 -2.52684,5.38606c-0.80966,3.95077 6.81899,6.65009 6.81899,6.65009z" fill="#20ad00" stroke="#ffffff"/><path d="M240.09312,200.48515c0,0 6.50474,-7.07347 7.88002,-10.4804c1.3558,-3.35869 0.31404,-9.81852 0.31404,-9.81852c0,0 2.43748,5.42536 2.6072,9.1252c0.07441,1.6222 -0.66824,3.96992 -1.52577,6.0951c-1.09829,2.72183 -2.38503,5.07861 -2.38503,5.07861z" fill="#20ad00" stroke="#ffffff"/><path d="M248.65964,200.48515c0,0 2.25329,-1.97519 3.29717,-4.92723c0.67028,-1.89551 -0.03366,-4.41265 0.73997,-6.34502c0.5908,-1.4757 2.36181,-2.9972 2.57945,-3.97659c0.51888,-2.33495 -1.40219,-8.21597 -1.40219,-8.21597c0,0 2.85311,3.82623 3.53834,6.70423c0.22969,0.96469 -1.69918,2.60713 -1.39401,5.1074c0.29774,2.43939 2.25297,4.74004 3.02751,7.01586c0.79997,2.35055 0.41502,4.63732 0.41502,4.63732z" fill="#20ad00" stroke="#ffffff"/><path d="M236.84355,200.48515c0,0 -2.65166,-2.28223 -1.92882,-6.10351c0.30151,-1.59395 4.26668,-3.91716 4.3431,-5.71722c0.08369,-1.97154 1.21488,-3.98572 0.97547,-5.86512c-0.4146,-3.2547 -2.33373,-6.10521 -2.16798,-7.63011c0.24429,-2.24749 2.05673,-4.84624 2.05673,-4.84624c0,0 -0.6557,3.84524 -0.6557,6.557c0,1.38346 2.39192,3.55136 3.05535,6.04821c0.53266,2.00471 -0.64453,4.22148 -0.57713,6.41453c0.06571,2.138 -3.52764,3.87071 -3.85435,5.66559c-0.54238,2.97979 2.03182,5.47686 2.03182,5.47686z" data-paper-data="{&quot;index&quot;:null}" fill="#20ad00" stroke="#ffffff"/></g></g></svg>