<svg version="1.1" xmlns="http://www.w3.org/2000/svg" xmlns:xlink="http://www.w3.org/1999/xlink" width="85.49398" height="85.49398" viewBox="0,0,85.49398,85.49398"><defs><linearGradient x1="-3285.69704" y1="-2895.28055" x2="-3285.69704" y2="4105.40967" gradientUnits="userSpaceOnUse" id="color-1"><stop offset="0" stop-color="#ffffff"/><stop offset="1" stop-color="#ffffff" stop-opacity="0"/></linearGradient></defs><g transform="translate(-197.25302,-137.25301)"><g data-paper-data="{&quot;isPaintingLayer&quot;:true}" fill-rule="nonzero" stroke-linejoin="miter" stroke-miterlimit="10" stroke-dasharray="" stroke-dashoffset="0" style="mix-blend-mode: normal"><path d="M208.63952,205.58013c0.00324,-13.1024 0,-44.63208 0,-51.75c0,-3.5626 2.97813,-5.21784 6.54073,-5.21784c12.68063,0 43.89984,0 51,0c2.96729,0 5.18024,2.50056 5.18024,5.46784c0,6.43742 0,39.20833 0,51.75c0,2.95974 -2.72049,5.55758 -5.68024,5.55758c-6.61442,0 -39.17756,0 -52,0c-3.13138,0 -5.04177,-1.58613 -5.04073,-5.80758z" fill="url(#color-1)" stroke="#a97a4a" stroke-width="2" stroke-linecap="butt"/><path d="M197.25302,222.74699v-85.49398h85.49398v85.49398z" fill="none" stroke="none" stroke-width="0" stroke-linecap="butt"/><g data-paper-data="{&quot;index&quot;:null}"><g data-paper-data="{&quot;index&quot;:null}" stroke="none" stroke-width="0" stroke-linecap="butt"><path d="M235.53383,194.34265c-0.75767,0.22394 -3.60675,-0.15055 -5.26388,-1.51907c-1.65713,-1.36851 -1.28295,-3.42005 -2.35914,-4.7763c-0.62841,-0.79195 -0.94017,-1.91907 -1.81215,-2.86887c-0.62135,-0.67678 -1.9205,-1.26354 -2.03828,-1.57481c-0.15439,-0.40808 1.48207,-1.13791 1.80048,-1.672c0.63531,-1.06563 0.79616,-2.70824 0.83945,-4.24074c0.06545,-2.31773 2.659,-3.02371 -0.0073,-4.18506c-0.75143,-0.3273 -1.38383,1.05871 -1.81941,1.89795c-0.59165,1.13996 -1.39801,0.76177 -1.87085,2.05811c-0.57066,1.5645 -0.77716,4.71675 -1.12503,4.78439c-0.39197,0.07621 -1.34534,-0.9837 -2.2008,-3.9016c-0.4253,-1.45064 -1.00378,-5.04824 -0.59653,-8.2782c0.40724,-3.22996 1.79164,-2.11279 2.79778,-4.39399c0.66355,-1.50447 1.31673,-4.98383 2.06436,-6.69256c1.1233,-2.56733 2.45982,-2.3563 4.36505,-2.3563c1.78399,0 4.20618,1.75688 5.55392,4.89951c1.45109,3.38362 1.96422,8.96047 0.52363,11.83827c-1.03827,2.07414 -2.26724,4.44194 -2.93838,6.10192c-0.51134,1.26473 -0.60305,2.11859 -0.60305,2.11859l5.14762,0.8599z" data-paper-data="{&quot;index&quot;:null}" fill="#f29e4a"/><path d="M223.4934,170.86878c0,0.37162 -1.12701,0.17678 -1.55387,0.42795c-0.46389,0.27295 -0.24554,0.97619 -0.6494,0.97619c-0.77549,0 -0.60502,-0.62865 -0.60502,-1.40413c0,-0.77549 0.62865,-1.40414 1.40413,-1.40414c0.77548,0 1.40413,0.62866 1.40413,1.40414z" data-paper-data="{&quot;index&quot;:null}" fill="#20ad00"/><g data-paper-data="{&quot;index&quot;:null}"><path d="M230.31348,163.24632c0,4.54212 -1.92791,6.6195 -3.81123,6.6195c-1.88331,0 -3.00886,-2.07738 -3.00886,-6.6195c0,-4.54212 -0.09242,-7.97908 3.41005,-8.22423c3.07453,-0.2152 3.41005,3.68211 3.41005,8.22423z" fill="#ffffff"/><path d="M226.30246,163.64749c0,1.66176 -0.76103,2.7425 -1.53652,2.7425c-0.77549,0 -0.87139,-1.08074 -0.87139,-2.7425c0,-1.66174 0.0959,-2.74248 0.87139,-2.74248c0.77549,0 1.53652,1.08073 1.53652,2.74248z" fill="#20ad00"/></g></g><path d="M252.85893,199.56863c0.84926,-0.67116 1.64118,-2.02448 1.64118,-2.02448c0,0 1.68662,1.44533 2.55248,1.92589c1.5982,0.887 3.299,2.02376 3.06856,2.14937c-0.01904,0.52064 -2.82707,1.26474 -5.62105,1.26474c-2.79399,0 -5.62106,-0.98369 -5.62106,-0.98369c0,0 2.34744,-1.04176 3.97987,-2.33184z" data-paper-data="{&quot;index&quot;:null}" fill="#f29e4a" stroke="none" stroke-width="0" stroke-linecap="butt"/><path d="M236.00692,197.22449c2.33016,1.8415 5.68097,3.32853 5.68097,3.32853c0,0 -4.03543,1.40413 -8.02364,1.40413c-3.98821,0 -8.91028,-0.14834 -8.93745,-0.89151c-0.32894,-0.17929 3.01263,-2.71574 5.29395,-3.98187c1.23595,-0.68596 3.64349,-2.74907 3.64349,-2.74907c0,0 1.13041,1.93176 2.34267,2.88979z" data-paper-data="{&quot;index&quot;:null}" fill="#f29e4a" stroke="none" stroke-width="0" stroke-linecap="butt"/><path d="M246.37199,201.1548c-4.10931,0 -7.01383,-1.63266 -9.58494,-3.36211c-1.62004,-1.08973 -3.54779,-1.49218 -4.1765,-3.8324c-1.15668,-4.30548 0.77821,-5.54085 0.77821,-7.26102c0,-2.12977 -0.20213,-6.30837 -0.20213,-6.30837c0,0 1.33761,-1.50546 2.97171,-3.82553c2.92002,-4.14577 6.24595,-5.25345 11.67325,-4.29567c8.25778,1.45728 9.46196,9.54366 9.46196,18.18476c0,2.00806 -0.16339,6.08008 -0.16339,6.08008z" data-paper-data="{&quot;index&quot;:null}" fill="#20ad00" stroke="none" stroke-width="NaN" stroke-linecap="butt"/><g data-paper-data="{&quot;index&quot;:null}" fill="#f29e4a" stroke="none" stroke-width="0" stroke-linecap="butt"><path d="M257.23338,193.6771l-18.18091,-20.21562l1.75355,-0.99661l16.6655,18.27745z"/><path d="M251.80727,200.72582l-18.456,-20.34394l1.18429,-1.58771l18.56183,20.51327z"/></g><g data-paper-data="{&quot;index&quot;:null}" fill="#f29e4a" stroke="none" stroke-width="0" stroke-linecap="butt"><path d="M232.62223,192.38703l17.62036,-19.37225l1.83748,0.81661l-18.1677,19.97403z"/><path d="M239.19047,198.80594l16.96173,-18.87402l0.65885,2.35232l-16.33046,17.9401z"/></g><path d="M254.27497,178.20597c1.01148,2.24055 0.49663,5.0359 0.49663,5.0359c0,0 -0.51515,-2.57212 -1.01675,-3.80333c-0.47348,-1.16216 -1.91333,-3.38871 -1.91333,-3.38871c0,0 1.91139,0.99968 2.43347,2.15614z" data-paper-data="{&quot;index&quot;:null}" fill="#ffffff" stroke="none" stroke-width="0" stroke-linecap="butt"/><path d="M258.88645,197.54414c0,0 -2.27931,-0.34105 -3.97708,0.06478c-1.80237,0.43084 -3.88569,2.47964 -6.33093,2.88078c-3.97324,0.6518 -8.49956,-0.37783 -11.33013,-2.10743c-1.98738,-1.21436 -4.012,-3.08702 -4.61524,-5.17789c-0.81368,-2.82028 0.20993,-6.03757 0.33762,-8.57183c0.12269,-2.43493 -0.21482,-4.39821 -0.21482,-4.39821" data-paper-data="{&quot;index&quot;:null}" fill="none" stroke="#ffffff" stroke-width="3.5" stroke-linecap="round"/></g></g></g></svg>