<svg version="1.1" xmlns="http://www.w3.org/2000/svg" xmlns:xlink="http://www.w3.org/1999/xlink" width="85.49398" height="85.49398" viewBox="0,0,85.49398,85.49398"><defs><linearGradient x1="-3285.69704" y1="-2895.28055" x2="-3285.69704" y2="4105.40967" gradientUnits="userSpaceOnUse" id="color-1"><stop offset="0" stop-color="#ffffff"/><stop offset="1" stop-color="#ffffff" stop-opacity="0"/></linearGradient></defs><g transform="translate(-197.25302,-137.25301)"><g data-paper-data="{&quot;isPaintingLayer&quot;:true}" fill-rule="nonzero" stroke-linejoin="miter" stroke-miterlimit="10" stroke-dasharray="" stroke-dashoffset="0" style="mix-blend-mode: normal"><path d="M208.63952,205.58013c0.00324,-13.1024 0,-44.63208 0,-51.75c0,-3.5626 2.97813,-5.21784 6.54073,-5.21784c12.68063,0 43.89984,0 51,0c2.96729,0 5.18024,2.50056 5.18024,5.46784c0,6.43742 0,39.20833 0,51.75c0,2.95974 -2.72049,5.55758 -5.68024,5.55758c-6.61442,0 -39.17756,0 -52,0c-3.13138,0 -5.04177,-1.58613 -5.04073,-5.80758z" fill="url(#color-1)" stroke="#a97a4a" stroke-width="2" stroke-linecap="butt"/><path d="M197.25302,222.74699v-85.49398h85.49398v85.49398z" fill="none" stroke="none" stroke-width="0" stroke-linecap="butt"/><path d="M259.04724,192.26326c0.28227,0.56455 -1.14726,0.99424 -2.48806,1.66464c-1.3408,0.6704 -2.08513,1.32764 -2.3674,0.76309c-0.28227,-0.56455 0.57583,-1.56567 1.91663,-2.23607c1.3408,-0.6704 2.65656,-0.75621 2.93883,-0.19166z" fill="#6ff1ff" stroke="none" stroke-width="0" stroke-linecap="butt"/><g><g><g stroke="#000000"><path d="M216.11468,188.76412c0,0 -1.37821,-1.30801 -1.8353,-2.57358c-0.52755,-1.46067 -0.14414,-2.928 -0.14414,-3.29156c0,-0.6666 1.98918,-0.56432 2.22271,-1.20725c0.33837,-0.93159 0.79639,-2.5907 1.94258,-3.42872c1.83683,-1.34297 6.74003,-1.54231 6.74003,-1.54231l2.22111,-2.73085c0,0 -0.93866,-2.8748 1.0667,-5.45362c0.47904,-0.61602 1.70183,-1.86824 2.61873,-2.26914c0.97267,-0.42528 2.21981,0.19587 3.01658,-0.30924c1.86672,-1.1834 2.06721,-2.13954 3.49259,-2.13954c2.66908,0 5.04876,0 5.04876,0v30.63995l-1.68525,0.0827c0,0 -3.01217,1.94313 -5.75696,2.13566c-1.20437,0.08448 -4.39401,-1.51283 -4.84929,-1.49183c-1.5627,0.07209 -5.22723,-0.15252 -6.20192,-0.37574c-2.93598,-0.67237 -2.7355,-2.89416 -3.92618,-4.06376c-1.47921,-1.45303 -3.97076,-1.9812 -3.97076,-1.9812z" fill="#ffffff" stroke-width="0" stroke-linecap="butt"/><path d="M242.16193,194.82559c0,0 -0.38167,0.00145 -0.90315,-0.1011c-0.26572,-0.05225 -0.56774,-0.3781 -0.87405,-0.23722c-0.9252,0.42551 -1.90939,2.02436 -4.12906,2.03819c-4.72971,0.02946 -5.31114,-1.50558 -6.35126,-1.42386c-3.09236,0.24301 -2.93892,0.76834 -5.99006,-0.12615c-3.19806,-0.93757 -2.6756,-2.85639 -4.29228,-4.74029c-0.75094,-0.87506 -2.1136,-0.69481 -3.25328,-1.54069c-2.01772,-1.49756 -2.56258,-4.42281 -2.24291,-5.46909c0.31967,-1.04628 1.92848,-0.4979 2.35562,-1.56668c1.51258,-3.78484 4.50504,-5.38137 8.56764,-5.05242c0.54885,0.04444 1.69302,-1.93375 1.90593,-2.59761c0.48365,-1.50804 -0.27292,-3.65665 1.21848,-5.3899c0.76993,-0.89479 1.53493,-2.01516 2.99321,-2.62009c0.39773,-0.16499 2.24017,0.45911 2.58702,0.2712c1.63694,-0.88681 1.59734,-1.62095 3.29787,-2.17178c0.72173,-0.23377 1.28274,-0.78194 2.30294,-0.77794c1.38357,0.00542 2.87527,0.6199 2.87527,0.6199" fill="none" stroke-width="1" stroke-linecap="round"/></g><g fill="#6ff1ff" stroke="none" stroke-width="0" stroke-linecap="butt"><path d=""/><path d="M231.54362,169.47958c1.13454,-0.5495 5.19014,-1.05695 5.40701,-0.65173c0.2565,0.47926 -3.38757,1.66663 -4.20982,2.05413c-0.95091,0.44813 -2.90346,1.9454 -2.84152,1.36111c0.06251,-0.58971 0.50979,-2.21401 1.64433,-2.76352z"/></g><path d="M221.20401,188.42804c0,0 2.52998,3.14452 5.16108,3.63098c1.0449,0.19319 0.54146,-1.58553 2.32125,-2.02016c0.61539,-0.15028 1.53241,0.81305 2.06761,1.0802c0.61558,0.30728 2.08624,1.06063 3.4143,0.7415c2.28452,-0.54898 2.45376,0.63776 4.60499,-0.14061c0.96669,-0.34978 1.5205,-1.31294 2.16336,-1.94155c0.78773,-0.77027 1.85675,-1.03865 1.85675,-1.03865v2.80917c0,0 -0.42774,0.20158 -0.91221,0.49615c-1.23999,0.75396 -3.67329,2.11715 -6.33921,2.26894c-1.02484,0.05836 -1.73395,-0.25963 -2.86178,-0.63389c-1.0799,-0.35834 -2.58063,-0.76828 -3.47905,-0.94882c-1.34611,-0.27051 -2.18288,0.43644 -2.98473,0.28077c-2.53091,-0.49132 -5.01235,-4.58404 -5.01235,-4.58404z" fill="#6ff1ff" stroke="none" stroke-width="0" stroke-linecap="butt"/></g><g><g data-paper-data="{&quot;index&quot;:null}" stroke="#000000"><path d="M254.92889,193.68634c0,0 -1.70155,2.3504 -6.31028,2.59042c-4.60874,0.24002 -7.11562,-2.06702 -7.11562,-2.06702l0.24375,-30.34145c0,0 4.65404,-0.13512 6.32174,1.126c1.84638,1.39623 3.74224,6.88736 3.74224,6.88736c0,0 1.72032,-2.2618 3.0421,-2.27516c4.96369,-0.05017 4.80188,9.0925 4.80188,9.0925c0,0 2.29345,-2.0839 4.04056,-0.4019c2.09069,2.01278 0.74445,6.56557 0.74445,6.56557c0,0 1.10825,1.24676 1.38548,2.75183c0.26324,1.42913 0.32402,2.38229 -0.51688,3.48946c-2.71339,3.57262 -10.37943,2.5824 -10.37943,2.5824z" fill="#ffffff" stroke-width="0" stroke-linecap="butt"/><path d="M241.90005,163.98883c0,0 4.44173,-0.48852 6.32134,1.31131c2.87037,2.74853 2.80737,6.56628 3.22827,6.70014c0.49088,0.15611 1.26989,-1.73755 3.2954,-2.27085c3.74535,-0.98612 4.65889,4.35786 4.83562,8.22682c0.07141,1.56333 1.13619,-1.21716 3.219,-0.34677c1.37907,0.5763 2.23781,2.41244 1.96502,4.23705c-0.20825,1.39286 -0.50101,2.70827 -0.42629,2.82545c1.6768,2.63001 1.9449,3.8089 1.06184,5.94206c-1.68799,4.07759 -10.60742,3.12511 -10.60742,3.12511c0,0 -2.07913,2.27682 -6.56456,2.53011c-4.28838,0.24216 -6.13842,-1.6958 -6.13842,-1.6958" fill="none" stroke-width="1" stroke-linecap="round"/></g><path d="M246.70967,172.41568c-0.18742,0.36706 -2.10238,-1.56304 -2.70014,-1.91405c-0.69131,-0.40593 -2.49997,-1.41169 -2.10911,-1.62347c0.39448,-0.21376 1.88091,0.07187 2.80144,0.74898c0.92053,0.67711 2.16628,2.4782 2.00781,2.78854z" fill="#6ff1ff" stroke="none" stroke-width="0" stroke-linecap="butt"/><path d="M241.45845,192.31821v-2.7818c0,0 3.8286,2.1285 6.29782,1.50757c3.18338,-0.80052 5.54487,-2.23395 5.8246,-1.37321c0.19929,0.61325 -2.34522,3.51529 -5.75415,3.74058c-3.14705,0.20799 -6.36827,-1.09314 -6.36827,-1.09314z" data-paper-data="{&quot;index&quot;:null}" fill="#6ff1ff" stroke="none" stroke-width="0" stroke-linecap="butt"/><path d="M254.85043,187.75978c0.22737,0.35368 -0.09007,0.96296 -0.70902,1.36086c-0.61894,0.3979 -1.30502,0.43373 -1.5324,0.08005c-0.22737,-0.35368 0.2804,-0.39197 0.89935,-0.78987c0.61895,-0.39789 1.1147,-1.00472 1.34207,-0.65104z" fill="#6ff1ff" stroke="none" stroke-width="0" stroke-linecap="butt"/></g></g></g></g></svg>