<svg version="1.1" xmlns="http://www.w3.org/2000/svg" xmlns:xlink="http://www.w3.org/1999/xlink" width="42.28304" height="17.50496" viewBox="0,0,42.28304,17.50496"><g transform="translate(-218.86479,-158.80817)"><g data-paper-data="{&quot;isPaintingLayer&quot;:true}" fill-rule="nonzero" stroke="#000000" stroke-linecap="butt" stroke-linejoin="miter" stroke-miterlimit="10" stroke-dasharray="" stroke-dashoffset="0" style="mix-blend-mode: normal"><path d="M240,159.31061c6.81339,-0.11274 8.24972,3.69353 8.24972,8.24973c0,4.5562 -0.63362,8.37657 -8.24972,8.24972c-7.78023,-0.12958 -8.24973,-3.69353 -8.24973,-8.24972c0,-4.5562 1.27749,-8.13435 8.24973,-8.24973z" fill="none" stroke-width="0"/><path d="M219.16718,159.44622c0,0 0.02502,-0.07395 0.2839,-0.07824c6.67568,-0.11047 7.45503,3.61888 7.45503,8.08299c0,0.09433 -0.00011,0.18834 -0.00039,0.282c-0.01319,4.33858 0.22539,7.92265 -7.07911,7.80099c-0.35788,-0.00596 -0.65144,-0.03988 -0.65144,-0.03988z" fill="#efcfaf" stroke-width="0"/><path d="M260.82829,175.61357c0,0 -0.29356,0.03392 -0.65144,0.03988c-7.46218,0.12428 -7.23649,-3.61888 -7.23649,-8.083c0,-4.46411 0.93633,-8.19346 7.61202,-8.08299c0.25887,0.00429 0.2839,0.07824 0.2839,0.07824z" data-paper-data="{&quot;index&quot;:null}" fill="#efcfaf" stroke-width="0"/><path d="M240,159.31061c5.9875,-0.11274 7.24973,3.69353 7.24973,8.24973c0,4.5562 -0.55682,8.37657 -7.24973,8.24972c-6.83714,-0.12958 -7.24973,-3.69353 -7.24973,-8.24972c0,-4.5562 1.12264,-8.13435 7.24973,-8.24973z" fill="#efcfaf" stroke-width="1"/><path d="M260.64783,175.65345c-7.46218,0.12428 -7.70747,-3.61888 -7.70747,-8.08299c0,-4.46411 1.40731,-8.19347 8.083,-8.083" data-paper-data="{&quot;index&quot;:null}" fill="none" stroke-width="1"/><path d="M218.87306,159.48746c6.67568,-0.11047 8.08299,3.61888 8.08299,8.083c0,4.46411 -0.24529,8.20727 -7.70747,8.08299" data-paper-data="{&quot;index&quot;:null}" fill="none" stroke-width="1"/><path d="M235.75753,164.92341v5.45518h-12.21v-5.45518z" data-paper-data="{&quot;index&quot;:null}" fill="#dc570f" stroke-width="0"/><path d="M256.47182,164.92341v5.45518h-12.21v-5.45518z" data-paper-data="{&quot;index&quot;:null}" fill="#dc570f" stroke-width="0"/></g></g></svg>