<svg version="1.1" xmlns="http://www.w3.org/2000/svg" xmlns:xlink="http://www.w3.org/1999/xlink" width="85.49398" height="85.49398" viewBox="0,0,85.49398,85.49398"><defs><linearGradient x1="-3285.69704" y1="-2895.28054" x2="-3285.69704" y2="4105.40968" gradientUnits="userSpaceOnUse" id="color-1"><stop offset="0" stop-color="#ffffff"/><stop offset="1" stop-color="#ffffff" stop-opacity="0"/></linearGradient></defs><g transform="translate(-197.25302,-137.25303)"><g data-paper-data="{&quot;isPaintingLayer&quot;:true}" fill-rule="nonzero" stroke-linecap="butt" stroke-linejoin="miter" stroke-miterlimit="10" stroke-dasharray="" stroke-dashoffset="0" style="mix-blend-mode: normal"><path d="M197.25302,222.74701v-85.49398h85.49398v85.49398z" fill="none" stroke="none" stroke-width="0"/><path d="M208.63952,205.58014c0.00324,-13.1024 0,-44.63208 0,-51.75c0,-3.5626 2.97813,-5.21784 6.54073,-5.21784c12.68063,0 43.89984,0 51,0c2.96729,0 5.18024,2.50056 5.18024,5.46784c0,6.43742 0,39.20833 0,51.75c0,2.95974 -2.72049,5.55758 -5.68024,5.55758c-6.61442,0 -39.17756,0 -52,0c-3.13138,0 -5.04177,-1.58613 -5.04073,-5.80758z" fill="url(#color-1)" stroke="#a97a4a" stroke-width="2"/><g stroke="none"><g><g data-paper-data="{&quot;index&quot;:null}"><path d="M226.38796,188.59387c-3.04201,-0.04327 -4.63545,-1.39981 -4.63545,-1.39981c0,0 -1.66288,1.35252 -4.34991,1.43215c-2.949,0.08739 -4.5156,-2.29196 -4.5156,-2.29196c0,0 -0.14708,-6.86997 -0.20708,-9.67214c-0.06558,-3.06316 1.55695,-5.71345 4.62081,-5.71345c3.38515,0 13.71089,0 13.71089,0v16.04439c0,0 -2.70413,1.62814 -4.62365,1.60083z" fill="#a5e62a" stroke-width="0"/><g fill="none" stroke-width="1" font-family="sans-serif" font-weight="normal" font-size="12" text-anchor="start"/></g><path d="M213.27603,175.8626l-0.69997,-0.01642c0,0 0.54874,-4.97191 4.82848,-4.97191c3.31829,0 13.66452,0 13.66452,0v0.67007c0,0 -9.79837,0.06125 -13.16733,0c-4.52969,-0.08235 -4.62569,4.31827 -4.62569,4.31827z" data-paper-data="{&quot;index&quot;:null}" fill="#000000" stroke-width="0"/><g data-paper-data="{&quot;index&quot;:null}" fill="#000000" stroke-width="0"><path d="M221.76896,186.71349c0,0 1.11776,1.8195 4.53675,1.74218c3.17484,-0.0718 4.6933,-1.74218 4.6933,-1.74218v0.80408c0,0 -1.42076,1.60817 -4.54889,1.60817c-3.60948,0 -4.68116,-1.60817 -4.68116,-1.60817z"/><path d="M221.80026,187.51757c0,0 -1.37942,1.60816 -4.88116,1.60816c-1.3376,0 -3.608,-1.25841 -3.9622,-2.31917c-0.86906,-2.60267 -0.33724,-11.12793 -0.33724,-11.12793l0.65824,0.01771c0,0 -0.38902,9.4184 0.26462,10.85812c0.41582,0.91589 2.51746,1.87791 3.51668,1.9012c3.31692,0.07732 4.74106,-1.74218 4.74106,-1.74218z" data-paper-data="{&quot;index&quot;:null}"/></g></g><g><g data-paper-data="{&quot;index&quot;:null}"><path d="M244.68392,188.59387c-3.04201,-0.04327 -4.63545,-1.39981 -4.63545,-1.39981c0,0 -1.66288,1.35252 -4.34991,1.43215c-2.949,0.08739 -4.845,-1.63317 -4.845,-1.63317v-16.04439h18.45402v16.04439c0,0 -2.70413,1.62814 -4.62365,1.60083z" fill="#a5e62a" stroke-width="0"/><g fill="none" stroke-width="1" font-family="sans-serif" font-weight="normal" font-size="12" text-anchor="start"/></g><path d="M230.87202,171.54433v-0.67007h18.493v0.67007z" data-paper-data="{&quot;index&quot;:null}" fill="#000000" stroke-width="0"/><g data-paper-data="{&quot;index&quot;:null}" fill="#000000" stroke-width="0"><path d="M240.06492,186.71349c0,0 1.11776,1.8195 4.53675,1.74218c3.17484,-0.0718 4.6933,-1.74218 4.6933,-1.74218v0.80408c0,0 -1.42076,1.60817 -4.54889,1.60817c-3.60948,0 -4.68116,-1.60817 -4.68116,-1.60817z"/><path d="M240.09623,187.51757c0,0 -1.37942,1.60816 -4.88116,1.60816c-3.03475,0 -4.4131,-1.60816 -4.4131,-1.60816v-0.80408c0,0 1.47313,1.67039 4.5532,1.74218c3.31692,0.07732 4.74106,-1.74218 4.74106,-1.74218z" data-paper-data="{&quot;index&quot;:null}"/></g></g><g><g data-paper-data="{&quot;index&quot;:null}"><path d="M253.61204,188.59387c-1.91952,0.0273 -4.62365,-1.60083 -4.62365,-1.60083v-16.04439c0,0 10.32573,0 13.71089,0c3.06387,0 4.6864,2.65028 4.62081,5.71345c-0.05999,2.80217 -0.20708,9.67214 -0.20708,9.67214c0,0 -1.56661,2.37935 -4.5156,2.29196c-2.68703,-0.07963 -4.34991,-1.43215 -4.34991,-1.43215c0,0 -1.59344,1.35654 -4.63545,1.39981z" fill="#a5e62a" stroke-width="0"/><g fill="none" stroke-width="1" font-family="sans-serif" font-weight="normal" font-size="12" text-anchor="start"/></g><path d="M266.72397,175.8626c0,0 -0.096,-4.40062 -4.62569,-4.31827c-3.36896,0.06125 -13.16733,0 -13.16733,0v-0.67007c0,0 10.34624,0 13.66452,0c4.27973,0 4.82848,4.97191 4.82848,4.97191l-0.69997,0.01642z" data-paper-data="{&quot;index&quot;:null}" fill="#000000" stroke-width="0"/><g data-paper-data="{&quot;index&quot;:null}" fill="#000000" stroke-width="0"><path d="M258.23104,187.51757c0,0 -1.07167,1.60817 -4.68116,1.60817c-3.12813,0 -4.54889,-1.60817 -4.54889,-1.60817v-0.80408c0,0 1.51846,1.67039 4.6933,1.74218c3.41899,0.07732 4.53675,-1.74218 4.53675,-1.74218z"/><path d="M258.19973,186.71349c0,0 1.42414,1.8195 4.74106,1.74218c0.99922,-0.02329 3.10086,-0.98531 3.51668,-1.9012c0.65364,-1.43972 0.26462,-10.85812 0.26462,-10.85812l0.65824,-0.01771c0,0 0.53182,8.52526 -0.33724,11.12793c-0.3542,1.06076 -2.6246,2.31917 -3.9622,2.31917c-3.50173,0 -4.88116,-1.60816 -4.88116,-1.60816z" data-paper-data="{&quot;index&quot;:null}"/></g></g></g></g></g></svg>