<svg version="1.1" xmlns="http://www.w3.org/2000/svg" xmlns:xlink="http://www.w3.org/1999/xlink" width="41.91938" height="42.0882" viewBox="0,0,41.91938,42.0882"><defs><linearGradient x1="220.25" y1="179.75098" x2="259.75" y2="179.75098" gradientUnits="userSpaceOnUse" id="color-1"><stop offset="0" stop-color="#ffffff"/><stop offset="1" stop-color="#eaeaea"/></linearGradient></defs><g transform="translate(-219.02956,-158.1618)"><g data-paper-data="{&quot;isPaintingLayer&quot;:true}" fill-rule="nonzero" stroke-linejoin="miter" stroke-miterlimit="10" stroke-dasharray="" stroke-dashoffset="0" style="mix-blend-mode: normal"><g data-paper-data="{&quot;index&quot;:null}"><path d="M220.33802,200.0399c0,0 -0.08802,-19.1943 -0.08802,-21.11133c0,-10.76955 8.84238,-19.5 19.75,-19.5c6.31712,0 12.74153,2.12829 16.35676,6.68507c2.6271,3.3113 3.39324,8.28254 3.39324,12.81493c0,0.72554 -0.11621,5.76824 -0.23359,10.67661c-0.11977,5.00812 -0.24075,10.46821 -0.24075,10.46821z" fill="url(#color-1)" stroke="none" stroke-width="0" stroke-linecap="butt"/><path d="M220.5,199.5c0,0 -0.81463,-4.88022 -0.71139,-10.69843c0.07325,-4.1281 1.00583,-8.7284 1.24506,-12.3928c0.20143,-2.45658 0.18941,-6.33776 2.61428,-9.7624c1.55787,-2.20018 2.85077,-2.61192 6.26178,-3.9364c1.71771,-0.66698 3.40055,-3.0694 5.93731,-3.79817c1.27208,-0.36545 3.35773,0.5882 4.56725,0.5882c1.94349,0 3.6896,1.01711 5.25773,1.41135c4.77523,1.20051 9.49994,2.65212 11.52169,5.81254c2.11206,3.3016 1.42042,8.35848 1.74933,11.69636c0.33713,3.42121 1.25009,7.88381 1.25591,11.18028c0.01049,5.94514 -1.12751,9.89947 -1.12751,9.89947" fill="none" stroke="#909090" stroke-width="1.5" stroke-linecap="round"/></g></g></g></svg>