<svg version="1.1" xmlns="http://www.w3.org/2000/svg" xmlns:xlink="http://www.w3.org/1999/xlink" width="85.49398" height="85.49398" viewBox="0,0,85.49398,85.49398"><defs><linearGradient x1="-3285.69704" y1="-2895.28055" x2="-3285.69704" y2="4105.40967" gradientUnits="userSpaceOnUse" id="color-1"><stop offset="0" stop-color="#ffffff"/><stop offset="1" stop-color="#ffffff" stop-opacity="0"/></linearGradient></defs><g transform="translate(-197.25302,-137.25301)"><g data-paper-data="{&quot;isPaintingLayer&quot;:true}" fill-rule="nonzero" stroke-linejoin="miter" stroke-miterlimit="10" stroke-dasharray="" stroke-dashoffset="0" style="mix-blend-mode: normal"><path d="M208.63952,205.58013c0.00324,-13.1024 0,-44.63208 0,-51.75c0,-3.5626 2.97813,-5.21784 6.54073,-5.21784c12.68063,0 43.89984,0 51,0c2.96729,0 5.18024,2.50056 5.18024,5.46784c0,6.43742 0,39.20833 0,51.75c0,2.95974 -2.72049,5.55758 -5.68024,5.55758c-6.61442,0 -39.17756,0 -52,0c-3.13138,0 -5.04177,-1.58613 -5.04073,-5.80758z" data-paper-data="{&quot;index&quot;:null}" fill="url(#color-1)" stroke="#a97a4a" stroke-width="2.5" stroke-linecap="butt"/><path d="M197.25302,222.74699v-85.49398h85.49398v85.49398z" data-paper-data="{&quot;index&quot;:null}" fill="none" stroke="none" stroke-width="0" stroke-linecap="butt"/><path d="M248.72284,195.16991c-0.35952,0.30807 -9.34912,0.17681 -9.57018,-0.01316c-4.16128,-3.57599 -13.85304,-14.42816 -16.6246,-17.19196c-2.15091,-2.1449 -1.85592,-2.81207 -0.62165,-4.3559c1.75577,-2.19612 6.45876,-6.47092 7.66431,-7.67985c2.02231,-2.02799 3.537,-2.34463 5.56499,-0.32232c2.73124,2.7236 14.45321,13.81248 19.71074,19.05531c2.17139,2.16532 0.68182,3.38237 -0.90448,4.97312z" data-paper-data="{&quot;index&quot;:null}" fill="#ffffff" stroke="#a97a4a" stroke-width="2" stroke-linecap="butt"/><path d="M221.97804,173.54388l8.49917,-8.80272c0,0 1.63622,-0.79488 2.43761,-0.73818c0.77971,0.05516 2.30749,1.07386 2.30749,1.07386l12.25325,13.32371l-12.44522,12.44522l-12.57516,-13.35865c0,0 -1.32909,-0.94976 -1.39733,-1.51374c-0.08646,-0.71449 0.92019,-2.42949 0.92019,-2.42949z" data-paper-data="{&quot;index&quot;:null}" fill="#a97a4a" stroke="none" stroke-width="0" stroke-linecap="butt"/><path d="M248.68973,195.3989h-25.19398" data-paper-data="{&quot;index&quot;:null}" fill="none" stroke="#a97a4a" stroke-width="2" stroke-linecap="round"/><path d="M255.06411,194.48827l4.85667,-1.82125" data-paper-data="{&quot;index&quot;:null}" fill="none" stroke="#a97a4a" stroke-width="1" stroke-linecap="round"/><path d="M254.45702,197.52369l3.94604,0.91063" data-paper-data="{&quot;index&quot;:null}" fill="none" stroke="#a97a4a" stroke-width="1" stroke-linecap="round"/></g></g></svg>