<svg version="1.1" xmlns="http://www.w3.org/2000/svg" xmlns:xlink="http://www.w3.org/1999/xlink" width="112.66618" height="112.66618" viewBox="0,0,112.66618,112.66618"><g transform="translate(-183.66691,-123.66691)"><g data-paper-data="{&quot;isPaintingLayer&quot;:true}" fill-rule="nonzero" stroke="none" stroke-width="0" stroke-linecap="butt" stroke-linejoin="miter" stroke-miterlimit="10" stroke-dasharray="" stroke-dashoffset="0" style="mix-blend-mode: normal"><path d="M183.66691,236.33309v-112.66618h112.66618v112.66618z" data-paper-data="{&quot;index&quot;:null}" fill="none"/><g data-paper-data="{&quot;index&quot;:null}"><path d="M249.88303,165.58062c4.63623,2.63808 6.2311,12.02275 6.2311,14.94556c0,8.89959 -7.21454,16.11413 -16.11413,16.11413c-8.89959,0 -16.11413,-7.21454 -16.11413,-16.11413c0,-2.95268 1.30002,-12.22946 6.41914,-15.01788c1.1267,-0.61373 -0.25698,5.30959 2.60447,3.90521c2.13964,-1.05013 4.54623,-6.05382 7.09052,-6.05382c2.49787,0 4.86299,4.98236 6.97312,5.99679c2.93886,1.41283 2.14415,-4.2116 2.90991,-3.77587z" data-paper-data="{&quot;index&quot;:null}" fill="#f32f00"/><path d="M246.65591,173.79323c3.12236,1.77667 4.19645,4.76451 4.19645,6.73294c0,5.99359 -4.85877,10.85237 -10.85237,10.85237c-5.99359,0 -10.85237,-4.85877 -10.85237,-10.85237c0,-1.98854 0.87553,-4.90371 4.32309,-6.78163c0.75879,-0.41332 -0.17307,3.57586 1.75403,2.63005c1.44099,-0.70723 3.06174,-6.70079 4.77525,-6.70079c1.68225,0 3.27509,5.9792 4.69619,6.66238c1.97924,0.95149 1.44402,-2.83639 1.95974,-2.54294z" data-paper-data="{&quot;index&quot;:null}" fill="#f29e4a"/><path d="M240,176.05368c3.24502,0 5.87563,3.68295 5.87563,6.92798c0,3.24502 -2.6306,5.87563 -5.87563,5.87563c-3.24502,0 -5.87563,-2.6306 -5.87563,-5.87563c0,-3.24502 2.6306,-6.92798 5.87563,-6.92798z" fill="#ffffff"/></g></g></g></svg>