<svg version="1.1" xmlns="http://www.w3.org/2000/svg" xmlns:xlink="http://www.w3.org/1999/xlink" width="40.7701" height="40.4" viewBox="0,0,40.7701,40.4"><g transform="translate(-219.76515,-159.8)"><g data-paper-data="{&quot;isPaintingLayer&quot;:true}" fill-rule="nonzero" stroke="none" stroke-width="0" stroke-linecap="butt" stroke-linejoin="miter" stroke-miterlimit="10" stroke-dasharray="" stroke-dashoffset="0" style="mix-blend-mode: normal"><g fill="#dc570f"><path d="M219.76805,173.8628v-5.72561h40.63303v5.72561z"/><path d="M219.76805,191.8628v-5.72561h40.63303v5.72561z"/></g><g fill="#752e08"><path d="M248.76515,173.83333v-1.66667h11.7701v1.66667z"/><path d="M219.76515,173.83334v-1.66667h11.43182v1.66667z"/></g><g fill="#752e08"><path d="M248.76515,192.19697v-1.66667h11.7701v1.66667z"/><path d="M219.76516,192.19697v-1.66667h11.43182v1.66667z"/></g><g fill="#752e08"><path d="M248.76515,192.19697v-1.66667h11.7701v1.66667z"/><path d="M219.76516,192.19697v-1.66667h11.43182v1.66667z"/></g><g fill="#752e08"><g><path d="M248.51515,173.83333v-1.66667h11.7701v1.66667z"/><path d="M219.81515,173.83334v-1.66667h11.13182v1.66667z"/></g><g><path d="M248.51515,192.19697v-1.66667h11.7701v1.66667z"/><path d="M219.81516,192.19697v-1.66667h11.13182v1.66667z"/></g></g><path d="M219.81515,169.73334v-1.66667h11.53182v1.66667z" fill="#efcfaf"/><path d="M219.81516,187.79697v-1.66667h11.53182v1.66667z" fill="#efcfaf"/><g fill="#efcfaf"><path d="M248.51515,169.73333v-1.66667h8.03182v1.66667z"/><path d="M248.51515,187.79697v-1.66667h8.03182v1.66667z"/></g><g><path d="M231.13719,200.06281v-40.12561h17.72562v40.12561z" fill="#dc570f"/><path d="M231.1,200.2v-40.4h12c0,0 0.88543,7.83974 -0.8,7.6c-2.12272,-0.30194 -2.0697,-3.0538 -2.15092,3.19804c-0.02959,2.27773 0.00905,16.22769 0.55268,18.29638c0.34433,1.31028 0.89125,-8.61322 1.75176,-8.66688c1.1504,-0.07174 0.64648,19.97246 0.64648,19.97246z" fill="#efcfaf"/><path d="M239.3,187c0.33137,0 0.6,2.68629 0.6,6c0,3.31371 -0.26863,6 -0.6,6c-0.33137,0 -0.6,-2.68629 -0.6,-6c0,-3.31371 0.26863,-6 0.6,-6z" fill="#dc570f"/><path d="M234.7,179.6c0,10.2725 -0.44772,18.6 -1,18.6c-0.55228,0 -1,-8.3275 -1,-18.6c0,-10.2725 0.44772,-18.6 1,-18.6c0.55228,0 1,8.3275 1,18.6z" fill="#dc570f"/><path d="M246.3,199.8v-40h2.58182v40z" fill="#752e08"/></g></g></g></svg>