<svg version="1.1" xmlns="http://www.w3.org/2000/svg" xmlns:xlink="http://www.w3.org/1999/xlink" width="41.08968" height="40.29707" viewBox="0,0,41.08968,40.29707"><g transform="translate(-219.09486,-159.46611)"><g data-paper-data="{&quot;isPaintingLayer&quot;:true}" fill-rule="nonzero" stroke="none" stroke-linecap="butt" stroke-linejoin="miter" stroke-miterlimit="10" stroke-dasharray="" stroke-dashoffset="0" style="mix-blend-mode: normal"><g><g data-paper-data="{&quot;index&quot;:null}"><path d="M249.84923,198.58889c-6.7164,-0.09554 -10.23452,-3.09062 -10.23452,-3.09062c0,0 -3.67144,2.9862 -9.60408,3.16201c-6.51103,0.19295 -9.96991,-5.06038 -9.96991,-5.06038c0,0 -0.32474,-15.16807 -0.4572,-21.35493c-0.1448,-6.7631 3.43755,-12.61461 10.2022,-12.61461c3.94306,0 12.15125,0 19.02678,0c7.1536,0 11.24521,5.44493 11.24521,12.59854c0,6.48633 -1.25,21.57554 -1.25,21.57554c0,0 -4.7204,4.84473 -8.95847,4.78445z" fill="#ffffff" stroke-width="0"/><g fill="none" stroke-width="1" font-family="sans-serif" font-weight="normal" font-size="12" text-anchor="start"/></g><path d="M220.89966,170.47976l-1.54546,-0.03626c0,0 1.21156,-10.97739 10.6607,-10.97739c7.32638,0 15.66963,0 15.66963,0v1.47943c0,0 -7.13362,0.13523 -14.57189,0c-10.00101,-0.18182 -10.21297,9.53422 -10.21297,9.53422z" data-paper-data="{&quot;index&quot;:null}" fill="#a5a5a5" stroke-width="0"/><g data-paper-data="{&quot;index&quot;:null}" fill="#a5a5a5" stroke-width="0"><path d="M239.72015,196.21255c0,0 -3.0456,3.55063 -10.77701,3.55063c-2.95326,0 -7.96603,-2.77842 -8.74806,-5.12044c-1.91879,-5.74638 -0.74459,-24.56914 -0.74459,-24.56914l1.45332,0.03911c0,0 -0.85891,20.79469 0.58425,23.97342c0.91808,2.02218 5.55825,4.1462 7.76441,4.19762c7.32337,0.17071 10.46769,-3.84652 10.46769,-3.84652z" data-paper-data="{&quot;index&quot;:null}"/></g></g><path d="M239.55923,194.43723c0,0 3.14432,4.01723 10.46769,3.84652c2.20616,-0.05142 6.84633,-2.17544 7.76441,-4.19762c1.44316,-3.17873 0.58425,-23.97342 0.58425,-23.97342l1.45332,-0.03911c0,0 1.1742,18.82276 -0.74459,24.56914c-0.78203,2.34202 -5.7948,5.12044 -8.74806,5.12044c-7.73141,0 -10.77701,-3.55063 -10.77701,-3.55063z" data-paper-data="{&quot;index&quot;:null}" fill="#a5a5a5" stroke-width="0"/><path d="M258.37972,170.47976c0,0 -0.21196,-9.71604 -10.21297,-9.53422c-7.43827,0.13523 -10.07189,0 -10.07189,0v-1.47943c0,0 3.84325,0 11.16963,0c9.44914,0 10.6607,10.97739 10.6607,10.97739l-1.54546,0.03626z" data-paper-data="{&quot;index&quot;:null}" fill="#a5a5a5" stroke-width="0"/></g></g></svg>