<svg version="1.1" xmlns="http://www.w3.org/2000/svg" xmlns:xlink="http://www.w3.org/1999/xlink" width="112.66618" height="112.66618" viewBox="0,0,112.66618,112.66618"><g transform="translate(-183.66691,-123.66691)"><g data-paper-data="{&quot;isPaintingLayer&quot;:true}" fill-rule="nonzero" stroke-linejoin="miter" stroke-miterlimit="10" stroke-dasharray="" stroke-dashoffset="0" style="mix-blend-mode: normal"><path d="M183.66691,236.33309v-112.66618h112.66618v112.66618z" data-paper-data="{&quot;index&quot;:null}" fill="none" stroke="none" stroke-width="0" stroke-linecap="butt"/><path d="M223.54042,200.37475c0,0 -3.85059,-30.93789 16.88563,-31.14545c20.73755,-0.20758 15.82003,31.35303 15.82003,31.35303c0,0 -9.85887,-2.27886 -16.34987,-2.31061z" fill="#000000" stroke="none" stroke-width="0" stroke-linecap="butt"/><path d="M222.70833,199.72075c0,0 2.06091,2.68186 5.98634,1.35109c3.38138,-1.14633 6.57028,-3.13398 10.99397,-3.49958c4.16601,-0.3443 8.47782,2.27997 12.05024,3.52375c3.58207,1.24713 5.38612,-1.2086 5.38612,-1.2086" data-paper-data="{&quot;index&quot;:null}" fill="none" stroke="#dc570f" stroke-width="3.5" stroke-linecap="round"/><g stroke="none" stroke-width="0" stroke-linecap="butt"><path d="M240.65923,171.2573c2.56105,0.088 4.4958,2.16128 4.54838,2.74401c0.03901,0.43243 -1.91807,0.64749 -4.47912,0.55949c-2.56105,-0.08801 -4.99568,-0.43709 -4.79527,-0.87817c0.14646,-0.32235 2.16495,-2.51333 4.72601,-2.42533z" fill="#dc570f"/><path d="M240.60465,171.87914c1.03114,0.07497 2.26508,1.06431 1.73722,1.38842c-0.32373,0.19878 -3.79079,0.44814 -4.31484,0.14273c-0.33393,-0.19461 1.54647,-1.60612 2.57761,-1.53115z" fill="#efcfaf"/></g></g></g></svg>