<svg version="1.1" xmlns="http://www.w3.org/2000/svg" xmlns:xlink="http://www.w3.org/1999/xlink" width="109.33333" height="109.33336" viewBox="0,0,109.33333,109.33336"><g transform="translate(-185.33335,-125.33333)"><g data-paper-data="{&quot;isPaintingLayer&quot;:true}" fill-rule="nonzero" stroke="none" stroke-linecap="butt" stroke-linejoin="miter" stroke-miterlimit="10" stroke-dasharray="" stroke-dashoffset="0" style="mix-blend-mode: normal"><path d="M185.33335,234.66667v-109.33333h109.33333v109.33333z" fill="none" stroke-width="0"/><path d="M185.33335,234.66669v-109.33333h109.33333v109.33333z" fill="none" stroke-width="0"/><path d="M185.33335,234.66666v-109.33333h109.33333v109.33333z" fill="none" stroke-width="0"/><g><path d="M251.3096,177.14326c0,4.9524 -5.3929,8.96713 -12.04539,8.96713c-6.65249,0 -12.04539,-4.01472 -12.04539,-8.96713c0,-4.9524 -1.29898,-11.64388 1.33838,-11.3762c4.23825,0.43015 20.75353,1.22803 22.77117,0.64276c1.82231,-0.5286 -0.01876,8.95239 -0.01876,10.73343z" fill="#f32f00" stroke-width="0"/><path d="M261.34398,148.51227c3.6736,3.82522 5.87026,7.08613 4.27345,9.38304c-1.52376,2.19185 -5.56924,3.82124 -7.23445,4.14486c-3.41028,0.66274 -5.99777,-2.09816 -6.68871,-5.65355c-0.69095,-3.55539 -1.54418,-5.3671 0.1941,-6.71846c1.00342,-0.78009 2.82882,2.05746 3.47733,2.35625c0.5408,0.24916 4.86974,-4.66644 5.97829,-3.51214z" data-paper-data="{&quot;index&quot;:null}" fill="#f29e4a" stroke-width="0"/><path d="M223.63433,148.52635c0.64851,-0.29877 2.47391,-3.13632 3.47733,-2.35623c1.73828,1.35137 0.88506,3.16307 0.1941,6.71846c-0.69096,3.55539 -3.27845,6.31628 -6.68871,5.65354c-1.66522,-0.32361 -5.7107,-1.95302 -7.23445,-4.14486c-1.59681,-2.29691 0.59985,-5.55781 4.27345,-9.38303c1.10855,-1.15431 5.43749,3.76128 5.97828,3.51214z" data-paper-data="{&quot;index&quot;:null}" fill="#f29e4a" stroke-width="0"/><path d="M226.79631,152.595l0.00615,-0.0052c2.15786,-0.8466 4.16149,-0.79415 6.42494,-1.21746c4.50711,-0.82681 9.51814,0.09468 14.06273,0.15906c3.3964,0.22176 11.72423,2.94568 9.24901,7.53789c-0.80581,0.80341 -1.4038,2.021 -2.03141,2.78897c-0.11695,0.1431 2.32759,0.97826 2.37612,1.05529c1.25147,1.98648 -1.16045,4.41563 -2.01378,5.85605c-3.44257,3.46822 -8.10623,3.49023 -12.85728,3.49023c-4.27676,0 -9.5668,0.54033 -13.41558,-1.38028c-2.9345,-1.63211 -5.45862,-3.79984 -6.3189,-7.02323c-0.28109,-1.0532 1.37627,-2.43464 0.61243,-3.21231c-4.70105,-2.47407 0.98724,-7.05817 3.88881,-8.04435c0,0 0.00605,-0.00202 0.01677,-0.00467z" data-paper-data="{&quot;index&quot;:null}" fill="#f32f00" stroke-width="0.5"/><path d="M252.23854,161.03492c0,7.04847 -1.98558,13.29772 -12.76237,13.29772c-9.91642,0 -12.76237,-6.24926 -12.76237,-13.29772c0,-7.04847 -0.02456,-12.63361 12.76237,-12.76237c12.78259,-0.12872 12.76237,5.7139 12.76237,12.76237z" data-paper-data="{&quot;index&quot;:null}" fill="#f29e4a" stroke-width="0"/><path d="M253.38572,161.89532c0,0.94115 -2.97559,3.22098 -2.97559,3.22098c0,0 4.1573,1.14727 2.38917,2.10536c-1.01769,0.55145 -4.19804,2.40289 -6.61578,3.00407c-2.85784,0.71062 -4.99193,0.13004 -6.13376,0.13004c-2.12382,0 -6.46785,0.47156 -8.64338,-0.51565c-0.8071,-0.36624 -5.17526,-1.77101 -5.64786,-2.61907c-0.66823,-1.19906 2.72614,-1.85823 2.72614,-1.85823c0,0 -3.20483,-2.61214 -3.20483,-3.4675c0,-2.29669 9.03404,1.57737 9.03404,1.57737c0,0 1.85017,3.35696 5.29207,3.34035c3.84078,-0.01853 5.39091,-3.55631 5.39091,-3.55631c0,0 8.3889,-2.50978 8.3889,-1.36142z" data-paper-data="{&quot;index&quot;:null}" fill="#f32f00" stroke-width="0"/><path d="M234.02706,155.72922c1.02955,0 1.86417,1.34823 1.86417,3.01135c0,1.66312 -0.83462,3.01134 -1.86417,3.01134c-1.02955,0 -1.86417,-1.34821 -1.86417,-3.01134c0,-1.66312 0.83462,-3.01135 1.86417,-3.01135z" data-paper-data="{&quot;index&quot;:null}" fill="#f32f00" stroke-width="0"/><path d="M245.21206,155.44245c1.02955,0 1.86417,1.41243 1.86417,3.15474c0,1.74231 -0.83462,3.15474 -1.86417,3.15474c-1.02955,0 -1.86416,-1.41243 -1.86416,-3.15474c0,-1.74231 0.83462,-3.15474 1.86416,-3.15474z" data-paper-data="{&quot;index&quot;:null}" fill="#f32f00" stroke-width="0"/><path d="M251.95175,153.29146c0,0.82429 -5.4571,0.43019 -12.1888,0.43019c-6.73168,0 -13.33596,0.3941 -13.33596,-0.71698c0,-3.40545 6.31749,-9.60763 13.04917,-9.60763c6.73168,0 12.47558,6.48898 12.47558,9.89443z" data-paper-data="{&quot;index&quot;:null}" fill="#ffe2e2" stroke-width="0"/><path d="M227.05636,178.02469c0.78849,-2.09106 1.11522,-3.58674 1.12098,-5.51547c0.00424,-1.4184 0.98774,-2.40955 0.98774,-2.40955l2.71578,1.31717c0,0 2.0072,8.73708 7.78215,8.73708c3.61738,0 7.64288,-8.45024 7.64288,-8.45024l3.08556,-2.48775c0,0 0.28468,4.54002 1.12329,7.44281c1.08524,3.75643 3.55313,6.21504 3.40024,9.83987c-0.2722,6.45358 -6.45434,9.70813 -15.71065,9.40237c-8.33447,-0.27532 -14.77923,-2.71327 -14.79334,-9.55524c-0.00862,-4.18097 1.50457,-5.29569 2.64536,-8.32104z" data-paper-data="{&quot;index&quot;:null}" fill="#ffe2e2" stroke-width="0"/><path d="M261.13822,186.51206c2.57143,3.50663 1.03532,9.00441 -3.43103,12.2796c-4.46635,3.27519 -10.17159,3.08758 -12.74303,-0.41905c-2.57143,-3.50663 1.35727,-5.32603 4.87018,-9.60791c4.91767,-5.99415 8.73244,-5.75929 11.30388,-2.25265z" fill="#f32f00" stroke-width="0"/><path d="M230.69929,187.44821c2.49386,4.94528 5.93086,7.57814 2.65616,10.43913c-3.2747,2.86098 -8.88338,1.79905 -12.52739,-2.37186c-3.64398,-4.17091 -3.94336,-9.87139 -0.66867,-12.73239c3.2747,-2.86098 7.0488,-2.25773 10.5399,4.6651z" data-paper-data="{&quot;index&quot;:null}" fill="#f32f00" stroke-width="0"/><g fill="#f29e4a" stroke-width="0"><path d="M232.16925,183.22686c0,-1.18454 0.96026,-2.1448 2.1448,-2.1448c1.18454,0 2.1448,0.96026 2.1448,2.1448c0,1.18454 -0.96026,2.1448 -2.1448,2.1448c-1.18454,0 -2.1448,-0.96026 -2.1448,-2.1448z" data-paper-data="{&quot;index&quot;:null}"/><path d="M241.32044,183.22686c0,-1.18454 0.96026,-2.1448 2.14481,-2.1448c1.18454,0 2.1448,0.96026 2.1448,2.1448c0,1.18454 -0.96026,2.1448 -2.1448,2.1448c-1.18454,0 -2.14481,-0.96026 -2.14481,-2.1448z" data-paper-data="{&quot;index&quot;:null}"/></g></g></g></g></svg>