<svg version="1.1" xmlns="http://www.w3.org/2000/svg" xmlns:xlink="http://www.w3.org/1999/xlink" width="85.49398" height="85.49398" viewBox="0,0,85.49398,85.49398"><defs><linearGradient x1="-3285.69704" y1="-2895.28054" x2="-3285.69704" y2="4105.40968" gradientUnits="userSpaceOnUse" id="color-1"><stop offset="0" stop-color="#ffffff"/><stop offset="1" stop-color="#ffffff" stop-opacity="0"/></linearGradient><linearGradient x1="240.03991" y1="183.23455" x2="240.03991" y2="203.195" gradientUnits="userSpaceOnUse" id="color-2"><stop offset="0" stop-color="#da842e"/><stop offset="1" stop-color="#f29e4a"/></linearGradient></defs><g transform="translate(-197.25302,-137.25303)"><g data-paper-data="{&quot;isPaintingLayer&quot;:true}" fill-rule="nonzero" stroke-linecap="butt" stroke-linejoin="miter" stroke-miterlimit="10" stroke-dasharray="" stroke-dashoffset="0" style="mix-blend-mode: normal"><path d="M197.25302,222.74701v-85.49398h85.49398v85.49398z" fill="none" stroke="none" stroke-width="0"/><path d="M208.63952,205.58014c0.00324,-13.1024 0,-44.63208 0,-51.75c0,-3.5626 2.97813,-5.21784 6.54073,-5.21784c12.68063,0 43.89984,0 51,0c2.96729,0 5.18024,2.50056 5.18024,5.46784c0,6.43742 0,39.20833 0,51.75c0,2.95974 -2.72049,5.55758 -5.68024,5.55758c-6.61442,0 -39.17756,0 -52,0c-3.13138,0 -5.04177,-1.58613 -5.04073,-5.80758z" fill="url(#color-1)" stroke="#a97a4a" stroke-width="2"/><path d="M207.25301,212.74699v-65.49398h65.49398v65.49398z" fill="none" stroke="none" stroke-width="0"/><g><path d="M238.01026,183.23455h4.0799c0,0 -0.23385,5.88148 0.34863,11.6485c0.48098,4.7621 1.21124,8.31195 -2.21053,8.31195c-4.17924,0 -2.86449,-3.68698 -2.59203,-8.23363c0.35724,-5.96112 0.37403,-11.72682 0.37403,-11.72682z" data-paper-data="{&quot;index&quot;:null}" fill="url(#color-2)" stroke="none" stroke-width="0"/><g data-paper-data="{&quot;index&quot;:null}"><g data-paper-data="{&quot;index&quot;:null}"><path d="M253.75355,191.85033c0,0 -3.24821,4.94027 -5.83323,9.23358c-1.65205,2.7438 -4.82949,2.4734 -6.29752,1.74623c-0.47926,-0.2374 0.34083,-0.20429 -0.01506,-0.55109c-1.44603,-1.40908 -1.10323,-3.6089 2.10282,-6.36913c4.97164,-4.28032 10.043,-4.05959 10.043,-4.05959z" fill="#f29e4a" stroke="none" stroke-width="0"/><path d="M249.42144,194.45722c1.62354,-1.56647 3.33709,-2.28786 3.44035,-2.17524c0.10574,0.11533 -1.51297,0.87719 -3.25846,2.61568c-0.96437,0.96051 -2.73321,1.22968 -3.77664,2.18641c-2.85975,2.62211 -4.06494,5.0164 -4.23143,4.83483c-0.16649,-0.18157 1.02784,-2.58771 3.88759,-5.20982c1.08609,-0.99584 2.92483,-1.27371 3.93859,-2.25183z" fill="#20ad00" stroke="#20ad00" stroke-width="0.5"/></g><g data-paper-data="{&quot;index&quot;:null}"><path d="M236.26497,195.92083c3.20604,2.76024 3.54884,4.96006 2.10281,6.36914c-0.35589,0.34679 0.46421,0.3137 -0.01506,0.55109c-1.46803,0.72718 -4.64547,0.99756 -6.29752,-1.74623c-2.58503,-4.29332 -5.83323,-9.23359 -5.83323,-9.23359c0,0 5.07136,-0.22073 10.043,4.05959z" fill="#f29e4a" stroke="none" stroke-width="0"/><path d="M234.49265,196.71996c2.85975,2.62211 4.05407,5.02825 3.88759,5.20982c-0.16649,0.18157 -1.37168,-2.21272 -4.23143,-4.83483c-1.04342,-0.95673 -2.81226,-1.2259 -3.77664,-2.18641c-1.74549,-1.73849 -3.3642,-2.50036 -3.25846,-2.61568c0.10326,-0.11261 1.81681,0.60878 3.44035,2.17525c1.01375,0.97812 2.8525,1.256 3.93859,2.25183z" fill="#20ad00" stroke="#20ad00" stroke-width="0.5"/></g></g><g data-paper-data="{&quot;index&quot;:null}" stroke="none" stroke-width="0"><g fill="#ffffff"><path d="M245.27764,173.9234c-0.37305,-0.18198 -1.01878,-0.79809 -2.08698,-0.74891c-0.87914,0.04048 -1.81817,0.34948 -1.94516,-0.0021c-0.25972,-0.71904 -0.03314,-1.40109 1.45453,-2.32852c1.38846,-0.86557 3.62659,-1.57204 3.62659,-1.57204z"/><path d="M245.90732,170.14422c-0.37305,-0.18198 -1.01878,-0.79809 -2.08698,-0.74891c-0.87914,0.04048 -1.81817,0.34949 -1.94516,-0.00209c-0.25972,-0.71904 -0.03314,-1.4011 1.45453,-2.32852c1.38846,-0.86557 4.31402,-0.8846 4.31402,-0.8846z"/><path d="M246.97047,166.32326c-0.33106,-0.25036 -0.84616,-0.97922 -1.90386,-1.13651c-0.87049,-0.12946 -1.85143,-0.00692 -1.9084,-0.37637c-0.1165,-0.75558 0.23709,-1.38128 1.87543,-2.0051c1.52908,-0.58221 3.86132,-0.84478 3.86132,-0.84478z"/><path d="M248.35605,162.37543c-0.28905,-0.29789 -1.60364,-1.55502 -2.62501,-1.87166c-0.8406,-0.26059 -1.94333,0.16932 -1.94333,-0.2045c0,-0.76451 0.55939,-1.78731 2.27366,-2.15418c1.59994,-0.3424 3.94495,-0.47565 3.94495,-0.47565z"/></g><path d="M252.83613,177.84625c-4.70303,8.94874 -13.00469,7.5145 -13.00469,7.5145l-0.25271,-2.8061c0,0 1.63892,-1.9542 2.25707,-3.43401c3.1115,-7.44866 2.93925,-11.2745 8.00091,-22.44749c0.13201,-0.29141 7.76257,12.10999 2.99943,21.17309z" data-paper-data="{&quot;index&quot;:null}" fill="#20ad00"/><path d="M244.97118,175.54945c0,-0.61369 0.49749,-1.11118 1.11118,-1.11118c0.61369,0 1.11118,0.49749 1.11118,1.11118c0,0.61369 -0.49749,1.11118 -1.11118,1.11118c-0.61369,0 -1.11118,-0.49749 -1.11118,-1.11118z" fill="#f29e4a"/><path d="M246.65839,170.59074c0,-0.53697 0.4353,-0.97228 0.97228,-0.97228c0.53697,0 0.97228,0.4353 0.97228,0.97228c0,0.53697 -0.4353,0.97228 -0.97228,0.97228c-0.53697,0 -0.97228,-0.4353 -0.97228,-0.97228z" fill="#f29e4a"/><path d="M251.36046,169.85465c0,-0.53697 0.4353,-0.97228 0.97228,-0.97228c0.53697,0 0.97228,0.4353 0.97228,0.97228c0,0.53697 -0.4353,0.97228 -0.97228,0.97228c-0.53697,0 -0.97228,-0.4353 -0.97228,-0.97228z" fill="#f29e4a"/><path d="M247.47133,164.15985c0,-0.46027 0.37312,-0.83339 0.83339,-0.83339c0.46027,0 0.83339,0.37312 0.83339,0.83339c0,0.46027 -0.37312,0.83339 -0.83339,0.83339c-0.46027,0 -0.83339,-0.37312 -0.83339,-0.83339z" fill="#f29e4a"/><path d="M249.69369,174.71605c0,-0.46027 0.37312,-0.83339 0.83339,-0.83339c0.46027,0 0.83339,0.37312 0.83339,0.83339c0,0.46027 -0.37312,0.83339 -0.83339,0.83339c-0.46027,0 -0.83339,-0.37312 -0.83339,-0.83339z" fill="#f29e4a"/><path d="M244.1378,181.66093c0,-0.61369 0.49749,-1.11118 1.11118,-1.11118c0.61369,0 1.11118,0.49749 1.11118,1.11118c0,0.61369 -0.49749,1.11118 -1.11118,1.11118c-0.61369,0 -1.11118,-0.49749 -1.11118,-1.11118z" fill="#f29e4a"/><path d="M247.47133,179.71637c0,-0.30684 0.24875,-0.55559 0.55559,-0.55559c0.30684,0 0.55559,0.24875 0.55559,0.55559c0,0.30684 -0.24875,0.55559 -0.55559,0.55559c-0.30684,0 -0.55559,-0.24875 -0.55559,-0.55559z" fill="#f29e4a"/><path d="M250.24928,161.10411c0,-0.46027 0.37312,-0.83339 0.83339,-0.83339c0.46027,0 0.83339,0.37312 0.83339,0.83339c0,0.46027 -0.37312,0.83339 -0.83339,0.83339c-0.46027,0 -0.83339,-0.37312 -0.83339,-0.83339z" fill="#f29e4a"/></g><g data-paper-data="{&quot;index&quot;:null}" stroke="none" stroke-width="0"><g fill="#ffffff"><path d="M233.67338,169.27184c0,0 2.23812,0.70646 3.62659,1.57204c1.48768,0.92743 1.71426,1.60948 1.45453,2.32852c-0.127,0.35158 -1.06603,0.04258 -1.94516,0.0021c-1.0682,-0.04918 -1.71392,0.56693 -2.08698,0.74891z"/><path d="M232.35627,166.1801c0,0 2.92556,0.01903 4.31402,0.88461c1.48768,0.92742 1.71426,1.60948 1.45453,2.32852c-0.12699,0.35158 -1.06602,0.04257 -1.94516,0.00209c-1.0682,-0.04918 -1.71392,0.56693 -2.08698,0.74891z"/><path d="M231.10504,161.9605c0,0 2.33224,0.26257 3.86132,0.84478c1.63834,0.62382 1.99193,1.24951 1.87543,2.0051c-0.05696,0.36945 -1.0379,0.24691 -1.9084,0.37637c-1.0577,0.15729 -1.5728,0.88615 -1.90386,1.13651z"/><path d="M229.99369,157.66945c0,0 2.34501,0.13325 3.94495,0.47565c1.71427,0.36687 2.27366,1.38967 2.27366,2.15417c0,0.37383 -1.10273,-0.05609 -1.94333,0.2045c-1.02138,0.31663 -2.33597,1.57376 -2.62501,1.87166z"/></g><path d="M227.16386,177.84625c-4.76314,-9.06311 2.86742,-21.4645 2.99943,-21.17309c5.06165,11.173 4.88941,14.99883 8.00091,22.44749c0.61816,1.47981 2.25707,3.43401 2.25707,3.43401l-0.25271,2.8061c0,0 -8.30166,1.43424 -13.00469,-7.5145z" data-paper-data="{&quot;index&quot;:null}" fill="#20ad00"/><path d="M233.91764,176.66064c-0.61369,0 -1.11118,-0.49749 -1.11118,-1.11118c0,-0.61369 0.49749,-1.11118 1.11118,-1.11118c0.61369,0 1.11118,0.49749 1.11118,1.11118c0,0.61369 -0.49749,1.11118 -1.11118,1.11118z" fill="#f29e4a"/><path d="M232.36933,171.56302c-0.53698,0 -0.97228,-0.43531 -0.97228,-0.97228c0,-0.53698 0.43531,-0.97228 0.97228,-0.97228c0.53698,0 0.97228,0.43531 0.97228,0.97228c0,0.53698 -0.43531,0.97228 -0.97228,0.97228z" fill="#f29e4a"/><path d="M227.66725,170.82694c-0.53698,0 -0.97228,-0.43531 -0.97228,-0.97228c0,-0.53698 0.43531,-0.97228 0.97228,-0.97228c0.53698,0 0.97228,0.43531 0.97228,0.97228c0,0.53698 -0.43531,0.97228 -0.97228,0.97228z" fill="#f29e4a"/><path d="M231.69528,164.99325c-0.46027,0 -0.83339,-0.37312 -0.83339,-0.83339c0,-0.46027 0.37312,-0.83339 0.83339,-0.83339c0.46027,0 0.83339,0.37312 0.83339,0.83339c0,0.46027 -0.37312,0.83339 -0.83339,0.83339z" fill="#f29e4a"/><path d="M229.47292,175.54945c-0.46027,0 -0.83339,-0.37312 -0.83339,-0.83339c0,-0.46027 0.37312,-0.83339 0.83339,-0.83339c0.46027,0 0.83339,0.37312 0.83339,0.83339c0,0.46027 -0.37312,0.83339 -0.83339,0.83339z" fill="#f29e4a"/><path d="M234.75102,182.77212c-0.61369,0 -1.11118,-0.49749 -1.11118,-1.11118c0,-0.61369 0.49749,-1.11118 1.11118,-1.11118c0.61369,0 1.11118,0.49749 1.11118,1.11118c0,0.61369 -0.49749,1.11118 -1.11118,1.11118z" fill="#f29e4a"/><path d="M231.97308,180.27196c-0.30684,0 -0.55559,-0.24875 -0.55559,-0.55559c0,-0.30684 0.24875,-0.55559 0.55559,-0.55559c0.30684,0 0.55559,0.24875 0.55559,0.55559c0,0.30684 -0.24875,0.55559 -0.55559,0.55559z" fill="#f29e4a"/><path d="M228.91733,161.93751c-0.46027,0 -0.83339,-0.37312 -0.83339,-0.83339c0,-0.46027 0.37312,-0.83339 0.83339,-0.83339c0.46027,0 0.83339,0.37312 0.83339,0.83339c0,0.46027 -0.37312,0.83339 -0.83339,0.83339z" fill="#f29e4a"/></g></g></g></g></svg>