<svg version="1.1" xmlns="http://www.w3.org/2000/svg" xmlns:xlink="http://www.w3.org/1999/xlink" width="85.49398" height="85.49398" viewBox="0,0,85.49398,85.49398"><defs><linearGradient x1="-3285.69704" y1="-2895.28053" x2="-3285.69704" y2="4105.40968" gradientUnits="userSpaceOnUse" id="color-1"><stop offset="0" stop-color="#ffffff"/><stop offset="1" stop-color="#ffffff" stop-opacity="0"/></linearGradient></defs><g transform="translate(-197.25302,-137.25303)"><g data-paper-data="{&quot;isPaintingLayer&quot;:true}" fill-rule="nonzero" stroke-linejoin="miter" stroke-miterlimit="10" stroke-dasharray="" stroke-dashoffset="0" style="mix-blend-mode: normal"><path d="M208.63952,205.58015c0.00324,-13.1024 0,-44.63208 0,-51.75c0,-3.5626 2.97813,-5.21784 6.54073,-5.21784c12.68063,0 43.89984,0 51,0c2.96729,0 5.18024,2.50056 5.18024,5.46784c0,6.43742 0,39.20833 0,51.75c0,2.95974 -2.72049,5.55758 -5.68024,5.55758c-6.61442,0 -39.17756,0 -52,0c-3.13138,0 -5.04177,-1.58613 -5.04073,-5.80758z" fill="url(#color-1)" stroke="#a97a4a" stroke-width="2" stroke-linecap="butt"/><path d="M197.25302,222.74701v-85.49398h85.49398v85.49398z" fill="none" stroke="none" stroke-width="0" stroke-linecap="butt"/><path d="M207.25301,212.74701v-65.49398h65.49398v65.49398z" fill="none" stroke="none" stroke-width="0" stroke-linecap="butt"/><g><path d="M236.25437,193.63516c-0.70804,0.20927 -3.3705,-0.14069 -4.91909,-1.41957c-1.54859,-1.27888 -1.19891,-3.19604 -2.20462,-4.46345c-0.58725,-0.74007 -0.87859,-1.79337 -1.69346,-2.68096c-0.58065,-0.63246 -1.79471,-1.18077 -1.90477,-1.47166c-0.14428,-0.38135 1.38499,-1.06337 1.68255,-1.56249c0.5937,-0.99583 0.74401,-2.53085 0.78446,-3.96297c0.06117,-2.16592 2.48483,-2.82566 -0.00682,-3.91094c-0.70221,-0.30586 -1.29319,0.98936 -1.70024,1.77363c-0.5529,1.06529 -1.30644,0.71188 -1.74831,1.9233c-0.53328,1.46202 -0.72625,4.4078 -1.05134,4.47101c-0.3663,0.07122 -1.25722,-0.91927 -2.05665,-3.64605c-0.39745,-1.35562 -0.93803,-4.71758 -0.55746,-7.73598c0.38056,-3.0184 1.67429,-1.9744 2.61452,-4.10618c0.62009,-1.40592 1.23048,-4.65739 1.92914,-6.25419c1.04973,-2.39917 2.2987,-2.20196 4.07914,-2.20196c1.66713,0 3.93067,1.64181 5.19014,4.57859c1.35604,3.16199 1.83556,8.37356 0.48933,11.06286c-0.97027,1.93828 -2.11874,4.15099 -2.74592,5.70224c-0.47785,1.18189 -0.56355,1.97982 -0.56355,1.97982l4.81045,0.80358z" data-paper-data="{&quot;index&quot;:null}" fill="#cccccc" stroke="none" stroke-width="0" stroke-linecap="butt"/><path d="M225.0026,171.69885c0,0.34728 -1.05319,0.1652 -1.45209,0.39991c-0.43351,0.25507 -0.22945,0.91225 -0.60686,0.91225c-0.72469,0 -0.56539,-0.58747 -0.56539,-1.31216c0,-0.72469 0.58747,-1.31217 1.31216,-1.31217c0.72468,0 1.31216,0.58748 1.31216,1.31217z" data-paper-data="{&quot;index&quot;:null}" fill="#a5a5a5" stroke="none" stroke-width="0" stroke-linecap="butt"/><g data-paper-data="{&quot;index&quot;:null}" stroke="none" stroke-width="0" stroke-linecap="butt"><path d="M230.44415,166.15831c0,3.15863 -1.34069,4.60327 -2.65037,4.60327c-1.30967,0 -2.09239,-1.44463 -2.09239,-4.60327c0,-3.15863 -0.06427,-5.54873 2.37138,-5.7192c2.13806,-0.14965 2.37138,2.56057 2.37138,5.7192z" fill="#a5a5a5"/><path d="M227.65484,166.43729c0,1.1556 -0.52922,1.90716 -1.06851,1.90716c-0.53928,0 -0.60597,-0.75156 -0.60597,-1.90716c0,-1.15559 0.06669,-1.90715 0.60597,-1.90715c0.53928,0 1.06851,0.75155 1.06851,1.90715z" fill="#ffffff"/></g><path d="M252.44467,198.51884c0.79364,-0.6272 1.53369,-1.89187 1.53369,-1.89187c0,0 1.57615,1.35066 2.3853,1.79974c1.49352,0.8289 3.08292,1.8912 2.86757,2.00859c-0.01779,0.48654 -2.6419,1.1819 -5.25287,1.1819c-2.61098,0 -5.25287,-0.91926 -5.25287,-0.91926c0,0 2.19368,-0.97352 3.71919,-2.1791z" data-paper-data="{&quot;index&quot;:null}" fill="#cccccc" stroke="none" stroke-width="0" stroke-linecap="butt"/><path d="M236.69648,196.32824c2.17753,1.72088 5.30886,3.11051 5.30886,3.11051c0,0 -3.77111,1.31216 -7.49809,1.31216c-3.72698,0 -8.32665,-0.13863 -8.35204,-0.83312c-0.3074,-0.16755 2.81531,-2.53786 4.94719,-3.72105c1.155,-0.64103 3.40484,-2.56901 3.40484,-2.56901c0,0 1.05637,1.80523 2.18923,2.70051z" data-paper-data="{&quot;index&quot;:null}" fill="#cccccc" stroke="none" stroke-width="0" stroke-linecap="butt"/><path d="M246.38263,200.00112c-3.84015,0 -6.55442,-1.52572 -8.95712,-3.14189c-1.51393,-1.01835 -3.31541,-1.39444 -3.90294,-3.58138c-1.08092,-4.02347 0.72724,-5.17792 0.72724,-6.78542c0,-1.99027 -0.18889,-5.89517 -0.18889,-5.89517c0,0 1.24999,-1.40685 2.77707,-3.57495c2.72875,-3.87422 5.83683,-4.90935 10.90864,-4.0143c7.71689,1.36183 8.8422,8.91855 8.8422,16.99364c0,1.87653 -0.15269,5.68183 -0.15269,5.68183z" data-paper-data="{&quot;index&quot;:null}" fill="#a5a5a5" stroke="none" stroke-width="NaN" stroke-linecap="butt"/><g data-paper-data="{&quot;index&quot;:null}" fill="#cccccc" stroke="none" stroke-width="0" stroke-linecap="butt"><path d="M256.5326,193.01321l-16.99005,-18.89149l1.63869,-0.93133l15.5739,17.08027z"/><path d="M251.4619,199.60023l-17.24712,-19.0114l1.10672,-1.48371l17.34602,19.16964z"/></g><g data-paper-data="{&quot;index&quot;:null}" fill="#cccccc" stroke="none" stroke-width="0" stroke-linecap="butt"><path d="M233.53348,191.80763l16.46622,-18.10336l1.71712,0.76312l-16.97771,18.66572z"/><path d="M239.67151,197.80611l15.85073,-17.63776l0.61569,2.19824l-15.2608,16.76501z"/></g><path d="M253.76795,178.55545c0.94522,2.09379 0.4641,4.70604 0.4641,4.70604c0,0 -0.48141,-2.40364 -0.95015,-3.55421c-0.44247,-1.08604 -1.78801,-3.16675 -1.78801,-3.16675c0,0 1.7862,0.9342 2.27407,2.01491z" data-paper-data="{&quot;index&quot;:null}" fill="#ffffff" stroke="none" stroke-width="0" stroke-linecap="butt"/><path d="M258.07738,196.62696c0,0 -2.13001,-0.31871 -3.71658,0.06054c-1.68431,0.40262 -3.63117,2.31723 -5.91625,2.69209c-3.71299,0.6091 -7.94283,-0.35308 -10.588,-1.96939c-1.85721,-1.13482 -3.74921,-2.88482 -4.31294,-4.83874c-0.76039,-2.63555 0.19618,-5.64211 0.3155,-8.01037c0.11465,-2.27544 -0.20075,-4.11013 -0.20075,-4.11013" data-paper-data="{&quot;index&quot;:null}" fill="none" stroke="#ffffff" stroke-width="3.5" stroke-linecap="round"/></g></g></g></svg>