<svg version="1.1" xmlns="http://www.w3.org/2000/svg" xmlns:xlink="http://www.w3.org/1999/xlink" width="112.66618" height="112.66618" viewBox="0,0,112.66618,112.66618"><g transform="translate(-183.66691,-123.66691)"><g data-paper-data="{&quot;isPaintingLayer&quot;:true}" fill-rule="nonzero" stroke-linejoin="miter" stroke-miterlimit="10" stroke-dasharray="" stroke-dashoffset="0" style="mix-blend-mode: normal"><g stroke="#20ad00"><g stroke-width="1.5"><path d="M240.89028,160.59506c5.25147,0 10.90249,-0.46224 14.50492,3.53388c1.25504,1.3922 1.30112,3.39658 2.03938,5.25074c1.15326,2.89646 2.03896,5.27856 2.03896,8.46185c0,1.40655 -0.97761,4.71499 -1.08583,6.62409c-0.08033,1.41703 0.57745,2.34982 0.52483,3.856c-0.05262,1.50618 -0.14822,3.42297 -0.83834,5.11669c-1.41959,3.484 -4.26145,5.8062 -6.76469,6.94554c-5.47107,2.49015 -9.91428,-1.95538 -10.41922,-1.89798c-2.20607,0.25078 -4.93037,3.90196 -10.27338,2.35482c-2.58861,-0.74957 -5.87417,-3.32087 -7.4103,-7.19266c-0.81267,-2.04833 -0.78787,-3.40758 -0.83385,-5.91078c-0.04599,-2.5032 0.9731,-2.47696 0.64766,-4.22474c-0.18766,-1.00777 -1.21013,-4.68374 -1.21013,-5.47099c0,-3.16001 0.64308,-6.01564 1.50756,-8.72135c0.73627,-2.30441 1.1274,-4.15086 2.95846,-5.83632c3.5507,-3.26836 9.92838,-2.8888 14.61399,-2.8888z" data-paper-data="{&quot;index&quot;:null}" fill="#ffffff" stroke-linecap="butt"/><path d="M222.99109,184.85033c0,0 0.23117,-0.7966 0.58363,-1.81286c0.28451,-0.82035 0.80459,-2.22382 0.80459,-2.22382" fill="none" stroke-linecap="round"/><path d="M255.62075,180.49967c0,0 1.17788,1.36181 1.59602,2.09356c0.57664,1.00913 1.12447,2.56783 1.12447,2.56783" fill="none" stroke-linecap="round"/></g><path d="M246.32812,189.70416c0,0 -1.73682,2.74863 -5.49863,2.66887c-3.49135,-0.07403 -5.03066,-2.66887 -5.03066,-2.66887" fill="none" stroke-width="1.5" stroke-linecap="round"/><path d="M237.16664,178.45877v4.39578" fill="none" stroke-width="2.5" stroke-linecap="round"/><path d="M244.71731,182.69756v-4.23879" fill="none" stroke-width="2.5" stroke-linecap="round"/></g><path d="M183.66691,236.33309v-112.66618h112.66618v112.66618z" data-paper-data="{&quot;index&quot;:null}" fill="none" stroke="none" stroke-width="0" stroke-linecap="butt"/><path d="M240.85955,161.01121c0,-2.65416 3.29187,-2.2939 6.57797,-2.2939c3.2861,0 5.95001,2.15161 5.95001,4.80577c0,2.65415 -2.66391,4.80577 -5.95001,4.80577c-1.87249,0 -4.06085,-1.04325 -5.32696,-2.8371c-0.95583,-1.35423 -1.25101,-3.33879 -1.25101,-4.48055z" fill="#f29e4a" stroke="none" stroke-width="0" stroke-linecap="butt"/><path d="M236.27539,161.16819c0,1.14175 -0.29519,3.12632 -1.25101,4.48055c-1.26612,1.79385 -3.45446,2.8371 -5.32696,2.8371c-3.28609,0 -5.95001,-2.15162 -5.95001,-4.80578c0,-2.65416 2.66392,-4.80577 5.95001,-4.80577c3.28609,0 6.57797,-0.36026 6.57797,2.29389z" data-paper-data="{&quot;index&quot;:null}" fill="#f29e4a" stroke="none" stroke-width="0" stroke-linecap="butt"/></g></g></svg>