<svg version="1.1" xmlns="http://www.w3.org/2000/svg" xmlns:xlink="http://www.w3.org/1999/xlink" width="112.66618" height="112.66618" viewBox="0,0,112.66618,112.66618"><g transform="translate(-183.66691,-123.66691)"><g data-paper-data="{&quot;isPaintingLayer&quot;:true}" fill-rule="nonzero" stroke-linejoin="miter" stroke-miterlimit="10" stroke-dasharray="" stroke-dashoffset="0" style="mix-blend-mode: normal"><path d="M183.66691,236.33309v-112.66618h112.66618v112.66618z" data-paper-data="{&quot;index&quot;:null}" fill="none" stroke="none" stroke-width="0" stroke-linecap="butt"/><g><path d="M230.904,178.89895c-0.65991,-0.39929 -7.87514,-4.68349 -6.07675,-8.25562c1.53184,-3.04268 6.20386,1.72448 6.20386,1.72448c0,0 -5.54727,-7.08648 -3.19243,-10.32392c2.16139,-2.9715 8.25445,2.74581 8.25445,2.74581c0,0 -6.2439,-10.19173 -0.75252,-10.6861c6.95567,-0.62621 15.55396,14.95056 8.85678,23.87969c-4.57809,6.10381 -10.39399,2.66997 -13.29338,0.91567z" fill="#dcdcdc" stroke="#000000" stroke-width="0" stroke-linecap="butt"/><g data-paper-data="{&quot;index&quot;:null}"><g data-paper-data="{&quot;index&quot;:null}" stroke="none" stroke-width="0" stroke-linecap="butt"><path d="M246.26606,176.90466l6.28083,-1.23564c0,0 -0.14252,-1.04362 -0.814,-2.5762c-0.88133,-2.01153 -2.47151,-4.87122 -3.81754,-7.37759c-1.8676,-3.4775 -1.43499,-10.33296 0.22487,-14.53251c1.54165,-3.90044 4.44942,-6.13977 6.63664,-6.20263c2.33588,-0.06713 3.96704,-0.37296 5.4347,2.73509c0.97683,2.0686 1.90023,6.31139 2.76678,8.13252c1.31393,2.76136 2.97188,1.3429 3.58498,5.28858c0.6131,3.94568 0.03063,8.37682 -0.43969,10.17033c-0.94602,3.60758 -2.07752,4.94065 -2.56077,4.86102c-0.42889,-0.07067 -0.79313,-3.92815 -1.5479,-5.82616c-0.62539,-1.57268 -1.60068,-1.0806 -2.36623,-2.45738c-0.5636,-1.01359 -1.38779,-2.69058 -2.29752,-2.26283c-3.22803,1.51779 -0.0234,2.29196 0.13851,5.13126c0.10707,1.87736 0.36215,3.88558 1.17861,5.16969c0.4092,0.6436 2.44126,1.48072 2.26635,1.98648c-0.13343,0.38578 -1.70555,1.15093 -2.4435,2.00258c-1.03561,1.1952 -1.37812,2.58808 -2.12067,3.58117c-1.27166,1.70072 -0.74061,4.20278 -2.72408,5.93901c-1.98347,1.73624 -5.46332,2.29575 -6.40014,2.04789z" data-paper-data="{&quot;index&quot;:null}" fill="#f29e4a"/><path d="M261.18109,162.27547c-0.02732,-0.95077 0.72128,-1.74367 1.67203,-1.77099c0.95077,-0.02732 1.74366,0.72128 1.77098,1.67204c0.02732,0.95077 0.25847,1.7155 -0.6923,1.74283c-0.49515,0.01423 -0.25221,-0.85566 -0.83058,-1.17395c-0.53218,-0.29289 -1.90707,-0.0143 -1.92016,-0.46992z" data-paper-data="{&quot;index&quot;:null}" fill="#20ad00"/><g data-paper-data="{&quot;index&quot;:null}"><path d="M256.44192,142.96713c4.30276,0.17715 4.31055,4.39421 4.47059,9.96298c0.16004,5.56877 -1.14671,8.15536 -3.45571,8.22172c-2.30901,0.06636 -4.74588,-2.41264 -4.90592,-7.98141c-0.16004,-5.56877 0.11399,-10.3588 3.89103,-10.20329z" fill="#ffffff"/><path d="M259.26982,150.10444c0.95077,-0.02732 1.10643,1.29432 1.16498,3.33166c0.05855,2.03736 -0.02095,3.36576 -0.97172,3.39309c-0.95077,0.02732 -1.92189,-1.27088 -1.98044,-3.30824c-0.05855,-2.03736 0.83641,-3.38918 1.78718,-3.4165z" fill="#20ad00"/></g></g><path d="M231.15093,201.21566c0,0 -3.43141,1.30564 -6.85691,1.40409c-3.4255,0.09845 -6.89444,-0.71491 -6.93613,-1.35255c-0.28695,-0.14589 1.75823,-1.59952 3.68641,-2.74331c1.04464,-0.61969 3.06156,-2.45113 3.06156,-2.45113c0,0 1.0186,1.6313 2.08347,2.42424c2.04686,1.52416 4.9616,2.71867 4.9616,2.71867z" data-paper-data="{&quot;index&quot;:null}" fill="#f29e4a" stroke="none" stroke-width="0" stroke-linecap="butt"/><path d="M246.76779,195.02924c1.45251,-1.21729 2.77036,-3.62551 2.77036,-3.62551c0,0 3.0244,2.44461 4.56389,3.24206c2.84157,1.47193 7.02781,4.46394 6.63083,4.69535c-0.00713,0.9121 -6.03649,1.2674 -10.92615,1.40793c-4.88965,0.14052 -9.88668,-1.4388 -9.88668,-1.4388c0,0 4.05579,-1.94121 6.84774,-4.28104z" data-paper-data="{&quot;index&quot;:null}" fill="#f29e4a" stroke="none" stroke-width="0" stroke-linecap="butt"/><path d="M220.84577,194.9276c0,0 -0.34379,-4.98666 -0.41455,-7.4486c-0.30447,-10.59423 0.88697,-20.55078 10.95989,-22.62842c6.62028,-1.3655 10.73699,-0.12463 14.46309,4.85531c2.08521,2.78689 3.7782,4.5855 3.7782,4.5855c0,0 -0.10059,5.1302 -0.02554,7.74136c0.06061,2.10898 2.47637,3.5554 1.20995,8.87479c-0.68835,2.89133 -3.03765,3.45267 -4.98547,4.84579c-3.09132,2.21096 -6.59481,4.31498 -11.63294,4.45977z" data-paper-data="{&quot;index&quot;:null}" fill="#20ad00" stroke="none" stroke-width="NaN" stroke-linecap="butt"/><g data-paper-data="{&quot;index&quot;:null}" fill="#f29e4a" stroke="none" stroke-width="0" stroke-linecap="butt"><path d="M220.22317,187.83819l19.78837,-22.99587l2.18502,1.16009l-21.57801,25.42553z"/><path d="M225.88776,198.18517l22.03455,-25.80387l1.50791,1.90485l-21.91076,25.59254z"/></g><g data-paper-data="{&quot;index&quot;:null}" fill="#f29e4a" stroke="none" stroke-width="0" stroke-linecap="butt"><path d="M249.21529,190.76355l-22.97789,-23.84859l2.22403,-1.06593l22.28564,23.13007z"/><path d="M241.38862,198.86475l-20.65372,-21.41967l0.72488,-2.90722l21.46059,22.54244z"/></g><path d="M223.70051,172.35566c0.59933,-1.43625 2.90753,-2.72923 2.90753,-2.72923c0,0 -1.68685,2.78055 -2.2264,4.22207c-0.57159,1.52717 -1.11256,4.69881 -1.11256,4.69881c0,0 -0.72971,-3.40903 0.43144,-6.19165z" data-paper-data="{&quot;index&quot;:null}" fill="#ffffff" stroke="none" stroke-width="0" stroke-linecap="butt"/><path d="M250.15502,174.08429c0,0 -0.34461,2.41893 -0.1084,5.3999c0.24584,3.10257 1.61418,7.01099 0.71596,10.49741c-0.66591,2.58472 -3.08218,4.95199 -5.47597,6.51086c-3.40943,2.22027 -8.92255,3.6421 -13.81681,2.98298c-3.01207,-0.40565 -5.63846,-2.84414 -7.8634,-3.30885c-2.09582,-0.43774 -4.8783,0.0607 -4.8783,0.0607" data-paper-data="{&quot;index&quot;:null}" fill="none" stroke="#ffffff" stroke-width="3.5" stroke-linecap="round"/></g><g stroke="#000000" stroke-width="0" stroke-linecap="butt"><path d="M225.82363,180.14868c-0.7994,0.11165 -9.47394,1.38677 -11.06056,-2.03016c-1.35144,-2.91049 5.87573,-2.40498 5.87573,-2.40498c0,0 -9.73341,-1.55282 -10.64756,-5.06525c-0.83906,-3.22388 8.18251,-2.89846 8.18251,-2.89846c0,0 -12.74554,-3.22749 -9.17726,-6.70601c4.51976,-4.40608 23.31712,1.06837 25.69224,10.8719c1.6236,6.70154 -5.35284,7.74239 -8.86509,8.23293z" fill="#ffffff"/><path d="M231.15585,172.6674c0.96973,2.78366 -0.93428,2.59852 -1.67,2.80921c-0.73572,0.2107 0.83621,0.14982 -0.1335,-2.63384c-0.96973,-2.78366 -3.24156,-3.22358 -2.50583,-3.43427c0.73572,-0.21069 3.33962,0.47525 4.30934,3.2589z" fill="#f29e4a"/></g></g></g></g></svg>