<svg version="1.1" xmlns="http://www.w3.org/2000/svg" xmlns:xlink="http://www.w3.org/1999/xlink" width="41.41093" height="41.41092" viewBox="0,0,41.41093,41.41092"><g transform="translate(-219.29454,-159.29454)"><g data-paper-data="{&quot;isPaintingLayer&quot;:true}" fill-rule="nonzero" stroke-linejoin="miter" stroke-miterlimit="10" stroke-dasharray="" stroke-dashoffset="0" style="mix-blend-mode: normal"><path d="M219.29454,200.70546v-41.41092h41.41093v41.41092z" data-paper-data="{&quot;index&quot;:null}" fill="#355aff" stroke="none" stroke-width="0" stroke-linecap="butt"/><g fill="#ff6fc4" stroke="none" stroke-width="0" stroke-linecap="butt"><path d="M237.29052,180.05538c0,0 -3.6432,-1.66455 -3.53198,-10.32993c0.07249,-5.64728 3.13236,-10.42299 3.13236,-10.42299h5.63825c0,0 -3.13237,4.18696 -3.4456,10.79524c-0.15369,3.24247 3.4456,9.95768 3.4456,9.95768z"/><path d="M236.57488,200.38477c0,0 3.59929,-6.71522 3.4456,-9.95767c-0.31324,-6.60828 -3.4456,-10.79524 -3.4456,-10.79524h5.63825c0,0 3.05987,4.7757 3.13236,10.42299c0.11124,8.66538 -3.13236,10.32993 -3.13236,10.32993z" data-paper-data="{&quot;index&quot;:null}"/></g><path d="M241.64982,197.80376c0,0 -7.17654,0.33621 -12.44364,-3.24806c-7.95591,-5.41402 -6.23508,-13.39639 -4.59971,-13.23057c2.32029,0.23527 0.91519,7.52406 6.18301,10.5733c5.52197,3.19636 9.68392,2.22634 9.68392,2.22634z" fill="#ff6fc4" stroke="none" stroke-width="0" stroke-linecap="butt"/><path d="M231.56143,189.78888c1.19885,-2.46398 3.91746,-4.01638 4.196,-3.34607c0.77246,1.85892 -0.99905,1.62566 -2.59753,4.83321c-0.26313,0.528 0.36235,2.12935 0.24023,2.56372c-0.39488,1.40464 -1.0489,1.15414 -1.6389,1.15414c-0.77246,0 -1.29199,-2.96029 -0.19982,-5.205z" fill="#ff6fc4" stroke="none" stroke-width="0" stroke-linecap="butt"/><path d="M250.74314,171.75728c0,1.83401 -0.78098,1.30125 -5.19505,1.30125c-3.14579,0 -6.36247,1.64526 -7.90114,0.94245c-0.55401,-0.25304 0.30838,-1.45766 0.30838,-2.2437c0,-0.71866 3.57831,-1.30125 7.99238,-1.30125c4.41407,0 4.79542,-0.16098 4.79542,1.30125z" fill="#ff6fc4" stroke="none" stroke-width="0" stroke-linecap="butt"/><path d="M252.5296,171.37215c2.30061,0.72133 4.22088,1.15352 3.97418,1.83455c-0.50194,1.38566 -2.56694,1.35299 -4.86754,0.63166c-2.30061,-0.72133 -4.09743,-0.33016 -3.71894,-2.53918c0.1216,-0.7097 2.31169,-0.64836 4.61229,0.07297z" fill="#ff6fc4" stroke="none" stroke-width="0" stroke-linecap="butt"/><path d="M252.44798,166.34031c2.52167,-1.98011 3.56446,-3.20933 4.19606,-2.07118c0.75632,1.3629 -0.29102,1.61595 -2.81267,3.59606c-2.52167,1.98011 -4.5379,5.38397 -5.99652,3.77616c-0.4705,-0.51861 2.09148,-3.32092 4.61314,-5.30103z" fill="#ff6fc4" stroke="none" stroke-width="0" stroke-linecap="butt"/><path d="M241.35841,194.85081c0,0 2.16841,-4.79544 6.64748,-7.02214c6.76562,-3.36342 12.20153,0.45302 11.52468,1.46398c-0.96035,1.43437 -5.98004,-1.94203 -10.05608,0.4657c-4.27271,2.52389 -4.94607,5.56651 -4.94607,5.56651z" data-paper-data="{&quot;index&quot;:null}" fill="#ff6fc4" stroke="none" stroke-width="0" stroke-linecap="butt"/><path d="M247.11492,184.37387c0.08807,-2.70343 1.95586,-5.10915 2.49007,-4.59006c1.48151,1.43956 -0.2502,1.85809 -0.39977,5.39088c-0.02463,0.58153 1.21472,1.83591 1.28155,2.28057c0.21614,1.43789 -0.49112,1.44067 -1.03575,1.65178c-0.71305,0.27639 -2.41635,-2.27034 -2.3361,-4.73318z" fill="#ff6fc4" stroke="none" stroke-width="0" stroke-linecap="butt"/><path d="M254.63139,180.27823c1.3154,0.18972 0.87764,2.01702 0.87764,3.72336c0,1.70634 1.22386,3.72336 -0.62688,3.72336c-0.59697,0 -1.12839,-2.01702 -1.12839,-3.72336c0,-1.70634 -0.22084,-3.8818 0.87764,-3.72336z" fill="#ff6fc4" stroke="none" stroke-width="0" stroke-linecap="butt"/><g fill="#ff437a" stroke="none" stroke-width="0" stroke-linecap="butt"><path d="M240.68729,180.05538c0,0 -3.6432,-1.66455 -3.53198,-10.32993c0.07249,-5.64728 3.13236,-10.42299 3.13236,-10.42299h2.24149c0,0 -3.13237,4.18696 -3.4456,10.79524c-0.15369,3.24247 3.4456,9.95768 3.4456,9.95768z"/><path d="M239.97163,200.38477c0,0 3.59929,-6.71522 3.4456,-9.95767c-0.31324,-6.60828 -3.4456,-10.79524 -3.4456,-10.79524h2.24148c0,0 3.05987,4.7757 3.13236,10.42299c0.11124,8.66538 -3.13236,10.32993 -3.13236,10.32993z" data-paper-data="{&quot;index&quot;:null}"/></g><path d="M237.84789,197.18722c0,0 -3.64573,0.64105 -7.88491,-2.18432c-4.10337,-2.73485 -4.93288,-5.37305 -4.93288,-5.37305" fill="none" stroke="#ff437a" stroke-width="1" stroke-linecap="round"/><path d="M245.00003,193.39741c0,0 1.95903,-2.43599 5.138,-4.00316c1.52714,-0.75284 4.76664,-0.60424 4.76664,-0.60424" fill="none" stroke="#ff437a" stroke-width="1" stroke-linecap="round"/><path d="M239.75639,174.15477c0,0 3.74293,-1.44102 6.1206,-1.48526c2.47374,-0.04603 8.44505,1.21424 8.44505,1.21424" fill="none" stroke="#ff437a" stroke-width="1" stroke-linecap="round"/><g><path d="M238.67321,180.16306c0,0 -7.17654,0.33621 -12.44364,-3.24806c-7.95591,-5.41402 -6.23508,-13.39639 -4.59972,-13.23057c2.32029,0.23527 0.91519,7.52406 6.18301,10.5733c5.52197,3.19636 9.68392,2.22633 9.68392,2.22633z" fill="#ff6fc4" stroke="none" stroke-width="0" stroke-linecap="butt"/><path d="M230.56236,161.16139c2.09631,0.4452 1.39867,4.733 1.39867,8.73696c0,4.00396 1.95043,8.73696 -0.99904,8.73696c-0.95137,0 -1.79828,-4.733 -1.79828,-8.73696c0,-4.00397 -0.35195,-9.10874 1.39866,-8.73696z" fill="#ff6fc4" stroke="none" stroke-width="0" stroke-linecap="butt"/><path d="M236.55195,179.84626c0,0 -3.88491,0.64117 -9.26143,-2.94223c-5.20427,-3.4686 -5.88685,-6.81461 -5.88685,-6.81461" fill="none" stroke="#ff437a" stroke-width="1" stroke-linecap="round"/></g></g></g></svg>