<svg version="1.1" xmlns="http://www.w3.org/2000/svg" xmlns:xlink="http://www.w3.org/1999/xlink" width="85.49398" height="85.49398" viewBox="0,0,85.49398,85.49398"><defs><linearGradient x1="-3285.69704" y1="-2895.28053" x2="-3285.69704" y2="4105.40968" gradientUnits="userSpaceOnUse" id="color-1"><stop offset="0" stop-color="#ffffff"/><stop offset="1" stop-color="#ffffff" stop-opacity="0"/></linearGradient></defs><g transform="translate(-197.25302,-137.25303)"><g data-paper-data="{&quot;isPaintingLayer&quot;:true}" fill-rule="nonzero" stroke-linecap="butt" stroke-linejoin="miter" stroke-miterlimit="10" stroke-dasharray="" stroke-dashoffset="0" style="mix-blend-mode: normal"><path d="M208.63952,205.58015c0.00324,-13.1024 0,-44.63208 0,-51.75c0,-3.5626 2.97813,-5.21784 6.54073,-5.21784c12.68063,0 43.89984,0 51,0c2.96729,0 5.18024,2.50056 5.18024,5.46784c0,6.43742 0,39.20833 0,51.75c0,2.95974 -2.72049,5.55758 -5.68024,5.55758c-6.61442,0 -39.17756,0 -52,0c-3.13138,0 -5.04177,-1.58613 -5.04073,-5.80758z" fill="url(#color-1)" stroke="#a97a4a" stroke-width="2"/><path d="M197.25302,222.74701v-85.49398h85.49398v85.49398z" fill="none" stroke="none" stroke-width="0"/><g data-paper-data="{&quot;index&quot;:null}" fill="#bcbcbc" stroke="none" stroke-width="0"><path d="M239.99996,184.76038l8.82198,8.82198h-17.64395z"/><path d="M243.67883,193.17014v13.11597h-7.35773v-13.11597z"/></g><g stroke="none"><g stroke-width="0"><g data-paper-data="{&quot;index&quot;:null}"><path d="M247.94597,158.81878c0.02076,1.14465 -0.51201,1.28329 -1.8063,1.63066c-0.58581,0.15723 -1.51985,0.18613 -1.98976,0.00991c-0.49686,-0.18634 -0.98027,-0.58046 -1.11598,-1.08611c-0.09475,-0.35303 0.87343,-0.67917 1.08966,-1.03397c0.38638,-0.63398 0.28705,-1.24529 1.50518,-1.57223c1.9178,-0.51474 2.29873,1.03322 2.31721,2.05173z" data-paper-data="{&quot;index&quot;:null}" fill="#f29e4a"/><path d="M243.93897,160.36451l4.62879,-0.8604c0,0 -0.1329,3.95798 -1.13028,6.21068c-0.99737,2.25269 -4.0094,5.39795 -4.0094,5.39795l-4.48356,-2.02086c0,0 4.76486,-6.84333 5.03949,-7.24878c0.295,-0.43553 -0.04506,-1.47859 -0.04506,-1.47859z" data-paper-data="{&quot;index&quot;:null}" fill="#908816"/></g><path d="M247.59779,179.10029c-0.86176,1.33876 -2.74872,0.22965 -2.74872,0.22965c0,0 1.22918,-2.46646 2.09094,-3.80523c0.06994,-0.10865 0.8758,-1.45566 2.36024,-0.60917c1.29026,0.73576 -0.84071,2.84598 -1.70247,4.18475z" data-paper-data="{&quot;index&quot;:null}" fill="#908816"/><path d="M231.57042,178.17268c-0.08925,-0.5575 0.33399,-0.98151 0.65669,-1.25362c0.55477,-0.4678 1.35984,-0.22302 1.35984,-0.22302c0,0 0.93668,2.19914 1.17936,3.71508c0.0197,0.12303 0.66616,1.84165 -1.20747,2.36501c-1.87333,0.52328 -1.98842,-4.60345 -1.98842,-4.60345z" data-paper-data="{&quot;index&quot;:null}" fill="#908816"/><path d="M239.76147,168.12414c2.41529,0 4.48301,0.79985 4.867,3.13824c0.13025,0.79321 0.28366,1.4313 0.1647,1.94514c-0.48391,2.09037 -3.09379,2.45198 -5.0317,2.50793c-2.6541,0.07663 -3.92343,0.43418 -4.45807,-0.27432c-0.61675,-0.81732 -0.25581,-2.79363 0.08481,-4.01643c0.66011,-2.36972 1.95798,-3.30057 4.37326,-3.30057z" data-paper-data="{&quot;index&quot;:null}" fill="#908816"/><path d="M237.48329,172.94127c1.22684,-1.59035 1.05371,-4.7977 1.05371,-4.7977l1.25644,-0.07972c0,0 -0.37063,3.48054 0.40688,4.1339c0.20487,0.17216 1.21837,0.29217 1.62548,-0.27328c0.40296,-0.55969 0.2006,-3.40641 0.2006,-3.40641l1.21809,0.71687c0,0 0.13401,1.50142 0.37144,2.17848c0.20736,0.59131 1.30255,1.66159 1.30255,1.66159l-0.38229,1.44472c0,0 0.25853,-0.10682 1.00991,-0.06397c0.75138,0.04284 1.72903,0.9049 1.72903,0.9049l-2.35667,4.07346c0,0 -0.82528,-1.35849 -3.00141,-1.2158c-1.19234,0.07817 -2.57536,1.07735 -3.82281,1.55106c-1.97534,0.75013 -2.62946,0.67776 -2.62946,0.67776c0,0 -0.94425,0.2332 -1.48382,-1.09687c-0.6276,-1.54706 -0.40479,-2.83854 -0.40479,-2.83854l1.25242,-0.47761l0.11933,-1.89834c0,0 1.30852,0.39584 2.53536,-1.1945z" data-paper-data="{&quot;index&quot;:null}" fill="#f32f00"/><path d="M238.58633,173.45116c0,-0.382 0.30967,-0.69168 0.69168,-0.69168c0.382,0 0.69168,0.30967 0.69168,0.69168c0,0.382 -0.30967,0.69168 -0.69168,0.69168c-0.382,0 -0.69168,-0.30967 -0.69168,-0.69168z" data-paper-data="{&quot;index&quot;:null}" fill="#f29e4a"/><path d="M241.5375,173.45116c0,-0.382 0.30967,-0.69168 0.69168,-0.69168c0.382,0 0.69168,0.30967 0.69168,0.69168c0,0.382 -0.30967,0.69168 -0.69168,0.69168c-0.382,0 -0.69168,-0.30967 -0.69168,-0.69168z" data-paper-data="{&quot;index&quot;:null}" fill="#f29e4a"/><path d="M235.96273,164.45935c0,-2.39389 1.99078,-3.79808 5.37601,-3.68578c3.25919,0.10812 2.31245,1.04964 3.66843,2.14377c0.55482,0.44768 1.60182,0.55393 2.3002,1.07138c0.69836,0.51745 1.13738,1.22073 1.13738,1.87624c0,0.46287 -0.82075,0.64029 -1.36778,0.73707c-0.96783,0.17122 -1.01662,1.17294 -1.90822,1.58653c-1.45117,0.67316 -2.44356,0.6053 -4.04625,0.6053c-2.43064,0 -3.88227,0.08186 -4.87468,-1.36722c-0.39051,-0.57022 -0.28509,-2.2913 -0.28509,-2.9673z" data-paper-data="{&quot;index&quot;:null}" fill="#f29e4a"/><path d="M241.502,167.43599c-0.02044,-0.18783 0.47056,-0.21775 0.81928,-0.60182c0.31632,-0.34839 0.46188,-1.05896 1.00709,-1.11828c0.51504,-0.05605 0.99903,0.7824 1.67409,0.96104c0.82735,0.21893 1.80738,-0.19115 1.82885,0.00611c0.00468,0.04298 0.13462,0.87606 -0.07942,1.05139c-0.24064,0.19712 -0.82872,-0.26394 -0.82872,-0.26394c0,0 -0.35479,0.60877 -0.65712,0.75204c-0.62561,0.29647 -0.90611,-0.18175 -0.90611,-0.18175c0,0 -0.77511,0.44249 -1.01918,0.37345c-0.43839,-0.12401 -0.69032,-0.68269 -0.69032,-0.68269c0,0 -1.13031,-0.12893 -1.14845,-0.29556z" data-paper-data="{&quot;index&quot;:null}" fill="#908816"/><path d="M236.8437,161.47117c1.50097,-0.71025 3.47754,-1.17292 4.09659,-0.31562c0.33932,0.46992 -1.76961,2.58783 -1.50162,3.01872c0.25923,0.4168 0.68783,0.87122 0.51306,1.43077c-0.07308,0.23397 -0.32511,0.83316 -0.61504,0.87879c-0.30459,0.04794 -0.65098,-0.45901 -0.8756,-0.25126c-0.54318,0.5024 -0.66345,1.61792 -1.18489,1.61792c-0.92681,0 -2.38861,0.1209 -2.79345,-0.65886c-0.77799,-1.49845 0.20232,-2.62998 0.3066,-3.12548c0.32437,-1.54129 0.55339,-1.88473 2.05435,-2.59498z" data-paper-data="{&quot;index&quot;:null}" fill="#908816"/><path d="M237.45494,165.52583c0,-0.80615 0.56839,-1.29051 0.95654,-1.29051c0.38815,0 0.7028,0.48436 0.7028,1.29051c0,0.80615 -0.31465,1.45967 -0.7028,1.45967c-0.38815,0 -0.95654,-0.65352 -0.95654,-1.45967z" data-paper-data="{&quot;index&quot;:null}" fill="#f29e4a"/><path d="M243.11489,162.55242c0.418,0 0.75687,0.50829 0.75687,1.1353c0,0.627 -0.33886,1.1353 -0.75687,1.1353c-0.418,0 -0.75687,-0.50829 -0.75687,-1.1353c0,-0.627 0.33886,-1.1353 0.75687,-1.1353z" data-paper-data="{&quot;index&quot;:null}" fill="#908816"/><path d="M235.32995,161.57932c0.18947,-0.3726 0.89085,-2.83548 5.35214,-2.59498c2.6711,0.14399 3.5424,1.86978 3.72479,1.85504c1.43104,-0.11566 3.03296,0.49928 3.03296,0.73993c0,0.418 -2.83192,0.75687 -6.32525,0.75687c-3.49334,0 -6.21713,0.09364 -5.78464,-0.75687z" data-paper-data="{&quot;index&quot;:null}" fill="#f32f00"/><g><path d="M234.20817,174.1983c0,0 -1.43339,-1.67508 -2.2368,-2.01736c-0.61076,-0.2602 -1.90741,-0.46568 -1.90741,-0.46568c0,0 1.85302,-2.1546 3.51063,-2.64564c2.47296,-0.73257 5.12046,-0.35069 5.12046,-0.35069l-1.83062,3.87594c0,0 -1.28381,-0.04164 -1.75011,0.10798c-0.50089,0.16072 -0.90616,1.49544 -0.90616,1.49544z" data-paper-data="{&quot;index&quot;:null}" fill="#908816"/><path d="M232.22845,171.93043c0.55802,0.23773 1.31089,0.79129 1.57194,1.21992c0.27603,0.4532 0.41327,1.06163 0.20807,1.54329c-0.14327,0.33628 -1.10641,-0.00445 -1.49549,0.14134c-0.69523,0.2605 -0.99426,0.80286 -2.15459,0.30854c-1.8268,-0.77825 -1.17146,-2.23146 -0.55756,-3.04436c0.68993,-0.91359 1.19472,-0.69395 2.42761,-0.16872z" data-paper-data="{&quot;index&quot;:null}" fill="#f29e4a"/></g></g><g fill="none" stroke-width="1" font-family="sans-serif" font-weight="normal" font-size="12" text-anchor="start"><g><g/><g/></g><g><g/><g/></g></g></g></g></g></svg>