<svg version="1.1" xmlns="http://www.w3.org/2000/svg" xmlns:xlink="http://www.w3.org/1999/xlink" width="85.49398" height="85.49398" viewBox="0,0,85.49398,85.49398"><defs><linearGradient x1="-3285.69704" y1="-2895.28054" x2="-3285.69704" y2="4105.40968" gradientUnits="userSpaceOnUse" id="color-1"><stop offset="0" stop-color="#ffffff"/><stop offset="1" stop-color="#ffffff" stop-opacity="0"/></linearGradient></defs><g transform="translate(-197.25301,-137.25301)"><g data-paper-data="{&quot;isPaintingLayer&quot;:true}" fill-rule="nonzero" stroke-linecap="butt" stroke-linejoin="miter" stroke-miterlimit="10" stroke-dasharray="" stroke-dashoffset="0" style="mix-blend-mode: normal"><path d="M197.25301,222.74699v-85.49398h85.49398v85.49398z" fill="none" stroke="none" stroke-width="0"/><path d="M208.63952,205.58014c0.00324,-13.1024 0,-44.63208 0,-51.75c0,-3.5626 2.97813,-5.21784 6.54073,-5.21784c12.68063,0 43.89984,0 51,0c2.96729,0 5.18024,2.50056 5.18024,5.46784c0,6.43742 0,39.20833 0,51.75c0,2.95974 -2.72049,5.55758 -5.68024,5.55758c-6.61442,0 -39.17756,0 -52,0c-3.13138,0 -5.04177,-1.58613 -5.04073,-5.80758z" fill="url(#color-1)" stroke="#a97a4a" stroke-width="2"/><path d="M219.62787,200.37213v-40.74425h40.74426v40.74425z" data-paper-data="{&quot;index&quot;:null}" fill="#355aff" stroke="none" stroke-width="0"/><path d="M222.72154,200.45281c0,0 -3.84925,-5.95369 -1.27959,-10.19757c3.2926,-5.43782 10.53686,-3.40416 10.83806,-7.3016c0.41714,-5.39757 -2.78291,-11.13307 -2.78291,-11.13307c0,0 4.2806,3.42326 6.33843,10.05407c0.46024,1.48301 -0.0724,4.96917 -1.56823,6.54202c-1.7655,1.85641 -2.64795,3.35061 -3.06509,5.38606c-0.80966,3.95077 6.81899,6.65009 6.81899,6.65009z" fill="#20ad00" stroke="#ffffff" stroke-width="0"/><path d="M240.09312,200.48515c0,0 6.50474,-7.07347 7.88002,-10.4804c1.3558,-3.35869 0.31404,-9.81852 0.31404,-9.81852c0,0 2.43748,5.42536 2.6072,9.1252c0.07441,1.6222 -0.66824,3.96992 -1.52577,6.0951c-1.09829,2.72183 -2.38503,5.07861 -2.38503,5.07861z" fill="#20ad00" stroke="#ffffff" stroke-width="0"/><path d="M248.65964,200.48515c0,0 2.25329,-1.97519 3.29717,-4.92723c0.67028,-1.89551 -0.03366,-4.41265 0.73997,-6.34502c0.5908,-1.4757 2.36181,-2.9972 2.57945,-3.97659c0.51888,-2.33495 -1.40219,-8.21597 -1.40219,-8.21597c0,0 2.85311,3.82623 3.53834,6.70423c0.22969,0.96469 -1.69918,2.60713 -1.39401,5.1074c0.29774,2.43939 2.25297,4.74004 3.02751,7.01586c0.79997,2.35055 0.41502,4.63732 0.41502,4.63732z" fill="#20ad00" stroke="#ffffff" stroke-width="0"/><path d="M236.84355,200.48515c0,0 -2.65166,-2.28223 -1.92882,-6.10351c0.30151,-1.59395 4.26668,-3.91716 4.3431,-5.71722c0.08369,-1.97154 1.21488,-3.98572 0.97547,-5.86512c-0.4146,-3.2547 -2.33373,-6.10521 -2.16798,-7.63011c0.24429,-2.24749 2.05673,-4.84624 2.05673,-4.84624c0,0 -0.6557,3.84524 -0.6557,6.557c0,1.38346 2.39192,3.55136 3.05535,6.04821c0.53266,2.00471 -0.64453,4.22148 -0.57713,6.41453c0.06571,2.138 -3.52764,3.87071 -3.85435,5.66559c-0.54238,2.97979 2.03182,5.47686 2.03182,5.47686z" data-paper-data="{&quot;index&quot;:null}" fill="#20ad00" stroke="#ffffff" stroke-width="0"/></g></g></svg>