<svg version="1.1" xmlns="http://www.w3.org/2000/svg" xmlns:xlink="http://www.w3.org/1999/xlink" width="85.49398" height="85.49398" viewBox="0,0,85.49398,85.49398"><defs><linearGradient x1="-3285.69704" y1="-2895.28053" x2="-3285.69704" y2="4105.40968" gradientUnits="userSpaceOnUse" id="color-1"><stop offset="0" stop-color="#ffffff"/><stop offset="1" stop-color="#ffffff" stop-opacity="0"/></linearGradient></defs><g transform="translate(-197.25302,-137.25303)"><g data-paper-data="{&quot;isPaintingLayer&quot;:true}" fill-rule="nonzero" stroke-linejoin="miter" stroke-miterlimit="10" stroke-dasharray="" stroke-dashoffset="0" style="mix-blend-mode: normal"><path d="M208.63952,205.58015c0.00324,-13.1024 0,-44.63208 0,-51.75c0,-3.5626 2.97813,-5.21784 6.54073,-5.21784c12.68063,0 43.89984,0 51,0c2.96729,0 5.18024,2.50056 5.18024,5.46784c0,6.43742 0,39.20833 0,51.75c0,2.95974 -2.72049,5.55758 -5.68024,5.55758c-6.61442,0 -39.17756,0 -52,0c-3.13138,0 -5.04177,-1.58613 -5.04073,-5.80758z" fill="url(#color-1)" stroke="#a97a4a" stroke-width="2" stroke-linecap="butt"/><path d="M197.25302,222.74701v-85.49398h85.49398v85.49398z" fill="none" stroke="none" stroke-width="0" stroke-linecap="butt"/><path d="M207.25301,212.74701v-65.49398h65.49398v65.49398z" fill="none" stroke="none" stroke-width="0" stroke-linecap="butt"/><g data-paper-data="{&quot;index&quot;:null}"><path d="M255.0634,193.41403c0,0 -1.66769,2.30364 -6.18473,2.53888c-4.51704,0.23524 -6.97404,-2.0259 -6.97404,-2.0259l0.2389,-29.73777c0,0 4.56144,-0.13243 6.19596,1.1036c1.80964,1.36845 3.66779,6.75033 3.66779,6.75033c0,0 1.68609,-2.2168 2.98158,-2.2299c4.86493,-0.04917 4.70634,8.91159 4.70634,8.91159c0,0 2.24782,-2.04244 3.96017,-0.3939c2.0491,1.97273 0.72964,6.43494 0.72964,6.43494c0,0 1.0862,1.22195 1.35791,2.69707c0.258,1.40069 0.31757,2.33489 -0.50659,3.42004c-2.65941,3.50154 -10.17292,2.53102 -10.17292,2.53102z" fill="#ffffff" stroke="#000000" stroke-width="0" stroke-linecap="butt"/><path d="M242.29379,164.30739c0,0 4.35336,-0.4788 6.19556,1.28522c2.81326,2.69385 2.75151,6.43564 3.16404,6.56683c0.48112,0.153 1.24462,-1.70298 3.22983,-2.22567c3.67084,-0.9665 4.5662,4.27116 4.73941,8.06314c0.06999,1.53223 1.11359,-1.19294 3.15495,-0.33987c1.35164,0.56484 2.19329,2.36444 1.92592,4.15275c-0.2041,1.36515 -0.49104,2.65438 -0.41781,2.76923c1.64344,2.57768 1.9062,3.73312 1.04072,5.82384c-1.6544,3.99646 -10.39637,3.06293 -10.39637,3.06293c0,0 -2.03776,2.23152 -6.43395,2.47977c-4.20305,0.23734 -6.01628,-1.66206 -6.01628,-1.66206" fill="none" stroke="#a5a5a5" stroke-width="1.5" stroke-linecap="round"/></g><path d="M247.00772,172.56657c-0.18369,0.35975 -2.06055,-1.53194 -2.64642,-1.87597c-0.67755,-0.39786 -2.45023,-1.3836 -2.06714,-1.59117c0.38663,-0.20951 1.84348,0.07044 2.7457,0.73408c0.90222,0.66364 2.12317,2.42889 1.96786,2.73306z" fill="#f32f00" stroke="none" stroke-width="0" stroke-linecap="butt"/><path d="M241.86097,192.07312v-2.72645c0,0 3.75242,2.08615 6.17252,1.47758c3.12004,-0.78459 5.43455,-2.1895 5.70871,-1.34589c0.19533,0.60105 -2.29856,3.44534 -5.63966,3.66616c-3.08444,0.20385 -6.24156,-1.07139 -6.24156,-1.07139z" data-paper-data="{&quot;index&quot;:null}" fill="#f32f00" stroke="none" stroke-width="0" stroke-linecap="butt"/><path d="M254.9865,187.60539c0.22284,0.34664 -0.08828,0.9438 -0.69491,1.33378c-0.60663,0.38998 -1.27906,0.4251 -1.50191,0.07846c-0.22285,-0.34664 0.27482,-0.38417 0.88146,-0.77416c0.60664,-0.38998 1.09252,-0.98473 1.31537,-0.63809z" fill="#f32f00" stroke="none" stroke-width="0" stroke-linecap="butt"/><g><g><g><path d="M216.37628,188.58975c0,0 -1.35079,-1.28199 -1.79878,-2.52237c-0.51706,-1.43161 -0.14127,-2.86974 -0.14127,-3.22607c0,-0.65334 1.94961,-0.55309 2.17849,-1.18323c0.33164,-0.91306 0.78054,-2.53915 1.90393,-3.3605c1.80028,-1.31625 6.60593,-1.51162 6.60593,-1.51162l2.17691,-2.67652c0,0 -0.91998,-2.8176 1.04548,-5.34511c0.46951,-0.60376 1.66797,-1.83107 2.56662,-2.224c0.95331,-0.41682 2.17564,0.19197 2.95656,-0.30308c1.82958,-1.15986 2.02608,-2.09697 3.4231,-2.09697c2.61597,0 4.94831,0 4.94831,0v30.03033l-1.65172,0.08106c0,0 -2.95224,1.90447 -5.64241,2.09317c-1.18041,0.08279 -4.30659,-1.48273 -4.75281,-1.46215c-1.53161,0.07066 -5.12323,-0.14949 -6.07853,-0.36826c-2.87757,-0.65899 -2.68107,-2.83657 -3.84806,-3.9829c-1.44978,-1.42412 -3.89175,-1.94178 -3.89175,-1.94178z" fill="#ffffff" stroke="#000000" stroke-width="0" stroke-linecap="butt"/><path d="M241.90529,194.53061c0,0 -0.37407,0.00142 -0.88518,-0.09909c-0.26043,-0.05121 -0.55644,-0.37058 -0.85666,-0.2325c-0.90679,0.41705 -1.8714,1.98409 -4.04691,1.99763c-4.63561,0.02887 -5.20547,-1.47563 -6.22489,-1.39553c-3.03083,0.23817 -2.88045,0.75305 -5.87088,-0.12364c-3.13443,-0.91891 -2.62236,-2.79956 -4.20688,-4.64598c-0.736,-0.85765 -2.07155,-0.68099 -3.18855,-1.51004c-1.97757,-1.46777 -2.5116,-4.33482 -2.19828,-5.36028c0.31331,-1.02546 1.89011,-0.488 2.30875,-1.53551c1.48249,-3.70953 4.4154,-5.2743 8.39717,-4.9519c0.53793,0.04356 1.65933,-1.89528 1.86801,-2.54593c0.47403,-1.47804 -0.26749,-3.5839 1.19424,-5.28266c0.75461,-0.87698 1.50439,-1.97506 2.93365,-2.56796c0.38982,-0.1617 2.19559,0.44997 2.53555,0.2658c1.60437,-0.86917 1.56556,-1.5887 3.23225,-2.12857c0.70737,-0.22912 1.25722,-0.76638 2.25712,-0.76246c1.35604,0.00531 2.81806,0.60756 2.81806,0.60756" fill="none" stroke="#a5a5a5" stroke-width="1.5" stroke-linecap="round"/></g><g stroke="none" stroke-width="0" stroke-linecap="butt"><path d="" fill="#6ff1ff"/><path d="M231.49825,169.6889c1.11197,-0.53857 5.08687,-1.03592 5.29943,-0.63876c0.25139,0.46972 -3.32017,1.63347 -4.12606,2.01327c-0.93199,0.43921 -2.84569,1.90669 -2.78499,1.33403c0.06126,-0.57798 0.49965,-2.16996 1.61161,-2.70853z" fill="#f32f00"/></g><path d="M221.36435,188.26035c0,0 2.47964,3.08195 5.05839,3.55874c1.02411,0.18935 0.53068,-1.55398 2.27507,-1.97997c0.60314,-0.14729 1.50192,0.79687 2.02647,1.0587c0.60333,0.30117 2.04473,1.03953 3.34636,0.72674c2.23906,-0.53806 2.40494,0.62507 4.51337,-0.13781c0.94746,-0.34282 1.49025,-1.28682 2.12032,-1.90292c0.77206,-0.75495 1.8198,-1.01798 1.8198,-1.01798v2.75328c0,0 -0.41923,0.19757 -0.89406,0.48628c-1.21532,0.73896 -3.60021,2.07502 -6.21308,2.2238c-1.00445,0.05719 -1.69945,-0.25447 -2.80484,-0.62127c-1.05841,-0.35121 -2.52929,-0.75299 -3.40983,-0.92995c-1.31933,-0.26513 -2.13944,0.42775 -2.92535,0.27518c-2.48055,-0.48155 -4.91262,-4.49283 -4.91262,-4.49283z" fill="#f32f00" stroke="none" stroke-width="0" stroke-linecap="butt"/></g><path d="M241.87558,187.7988c0.18429,0.3686 -0.74905,0.64914 -1.62446,1.08684c-0.87541,0.4377 -1.36138,0.86682 -1.54568,0.49822c-0.18429,-0.3686 0.37596,-1.02223 1.25137,-1.45993c0.87541,-0.4377 1.73447,-0.49373 1.91876,-0.12513z" fill="#f32f00" stroke="none" stroke-width="0" stroke-linecap="butt"/></g></g></g></svg>