<svg version="1.1" xmlns="http://www.w3.org/2000/svg" xmlns:xlink="http://www.w3.org/1999/xlink" width="109.33333" height="109.33333" viewBox="0,0,109.33333,109.33333"><g transform="translate(-185.33343,-125.33345)"><g data-paper-data="{&quot;isPaintingLayer&quot;:true}" fill-rule="nonzero" stroke="none" stroke-width="0" stroke-linecap="butt" stroke-linejoin="miter" stroke-miterlimit="10" stroke-dasharray="" stroke-dashoffset="0" style="mix-blend-mode: normal"><path d="M248.04037,174.9131c-0.25756,-1.97072 3.77413,-2.35967 6.50467,-1.00825c1.49331,0.73908 2.0367,2.72136 1.15179,3.35252c-0.95853,0.68367 -1.81928,-0.27113 -2.35377,-0.23609c-1.34719,0.08831 -1.23826,1.13231 -3.02592,1.13645c-2.01395,-0.23085 -1.96926,-0.89175 -2.27677,-3.24462z" data-paper-data="{&quot;index&quot;:null}" fill="#f29e4a"/><path d="M185.33344,234.66679v-109.33333h109.33333v109.33333z" fill="none"/><path d="M249.00656,173.36433l0.38076,6.20103c0,0 -2.43592,1.95487 -6.27883,2.43679c-5.73313,0.71895 -4.29702,-0.45379 -4.29702,-0.45379l1.61348,-7.99944c0,0 2.82268,0.55947 3.9079,0.39851c1.16571,-0.1729 4.6737,-0.58311 4.6737,-0.58311z" data-paper-data="{&quot;index&quot;:null}" fill="#908816"/><path d="M230.32723,193.87282c-1.43049,-2.67172 3.06817,-5.45167 3.06817,-5.45167c0,0 3.59689,5.32016 5.02736,7.99187c0.11609,0.21683 1.16166,3.59856 -2.83503,4.95527c-1.71883,0.58346 -5.26049,-7.49547 -5.26049,-7.49547z" data-paper-data="{&quot;index&quot;:null}" fill="#908816"/><path d="M246.80005,171.98116c0.64279,3.32952 -0.33908,8.81188 -1.64651,11.77446c-1.39924,3.17061 -3.06662,5.70399 -6.69421,5.80872c-13.6304,0.39354 -11.94516,-4.78827 -10.42875,-10.23199c0.53857,-1.93341 2.05129,-3.46517 2.99172,-4.6438c1.80827,-2.26627 3.64798,-3.22696 7.43703,-3.22696z" data-paper-data="{&quot;index&quot;:null}" fill="#908816"/><path d="M241.05243,172.16697l2.43672,-0.16252c0,0 -0.15311,8.37357 0.46627,9.74595c0.93855,2.07959 2.59958,-0.31038 2.59958,-0.31038c0,0 -3.0414,8.39209 -6.43995,10.08301c-0.68155,0.33909 -3.40072,2.14997 -3.40072,2.14997c0,0 -0.71853,-2.17245 -2.64765,-1.93974c-2.60956,0.3148 -7.18538,2.16539 -7.18538,2.16539l-2.75379,-5.31126c0,0 1.22084,-1.77756 1.70646,-2.33085c0.531,-0.605 -1.36014,-3.41802 2.2874,-7.92637c0.53808,-0.66506 0.97166,-0.63212 2.13937,-1.63725c1.74066,-1.4983 4.22063,-4.40131 4.22063,-4.40131l2.20623,-0.09862c0,0 -4.85499,8.56508 -3.98653,9.52377c1.52633,1.68493 5.08478,-0.53106 6.23499,-2.12866c1.15021,-1.5976 2.11637,-7.42113 2.11637,-7.42113z" data-paper-data="{&quot;index&quot;:null}" fill="#f32f00"/><path d="M226.78733,201.02468c-1.70721,0.63617 -3.3753,-3.81512 -5.41983,-7.33306c-2.04453,-3.51795 3.09097,-5.27905 3.09097,-5.27905c0,0 2.42311,3.14539 4.46765,6.66333c0,0 2.19096,4.33538 -2.13878,5.94879z" data-paper-data="{&quot;index&quot;:null}" fill="#908816"/><path d="M232.92717,164.57227c0,-4.85542 4.03781,-7.70348 10.90394,-7.4757c6.61047,0.2193 4.69022,2.12894 7.4405,4.34811c1.12532,0.908 3.24892,1.12351 4.66539,2.17303c1.41646,1.04952 2.3069,2.47596 2.3069,3.8055c0,0.93882 -1.66469,1.29868 -2.77421,1.49497c-1.96301,0.34728 -2.06196,2.37903 -3.87036,3.21789c-2.94335,1.36533 -4.95615,1.22771 -8.20683,1.22771c-4.92997,0 -7.87426,0.16604 -9.88711,-2.77308c-0.79206,-1.15655 -0.57823,-4.64736 -0.57823,-6.01844z" data-paper-data="{&quot;index&quot;:null}" fill="#f29e4a"/><path d="M244.16223,170.60974c-0.04146,-0.38096 0.95442,-0.44165 1.6617,-1.22063c0.64158,-0.70661 0.93681,-2.14784 2.04264,-2.26817c1.04463,-0.11367 2.02627,1.58691 3.39548,1.94923c1.67807,0.44405 3.66583,-0.38768 3.70937,0.01241c0.00949,0.08717 0.27304,1.77687 -0.16109,2.13249c-0.48808,0.39981 -1.68085,-0.53535 -1.68085,-0.53535c0,0 -0.71961,1.23475 -1.3328,1.52534c-1.2689,0.60133 -1.83782,-0.36864 -1.83782,-0.36864c0,0 -1.57212,0.89747 -2.06715,0.75744c-0.88916,-0.25151 -1.40015,-1.38467 -1.40015,-1.38467c0,0 -2.29256,-0.2615 -2.32934,-0.59946z" data-paper-data="{&quot;index&quot;:null}" fill="#908816"/><path d="M234.71399,158.51146c3.04434,-1.44057 7.05335,-2.37897 8.30893,-0.64016c0.68823,0.95312 -3.58922,5.24878 -3.04566,6.12274c0.52579,0.84537 1.39509,1.76705 1.0406,2.90197c-0.14822,0.47454 -0.65942,1.68985 -1.24746,1.78241c-0.61778,0.09724 -1.32036,-0.931 -1.77594,-0.50963c-1.10172,1.01899 -1.34566,3.28156 -2.40326,3.28156c-1.87981,0 -4.8447,0.24523 -5.66583,-1.33633c-1.57795,-3.03924 0.41035,-5.33428 0.62186,-6.33928c0.65791,-3.12613 1.12242,-3.82271 4.16676,-5.26328z" data-paper-data="{&quot;index&quot;:null}" fill="#908816"/><path d="M235.95373,166.73541c0,-1.63509 1.15284,-2.61749 1.94011,-2.61749c0.78727,0 1.42547,0.9824 1.42547,2.61749c0,1.63509 -0.6382,2.96059 -1.42547,2.96059c-0.78727,0 -1.94011,-1.3255 -1.94011,-2.96059z" data-paper-data="{&quot;index&quot;:null}" fill="#f29e4a"/><path d="M247.43355,160.70452c0.84782,0 1.53512,1.03094 1.53512,2.30268c0,1.27173 -0.6873,2.30268 -1.53512,2.30268c-0.84782,0 -1.53512,-1.03094 -1.53512,-2.30268c0,-1.27173 0.6873,-2.30268 1.53512,-2.30268z" data-paper-data="{&quot;index&quot;:null}" fill="#908816"/><path d="M231.64371,158.73084c0.3843,-0.75573 1.80687,-5.75107 10.85551,-5.26328c5.41768,0.29205 7.1849,3.7924 7.55483,3.7625c2.90251,-0.23459 6.15162,1.01267 6.15162,1.50077c0,0.84782 -5.74385,1.53512 -12.82924,1.53512c-7.08539,0 -12.60993,0.18992 -11.73272,-1.53512z" data-paper-data="{&quot;index&quot;:null}" fill="#f32f00"/><path d="M246.418,177.86037c0.32501,-2.13075 4.64257,-1.32209 7.0805,0.90803c1.33328,1.21963 1.30258,3.44849 0.1906,3.83964c-1.20449,0.42369 -1.8138,-0.83025 -2.3812,-0.95467c-1.43017,-0.31362 -1.63101,0.80688 -3.49474,0.27295c-2.02874,-0.84689 -1.78319,-1.52199 -1.39515,-4.06594z" data-paper-data="{&quot;index&quot;:null}" fill="#f29e4a"/><path d="M248.40823,175.81703l-1.39592,6.05386c0,0 -2.89079,1.18262 -6.71233,0.55336c-5.70126,-0.93878 -3.99124,-1.6554 -3.99124,-1.6554l3.81878,-7.21188c0,0 2.54758,1.33804 3.63383,1.49189c1.16682,0.16527 4.64687,0.76816 4.64687,0.76816z" data-paper-data="{&quot;index&quot;:null}" fill="#908816"/></g></g></svg>