<svg version="1.1" xmlns="http://www.w3.org/2000/svg" xmlns:xlink="http://www.w3.org/1999/xlink" width="81.67068" height="81.67068" viewBox="0,0,81.67068,81.67068"><g transform="translate(-199.16466,-139.16466)"><g data-paper-data="{&quot;isPaintingLayer&quot;:true}" fill-rule="nonzero" stroke-width="0" stroke-linecap="butt" stroke-linejoin="miter" stroke-miterlimit="10" stroke-dasharray="" stroke-dashoffset="0" style="mix-blend-mode: normal"><path d="M199.16466,220.83534v-81.67068h81.67068v81.67068z" data-paper-data="{&quot;index&quot;:null}" fill="none" stroke="none"/><path d="M253.40516,201.48309c-1.30761,1.29814 -13.24917,-7.67087 -13.24917,-7.67087c0,0 -11.70058,9.44173 -13.13928,7.91627c-1.40172,-1.48625 2.3992,-16.52979 2.3992,-16.52979c0,0 -10.34901,-9.4308 -9.69948,-11.59103c0.56687,-1.88534 13.67383,-2.54431 13.67383,-2.54431c0,0 5.02911,-13.06389 6.48581,-12.95798c1.87088,0.13603 6.71214,12.83489 6.71214,12.83489c0,0 13.29309,0.56042 13.70669,2.27176c0.49864,2.06319 -9.52572,11.78864 -9.52572,11.78864c0,0 4.01586,15.11254 2.63599,16.48241z" fill="#8e380a" stroke="#000000"/><path d="M235.95104,174.93564c1.10536,0 2.00143,1.82201 2.00143,4.06957c0,2.24756 -0.89607,4.06957 -2.00143,4.06957c-1.10536,0 -2.00143,-1.82201 -2.00143,-4.06957c0,-2.24756 0.89607,-4.06957 2.00143,-4.06957z" fill="#dc570f" stroke="#000000"/><path d="M244.0499,174.8022c1.10536,0 2.00143,1.82202 2.00143,4.06958c0,2.24756 -0.89607,4.06957 -2.00143,4.06957c-1.10536,0 -2.00143,-1.82201 -2.00143,-4.06957c0,-2.24756 0.89607,-4.06958 2.00143,-4.06958z" fill="#dc570f" stroke="#000000"/></g></g></svg>