<svg version="1.1" xmlns="http://www.w3.org/2000/svg" xmlns:xlink="http://www.w3.org/1999/xlink" width="42.31606" height="41.51665" viewBox="0,0,42.31606,41.51665"><g transform="translate(-219.07746,-159.09767)"><g data-paper-data="{&quot;isPaintingLayer&quot;:true}" fill-rule="nonzero" stroke="none" stroke-width="0" stroke-linecap="butt" stroke-linejoin="miter" stroke-miterlimit="10" stroke-dasharray="" stroke-dashoffset="0" style="mix-blend-mode: normal"><g><g><path d="M219.55374,200.58049v-41.02112h41.02113v41.02112z" fill="#dc570f"/><g fill="#752e08"><path d="M219.42616,200.61432v-3.60894h41.26032v3.60894z"/><path d="M219.42616,190.30309v-3.60894h41.2603v3.60894z"/><path d="M219.42616,180.16371v-3.60893h41.2603v3.60893z"/><path d="M219.42616,169.85249v-3.60894h41.2603v3.60894z"/><g><path d="M236.97313,166.41542v-6.87414h3.47847v6.87414z"/><path d="M257.10536,166.30384v-6.87415h3.47845v6.87415z"/></g><g><path d="M226.85398,176.5548v-6.87414h3.47846v6.87414z"/><path d="M246.98619,176.61132v-6.87415h3.47847v6.87415z"/></g><g><path d="M236.97313,186.86225v-7.21035h3.47847v7.21035z"/><path d="M257.10536,186.91878v-7.21036h3.47845v7.21036z"/></g><g><path d="M226.85398,197.00538v-6.87414h3.47846v6.87414z"/><path d="M246.98619,197.06191v-6.87415h3.47847v6.87415z"/></g></g></g><path d="M219.07746,163.80261v-4.70494h11.8662v17.14597l19.22848,0.07346l-0.01806,-17.0884h11.23944v4.57391h-7.94623l0.0009,16.1408l-26.34662,-0.04064v-16.10016z" fill="#ffe2e2"/></g></g></g></svg>