<svg version="1.1" xmlns="http://www.w3.org/2000/svg" xmlns:xlink="http://www.w3.org/1999/xlink" width="85.49398" height="85.49398" viewBox="0,0,85.49398,85.49398"><defs><linearGradient x1="-3285.69704" y1="-2895.28054" x2="-3285.69704" y2="4105.40968" gradientUnits="userSpaceOnUse" id="color-1"><stop offset="0" stop-color="#ffffff"/><stop offset="1" stop-color="#ffffff" stop-opacity="0"/></linearGradient></defs><g transform="translate(-197.25301,-137.25301)"><g data-paper-data="{&quot;isPaintingLayer&quot;:true}" fill-rule="nonzero" stroke-linecap="butt" stroke-linejoin="miter" stroke-miterlimit="10" stroke-dasharray="" stroke-dashoffset="0" style="mix-blend-mode: normal"><path d="M197.25301,222.74699v-85.49398h85.49398v85.49398z" fill="none" stroke="none" stroke-width="0"/><path d="M208.63952,205.58014c0.00324,-13.1024 0,-44.63208 0,-51.75c0,-3.5626 2.97813,-5.21784 6.54073,-5.21784c12.68063,0 43.89984,0 51,0c2.96729,0 5.18024,2.50056 5.18024,5.46784c0,6.43742 0,39.20833 0,51.75c0,2.95974 -2.72049,5.55758 -5.68024,5.55758c-6.61442,0 -39.17756,0 -52,0c-3.13138,0 -5.04177,-1.58613 -5.04073,-5.80758z" fill="url(#color-1)" stroke="#a97a4a" stroke-width="2"/><g stroke-width="0"><path d="M222.51254,183.92423c0,0 1.04021,1.33443 2.90436,1.33443c1.86415,0 3.37533,-1.30032 3.37533,-2.90435c0,-1.60403 -1.33443,-2.43338 -1.33443,-2.43338c0,0 1.05551,2.32826 -0.76658,3.62874c-2.03304,1.45104 -4.17867,0.37456 -4.17867,0.37456z" fill="#f32f00" stroke="#a97a4a"/><path d="M250.61414,183.92423c0,0 1.04021,1.33443 2.90436,1.33443c1.86415,0 3.37533,-1.30032 3.37533,-2.90435c0,-1.60403 -1.33443,-2.43338 -1.33443,-2.43338c0,0 1.0555,2.32826 -0.76658,3.62874c-2.03304,1.45104 -4.17867,0.37456 -4.17867,0.37456z" fill="#f32f00" stroke="#a97a4a"/><path d="M236.32785,183.92423c0,0 1.04021,1.33443 2.90436,1.33443c1.86415,0 3.37533,-1.30032 3.37533,-2.90435c0,-1.60403 -1.33444,-2.43338 -1.33444,-2.43338c0,0 1.05551,2.32826 -0.76658,3.62874c-2.03304,1.45104 -4.17867,0.37456 -4.17867,0.37456z" fill="#f32f00" stroke="#a97a4a"/><g stroke="none"><path d="M219.62787,187.6747v-13.36864h40.74426v13.36864zM253.5016,184.70087c1.38071,0 3.12797,-1.11929 3.12797,-2.5c0,-1.38071 -1.74726,-2.5 -3.12797,-2.5c-1.38071,0 -3.12797,1.11929 -3.12797,2.5c0,1.38071 1.74726,2.5 3.12797,2.5zM225.46631,184.70087c1.38071,0 3.12797,-1.11929 3.12797,-2.5c0,-1.38071 -1.74726,-2.5 -3.12797,-2.5c-1.38071,0 -3.12797,1.11929 -3.12797,2.5c0,1.38071 1.74726,2.5 3.12797,2.5zM239.16199,184.70087c1.38071,0 3.12797,-1.11929 3.12797,-2.5c0,-1.38071 -1.74726,-2.5 -3.12797,-2.5c-1.38071,0 -3.12797,1.11929 -3.12797,2.5c0,1.38071 1.74726,2.5 3.12797,2.5z" data-paper-data="{&quot;index&quot;:null}" fill="#f29e4a"/><path d="M219.62787,178.5495v-2.19492h40.74426v2.19492z" data-paper-data="{&quot;index&quot;:null}" fill="#f32f00"/><path d="M219.62787,187.6747v-2.19493h40.74426v2.19493z" data-paper-data="{&quot;index&quot;:null}" fill="#f32f00"/><path d="M219.62787,176.31476v-2.19492h40.74426v2.19492z" data-paper-data="{&quot;index&quot;:null}" fill="#ffffff"/></g></g></g></g></svg>