<svg version="1.1" xmlns="http://www.w3.org/2000/svg" xmlns:xlink="http://www.w3.org/1999/xlink" width="85.49398" height="85.49398" viewBox="0,0,85.49398,85.49398"><defs><linearGradient x1="-3285.69704" y1="-2895.28054" x2="-3285.69704" y2="4105.40968" gradientUnits="userSpaceOnUse" id="color-1"><stop offset="0" stop-color="#ffffff"/><stop offset="1" stop-color="#ffffff" stop-opacity="0"/></linearGradient></defs><g transform="translate(-197.25301,-137.25301)"><g data-paper-data="{&quot;isPaintingLayer&quot;:true}" fill-rule="nonzero" stroke-linecap="butt" stroke-linejoin="miter" stroke-miterlimit="10" stroke-dasharray="" stroke-dashoffset="0" style="mix-blend-mode: normal"><path d="M197.25301,222.74699v-85.49398h85.49398v85.49398z" fill="none" stroke="none" stroke-width="0"/><path d="M208.63952,205.58014c0.00324,-13.1024 0,-44.63208 0,-51.75c0,-3.5626 2.97813,-5.21784 6.54073,-5.21784c12.68063,0 43.89984,0 51,0c2.96729,0 5.18024,2.50056 5.18024,5.46784c0,6.43742 0,39.20833 0,51.75c0,2.95974 -2.72049,5.55758 -5.68024,5.55758c-6.61442,0 -39.17756,0 -52,0c-3.13138,0 -5.04177,-1.58613 -5.04073,-5.80758z" fill="url(#color-1)" stroke="#a97a4a" stroke-width="2"/><g><g data-paper-data="{&quot;index&quot;:null}"><path d="M240.0618,182.29983c7.73847,0 12.78351,0.09341 12.82565,0.67731c0.05926,0.82122 1.52398,1.54298 1.02717,2.43294c-1.97985,3.54654 -7.66667,7.17361 -13.85283,7.17361c-6.77107,0 -12.81405,-4.24404 -14.21912,-7.52213c-0.20075,-0.46835 0.83499,-1.78843 0.83499,-2.14344c0,-0.78304 5.64565,-0.61829 13.38412,-0.61829z" data-paper-data="{&quot;index&quot;:null}" fill="#ffffff" stroke="none" stroke-width="NaN"/><g><g fill="#ffffff" stroke="none" stroke-width="0"><g><path d="M228.10683,182.04274c0.5607,0 1.52054,-0.34226 1.82812,1.71869c0.31554,2.11435 -0.02844,6.67708 -0.02844,10.23628c0,7.02852 0.62173,12.98336 -0.51419,12.98336c-1.13592,0 -3.82299,-5.70375 -4.11354,-12.72627c-0.51419,-12.42754 1.69214,-12.21207 2.82806,-12.21207z"/><path d="M254.49474,194.32555c-0.29056,7.02251 -2.97761,12.72627 -4.11354,12.72627c-1.13592,0 -0.51419,-5.95484 -0.51419,-12.98336c0,-3.55921 -0.34398,-8.12193 -0.02844,-10.23628c0.30758,-2.06095 1.26742,-1.71869 1.82812,-1.71869c1.13592,0 3.34225,-0.21547 2.82806,12.21207z" data-paper-data="{&quot;index&quot;:null}"/></g><path d="M232.29111,196.63942c-0.51419,-12.42754 1.69214,-12.21207 2.82806,-12.21207c0.5607,0 1.52054,-0.34226 1.82812,1.71869c0.31554,2.11435 -0.02844,6.67708 -0.02844,10.23628c0,7.02852 0.62174,12.98336 -0.51419,12.98336c-1.13592,0 -3.82299,-5.70375 -4.11354,-12.72627z"/><path d="M247.36679,196.71017c-0.29056,7.02251 -2.97761,12.72627 -4.11354,12.72627c-1.13592,0 -0.51419,-5.95485 -0.51419,-12.98336c0,-3.55921 -0.34398,-8.12193 -0.02844,-10.23628c0.30758,-2.06095 1.26742,-1.71869 1.82812,-1.71869c1.13592,0 3.34225,-0.21547 2.82806,12.21207z" data-paper-data="{&quot;index&quot;:null}"/></g><g><g stroke="none"><g><g fill="#ffffff"><path d="M252.29768,182.33232l-24.59283,-0.0192c0,0 -0.8671,-12.06759 2.12661,-19.05788c2.67042,-6.2354 7.24274,-12.69167 10.19972,-12.69167c3.12958,0 7.44518,5.62275 9.81317,12.40148c3.13024,8.96077 2.45333,19.36729 2.45333,19.36729z" stroke-width="NaN"/><g stroke-width="0"><path d="M220.49825,166.9314c-0.25105,-1.98626 5.29143,-6.82939 9.61275,-10.5125c3.95354,-3.36965 6.59163,-5.68456 8.89818,-5.68456c5.56767,0 0.34034,5.69177 -3.35656,10.78766c-1.72592,2.37905 -3.81379,6.43779 -6.41309,6.43779c-4.82767,0 -8.48417,1.00567 -8.74127,-1.02839z"/><path d="M259.50174,167.00215c-0.2571,2.03406 -3.9136,1.02839 -8.74127,1.02839c-2.5993,0 -4.68717,-4.05874 -6.41309,-6.43779c-3.6969,-5.0959 -8.92423,-10.78766 -3.35656,-10.78766c2.30655,0 4.94464,2.3149 8.89818,5.68457c4.32132,3.68312 9.8638,8.52624 9.61275,10.5125z" data-paper-data="{&quot;index&quot;:null}"/></g></g><g fill="#aeaeae" stroke-width="0"><path d="M231.55339,158.96141c3.39997,-6.39366 6.88783,-8.22707 7.45579,-8.22707c0.23654,0 0.7798,0.73773 0.11744,1.62977c-0.92809,1.24991 -3.4802,3.55518 -6.03064,8.65408c-1.58631,3.17139 -3.32022,6.17185 -4.30752,7.85629c-0.515,0.87862 -0.6397,1.39918 -0.8344,1.39918c-0.56796,0 -0.17645,-4.21181 3.59935,-11.31224z"/><path d="M248.17433,159.03215c3.7758,7.10042 4.16731,11.31224 3.59935,11.31224c-0.1947,0 -0.31941,-0.52056 -0.8344,-1.39918c-0.98731,-1.68443 -2.72121,-4.68489 -4.30752,-7.85629c-2.55043,-5.09889 -5.10255,-7.40417 -6.03064,-8.65408c-0.66236,-0.89204 -0.1191,-1.62977 0.11743,-1.62977c0.56796,0 4.05582,1.83342 7.45579,8.22708z" data-paper-data="{&quot;index&quot;:null}"/></g></g><path d="M227.33727,182.61427v-7.19869c0,0 1.73381,-2.40714 12.59772,-2.57097c10.561,-0.15925 12.34062,2.57097 12.34062,2.57097v7.19869c0,0 0.83534,2.05676 -12.34062,2.05676c-12.61892,0 -12.59772,-2.05676 -12.59772,-2.05676z" fill="#000000" stroke-width="0"/></g><path d="M228.49421,180.04331c0,-2.27185 1.8417,-4.11354 4.11354,-4.11354c2.27185,0 4.11354,1.8417 4.11354,4.11354c0,2.27185 -1.84169,4.11354 -4.11354,4.11354c-2.27185,0 -4.11354,-1.84169 -4.11354,-4.11354z" fill="none" stroke="#ffffff" stroke-width="2.5"/><path d="M243.09089,179.98551c0,-2.27185 1.8417,-4.11354 4.11354,-4.11354c2.27185,0 4.11354,1.8417 4.11354,4.11354c0,2.27185 -1.84169,4.11354 -4.11354,4.11354c-2.27185,0 -4.11354,-1.84169 -4.11354,-4.11354z" fill="none" stroke="#ffffff" stroke-width="2.5"/></g></g></g><path d="M247.71985,185.13247c1.89181,0 3.42542,-0.74014 3.42542,-0.24467c0,0.49547 -1.53362,1.54959 -3.42542,1.54959c-1.89181,0 -3.42542,-0.7279 -3.42542,-1.22337c0,-0.49547 1.53362,-0.08156 3.42542,-0.08156z" data-paper-data="{&quot;index&quot;:null}" fill="#aeaeae" stroke="none" stroke-width="0"/><path d="M235.40465,185.29558c0,0.49548 -1.53361,1.22337 -3.42542,1.22337c-1.89181,0 -3.42542,-1.05412 -3.42542,-1.5496c0,-0.49548 1.53361,0.24468 3.42542,0.24468c1.89181,0 3.42542,-0.41392 3.42542,0.08156z" data-paper-data="{&quot;index&quot;:null}" fill="#aeaeae" stroke="none" stroke-width="0"/><g fill="#aeaeae" stroke="none" stroke-width="0"><g><path d="M228.21895,190.96966c-0.06991,1.19629 -2.97103,1.43308 -2.97103,1.43308c0,0 -0.10485,-0.58633 -0.10485,-1.22337c0,-0.63703 -0.04729,-0.7515 0.08738,-1.52047c0.99946,-0.13848 3.02567,0.6748 2.98851,1.31075z"/><path d="M227.60299,195.19297c-0.00613,0.90852 -2.1935,1.20132 -2.1935,1.20132c0,0 -0.10233,-0.43985 -0.12726,-0.92219c-0.02492,-0.48235 -0.0652,-0.56716 0.00668,-1.15467c0.75134,-0.14396 2.31733,0.39257 2.31408,0.87555z"/><path d="M227.93342,199.35118c0.11297,0.78697 -1.74172,1.32509 -1.74172,1.32509c0,0 -0.14581,-0.3673 -0.23017,-0.78144c-0.08435,-0.41414 -0.13026,-0.48229 -0.14454,-1.00004c0.63143,-0.22238 2.05637,0.03803 2.11643,0.45639z"/></g><g><path d="M235.29222,194.97341c-0.06991,1.19629 -2.97102,1.43308 -2.97102,1.43308c0,0 -0.10485,-0.58633 -0.10485,-1.22337c0,-0.63703 -0.04729,-0.7515 0.08738,-1.52047c0.99947,-0.13848 3.02566,0.6748 2.9885,1.31075z"/><path d="M234.80029,199.13571c0.04111,0.90761 -2.12809,1.31371 -2.12809,1.31371c0,0 -0.12506,-0.43394 -0.17502,-0.91433c-0.04996,-0.48039 -0.09459,-0.56301 -0.05335,-1.15345c0.74285,-0.18281 2.33461,0.27158 2.35646,0.75407z"/><path d="M235.36608,203.25886c0.18534,0.77313 -1.61155,1.48066 -1.61155,1.48066c0,0 -0.17919,-0.35222 -0.30153,-0.75677c-0.12234,-0.40455 -0.17435,-0.46816 -0.2365,-0.98237c0.60813,-0.27989 2.05105,-0.15251 2.14959,0.25848z"/></g></g><g data-paper-data="{&quot;index&quot;:null}" fill="#aeaeae" stroke="none" stroke-width="0"><g><path d="M254.52426,189.65892c0.13466,0.76897 0.08738,0.88343 0.08738,1.52047c0,0.63703 -0.10485,1.22337 -0.10485,1.22337c0,0 -2.90111,-0.23679 -2.97103,-1.43308c-0.03716,-0.63595 1.98904,-1.44923 2.98851,-1.31075z"/><path d="M254.46578,194.31742c0.07188,0.58751 0.0316,0.67232 0.00668,1.15467c-0.02492,0.48235 -0.12725,0.92219 -0.12725,0.92219c0,0 -2.18737,-0.29279 -2.19351,-1.20132c-0.00326,-0.48297 1.56273,-1.0195 2.31408,-0.87555z"/><path d="M253.9377,198.89479c-0.01428,0.51774 -0.06017,0.5859 -0.14454,1.00004c-0.08435,0.41414 -0.23017,0.78144 -0.23017,0.78144c0,0 -1.85468,-0.53812 -1.74172,-1.32509c0.06006,-0.41835 1.48499,-0.67877 2.11642,-0.45639z"/></g><g><path d="M247.45098,193.66265c0.13467,0.76897 0.08738,0.88343 0.08738,1.52047c0,0.63703 -0.10485,1.22337 -0.10485,1.22337c0,0 -2.90112,-0.23679 -2.97103,-1.43308c-0.03716,-0.63595 1.98904,-1.44923 2.9885,-1.31075z"/><path d="M247.31087,198.38164c0.04124,0.59045 -0.00339,0.67306 -0.05335,1.15345c-0.04996,0.48039 -0.17502,0.91433 -0.17502,0.91433c0,0 -2.16919,-0.4061 -2.12809,-1.31371c0.02185,-0.48249 1.61361,-0.93689 2.35646,-0.75407z"/><path d="M246.5382,203.00038c-0.06216,0.51419 -0.11417,0.57782 -0.2365,0.98237c-0.12233,0.40455 -0.30153,0.75677 -0.30153,0.75677c0,0 -1.79689,-0.70751 -1.61156,-1.48065c0.09853,-0.411 1.54146,-0.53837 2.14959,-0.25848z"/></g></g></g></g></g></svg>