<svg version="1.1" xmlns="http://www.w3.org/2000/svg" xmlns:xlink="http://www.w3.org/1999/xlink" width="85.49398" height="85.49398" viewBox="0,0,85.49398,85.49398"><defs><linearGradient x1="-3285.69704" y1="-2895.28054" x2="-3285.69704" y2="4105.40968" gradientUnits="userSpaceOnUse" id="color-1"><stop offset="0" stop-color="#ffffff"/><stop offset="1" stop-color="#ffffff" stop-opacity="0"/></linearGradient></defs><g transform="translate(-197.25302,-137.25302)"><g data-paper-data="{&quot;isPaintingLayer&quot;:true}" fill-rule="nonzero" stroke-linejoin="miter" stroke-miterlimit="10" stroke-dasharray="" stroke-dashoffset="0" style="mix-blend-mode: normal"><path d="M197.25302,222.74701v-85.49398h85.49398v85.49398z" fill="none" stroke="none" stroke-width="0" stroke-linecap="butt"/><path d="M208.63952,205.58014c0.00324,-13.1024 0,-44.63208 0,-51.75c0,-3.5626 2.97813,-5.21784 6.54073,-5.21784c12.68063,0 43.89984,0 51,0c2.96729,0 5.18024,2.50056 5.18024,5.46784c0,6.43742 0,39.20833 0,51.75c0,2.95974 -2.72049,5.55758 -5.68024,5.55758c-6.61442,0 -39.17756,0 -52,0c-3.13138,0 -5.04177,-1.58613 -5.04073,-5.80758z" fill="url(#color-1)" stroke="#a97a4a" stroke-width="2" stroke-linecap="butt"/><path d="M207.25301,212.74699v-65.49398h65.49398v65.49398z" fill="none" stroke="none" stroke-width="0" stroke-linecap="butt"/><g fill="none" stroke="#ff0000"><path d="M223.29131,191.86802c0,-7.09959 0,-20.0626 0,-23.95997c0,-2.86562 2.08701,-4.61674 4.95263,-4.61674c3.97787,0 16.27863,0 23.28819,0c2.85442,0 5.17656,1.31447 5.17656,4.84067c0,3.78475 0,15.81703 0,23.06427c0,2.9879 -1.51689,5.51244 -4.95263,5.51244c-6.83419,0 -19.40356,0 -23.51211,0c-2.3299,0 -4.95263,-1.5478 -4.95263,-4.84067z" stroke-width="5.5" stroke-linecap="butt"/><path d="M253.99531,165.44489l-27.09491,27.54276" stroke-width="4" stroke-linecap="round"/></g></g></g></svg>