<svg version="1.1" xmlns="http://www.w3.org/2000/svg" xmlns:xlink="http://www.w3.org/1999/xlink" width="81.67068" height="81.67068" viewBox="0,0,81.67068,81.67068"><g transform="translate(-199.16466,-139.16466)"><g data-paper-data="{&quot;isPaintingLayer&quot;:true}" fill-rule="nonzero" stroke="none" stroke-linecap="butt" stroke-linejoin="miter" stroke-miterlimit="10" stroke-dasharray="" stroke-dashoffset="0" style="mix-blend-mode: normal"><path d="M199.16466,220.83534v-81.67068h81.67068v81.67068z" data-paper-data="{&quot;index&quot;:null}" fill="none" stroke-width="0"/><g><g><path d="M240.14643,166.05887c8.59232,0 14.55406,8.80903 17.23067,15.49076c3.09445,7.72483 -8.80621,11.9774 -17.46966,11.9774c-8.66923,0 -20.24113,-4.74412 -17.32626,-11.65799c3.59051,-8.51643 8.97292,-15.81016 17.56525,-15.81016z" data-paper-data="{&quot;index&quot;:null}" fill="#f29e4a" stroke-width="0"/><g data-paper-data="{&quot;index&quot;:null}" fill="none" stroke-width="1" font-family="sans-serif" font-weight="normal" font-size="12" text-anchor="start"><g data-paper-data="{&quot;index&quot;:null}"/><g data-paper-data="{&quot;index&quot;:null}"/><g data-paper-data="{&quot;index&quot;:null}"/></g></g><path d="M227.00149,181.4043c0,-3.25036 2.76016,-5.88532 6.16501,-5.88532c3.40484,0 6.16501,2.63495 6.16501,5.88532c0,3.25036 -2.76016,5.88532 -6.16501,5.88532c-3.40484,0 -6.16501,-2.63495 -6.16501,-5.88532z" fill="#f32f00" stroke-width="0"/><path d="M241.95115,170.99992c0,-1.80699 2.19571,-4.20651 2.19571,-4.20651c0,0 2.91627,0.99711 4.8012,2.59138c2.47408,2.09258 4.33085,4.83295 4.33085,4.83295c0,0 -3.00196,2.66749 -5.16276,2.66749c-3.40484,0 -6.16501,-2.63496 -6.16501,-5.88532z" fill="#f32f00" stroke-width="0"/><path d="M254.5796,183.68479c0.62443,1.96085 -0.42349,4.00146 -2.3406,4.55782c-1.91711,0.55635 -3.97742,-0.58221 -4.60186,-2.54308c-0.62443,-1.96085 0.42349,-4.00146 2.3406,-4.55782c1.91711,-0.55635 3.97742,0.58221 4.60186,2.54308z" fill="#f32f00" stroke-width="0"/><path d="M226.12643,189.54106c0,0 6.8719,0.94008 13.94222,0.94008c7.07032,0 14.25319,-0.84114 14.25319,-0.84114c0,0 -5.31701,4.10671 -14.46052,4.00775c-8.21006,-0.08885 -13.73489,-4.10671 -13.73489,-4.10671z" fill="#f32f00" stroke-width="0"/><path d="M240.22687,191.39762c4.8967,0 8.86627,-0.08931 8.86627,2.74556c0,2.83488 -3.96956,5.13299 -8.86627,5.13299c-4.8967,0 -8.86627,-2.29813 -8.86627,-5.13299c0,-2.83489 3.96956,-2.74556 8.86627,-2.74556z" fill="#ffffff" stroke-width="0"/></g></g></g></svg>