<svg version="1.1" xmlns="http://www.w3.org/2000/svg" xmlns:xlink="http://www.w3.org/1999/xlink" width="81.67068" height="81.67068" viewBox="0,0,81.67068,81.67068"><g transform="translate(-199.16466,-139.16466)"><g data-paper-data="{&quot;isPaintingLayer&quot;:true}" fill-rule="nonzero" stroke="none" stroke-width="0" stroke-linecap="butt" stroke-linejoin="miter" stroke-miterlimit="10" stroke-dasharray="" stroke-dashoffset="0" style="mix-blend-mode: normal"><path d="M199.16466,220.83534v-81.67068h81.67068v81.67068z" data-paper-data="{&quot;index&quot;:null}" fill="none"/><g><path d="M236.91495,200.53125v-41.03081h6.04778v41.03081z" fill="#20ad00"/><path d="M222.19724,167.84595c0,0 0.88161,-7.50141 7.85446,-8.39849c3.71277,-0.47766 7.1368,3.37484 7.1368,3.37484c0,0 -1.9581,6.06608 -5.70147,6.06608c-3.74337,0 -9.28979,-1.04244 -9.28979,-1.04244z" fill="#20ad00"/><path d="M257.46249,188.11994c0,0 -5.54642,1.04244 -9.28979,1.04244c-3.74337,0 -5.70147,-6.06608 -5.70147,-6.06608c0,0 3.42403,-3.8525 7.13679,-3.37484c6.97285,0.89708 7.85447,8.39848 7.85447,8.39848z" data-paper-data="{&quot;index&quot;:null}" fill="#20ad00"/><path d="M227.00163,164.88557c0,-0.64407 2.06975,-2.96036 4.84423,-2.96036c2.77448,0 5.20306,1.06037 5.20306,1.70445c0,0.64408 -2.42858,0.62796 -5.20306,0.62796c-2.77448,0 -4.84423,1.27204 -4.84423,0.62796z" fill="#f29e4a"/><path d="M253.01693,184.80074c0,0.64407 -2.06974,-0.62796 -4.84422,-0.62796c-2.77448,0 -5.20306,0.01612 -5.20306,-0.62795c0,-0.64407 2.42858,-1.70445 5.20306,-1.70445c2.77448,0 4.84422,2.31629 4.84422,2.96036z" data-paper-data="{&quot;index&quot;:null}" fill="#f29e4a"/></g></g></g></svg>