<svg version="1.1" xmlns="http://www.w3.org/2000/svg" xmlns:xlink="http://www.w3.org/1999/xlink" width="109.33333" height="109.33333" viewBox="0,0,109.33333,109.33333"><g transform="translate(-185.33334,-125.33334)"><g data-paper-data="{&quot;isPaintingLayer&quot;:true}" fill-rule="nonzero" stroke="none" stroke-width="0" stroke-linecap="butt" stroke-linejoin="miter" stroke-miterlimit="10" stroke-dasharray="" stroke-dashoffset="0" style="mix-blend-mode: normal"><path d="M185.33334,234.66667v-109.33333h109.33333v109.33333z" fill="none"/><g><path d="M260.11518,178.27267c0.57578,2.31191 0.65378,6.03955 -3.99041,6.03955c-2.94984,0 -3.09609,-1.44112 -4.35326,-2.63896c-0.70355,-0.67035 -3.08833,-0.82009 -3.08833,-1.675c0,-1.22448 0.85303,-2.40785 1.86242,-3.13c0.95463,-0.68298 3.08206,-1.18396 4.50068,-1.18396c3.1343,0 4.42181,-0.00985 5.06891,2.58839z" data-paper-data="{&quot;index&quot;:null}" fill="#f29e4a"/><path d="M246.46949,200.09539c-3.36063,0 -3.72363,-5.17675 -3.72363,-5.17675c0,0 7.0837,-0.64709 10.44433,-0.64709c0.27274,0 5.4393,0.66152 4.67365,4.74536c-0.32928,1.75631 -11.39435,1.07848 -11.39435,1.07848z" data-paper-data="{&quot;index&quot;:null}" fill="#908816"/><path d="M226.02915,194.05572c3.99075,0 12.40264,0.64709 12.40264,0.64709c0,0 -0.43107,5.17675 -4.42181,5.17675c-3.99075,0 -11.66936,0.68271 -11.97126,-1.07849c-0.76565,-4.46666 3.99043,-4.74535 3.99043,-4.74535z" data-paper-data="{&quot;index&quot;:null}" fill="#908816"/><path d="M239.62687,154.00094c5.649,0 10.10229,3.95759 11.00037,12.16762c1.54391,14.11409 -5.35373,14.24052 -11.00037,14.48526c-13.36856,0.5794 -11.7157,-7.04983 -10.22842,-15.06467c1.54391,-8.31999 4.57943,-11.58821 10.22842,-11.58821z" data-paper-data="{&quot;index&quot;:null}" fill="#908816"/><path d="M248.00198,173.24538c-0.86619,-1.12496 -3.66679,-2.75708 -3.66679,-2.75708l-0.38598,-15.0386c0,0 6.04676,2.4096 10.69636,8.17885c3.11661,3.8671 5.12873,13.37648 5.12873,13.37648l-10.97767,1.29517c0,0 0.13577,-3.84643 -0.79466,-5.05483z" data-paper-data="{&quot;index&quot;:null}" fill="#908816"/><path d="M229.08889,180.07443c0,0 -4.6198,-3.43819 -6.66225,-3.43819c-1.55272,0 -4.53111,1.12055 -4.53111,1.12055c0,0 2.01212,-9.50938 5.12873,-13.37648c4.6496,-5.76924 10.69636,-8.17885 10.69636,-8.17885l-0.38598,15.0386c0,0 -2.8006,1.63211 -3.66679,2.75708c-0.93044,1.20839 -0.57897,6.07729 -0.57897,6.07729z" data-paper-data="{&quot;index&quot;:null}" fill="#908816"/><path d="M236.76301,154.06916l2.93863,-0.27991c0,0 -0.86684,12.22007 0.95165,14.51401c0.47915,0.60444 2.84959,1.02583 3.80176,-0.95948c0.94247,-1.96506 0.46919,-11.95979 0.46919,-11.95979l2.84893,2.51691c0,0 2.117,7.9709 3.08583,13.15403c0.96883,5.18313 0.40165,4.67677 0.73427,7.28291c0.18953,1.48492 2.33881,5.41403 2.9356,7.65373c0.90517,3.39703 -0.02211,8.58519 -0.02211,8.58519l-12.2027,0.41074c0,0 1.09237,-2.49067 0.90883,-4.82631c-0.10648,-1.35517 -1.41536,-3.69325 -2.74268,-3.72014c-1.35674,-0.02749 -2.73278,2.28623 -2.86367,3.66953c-0.21441,2.26596 0.82635,4.67697 0.82635,4.67697l-12.75884,-0.22273c0,0 -0.85039,-6.52038 -0.23832,-8.86605c0.69898,-2.67877 3.39202,-13.51367 3.39202,-13.51367c0,0 4.09439,-2.94801 5.19198,-5.95334c1.44875,-3.96683 2.74328,-12.1626 2.74328,-12.1626z" data-paper-data="{&quot;index&quot;:null}" fill="#f32f00"/><path d="M222.75019,175.68421c1.41862,0 3.54604,0.50098 4.50068,1.18396c1.00939,0.72215 1.86242,1.90552 1.86242,3.13c0,0.85491 -2.38478,1.00465 -3.08833,1.675c-1.25717,1.19784 -1.40342,2.63896 -4.35326,2.63896c-4.64419,0 -4.5662,-3.72764 -3.99041,-6.03955c0.64709,-2.59823 1.9346,-2.58837 5.06891,-2.58837z" data-paper-data="{&quot;index&quot;:null}" fill="#f29e4a"/><path d="M236.87841,172.12017c0,-0.89345 0.72428,-1.61773 1.61773,-1.61773c0.89345,0 1.61773,0.72428 1.61773,1.61773c0,0.89345 -0.72428,1.61773 -1.61773,1.61773c-0.89345,0 -1.61773,-0.72428 -1.61773,-1.61773z" data-paper-data="{&quot;index&quot;:null}" fill="#f29e4a"/><path d="M243.78075,172.12017c0,-0.89345 0.72428,-1.61773 1.61773,-1.61773c0.89345,0 1.61773,0.72428 1.61773,1.61773c0,0.89345 -0.72428,1.61773 -1.61773,1.61773c-0.89345,0 -1.61773,-0.72428 -1.61773,-1.61773z" data-paper-data="{&quot;index&quot;:null}" fill="#f29e4a"/><g><path d="M229.02491,145.54412c0,-6.36705 5.2949,-10.10179 14.29865,-9.80311c8.6685,0.28757 6.15042,2.79174 9.75695,5.70181c1.47567,1.19068 4.2604,1.47329 6.11786,2.84956c1.85745,1.37627 3.0251,3.2468 3.0251,4.99026c0,1.2311 -2.18296,1.703 -3.6379,1.9604c-2.57416,0.4554 -2.70391,3.11969 -5.07532,4.21972c-3.8597,1.79039 -6.49914,1.60993 -10.76186,1.60993c-6.46481,0 -10.32574,0.21774 -12.96526,-3.63643c-1.03865,-1.51662 -0.75824,-6.09422 -0.75824,-7.89215z" data-paper-data="{&quot;index&quot;:null}" fill="#f29e4a"/><path d="M243.75777,153.46116c-0.05437,-0.49956 1.25156,-0.57915 2.17903,-1.60064c0.84133,-0.9266 1.22847,-2.81652 2.67857,-2.97432c1.36986,-0.14905 2.6571,2.08096 4.45259,2.55609c2.20051,0.5823 4.80711,-0.50837 4.8642,0.01627c0.01244,0.11431 0.35805,2.33006 -0.21124,2.7964c-0.64004,0.52428 -2.20415,-0.70202 -2.20415,-0.70202c0,0 -0.94365,1.61916 -1.74774,2.00022c-1.66394,0.78854 -2.40998,-0.48341 -2.40998,-0.48341c0,0 -2.06156,1.17688 -2.71071,0.99325c-1.16598,-0.32981 -1.83606,-1.81576 -1.83606,-1.81576c0,0 -3.00631,-0.34291 -3.05453,-0.78609z" data-paper-data="{&quot;index&quot;:null}" fill="#908816"/><path d="M231.36802,137.59647c3.99213,-1.88906 9.24927,-3.11961 10.89574,-0.83946c0.90249,1.24985 -4.70665,6.88288 -3.99386,8.02893c0.68948,1.10856 1.82943,2.31718 1.36456,3.80544c-0.19436,0.62228 -0.86471,2.21595 -1.63583,2.33733c-0.81011,0.12751 -1.73142,-1.22085 -2.32884,-0.66829c-1.44472,1.33623 -1.7646,4.3032 -3.15146,4.3032c-2.46505,0 -6.35299,0.32157 -7.42977,-1.75236c-2.06921,-3.98544 0.5381,-6.99499 0.81546,-8.31289c0.86274,-4.09939 1.47186,-5.01283 5.464,-6.90189z" data-paper-data="{&quot;index&quot;:null}" fill="#908816"/><path d="M232.81091,148.38069c0,-2.14414 1.69463,-3.53921 2.727,-3.53921c1.03237,0 1.86926,1.39507 1.86926,3.53921c0,2.14414 -0.83689,3.88231 -1.86926,3.88231c-1.03237,0 -2.727,-1.73817 -2.727,-3.88231z" data-paper-data="{&quot;index&quot;:null}" fill="#f29e4a"/><path d="M248.04758,140.47228c1.11177,0 2.01305,1.3519 2.01305,3.01957c0,1.66765 -0.90128,3.01957 -2.01305,3.01957c-1.11177,0 -2.01305,-1.3519 -2.01305,-3.01957c0,-1.66765 0.90128,-3.01957 2.01305,-3.01957z" data-paper-data="{&quot;index&quot;:null}" fill="#908816"/><path d="M227.34193,137.88407c0.50394,-0.991 2.36941,-7.54154 14.23515,-6.90189c7.10437,0.38297 9.42176,4.97308 9.90687,4.93388c3.80614,-0.30762 8.0668,1.32794 8.0668,1.968c0,1.11177 -7.53208,2.01305 -16.82335,2.01305c-9.29128,0 -16.53577,0.24904 -15.38546,-2.01305z" data-paper-data="{&quot;index&quot;:null}" fill="#f32f00"/></g></g></g></g></svg>