<svg version="1.1" xmlns="http://www.w3.org/2000/svg" xmlns:xlink="http://www.w3.org/1999/xlink" width="41.2618" height="41.18463" viewBox="0,0,41.2618,41.18463"><g transform="translate(-219.3691,-159.40769)"><g data-paper-data="{&quot;isPaintingLayer&quot;:true}" fill-rule="nonzero" stroke="none" stroke-width="0" stroke-linecap="butt" stroke-linejoin="miter" stroke-miterlimit="10" stroke-dasharray="" stroke-dashoffset="0" style="mix-blend-mode: normal"><g data-paper-data="{&quot;index&quot;:null}"><path d="M219.49816,200.55849v-41.02112h41.02113v41.02112z" fill="#cccccc"/><g><path d="M219.37058,200.59232v-3.60894h41.26032v3.60894z" fill="#752e08"/><path d="M219.37058,190.28109v-3.60894h41.2603v3.60894z" fill="#752e08"/><path d="M219.37058,180.14171v-3.60893h41.2603v3.60893z" fill="#aeaeae"/><path d="M219.37058,169.83049v-3.60894h41.2603v3.60894z" fill="#aeaeae"/><g fill="#aeaeae"><path d="M236.91755,166.39342v-6.87414h3.47847v6.87414z"/><path d="M257.04978,166.28184v-6.87415h3.47845v6.87415z"/></g><g fill="#752e08"><path d="M226.7984,176.5328v-6.87414h3.47846v6.87414z"/><path d="M246.93061,176.58932v-6.87415h3.47847v6.87415z"/></g><g fill="#752e08"><path d="M236.91755,186.84025v-7.21035h3.47847v7.21035z"/><path d="M257.04978,186.89678v-7.21036h3.47845v7.21036z"/></g><g fill="#752e08"><path d="M226.7984,196.98338v-6.87414h3.47846v6.87414z"/><path d="M246.93061,197.03991v-6.87415h3.47847v6.87415z"/></g></g></g><path d="M219.49816,200.55849l-0.12906,-19.70858c0,0 0.55572,-18.23394 20.60534,-18.40152c20.4654,0.28651 20.56146,17.68213 20.56146,17.68213l-0.01662,20.42797z" data-paper-data="{&quot;index&quot;:null}" fill="#767676"/></g></g></svg>