<svg version="1.1" xmlns="http://www.w3.org/2000/svg" xmlns:xlink="http://www.w3.org/1999/xlink" width="41.41093" height="41.41092" viewBox="0,0,41.41093,41.41092"><g transform="translate(-219.29454,-159.29454)"><g data-paper-data="{&quot;isPaintingLayer&quot;:true}" fill-rule="nonzero" stroke-width="0" stroke-linecap="butt" stroke-linejoin="miter" stroke-miterlimit="10" stroke-dasharray="" stroke-dashoffset="0" style="mix-blend-mode: normal"><path d="M219.29454,200.70546v-41.41092h41.41093v41.41092z" data-paper-data="{&quot;index&quot;:null}" fill="#355aff" stroke="none"/><path d="M248.65964,200.48515c0,0 0.20477,-1.97519 1.24865,-4.92723c0.67028,-1.89551 2.75977,-2.92282 3.5334,-4.85519c0.5908,-1.4757 -1.92144,-4.48703 -1.7038,-5.46642c0.51888,-2.33495 4.18466,-8.21597 4.18466,-8.21597c0,0 -1.61638,6.06097 -0.93115,8.93897c0.22969,0.96469 2.77031,2.60713 3.07548,5.1074c0.29774,2.43939 -2.96143,3.25022 -2.18689,5.52604c0.79997,2.35055 3.58091,3.8924 3.58091,3.8924z" fill="#20ad00" stroke="#ffffff"/><path d="M240.09312,200.48515c0,0 2.16079,-3.05784 3.99836,-5.91634c1.14478,-1.78079 -0.74328,-4.55992 -0.21538,-5.86767c1.3558,-3.35869 5.01745,-6.79117 5.01745,-6.79117c0,0 -2.63839,4.63275 -2.46867,8.33259c0.07441,1.6222 2.49766,2.85255 1.64013,4.97773c-1.09829,2.72183 -1.08143,5.26484 -1.08143,5.26484z" fill="#20ad00" stroke="#ffffff"/><path d="M236.84355,200.48515c0,0 -1.16183,-1.16486 -0.43899,-4.98614c0.30151,-1.59395 -1.13395,-4.47585 -1.05752,-6.27591c0.08369,-1.97154 3.68355,-4.54441 3.44414,-6.42381c-0.4146,-3.2547 1.1978,-3.68424 1.36355,-5.20914c0.24429,-2.24749 2.20209,-6.33608 2.20209,-6.33608c0,0 0.50254,3.28656 0.50254,5.99832c0,1.38346 -2.07077,2.43399 -1.40733,4.93084c0.53266,2.00471 -2.92695,4.78016 -2.85956,6.97321c0.06571,2.138 1.68676,4.4294 1.36005,6.22428c-0.54238,2.97979 0.16953,5.1044 0.16953,5.1044z" data-paper-data="{&quot;index&quot;:null}" fill="#20ad00" stroke="#ffffff"/><path d="M222.72154,200.45281c0,0 2.79962,-3.2085 3.56235,-5.72809c0.76273,-2.51959 2.38595,-7.50119 2.68715,-11.39863c0.41714,-5.39757 -0.59133,-9.64325 -0.59133,-9.64325c0,0 2.85437,3.23703 4.9122,9.86784c1.27647,4.1131 0.80472,6.31692 2.0073,10.25203c1.20258,3.93511 2.72197,6.65009 2.72197,6.65009z" fill="#20ad00" stroke="#ffffff"/></g></g></svg>