<svg version="1.1" xmlns="http://www.w3.org/2000/svg" xmlns:xlink="http://www.w3.org/1999/xlink" width="40.5389" height="42.51969" viewBox="0,0,40.5389,42.51969"><g transform="translate(-219.6,-158.54835)"><g data-paper-data="{&quot;isPaintingLayer&quot;:true}" fill-rule="nonzero" stroke-linejoin="miter" stroke-miterlimit="10" stroke-dasharray="" stroke-dashoffset="0" style="mix-blend-mode: normal"><g><path d="M220.02787,201.06804c0,0 -0.19288,-7.19682 0.27339,-12.51122c0.29067,-3.31296 0.92661,-4.76299 0.92661,-7.37194c0,-2.87535 -0.66492,-5.01603 -0.97917,-8.9668c-0.45802,-5.75837 -0.62083,-13.66973 -0.62083,-13.66973h39.14426c0,0 -0.47941,8.65543 -0.24412,16.50772c0.13639,4.55184 1.04412,9.0369 1.04412,11.84823c0,2.57336 -0.58071,5.83176 -0.77036,8.54275c-0.20938,2.99301 -0.02964,5.62099 -0.02964,5.62099z" data-paper-data="{&quot;index&quot;:null}" fill="#a5e62a" stroke="none" stroke-width="0" stroke-linecap="butt"/><path d="M220.1,159.23061c0,0 0,7.58888 0,12.14957c0,2.59804 1.24868,6.50467 1.31207,11.02279c0.02494,1.77761 -1.14784,3.99518 -1.12041,5.74341c0.03184,2.0293 0.06396,4.38519 0.09313,6.1064c0.06492,3.83092 0.11521,6.13297 0.11521,6.13297" fill="none" stroke="#000000" stroke-width="1" stroke-linecap="round"/><path d="M258.9,159.43488c0,0 0,5.14779 0,7.86001c0,1.25604 -0.30162,4.50607 -0.1742,6.93263c0.17691,3.36916 0.80981,6.28796 0.9131,10.22727c0.12471,4.75623 -0.13469,6.42153 -0.37976,9.42507c-0.18359,2.25001 -0.35913,6.5059 -0.35913,6.5059" fill="none" stroke="#000000" stroke-width="1" stroke-linecap="round"/></g></g></g></svg>