<svg version="1.1" xmlns="http://www.w3.org/2000/svg" xmlns:xlink="http://www.w3.org/1999/xlink" width="109.33333" height="109.33333" viewBox="0,0,109.33333,109.33333"><g transform="translate(-185.33341,-125.33342)"><g data-paper-data="{&quot;isPaintingLayer&quot;:true}" fill-rule="nonzero" stroke="none" stroke-width="0" stroke-linecap="butt" stroke-linejoin="miter" stroke-miterlimit="10" stroke-dasharray="" stroke-dashoffset="0" style="mix-blend-mode: normal"><path d="M185.33342,234.66676v-109.33333h109.33333v109.33333z" fill="none"/><g><path d="M258.39941,186.65458c0.49932,2.00489 0.56696,5.2375 -3.46049,5.2375c-2.5581,0 -2.68493,-1.24974 -3.77515,-2.28851c-0.61012,-0.58133 -2.6782,-0.71118 -2.6782,-1.45256c0,-1.06187 0.73975,-2.08809 1.61509,-2.71434c0.82786,-0.59228 2.67276,-1.02673 3.90299,-1.02673c2.71807,0 3.8346,-0.00854 4.39576,2.24465z" data-paper-data="{&quot;index&quot;:null}" fill="#f29e4a"/><path d="M246.56587,200.11254c-2.91434,0 -3.22913,-4.48928 -3.22913,-4.48928c0,0 6.14299,-0.56116 9.05733,-0.56116c0.23652,0 3.57807,0.57367 2.9141,4.11518c-0.28555,1.52307 -8.7423,0.93526 -8.7423,0.93526z" data-paper-data="{&quot;index&quot;:null}" fill="#908816"/><path d="M228.83998,194.87497c3.46078,0 10.75558,0.56116 10.75558,0.56116c0,0 -0.37382,4.48928 -3.8346,4.48928c-3.46078,0 -10.11968,0.59205 -10.38148,-0.93527c-0.66397,-3.87349 3.4605,-4.11517 3.4605,-4.11517z" data-paper-data="{&quot;index&quot;:null}" fill="#908816"/><path d="M240.63195,172.00544c4.89882,0 8.76071,2.28626 9.53953,7.02913c1.33888,8.15359 -4.64276,8.22663 -9.53953,8.36801c-11.59322,0.33472 -10.15986,-4.07263 -8.87009,-8.70273c1.33888,-4.80639 3.97128,-6.69441 8.87009,-6.69441z" data-paper-data="{&quot;index&quot;:null}" fill="#908816"/><path d="M247.89485,183.12279c-0.75116,-0.64988 -3.17984,-1.59274 -3.17984,-1.59274l-0.33472,-8.68767c0,0 5.24375,1.39201 9.27589,4.72485c2.70273,2.23399 4.44764,7.72748 4.44764,7.72748l-9.51984,0.74821c0,0 0.11774,-2.22205 -0.68913,-2.92013z" data-paper-data="{&quot;index&quot;:null}" fill="#908816"/><path d="M231.49341,187.06785c0,0 -4.00629,-1.98621 -5.77751,-1.98621c-1.34652,0 -3.92938,0.64733 -3.92938,0.64733c0,0 1.74491,-5.49349 4.44764,-7.72748c4.03214,-3.33284 9.27589,-4.72485 9.27589,-4.72485l-0.33472,8.68767c0,0 -2.42868,0.94286 -3.17984,1.59274c-0.80688,0.69808 -0.50208,3.5108 -0.50208,3.5108z" data-paper-data="{&quot;index&quot;:null}" fill="#908816"/><path d="M236.01122,181.77581c2.48835,-3.22563 2.1372,-9.73097 2.1372,-9.73097l2.54838,-0.1617c0,0 -0.75172,7.05943 0.82527,8.38462c0.41552,0.34918 2.47117,0.59261 3.29689,-0.55428c0.81731,-1.1352 0.40688,-6.90907 0.40688,-6.90907l2.47059,1.454l1.53714,7.78864c0,0 0.63303,2.70173 0.92149,4.20727c0.16436,0.85782 1.39147,2.93797 1.909,4.23183c0.78496,1.96244 1.47174,4.95959 1.47174,4.95959l-10.58219,0.23728c0,0 -0.14469,-3.13939 -0.79401,-3.71543c-1.12184,-0.99523 -0.60563,-1.008 -1.69156,0.0263c-0.58684,0.55894 -0.87151,3.57362 -0.87151,3.57362l-11.06447,-0.12867c0,0 0.25648,-3.76677 0.78727,-5.12184c0.60616,-1.5475 1.94762,-5.72037 1.94762,-5.72037c0,0 2.25592,0.40481 4.74427,-2.82082z" data-paper-data="{&quot;index&quot;:null}" fill="#f32f00"/><path d="M225.99648,184.40982c1.23023,0 3.07513,0.43445 3.90299,1.02673c0.87534,0.62625 1.61509,1.65247 1.61509,2.71434c0,0.74138 -2.06808,0.87123 -2.6782,1.45256c-1.09022,1.03877 -1.21705,2.28851 -3.77515,2.28851c-4.02744,0 -3.95981,-3.23261 -3.46049,-5.2375c0.56116,-2.25319 1.67769,-2.24464 4.39576,-2.24464z" data-paper-data="{&quot;index&quot;:null}" fill="#f29e4a"/><path d="M238.24846,182.81002c0,-0.7748 0.6281,-1.4029 1.4029,-1.4029c0.7748,0 1.4029,0.6281 1.4029,1.4029c0,0.7748 -0.6281,1.4029 -1.4029,1.4029c-0.7748,0 -1.4029,-0.6281 -1.4029,-1.4029z" data-paper-data="{&quot;index&quot;:null}" fill="#f29e4a"/><path d="M244.2342,182.81002c0,-0.7748 0.6281,-1.4029 1.4029,-1.4029c0.7748,0 1.4029,0.6281 1.4029,1.4029c0,0.7748 -0.6281,1.4029 -1.4029,1.4029c-0.7748,0 -1.4029,-0.6281 -1.4029,-1.4029z" data-paper-data="{&quot;index&quot;:null}" fill="#f29e4a"/><path d="M232.92714,164.57226c0,-4.85542 4.03781,-7.70348 10.90394,-7.4757c6.61047,0.2193 4.69022,2.12894 7.4405,4.34811c1.12532,0.908 3.24892,1.12351 4.66539,2.17303c1.41646,1.04952 2.3069,2.47596 2.3069,3.8055c0,0.93882 -1.66469,1.29868 -2.77421,1.49497c-1.96301,0.34728 -2.06196,2.37903 -3.87036,3.21789c-2.94335,1.36533 -4.95615,1.22771 -8.20683,1.22771c-4.92997,0 -7.87426,0.16604 -9.88711,-2.77308c-0.79206,-1.15655 -0.57823,-4.64736 -0.57823,-6.01844z" data-paper-data="{&quot;index&quot;:null}" fill="#f29e4a"/><path d="M244.1622,170.60971c-0.04146,-0.38096 0.95442,-0.44165 1.6617,-1.22063c0.64158,-0.70661 0.93681,-2.14784 2.04264,-2.26817c1.04463,-0.11367 2.02627,1.58691 3.39548,1.94923c1.67807,0.44405 3.66583,-0.38768 3.70937,0.01241c0.00949,0.08717 0.27304,1.77687 -0.16109,2.13249c-0.48808,0.39981 -1.68085,-0.53535 -1.68085,-0.53535c0,0 -0.71961,1.23475 -1.3328,1.52534c-1.2689,0.60133 -1.83782,-0.36864 -1.83782,-0.36864c0,0 -1.57212,0.89747 -2.06715,0.75744c-0.88916,-0.25151 -1.40015,-1.38467 -1.40015,-1.38467c0,0 -2.29256,-0.2615 -2.32934,-0.59946z" data-paper-data="{&quot;index&quot;:null}" fill="#908816"/><path d="M234.71396,158.51146c3.04434,-1.44057 7.05335,-2.37897 8.30893,-0.64016c0.68823,0.95312 -3.58922,5.24878 -3.04566,6.12274c0.52579,0.84537 1.39509,1.76705 1.0406,2.90197c-0.14822,0.47454 -0.65942,1.68985 -1.24746,1.78241c-0.61778,0.09724 -1.32036,-0.931 -1.77594,-0.50963c-1.10172,1.01899 -1.34566,3.28156 -2.40326,3.28156c-1.87981,0 -4.8447,0.24523 -5.66583,-1.33633c-1.57795,-3.03924 0.41035,-5.33428 0.62186,-6.33928c0.65791,-3.12613 1.12242,-3.82271 4.16676,-5.26328z" data-paper-data="{&quot;index&quot;:null}" fill="#908816"/><path d="M235.95372,166.7354c0,-1.63509 1.15284,-2.61749 1.94011,-2.61749c0.78727,0 1.42547,0.9824 1.42547,2.61749c0,1.63509 -0.6382,2.96059 -1.42547,2.96059c-0.78727,0 -1.94011,-1.3255 -1.94011,-2.96059z" data-paper-data="{&quot;index&quot;:null}" fill="#f29e4a"/><path d="M247.34195,160.68115c0.84782,0 1.53512,1.03094 1.53512,2.30268c0,1.27173 -0.6873,2.30268 -1.53512,2.30268c-0.84782,0 -1.53512,-1.03094 -1.53512,-2.30268c0,-1.27173 0.6873,-2.30268 1.53512,-2.30268z" data-paper-data="{&quot;index&quot;:null}" fill="#908816"/><path d="M231.64369,158.73083c0.3843,-0.75573 1.80687,-5.75107 10.85551,-5.26328c5.41768,0.29205 7.1849,3.7924 7.55483,3.7625c2.90251,-0.23459 6.15162,1.01267 6.15162,1.50077c0,0.84782 -5.74385,1.53512 -12.82924,1.53512c-7.08539,0 -12.60993,0.18992 -11.73272,-1.53512z" data-paper-data="{&quot;index&quot;:null}" fill="#f32f00"/></g></g></g></svg>