<svg version="1.1" xmlns="http://www.w3.org/2000/svg" xmlns:xlink="http://www.w3.org/1999/xlink" width="112.66618" height="112.66618" viewBox="0,0,112.66618,112.66618"><g transform="translate(-183.66691,-123.66691)"><g data-paper-data="{&quot;isPaintingLayer&quot;:true}" fill-rule="nonzero" stroke="none" stroke-width="0" stroke-linecap="butt" stroke-linejoin="miter" stroke-miterlimit="10" stroke-dasharray="" stroke-dashoffset="0" style="mix-blend-mode: normal"><path d="M183.66691,236.33309v-112.66618h112.66618v112.66618z" data-paper-data="{&quot;index&quot;:null}" fill="none"/><g data-paper-data="{&quot;index&quot;:null}"><path d="M222.05035,189.35969c1.03898,-10.79375 8.48927,-19.74475 18.96131,-19.74475c10.47204,0 17.92233,9.47048 18.96131,19.74475c0.27575,2.72693 -1.0104,9.62634 -1.0104,9.62634c0,0 -4.88522,-3.4949 -9.45668,-1.92764c-3.29699,1.13033 -12.41599,7.1701 -15.57102,7.1701c-6.14975,0 -11.42255,-8.3203 -11.42255,-8.3203c0,0 -0.84773,-2.54077 -0.46195,-6.5485z" data-paper-data="{&quot;index&quot;:null}" fill="#f32f00"/><g fill="#f29e4a"><g data-paper-data="{&quot;index&quot;:null}"><path d="M222.48218,197.12355l3.87641,-8.56054l9.82312,0.04728l15.68764,-15.02079l1.73864,1.66526l-15.51704,15.43908l-9.81703,0.0728l-4.06089,7.78986z"/><path d="M242.02148,202.565l-6.29633,-11.66464l-9.81704,-0.0728l-3.62449,-3.59837l0.70588,-3.09263l4.82785,4.60746l9.82312,-0.04728l6.11186,12.43532z" data-paper-data="{&quot;index&quot;:null}"/></g><g data-paper-data="{&quot;index&quot;:null}"><path d="M239.06036,174.89948l17.14182,19.134l0.37235,3.6916l-19.7827,-20.74205z"/><path d="M245.08833,170.16267l-6.56326,6.73392l-11.8207,-0.04728l1.91157,-2.1087l7.63337,-0.04764l5.86904,-5.08201z" data-paper-data="{&quot;index&quot;:null}"/></g></g><path d="M259.46378,201.46361c-2.30158,1.34762 -1.77514,-1.28306 -4.89114,-1.94837c-3.965,-0.84659 -5.36391,-0.58436 -9.17464,1.58064c-3.81073,2.165 -5.76712,4.42239 -10.94522,4.41498c-4.67851,-0.00669 -5.49413,-3.19328 -9.14175,-5.11601c-3.82788,-2.01774 -4.19916,-1.10264 -4.59147,-1.46473c-1.32902,-1.22661 -2.03469,-4.02094 0,-5.39756c0.65858,-0.44558 0.11522,-0.51248 5.21023,2.70854c3.12358,1.97469 4.9367,5.88779 8.52244,5.90966c3.61793,0.02206 6.08474,-3.24747 9.23631,-5.20698c5.10959,-3.17694 14.0912,-4.117 16.52039,-0.7287c1.61208,2.24859 1.55643,3.90093 -0.74515,5.24854z" data-paper-data="{&quot;index&quot;:null}" fill="#ffffff"/><path d="M251.05648,189.95611l7.30559,-7.3857l0.87219,2.67453l-6.41142,6.49152z" fill="#f29e4a"/></g></g></g></svg>