<svg version="1.1" xmlns="http://www.w3.org/2000/svg" xmlns:xlink="http://www.w3.org/1999/xlink" width="85.49398" height="85.49398" viewBox="0,0,85.49398,85.49398"><defs><linearGradient x1="-3285.69704" y1="-2895.28054" x2="-3285.69704" y2="4105.40968" gradientUnits="userSpaceOnUse" id="color-1"><stop offset="0" stop-color="#ffffff"/><stop offset="1" stop-color="#ffffff" stop-opacity="0"/></linearGradient></defs><g transform="translate(-197.25302,-137.25303)"><g data-paper-data="{&quot;isPaintingLayer&quot;:true}" fill-rule="nonzero" stroke-linecap="butt" stroke-linejoin="miter" stroke-miterlimit="10" stroke-dasharray="" stroke-dashoffset="0" style="mix-blend-mode: normal"><path d="M197.25302,222.74701v-85.49398h85.49398v85.49398z" fill="none" stroke="none" stroke-width="0"/><path d="M208.63952,205.58014c0.00324,-13.1024 0,-44.63208 0,-51.75c0,-3.5626 2.97813,-5.21784 6.54073,-5.21784c12.68063,0 43.89984,0 51,0c2.96729,0 5.18024,2.50056 5.18024,5.46784c0,6.43742 0,39.20833 0,51.75c0,2.95974 -2.72049,5.55758 -5.68024,5.55758c-6.61442,0 -39.17756,0 -52,0c-3.13138,0 -5.04177,-1.58613 -5.04073,-5.80758z" fill="url(#color-1)" stroke="#a97a4a" stroke-width="2"/><path d="M207.25301,212.74699v-65.49398h65.49398v65.49398z" fill="none" stroke="none" stroke-width="0"/><g><path d="M238.03691,183.19121h4.02524c0,0 -0.23072,5.80269 0.34396,11.49245c0.47454,4.6983 1.19502,8.2006 -2.18091,8.2006c-4.12325,0 -2.82612,-3.63759 -2.55731,-8.12332c0.35245,-5.88126 0.36902,-11.56972 0.36902,-11.56972z" data-paper-data="{&quot;index&quot;:null}" fill="#dc570f" stroke="none" stroke-width="0"/><g data-paper-data="{&quot;index&quot;:null}"><g data-paper-data="{&quot;index&quot;:null}"><path d="M253.5693,191.69158c0,0 -3.20469,4.87409 -5.75509,9.10989c-1.62992,2.70704 -4.76479,2.44026 -6.21315,1.72284c-0.47284,-0.23422 0.33627,-0.20155 -0.01486,-0.5437c-1.42666,-1.3902 -1.08845,-3.56055 2.07465,-6.28381c4.90504,-4.22298 9.90846,-4.00521 9.90846,-4.00521z" fill="#dc570f" stroke="none" stroke-width="0"/><path d="M249.29522,194.26354c1.60179,-1.54548 3.29239,-2.25721 3.39426,-2.1461c0.10432,0.11378 -1.49271,0.86544 -3.21481,2.58064c-0.95146,0.94764 -2.69659,1.21321 -3.72604,2.15712c-2.82143,2.58699 -4.01049,4.94919 -4.17474,4.77006c-0.16425,-0.17914 1.01407,-2.55304 3.83551,-5.14003c1.07154,-0.9825 2.88565,-1.25665 3.88582,-2.22167z" fill="#148382" stroke="#148382" stroke-width="0.5"/></g><g data-paper-data="{&quot;index&quot;:null}"><path d="M236.31501,195.70754c3.16309,2.72326 3.5013,4.89361 2.07464,6.28382c-0.35113,0.34215 0.45799,0.30949 -0.01486,0.5437c-1.44836,0.71743 -4.58324,0.9842 -6.21316,-1.72284c-2.5504,-4.2358 -5.75509,-9.10989 -5.75509,-9.10989c0,0 5.00342,-0.21778 9.90846,4.00521z" fill="#dc570f" stroke="none" stroke-width="0"/><path d="M234.56643,196.49596c2.82143,2.58698 3.99976,4.96089 3.83551,5.14003c-0.16425,0.17914 -1.35331,-2.18308 -4.17474,-4.77006c-1.02945,-0.94391 -2.77458,-1.20947 -3.72604,-2.15712c-1.72211,-1.7152 -3.31913,-2.46686 -3.21481,-2.58064c0.10187,-0.1111 1.79247,0.60063 3.39426,2.14611c1.00017,0.96502 2.81428,1.23917 3.88582,2.22167z" fill="#148382" stroke="#148382" stroke-width="0.5"/></g></g><g data-paper-data="{&quot;index&quot;:null}" stroke="none" stroke-width="0"><g fill="#ffffff"><path d="M245.20694,174.0048c-0.36806,-0.17954 -1.00513,-0.7874 -2.05902,-0.73888c-0.86736,0.03993 -1.79381,0.3448 -1.9191,-0.00207c-0.25624,-0.70941 -0.0327,-1.38232 1.43505,-2.29733c1.36986,-0.85398 3.578,-1.55098 3.578,-1.55098z"/><path d="M245.82818,170.27625c-0.36806,-0.17954 -1.00513,-0.7874 -2.05902,-0.73888c-0.86736,0.03993 -1.79381,0.34481 -1.9191,-0.00207c-0.25624,-0.70941 -0.0327,-1.38233 1.43505,-2.29733c1.36986,-0.85398 4.25623,-0.87275 4.25623,-0.87275z"/><path d="M246.87709,166.50648c-0.32662,-0.24701 -0.83482,-0.9661 -1.87835,-1.12129c-0.85883,-0.12772 -1.82663,-0.00683 -1.88283,-0.37133c-0.11494,-0.74546 0.23392,-1.36278 1.85031,-1.97823c1.5086,-0.57441 3.80959,-0.83347 3.80959,-0.83347z"/><path d="M248.24411,162.61154c-0.28517,-0.2939 -1.58215,-1.53419 -2.58985,-1.84658c-0.82934,-0.2571 -1.9173,0.16706 -1.9173,-0.20176c0,-0.75427 0.55189,-1.76337 2.2432,-2.12532c1.57851,-0.33781 3.8921,-0.46928 3.8921,-0.46928z"/></g><path d="M252.66417,177.87511c-4.64002,8.82886 -12.83047,7.41384 -12.83047,7.41384l-0.24933,-2.76851c0,0 1.61696,-1.92802 2.22684,-3.38801c3.06982,-7.34888 2.89988,-11.12346 7.89372,-22.14677c0.13025,-0.2875 7.65858,11.94775 2.95925,20.88945z" data-paper-data="{&quot;index&quot;:null}" fill="#148382"/><path d="M244.90458,175.60907c0,-0.60547 0.49083,-1.09629 1.09629,-1.09629c0.60547,0 1.09629,0.49083 1.09629,1.09629c0,0.60547 -0.49083,1.09629 -1.09629,1.09629c-0.60547,0 -1.09629,-0.49083 -1.09629,-1.09629z" fill="#dc570f"/><path d="M246.56919,170.71679c0,-0.52978 0.42947,-0.95926 0.95926,-0.95926c0.52978,0 0.95926,0.42947 0.95926,0.95926c0,0.52978 -0.42947,0.95926 -0.95926,0.95926c-0.52978,0 -0.95926,-0.42947 -0.95926,-0.95926z" fill="#dc570f"/><path d="M251.20827,169.99056c0,-0.52978 0.42947,-0.95926 0.95926,-0.95926c0.52978,0 0.95926,0.42947 0.95926,0.95926c0,0.52978 -0.42947,0.95926 -0.95926,0.95926c-0.52978,0 -0.95926,-0.42947 -0.95926,-0.95926z" fill="#dc570f"/><path d="M247.37124,164.37205c0,-0.4541 0.36812,-0.82222 0.82222,-0.82222c0.4541,0 0.82222,0.36812 0.82222,0.82222c0,0.4541 -0.36812,0.82222 -0.82222,0.82222c-0.4541,0 -0.82222,-0.36812 -0.82222,-0.82222z" fill="#dc570f"/><path d="M249.56383,174.78684c0,-0.4541 0.36812,-0.82222 0.82222,-0.82222c0.4541,0 0.82222,0.36812 0.82222,0.82222c0,0.4541 -0.36812,0.82222 -0.82222,0.82222c-0.4541,0 -0.82222,-0.36812 -0.82222,-0.82222z" fill="#dc570f"/><path d="M244.08236,181.63868c0,-0.60547 0.49083,-1.09629 1.09629,-1.09629c0.60547,0 1.09629,0.49083 1.09629,1.09629c0,0.60547 -0.49083,1.09629 -1.09629,1.09629c-0.60547,0 -1.09629,-0.49083 -1.09629,-1.09629z" fill="#dc570f"/><path d="M247.37124,179.72017c0,-0.30273 0.24541,-0.54814 0.54814,-0.54814c0.30273,0 0.54814,0.24541 0.54814,0.54814c0,0.30273 -0.24541,0.54814 -0.54814,0.54814c-0.30273,0 -0.54814,-0.24541 -0.54814,-0.54814z" fill="#dc570f"/><path d="M250.11198,161.35725c0,-0.4541 0.36812,-0.82222 0.82222,-0.82222c0.4541,0 0.82222,0.36812 0.82222,0.82222c0,0.4541 -0.36812,0.82222 -0.82222,0.82222c-0.4541,0 -0.82222,-0.36812 -0.82222,-0.82222z" fill="#dc570f"/></g><g data-paper-data="{&quot;index&quot;:null}" stroke="none" stroke-width="0"><g fill="#ffffff"><path d="M233.75814,169.41556c0,0 2.20814,0.697 3.578,1.55098c1.46775,0.91501 1.69129,1.58792 1.43505,2.29733c-0.1253,0.34687 -1.05175,0.04201 -1.9191,0.00207c-1.05389,-0.04853 -1.69096,0.55934 -2.05902,0.73888z"/><path d="M232.45867,166.36524c0,0 2.88637,0.01878 4.25623,0.87276c1.46775,0.915 1.69129,1.58792 1.43505,2.29733c-0.12529,0.34687 -1.05174,0.042 -1.9191,0.00207c-1.05389,-0.04853 -1.69096,0.55934 -2.05902,0.73888z"/><path d="M231.2242,162.20217c0,0 2.30099,0.25905 3.80959,0.83347c1.61639,0.61546 1.96525,1.23278 1.85031,1.97823c-0.0562,0.3645 -1.024,0.24361 -1.88283,0.37133c-1.04353,0.15519 -1.55173,0.87428 -1.87835,1.12129z"/><path d="M230.12774,157.9686c0,0 2.3136,0.13147 3.8921,0.46928c1.69131,0.36195 2.2432,1.37105 2.2432,2.12531c0,0.36882 -1.08796,-0.05533 -1.9173,0.20176c-1.00769,0.31239 -2.30467,1.55267 -2.58985,1.84658z"/></g><path d="M227.33582,177.8751c-4.69933,-8.94169 2.82901,-21.17695 2.95925,-20.88945c4.99384,11.02332 4.82391,14.7979 7.89372,22.14677c0.60988,1.45999 2.22684,3.38801 2.22684,3.38801l-0.24933,2.76851c0,0 -8.19045,1.41503 -12.83047,-7.41384z" data-paper-data="{&quot;index&quot;:null}" fill="#148382"/><path d="M233.99912,176.70537c-0.60547,0 -1.09629,-0.49083 -1.09629,-1.09629c0,-0.60547 0.49083,-1.09629 1.09629,-1.09629c0.60547,0 1.09629,0.49083 1.09629,1.09629c0,0.60547 -0.49083,1.09629 -1.09629,1.09629z" fill="#dc570f"/><path d="M232.47155,171.67605c-0.52979,0 -0.95926,-0.42948 -0.95926,-0.95926c0,-0.52979 0.42948,-0.95926 0.95926,-0.95926c0.52979,0 0.95926,0.42948 0.95926,0.95926c0,0.52979 -0.42948,0.95926 -0.95926,0.95926z" fill="#dc570f"/><path d="M227.83247,170.94982c-0.52979,0 -0.95926,-0.42948 -0.95926,-0.95926c0,-0.52979 0.42948,-0.95926 0.95926,-0.95926c0.52979,0 0.95926,0.42948 0.95926,0.95926c0,0.52979 -0.42948,0.95926 -0.95926,0.95926z" fill="#dc570f"/><path d="M231.80653,165.19428c-0.4541,0 -0.82222,-0.36812 -0.82222,-0.82222c0,-0.4541 0.36812,-0.82222 0.82222,-0.82222c0.4541,0 0.82222,0.36812 0.82222,0.82222c0,0.4541 -0.36812,0.82222 -0.82222,0.82222z" fill="#dc570f"/><path d="M229.61395,175.60907c-0.4541,0 -0.82222,-0.36812 -0.82222,-0.82222c0,-0.4541 0.36812,-0.82222 0.82222,-0.82222c0.4541,0 0.82222,0.36812 0.82222,0.82222c0,0.4541 -0.36812,0.82222 -0.82222,0.82222z" fill="#dc570f"/><path d="M234.82134,182.73498c-0.60547,0 -1.09629,-0.49083 -1.09629,-1.09629c0,-0.60547 0.49083,-1.09629 1.09629,-1.09629c0.60547,0 1.09629,0.49083 1.09629,1.09629c0,0.60547 -0.49083,1.09629 -1.09629,1.09629z" fill="#dc570f"/><path d="M232.08061,180.26832c-0.30273,0 -0.54814,-0.24541 -0.54814,-0.54814c0,-0.30273 0.24541,-0.54814 0.54814,-0.54814c0.30273,0 0.54814,0.24541 0.54814,0.54814c0,0.30273 -0.24541,0.54814 -0.54814,0.54814z" fill="#dc570f"/><path d="M229.0658,162.17948c-0.4541,0 -0.82222,-0.36812 -0.82222,-0.82222c0,-0.4541 0.36812,-0.82222 0.82222,-0.82222c0.4541,0 0.82222,0.36812 0.82222,0.82222c0,0.4541 -0.36812,0.82222 -0.82222,0.82222z" fill="#dc570f"/></g></g></g></g></svg>