<svg version="1.1" xmlns="http://www.w3.org/2000/svg" xmlns:xlink="http://www.w3.org/1999/xlink" width="109.33333" height="109.33337" viewBox="0,0,109.33333,109.33337"><g transform="translate(-185.33334,-125.33333)"><g data-paper-data="{&quot;isPaintingLayer&quot;:true}" fill-rule="nonzero" stroke="none" stroke-width="0" stroke-linecap="butt" stroke-linejoin="miter" stroke-miterlimit="10" stroke-dasharray="" stroke-dashoffset="0" style="mix-blend-mode: normal"><path d="M185.33334,234.66667v-109.33333h109.33333v109.33333z" fill="none"/><path d="M185.33334,234.6667v-109.33333h109.33333v109.33333z" fill="none"/><path d="M185.33334,234.66666v-109.33333h109.33333v109.33333z" fill="none"/><g><g data-paper-data="{&quot;index&quot;:null}"><path d="M225.12316,171.07207c1.20413,-2.39157 2.45777,-2.09805 5.51492,-1.40687c1.3837,0.31284 3.34828,1.27062 4.12879,2.14731c0.8253,0.92696 1.39636,2.26931 1.12634,3.46365c-0.18853,0.83386 -2.54762,0.45403 -3.38167,0.95273c-1.49037,0.89112 -1.95082,2.26451 -4.82804,1.61401c-4.52986,-1.02414 -3.63176,-4.64281 -2.56033,-6.77084z" data-paper-data="{&quot;index&quot;:null}" fill="#f29e4a"/><path d="M238.04681,168.83975c-1.174,0.97348 -1.88979,4.75516 -1.88979,4.75516l-10.42181,-3.68408c0,0 4.0596,-8.83157 7.95226,-11.91619c5.80738,-4.60189 12.23664,-5.61874 12.23664,-5.61874l-3.6928,14.58326c0,0 -3.09157,0.97436 -4.18452,1.8806z" data-paper-data="{&quot;index&quot;:null}" fill="#f32f00"/></g><g data-paper-data="{&quot;index&quot;:null}"><path d="M229.83004,173.35269c0.6471,-2.59824 1.93461,-2.58839 5.06891,-2.58839c1.41862,0 3.54605,0.50098 4.50068,1.18396c1.00939,0.72215 1.86242,1.90552 1.86242,3.13c0,0.85491 -2.38478,1.00465 -3.08833,1.675c-1.25717,1.19784 -1.40342,2.63896 -4.35326,2.63896c-4.64419,0 -4.56619,-3.72764 -3.99041,-6.03955z" data-paper-data="{&quot;index&quot;:null}" fill="#f29e4a"/><path d="M241.9433,168.32538c-0.93043,1.2084 -0.79466,5.05483 -0.79466,5.05483l-10.97767,-1.29517c0,0 2.01212,-9.50938 5.12873,-13.37648c4.6496,-5.76925 10.69636,-8.17885 10.69636,-8.17885l-0.38598,15.0386c0,0 -2.8006,1.63212 -3.66679,2.75708z" data-paper-data="{&quot;index&quot;:null}" fill="#908816"/></g><path d="M238.76214,200.22152c-3.36063,0 -3.72363,-5.17675 -3.72363,-5.17675c0,0 7.0837,-0.64709 10.44433,-0.64709c0.27274,0 5.4393,0.66152 4.67365,4.74536c-0.32928,1.75631 -11.39435,1.07848 -11.39435,1.07848z" data-paper-data="{&quot;index&quot;:null}" fill="#f32f00"/><path d="M241.12874,153.37018c5.649,0 10.10229,3.95759 11.00037,12.16762c1.54391,14.11409 -6.86758,14.87129 -12.51422,15.11603c-13.36856,0.5794 -10.20185,-7.6806 -8.71457,-15.69544c1.54391,-8.31999 4.57943,-11.58821 10.22842,-11.58821z" data-paper-data="{&quot;index&quot;:null}" fill="#f32f00"/><path d="M240.4095,155.96143l3.82171,-1.16298c0,0 0.26855,10.45391 2.08704,12.74785c1.10163,1.38969 2.32084,0.43569 2.95255,-1.46001c1.27257,-3.81887 -2.84467,-11.33311 -2.84467,-11.33311l2.84893,2.51691c0,0 2.117,7.9709 3.08583,13.15403c0.96883,5.18313 0.40165,4.67677 0.73427,7.28291c0.36247,2.83989 -4.50654,5.75644 -5.57346,8.73488c-1.41589,3.95263 -0.72228,8.26096 -0.72228,8.26096l-12.2027,0.41074c0,0 1.09237,-2.36452 0.90883,-4.70016c-0.21846,-2.78038 -4.71484,-4.52233 -5.73259,-6.7188c-2.46672,-5.32359 -0.81752,-10.87338 0.86213,-17.42094c0.7862,-3.06476 1.17036,-5.87495 2.07019,-7.95981c0.79979,-1.85307 2.29206,-2.65501 2.29206,-2.65501c0,0 -3.81535,10.86347 -2.41286,13.9625c1.52316,3.36567 7.91649,-1.57274 8.48792,-3.13738c1.44875,-3.96683 -0.66288,-10.5226 -0.66288,-10.5226z" data-paper-data="{&quot;index&quot;:null}" fill="#ffe2e2"/><path d="M241.53411,171.36324c0,-0.89345 0.72428,-1.61773 1.61773,-1.61773c0.89345,0 1.61773,0.72428 1.61773,1.61773c0,0.89345 -0.72428,1.61773 -1.61773,1.61773c-0.89345,0 -1.61773,-0.72428 -1.61773,-1.61773z" data-paper-data="{&quot;index&quot;:null}" fill="#f29e4a"/><path d="M247.5534,170.98479c0,-0.89345 0.72428,-1.61773 1.61773,-1.61773c0.89345,0 1.61773,0.72428 1.61773,1.61773c0,0.89345 -0.72428,1.61773 -1.61773,1.61773c-0.89345,0 -1.61773,-0.72428 -1.61773,-1.61773z" data-paper-data="{&quot;index&quot;:null}" fill="#f29e4a"/><g><path d="M230.52677,144.91334c0,-6.36705 5.2949,-10.10179 14.29865,-9.80311c8.6685,0.28757 6.15042,2.79174 9.75695,5.70181c1.47567,1.19068 4.2604,1.47329 6.11786,2.84956c1.85745,1.37627 3.0251,3.2468 3.0251,4.99026c0,1.2311 -2.18296,1.703 -3.6379,1.9604c-2.57416,0.4554 -2.70391,3.11969 -5.07532,4.21972c-3.8597,1.79039 -6.49914,1.60993 -10.76186,1.60993c-6.46481,0 -10.32574,0.21774 -12.96526,-3.63643c-1.03865,-1.51662 -0.75824,-6.09422 -0.75824,-7.89215z" data-paper-data="{&quot;index&quot;:null}" fill="#f29e4a"/><path d="M245.25965,152.8304c-0.05437,-0.49956 1.25156,-0.57915 2.17903,-1.60064c0.84133,-0.9266 1.22847,-2.81652 2.67857,-2.97432c1.36986,-0.14905 2.6571,2.08096 4.45259,2.55609c2.20051,0.5823 4.80711,-0.50837 4.8642,0.01627c0.01244,0.11431 0.35805,2.33006 -0.21124,2.7964c-0.64004,0.52428 -2.20415,-0.70202 -2.20415,-0.70202c0,0 -0.94365,1.61916 -1.74774,2.00022c-1.66394,0.78854 -2.40998,-0.48341 -2.40998,-0.48341c0,0 -2.06156,1.17688 -2.71071,0.99325c-1.16598,-0.32981 -1.83606,-1.81576 -1.83606,-1.81576c0,0 -3.00631,-0.34291 -3.05453,-0.78609z" data-paper-data="{&quot;index&quot;:null}" fill="#f32f00"/><path d="M232.86988,136.96569c3.99213,-1.88906 9.24927,-3.11961 10.89574,-0.83946c0.90249,1.24985 -4.70665,6.88288 -3.99386,8.02893c0.68948,1.10856 1.82943,2.31718 1.36456,3.80544c-0.19436,0.62228 -0.86471,2.21595 -1.63583,2.33733c-0.81011,0.12751 -1.73142,-1.22085 -2.32884,-0.66829c-1.44472,1.33623 -1.7646,4.3032 -3.15146,4.3032c-2.46505,0 -6.35299,0.32157 -7.42977,-1.75236c-2.06921,-3.98544 0.5381,-6.99499 0.81546,-8.31289c0.86274,-4.09939 1.47186,-5.01283 5.464,-6.90189z" data-paper-data="{&quot;index&quot;:null}" fill="#f32f00"/><path d="M234.31279,147.74993c0,-2.14414 1.69463,-3.53921 2.727,-3.53921c1.03237,0 1.86926,1.39507 1.86926,3.53921c0,2.14414 -0.83689,3.88231 -1.86926,3.88231c-1.03237,0 -2.727,-1.73817 -2.727,-3.88231z" data-paper-data="{&quot;index&quot;:null}" fill="#f29e4a"/><path d="M249.54946,139.84152c1.11177,0 2.01305,1.3519 2.01305,3.01957c0,1.66765 -0.90128,3.01957 -2.01305,3.01957c-1.11177,0 -2.01305,-1.3519 -2.01305,-3.01957c0,-1.66765 0.90128,-3.01957 2.01305,-3.01957z" data-paper-data="{&quot;index&quot;:null}" fill="#f32f00"/><path d="M228.84381,137.25331c0.50394,-0.991 2.36941,-7.54154 14.23515,-6.90189c2.88585,0.15556 4.98183,1.00533 6.48597,1.95702c2.19875,1.39117 3.13284,3.00014 3.4209,2.97686c3.80614,-0.30762 8.0668,1.32794 8.0668,1.968c0,1.11177 -7.53208,2.01305 -16.82335,2.01305c-9.29128,0 -16.53577,0.24904 -15.38546,-2.01305z" data-paper-data="{&quot;index&quot;:null}" fill="#ffe2e2"/></g><g><path d="M248.77829,164.96141c0,0 -3.40042,4.64767 -3.38376,6.69007c0.01266,1.55268 1.15745,4.52183 1.15745,4.52183c0,0 -7.59151,-0.79223 -11.48389,-3.87721c-5.80695,-4.60242 -0.45174,-14.64201 -0.45174,-14.64201l6.95108,2.3592c0,0 -0.00295,3.56175 1.12904,4.41874c1.21593,0.92056 6.08181,0.52941 6.08181,0.52941z" data-paper-data="{&quot;index&quot;:null}" fill="#f32f00"/><path d="M244.4399,171.33572c-0.01156,-1.41858 0.47206,-3.55001 1.14723,-4.51018c0.71389,-1.01523 1.89026,-1.8779 3.11471,-1.88787c0.85488,-0.00697 1.02406,2.37652 1.70013,3.07457c1.20805,1.24737 2.65031,1.38187 2.67436,4.33161c0.03787,4.64404 -3.69029,4.59644 -6.00682,4.03951c-2.60342,-0.62589 -2.60406,-1.91343 -2.6296,-5.04764z" data-paper-data="{&quot;index&quot;:null}" fill="#f29e4a"/></g><path d="M246.42568,192.38705c-1.42096,1.08345 -6.57632,-4.64797 -9.49744,-7.36702c-2.9211,-2.71903 0.29047,-6.80197 0.29047,-6.80197c0,0 6.59815,5.25766 9.51927,7.97671c0,0 3.29143,3.44448 -0.31229,6.19228z" data-paper-data="{&quot;index&quot;:null}" fill="#f32f00"/></g></g></g></svg>