<svg version="1.1" xmlns="http://www.w3.org/2000/svg" xmlns:xlink="http://www.w3.org/1999/xlink" width="85.49398" height="85.49398" viewBox="0,0,85.49398,85.49398"><defs><linearGradient x1="-3285.69704" y1="-2895.28052" x2="-3285.69704" y2="4105.40968" gradientUnits="userSpaceOnUse" id="color-1"><stop offset="0" stop-color="#ffffff"/><stop offset="1" stop-color="#ffffff" stop-opacity="0"/></linearGradient></defs><g transform="translate(-197.25302,-137.25304)"><g data-paper-data="{&quot;isPaintingLayer&quot;:true}" fill-rule="nonzero" stroke-linecap="butt" stroke-linejoin="miter" stroke-miterlimit="10" stroke-dasharray="" stroke-dashoffset="0" style="mix-blend-mode: normal"><g><path d="M208.63952,205.58016c0.00324,-13.1024 0,-44.63208 0,-51.75c0,-3.5626 2.97813,-5.21784 6.54073,-5.21784c12.68063,0 43.89984,0 51,0c2.96729,0 5.18024,2.50056 5.18024,5.46784c0,6.43742 0,39.20833 0,51.75c0,2.95974 -2.72049,5.55758 -5.68024,5.55758c-6.61442,0 -39.17756,0 -52,0c-3.13138,0 -5.04177,-1.58613 -5.04073,-5.80758z" fill="url(#color-1)" stroke="#a97a4a" stroke-width="2"/><path d="M197.25302,222.74702v-85.49398h85.49398v85.49398z" fill="none" stroke="none" stroke-width="0"/></g><g stroke="none" stroke-width="0"><path d="M243.89834,159.26769c0,0 5.85075,6.53164 5.85075,14.25699c0,1.25048 0.2416,4.96787 0.2416,4.96787l-0.73096,-0.42038c0,0 1.14133,11.42814 -11.14488,10.91999c-13.71931,-0.56742 -4.77475,-19.36798 -4.77475,-19.36798z" fill="#f32f00"/><path d="M255.88387,198.17674c0,1.48878 -0.05844,8.86962 -0.05844,8.86962l-31.70932,0.04324c0,0 0.17158,-2.78495 0.17158,-8.91288c0,-6.12793 6.4593,-11.0956 15.7981,-11.0956c9.3388,0 15.7981,4.96767 15.7981,11.0956z" data-paper-data="{&quot;index&quot;:null}" fill="#ffffff"/><path d="M224.29888,205.29617v-4.93166c0,0 2.92519,0.20345 6.45324,-0.44787c3.12596,-0.57709 7.17353,-1.56962 9.63069,-1.56962c2.27811,0 5.10364,0.9095 8.08593,1.43296c3.91382,0.68695 7.32551,0.58455 7.32551,0.58455v4.93166c0,0 -3.28614,0.57998 -7.10799,-0.09782c-3.03965,-0.53908 -5.96983,-1.47134 -8.30346,-1.47134c-2.4363,0 -6.44369,0.98333 -9.55095,1.55493c-3.5636,0.65554 -6.53298,0.01423 -6.53298,0.01423z" fill="#f32f00"/><path d="M234.55449,189.11082v-7.39749h10.31166v7.39749z" fill="#ffffff"/><path d="M228.87561,180.5925c2.80656,0 5.1356,-3.72706 6.57491,-2.78105c3.77525,2.48136 -1.0111,5.9941 -5.52881,5.9941c-4.51771,0 -3.85267,-3.21305 -1.04611,-3.21305z" data-paper-data="{&quot;index&quot;:null}" fill="#f29e4a"/><path d="M231.64034,180.48043c0,-0.9244 1.34269,-1.74544 2.11023,-2.66273c0.46855,-0.55998 0.16026,-1.34331 0.84013,-1.66163c1.26413,-0.59189 2.84456,-0.27105 4.55922,-0.27105c1.76226,0 4.05525,-0.07687 5.33627,0.54508c1.73382,0.84178 2.17329,2.59075 2.17329,4.05033c0,2.53798 -3.36214,4.59541 -7.50957,4.59541c-4.14743,0 -7.50958,-2.05743 -7.50958,-4.59541z" fill="#ffffff"/><path d="M228.27782,181.82542c0,-1.30321 1.99941,-0.53149 4.77443,-0.28568c1.31116,0.11614 2.91155,-0.34945 4.34168,-0.34945c2.80656,0 5.1356,-3.72706 6.57491,-2.78105c3.77525,2.48136 -3.10331,6.89076 -7.62102,6.89076c-1.4941,0 -2.89337,-0.32427 -4.09347,-0.62899c-2.37984,-0.60427 -3.97652,-1.56992 -3.97652,-2.84559z" fill="#f29e4a"/><path d="M241.38954,172.90641c0,0 0.25366,2.51408 0.1263,3.88097c-0.08992,0.96511 -0.81813,1.44639 -1.51135,1.80928c-1.45618,0.76229 -3.35491,1.41828 -3.689,1.20708c-0.29173,-0.18444 -1.21606,-0.80005 -1.14426,-1.47227c0.06347,-0.59426 2.49392,-2.31069 2.49392,-2.31069l0.09693,-2.25322z" fill="#f29e4a"/><path d="M238.06642,158.13849c6.14209,-0.44833 8.14471,3.64651 8.14471,8.14471c0,4.4982 -3.64651,8.14471 -8.14471,8.14471c-4.49819,0 -10.83951,-4.60948 -5.75361,-9.7886c0.98837,-1.0065 1.26734,-6.17336 5.75361,-6.50083z" fill="#f29e4a"/><path d="M233.50838,163.07016c1.15551,0 0.59778,0.71817 0.59778,1.41972c0,0.70155 -0.93671,1.27028 -2.09222,1.27028c-1.15551,0 -2.09223,-0.56873 -2.09223,-1.27028c0,-0.70155 2.43116,-1.41972 3.58667,-1.41972z" fill="#f29e4a"/><path d="M236.34782,162.02405c0.49521,0 0.89666,0.73598 0.89666,1.64388c0,0.90789 -0.40144,1.64388 -0.89666,1.64388c-0.49521,0 -0.89666,-0.73598 -0.89666,-1.64388c0,-0.90789 0.40144,-1.64388 0.89666,-1.64388z" fill="#000000"/><g><path d="M231.2803,169.90237c0,-0.57775 -0.30588,-1.12763 0.80836,-1.12763c1.11423,0 2.76472,-0.44189 2.76472,0.13585c0,0.57775 -0.61796,1.29066 -1.24311,1.41293c-1.09351,0.21388 -2.32997,0.15659 -2.32997,-0.42116z" data-paper-data="{&quot;index&quot;:null}" fill="#f32f00"/><path d="M230.66894,168.00183c0,-0.57776 1.72555,-0.51277 2.81906,-0.29889c0.62514,0.12227 1.36538,0.46836 1.36538,1.04611c0,0.57775 -1.77277,0.50267 -2.88699,0.50267c-1.11423,0 -1.29745,-0.67215 -1.29745,-1.2499z" fill="#d12a00"/></g><path d="M236.76886,157.68406l0.81062,-4.77366l1.50365,1.79013l2.07659,-1.18215l1.56996,1.80138l2.01029,-1.19342l-0.81062,4.77366z" fill="#f29e4a"/><g><path d="M231.24416,156.64495c0.66487,-1.18851 3.15813,-0.11209 6.50083,-0.11209c1.67821,0 5.02492,0.54359 6.93718,2.59676c1.89662,2.03638 2.36572,5.57969 2.36572,6.25781c0,0.15427 -0.67638,-1.57447 -1.51516,-1.29499c-0.86198,0.28721 -1.89544,2.57582 -2.54256,2.20732c-0.44623,-0.25412 -0.45141,-4.77379 -0.60297,-4.90921c-1.55229,-1.38685 -2.61165,-1.95201 -3.27867,-1.64329c-1.43361,0.66352 -0.57897,1.82932 -0.57897,1.82932c0,0 -6.80946,0.7308 -7.77108,-1.60907c-1.10541,-2.68972 0.32426,-3.03406 0.48567,-3.32259z" fill="#f32f00"/><path d="M244.69414,165.05119c0,0 0.21904,-1.345 1.45708,-1.345c1.23804,0 2.24166,1.00362 2.24166,2.24166c0,1.23804 -1.00362,2.24166 -2.24166,2.24166c-1.23804,0 -1.45708,-3.13833 -1.45708,-3.13833z" fill="#f29e4a"/></g></g></g></g></svg>