<svg version="1.1" xmlns="http://www.w3.org/2000/svg" xmlns:xlink="http://www.w3.org/1999/xlink" width="112.66618" height="112.66618" viewBox="0,0,112.66618,112.66618"><g transform="translate(-183.66691,-123.66691)"><g data-paper-data="{&quot;isPaintingLayer&quot;:true}" fill-rule="nonzero" stroke-linejoin="miter" stroke-miterlimit="10" stroke-dasharray="" stroke-dashoffset="0" style="mix-blend-mode: normal"><path d="M183.66691,236.33309v-112.66618h112.66618v112.66618z" data-paper-data="{&quot;index&quot;:null}" fill="none" stroke="none" stroke-width="0" stroke-linecap="butt"/><path d="M223.46474,197.07244c-1.02361,-2.16288 -1.61108,-2.93608 -1.50218,-4.78778c0.22629,-3.84779 3.46966,-2.53932 6.24592,-2.37604c0.65968,0.0388 0.49612,2.09727 0.26983,5.94507c-0.22629,3.84779 -0.2844,5.55849 -0.76771,5.53007c-1.44022,-0.0847 -3.14244,-1.97978 -4.24586,-4.31133z" data-paper-data="{&quot;index&quot;:null}" fill="#9bf2ff" stroke="none" stroke-width="0" stroke-linecap="butt"/><path d="M234.95374,162.00716c6.05037,-0.99634 11.12001,-0.6033 16.1641,2.80806c4.73694,3.20363 8.54674,10.94818 8.54674,10.94818l-1.04447,2.45115c0,0 0.34966,2.4726 1.22935,5.02659c0.22069,0.64073 1.2818,0.47991 1.53534,1.11761c0.74187,1.86596 0.66343,4.47467 0.46921,5.9209c-0.38054,2.83359 -18.20691,4.52416 -18.20691,4.52416c0,0 -5.24393,0.57492 -7.80794,0.57492c-8.55381,0 -14.63722,-6.1318 -16.37344,-9.8441c-2.10141,-4.49314 2.50722,-21.38987 15.48803,-23.52747z" data-paper-data="{&quot;index&quot;:null}" fill="#095352" stroke="#6d0000" stroke-width="0" stroke-linecap="butt"/><path d="M245.99574,202.26198c-0.50895,0.01873 -0.53053,-1.78176 -0.67962,-5.83369c-0.14909,-4.05194 0.47395,-3.88018 0.79615,-4.49616c1.29854,-2.48257 5.98982,-3.15877 6.13891,0.89317c0.07175,1.94993 -0.56396,2.74954 -1.69045,5.00058c-1.21435,2.42658 -3.04835,4.3803 -4.56497,4.4361z" fill="#9bf2ff" stroke="none" stroke-width="0" stroke-linecap="butt"/><path d="M260.62662,177.43604c0,0 -5.40548,0.84042 -7.81336,3.3065c-2.40788,2.46608 -3.52162,11.7276 -8.92333,13.63815c-3.59969,1.27319 -14.21399,1.77593 -18.10555,-0.58636c-5.6317,-3.41861 -7.07285,-9.24826 -7.07285,-9.24826" data-paper-data="{&quot;index&quot;:null}" fill="none" stroke="#148382" stroke-width="3.5" stroke-linecap="round"/><path d="M227.92288,168.54629c2.33677,-2.46107 6.09112,-2.55758 6.71487,-2.09784c0.46287,0.34117 -1.04302,2.46982 -3.3798,4.93089c-2.33678,2.46107 -4.82128,4.56752 -5.08242,3.98144c-0.19085,-0.42831 -0.58944,-4.35342 1.74734,-6.81449z" fill="#148382" stroke="none" stroke-width="0" stroke-linecap="butt"/><path d="M228.49127,169.14659c0.98003,-0.95616 3.04446,-1.31016 2.90205,-0.50229c-0.08734,0.49547 -2.88555,4.15085 -3.64856,4.402c-0.4862,0.16003 -0.23352,-2.94355 0.74651,-3.8997z" fill="#9bf2ff" stroke="none" stroke-width="0" stroke-linecap="butt"/><path d="M255.58333,185.48689c0,-0.7824 0.63426,-1.41667 1.41667,-1.41667c0.7824,0 1.41667,0.63426 1.41667,1.41667c0,0.7824 -0.63426,1.41667 -1.41667,1.41667c-0.7824,0 -1.41667,-0.63426 -1.41667,-1.41667z" fill="#148382" stroke="none" stroke-width="0" stroke-linecap="butt"/></g></g></svg>