<svg version="1.1" xmlns="http://www.w3.org/2000/svg" xmlns:xlink="http://www.w3.org/1999/xlink" width="85.49398" height="85.49398" viewBox="0,0,85.49398,85.49398"><defs><linearGradient x1="-3285.69704" y1="-2895.28054" x2="-3285.69704" y2="4105.40968" gradientUnits="userSpaceOnUse" id="color-1"><stop offset="0" stop-color="#ffffff"/><stop offset="1" stop-color="#ffffff" stop-opacity="0"/></linearGradient><linearGradient x1="241.58877" y1="164.08869" x2="241.58877" y2="196.01598" gradientUnits="userSpaceOnUse" id="color-2"><stop offset="0" stop-color="#e3872b"/><stop offset="1" stop-color="#dc570f"/></linearGradient></defs><g transform="translate(-197.25301,-137.25301)"><g data-paper-data="{&quot;isPaintingLayer&quot;:true}" fill-rule="nonzero" stroke-linecap="butt" stroke-linejoin="miter" stroke-miterlimit="10" stroke-dasharray="" stroke-dashoffset="0" style="mix-blend-mode: normal"><path d="M197.25301,222.74699v-85.49398h85.49398v85.49398z" fill="none" stroke="none" stroke-width="0"/><path d="M208.63952,205.58014c0.00324,-13.1024 0,-44.63208 0,-51.75c0,-3.5626 2.97813,-5.21784 6.54073,-5.21784c12.68063,0 43.89984,0 51,0c2.96729,0 5.18024,2.50056 5.18024,5.46784c0,6.43742 0,39.20833 0,51.75c0,2.95974 -2.72049,5.55758 -5.68024,5.55758c-6.61442,0 -39.17756,0 -52,0c-3.13138,0 -5.04177,-1.58613 -5.04073,-5.80758z" fill="url(#color-1)" stroke="#a97a4a" stroke-width="2"/><g stroke="#000000" stroke-width="0"><path d="M241.58877,164.08869c6.44087,0 9.74443,7.0197 9.74443,15.9112c0,8.8915 -3.09412,15.962 -9.74443,15.9112c-1.4649,-0.00788 -3.76767,0.10489 -3.76767,0.10489c0,0 -5.97677,-8.42126 -5.97677,-16.01608c0,-7.38462 5.36396,-15.88192 5.36396,-15.88192c0,0 2.71451,-0.02928 4.38048,-0.02928z" fill="url(#color-2)"/><path d="M238.41123,163.90038c6.44088,0 9.74444,7.20798 9.74444,16.09949c0,8.89151 -3.09412,16.1503 -9.74444,16.09949c-7.07936,-0.05408 -9.74443,-7.20798 -9.74443,-16.09949c0,-8.89151 3.09171,-16.09949 9.74443,-16.09949z" fill="#f29e4a"/><path d="M238.62308,170.55023c2.94039,0 5.08405,5.50179 5.08405,10.72072c0,5.21893 -1.41253,9.47953 -4.44854,9.4497c-1.52411,-0.01496 -3.4474,-1.38038 -4.15891,-2.91884c-0.79725,-1.72381 -0.28964,-3.77313 -0.28964,-6.53087c0,-5.21893 0.77593,-10.72072 3.81304,-10.72072z" fill="#dc570f"/><path d="M237.03431,169.59697c1.25889,0 2.89078,0.77553 3.61864,2.07208c0.97221,1.7318 0.8299,4.39313 0.8299,7.37764c0,5.21893 -1.41254,10.32688 -4.44854,10.29706c-3.23186,-0.03175 -4.44854,-5.07812 -4.44854,-10.29705c0,-5.21893 1.41143,-9.4497 4.44854,-9.4497z" fill="#ffffff"/><path d="M237.98757,170.55023c2.94039,0 4.44854,4.23077 4.44854,9.4497c0,5.21893 -1.41254,9.47953 -4.44854,9.4497c-3.23189,-0.03175 -4.44854,-4.23077 -4.44854,-9.4497c0,-5.21893 1.41144,-9.4497 4.44854,-9.4497z" fill="#f29e4a"/></g></g></g></svg>