<svg version="1.1" xmlns="http://www.w3.org/2000/svg" xmlns:xlink="http://www.w3.org/1999/xlink" width="42.03149" height="41.48156" viewBox="0,0,42.03149,41.48156"><g transform="translate(-218.98426,-159.25922)"><g data-paper-data="{&quot;isPaintingLayer&quot;:true}" fill-rule="nonzero" stroke="none" stroke-width="0" stroke-linecap="butt" stroke-linejoin="miter" stroke-miterlimit="10" stroke-dasharray="" stroke-dashoffset="0" style="mix-blend-mode: normal"><g><path d="M219.26857,200.7067v-41.32314h41.32315v41.32314z" fill="#dc570f"/><path d="M219.14005,200.74078v-3.34481h41.5641v3.34481z" fill="#752e08"/><path d="M219.14005,191.18421v-3.34481h41.56408v3.34481z" fill="#752e08"/><path d="M219.14005,181.78692v-3.3448h41.56408v3.3448z" fill="#752e08"/><path d="M219.14005,172.23035v-3.34481h41.56408v3.34481z" fill="#752e08"/><path d="M218.98426,162.60402v-3.3448h42.03149v3.3448z" fill="#ffffff"/><g fill="#752e08"><path d="M236.81622,169.04484v-6.37103h3.50408v6.37103z"/><path d="M257.09667,168.94142v-6.37104h3.50406v6.37104z"/></g><g fill="#752e08"><path d="M226.62255,178.44213v-6.37103h3.50407v6.37103z"/><path d="M246.90299,178.49452v-6.37104h3.50408v6.37104z"/></g><g fill="#752e08"><path d="M236.81622,187.99521v-6.68263h3.50408v6.68263z"/><path d="M257.09667,188.0476v-6.68264h3.50406v6.68264z"/></g><g fill="#752e08"><path d="M226.62255,197.39597v-6.37103h3.50407v6.37103z"/><path d="M246.90299,197.44837v-6.37104h3.50408v6.37104z"/></g></g></g></g></svg>