<svg version="1.1" xmlns="http://www.w3.org/2000/svg" xmlns:xlink="http://www.w3.org/1999/xlink" width="100.18019" height="100.18019" viewBox="0,0,100.18019,100.18019"><g transform="translate(-190.37892,-128.50287)"><g data-paper-data="{&quot;isPaintingLayer&quot;:true}" fill-rule="nonzero" stroke-linejoin="miter" stroke-miterlimit="10" stroke-dasharray="" stroke-dashoffset="0" style="mix-blend-mode: normal"><path d="M199.16466,220.83534v-81.67068h81.67068v81.67068z" data-paper-data="{&quot;index&quot;:null}" fill="none" stroke="none" stroke-width="0" stroke-linecap="butt"/><g stroke="none" stroke-width="0" stroke-linecap="butt"><g data-paper-data="{&quot;index&quot;:null}"><path d="M257.23214,152.46774c0.0421,2.32164 -1.03849,2.60282 -3.66364,3.30739c-1.18817,0.3189 -3.08263,0.37753 -4.03573,0.02011c-1.00776,-0.37794 -1.98823,-1.17732 -2.2635,-2.2029c-0.19218,-0.71604 1.77154,-1.37753 2.21012,-2.09716c0.78368,-1.28587 0.58221,-2.52577 3.05288,-3.18888c3.88979,-1.04401 4.66241,2.09564 4.69988,4.16145z" data-paper-data="{&quot;index&quot;:null}" fill="#f29e4a"/><path d="M249.10492,155.60288l9.38838,-1.74512c0,0 -0.26956,8.02781 -2.29249,12.59685c-2.02292,4.56904 -8.1321,10.94844 -8.1321,10.94844l-9.0938,-4.09883c0,0 9.66436,-13.88001 10.22137,-14.70238c0.59833,-0.88338 -0.09139,-2.99896 -0.09139,-2.99896z" data-paper-data="{&quot;index&quot;:null}" fill="#908816"/></g><path d="M256.52594,193.60384c-1.74787,2.71536 -5.57511,0.46579 -5.57511,0.46579c0,0 2.49309,-5.00262 4.24096,-7.71798c0.14186,-0.22037 1.77634,-2.95245 4.78718,-1.23555c2.61698,1.4923 -1.70516,5.77238 -3.45303,8.48774z" data-paper-data="{&quot;index&quot;:null}" fill="#908816"/><path d="M224.01831,191.72241c-0.18102,-1.13075 0.67743,-1.99076 1.33194,-2.54267c1.12522,-0.94883 2.7581,-0.45234 2.7581,-0.45234c0,0 1.89981,4.46042 2.39203,7.53513c0.03995,0.24953 1.35114,3.73533 -2.44905,4.79685c-3.7996,1.06135 -4.03302,-9.33697 -4.03302,-9.33697z" data-paper-data="{&quot;index&quot;:null}" fill="#908816"/><path d="M240.63187,171.3414c4.89882,0 9.09269,1.62229 9.87151,6.36516c0.26418,1.60882 0.57533,2.90304 0.33407,3.94526c-0.98149,4.23982 -6.27501,4.97324 -10.20558,5.08672c-5.38321,0.15542 -7.95772,0.88063 -9.04211,-0.55638c-1.25093,-1.65772 -0.51886,-5.66619 0.17202,-8.14635c1.33888,-4.80639 3.97128,-6.69441 8.87009,-6.69441z" data-paper-data="{&quot;index&quot;:null}" fill="#908816"/><path d="M236.01114,181.11176c2.48835,-3.22563 2.1372,-9.73097 2.1372,-9.73097l2.54838,-0.1617c0,0 -0.75172,7.05943 0.82527,8.38462c0.41552,0.34918 2.47117,0.59261 3.29689,-0.55428c0.81731,-1.1352 0.40688,-6.90907 0.40688,-6.90907l2.47059,1.454c0,0 0.27179,3.04526 0.75337,4.41852c0.42058,1.19933 2.64192,3.37012 2.64192,3.37012l-0.77538,2.93027c0,0 0.52436,-0.21665 2.04836,-0.12976c1.524,0.08689 3.50691,1.83537 3.50691,1.83537l-4.77994,8.26203c0,0 -1.67388,-2.75536 -6.08763,-2.46596c-2.41836,0.15856 -5.22349,2.18513 -7.75364,3.14595c-4.0065,1.52146 -5.33321,1.37467 -5.33321,1.37467c0,0 -1.91518,0.473 -3.00957,-2.22472c-1.27292,-3.13782 -0.82101,-5.7573 -0.82101,-5.7573l2.54023,-0.9687l0.24202,-3.85031c0,0 2.65401,0.80286 5.14236,-2.42277z" data-paper-data="{&quot;index&quot;:null}" fill="#f32f00"/><path d="M238.24839,182.14596c0,-0.7748 0.6281,-1.4029 1.4029,-1.4029c0.7748,0 1.4029,0.6281 1.4029,1.4029c0,0.7748 -0.6281,1.4029 -1.4029,1.4029c-0.7748,0 -1.4029,-0.6281 -1.4029,-1.4029z" data-paper-data="{&quot;index&quot;:null}" fill="#f29e4a"/><path d="M244.23412,182.14596c0,-0.7748 0.6281,-1.4029 1.4029,-1.4029c0.7748,0 1.4029,0.6281 1.4029,1.4029c0,0.7748 -0.6281,1.4029 -1.4029,1.4029c-0.7748,0 -1.4029,-0.6281 -1.4029,-1.4029z" data-paper-data="{&quot;index&quot;:null}" fill="#f29e4a"/><path d="M232.92706,163.90825c0,-4.85542 4.03781,-7.70348 10.90394,-7.4757c6.61047,0.2193 4.69022,2.12894 7.4405,4.34811c1.12532,0.908 3.24892,1.12351 4.66539,2.17303c1.41646,1.04952 2.3069,2.47596 2.3069,3.8055c0,0.93882 -1.66469,1.29868 -2.77421,1.49497c-1.96301,0.34728 -2.06196,2.37903 -3.87036,3.21789c-2.94335,1.36533 -4.95615,1.22771 -8.20683,1.22771c-4.92997,0 -7.87426,0.16604 -9.88711,-2.77308c-0.79206,-1.15655 -0.57823,-4.64736 -0.57823,-6.01844z" data-paper-data="{&quot;index&quot;:null}" fill="#f29e4a"/><path d="M244.16212,169.94565c-0.04146,-0.38096 0.95442,-0.44165 1.6617,-1.22063c0.64158,-0.70661 0.93681,-2.14784 2.04264,-2.26817c1.04463,-0.11367 2.02627,1.58691 3.39548,1.94923c1.67807,0.44405 3.66583,-0.38768 3.70937,0.01241c0.00949,0.08717 0.27304,1.77687 -0.16109,2.13249c-0.48808,0.39981 -1.68085,-0.53535 -1.68085,-0.53535c0,0 -0.71961,1.23475 -1.3328,1.52534c-1.2689,0.60133 -1.83782,-0.36864 -1.83782,-0.36864c0,0 -1.57212,0.89747 -2.06715,0.75744c-0.88916,-0.25151 -1.40015,-1.38467 -1.40015,-1.38467c0,0 -2.29256,-0.2615 -2.32934,-0.59946z" data-paper-data="{&quot;index&quot;:null}" fill="#908816"/><path d="M234.71388,157.84746c3.04434,-1.44057 7.05335,-2.37897 8.30893,-0.64016c0.68823,0.95312 -3.58922,5.24878 -3.04566,6.12274c0.52579,0.84537 1.39509,1.76705 1.0406,2.90197c-0.14822,0.47454 -0.65942,1.68985 -1.24746,1.78241c-0.61778,0.09724 -1.32036,-0.931 -1.77594,-0.50963c-1.10172,1.01899 -1.34566,3.28156 -2.40326,3.28156c-1.87981,0 -4.8447,0.24523 -5.66583,-1.33633c-1.57795,-3.03924 0.41035,-5.33428 0.62186,-6.33928c0.65791,-3.12613 1.12242,-3.82271 4.16676,-5.26328z" data-paper-data="{&quot;index&quot;:null}" fill="#908816"/><path d="M235.95364,166.07136c0,-1.63509 1.15284,-2.61749 1.94011,-2.61749c0.78727,0 1.42547,0.9824 1.42547,2.61749c0,1.63509 -0.6382,2.96059 -1.42547,2.96059c-0.78727,0 -1.94011,-1.3255 -1.94011,-2.96059z" data-paper-data="{&quot;index&quot;:null}" fill="#f29e4a"/><path d="M247.43346,160.04052c0.84782,0 1.53512,1.03094 1.53512,2.30268c0,1.27173 -0.6873,2.30268 -1.53512,2.30268c-0.84782,0 -1.53512,-1.03094 -1.53512,-2.30268c0,-1.27173 0.6873,-2.30268 1.53512,-2.30268z" data-paper-data="{&quot;index&quot;:null}" fill="#908816"/><path d="M231.64362,158.06682c0.3843,-0.75573 1.80687,-5.75107 10.85551,-5.26328c5.41768,0.29205 7.1849,3.7924 7.55483,3.7625c2.90251,-0.23459 6.15162,1.01267 6.15162,1.50077c0,0.84782 -5.74385,1.53512 -12.82924,1.53512c-7.08539,0 -12.60993,0.18992 -11.73272,-1.53512z" data-paper-data="{&quot;index&quot;:null}" fill="#f32f00"/><g><path d="M229.36836,183.66134c0,0 -2.90729,-3.3975 -4.53681,-4.09171c-1.23879,-0.52775 -3.8687,-0.94452 -3.8687,-0.94452c0,0 3.7584,-4.37008 7.12046,-5.36604c5.01579,-1.48585 10.38559,-0.71128 10.38559,-0.71128l-3.71295,7.8614c0,0 -2.60391,-0.08446 -3.54968,0.21902c-1.01592,0.32598 -1.83792,3.03313 -1.83792,3.03313z" data-paper-data="{&quot;index&quot;:null}" fill="#908816"/><path d="M225.35297,179.06153c1.1318,0.48217 2.65882,1.60494 3.18831,2.47431c0.55986,0.91921 0.83821,2.15327 0.42202,3.13019c-0.29058,0.68206 -2.24408,-0.00903 -3.03324,0.28666c-1.41012,0.52836 -2.01662,1.62842 -4.37006,0.6258c-3.70522,-1.57849 -2.37603,-4.52597 -1.13087,-6.17475c1.39937,-1.85298 2.42321,-1.4075 4.92382,-0.3422z" data-paper-data="{&quot;index&quot;:null}" fill="#f29e4a"/></g></g><g fill="none" stroke="#ffffff" stroke-width="1.5" stroke-linecap="round"><g><g><path d="M211.20264,178.59296h-20.07373"/><path d="M289.80911,178.59297h-20.07373"/></g><g><path d="M240.46901,207.85933l0,20.07373"/><path d="M240.46901,129.25287v20.07373"/></g></g><g><g><path d="M217.67771,196.95262l-15.6325,12.59284"/><path d="M278.8928,147.64046l-15.6325,12.59284"/></g><g><path d="M258.82867,201.38426l12.59284,15.6325"/><path d="M209.51651,140.16917l12.59284,15.63249"/></g></g></g></g></g></svg>