<svg version="1.1" xmlns="http://www.w3.org/2000/svg" xmlns:xlink="http://www.w3.org/1999/xlink" width="85.49398" height="85.49398" viewBox="0,0,85.49398,85.49398"><defs><linearGradient x1="-3285.69704" y1="-2895.28055" x2="-3285.69704" y2="4105.40967" gradientUnits="userSpaceOnUse" id="color-1"><stop offset="0" stop-color="#ffffff"/><stop offset="1" stop-color="#ffffff" stop-opacity="0"/></linearGradient></defs><g transform="translate(-197.25302,-137.25301)"><g data-paper-data="{&quot;isPaintingLayer&quot;:true}" fill-rule="nonzero" stroke-linejoin="miter" stroke-miterlimit="10" stroke-dasharray="" stroke-dashoffset="0" style="mix-blend-mode: normal"><path d="M197.25302,222.74699v-85.49398h85.49398v85.49398z" fill="none" stroke="none" stroke-width="0" stroke-linecap="butt"/><path d="M208.63952,205.58013c0.00324,-13.1024 0,-44.63208 0,-51.75c0,-3.5626 2.97813,-5.21784 6.54073,-5.21784c12.68063,0 43.89984,0 51,0c2.96729,0 5.18024,2.50056 5.18024,5.46784c0,6.43742 0,39.20833 0,51.75c0,2.95974 -2.72049,5.55758 -5.68024,5.55758c-6.61442,0 -39.17756,0 -52,0c-3.13138,0 -5.04177,-1.58613 -5.04073,-5.80758z" fill="url(#color-1)" stroke="#a97a4a" stroke-width="2" stroke-linecap="butt"/><g data-paper-data="{&quot;index&quot;:null}"><g data-paper-data="{&quot;index&quot;:null}" stroke="none" stroke-width="0" stroke-linecap="butt"><path d="M235.2103,194.32913c-0.72598,0.21457 -3.45587,-0.14425 -5.04368,-1.45552c-1.58781,-1.31127 -1.22928,-3.27698 -2.26046,-4.5765c-0.60213,-0.75882 -0.90084,-1.8388 -1.73635,-2.74886c-0.59536,-0.64847 -1.84016,-1.21068 -1.95301,-1.50893c-0.14793,-0.39101 1.42007,-1.09031 1.72516,-1.60206c0.60873,-1.02105 0.76286,-2.59495 0.80433,-4.06334c0.06271,-2.22078 2.54776,-2.89722 -0.007,-4.00999c-0.71999,-0.31361 -1.32595,1.01442 -1.7433,1.81855c-0.5669,1.09227 -1.33953,0.72991 -1.79259,1.97201c-0.54678,1.49905 -0.74464,4.51944 -1.07797,4.58425c-0.37558,0.07303 -1.28906,-0.94254 -2.10874,-3.73839c-0.40751,-1.38996 -0.96179,-4.83706 -0.57158,-7.93191c0.3902,-3.09485 1.71669,-2.02441 2.68074,-4.21018c0.6358,-1.44153 1.26165,-4.77535 1.97801,-6.4126c1.07631,-2.45994 2.35692,-2.25773 4.18245,-2.25773c1.70936,0 4.03023,1.68339 5.3216,4.69456c1.39039,3.24208 1.88205,8.58563 0.50172,11.34305c-0.99484,1.98737 -2.1724,4.25612 -2.81547,5.84666c-0.48995,1.21183 -0.57782,2.02996 -0.57782,2.02996l4.93228,0.82393z" data-paper-data="{&quot;index&quot;:null}" fill="#f29e4a"/><path d="M223.67354,171.83722c0,0.35608 -1.07987,0.16939 -1.48887,0.41005c-0.44449,0.26153 -0.23527,0.93535 -0.62223,0.93535c-0.74304,0 -0.57971,-0.60236 -0.57971,-1.3454c0,-0.74304 0.60236,-1.3454 1.3454,-1.3454c0.74304,0 1.34539,0.60236 1.34539,1.3454z" data-paper-data="{&quot;index&quot;:null}" fill="#f32f00"/><g data-paper-data="{&quot;index&quot;:null}"><path d="M230.20832,164.53362c0,4.35211 -1.84726,6.3426 -3.6518,6.3426c-1.80453,0 -2.88299,-1.99048 -2.88299,-6.3426c0,-4.35211 -0.08856,-7.6453 3.2674,-7.88019c2.94592,-0.2062 3.26739,3.52808 3.26739,7.88019z" fill="#ffffff"/><path d="M226.3651,164.91801c0,1.59224 -0.7292,2.62778 -1.47224,2.62778c-0.74304,0 -0.83493,-1.03554 -0.83493,-2.62778c0,-1.59222 0.09189,-2.62776 0.83493,-2.62776c0.74304,0 1.47224,1.03552 1.47224,2.62776z" fill="#f32f00"/></g></g><path d="M251.81065,199.3365c0.81373,-0.64308 1.57253,-1.93978 1.57253,-1.93978c0,0 1.61607,1.38487 2.44571,1.84532c1.53135,0.84989 3.161,1.9391 2.9402,2.05946c-0.01824,0.49886 -2.70881,1.21183 -5.38591,1.21183c-2.67711,0 -5.38592,-0.94254 -5.38592,-0.94254c0,0 2.24925,-0.99818 3.81339,-2.2343z" data-paper-data="{&quot;index&quot;:null}" fill="#f29e4a" stroke="none" stroke-width="0" stroke-linecap="butt"/><path d="M235.6636,197.09042c2.23268,1.76447 5.44332,3.18929 5.44332,3.18929c0,0 -3.86662,1.3454 -7.68799,1.3454c-3.82138,0 -8.53754,-0.14214 -8.56358,-0.85422c-0.31518,-0.17179 2.88661,-2.60213 5.07249,-3.8153c1.18425,-0.65726 3.49108,-2.63407 3.49108,-2.63407c0,0 1.08313,1.85095 2.24467,2.76891z" data-paper-data="{&quot;index&quot;:null}" fill="#f29e4a" stroke="none" stroke-width="0" stroke-linecap="butt"/><path d="M245.59508,200.85632c-3.93741,0 -6.72042,-1.56436 -9.18398,-3.22147c-1.55228,-1.04414 -3.39938,-1.42976 -4.00179,-3.67208c-1.1083,-4.12537 0.74566,-5.30907 0.74566,-6.95728c0,-2.04068 -0.19368,-6.04447 -0.19368,-6.04447c0,0 1.28165,-1.44248 2.8474,-3.66549c2.79786,-3.97234 5.98467,-5.03369 11.18493,-4.11598c7.91234,1.39633 9.06615,9.14443 9.06615,17.42405c0,1.92406 -0.15655,5.82574 -0.15655,5.82574z" data-paper-data="{&quot;index&quot;:null}" fill="#f32f00" stroke="none" stroke-width="NaN" stroke-linecap="butt"/><g data-paper-data="{&quot;index&quot;:null}" fill="#f29e4a" stroke="none" stroke-width="0" stroke-linecap="butt"><path d="M256.00211,193.69142l-17.42036,-19.36997l1.6802,-0.95492l15.96835,17.51286z"/><path d="M250.80299,200.44528l-17.68395,-19.49291l1.13475,-1.52129l17.78536,19.65516z"/></g><g data-paper-data="{&quot;index&quot;:null}" fill="#f29e4a" stroke="none" stroke-width="0" stroke-linecap="butt"><path d="M232.42049,192.45531l16.88327,-18.56187l1.76061,0.78245l-17.40771,19.13848z"/><path d="M238.71398,198.60571l16.25219,-18.08448l0.63129,2.25392l-15.64732,17.18963z"/></g><path d="M253.16745,178.86749c0.96917,2.14682 0.47585,4.82523 0.47585,4.82523c0,0 -0.4936,-2.46452 -0.97422,-3.64423c-0.45368,-1.11355 -1.83329,-3.24696 -1.83329,-3.24696c0,0 1.83143,0.95787 2.33167,2.06595z" data-paper-data="{&quot;index&quot;:null}" fill="#ffffff" stroke="none" stroke-width="0" stroke-linecap="butt"/><path d="M257.58603,197.3967c0,0 -2.18396,-0.32679 -3.81072,0.06207c-1.72697,0.41282 -3.72314,2.37592 -6.06609,2.76028c-3.80703,0.62453 -8.144,-0.36202 -10.85617,-2.01927c-1.90424,-1.16356 -3.84417,-2.95789 -4.42217,-4.96129c-0.77964,-2.7023 0.20115,-5.78501 0.3235,-8.21325c0.11755,-2.33308 -0.20583,-4.21423 -0.20583,-4.21423" data-paper-data="{&quot;index&quot;:null}" fill="none" stroke="#ffffff" stroke-width="3.5" stroke-linecap="round"/></g></g></g></svg>