<svg version="1.1" xmlns="http://www.w3.org/2000/svg" xmlns:xlink="http://www.w3.org/1999/xlink" width="85.49398" height="101.24691" viewBox="0,0,85.49398,101.24691"><defs><linearGradient x1="240.22199" y1="158.66989" x2="240.22199" y2="230.27968" gradientUnits="userSpaceOnUse" id="color-1"><stop offset="0" stop-color="#ffffff" stop-opacity="0"/><stop offset="1" stop-color="#ffffff"/></linearGradient></defs><g transform="translate(-197.25302,-137.25301)"><g data-paper-data="{&quot;isPaintingLayer&quot;:true}" fill-rule="nonzero" stroke-linejoin="miter" stroke-miterlimit="10" stroke-dasharray="" stroke-dashoffset="0" style="mix-blend-mode: normal"><path d="M197.25302,222.74699v-85.49398h85.49398v85.49398z" data-paper-data="{&quot;index&quot;:null}" fill="none" stroke="none" stroke-width="0" stroke-linecap="butt"/><text transform="translate(218.46554,233.29455) scale(0.41643,0.41643)" font-size="40" xml:space="preserve" fill="#752e08" fill-rule="nonzero" stroke="none" stroke-width="1" stroke-linecap="butt" stroke-linejoin="miter" stroke-miterlimit="10" stroke-dasharray="" stroke-dashoffset="0" font-family="Sans Serif" font-weight="normal" text-anchor="start" style="mix-blend-mode: normal"><tspan x="0" dy="0">Mobs</tspan></text><path d="M266.49911,153.80291h8.87366" fill="none" stroke="#a97a4a" stroke-width="2.5" stroke-linecap="round"/><g><g><path d="M213.74128,209.57371v-50.90382h52.96141v50.90383l-4.47561,3.97832h-44.25884z" fill="url(#color-1)" stroke="none" stroke-width="0" stroke-linecap="butt"/><path d="M266.59918,154.96387c0,0 0.08078,44.35504 0.09924,52.28921c0.00918,3.9444 -2.55058,6.39264 -6.49499,6.3929c-11.37037,0.00073 -34.23725,0.00222 -40.50616,0.00263c-3.84934,0.00025 -6.39571,-2.54596 -6.39571,-6.3953c0,-7.93565 0,-52.28944 0,-52.28944" fill="none" stroke="#a97a4a" stroke-width="2.5" stroke-linecap="round"/></g><g data-paper-data="{&quot;index&quot;:null}" stroke="none" stroke-width="0" stroke-linecap="butt"><g><path d="M240.1423,168.79461c8.35008,0 14.14374,8.96751 16.74488,15.76945c3.00721,7.86381 -8.55793,12.19288 -16.97713,12.19288c-8.42482,0 -19.67047,-4.82947 -16.83778,-11.86773c3.48928,-8.66965 8.71994,-16.0946 17.07003,-16.0946z" data-paper-data="{&quot;index&quot;:null}" fill="#a97a4a"/><g data-paper-data="{&quot;index&quot;:null}"><g data-paper-data="{&quot;index&quot;:null}"><path d="M232.68531,178.23905c0,0 2.95134,2.8748 3.85945,3.81442c0.575,0.59494 1.72474,-0.10304 1.72474,1.12045c0,3.15579 -1.68613,5.71406 -3.76608,5.71406c-2.07995,0 -3.76609,-2.55827 -3.76609,-5.71406c0,-3.15579 1.94798,-4.93487 1.94798,-4.93487z" fill="#ffe2e2"/><path d="M237.23058,183.56348c0,1.64962 -0.93028,2.98689 -2.07784,2.98689c-1.14756,0 -2.07784,-1.33728 -2.07784,-2.98689c0,-1.64962 0.93028,-2.98689 2.07784,-2.98689c1.14756,0 2.07784,1.33728 2.07784,2.98689z" fill="#752e08"/></g><g data-paper-data="{&quot;index&quot;:null}"><path d="M249.17815,183.17389c0,3.15579 -1.68613,5.71406 -3.76608,5.71406c-2.07995,0 -3.76608,-2.55827 -3.76608,-5.71406c0,-1.22348 1.14975,-0.5255 1.72474,-1.12045c0.90811,-0.93962 3.85945,-3.81442 3.85945,-3.81442c0,0 1.94797,1.77908 1.94797,4.93487z" fill="#ffe2e2"/><path d="M244.76274,180.57661c1.14756,0 2.07784,1.33728 2.07784,2.98689c0,1.64962 -0.93028,2.98689 -2.07784,2.98689c-1.14756,0 -2.07784,-1.33728 -2.07784,-2.98689c0,-1.64962 0.93028,-2.98689 2.07784,-2.98689z" fill="#752e08"/></g><g data-paper-data="{&quot;index&quot;:null}" fill="#752e08"><path d="M228.98798,178.23903v-2.5973c0,0 3.07423,0.67809 4.74449,1.72232c1.67027,1.04423 2.30357,2.6049 3.6333,3.51539c1.39006,0.9518 2.7906,0.73608 2.7906,0.73608v2.5973c0,0 -1.69204,0.5261 -3.24926,-0.5176c-1.54107,-1.03288 -2.13198,-2.62052 -3.96674,-3.94482c-1.83475,-1.3243 -3.95239,-1.51136 -3.95239,-1.51136z"/><path d="M246.98276,179.75037c-1.83475,1.3243 -2.42567,2.91195 -3.96674,3.94482c-1.55722,1.0437 -3.24926,0.5176 -3.24926,0.5176v-2.5973c0,0 1.40053,0.21572 2.7906,-0.73608c1.32972,-0.91049 1.96303,-2.47115 3.6333,-3.51539c1.67027,-1.04424 4.74449,-1.72232 4.74449,-1.72232v2.5973c0,0 -2.11764,0.18706 -3.95239,1.51136z" data-paper-data="{&quot;index&quot;:null}"/></g></g></g><path d="M235.18691,198.5151c2.03205,0.97338 3.69852,0.9038 3.79132,2.67659c0.0928,1.77278 -1.656,3.30539 -3.90607,3.42319c-2.25007,0.11779 -5.3692,-1.32213 -5.14381,-3.63671c0.31489,-3.23375 2.52873,-3.77069 5.25856,-2.46307z" data-paper-data="{&quot;index&quot;:null}" fill="#752e08"/><path d="M240.22046,194.58922c4.75865,0 8.6163,-0.09092 8.6163,2.79496c0,2.88588 -3.85765,5.22535 -8.6163,5.22535c-4.75865,0 -8.6163,-2.33947 -8.6163,-5.22535c0,-2.88589 3.85765,-2.79496 8.6163,-2.79496z" fill="#ffe2e2"/><path d="M253.03727,199.34034c0.78918,2.95452 -2.94848,5.4921 -5.89297,5.8222c-2.94448,0.33011 -5.5423,-1.28294 -5.80238,-3.60284c-0.26008,-2.3199 1.9169,-2.5873 4.34434,-4.28628c3.26098,-2.28238 6.24842,-2.06091 7.35101,2.06692z" fill="#752e08"/></g></g><path d="M204.30996,153.80291h9.25993" fill="none" stroke="#a97a4a" stroke-width="2.5" stroke-linecap="round"/></g></g></svg>