<svg version="1.1" xmlns="http://www.w3.org/2000/svg" xmlns:xlink="http://www.w3.org/1999/xlink" width="42.07269" height="60.61698" viewBox="0,0,42.07269,60.61698"><g transform="translate(-218.96366,-138.70754)"><g data-paper-data="{&quot;isPaintingLayer&quot;:true}" fill-rule="nonzero" stroke-width="0" stroke-linecap="butt" stroke-linejoin="miter" stroke-miterlimit="10" stroke-dasharray="" stroke-dashoffset="0" style="mix-blend-mode: normal"><g data-paper-data="{&quot;index&quot;:null}" stroke="none"><path d="M230.73134,162.18275c-0.82889,-0.76422 -1.72012,-1.47565 -1.72012,-1.47565c0,0 6.03573,-0.38663 10.63152,1.54382c4.5958,1.93046 6.97694,5.6607 6.97694,5.6607l-14.61835,-3.94533c0,0 -0.57055,-1.13866 -1.27,-1.78353z" fill="#f29e4a"/><path d="M255.92225,184.37904c0,0 1.21115,0.24597 1.93021,-0.26617c1.31614,-0.93741 2.54533,-2.80209 2.72109,-1.96379c0.28773,1.3723 1.16278,4.86034 -0.66446,9.77755c-1.18638,3.19261 -4.03135,6.68991 -5.31577,6.68991c-0.85437,0 -1.14033,-5.76664 -1.14033,-5.76664l2.46927,-8.47084z" fill="#f29e4a"/><g><path d="M222.36652,178.6479c0,-7.75727 5.84619,-15.36774 14.24223,-15.36774c8.39604,0 20.96327,13.55928 20.64323,23.29949c-0.25474,7.75282 -5.35725,11.42765 -14.24223,12.39335c-5.95924,0.64769 -14.84919,-0.73265 -16.56384,-3.88016c-0.58731,-1.0781 -0.06796,-2.4906 -0.5089,-3.55001c-0.78352,-1.88249 -2.37861,-3.39023 -2.77454,-5.20163c-0.58085,-2.65742 -0.79596,-5.23001 -0.79596,-7.69329z" fill="#f32f00"/><path d="M230.65867,188.31615c0,0 3.72556,0.1928 10.31228,3.45217c6.58673,3.25937 8.52976,5.97488 8.52976,5.97488c0,0 -3.93974,1.13514 -6.33093,1.39504c-5.95922,0.64769 -14.64025,-0.30119 -16.98165,-4.31161z" fill="#ffffff"/></g><g><g><path d="M229.39528,169.62282c3.8763,0 4.66263,2.98758 4.66263,6.67295c0,3.68537 -0.56948,6.67295 -4.66263,6.67295c-3.44255,0 -4.66261,-2.98758 -4.66261,-6.67295c0,-3.68537 0.56946,-6.67295 4.66261,-6.67295z" fill="#ffffff"/><path d="M228.0941,174.47587c0.89828,0 1.62649,1.14071 1.62649,2.54784c0,1.40713 -0.7282,2.54784 -1.62649,2.54784c-0.89828,0 -1.62649,-1.14071 -1.62649,-2.54784c0,-1.40714 0.7282,-2.54784 1.62649,-2.54784z" fill="#f32f00"/></g><g><path d="M218.96378,176.63517c0,-3.68537 -0.08112,-6.91559 4.01203,-6.91559c2.14136,0 3.5783,2.98758 3.5783,6.67295c0,3.68537 -1.43694,6.18763 -3.5783,6.18763c-3.44257,0 -4.01203,-2.25961 -4.01203,-5.94498z" fill="#ffffff"/><path d="M222.32518,174.32998c0.89829,0 1.62651,1.14073 1.62651,2.54786c0,1.40714 -0.72822,2.54784 -1.62651,2.54784c-0.89828,0 -1.62648,-1.14071 -1.62648,-2.54784c0,-1.40714 0.72819,-2.54786 1.62648,-2.54786z" fill="#f32f00"/></g></g><path d="M226.87032,193.53425c1.75439,-0.74558 -1.13649,-6.55036 -3.9658,-6.97792c-1.42241,-0.21495 -2.24932,-0.07221 -2.5499,-1.11203c-0.42161,-1.45848 1.15884,-3.0806 2.81696,-3.0806c2.71425,0 6.10938,2.42356 7.22505,6.02238c0.44849,1.44673 1.69523,4.17746 0.33641,5.65073c-2.44937,2.65568 -7.58576,3.36204 -7.56147,0.64485c0.01528,-1.70889 1.94436,-0.40183 3.69874,-1.14741z" fill="#f29e4a"/><path d="M244.40883,176.7102c11.34119,-11.93664 18.21463,-5.54877 16.1526,1.41954c-0.57614,1.94699 -1.5269,4.7639 -3.19988,5.75185c-4.31467,2.54793 -11.49104,0.95299 -15.01474,0.45858c-2.52922,-0.35488 -1.46052,-3.92246 2.06203,-7.62996z" fill="#ffffff"/></g><path d="M235.58351,147.63142c-0.66196,0.66165 -1.73554,0.66085 -2.39702,-0.00176c-0.66196,-0.66231 -0.66117,-1.73558 0.00175,-2.39754c2.61557,-2.61176 6.03794,-6.02898 6.03794,-6.02898c0.66231,-0.66148 1.73575,-0.66069 2.39737,0.00175c0,0 3.96033,3.96562 6.0778,6.08652c0.66165,0.66244 0.66069,1.73554 -0.00175,2.3975c-0.66244,0.66165 -1.73571,0.66086 -2.39736,-0.00175c-2.61158,-2.61557 -3.18457,-3.18254 -3.18457,-3.18254c0,0 -0.00965,8.43887 -0.01184,11.43572c-0.00069,0.93633 -0.76004,1.69476 -1.69637,1.69407c-0.93619,-0.00069 -1.69475,-0.76025 -1.6941,-1.69655c0.00261,-3.57449 0.0117,-11.44492 0.0117,-11.44492c0,0 -1.02202,1.02065 -3.14354,3.13846z" fill="#f29e4a" stroke="#ffffff"/></g></g></svg>