<svg version="1.1" xmlns="http://www.w3.org/2000/svg" xmlns:xlink="http://www.w3.org/1999/xlink" width="449.13172" height="249.68832" viewBox="0,0,449.13172,249.68832"><g transform="translate(-13.09806,-41.99542)"><g data-paper-data="{&quot;isPaintingLayer&quot;:true}" fill-rule="nonzero" stroke-linejoin="miter" stroke-miterlimit="10" stroke-dasharray="" stroke-dashoffset="0" style="mix-blend-mode: normal"><g><g><g data-paper-data="{&quot;index&quot;:null}"><path d="M395.39699,109.2496c0,0 -1.7585,2.42908 -6.52152,2.67713c-4.76302,0.24806 -7.35382,-2.13623 -7.35382,-2.13623l0.25191,-31.35716c0,0 4.80983,-0.13964 6.53337,1.1637c1.90819,1.44297 3.86751,7.11793 3.86751,7.11793c0,0 1.77791,-2.33752 3.14394,-2.35133c5.12986,-0.05185 4.96263,9.39687 4.96263,9.39687c0,0 2.37022,-2.15366 4.17582,-0.41535c2.16068,2.08016 0.76937,6.78536 0.76937,6.78536c0,0 1.14536,1.28849 1.43186,2.84395c0.27205,1.47696 0.33487,2.46204 -0.53417,3.60628c-2.80423,3.69221 -10.72688,2.66886 -10.72688,2.66886z" fill="#bee7ff" stroke="#000000" stroke-width="0" stroke-linecap="butt"/><path d="M381.93198,78.55793c0,0 4.59042,-0.50488 6.53294,1.35521c2.96645,2.84054 2.90136,6.78609 3.33635,6.92443c0.50732,0.16133 1.3124,-1.79571 3.40571,-2.34687c3.87073,-1.01913 4.81485,4.50375 4.9975,8.50222c0.0738,1.61566 1.17423,-1.2579 3.32676,-0.35838c1.42525,0.59559 2.31272,2.49319 2.03079,4.37888c-0.21522,1.43949 -0.51777,2.79893 -0.44056,2.92003c1.73293,2.71805 2.01,3.9364 1.0974,6.14097c-1.74449,4.21409 -10.96251,3.22973 -10.96251,3.22973c0,0 -2.14872,2.35303 -6.78431,2.6148c-4.43194,0.25027 -6.3439,-1.75256 -6.3439,-1.75256" fill="none" stroke="#b5e4ff" stroke-width="1" stroke-linecap="round"/></g></g><g><g><path d="M354.94772,104.1626c0,0 -1.42434,-1.35181 -1.89673,-2.65973c-0.54522,-1.50957 -0.14897,-3.02601 -0.14897,-3.40175c0,-0.68891 2.05577,-0.5832 2.29712,-1.24767c0.3497,-0.96277 0.82305,-2.67743 2.00762,-3.5435c1.89832,-1.38794 6.96566,-1.59394 6.96566,-1.59394l2.29546,-2.82227c0,0 -0.97008,-2.97103 1.10241,-5.63617c0.49508,-0.63664 1.7588,-1.93078 2.70639,-2.3451c1.00523,-0.43952 2.29411,0.20243 3.11757,-0.31959c1.92921,-1.22302 2.13641,-2.21116 3.60951,-2.21116c2.75842,0 5.21777,0 5.21777,0v31.66564l-1.74167,0.08547c0,0 -3.113,2.00818 -5.94967,2.20716c-1.24468,0.0873 -4.5411,-1.56348 -5.01163,-1.54176c-1.61501,0.0745 -5.40221,-0.15763 -6.40953,-0.38831c-3.03427,-0.69488 -2.82707,-2.99104 -4.05761,-4.1998c-1.52872,-1.50166 -4.10368,-2.04752 -4.10368,-2.04752z" fill="#bee7ff" stroke="#000000" stroke-width="0" stroke-linecap="butt"/><path d="M381.86693,110.42698c0,0 -0.39444,0.0015 -0.93338,-0.10449c-0.27461,-0.054 -0.58674,-0.39075 -0.90332,-0.24516c-0.95617,0.43976 -1.97331,2.09213 -4.26728,2.10642c-4.88805,0.03044 -5.48893,-1.55598 -6.56387,-1.47152c-3.19587,0.25114 -3.0373,0.79406 -6.19057,-0.13038c-3.30511,-0.96896 -2.76516,-2.95201 -4.43597,-4.89898c-0.77608,-0.90435 -2.18436,-0.71808 -3.36219,-1.59227c-2.08526,-1.54769 -2.64837,-4.57088 -2.31799,-5.65217c0.33037,-1.0813 1.99304,-0.51457 2.43448,-1.61913c1.56322,-3.91153 4.65585,-5.56151 8.85445,-5.22156c0.56723,0.04593 1.74969,-1.99848 1.96973,-2.68457c0.49984,-1.55852 -0.28206,-3.77906 1.25927,-5.57032c0.7957,-0.92473 1.58631,-2.08262 3.09341,-2.70779c0.41105,-0.1705 2.31515,0.47448 2.67362,0.28028c1.69173,-0.91649 1.65081,-1.67521 3.40827,-2.24447c0.74589,-0.2416 1.32568,-0.80811 2.38003,-0.80397c1.42989,0.0056 2.97152,0.64064 2.97152,0.64064" fill="none" stroke="#b5e4ff" stroke-width="1" stroke-linecap="round"/></g><g fill="#6ff1ff" stroke="none" stroke-width="0" stroke-linecap="butt"><path d=""/></g></g></g><g><g><g><path d="M80.74141,282.02826c0,0 -1.42434,-1.35181 -1.89673,-2.65974c-0.54521,-1.50956 -0.14896,-3.02601 -0.14896,-3.40175c0,-0.68892 2.05577,-0.5832 2.29712,-1.24766c0.3497,-0.96278 0.82304,-2.67741 2.00761,-3.5435c1.89832,-1.38794 6.96566,-1.59394 6.96566,-1.59394l2.29546,-2.82227c0,0 -0.97008,-2.97104 1.1024,-5.63618c0.49508,-0.63664 1.7588,-1.93078 2.70639,-2.3451c1.00523,-0.43952 2.29411,0.20242 3.11757,-0.31959c1.92921,-1.22303 2.13641,-2.21115 3.60951,-2.21115c2.75842,0 5.21776,0 5.21776,0v31.66564l-1.74166,0.08547c0,0 -3.113,2.00817 -5.94967,2.20716c-1.24469,0.0873 -4.5411,-1.56347 -5.01162,-1.54176c-1.61501,0.0745 -5.40221,-0.15762 -6.40954,-0.38832c-3.03427,-0.69488 -2.82708,-2.99104 -4.05761,-4.1998c-1.52873,-1.50167 -4.10368,-2.04752 -4.10368,-2.04752z" fill="#bee7ff" stroke="#000000" stroke-width="0" stroke-linecap="butt"/><path d="M107.66062,288.29264c0,0 -0.39444,0.0015 -0.93338,-0.10449c-0.27461,-0.05401 -0.58675,-0.39076 -0.90332,-0.24517c-0.95617,0.43976 -1.9733,2.09213 -4.26729,2.10642c-4.88804,0.03044 -5.48894,-1.55598 -6.56387,-1.47152c-3.19588,0.25114 -3.0373,0.79406 -6.19057,-0.13038c-3.30512,-0.96895 -2.76517,-2.95201 -4.43597,-4.89898c-0.77608,-0.90436 -2.18436,-0.71806 -3.36219,-1.59225c-2.08526,-1.5477 -2.64836,-4.57086 -2.31799,-5.65217c0.33037,-1.08131 1.99304,-0.51458 2.43448,-1.61913c1.56322,-3.91154 4.65584,-5.56151 8.85444,-5.22156c0.56723,0.04593 1.74969,-1.99848 1.96972,-2.68457c0.49984,-1.55852 -0.28206,-3.77906 1.25928,-5.57033c0.7957,-0.92474 1.58631,-2.08261 3.09341,-2.70779c0.41105,-0.17051 2.31517,0.47447 2.67363,0.28027c1.69174,-0.91651 1.65081,-1.67522 3.40826,-2.24448c0.74589,-0.24159 1.32568,-0.80811 2.38003,-0.80397c1.42989,0.0056 2.97153,0.64065 2.97153,0.64065" fill="none" stroke="#b5e4ff" stroke-width="1" stroke-linecap="round"/></g><g fill="#6ff1ff" stroke="none" stroke-width="0" stroke-linecap="butt"><path d=""/></g></g><g><g><path d="M107.22684,288.20447v-31.78348c0,0 2.50335,-0.7523 4.20506,0.96513c1.49689,1.51074 1.06926,3.88963 2.55141,5.9287c1.0475,1.44109 0.55549,-1.87791 4.18703,-1.07993c3.20515,0.70428 2.56117,4.67206 4.75328,4.42178c1.5403,-0.17584 1.93053,-2.29 3.20266,-4.6084c0.90167,-1.64326 2.74839,-2.36386 4.32313,-3.24073c1.25458,-0.69859 1.48325,-1.56242 2.47631,-1.99248c0.92972,-0.40263 3.07853,-0.39409 3.07853,-0.39409v31.78348c0,0 -4.35627,2.33136 -6.77203,2.3492c-2.2815,0.01685 -7.34279,-2.24492 -7.34279,-2.24492c0,0 -5.1674,1.63494 -7.57409,1.61782c-2.47872,-0.01763 -7.08851,-1.7221 -7.08851,-1.7221z" fill="#bee7ff" stroke="none" stroke-width="0" stroke-linecap="butt"/><path d="M135.72886,256.5461c0,0 -1.45587,-0.20788 -3.29288,0.64642c-0.86829,0.4038 -1.38374,1.05291 -2.16035,1.78872c-0.65258,0.61828 -2.67203,1.29778 -3.34207,1.94437c-1.89634,1.82997 -2.06113,5.23532 -3.90022,5.91926c-2.58108,0.95989 -2.09262,-4.80901 -4.93541,-4.54324c-2.84278,0.26577 -2.38848,2.30704 -3.43745,1.50178c-1.56,-1.19756 -1.72876,-5.44887 -3.24599,-6.53881c-1.43016,-1.02739 -3.7746,-0.84364 -3.7746,-0.84364" fill="none" stroke="#b5e4ff" stroke-width="1" stroke-linecap="round"/><g fill="none" stroke="none" stroke-width="1" stroke-linecap="butt" font-family="sans-serif" font-weight="normal" font-size="12" text-anchor="start"/></g><path d="M135.88802,288.13294c0,0 -2.0745,1.92045 -5.73862,2.2468c-4.56277,0.4064 -8.20452,-1.92578 -8.20452,-1.92578c0,0 -5.07891,1.34741 -7.39896,1.34741c-5.30365,0 -7.34352,-1.66843 -7.34352,-1.66843" fill="none" stroke="#b5e4ff" stroke-width="1" stroke-linecap="round"/></g><g><g data-paper-data="{&quot;index&quot;:null}"><path d="M149.25955,287.11525c0,0 -1.7585,2.42909 -6.52152,2.67714c-4.76302,0.24805 -7.35382,-2.13622 -7.35382,-2.13622l0.25192,-31.35715c0,0 4.80984,-0.13965 6.53337,1.16369c1.90819,1.44297 3.86752,7.11792 3.86752,7.11792c0,0 1.7779,-2.33751 3.14394,-2.35133c5.12986,-0.05185 4.96263,9.39687 4.96263,9.39687c0,0 2.37023,-2.15365 4.17582,-0.41535c2.16068,2.08015 0.76936,6.78537 0.76936,6.78537c0,0 1.14536,1.28849 1.43186,2.84394c0.27204,1.47696 0.33487,2.46205 -0.53418,3.60629c-2.80422,3.69222 -10.72689,2.66885 -10.72689,2.66885z" fill="#bee7ff" stroke="#000000" stroke-width="0" stroke-linecap="butt"/><path d="M135.79458,256.4236c0,0 4.59042,-0.50487 6.53294,1.35521c2.96645,2.84055 2.90136,6.78609 3.33635,6.92443c0.50731,0.16133 1.3124,-1.79571 3.40571,-2.34687c3.87073,-1.01914 4.81485,4.50375 4.9975,8.50222c0.0738,1.61567 1.17423,-1.25791 3.32676,-0.35838c1.42525,0.5956 2.31273,2.49319 2.0308,4.37888c-0.21522,1.43948 -0.51779,2.79893 -0.44056,2.92003c1.73293,2.71805 2.01,3.9364 1.0974,6.14097c-1.74449,4.2141 -10.96251,3.22973 -10.96251,3.22973c0,0 -2.14873,2.35303 -6.78431,2.6148c-4.43194,0.25027 -6.34391,-1.75256 -6.34391,-1.75256" fill="none" stroke="#b5e4ff" stroke-width="1" stroke-linecap="round"/></g><path d="M149.17848,280.99031c0.23497,0.36551 -0.09309,0.99519 -0.73276,1.40642c-0.63967,0.41123 -1.3487,0.44826 -1.5837,0.08273c-0.23498,-0.36552 0.28978,-0.4051 0.92946,-0.81632c0.63967,-0.41121 1.15201,-1.03835 1.38699,-0.67283z" fill="#92d3f6" stroke="none" stroke-width="0" stroke-linecap="butt"/></g></g><g><g><g data-paper-data="{&quot;index&quot;:null}"><path d="M248.39699,132.2496c0,0 -1.7585,2.42908 -6.52152,2.67713c-4.76302,0.24806 -7.35382,-2.13623 -7.35382,-2.13623l0.25191,-31.35716c0,0 4.80983,-0.13964 6.53337,1.1637c1.90819,1.44297 3.86751,7.11793 3.86751,7.11793c0,0 1.77791,-2.33752 3.14394,-2.35133c5.12986,-0.05185 4.96263,9.39687 4.96263,9.39687c0,0 2.37022,-2.15366 4.17582,-0.41535c2.16068,2.08016 0.76937,6.78536 0.76937,6.78536c0,0 1.14536,1.28849 1.43186,2.84395c0.27205,1.47696 0.33487,2.46204 -0.53417,3.60628c-2.80423,3.69221 -10.72688,2.66886 -10.72688,2.66886z" fill="#bee7ff" stroke="#000000" stroke-width="0" stroke-linecap="butt"/><path d="M234.93198,101.55793c0,0 4.59042,-0.50488 6.53294,1.35521c2.96645,2.84054 2.90136,6.78609 3.33635,6.92443c0.50732,0.16133 1.3124,-1.79571 3.40571,-2.34687c3.87073,-1.01913 4.81485,4.50375 4.9975,8.50222c0.0738,1.61566 1.17423,-1.2579 3.32676,-0.35838c1.42525,0.59559 2.31272,2.49319 2.03079,4.37888c-0.21522,1.43949 -0.51777,2.79893 -0.44056,2.92003c1.73293,2.71805 2.01,3.9364 1.0974,6.14097c-1.74449,4.21409 -10.96251,3.22973 -10.96251,3.22973c0,0 -2.14872,2.35303 -6.78431,2.6148c-4.43194,0.25027 -6.3439,-1.75256 -6.3439,-1.75256" fill="none" stroke="#b5e4ff" stroke-width="1" stroke-linecap="round"/></g></g><g><g><path d="M207.94772,127.1626c0,0 -1.42434,-1.35181 -1.89673,-2.65973c-0.54522,-1.50957 -0.14897,-3.02601 -0.14897,-3.40175c0,-0.68891 2.05577,-0.5832 2.29712,-1.24767c0.3497,-0.96277 0.82305,-2.67743 2.00762,-3.5435c1.89832,-1.38794 6.96566,-1.59394 6.96566,-1.59394l2.29546,-2.82227c0,0 -0.97008,-2.97103 1.10241,-5.63617c0.49508,-0.63664 1.7588,-1.93078 2.70639,-2.3451c1.00523,-0.43952 2.29411,0.20243 3.11757,-0.31959c1.92921,-1.22302 2.13641,-2.21116 3.60951,-2.21116c2.75842,0 5.21777,0 5.21777,0v31.66564l-1.74167,0.08547c0,0 -3.113,2.00818 -5.94967,2.20716c-1.24468,0.0873 -4.5411,-1.56348 -5.01163,-1.54176c-1.61501,0.0745 -5.40221,-0.15763 -6.40953,-0.38831c-3.03427,-0.69488 -2.82707,-2.99104 -4.05761,-4.1998c-1.52872,-1.50166 -4.10368,-2.04752 -4.10368,-2.04752z" fill="#bee7ff" stroke="#000000" stroke-width="0" stroke-linecap="butt"/><path d="M234.86693,133.42698c0,0 -0.39444,0.0015 -0.93338,-0.10449c-0.27461,-0.054 -0.58674,-0.39075 -0.90332,-0.24516c-0.95617,0.43976 -1.97331,2.09213 -4.26728,2.10642c-4.88805,0.03044 -5.48893,-1.55598 -6.56387,-1.47152c-3.19587,0.25114 -3.0373,0.79406 -6.19057,-0.13038c-3.30511,-0.96896 -2.76516,-2.95201 -4.43597,-4.89898c-0.77608,-0.90435 -2.18436,-0.71808 -3.36219,-1.59227c-2.08526,-1.54769 -2.64837,-4.57088 -2.31799,-5.65217c0.33037,-1.0813 1.99304,-0.51457 2.43448,-1.61913c1.56322,-3.91153 4.65585,-5.56151 8.85445,-5.22156c0.56723,0.04593 1.74969,-1.99848 1.96973,-2.68457c0.49984,-1.55852 -0.28206,-3.77906 1.25927,-5.57032c0.7957,-0.92473 1.58631,-2.08262 3.09341,-2.70779c0.41105,-0.1705 2.31515,0.47448 2.67362,0.28028c1.69173,-0.91649 1.65081,-1.67521 3.40827,-2.24447c0.74589,-0.2416 1.32568,-0.80811 2.38003,-0.80397c1.42989,0.0056 2.97152,0.64064 2.97152,0.64064" fill="none" stroke="#b5e4ff" stroke-width="1" stroke-linecap="round"/></g><g fill="#6ff1ff" stroke="none" stroke-width="0" stroke-linecap="butt"><path d=""/></g></g></g><g><g><g><path d="M15.74142,163.02826c0,0 -1.42434,-1.35181 -1.89673,-2.65974c-0.54521,-1.50956 -0.14896,-3.02601 -0.14896,-3.40175c0,-0.68892 2.05577,-0.5832 2.29712,-1.24766c0.3497,-0.96278 0.82304,-2.67741 2.00761,-3.5435c1.89832,-1.38794 6.96566,-1.59394 6.96566,-1.59394l2.29546,-2.82227c0,0 -0.97008,-2.97104 1.1024,-5.63618c0.49508,-0.63664 1.7588,-1.93078 2.70639,-2.3451c1.00523,-0.43952 2.29411,0.20242 3.11757,-0.31959c1.92921,-1.22303 2.13641,-2.21115 3.60951,-2.21115c2.75842,0 5.21776,0 5.21776,0v31.66564l-1.74166,0.08547c0,0 -3.113,2.00817 -5.94967,2.20716c-1.24469,0.0873 -4.5411,-1.56347 -5.01162,-1.54176c-1.61501,0.0745 -5.40221,-0.15762 -6.40954,-0.38832c-3.03427,-0.69488 -2.82708,-2.99104 -4.05761,-4.1998c-1.52873,-1.50167 -4.10368,-2.04752 -4.10368,-2.04752z" fill="#bee7ff" stroke="#000000" stroke-width="0" stroke-linecap="butt"/><path d="M42.66063,169.29264c0,0 -0.39444,0.0015 -0.93338,-0.10449c-0.27461,-0.05401 -0.58675,-0.39076 -0.90332,-0.24517c-0.95617,0.43976 -1.9733,2.09213 -4.26729,2.10642c-4.88804,0.03044 -5.48894,-1.55598 -6.56387,-1.47152c-3.19588,0.25114 -3.0373,0.79406 -6.19057,-0.13038c-3.30512,-0.96895 -2.76517,-2.95201 -4.43597,-4.89898c-0.77608,-0.90436 -2.18436,-0.71806 -3.36219,-1.59225c-2.08526,-1.5477 -2.64836,-4.57086 -2.31799,-5.65217c0.33037,-1.08131 1.99304,-0.51458 2.43448,-1.61913c1.56322,-3.91154 4.65584,-5.56151 8.85444,-5.22156c0.56723,0.04593 1.74969,-1.99848 1.96972,-2.68457c0.49984,-1.55852 -0.28206,-3.77906 1.25928,-5.57033c0.7957,-0.92474 1.58631,-2.08261 3.09341,-2.70779c0.41105,-0.17051 2.31517,0.47447 2.67363,0.28027c1.69174,-0.91651 1.65081,-1.67522 3.40826,-2.24448c0.74589,-0.24159 1.32568,-0.80811 2.38003,-0.80397c1.42989,0.0056 2.97153,0.64065 2.97153,0.64065" fill="none" stroke="#b5e4ff" stroke-width="1" stroke-linecap="round"/></g><g fill="#6ff1ff" stroke="none" stroke-width="0" stroke-linecap="butt"><path d=""/></g></g><g><g><path d="M42.22685,169.20447v-31.78348c0,0 2.50335,-0.7523 4.20506,0.96513c1.49689,1.51074 1.06926,3.88963 2.55141,5.9287c1.0475,1.44109 0.55549,-1.87791 4.18703,-1.07993c3.20515,0.70428 2.56117,4.67206 4.75328,4.42178c1.5403,-0.17584 1.93053,-2.29 3.20266,-4.6084c0.90167,-1.64326 2.74839,-2.36386 4.32313,-3.24073c1.25458,-0.69859 1.48325,-1.56242 2.47631,-1.99248c0.92972,-0.40263 3.07853,-0.39409 3.07853,-0.39409v31.78348c0,0 -4.35627,2.33136 -6.77203,2.3492c-2.2815,0.01685 -7.34279,-2.24492 -7.34279,-2.24492c0,0 -5.1674,1.63494 -7.57409,1.61782c-2.47872,-0.01763 -7.08851,-1.7221 -7.08851,-1.7221z" fill="#bee7ff" stroke="none" stroke-width="0" stroke-linecap="butt"/><path d="M70.72887,137.5461c0,0 -1.45587,-0.20788 -3.29288,0.64642c-0.86829,0.4038 -1.38374,1.05291 -2.16035,1.78872c-0.65258,0.61828 -2.67203,1.29778 -3.34207,1.94437c-1.89634,1.82997 -2.06113,5.23532 -3.90022,5.91926c-2.58108,0.95989 -2.09262,-4.80901 -4.93541,-4.54324c-2.84278,0.26577 -2.38848,2.30704 -3.43745,1.50178c-1.56,-1.19756 -1.72876,-5.44887 -3.24599,-6.53881c-1.43016,-1.02739 -3.7746,-0.84364 -3.7746,-0.84364" fill="none" stroke="#b5e4ff" stroke-width="1" stroke-linecap="round"/><g fill="none" stroke="none" stroke-width="1" stroke-linecap="butt" font-family="sans-serif" font-weight="normal" font-size="12" text-anchor="start"/></g><path d="M70.88802,169.13294c0,0 -2.0745,1.92045 -5.73862,2.2468c-4.56277,0.4064 -8.20452,-1.92578 -8.20452,-1.92578c0,0 -5.07891,1.34741 -7.39896,1.34741c-5.30365,0 -7.34352,-1.66843 -7.34352,-1.66843" fill="none" stroke="#b5e4ff" stroke-width="1" stroke-linecap="round"/></g><g><g data-paper-data="{&quot;index&quot;:null}"><path d="M84.25956,168.11525c0,0 -1.7585,2.42909 -6.52152,2.67714c-4.76302,0.24805 -7.35382,-2.13622 -7.35382,-2.13622l0.25192,-31.35715c0,0 4.80984,-0.13965 6.53337,1.16369c1.90819,1.44297 3.86752,7.11792 3.86752,7.11792c0,0 1.7779,-2.33751 3.14394,-2.35133c5.12986,-0.05185 4.96263,9.39687 4.96263,9.39687c0,0 2.37023,-2.15365 4.17582,-0.41535c2.16068,2.08015 0.76936,6.78537 0.76936,6.78537c0,0 1.14536,1.28849 1.43186,2.84394c0.27204,1.47696 0.33487,2.46205 -0.53418,3.60629c-2.80422,3.69222 -10.72689,2.66885 -10.72689,2.66885z" fill="#bee7ff" stroke="#000000" stroke-width="0" stroke-linecap="butt"/><path d="M70.79459,137.4236c0,0 4.59042,-0.50487 6.53294,1.35521c2.96645,2.84055 2.90136,6.78609 3.33635,6.92443c0.50731,0.16133 1.3124,-1.79571 3.40571,-2.34687c3.87073,-1.01914 4.81485,4.50375 4.9975,8.50222c0.0738,1.61567 1.17423,-1.25791 3.32676,-0.35838c1.42525,0.5956 2.31273,2.49319 2.0308,4.37888c-0.21522,1.43948 -0.51779,2.79893 -0.44056,2.92003c1.73293,2.71805 2.01,3.9364 1.0974,6.14097c-1.74449,4.2141 -10.96251,3.22973 -10.96251,3.22973c0,0 -2.14873,2.35303 -6.78431,2.6148c-4.43194,0.25027 -6.34391,-1.75256 -6.34391,-1.75256" fill="none" stroke="#b5e4ff" stroke-width="1" stroke-linecap="round"/></g><path d="M84.17848,161.99031c0.23497,0.36551 -0.09309,0.99519 -0.73276,1.40642c-0.63967,0.41123 -1.3487,0.44826 -1.5837,0.08273c-0.23498,-0.36552 0.28978,-0.4051 0.92946,-0.81632c0.63967,-0.41121 1.15201,-1.03835 1.38699,-0.67283z" fill="#92d3f6" stroke="none" stroke-width="0" stroke-linecap="butt"/></g></g><g><g><g data-paper-data="{&quot;index&quot;:null}"><path d="M450.39699,288.2496c0,0 -1.7585,2.42908 -6.52152,2.67713c-4.76302,0.24806 -7.35382,-2.13623 -7.35382,-2.13623l0.25191,-31.35716c0,0 4.80983,-0.13964 6.53337,1.1637c1.90819,1.44297 3.86751,7.11793 3.86751,7.11793c0,0 1.77791,-2.33752 3.14394,-2.35133c5.12986,-0.05185 4.96263,9.39687 4.96263,9.39687c0,0 2.37022,-2.15366 4.17582,-0.41535c2.16068,2.08016 0.76937,6.78536 0.76937,6.78536c0,0 1.14536,1.28849 1.43186,2.84395c0.27205,1.47696 0.33487,2.46204 -0.53417,3.60628c-2.80423,3.69221 -10.72688,2.66886 -10.72688,2.66886z" fill="#bee7ff" stroke="#000000" stroke-width="0" stroke-linecap="butt"/><path d="M436.93198,257.55793c0,0 4.59042,-0.50488 6.53294,1.35521c2.96645,2.84054 2.90136,6.78609 3.33635,6.92443c0.50732,0.16133 1.3124,-1.79571 3.40571,-2.34687c3.87073,-1.01913 4.81485,4.50375 4.9975,8.50222c0.0738,1.61566 1.17423,-1.2579 3.32676,-0.35838c1.42525,0.59559 2.31272,2.49319 2.03079,4.37888c-0.21522,1.43949 -0.51777,2.79893 -0.44056,2.92003c1.73293,2.71805 2.01,3.9364 1.0974,6.14097c-1.74449,4.21409 -10.96251,3.22973 -10.96251,3.22973c0,0 -2.14872,2.35303 -6.78431,2.6148c-4.43194,0.25027 -6.3439,-1.75256 -6.3439,-1.75256" fill="none" stroke="#b5e4ff" stroke-width="1" stroke-linecap="round"/></g></g><g><g><path d="M409.94772,283.1626c0,0 -1.42434,-1.35181 -1.89673,-2.65973c-0.54522,-1.50957 -0.14897,-3.02601 -0.14897,-3.40175c0,-0.68891 2.05577,-0.5832 2.29712,-1.24767c0.3497,-0.96277 0.82305,-2.67743 2.00762,-3.5435c1.89832,-1.38794 6.96566,-1.59394 6.96566,-1.59394l2.29546,-2.82227c0,0 -0.97008,-2.97103 1.10241,-5.63617c0.49508,-0.63664 1.7588,-1.93078 2.70639,-2.3451c1.00523,-0.43952 2.29411,0.20243 3.11757,-0.31959c1.92921,-1.22302 2.13641,-2.21116 3.60951,-2.21116c2.75842,0 5.21777,0 5.21777,0v31.66564l-1.74167,0.08547c0,0 -3.113,2.00818 -5.94967,2.20716c-1.24468,0.0873 -4.5411,-1.56348 -5.01163,-1.54176c-1.61501,0.0745 -5.40221,-0.15763 -6.40953,-0.38831c-3.03427,-0.69488 -2.82707,-2.99104 -4.05761,-4.1998c-1.52872,-1.50166 -4.10368,-2.04752 -4.10368,-2.04752z" fill="#bee7ff" stroke="#000000" stroke-width="0" stroke-linecap="butt"/><path d="M436.86693,289.42698c0,0 -0.39444,0.0015 -0.93338,-0.10449c-0.27461,-0.054 -0.58674,-0.39075 -0.90332,-0.24516c-0.95617,0.43976 -1.97331,2.09213 -4.26728,2.10642c-4.88805,0.03044 -5.48893,-1.55598 -6.56387,-1.47152c-3.19587,0.25114 -3.0373,0.79406 -6.19057,-0.13038c-3.30511,-0.96896 -2.76516,-2.95201 -4.43597,-4.89898c-0.77608,-0.90435 -2.18436,-0.71808 -3.36219,-1.59227c-2.08526,-1.54769 -2.64837,-4.57088 -2.31799,-5.65217c0.33037,-1.0813 1.99304,-0.51457 2.43448,-1.61913c1.56322,-3.91153 4.65585,-5.56151 8.85445,-5.22156c0.56723,0.04593 1.74969,-1.99848 1.96973,-2.68457c0.49984,-1.55852 -0.28206,-3.77906 1.25927,-5.57032c0.7957,-0.92473 1.58631,-2.08262 3.09341,-2.70779c0.41105,-0.1705 2.31515,0.47448 2.67362,0.28028c1.69173,-0.91649 1.65081,-1.67521 3.40827,-2.24447c0.74589,-0.2416 1.32568,-0.80811 2.38003,-0.80397c1.42989,0.0056 2.97152,0.64064 2.97152,0.64064" fill="none" stroke="#b5e4ff" stroke-width="1" stroke-linecap="round"/></g><g fill="#6ff1ff" stroke="none" stroke-width="0" stroke-linecap="butt"><path d=""/></g></g></g><g><g><g data-paper-data="{&quot;index&quot;:null}"><path d="M351.39699,73.2496c0,0 -1.7585,2.42908 -6.52152,2.67713c-4.76302,0.24806 -7.35382,-2.13623 -7.35382,-2.13623l0.25191,-31.35716c0,0 4.80983,-0.13964 6.53337,1.1637c1.90819,1.44297 3.86751,7.11793 3.86751,7.11793c0,0 1.77791,-2.33752 3.14394,-2.35133c5.12986,-0.05185 4.96263,9.39687 4.96263,9.39687c0,0 2.37022,-2.15366 4.17582,-0.41535c2.16068,2.08016 0.76937,6.78536 0.76937,6.78536c0,0 1.14536,1.28849 1.43186,2.84395c0.27205,1.47696 0.33487,2.46204 -0.53417,3.60628c-2.80423,3.69221 -10.72688,2.66886 -10.72688,2.66886z" fill="#bee7ff" stroke="#000000" stroke-width="0" stroke-linecap="butt"/><path d="M337.93198,42.55793c0,0 4.59042,-0.50488 6.53294,1.35521c2.96645,2.84054 2.90136,6.78609 3.33635,6.92443c0.50732,0.16133 1.3124,-1.79571 3.40571,-2.34687c3.87073,-1.01913 4.81485,4.50375 4.9975,8.50222c0.0738,1.61566 1.17423,-1.2579 3.32676,-0.35838c1.42525,0.59559 2.31272,2.49319 2.03079,4.37888c-0.21522,1.43949 -0.51777,2.79893 -0.44056,2.92003c1.73293,2.71805 2.01,3.9364 1.0974,6.14097c-1.74449,4.21409 -10.96251,3.22973 -10.96251,3.22973c0,0 -2.14872,2.35303 -6.78431,2.6148c-4.43194,0.25027 -6.3439,-1.75256 -6.3439,-1.75256" fill="none" stroke="#b5e4ff" stroke-width="1" stroke-linecap="round"/></g></g><g><g><path d="M310.94771,68.1626c0,0 -1.42434,-1.35181 -1.89673,-2.65973c-0.54522,-1.50957 -0.14897,-3.02601 -0.14897,-3.40175c0,-0.68891 2.05577,-0.5832 2.29712,-1.24767c0.3497,-0.96277 0.82305,-2.67743 2.00762,-3.5435c1.89832,-1.38794 6.96566,-1.59394 6.96566,-1.59394l2.29546,-2.82227c0,0 -0.97008,-2.97103 1.10241,-5.63617c0.49508,-0.63664 1.7588,-1.93078 2.70639,-2.3451c1.00523,-0.43952 2.29411,0.20243 3.11757,-0.31959c1.92921,-1.22302 2.13641,-2.21116 3.60951,-2.21116c2.75842,0 5.21777,0 5.21777,0v31.66564l-1.74167,0.08547c0,0 -3.113,2.00818 -5.94967,2.20716c-1.24468,0.0873 -4.5411,-1.56348 -5.01163,-1.54176c-1.61501,0.0745 -5.40221,-0.15763 -6.40953,-0.38831c-3.03427,-0.69488 -2.82707,-2.99104 -4.05761,-4.1998c-1.52872,-1.50166 -4.10368,-2.04752 -4.10368,-2.04752z" fill="#bee7ff" stroke="#000000" stroke-width="0" stroke-linecap="butt"/><path d="M337.86693,74.42698c0,0 -0.39444,0.0015 -0.93338,-0.10449c-0.27461,-0.054 -0.58674,-0.39075 -0.90332,-0.24516c-0.95617,0.43976 -1.97331,2.09213 -4.26728,2.10642c-4.88805,0.03044 -5.48893,-1.55598 -6.56387,-1.47152c-3.19587,0.25114 -3.0373,0.79406 -6.19057,-0.13038c-3.30511,-0.96896 -2.76516,-2.95201 -4.43597,-4.89898c-0.77608,-0.90435 -2.18436,-0.71808 -3.36219,-1.59227c-2.08526,-1.54769 -2.64837,-4.57088 -2.31799,-5.65217c0.33037,-1.0813 1.99304,-0.51457 2.43448,-1.61913c1.56322,-3.91153 4.65585,-5.56151 8.85445,-5.22156c0.56723,0.04593 1.74969,-1.99848 1.96973,-2.68457c0.49984,-1.55852 -0.28206,-3.77906 1.25927,-5.57032c0.7957,-0.92473 1.58631,-2.08262 3.09341,-2.70779c0.41105,-0.1705 2.31515,0.47448 2.67362,0.28028c1.69173,-0.91649 1.65081,-1.67521 3.40827,-2.24447c0.74589,-0.2416 1.32568,-0.80811 2.38003,-0.80397c1.42989,0.0056 2.97152,0.64064 2.97152,0.64064" fill="none" stroke="#b5e4ff" stroke-width="1" stroke-linecap="round"/></g><g fill="#6ff1ff" stroke="none" stroke-width="0" stroke-linecap="butt"><path d=""/></g></g></g><g><g><g><path d="M127.74142,72.02826c0,0 -1.42434,-1.35181 -1.89673,-2.65974c-0.54521,-1.50956 -0.14896,-3.02601 -0.14896,-3.40175c0,-0.68892 2.05577,-0.5832 2.29712,-1.24766c0.3497,-0.96278 0.82304,-2.67741 2.00761,-3.5435c1.89832,-1.38794 6.96566,-1.59394 6.96566,-1.59394l2.29546,-2.82227c0,0 -0.97008,-2.97104 1.1024,-5.63618c0.49508,-0.63664 1.7588,-1.93078 2.70639,-2.3451c1.00523,-0.43952 2.29411,0.20242 3.11757,-0.31959c1.92921,-1.22303 2.13641,-2.21115 3.60951,-2.21115c2.75842,0 5.21776,0 5.21776,0v31.66564l-1.74166,0.08547c0,0 -3.113,2.00817 -5.94967,2.20716c-1.24469,0.0873 -4.5411,-1.56347 -5.01162,-1.54176c-1.61501,0.0745 -5.40221,-0.15762 -6.40954,-0.38832c-3.03427,-0.69488 -2.82708,-2.99104 -4.05761,-4.1998c-1.52873,-1.50167 -4.10368,-2.04752 -4.10368,-2.04752z" fill="#e1f4ff" stroke="#000000" stroke-width="0" stroke-linecap="butt"/><path d="M154.66062,78.29264c0,0 -0.39444,0.0015 -0.93338,-0.10449c-0.27461,-0.05401 -0.58675,-0.39076 -0.90332,-0.24517c-0.95617,0.43976 -1.9733,2.09213 -4.26729,2.10642c-4.88804,0.03044 -5.48894,-1.55598 -6.56387,-1.47152c-3.19588,0.25114 -3.0373,0.79406 -6.19057,-0.13038c-3.30512,-0.96895 -2.76517,-2.95201 -4.43597,-4.89898c-0.77608,-0.90436 -2.18436,-0.71806 -3.36219,-1.59225c-2.08526,-1.5477 -2.64836,-4.57086 -2.31799,-5.65217c0.33037,-1.08131 1.99304,-0.51458 2.43448,-1.61913c1.56322,-3.91154 4.65584,-5.56151 8.85444,-5.22156c0.56723,0.04593 1.74969,-1.99848 1.96972,-2.68457c0.49984,-1.55852 -0.28206,-3.77906 1.25928,-5.57033c0.7957,-0.92474 1.58631,-2.08261 3.09341,-2.70779c0.41105,-0.17051 2.31517,0.47447 2.67363,0.28027c1.69174,-0.91651 1.65081,-1.67522 3.40826,-2.24448c0.74589,-0.24159 1.32568,-0.80811 2.38003,-0.80397c1.42989,0.0056 2.97153,0.64065 2.97153,0.64065" fill="none" stroke="#b5d4e6" stroke-width="1" stroke-linecap="round"/></g><g stroke="none" stroke-width="0" stroke-linecap="butt"><path d="" fill="#6ff1ff"/><path d="M143.68685,52.09815c1.17252,-0.5679 5.36388,-1.09233 5.58801,-0.67355c0.26509,0.4953 -3.50097,1.72242 -4.35074,2.12289c-0.98275,0.46313 -3.00065,2.01052 -2.93664,1.40667c0.06459,-0.60945 0.52686,-2.28812 1.69938,-2.85602z" fill="#ccecff"/></g><path d="M133.00112,71.68093c0,0 2.61467,3.24978 5.33386,3.75253c1.07987,0.19966 0.55958,-1.63861 2.39894,-2.08779c0.63599,-0.15531 1.58371,0.84027 2.13683,1.11635c0.63619,0.31757 2.15609,1.09614 3.52859,0.76632c2.36099,-0.56735 2.5359,0.65911 4.75915,-0.14532c0.99905,-0.36149 1.57141,-1.3569 2.23579,-2.00655c0.81411,-0.79606 1.9189,-1.07342 1.9189,-1.07342v2.90321c0,0 -0.44207,0.20832 -0.94274,0.51276c-1.2815,0.7792 -3.79626,2.18802 -6.55142,2.34489c-1.05915,0.06031 -1.792,-0.26832 -2.95758,-0.65509c-1.11604,-0.37035 -2.66702,-0.79399 -3.59551,-0.98059c-1.39117,-0.27958 -2.25595,0.45105 -3.08465,0.29017c-2.61563,-0.50777 -5.18014,-4.73749 -5.18014,-4.73749z" fill="#ccecff" stroke="none" stroke-width="0" stroke-linecap="butt"/></g><g><g><path d="M154.22685,78.20447v-31.78348c0,0 2.50335,-0.7523 4.20506,0.96513c1.49689,1.51074 1.06926,3.88963 2.55141,5.9287c1.0475,1.44109 0.55549,-1.87791 4.18703,-1.07993c3.20515,0.70428 2.56117,4.67206 4.75328,4.42178c1.5403,-0.17584 1.93053,-2.29 3.20266,-4.6084c0.90167,-1.64326 2.74839,-2.36386 4.32313,-3.24073c1.25458,-0.69859 1.48325,-1.56242 2.47631,-1.99248c0.92972,-0.40263 3.07853,-0.39409 3.07853,-0.39409v31.78348c0,0 -4.35627,2.33136 -6.77203,2.3492c-2.2815,0.01685 -7.34279,-2.24492 -7.34279,-2.24492c0,0 -5.1674,1.63494 -7.57409,1.61782c-2.47872,-0.01763 -7.08851,-1.7221 -7.08851,-1.7221z" fill="#e1f4ff" stroke="none" stroke-width="0" stroke-linecap="butt"/><path d="M182.72886,46.5461c0,0 -1.45587,-0.20788 -3.29288,0.64642c-0.86829,0.4038 -1.38374,1.05291 -2.16035,1.78872c-0.65258,0.61828 -2.67203,1.29778 -3.34207,1.94437c-1.89634,1.82997 -2.06113,5.23532 -3.90022,5.91926c-2.58108,0.95989 -2.09262,-4.80901 -4.93541,-4.54324c-2.84278,0.26577 -2.38848,2.30704 -3.43745,1.50178c-1.56,-1.19756 -1.72876,-5.44887 -3.24599,-6.53881c-1.43016,-1.02739 -3.7746,-0.84364 -3.7746,-0.84364" fill="none" stroke="#b5d4e6" stroke-width="1" stroke-linecap="round"/><g fill="#ccecff" stroke="none" stroke-width="0" stroke-linecap="butt"><path d="M161.1114,56.90693c0.54891,-0.25867 3.44038,-0.83443 3.6116,-0.51452c0.20251,0.37837 -2.41165,1.71018 -3.06083,2.01609c-0.75079,0.35379 -2.81835,0.48402 -2.76945,0.02274c0.04935,-0.46555 2.21868,-1.52432 2.21868,-1.52432z"/><path d="M160.40517,59.97306c0.7185,-0.33857 4.50331,-1.09223 4.72745,-0.67348c0.26507,0.49526 -3.15674,2.23856 -4.00651,2.63899c-0.98275,0.46309 -3.68911,0.63356 -3.62511,0.02976c0.0646,-0.6094 2.90418,-1.99528 2.90418,-1.99528z"/></g></g><path d="M153.98026,72.06174c0,0 4.28548,1.40214 6.62467,0.81878c3.50957,-0.87524 8.5058,-2.86326 8.5058,-2.86326c0,0 -0.34865,0.66932 -1.58656,1.39393c-0.79842,0.46735 -2.88576,1.06211 -2.41544,1.16606c0.94007,0.20777 3.60328,1.99394 6.76217,2.0028c4.07608,0.01143 4.44529,-2.71277 5.00878,-3.24381c1.11619,-1.05188 1.04276,-2.97415 1.88482,-2.86738c1.14459,0.14512 0.87112,2.2324 1.53742,3.15178c0.91641,1.26451 2.93609,1.43552 2.93609,1.43552v2.94953c0,0 -2.71842,0.22219 -3.89211,0.15431c-1.17828,-0.06813 -4.52528,-1.27735 -4.52528,-1.27735c0,0 -4.64288,2.19561 -6.69341,2.19561c-2.86818,0 -9.03741,-1.08938 -9.03741,-1.08938c0,0 -1.74825,0.00621 -2.56754,0.00913c-0.75219,0.00267 -2.54201,-0.98675 -2.54201,-0.98675z" fill="#ccecff" stroke="none" stroke-width="0" stroke-linecap="butt"/><path d="M182.88802,78.13294c0,0 -2.0745,1.92045 -5.73862,2.2468c-4.56277,0.4064 -8.20452,-1.92578 -8.20452,-1.92578c0,0 -5.07891,1.34741 -7.39896,1.34741c-5.30365,0 -7.34352,-1.66843 -7.34352,-1.66843" fill="none" stroke="#b5d4e6" stroke-width="1" stroke-linecap="round"/></g><g><g data-paper-data="{&quot;index&quot;:null}"><path d="M196.25955,77.11525c0,0 -1.7585,2.42909 -6.52152,2.67714c-4.76302,0.24805 -7.35382,-2.13622 -7.35382,-2.13622l0.25192,-31.35715c0,0 4.80984,-0.13965 6.53337,1.16369c1.90819,1.44297 3.86752,7.11792 3.86752,7.11792c0,0 1.7779,-2.33751 3.14394,-2.35133c5.12986,-0.05185 4.96263,9.39687 4.96263,9.39687c0,0 2.37023,-2.15365 4.17582,-0.41535c2.16068,2.08015 0.76936,6.78537 0.76936,6.78537c0,0 1.14536,1.28849 1.43186,2.84394c0.27204,1.47696 0.33487,2.46205 -0.53418,3.60629c-2.80422,3.69222 -10.72689,2.66885 -10.72689,2.66885z" fill="#e1f4ff" stroke="#000000" stroke-width="0" stroke-linecap="butt"/><path d="M182.79458,46.4236c0,0 4.59042,-0.50487 6.53294,1.35521c2.96645,2.84055 2.90136,6.78609 3.33635,6.92443c0.50731,0.16133 1.3124,-1.79571 3.40571,-2.34687c3.87073,-1.01914 4.81485,4.50375 4.9975,8.50222c0.0738,1.61567 1.17423,-1.25791 3.32676,-0.35838c1.42525,0.5956 2.31273,2.49319 2.0308,4.37888c-0.21522,1.43948 -0.51779,2.79893 -0.44056,2.92003c1.73293,2.71805 2.01,3.9364 1.0974,6.14097c-1.74449,4.2141 -10.96251,3.22973 -10.96251,3.22973c0,0 -2.14873,2.35303 -6.78431,2.6148c-4.43194,0.25027 -6.34391,-1.75256 -6.34391,-1.75256" fill="none" stroke="#b5d4e6" stroke-width="1" stroke-linecap="round"/></g><path d="M187.7652,55.13254c-0.1937,0.37935 -2.17276,-1.61536 -2.79052,-1.97812c-0.71444,-0.41953 -2.58366,-1.45895 -2.17971,-1.67782c0.40769,-0.22092 1.94388,0.07427 2.89522,0.77406c0.95134,0.69978 2.23879,2.56115 2.07502,2.8819z" fill="#ccecff" stroke="none" stroke-width="0" stroke-linecap="butt"/><path d="M182.33819,76.00731v-3.1809c0,0 3.95677,2.19975 6.50865,1.55804c3.28995,-0.82731 5.73049,-2.30873 6.01958,-1.41917c0.20596,0.63378 -2.42372,3.63296 -5.94678,3.86579c-3.2524,0.21496 -6.58146,-0.82376 -6.58146,-0.82376z" data-paper-data="{&quot;index&quot;:null}" fill="#ccecff" stroke="none" stroke-width="0" stroke-linecap="butt"/><path d="M196.17848,70.99031c0.23497,0.36551 -0.09309,0.99519 -0.73276,1.40642c-0.63967,0.41123 -1.3487,0.44826 -1.5837,0.08273c-0.23498,-0.36552 0.28978,-0.4051 0.92946,-0.81632c0.63967,-0.41121 1.15201,-1.03835 1.38699,-0.67283z" fill="#ccecff" stroke="none" stroke-width="0" stroke-linecap="butt"/></g></g><g><g><g data-paper-data="{&quot;index&quot;:null}"><path d="M393.39698,197.2496c0,0 -1.7585,2.42908 -6.52152,2.67713c-4.76302,0.24806 -7.35382,-2.13623 -7.35382,-2.13623l0.25191,-31.35716c0,0 4.80983,-0.13964 6.53337,1.1637c1.90819,1.44297 3.86751,7.11793 3.86751,7.11793c0,0 1.77791,-2.33752 3.14394,-2.35133c5.12986,-0.05185 4.96263,9.39687 4.96263,9.39687c0,0 2.37022,-2.15366 4.17582,-0.41535c2.16068,2.08016 0.76937,6.78536 0.76937,6.78536c0,0 1.14536,1.28849 1.43186,2.84395c0.27205,1.47696 0.33487,2.46204 -0.53417,3.60628c-2.80423,3.69221 -10.72688,2.66886 -10.72688,2.66886z" fill="#e1f4ff" stroke="#000000" stroke-width="0" stroke-linecap="butt"/><path d="M379.93198,166.55793c0,0 4.59042,-0.50488 6.53294,1.35521c2.96645,2.84054 2.90136,6.78609 3.33635,6.92443c0.50732,0.16133 1.3124,-1.79571 3.40571,-2.34687c3.87073,-1.01913 4.81485,4.50375 4.9975,8.50222c0.0738,1.61566 1.17423,-1.2579 3.32676,-0.35838c1.42525,0.59559 2.31272,2.49319 2.03079,4.37888c-0.21522,1.43949 -0.51777,2.79893 -0.44056,2.92003c1.73293,2.71805 2.01,3.9364 1.0974,6.14097c-1.74449,4.21409 -10.96251,3.22973 -10.96251,3.22973c0,0 -2.14872,2.35303 -6.78431,2.6148c-4.43194,0.25027 -6.3439,-1.75256 -6.3439,-1.75256" fill="none" stroke="#b5d4e6" stroke-width="1" stroke-linecap="round"/></g><path d="M384.90261,175.26688c-0.1937,0.37935 -2.17276,-1.61536 -2.79052,-1.97812c-0.71445,-0.41953 -2.58365,-1.45895 -2.17972,-1.67782c0.40769,-0.22092 1.94387,0.07427 2.89522,0.77406c0.95134,0.69978 2.23879,2.56115 2.07502,2.8819z" fill="#ccecff" stroke="none" stroke-width="0" stroke-linecap="butt"/><path d="M379.4756,195.07071v-2.87493c0,0 3.95677,2.96471 6.50865,2.32299c3.28995,-0.82732 5.73049,-2.30873 6.01958,-1.41918c0.20596,0.63378 -2.42372,3.63296 -5.94678,3.8658c-3.2524,0.21496 -6.58145,-1.89468 -6.58145,-1.89468z" data-paper-data="{&quot;index&quot;:null}" fill="#ccecff" stroke="none" stroke-width="0" stroke-linecap="butt"/><path d="M393.31586,191.12464c0.23498,0.36553 -0.09308,0.9952 -0.73275,1.40642c-0.63967,0.41122 -1.34871,0.44826 -1.58369,0.08273c-0.23499,-0.36553 0.28978,-0.40509 0.92946,-0.81632c0.63967,-0.41121 1.15201,-1.03836 1.387,-0.67284z" fill="#ccecff" stroke="none" stroke-width="0" stroke-linecap="butt"/></g><g><g><path d="M352.94772,192.1626c0,0 -1.42434,-1.35181 -1.89673,-2.65973c-0.54522,-1.50957 -0.14897,-3.02601 -0.14897,-3.40175c0,-0.68891 2.05577,-0.5832 2.29712,-1.24767c0.3497,-0.96277 0.82305,-2.67743 2.00762,-3.5435c1.89832,-1.38794 6.96566,-1.59394 6.96566,-1.59394l2.29546,-2.82227c0,0 -0.97008,-2.97103 1.10241,-5.63617c0.49508,-0.63664 1.7588,-1.93078 2.70639,-2.3451c1.00523,-0.43952 2.29411,0.20243 3.11757,-0.31959c1.92921,-1.22302 2.13641,-2.21116 3.60951,-2.21116c2.75842,0 5.21777,0 5.21777,0v31.66564l-1.74167,0.08547c0,0 -3.113,2.00818 -5.94967,2.20716c-1.24468,0.0873 -4.5411,-1.56348 -5.01163,-1.54176c-1.61501,0.0745 -5.40221,-0.15763 -6.40953,-0.38831c-3.03427,-0.69488 -2.82707,-2.99104 -4.05761,-4.1998c-1.52872,-1.50166 -4.10368,-2.04752 -4.10368,-2.04752z" fill="#e1f4ff" stroke="#000000" stroke-width="0" stroke-linecap="butt"/><path d="M379.86692,198.42698c0,0 -0.39444,0.0015 -0.93338,-0.10449c-0.27461,-0.054 -0.58674,-0.39075 -0.90332,-0.24516c-0.95617,0.43976 -1.97331,2.09213 -4.26728,2.10642c-4.88805,0.03044 -5.48893,-1.55598 -6.56387,-1.47152c-3.19587,0.25114 -3.0373,0.79406 -6.19057,-0.13038c-3.30511,-0.96896 -2.76516,-2.95201 -4.43597,-4.89898c-0.77608,-0.90435 -2.18436,-0.71808 -3.36219,-1.59227c-2.08526,-1.54769 -2.64837,-4.57088 -2.31799,-5.65217c0.33037,-1.0813 1.99304,-0.51457 2.43448,-1.61913c1.56322,-3.91153 4.65585,-5.56151 8.85445,-5.22156c0.56723,0.04593 1.74969,-1.99848 1.96973,-2.68457c0.49984,-1.55852 -0.28206,-3.77906 1.25927,-5.57032c0.7957,-0.92473 1.58631,-2.08262 3.09341,-2.70779c0.41105,-0.1705 2.31515,0.47448 2.67362,0.28028c1.69173,-0.91649 1.65081,-1.67521 3.40827,-2.24447c0.74589,-0.2416 1.32568,-0.80811 2.38003,-0.80397c1.42989,0.0056 2.97152,0.64064 2.97152,0.64064" fill="none" stroke="#b5d4e6" stroke-width="1" stroke-linecap="round"/></g><g stroke="none" stroke-width="0" stroke-linecap="butt"><path d="" fill="#6ff1ff"/><path d="M368.89318,172.2325c1.17252,-0.5679 5.36388,-1.09233 5.58802,-0.67354c0.26509,0.4953 -3.50097,1.72242 -4.35074,2.1229c-0.98274,0.46313 -3.00065,2.01053 -2.93665,1.40668c0.0646,-0.60945 0.52686,-2.28813 1.69938,-2.85603z" fill="#ccecff"/></g><path d="M358.20741,191.81527c0,0 2.61466,3.24978 5.33385,3.75253c1.07988,0.19966 0.55959,-1.63861 2.39896,-2.08779c0.63599,-0.15531 1.5837,0.84026 2.13682,1.11635c0.63619,0.31757 2.15608,1.09613 3.52859,0.76631c2.36099,-0.56737 2.5359,0.65911 4.75914,-0.14532c0.99906,-0.36148 1.57141,-1.3569 2.23579,-2.00654c0.81411,-0.79606 1.68941,-0.99693 1.68941,-0.99693l0.22949,2.82671c0,0 -0.44207,0.20833 -0.94274,0.51276c-1.28149,0.7792 -3.79625,2.18802 -6.55141,2.3449c-1.05915,0.06031 -1.792,-0.26832 -2.95758,-0.65511c-1.11604,-0.37035 -2.66702,-0.794 -3.59552,-0.98059c-1.39118,-0.27957 -2.25595,0.45105 -3.08465,0.29017c-2.61563,-0.50777 -5.18014,-4.7375 -5.18014,-4.7375z" fill="#ccecff" stroke="none" stroke-width="0" stroke-linecap="butt"/></g></g><g><g><g data-paper-data="{&quot;index&quot;:null}"><path d="M72.39699,243.2496c0,0 -1.7585,2.42908 -6.52152,2.67713c-4.76302,0.24806 -7.35382,-2.13623 -7.35382,-2.13623l0.25191,-31.35716c0,0 4.80983,-0.13964 6.53337,1.1637c1.90819,1.44297 3.86751,7.11793 3.86751,7.11793c0,0 1.77791,-2.33752 3.14394,-2.35133c5.12986,-0.05185 4.96263,9.39687 4.96263,9.39687c0,0 2.37022,-2.15366 4.17582,-0.41535c2.16068,2.08016 0.76937,6.78536 0.76937,6.78536c0,0 1.14536,1.28849 1.43186,2.84395c0.27205,1.47696 0.33487,2.46204 -0.53417,3.60628c-2.80423,3.69221 -10.72688,2.66886 -10.72688,2.66886z" fill="#e1f4ff" stroke="#000000" stroke-width="0" stroke-linecap="butt"/><path d="M58.93197,212.55793c0,0 4.59042,-0.50488 6.53294,1.35521c2.96645,2.84054 2.90136,6.78609 3.33635,6.92443c0.50732,0.16133 1.3124,-1.79571 3.40571,-2.34687c3.87073,-1.01913 4.81485,4.50375 4.9975,8.50222c0.0738,1.61566 1.17423,-1.2579 3.32676,-0.35838c1.42525,0.59559 2.31272,2.49319 2.03079,4.37888c-0.21522,1.43949 -0.51777,2.79893 -0.44056,2.92003c1.73293,2.71805 2.01,3.9364 1.0974,6.14097c-1.74449,4.21409 -10.96251,3.22973 -10.96251,3.22973c0,0 -2.14872,2.35303 -6.78431,2.6148c-4.43194,0.25027 -6.3439,-1.75256 -6.3439,-1.75256" fill="none" stroke="#b5d4e6" stroke-width="1" stroke-linecap="round"/></g><path d="M63.9026,221.26688c-0.1937,0.37935 -2.17276,-1.61536 -2.79052,-1.97812c-0.71445,-0.41953 -2.58365,-1.45895 -2.17972,-1.67782c0.40769,-0.22092 1.94387,0.07427 2.89522,0.77406c0.95134,0.69978 2.23879,2.56115 2.07502,2.8819z" fill="#ccecff" stroke="none" stroke-width="0" stroke-linecap="butt"/><path d="M58.4756,241.07071v-2.87493c0,0 3.95677,2.96471 6.50865,2.32299c3.28995,-0.82732 5.73049,-2.30873 6.01958,-1.41918c0.20596,0.63378 -2.42372,3.63296 -5.94678,3.8658c-3.2524,0.21496 -6.58145,-1.89468 -6.58145,-1.89468z" data-paper-data="{&quot;index&quot;:null}" fill="#ccecff" stroke="none" stroke-width="0" stroke-linecap="butt"/><path d="M72.31587,237.12464c0.23498,0.36553 -0.09308,0.9952 -0.73275,1.40642c-0.63967,0.41122 -1.34871,0.44826 -1.58369,0.08273c-0.23499,-0.36553 0.28978,-0.40509 0.92946,-0.81632c0.63967,-0.41121 1.15201,-1.03836 1.387,-0.67284z" fill="#ccecff" stroke="none" stroke-width="0" stroke-linecap="butt"/></g><g><g><path d="M31.94772,238.1626c0,0 -1.42434,-1.35181 -1.89673,-2.65973c-0.54522,-1.50957 -0.14897,-3.02601 -0.14897,-3.40175c0,-0.68891 2.05577,-0.5832 2.29712,-1.24767c0.3497,-0.96277 0.82305,-2.67743 2.00762,-3.5435c1.89832,-1.38794 6.96566,-1.59394 6.96566,-1.59394l2.29546,-2.82227c0,0 -0.97008,-2.97103 1.10241,-5.63617c0.49508,-0.63664 1.7588,-1.93078 2.70639,-2.3451c1.00523,-0.43952 2.29411,0.20243 3.11757,-0.31959c1.92921,-1.22302 2.13641,-2.21116 3.60951,-2.21116c2.75842,0 5.21777,0 5.21777,0v31.66564l-1.74167,0.08547c0,0 -3.113,2.00818 -5.94967,2.20716c-1.24468,0.0873 -4.5411,-1.56348 -5.01163,-1.54176c-1.61501,0.0745 -5.40221,-0.15763 -6.40953,-0.38831c-3.03427,-0.69488 -2.82707,-2.99104 -4.05761,-4.1998c-1.52872,-1.50166 -4.10368,-2.04752 -4.10368,-2.04752z" fill="#e1f4ff" stroke="#000000" stroke-width="0" stroke-linecap="butt"/><path d="M58.86692,244.42698c0,0 -0.39444,0.0015 -0.93338,-0.10449c-0.27461,-0.054 -0.58674,-0.39075 -0.90332,-0.24516c-0.95617,0.43976 -1.97331,2.09213 -4.26728,2.10642c-4.88805,0.03044 -5.48893,-1.55598 -6.56387,-1.47152c-3.19587,0.25114 -3.0373,0.79406 -6.19057,-0.13038c-3.30511,-0.96896 -2.76516,-2.95201 -4.43597,-4.89898c-0.77608,-0.90435 -2.18436,-0.71808 -3.36219,-1.59227c-2.08526,-1.54769 -2.64837,-4.57088 -2.31799,-5.65217c0.33037,-1.0813 1.99304,-0.51457 2.43448,-1.61913c1.56322,-3.91153 4.65585,-5.56151 8.85445,-5.22156c0.56723,0.04593 1.74969,-1.99848 1.96973,-2.68457c0.49984,-1.55852 -0.28206,-3.77906 1.25927,-5.57032c0.7957,-0.92473 1.58631,-2.08262 3.09341,-2.70779c0.41105,-0.1705 2.31515,0.47448 2.67362,0.28028c1.69173,-0.91649 1.65081,-1.67521 3.40827,-2.24447c0.74589,-0.2416 1.32568,-0.80811 2.38003,-0.80397c1.42989,0.0056 2.97152,0.64064 2.97152,0.64064" fill="none" stroke="#b5d4e6" stroke-width="1" stroke-linecap="round"/></g><g stroke="none" stroke-width="0" stroke-linecap="butt"><path d="" fill="#6ff1ff"/><path d="M47.89318,218.2325c1.17252,-0.5679 5.36388,-1.09233 5.58802,-0.67354c0.26509,0.4953 -3.50097,1.72242 -4.35074,2.1229c-0.98274,0.46313 -3.00065,2.01053 -2.93665,1.40668c0.0646,-0.60945 0.52686,-2.28813 1.69938,-2.85603z" fill="#ccecff"/></g><path d="M37.2074,237.81527c0,0 2.61466,3.24978 5.33385,3.75253c1.07988,0.19966 0.55959,-1.63861 2.39896,-2.08779c0.63599,-0.15531 1.5837,0.84026 2.13682,1.11635c0.63619,0.31757 2.15608,1.09613 3.52859,0.76631c2.36099,-0.56737 2.5359,0.65911 4.75914,-0.14532c0.99906,-0.36148 1.57141,-1.3569 2.23579,-2.00654c0.81411,-0.79606 1.68941,-0.99693 1.68941,-0.99693l0.22949,2.82671c0,0 -0.44207,0.20833 -0.94274,0.51276c-1.28149,0.7792 -3.79625,2.18802 -6.55141,2.3449c-1.05915,0.06031 -1.792,-0.26832 -2.95758,-0.65511c-1.11604,-0.37035 -2.66702,-0.794 -3.59552,-0.98059c-1.39118,-0.27957 -2.25595,0.45105 -3.08465,0.29017c-2.61563,-0.50777 -5.18014,-4.7375 -5.18014,-4.7375z" fill="#ccecff" stroke="none" stroke-width="0" stroke-linecap="butt"/></g></g></g></g></svg>