<svg version="1.1" xmlns="http://www.w3.org/2000/svg" xmlns:xlink="http://www.w3.org/1999/xlink" width="85.49398" height="85.49398" viewBox="0,0,85.49398,85.49398"><defs><linearGradient x1="-3285.69704" y1="-2895.28052" x2="-3285.69704" y2="4105.40968" gradientUnits="userSpaceOnUse" id="color-1"><stop offset="0" stop-color="#ffffff"/><stop offset="1" stop-color="#ffffff" stop-opacity="0"/></linearGradient></defs><g transform="translate(-197.25302,-137.25304)"><g data-paper-data="{&quot;isPaintingLayer&quot;:true}" fill-rule="nonzero" stroke-linecap="butt" stroke-linejoin="miter" stroke-miterlimit="10" stroke-dasharray="" stroke-dashoffset="0" style="mix-blend-mode: normal"><g><path d="M208.63952,205.58016c0.00324,-13.1024 0,-44.63208 0,-51.75c0,-3.5626 2.97813,-5.21784 6.54073,-5.21784c12.68063,0 43.89984,0 51,0c2.96729,0 5.18024,2.50056 5.18024,5.46784c0,6.43742 0,39.20833 0,51.75c0,2.95974 -2.72049,5.55758 -5.68024,5.55758c-6.61442,0 -39.17756,0 -52,0c-3.13138,0 -5.04177,-1.58613 -5.04073,-5.80758z" fill="url(#color-1)" stroke="#a97a4a" stroke-width="2"/><path d="M197.25302,222.74702v-85.49398h85.49398v85.49398z" fill="none" stroke="none" stroke-width="0"/></g><g stroke="none" stroke-width="0"><path d="M219.49742,200.55849v-41.02112h41.02113v41.02112z" fill="#cccccc"/><g><path d="M219.36984,200.59232v-3.60894h41.26032v3.60894z" fill="#aeaeae"/><path d="M219.36984,190.28109v-3.60894h41.2603v3.60894z" fill="#aeaeae"/><path d="M219.36984,180.14171v-3.60893h41.2603v3.60893z" fill="#aeaeae"/><path d="M219.36984,169.83049v-3.60894h41.2603v3.60894z" fill="#aeaeae"/><g><path d="M236.91681,166.39342v-6.87414h3.47847v6.87414z" fill="#aeaeae"/><path d="M257.04904,166.28184v-6.87415h3.47845v6.87415z" fill="#752e08"/></g><g><path d="M226.79766,176.5328v-6.87414h3.47846v6.87414z" fill="#aeaeae"/><path d="M246.92987,176.58932v-6.87415h3.47847v6.87415z" fill="#752e08"/></g><g><path d="M236.91681,186.84025v-7.21035h3.47847v7.21035z" fill="#aeaeae"/><path d="M257.04904,186.89678v-7.21036h3.47845v7.21036z" fill="#752e08"/></g><g fill="#aeaeae"><path d="M226.79766,196.98338v-6.87414h3.47846v6.87414z"/><path d="M246.92987,197.03991v-6.87415h3.47847v6.87415z"/></g></g></g><path d="M242.91584,194.33797v-34.8006h17.60271v34.8006z" fill="#767676" stroke="none" stroke-width="0"/></g></g></svg>