<svg version="1.1" xmlns="http://www.w3.org/2000/svg" xmlns:xlink="http://www.w3.org/1999/xlink" width="93.39969" height="93.39969" viewBox="0,0,93.39969,93.39969"><defs><linearGradient x1="240.40557" y1="168.42634" x2="240.40557" y2="191.64902" gradientUnits="userSpaceOnUse" id="color-1"><stop offset="0" stop-color="#e3872b"/><stop offset="1" stop-color="#dc570f"/></linearGradient></defs><g transform="translate(-193.30016,-133.30015)"><g data-paper-data="{&quot;isPaintingLayer&quot;:true}" fill-rule="nonzero" stroke="#000000" stroke-width="0" stroke-linecap="butt" stroke-linejoin="miter" stroke-miterlimit="10" stroke-dasharray="" stroke-dashoffset="0" style="mix-blend-mode: normal"><path d="M193.30017,226.69985v-93.39969h93.39969v93.39969z" fill="none"/><path d="M242.51638,168.42634c0,0 2.83065,1.74792 2.85164,11.69858c0.0194,9.19802 -3.33749,11.44781 -3.33749,11.44781l-3.08372,0.07629c0,0 -3.50377,-6.12509 -3.50377,-11.64909c0,-5.37111 3.14452,-11.55151 3.14452,-11.55151z" fill="url(#color-1)"/><g><path d="M238.21939,168.29014c2.37126,0 3.58749,5.24263 3.58749,11.70976c0,6.46713 -1.13913,11.74671 -3.58749,11.70976c-2.60632,-0.03933 -3.58749,-5.24263 -3.58749,-11.70976c0,-6.46713 1.13824,-11.70976 3.58749,-11.70976z" fill="#e3872b"/><path d="M238.29738,173.12682c1.08253,0 1.87173,4.00166 1.87173,7.79758c0,3.79592 -0.52004,6.89482 -1.63777,6.87312c-0.56111,-0.01088 -1.26919,-1.00401 -1.53114,-2.12298c-0.29351,-1.25379 -0.10663,-2.74434 -0.10663,-4.75014c0,-3.79592 0.28566,-7.79758 1.4038,-7.79758z" fill="#dc570f"/><path d="M237.71246,172.43348c0.46347,0 0.68926,0.56407 0.95723,1.5071c0.35792,1.2596 0.30554,3.19529 0.30554,5.36603c0,3.79592 -0.14504,7.51112 -1.26277,7.48943c-1.18983,-0.02309 -1.63777,-3.69351 -1.63777,-7.48943c0,-3.79592 0.51963,-6.87312 1.63777,-6.87312z" fill="#ffffff"/><path d="M238.06341,173.12682c1.08253,0 1.13777,3.0772 1.13777,6.87312c0,3.79592 -0.02004,6.89482 -1.13777,6.87312c-1.18984,-0.02309 -1.63777,-3.0772 -1.63777,-6.87312c0,-3.79592 0.51963,-6.87312 1.63777,-6.87312z" fill="#e3872b"/></g></g></g></svg>