<svg version="1.1" xmlns="http://www.w3.org/2000/svg" xmlns:xlink="http://www.w3.org/1999/xlink" width="179.92355" height="44.8185" viewBox="0,0,179.92355,44.8185"><defs><linearGradient x1="17084.32184" y1="37568.05335" x2="17084.32184" y2="-34386.42845" gradientUnits="userSpaceOnUse" id="color-1"><stop offset="0" stop-color="#4e87ff"/><stop offset="1" stop-color="#4e87ff" stop-opacity="0"/></linearGradient></defs><g transform="translate(-150.03823,-157.59075)"><g data-paper-data="{&quot;isPaintingLayer&quot;:true}" fill-rule="nonzero" stroke-linecap="butt" stroke-linejoin="miter" stroke-miterlimit="10" stroke-dasharray="" stroke-dashoffset="0" style="mix-blend-mode: normal"><path d="M150.03823,202.40925v-44.8185h179.92355v44.8185z" fill="none" stroke="none" stroke-width="0"/><path d="M160.32344,164.65352c0.96061,0 156.35059,0 157.9078,0c2.46645,0 4.08264,1.71219 4.08264,4.17864c0,0.97235 0,21.18003 0,22.71719c0,2.46084 -1.8401,3.79712 -4.30094,3.79712c-1.52939,0 -156.86259,0 -157.79865,0c-2.40262,0 -4.0296,-1.61281 -4.0296,-4.01542c0,-1.43004 -0.07669,-20.0407 0,-22.38973c0.07669,-2.34903 3.17814,-4.2878 4.13875,-4.2878z" fill="url(#color-1)" stroke="none" stroke-width="0"/><text transform="translate(161.45899,187.11852) scale(0.59321,0.59321)" font-size="40" xml:space="preserve" fill="#ffffff" fill-rule="nonzero" stroke="#ffffff" stroke-width="1" stroke-linecap="butt" stroke-linejoin="miter" stroke-miterlimit="10" stroke-dasharray="" stroke-dashoffset="0" font-family="&quot;ヒラギノ角ゴ Pro W3&quot;, &quot;Hiragino Kaku Gothic Pro&quot;, Osaka, &quot;メイリオ&quot;, Meiryo, &quot;ＭＳ Ｐゴシック&quot;, &quot;MS PGothic&quot;" font-weight="normal" text-anchor="start" style="mix-blend-mode: normal"><tspan x="0" dy="0">Elige un Nivel</tspan></text></g></g></svg>