<svg version="1.1" xmlns="http://www.w3.org/2000/svg" xmlns:xlink="http://www.w3.org/1999/xlink" width="37.46888" height="44.74161" viewBox="0,0,37.46888,44.74161"><g transform="translate(-221.79519,-155.31395)"><g data-paper-data="{&quot;isPaintingLayer&quot;:true}" fill-rule="nonzero" stroke="none" stroke-width="0" stroke-linecap="butt" stroke-linejoin="miter" stroke-miterlimit="10" stroke-dasharray="" stroke-dashoffset="0" style="mix-blend-mode: normal"><g><g><path d="M227.82463,183.2841c0,0 -6.02944,-3.16398 -6.02944,-13.89325c0,-8.36033 4.60326,-13.89325 4.60326,-13.89325c0,0 7.30212,5.92237 13.8959,5.92237c6.95998,0 14.6929,-6.10602 14.6929,-6.10602c0,0 4.53786,6.20862 4.26499,14.47174c-0.33828,10.24338 -6.05377,13.49843 -6.05377,13.49843c0,0 -5.93415,-7.10684 -12.73497,-7.10684c-6.80082,0 -12.63888,7.10682 -12.63888,7.10682z" fill="#f29e4a"/><path d="M227.86926,181.89997c0,0 -0.30752,-1.35994 -1.0103,-2.30415c-0.42331,-0.56874 -1.14964,-0.31576 -1.58772,-1.41894c-0.79893,-2.01188 -1.47224,-5.31148 -1.47224,-8.9442c0,-0.86667 -0.14809,-4.56404 0.01249,-5.31862c0.36504,-1.71544 1.28128,-0.29053 1.72845,-1.71903c0.30656,-0.97932 -0.09326,-1.79085 0.1035,-2.57369c0.28849,-1.14777 1.10475,-2.07524 1.10475,-2.07524c0,0 -0.11984,1.22206 -0.12445,2.8287c-0.00343,1.1964 0.11552,2.60606 0.08291,3.88315c-0.03607,1.41273 -1.15375,0.74381 -1.24658,1.85136c-0.06995,0.8346 0.87503,3.4742 0.87503,4.30785c0,0 -0.49435,8.85494 0.14818,7.22755c1.27412,-3.22703 1.386,4.25527 1.386,4.25527z" fill="#767676"/><path d="M255.21442,169.75276c0,-0.92904 0.33257,-4.44597 0.11142,-5.37382c-0.2835,-1.18945 -1.15466,0.18246 -1.36794,-1.33264c-0.38734,-2.75157 -0.40894,-5.32412 -0.40894,-5.32412c0,0 0.56577,1.73154 1.65734,4.21517c0.65238,1.48434 1.13931,-0.93393 1.67181,0.66862c0.22717,0.68367 0.87241,5.11347 0.87241,5.96232c0,2.85067 -0.53752,7.22414 -0.92838,8.99067c-0.17065,0.77126 -1.1335,0.61323 -1.36187,1.13005c-0.88739,2.00839 -1.27909,3.07301 -1.27909,3.07301c0,0 0.03391,-2.74893 0.32261,-4.16163c0.28435,-1.39135 0.82335,-1.4392 0.8485,-2.41687c0.04135,-1.60735 -0.13789,-5.43075 -0.13789,-5.43075z" data-paper-data="{&quot;index&quot;:null}" fill="#000000"/></g><g><path d="M238.09868,199.98975v-42.24624h4.87216v42.24624z" fill="#dc570f"/><path d="M240.63448,200.05556l-0.00902,-4.6834c0,0 -1.90797,-1.22778 -1.91208,-1.68083c-0.01547,-1.70398 1.88196,-1.6047 1.88196,-1.6047c0,0 -1.53132,-0.98852 -1.49628,-1.86837c0.02837,-0.71236 1.82568,-1.59946 1.83347,-2.13861c0.07399,-5.11866 -0.26052,-18.52026 -0.26052,-18.52026c0,0 -1.24845,-0.35708 -1.26886,-1.25438c-0.01962,-0.86217 1.18891,-1.01322 1.1819,-1.53684c-0.01769,-1.32155 -1.83223,-1.41538 -1.83223,-2.17695c0,-1.03658 1.95477,-0.86403 2.11817,-1.93732c0.19473,-1.27905 0.04723,-4.84458 0.04723,-4.84458h2.16541v42.24624z" fill="#767676"/></g></g></g></g></svg>