<svg version="1.1" xmlns="http://www.w3.org/2000/svg" xmlns:xlink="http://www.w3.org/1999/xlink" width="85.49398" height="85.49398" viewBox="0,0,85.49398,85.49398"><defs><linearGradient x1="-3285.69704" y1="-2895.28054" x2="-3285.69704" y2="4105.40968" gradientUnits="userSpaceOnUse" id="color-1"><stop offset="0" stop-color="#ffffff"/><stop offset="1" stop-color="#ffffff" stop-opacity="0"/></linearGradient></defs><g transform="translate(-197.25302,-137.25303)"><g data-paper-data="{&quot;isPaintingLayer&quot;:true}" fill-rule="nonzero" stroke-linecap="butt" stroke-linejoin="miter" stroke-miterlimit="10" stroke-dasharray="" stroke-dashoffset="0" style="mix-blend-mode: normal"><path d="M197.25302,222.74701v-85.49398h85.49398v85.49398z" fill="none" stroke="none" stroke-width="0"/><path d="M208.63952,205.58014c0.00324,-13.1024 0,-44.63208 0,-51.75c0,-3.5626 2.97813,-5.21784 6.54073,-5.21784c12.68063,0 43.89984,0 51,0c2.96729,0 5.18024,2.50056 5.18024,5.46784c0,6.43742 0,39.20833 0,51.75c0,2.95974 -2.72049,5.55758 -5.68024,5.55758c-6.61442,0 -39.17756,0 -52,0c-3.13138,0 -5.04177,-1.58613 -5.04073,-5.80758z" fill="url(#color-1)" stroke="#a97a4a" stroke-width="2"/><path d="M207.25301,212.74699v-65.49398h65.49398v65.49398z" fill="none" stroke="none" stroke-width="0"/><g stroke="none" stroke-width="0"><path d="M219.60457,200.335v-40.74425h40.74426v40.74425z" data-paper-data="{&quot;index&quot;:null}" fill="#454545"/><g><path d="M239.90837,200.34798v-18.20795h18.20796v18.20795z" data-paper-data="{&quot;index&quot;:null}" fill="#8b8b8b"/><path d="M258.05507,182.07877v2.95205c0,0 -1.4719,0.00688 -3.23523,0.01512c-1.08294,0.00506 -1.33083,0.71937 -2.36017,0.72418c-0.43002,0.00201 -1.77649,-0.70485 -2.12949,-0.7032c-2.57172,0.01202 -7.71193,0.03604 -7.71193,0.03604l-0.04927,15.18375h-2.72187v-18.20795z" data-paper-data="{&quot;index&quot;:null}" fill="#a5a5a5"/><path d="M239.90837,200.34798v-2.95205c0,0 0.86691,-0.00415 2.15333,-0.0103c0.75282,-0.0036 1.64929,-0.71662 2.59977,-0.72116c0.69128,-0.0033 1.41112,0.702 2.12503,0.6986c1.26446,-0.00603 2.03781,-1.66567 3.07336,-1.67058c0.7736,-0.00367 1.90234,1.64695 2.36131,1.6448c1.30106,-0.00608 3.12402,-0.0135 3.12402,-0.0135l0.04927,-15.31029h2.72187v18.33448z" data-paper-data="{&quot;index&quot;:null}" fill="#666666"/></g><g><path d="M219.47155,200.40923v-18.20795h18.20796v18.20795z" data-paper-data="{&quot;index&quot;:null}" fill="#8b8b8b"/><path d="M237.61825,182.14003v2.95205c0,0 -1.43753,0.00672 -3.35145,0.01566c-1.36963,0.0064 -3.21947,0.72268 -4.7248,0.72971c-1.74444,0.00815 -3.10725,-0.69311 -4.01276,-0.68888c-1.46233,0.00683 -3.34781,0.01565 -3.34781,0.01565l-0.04928,15.18376h-2.72186v-18.20795z" data-paper-data="{&quot;index&quot;:null}" fill="#a5a5a5"/><path d="M219.47155,200.40923v-2.95205c0,0 3.8161,-0.01783 6.05435,-0.02829c0.95353,-0.00446 1.88073,-0.71973 3.30956,-0.72641c1.12734,-0.00527 1.53999,1.48885 2.63875,1.69435c0.54094,0.10117 1.96412,-1.00491 2.32119,-1.00658c0.68456,-0.0032 1.11296,-0.0052 1.11296,-0.0052l0.04927,-15.31029h2.72187v18.33448z" data-paper-data="{&quot;index&quot;:null}" fill="#666666"/></g><g><g><path d="M229.72461,179.76034v-18.20795h18.20796v18.20795z" data-paper-data="{&quot;index&quot;:null}" fill="#8b8b8b"/><path d="M247.87131,161.49114v2.95205c0,0 -3.81313,-0.24162 -6.7647,-0.00031c-3.20357,0.26191 -5.60247,1.00862 -6.60266,1.01329c-0.47483,0.00222 -2.06946,-0.94083 -2.06946,-0.94083l-0.04927,15.18375h-2.72186v-18.20795z" data-paper-data="{&quot;index&quot;:null}" fill="#a5a5a5"/><path d="M229.72461,179.76034v-2.95205c0,0 5.29522,-0.02364 7.85042,-0.03558c0.60801,-0.00284 1.82115,-1.18759 2.59863,-1.19132c1.30807,-0.00627 2.24794,1.16811 3.30848,1.16295c0.99425,-0.00484 1.67928,-0.00819 1.67928,-0.00819l0.04927,-15.31029h2.72186v18.33448z" data-paper-data="{&quot;index&quot;:null}" fill="#666666"/></g><g><path d="M250.0349,179.69909v-18.20795h10.48496v18.20795z" data-paper-data="{&quot;index&quot;:null}" fill="#8b8b8b"/><path d="M260.58972,161.42988v2.95205c0,0 -1.71988,-0.12655 -2.69542,-0.00737c-1.13269,0.13838 -1.59087,0.5258 -2.36563,0.53292c-0.8648,0.00795 -2.7839,-0.45341 -2.7839,-0.45341l-0.04927,15.18376h-2.72187v-18.20795z" data-paper-data="{&quot;index&quot;:null}" fill="#a5a5a5"/><path d="M250.0349,179.69909v-2.95205l10.47654,-0.07214l-0.01255,3.02419z" data-paper-data="{&quot;index&quot;:null}" fill="#666666"/></g><g><path d="M227.25793,161.48198v18.20795h-7.68649v-18.20795z" data-paper-data="{&quot;index&quot;:null}" fill="#8b8b8b"/><path d="M227.25794,161.48198v2.95205l-7.64917,0.07214l0.01255,-3.02419z" data-paper-data="{&quot;index&quot;:null}" fill="#a5a5a5"/><path d="M219.42951,179.75118v-2.95205l5.11854,-0.07215l0.04927,-15.18375h2.72187v18.20795z" data-paper-data="{&quot;index&quot;:null}" fill="#666666"/></g></g></g></g></g></svg>