<svg version="1.1" xmlns="http://www.w3.org/2000/svg" xmlns:xlink="http://www.w3.org/1999/xlink" width="41.16325" height="63.95058" viewBox="0,0,41.16325,63.95058"><g transform="translate(-220.16029,-139.94602)"><g data-paper-data="{&quot;isPaintingLayer&quot;:true}" fill-rule="nonzero" stroke-linejoin="miter" stroke-miterlimit="10" stroke-dasharray="" stroke-dashoffset="0" style="mix-blend-mode: normal"><g><g stroke-linecap="butt"><path d="M228.28934,156.70191c-2.35483,-6.98205 -0.57159,-13.3428 7.98094,-14.09194c8.55253,-0.74914 15.06173,2.2195 18.33563,11.54107c2.44172,6.95215 2.54819,13.66116 2.54819,13.66116l-27.59237,-3.93137c0,0 0.21919,-2.75639 -1.27239,-7.17891z" fill="#20ad00" stroke="none" stroke-width="0"/><path d="M249.04606,147.33207c0.31159,3.55726 0.21889,8.6358 -0.84367,8.72887c-0.42056,0.03684 -3.20691,-8.04705 -6.30249,-9.50565c-2.10602,-0.99233 -4.66979,2.47626 -7.02111,2.71063c-2.92462,0.29151 -5.82675,-2.70704 -5.93111,-3.89847c-0.18125,-2.06925 2.54401,-4.35638 6.99846,-5.09659c4.45445,-0.74021 7.28831,-0.32835 10.24353,2.41875c1.78194,1.65645 2.73918,3.30434 2.85639,4.64245z" fill="#f29e4a" stroke="none" stroke-width="0"/><path d="M234.38218,148.22632c0.52294,-0.26924 0.7373,-4.49091 6.44675,-4.82678c3.84249,-0.22604 6.41445,1.49177 6.7665,5.51101c0.35205,4.01925 -1.59599,7.17476 -5.43044,7.51063c-1.47111,0.12886 -10.36673,2.72125 -13.97926,-0.06761c-2.04217,-1.57655 -3.28598,-5.05269 -2.84401,-7.68554c0.33,-1.96581 2.00971,-3.40108 2.78475,-3.55089c4.5703,-0.88339 5.40368,3.54787 6.25571,3.10919z" fill="#ffffff" stroke="#20ad00" stroke-width="1.5"/><path d="M235.41444,156.33815c1.06256,-0.09307 1.9797,0.46815 2.04849,1.25352c0.0688,0.78537 -0.73681,1.49749 -1.79937,1.59056c-1.06256,0.09307 -1.9797,-0.46815 -2.04849,-1.25352c-0.0688,-0.78537 0.73681,-1.49749 1.79937,-1.59056z" fill="#f29e4a" stroke="none" stroke-width="0"/><path d="M237.44461,151.60861c0.83157,-0.07284 1.61066,1.06655 1.74015,2.54489c0.12949,1.47834 -0.43965,2.73582 -1.27122,2.80866c-0.83157,0.07284 -1.61066,-1.06655 -1.74015,-2.54489c-0.12949,-1.47834 0.43965,-2.73582 1.27122,-2.80866z" fill="#20ad00" stroke="none" stroke-width="0"/><path d="M232.78956,152.35353c0.83157,-0.07284 1.60082,0.95419 1.71817,2.29394c0.11735,1.33974 -0.46163,2.48487 -1.2932,2.55771c-0.83157,0.07284 -1.60082,-0.95419 -1.71817,-2.29394c-0.11735,-1.33974 0.46163,-2.48487 1.2932,-2.55771z" fill="#20ad00" stroke="none" stroke-width="0"/></g><path d="M240.89028,162.45029c5.25147,0 10.90249,-0.46224 14.50492,3.53388c1.25504,1.3922 1.30112,3.39658 2.03938,5.25074c1.15326,2.89646 2.63896,5.87856 2.63896,9.06185c0,1.40655 -1.57761,4.11499 -1.68583,6.02409c-0.08033,1.41703 1.35389,1.97069 1.12483,3.456c-0.29611,1.92009 -0.74822,3.82297 -1.43834,5.51669c-1.41959,3.484 -4.26145,5.8062 -6.76469,6.94554c-5.47107,2.49015 -9.91428,-1.95538 -10.41922,-1.89798c-2.20607,0.25078 -4.93037,3.90196 -10.27338,2.35482c-2.58861,-0.74957 -5.87417,-3.32087 -7.4103,-7.19266c-0.81267,-2.04833 -1.57369,-3.1427 -1.03385,-6.71078c0.30613,-2.02334 1.1731,-1.67696 0.84766,-3.42474c-0.18766,-1.00777 -1.61013,-4.28374 -1.61013,-5.07099c0,-3.16001 1.04308,-5.41564 1.90756,-8.12135c0.73627,-2.30441 1.1274,-5.15086 2.95846,-6.83632c3.5507,-3.26836 9.92838,-2.8888 14.61399,-2.8888z" data-paper-data="{&quot;index&quot;:null}" fill="#ffffff" stroke="#20ad00" stroke-width="2.5" stroke-linecap="butt"/><path d="M222.02442,189.10556l2.35488,-6.43668" fill="none" stroke="#20ad00" stroke-width="2.5" stroke-linecap="round"/><path d="M255.62075,182.3549c0,0 0.97788,1.16181 1.39602,1.89356c0.57664,1.00913 2.0578,3.60116 2.0578,3.60116" fill="none" stroke="#20ad00" stroke-width="2.5" stroke-linecap="round"/><path d="M247.92812,192.55939c0,0 -2.33064,2.74863 -7.37863,2.66887c-4.68506,-0.07403 -6.75066,-2.66887 -6.75066,-2.66887" fill="none" stroke="#20ad00" stroke-width="2.5" stroke-linecap="round"/><path d="M237.56664,180.314v4.39578" fill="none" stroke="#20ad00" stroke-width="2.5" stroke-linecap="round"/><path d="M244.31731,180.314v4.23879" fill="none" stroke="#20ad00" stroke-width="2.5" stroke-linecap="round"/><path d="M240.85955,161.01121c0,-2.65416 3.29187,-2.2939 6.57797,-2.2939c3.2861,0 5.95001,2.15161 5.95001,4.80577c0,2.65415 -2.66391,4.80577 -5.95001,4.80577c-1.87249,0 -4.06085,-1.04325 -5.32696,-2.8371c-0.95583,-1.35423 -1.25101,-3.33879 -1.25101,-4.48055z" fill="#f29e4a" stroke="none" stroke-width="0" stroke-linecap="butt"/><path d="M236.27539,161.16819c0,1.14175 -0.29519,3.12632 -1.25101,4.48055c-1.26612,1.79385 -3.45446,2.8371 -5.32696,2.8371c-3.28609,0 -5.95001,-2.15162 -5.95001,-4.80578c0,-2.65416 2.66392,-4.80577 5.95001,-4.80577c3.28609,0 6.57797,-0.36026 6.57797,2.29389z" data-paper-data="{&quot;index&quot;:null}" fill="#f29e4a" stroke="none" stroke-width="0" stroke-linecap="butt"/></g></g></g></svg>