<svg version="1.1" xmlns="http://www.w3.org/2000/svg" xmlns:xlink="http://www.w3.org/1999/xlink" width="51.09259" height="57.11185" viewBox="0,0,51.09259,57.11185"><g transform="translate(-197.04455,-143.46559)"><g data-paper-data="{&quot;isPaintingLayer&quot;:true}" fill-rule="nonzero" stroke-linecap="butt" stroke-linejoin="miter" stroke-miterlimit="10" stroke-dasharray="" stroke-dashoffset="0" style="mix-blend-mode: normal"><g><path d="M236.40448,200.57744v-41.08695h6.77258v41.08695z" fill="#ffffff" stroke="none" stroke-width="0"/><g><g stroke="none" stroke-width="0"><path d="M197.04455,160.97254h39.3878v39.3878z" fill="#efcfaf"/><path d="M217.40229,172.03653c0,-4.88838 3.96281,-8.8512 8.8512,-8.8512c4.88838,0 8.8512,3.96281 8.8512,8.8512c0,4.88838 -3.96281,8.8512 -8.8512,8.8512c-4.88838,0 -8.8512,-3.96281 -8.8512,-8.8512z" fill="#148382"/><path d="M222.713,167.16837c1.22209,0 2.21279,2.08048 2.21279,4.64687c0,2.56639 -0.9907,4.64687 -2.21279,4.64687c-1.22209,0 -2.21279,-2.08048 -2.21279,-4.64687c0,-2.56639 0.9907,-4.64687 2.21279,-4.64687z" fill="#efcfaf"/><path d="M229.64547,167.01988c1.22209,0 2.2128,2.08047 2.2128,4.64687c0,2.56639 -0.99071,4.64687 -2.2128,4.64687c-1.22209,0 -2.2128,-2.08047 -2.2128,-4.64687c0,-2.56639 0.99071,-4.64687 2.2128,-4.64687z" fill="#efcfaf"/></g><g><path d="M231.93434,151.81699c0,-4.33621 3.5152,-7.8514 7.8514,-7.8514c4.33621,0 7.8514,3.5152 7.8514,7.8514c0,4.33621 -3.5152,7.8514 -7.8514,7.8514c-4.33621,0 -7.8514,-3.5152 -7.8514,-7.8514z" fill="#cccccc" stroke="#a5a5a5" stroke-width="1"/><path d="M235.38578,148.1308c0,-1.3797 1.11846,-2.49818 2.49818,-2.49818c1.3797,0 2.49818,1.11846 2.49818,2.49818c0,1.3797 -1.11846,2.49818 -2.49818,2.49818c-1.3797,0 -2.49818,-1.11846 -2.49818,-2.49818z" fill="#ffffff" stroke="none" stroke-width="0"/></g></g></g></g></g></svg>