<svg version="1.1" xmlns="http://www.w3.org/2000/svg" xmlns:xlink="http://www.w3.org/1999/xlink" width="112.66618" height="112.66618" viewBox="0,0,112.66618,112.66618"><g transform="translate(-183.66691,-123.66691)"><g data-paper-data="{&quot;isPaintingLayer&quot;:true}" fill-rule="nonzero" stroke-linejoin="miter" stroke-miterlimit="10" stroke-dasharray="" stroke-dashoffset="0" style="mix-blend-mode: normal"><path d="M224.42307,195.55393c-0.0142,-0.31025 0.18133,-4.06232 0.5288,-4.1515c2.04487,-0.52484 4.93687,0.30766 5.76865,2.76828c0.93418,2.76353 -0.35014,7.22431 -0.94138,7.17515c-2.24215,-0.18642 -5.2305,-3.04702 -5.35607,-5.79193z" data-paper-data="{&quot;index&quot;:null}" fill="#f29e4a" stroke="none" stroke-width="0" stroke-linecap="butt"/><path d="M183.66691,236.33309v-112.66618h112.66618v112.66618z" data-paper-data="{&quot;index&quot;:null}" fill="none" stroke="none" stroke-width="0" stroke-linecap="butt"/><path d="M234.95374,173.14014c6.05037,-0.68465 11.12001,-0.41457 16.1641,1.92961c4.73694,2.20143 8.54674,7.52324 8.54674,7.52324l-4.08663,2.09969c0,0 4.96791,5.18817 4.44272,7.87542c-0.38054,1.94715 -18.20691,3.10886 -18.20691,3.10886c0,0 -3.20913,1.91796 -5.77314,1.91796c-8.55381,0 -14.83869,-5.73647 -16.57491,-8.28745c-2.10141,-3.08754 2.50722,-14.69844 15.48803,-16.16733z" data-paper-data="{&quot;index&quot;:null}" fill="#f32f00" stroke="none" stroke-width="0" stroke-linecap="butt"/><path d="M252.51757,189.30746c0,-1.5757 0.79074,-2.85306 1.76618,-2.85306c0.97544,0 1.76618,1.27736 1.76618,2.85306c0,1.5757 -0.79074,2.85306 -1.76618,2.85306c-0.97544,0 -1.76618,-1.27736 -1.76618,-2.85306z" data-paper-data="{&quot;index&quot;:null}" fill="#ffffff" stroke="none" stroke-width="0" stroke-linecap="butt"/><path d="M243.69391,201.43677c-0.59124,0.04916 -1.87556,-4.41162 -0.94138,-7.17515c0.83179,-2.46063 3.72378,-3.29313 5.76865,-2.76828c0.34747,0.08918 0.54299,3.84126 0.5288,4.15151c-0.12558,2.74491 -3.11392,5.60552 -5.35607,5.79193z" fill="#f29e4a" stroke="none" stroke-width="0" stroke-linecap="butt"/><path d="M232.0644,174.36287c0,0 5.46552,-16.40242 6.82928,-16.32536c1.18154,0.06677 6.28584,16.32536 6.28584,16.32536c0,0 -2.03991,2.7172 -6.69342,2.7172c-4.3365,0 -6.4217,-2.7172 -6.4217,-2.7172z" data-paper-data="{&quot;index&quot;:null}" fill="#f29e4a" stroke="none" stroke-width="0" stroke-linecap="butt"/><path d="M220.80632,182.81634c0,0 -0.83462,-18.90221 0.35039,-19.58155c1.02668,-0.58858 10.64146,12.42715 10.64146,12.42715c0,0 -0.2274,3.39009 -4.12753,5.92862c-3.63444,2.3656 -6.86432,1.22579 -6.86432,1.22579z" data-paper-data="{&quot;index&quot;:null}" fill="#f29e4a" stroke="none" stroke-width="0" stroke-linecap="butt"/><path d="M250.19006,180.23196c-3.90013,-2.53853 -4.12753,-5.92862 -4.12753,-5.92862c0,0 9.61477,-13.01573 10.64146,-12.42715c1.18501,0.67935 0.35039,19.58155 0.35039,19.58155c0,0 -3.22987,1.13981 -6.86431,-1.22579z" data-paper-data="{&quot;index&quot;:null}" fill="#f29e4a" stroke="none" stroke-width="0" stroke-linecap="butt"/><path d="M238.89368,178.03109c2.37486,0 7.74401,3.09815 7.74401,6.24956c0,3.1514 -3.46711,5.70612 -7.74401,5.70612c-4.2769,0 -7.74401,-2.55472 -7.74401,-5.70612c0,-3.1514 5.36915,-6.24956 7.74401,-6.24956z" data-paper-data="{&quot;index&quot;:null}" fill="#f29e4a" stroke="none" stroke-width="0" stroke-linecap="butt"/><path d="M228.31183,175.56862c-0.47872,-1.00321 -7.15512,-12.33383 -7.15512,-12.33383c1.02668,-0.58858 10.64146,12.42715 10.64146,12.42715c0,0 -0.22741,3.39009 -4.12753,5.92862c-1.74746,1.1374 1.78111,-4.0098 0.64119,-6.02194z" data-paper-data="{&quot;index&quot;:null}" fill="#ffffff" stroke="none" stroke-width="0" stroke-linecap="butt"/><path d="M241.84631,173.7418c0.00409,-4.12439 -4.31639,-15.78135 -2.95264,-15.70428c1.18154,0.06677 6.28584,16.32536 6.28584,16.32536c0,0 -2.03991,2.7172 -6.69342,2.7172c-4.3365,0 3.35842,-1.52182 3.36022,-3.33827z" data-paper-data="{&quot;index&quot;:null}" fill="#ffffff" stroke="none" stroke-width="0" stroke-linecap="butt"/><path d="M250.19006,180.23196c-3.90013,-2.53853 2.78152,0.75556 3.94643,-2.66798c2.01935,-5.93465 1.54081,-16.27637 2.5675,-15.68779c1.18501,0.67935 0.35039,19.58155 0.35039,19.58155c0,0 -3.22987,1.13981 -6.86431,-1.22579z" data-paper-data="{&quot;index&quot;:null}" fill="#ffffff" stroke="none" stroke-width="0" stroke-linecap="butt"/><path d="M238.89368,178.03109c2.37486,0 7.74401,3.09815 7.74401,6.24956c0,1.27679 -0.56911,2.45563 -1.53061,3.40631c-1.7414,1.72181 -3.24389,-1.26796 -3.24389,-3.71685c0,-3.1514 -5.34437,-5.93902 -2.96951,-5.93902z" data-paper-data="{&quot;index&quot;:null}" fill="#ffffff" stroke="none" stroke-width="0" stroke-linecap="butt"/><path d="M260.22368,183.46549c0,0 -4.67871,0.86492 -8.82072,4.07191c-4.69965,3.63874 -8.71155,9.39621 -14.86514,9.27557c-4.05627,-0.07952 -5.63591,-1.11396 -9.34314,-2.66036c-5.6317,-2.34916 -9.08757,-5.52444 -9.08757,-5.52444" data-paper-data="{&quot;index&quot;:null}" fill="none" stroke="#ffffff" stroke-width="3.5" stroke-linecap="round"/></g></g></svg>