<svg version="1.1" xmlns="http://www.w3.org/2000/svg" xmlns:xlink="http://www.w3.org/1999/xlink" width="85.49398" height="85.49398" viewBox="0,0,85.49398,85.49398"><defs><linearGradient x1="-3285.69704" y1="-2895.28053" x2="-3285.69704" y2="4105.40968" gradientUnits="userSpaceOnUse" id="color-1"><stop offset="0" stop-color="#ffffff"/><stop offset="1" stop-color="#ffffff" stop-opacity="0"/></linearGradient></defs><g transform="translate(-197.25302,-137.25303)"><g data-paper-data="{&quot;isPaintingLayer&quot;:true}" fill-rule="nonzero" stroke-linecap="butt" stroke-linejoin="miter" stroke-miterlimit="10" stroke-dasharray="" stroke-dashoffset="0" style="mix-blend-mode: normal"><path d="M208.63952,205.58015c0.00324,-13.1024 0,-44.63208 0,-51.75c0,-3.5626 2.97813,-5.21784 6.54073,-5.21784c12.68063,0 43.89984,0 51,0c2.96729,0 5.18024,2.50056 5.18024,5.46784c0,6.43742 0,39.20833 0,51.75c0,2.95974 -2.72049,5.55758 -5.68024,5.55758c-6.61442,0 -39.17756,0 -52,0c-3.13138,0 -5.04177,-1.58613 -5.04073,-5.80758z" fill="url(#color-1)" stroke="#a97a4a" stroke-width="2"/><path d="M197.25302,222.74701v-85.49398h85.49398v85.49398z" fill="none" stroke="none" stroke-width="0"/><path d="M207.25301,212.74701v-65.49398h65.49398v65.49398z" fill="none" stroke="none" stroke-width="0"/><g><path d="M244.89247,202.5387v-40.44458h4.29593v40.44458z" fill="#ffffff" stroke="none" stroke-width="0"/><g><g stroke="none" stroke-width="0"><path d="M219.92597,163.03421h24.98418v24.98418z" fill="#efcfaf"/><path d="M232.83914,170.05224c0,-3.10076 2.51366,-5.61443 5.61443,-5.61443c3.10076,0 5.61443,2.51366 5.61443,5.61443c0,3.10076 -2.51366,5.61443 -5.61443,5.61443c-3.10076,0 -5.61443,-2.51366 -5.61443,-5.61443z" fill="#148382"/><path d="M236.20779,166.9643c0.77519,0 1.4036,1.31967 1.4036,2.94757c0,1.62789 -0.62841,2.94757 -1.4036,2.94757c-0.77519,0 -1.4036,-1.31967 -1.4036,-2.94757c0,-1.62789 0.62841,-2.94757 1.4036,-2.94757z" fill="#efcfaf"/><path d="M240.60515,166.87011c0.77519,0 1.40361,1.31967 1.40361,2.94757c0,1.62789 -0.62842,2.94757 -1.40361,2.94757c-0.77519,0 -1.40361,-1.31967 -1.40361,-2.94757c0,-1.62789 0.62842,-2.94757 1.40361,-2.94757z" fill="#efcfaf"/></g><g><path d="M242.057,157.22673c0,-2.75051 2.22974,-4.98024 4.98024,-4.98024c2.75051,0 4.98024,2.22974 4.98024,4.98024c0,2.75051 -2.22974,4.98024 -4.98024,4.98024c-2.75051,0 -4.98024,-2.22974 -4.98024,-4.98024z" fill="#cccccc" stroke="#a5a5a5" stroke-width="1"/><path d="M244.2463,154.88853c0,-0.87516 0.70945,-1.58463 1.58463,-1.58463c0.87516,0 1.58463,0.70945 1.58463,1.58463c0,0.87516 -0.70945,1.58463 -1.58463,1.58463c-0.87516,0 -1.58463,-0.70945 -1.58463,-1.58463z" fill="#ffffff" stroke="none" stroke-width="0"/></g></g></g></g></g></svg>