<svg version="1.1" xmlns="http://www.w3.org/2000/svg" xmlns:xlink="http://www.w3.org/1999/xlink" width="41.67764" height="42.3439" viewBox="0,0,41.67764,42.3439"><defs><linearGradient x1="230.72281" y1="194.9132" x2="249.41328" y2="194.9132" gradientUnits="userSpaceOnUse" id="color-1"><stop offset="0" stop-color="#efcfaf"/><stop offset="1" stop-color="#5c442b"/></linearGradient></defs><g transform="translate(-219.02341,-158.55927)"><g data-paper-data="{&quot;isPaintingLayer&quot;:true}" fill-rule="nonzero" stroke-linejoin="miter" stroke-miterlimit="10" stroke-dasharray="" stroke-dashoffset="0" style="mix-blend-mode: normal"><g stroke-width="1"><g data-paper-data="{&quot;index&quot;:null}"><path d="M231.4364,200.40317c-0.64117,-2.35073 -0.90648,-6.12453 -0.56166,-8.21812c0.35529,-2.15711 1.25877,-2.82432 1.25877,-2.82432l15.97692,0.07692c0,0 0.97947,1.06662 1.14178,2.35541c0.29148,2.31452 0.16682,5.65441 -0.20908,8.67261" data-paper-data="{&quot;index&quot;:null}" fill="url(#color-1)" stroke="#5c442b" stroke-linecap="butt"/><path d="M246.08733,198.47707v-3.84616" fill="none" stroke="#b2815f" stroke-linecap="round"/></g><path d="M243.34633,194.86229v2.125" fill="none" stroke="#b2815f" stroke-linecap="round"/><path d="M233.47133,195.11229v4" fill="none" stroke="#b2815f" stroke-linecap="round"/></g><g><path d="M259.66198,158.59276c0,0 0.08802,19.49021 0.08802,21.40724c0,10.76955 -8.84238,19.5 -19.75,19.5c-4.71339,0 -8.92911,-1.26756 -12.19715,-4.03048c-4.29478,-3.63097 -6.95285,-9.5537 -6.95285,-15.66952c0,-0.59566 -0.94691,-4.14355 -1.20176,-8.21169c-0.09822,-1.56777 0.24694,-3.21281 0.2835,-4.79593c0.10201,-4.41797 0.7926,-8.23311 0.7926,-8.23311z" fill="#a5e62a" stroke="none" stroke-width="0" stroke-linecap="butt"/><path d="M259.5,159.42857c0,0 0.7747,7.91426 0.69535,15.77643c-0.02458,2.43513 -0.49271,5.22688 -0.62902,7.3148c-0.1708,2.08303 -1.62684,5.59036 -3.35785,8.5751c-2.61361,4.50657 -6.87788,8.33367 -16.42276,8.33367c-5.31294,0 -9.70281,-1.22253 -12.63327,-3.65049c-1.52983,-1.2675 -1.90586,-2.81958 -2.8181,-4.48749c-1.34941,-2.46721 -2.9216,-5.18787 -3.40792,-7.61577c-0.2199,-1.09784 0.42923,-2.16494 0.33054,-3.16651c-0.25142,-2.55146 -1.62063,-5.19471 -1.73356,-7.70036c-0.3116,-6.91346 1.00516,-13.37939 1.00516,-13.37939" fill="none" stroke="#000000" stroke-width="1" stroke-linecap="round"/></g><path d="M242.64286,199.14286c-7.72163,0.84574 -11.71429,-2 -11.71429,-2c0,0 3.35698,2.04149 12.22526,0.43903c10.14897,-1.83387 12.63188,-5.29618 12.63188,-5.29618c0,0 -3.09066,5.75614 -13.14286,6.85714z" fill="#000000" stroke="none" stroke-width="0" stroke-linecap="butt"/></g></g></svg>