<svg version="1.1" xmlns="http://www.w3.org/2000/svg" xmlns:xlink="http://www.w3.org/1999/xlink" width="41.22737" height="41.06251" viewBox="0,0,41.22737,41.06251"><g transform="translate(-219.38632,-159.46874)"><g data-paper-data="{&quot;isPaintingLayer&quot;:true}" fill-rule="nonzero" stroke="none" stroke-width="0" stroke-linecap="butt" stroke-linejoin="miter" stroke-miterlimit="10" stroke-dasharray="" stroke-dashoffset="0" style="mix-blend-mode: normal"><g><path d="M219.42342,200.53125v-41.03081h41.03083v41.03081z" fill="#cccccc"/><path d="M236.80566,191.18895c0,0 6.5374,-3.24155 9.17088,-8.0943c0.78951,-1.45483 0.52652,-4.32975 1.02513,-5.8932c2.8903,-9.0629 0.96118,-17.67759 0.96118,-17.67759h2.67591l0.92982,2.24305c0,0 -0.06479,9.62448 -1.24053,15.27302c-0.59426,2.855 -1.01366,5.92316 -2.26771,7.78878c-3.87845,5.76986 -8.80177,7.25222 -8.80177,7.25222l-0.06174,8.36536l-2.39118,0.00343z" fill="#ffffff"/><path d="M249.32152,180.35687v-5.58791c0,0 1.38792,2.11777 2.57426,2.46379c1.21347,0.35393 5.06213,0.35757 5.06213,0.35757l1.94286,1.08695v1.67959z" fill="#ffffff"/><path d="M221.98071,161.79704v-2.3283h25.14556v2.3283z" fill="#ffffff"/><path d="M219.38632,198.00303v-36.00641h2.39481v36.00641z" fill="#ffffff"/><path d="M250.30272,161.88031v-2.3283h7.98272v2.3283z" fill="#ffffff"/><path d="M219.53599,187.82415v-2.3283c0,0 3.96249,0.44247 5.60124,0.99487c1.03983,0.3505 2.62796,2.67927 4.19368,3.36817c2.53251,1.11428 5.00639,0.62617 5.00639,0.62617v2.3283c0,0 -3.89646,0.41219 -6.35812,-0.56871c-2.06984,-0.82478 -2.63801,-3.02428 -3.83865,-3.42899c-1.30905,-0.44125 -4.60453,-0.9915 -4.60453,-0.9915z" fill="#ffffff"/><g fill="#a5a5a5"><path d="M251.59024,178.3982l-1.51241,-1.64256l0.80007,-3.73318l1.81246,2.89939l5.37139,-0.19957v2.67591z"/><path d="M221.8372,200.51323v-2.59439h12.51672v2.59439z"/><path d="M239.14354,200.51323v-2.79395h18.75939v2.79396z"/><path d="M257.95279,197.63623v-19.29157h2.4946v19.29157z"/><path d="M257.95279,175.68376v-13.63715h2.6609v13.63715z"/><path d="M234.41084,190.8896c0,0 6.93654,-2.74264 9.57003,-7.59538c4.43348,-8.16956 1.99453,-23.73709 1.99453,-23.73709h3.17896c0,0 2.49414,17.16422 -3.08968,25.47114c-3.87845,5.76986 -8.80177,7.25223 -8.80177,7.25223l-0.06175,5.5714l-2.79032,0.00343z"/><path d="M219.53599,185.99477v-2.3283c0,0 3.96249,0.44247 5.60124,0.99486c1.03983,0.3505 2.62796,2.67927 4.19368,3.36817c2.53251,1.11428 11.84871,0.62617 11.84871,0.62617l-3.70627,2.3283c0,0 -7.03252,0.41219 -9.49418,-0.56871c-2.06984,-0.82478 -2.63801,-3.02428 -3.83865,-3.42899c-1.30905,-0.44125 -4.60453,-0.9915 -4.60453,-0.9915z"/></g></g></g></g></svg>