<svg version="1.1" xmlns="http://www.w3.org/2000/svg" xmlns:xlink="http://www.w3.org/1999/xlink" width="32.80387" height="26.42817" viewBox="0,0,32.80387,26.42817"><g transform="translate(-224.76473,-166.78592)"><g data-paper-data="{&quot;isPaintingLayer&quot;:true}" fill-rule="nonzero" stroke="none" stroke-width="0" stroke-linecap="butt" stroke-linejoin="miter" stroke-miterlimit="10" stroke-dasharray="" stroke-dashoffset="0" style="mix-blend-mode: normal"><path d="M224.79409,170.47793c0.09171,-2.80865 2.10013,-3.69201 3.56368,-3.69201c0.82714,0 24.35466,0 25.69549,0c2.12374,0 3.51535,1.47428 3.51535,3.59802c0,0.83725 0,18.23706 0,19.56064c0,2.1189 -1.58442,3.26952 -3.70333,3.26952c-1.31688,0 -24.79552,0 -25.6015,0c-2.06878,0 -3.46969,-1.38872 -3.46969,-3.45748c0,-1.23134 -0.06604,-17.25604 0,-19.27868z" fill="#45a7e0"/><g fill="#ffffff"><path d="M249.2841,184.34012l-8.46852,0v-8.46852l8.46852,0z"/><path d="M241.34486,169.37104v21.25792l-10.62896,-10.62896z"/></g></g></g></svg>