<svg version="1.1" xmlns="http://www.w3.org/2000/svg" xmlns:xlink="http://www.w3.org/1999/xlink" width="85.49398" height="85.49398" viewBox="0,0,85.49398,85.49398"><defs><linearGradient x1="-3285.69704" y1="-2895.28053" x2="-3285.69704" y2="4105.40968" gradientUnits="userSpaceOnUse" id="color-1"><stop offset="0" stop-color="#ffffff"/><stop offset="1" stop-color="#ffffff" stop-opacity="0"/></linearGradient></defs><g transform="translate(-197.25302,-137.25303)"><g data-paper-data="{&quot;isPaintingLayer&quot;:true}" fill-rule="nonzero" stroke-linecap="butt" stroke-linejoin="miter" stroke-miterlimit="10" stroke-dasharray="" stroke-dashoffset="0" style="mix-blend-mode: normal"><path d="M208.63952,205.58015c0.00324,-13.1024 0,-44.63208 0,-51.75c0,-3.5626 2.97813,-5.21784 6.54073,-5.21784c12.68063,0 43.89984,0 51,0c2.96729,0 5.18024,2.50056 5.18024,5.46784c0,6.43742 0,39.20833 0,51.75c0,2.95974 -2.72049,5.55758 -5.68024,5.55758c-6.61442,0 -39.17756,0 -52,0c-3.13138,0 -5.04177,-1.58613 -5.04073,-5.80758z" fill="url(#color-1)" stroke="#a97a4a" stroke-width="2"/><path d="M197.25302,222.74701v-85.49398h85.49398v85.49398z" fill="none" stroke="none" stroke-width="0"/><path d="M207.25301,212.74701v-65.49398h65.49398v65.49398z" fill="none" stroke="none" stroke-width="0"/><g data-paper-data="{&quot;index&quot;:null}" fill="#bcbcbc" stroke="none" stroke-width="0"><path d="M231.17799,166.07025h17.64396l-8.82198,8.82198z"/><path d="M236.3211,166.48248v-13.11597h7.35773v13.11597z"/></g><g stroke="none"><g stroke-width="0"><g data-paper-data="{&quot;index&quot;:null}"><path d="M247.94597,177.92377c0.02076,1.14465 -0.51201,1.28328 -1.8063,1.63066c-0.58581,0.15723 -1.51984,0.18614 -1.98975,0.00991c-0.49686,-0.18634 -0.98027,-0.58046 -1.11598,-1.08611c-0.09475,-0.35303 0.87343,-0.67917 1.08966,-1.03397c0.38638,-0.63398 0.28705,-1.24529 1.50517,-1.57223c1.9178,-0.51473 2.29873,1.03322 2.3172,2.05174z" data-paper-data="{&quot;index&quot;:null}" fill="#f29e4a"/><path d="M243.93897,179.4695l4.62879,-0.8604c0,0 -0.1329,3.95799 -1.13028,6.21068c-0.99737,2.25269 -4.0094,5.39796 -4.0094,5.39796l-4.48355,-2.02086c0,0 4.76486,-6.84332 5.03949,-7.24878c0.295,-0.43554 -0.04506,-1.47859 -0.04506,-1.47859z" data-paper-data="{&quot;index&quot;:null}" fill="#908816"/></g><path d="M247.59779,198.20527c-0.86176,1.33877 -2.74872,0.22965 -2.74872,0.22965c0,0 1.22918,-2.46646 2.09094,-3.80523c0.06994,-0.10865 0.8758,-1.45566 2.36024,-0.60917c1.29026,0.73575 -0.8407,2.84598 -1.70246,4.18475z" data-paper-data="{&quot;index&quot;:null}" fill="#908816"/><path d="M231.57041,197.27766c-0.08925,-0.5575 0.334,-0.98151 0.65669,-1.25362c0.55477,-0.46781 1.35984,-0.22302 1.35984,-0.22302c0,0 0.93667,2.19914 1.17935,3.71508c0.0197,0.12303 0.66616,1.84165 -1.20747,2.36501c-1.87333,0.52328 -1.98842,-4.60345 -1.98842,-4.60345z" data-paper-data="{&quot;index&quot;:null}" fill="#908816"/><path d="M239.76147,187.22913c2.41529,0 4.48301,0.79984 4.86699,3.13824c0.13025,0.7932 0.28366,1.4313 0.16471,1.94515c-0.48391,2.09038 -3.09379,2.45198 -5.0317,2.50793c-2.65411,0.07663 -3.92343,0.43418 -4.45807,-0.27431c-0.61675,-0.81731 -0.25582,-2.79363 0.08481,-4.01643c0.66011,-2.36971 1.95798,-3.30057 4.37326,-3.30057z" data-paper-data="{&quot;index&quot;:null}" fill="#908816"/><path d="M237.48329,192.04625c1.22684,-1.59035 1.05371,-4.7977 1.05371,-4.7977l1.25644,-0.07972c0,0 -0.37062,3.48054 0.40689,4.1339c0.20487,0.17216 1.21837,0.29218 1.62548,-0.27328c0.40296,-0.55969 0.20061,-3.40641 0.20061,-3.40641l1.21809,0.71687c0,0 0.134,1.50142 0.37144,2.17848c0.20736,0.59131 1.30256,1.66158 1.30256,1.66158l-0.38229,1.44472c0,0 0.25853,-0.10682 1.00991,-0.06398c0.75138,0.04284 1.72903,0.9049 1.72903,0.9049l-2.35667,4.07346c0,0 -0.82528,-1.35849 -3.00141,-1.2158c-1.19233,0.07818 -2.57536,1.07734 -3.82281,1.55106c-1.97534,0.75013 -2.62946,0.67776 -2.62946,0.67776c0,0 -0.94425,0.23321 -1.48382,-1.09686c-0.62759,-1.54705 -0.40479,-2.83855 -0.40479,-2.83855l1.25242,-0.4776l0.11932,-1.89833c0,0 1.30852,0.39584 2.53536,-1.19451z" data-paper-data="{&quot;index&quot;:null}" fill="#f32f00"/><path d="M238.58633,192.55614c0,-0.382 0.30967,-0.69168 0.69168,-0.69168c0.382,0 0.69168,0.30967 0.69168,0.69168c0,0.382 -0.30967,0.69168 -0.69168,0.69168c-0.382,0 -0.69168,-0.30967 -0.69168,-0.69168z" data-paper-data="{&quot;index&quot;:null}" fill="#f29e4a"/><path d="M241.5375,192.55614c0,-0.382 0.30967,-0.69168 0.69168,-0.69168c0.382,0 0.69168,0.30967 0.69168,0.69168c0,0.382 -0.30967,0.69168 -0.69168,0.69168c-0.382,0 -0.69168,-0.30967 -0.69168,-0.69168z" data-paper-data="{&quot;index&quot;:null}" fill="#f29e4a"/><path d="M235.96273,183.56433c0,-2.39389 1.99078,-3.79808 5.37602,-3.68578c3.25919,0.10812 2.31244,1.04964 3.66842,2.14377c0.55482,0.44768 1.60183,0.55393 2.3002,1.07138c0.69836,0.51745 1.13738,1.22073 1.13738,1.87624c0,0.46287 -0.82075,0.64029 -1.36778,0.73707c-0.96783,0.17122 -1.01662,1.17294 -1.90822,1.58653c-1.45117,0.67315 -2.44355,0.6053 -4.04625,0.6053c-2.43064,0 -3.88228,0.08186 -4.87468,-1.36722c-0.39051,-0.57022 -0.28509,-2.29131 -0.28509,-2.9673z" data-paper-data="{&quot;index&quot;:null}" fill="#f29e4a"/><path d="M241.502,186.54097c-0.02044,-0.18783 0.47056,-0.21775 0.81927,-0.60181c0.31632,-0.34838 0.46188,-1.05896 1.00709,-1.11829c0.51504,-0.05604 0.99902,0.7824 1.67409,0.96104c0.82735,0.21893 1.80738,-0.19114 1.82885,0.00612c0.00468,0.04298 0.13462,0.87606 -0.07942,1.05139c-0.24064,0.19712 -0.82872,-0.26395 -0.82872,-0.26395c0,0 -0.35479,0.60877 -0.65712,0.75204c-0.62561,0.29648 -0.90611,-0.18175 -0.90611,-0.18175c0,0 -0.77511,0.44248 -1.01918,0.37344c-0.43839,-0.124 -0.69032,-0.68269 -0.69032,-0.68269c0,0 -1.13031,-0.12893 -1.14844,-0.29555z" data-paper-data="{&quot;index&quot;:null}" fill="#908816"/><path d="M236.84369,180.57615c1.50096,-0.71025 3.47754,-1.17291 4.09659,-0.31562c0.33932,0.46992 -1.76961,2.58783 -1.50161,3.01872c0.25923,0.4168 0.68783,0.87122 0.51305,1.43077c-0.07308,0.23396 -0.32512,0.83315 -0.61504,0.87879c-0.30459,0.04794 -0.65098,-0.45901 -0.8756,-0.25127c-0.54319,0.5024 -0.66346,1.61792 -1.18489,1.61792c-0.92681,0 -2.3886,0.12091 -2.79345,-0.65886c-0.77798,-1.49845 0.20232,-2.62998 0.3066,-3.12548c0.32437,-1.54129 0.55339,-1.88473 2.05436,-2.59498z" data-paper-data="{&quot;index&quot;:null}" fill="#908816"/><path d="M237.45494,184.63082c0,-0.80616 0.56839,-1.29051 0.95654,-1.29051c0.38815,0 0.70281,0.48436 0.70281,1.29051c0,0.80616 -0.31465,1.45967 -0.70281,1.45967c-0.38815,0 -0.95654,-0.65352 -0.95654,-1.45967z" data-paper-data="{&quot;index&quot;:null}" fill="#f29e4a"/><path d="M243.11488,181.65741c0.418,0 0.75687,0.50829 0.75687,1.1353c0,0.62701 -0.33886,1.1353 -0.75687,1.1353c-0.418,0 -0.75687,-0.50829 -0.75687,-1.1353c0,-0.62701 0.33886,-1.1353 0.75687,-1.1353z" data-paper-data="{&quot;index&quot;:null}" fill="#908816"/><path d="M235.32995,180.6843c0.18947,-0.3726 0.89085,-2.83547 5.35214,-2.59498c2.6711,0.14399 3.5424,1.86978 3.72479,1.85504c1.43104,-0.11566 3.03296,0.49928 3.03296,0.73993c0,0.418 -2.83191,0.75687 -6.32525,0.75687c-3.49334,0 -6.21713,0.09364 -5.78463,-0.75687z" data-paper-data="{&quot;index&quot;:null}" fill="#f32f00"/><g><path d="M234.20817,193.30328c0,0 -1.43339,-1.67508 -2.2368,-2.01735c-0.61077,-0.2602 -1.9074,-0.46568 -1.9074,-0.46568c0,0 1.85302,-2.1546 3.51063,-2.64564c2.47296,-0.73257 5.12045,-0.35069 5.12045,-0.35069l-1.83061,3.87594c0,0 -1.28382,-0.04164 -1.75011,0.10798c-0.50088,0.16072 -0.90616,1.49544 -0.90616,1.49544z" data-paper-data="{&quot;index&quot;:null}" fill="#908816"/><path d="M232.22845,191.03541c0.55802,0.23773 1.31089,0.79129 1.57195,1.21992c0.27603,0.4532 0.41327,1.06164 0.20807,1.54329c-0.14327,0.33628 -1.10641,-0.00445 -1.49549,0.14133c-0.69524,0.2605 -0.99426,0.80287 -2.15459,0.30854c-1.8268,-0.77825 -1.17146,-2.23146 -0.55756,-3.04436c0.68994,-0.91358 1.19473,-0.69395 2.42761,-0.16872z" data-paper-data="{&quot;index&quot;:null}" fill="#f29e4a"/></g></g><g fill="none" stroke-width="1" font-family="sans-serif" font-weight="normal" font-size="12" text-anchor="start"><g><g/><g/></g><g><g/><g/></g></g></g></g></g></svg>