<svg version="1.1" xmlns="http://www.w3.org/2000/svg" xmlns:xlink="http://www.w3.org/1999/xlink" width="81.67068" height="81.67068" viewBox="0,0,81.67068,81.67068"><g transform="translate(-199.16466,-139.16466)"><g data-paper-data="{&quot;isPaintingLayer&quot;:true}" fill-rule="nonzero" stroke="none" stroke-linecap="butt" stroke-linejoin="miter" stroke-miterlimit="10" stroke-dasharray="" stroke-dashoffset="0" style="mix-blend-mode: normal"><path d="M199.16466,220.83534v-81.67068h81.67068v81.67068z" data-paper-data="{&quot;index&quot;:null}" fill="none" stroke-width="0"/><g><g><path d="M240.15345,168.20173c9.00427,0 15.25184,8.24076 18.05676,14.49144c3.24281,7.2265 -9.22841,11.20473 -18.30721,11.20473c-9.08486,0 -21.21156,-4.43808 -18.15694,-10.90593c3.76265,-7.96703 9.40311,-14.79024 18.40739,-14.79024z" data-paper-data="{&quot;index&quot;:null}" fill="#f29e4a" stroke-width="0"/><g data-paper-data="{&quot;index&quot;:null}" fill="none" stroke-width="1" font-family="sans-serif" font-weight="normal" font-size="12" text-anchor="start"><g data-paper-data="{&quot;index&quot;:null}"/><g data-paper-data="{&quot;index&quot;:null}"/><g data-paper-data="{&quot;index&quot;:null}"/></g></g><path d="M226.3783,182.55722c0,-3.04068 2.8925,-5.50565 6.46058,-5.50565c3.56808,0 6.46058,2.46497 6.46058,5.50565c0,3.04068 -2.8925,5.50565 -6.46058,5.50565c-3.56808,0 -6.46058,-2.46497 -6.46058,-5.50565z" fill="#f32f00" stroke-width="0"/><path d="M242.04469,172.82403c0,-1.69042 2.30099,-3.93514 2.30099,-3.93514c0,0 3.05608,0.93278 5.03138,2.42421c2.5927,1.95758 4.53849,4.52118 4.53849,4.52118c0,0 -3.14589,2.49541 -5.41028,2.49541c-3.56808,0 -6.46058,-2.46498 -6.46058,-5.50565z" fill="#f32f00" stroke-width="0"/><path d="M255.2786,184.6906c0.65437,1.83436 -0.44379,3.74333 -2.45281,4.2638c-2.00902,0.52046 -4.16811,-0.54465 -4.82249,-2.37902c-0.65437,-1.83436 0.44379,-3.74333 2.45281,-4.2638c2.00902,-0.52046 4.16811,0.54465 4.82249,2.37902z" fill="#f32f00" stroke-width="0"/><path d="M225.46128,190.16907c0,0 7.20136,0.87944 14.61066,0.87944c7.4093,0 14.93654,-0.78688 14.93654,-0.78688c0,0 -5.57193,3.84179 -15.15381,3.74921c-8.60367,-0.08312 -14.39339,-3.84179 -14.39339,-3.84179z" fill="#f32f00" stroke-width="0"/><path d="M240.23774,191.90586c5.13147,0 9.29135,-0.08355 9.29135,2.56845c0,2.652 -4.15988,4.80186 -9.29135,4.80186c-5.13147,0 -9.29135,-2.14988 -9.29135,-4.80186c0,-2.65201 4.15988,-2.56845 9.29135,-2.56845z" fill="#ffffff" stroke-width="0"/></g></g></g></svg>