<svg version="1.1" xmlns="http://www.w3.org/2000/svg" xmlns:xlink="http://www.w3.org/1999/xlink" width="41.80481" height="41.38562" viewBox="0,0,41.80481,41.38562"><g transform="translate(-219.15361,-159.2287)"><g data-paper-data="{&quot;isPaintingLayer&quot;:true}" fill-rule="nonzero" stroke="none" stroke-linecap="butt" stroke-linejoin="miter" stroke-miterlimit="10" stroke-dasharray="" stroke-dashoffset="0" style="mix-blend-mode: normal"><g><path d="M219.55374,200.58049v-39.87689h7.54783l-0.01018,19.31782l25.98999,-0.15389v-19.16393h7.49349v39.87689z" fill="#cccccc" stroke-width="0"/><g><path d="M219.42616,200.61432v-3.60894h41.26032v3.60894z" fill="#aeaeae" stroke-width="0"/><path d="M219.42616,190.30309v-3.60894h41.2603v3.60894z" fill="#aeaeae" stroke-width="0"/><path d="M219.42616,180.16371v-3.60893h41.2603v3.60893z" fill="#aeaeae" stroke-width="0"/><path d="M260.68646,166.24354v3.60894h-7.55576l0.05819,-3.60894z" fill="#aeaeae" stroke-width="0"/><path d="M219.42616,169.85249v-3.60894h7.75086l-0.12478,3.60894z" fill="#aeaeae" stroke-width="0"/><g fill="#aeaeae" stroke-width="0"><path d="M257.10536,166.30384v-5.27223h3.47845v5.27223z"/></g><g fill="none" stroke-width="1" font-family="sans-serif" font-weight="normal" font-size="12" text-anchor="start"/><g fill="#aeaeae" stroke-width="0"><path d="M236.97313,186.86225v-7.21035h3.47847v7.21035z"/><path d="M257.10536,186.91878v-7.21036h3.47845v7.21036z"/></g><g fill="#aeaeae" stroke-width="0"><path d="M226.85398,197.00538v-6.87414h3.47846v6.87414z"/><path d="M246.98619,197.06191v-6.87415h3.47847v6.87415z"/></g></g><path d="M219.15361,163.80261v-4.4718h11.79005v16.91283l19.22848,0.07346l-0.01806,-17.0884h10.80434v4.57391h-7.51113l0.0009,16.1408l-26.34662,-0.04064v-16.10016z" fill="#ffffff" stroke-width="0"/></g></g></g></svg>