<svg version="1.1" xmlns="http://www.w3.org/2000/svg" xmlns:xlink="http://www.w3.org/1999/xlink" width="482.06797" height="241.02417" viewBox="0,0,482.06797,241.02417"><g transform="translate(1.81623,-163.06818)"><g data-paper-data="{&quot;isPaintingLayer&quot;:true}" fill-rule="nonzero" stroke-linejoin="miter" stroke-miterlimit="10" stroke-dasharray="" stroke-dashoffset="0" style="mix-blend-mode: normal"><g><path d="M6.16633,399.50826l-0.12499,-144.3912c0,0 29.51391,-30.54553 37.77171,-39.09197c18.2519,-18.88987 53.77631,-18.74384 72.02821,0.14603c36.72552,38.0092 177.14528,183.33715 177.14528,183.33715z" fill="#79cdd4" stroke="#6bc1c7" stroke-width="2" stroke-linecap="butt"/><path d="M154.78707,396.06623c0,0 165.08386,-170.85412 208.17166,-215.44801c21.43158,-22.1807 63.14475,-22.00923 84.57633,0.17146c7.86689,8.14186 32.71668,32.30569 32.71668,32.30569l-0.16073,182.07086z" fill="#79cdd4" stroke="#4ca999" stroke-width="0" stroke-linecap="butt"/><path d="M479.98802,396.06623h-325.20095c0,0 165.08386,-170.85412 208.17166,-215.44801c21.43158,-22.1807 63.14475,-22.00923 84.57633,0.17146c7.59821,7.86379 31.16675,32.10507 31.16675,32.10507" fill="none" stroke="#6bc1c7" stroke-width="2" stroke-linecap="butt"/><path d="M-1.8047,213.70885l176.19861,182.35738h-175.56055z" fill="#79cdd4" stroke="#4ca999" stroke-width="0" stroke-linecap="butt"/><path d="M-0.81623,213.55425l183.81775,189.5381" fill="none" stroke="#6bc1c7" stroke-width="2" stroke-linecap="round"/><g fill="#6bc1c7" stroke-width="0" stroke-linecap="butt"><path d="M365.90003,228.56119c2.76142,0 5,4.74578 5,10.6c0,5.85422 -2.23858,10.6 -5,10.6c-2.76142,0 -5,-4.74578 -5,-10.6c0,-5.85422 2.23858,-10.6 5,-10.6z" stroke="#4ca999"/><path d="M353.50001,246.16119c1.87777,0 3.4,3.04446 3.4,6.8c0,3.75554 -1.52223,6.8 -3.4,6.8c-1.87777,0 -3.4,-3.04446 -3.4,-6.8c0,-3.75553 1.52223,-6.8 3.4,-6.8z" stroke="none"/></g><g fill="#6bc1c7" stroke-width="0" stroke-linecap="butt"><path d="M419.90003,182.56119c2.76142,0 5,4.74578 5,10.6c0,5.85422 -2.23858,10.6 -5,10.6c-2.76142,0 -5,-4.74578 -5,-10.6c0,-5.85422 2.23858,-10.6 5,-10.6z" stroke="#4ca999"/><path d="M407.50001,200.16119c1.87777,0 3.4,3.04446 3.4,6.8c0,3.75554 -1.52223,6.8 -3.4,6.8c-1.87777,0 -3.4,-3.04446 -3.4,-6.8c0,-3.75553 1.52223,-6.8 3.4,-6.8z" stroke="none"/></g><g fill="#6bc1c7" stroke-width="0" stroke-linecap="butt"><path d="M449.90003,248.56119c2.76142,0 5,4.74578 5,10.6c0,5.85422 -2.23858,10.6 -5,10.6c-2.76142,0 -5,-4.74578 -5,-10.6c0,-5.85422 2.23858,-10.6 5,-10.6z" stroke="#4ca999"/><path d="M437.50001,266.16119c1.87777,0 3.4,3.04446 3.4,6.8c0,3.75554 -1.52223,6.8 -3.4,6.8c-1.87777,0 -3.4,-3.04446 -3.4,-6.8c0,-3.75553 1.52223,-6.8 3.4,-6.8z" stroke="none"/></g><g fill="#6bc1c7" stroke-width="0" stroke-linecap="butt"><path d="M106.1308,230.44324c0,-4.35314 1.66459,-7.88205 3.71795,-7.88205c2.05336,0 3.71794,3.52891 3.71794,7.88205c0,4.35314 -1.66459,7.88206 -3.71795,7.88206c-2.05336,0 -3.71795,-3.52892 -3.71795,-7.88206z" stroke="#4ca999"/><path d="M100.62822,235.64837c1.39628,0 2.5282,2.26384 2.5282,5.05641c0,2.79257 -1.13191,5.05641 -2.5282,5.05641c-1.39628,0 -2.5282,-2.26384 -2.5282,-5.05641c0,-2.79257 1.13191,-5.05641 2.5282,-5.05641z" stroke="none"/></g><g fill="#6bc1c7" stroke-width="0" stroke-linecap="butt"><path d="M66.1308,250.44324c0,-4.35314 1.66459,-7.88205 3.71795,-7.88205c2.05336,0 3.71794,3.52891 3.71794,7.88205c0,4.35314 -1.66459,7.88206 -3.71795,7.88206c-2.05336,0 -3.71795,-3.52892 -3.71795,-7.88206z" stroke="#4ca999"/><path d="M60.62822,255.64837c1.39629,0 2.5282,2.26384 2.5282,5.05641c0,2.79257 -1.13191,5.05641 -2.5282,5.05641c-1.39629,0 -2.5282,-2.26384 -2.5282,-5.05641c0,-2.79257 1.13191,-5.05641 2.5282,-5.05641z" stroke="none"/></g><g stroke-linecap="butt"><path d="M59.13091,396.06623c0,0 124.22322,-128.56527 156.64618,-162.12152c16.12696,-16.69065 47.51551,-16.56163 63.64247,0.12902c32.44982,33.58406 156.52151,161.9925 156.52151,161.9925z" fill="#79cdd4" stroke="#6bc1c7" stroke-width="2"/><g fill="#6bc1c7" stroke-width="0"><path d="M224.22055,242.56119c2.5844,0 4.67948,4.44156 4.67948,9.92051c0,5.47895 -2.09507,9.92051 -4.67948,9.92051c-2.58441,0 -4.67949,-4.44156 -4.67949,-9.92051c0,-5.47895 2.09508,-9.92051 4.67949,-9.92051z" stroke="#4ca999"/><path d="M212.61541,259.03299c1.7574,0 3.18205,2.84931 3.18205,6.3641c0,3.51479 -1.42465,6.3641 -3.18205,6.3641c-1.7574,0 -3.18205,-2.84931 -3.18205,-6.3641c0,-3.51479 1.42465,-6.3641 3.18205,-6.3641z" stroke="none"/></g></g></g></g></g></svg>