<svg version="1.1" xmlns="http://www.w3.org/2000/svg" xmlns:xlink="http://www.w3.org/1999/xlink" width="41.12794" height="41.43054" viewBox="0,0,41.12794,41.43054"><g transform="translate(-219.20003,-159.2248)"><g data-paper-data="{&quot;isPaintingLayer&quot;:true}" fill-rule="nonzero" stroke-width="0" stroke-linecap="butt" stroke-linejoin="miter" stroke-miterlimit="10" stroke-dasharray="" stroke-dashoffset="0" style="mix-blend-mode: normal"><g><g stroke="none"><path d="M226.43568,200.63942v-41.25894h33.89229v41.25894z" fill="#aeaeae"/><path d="M226.5013,200.56522v-41.32031h2.85582v41.32031z" fill="#000000"/><g fill="#ffffff"><path d="M229.30001,200.65534v-41.35342h8.13559v41.35342z"/><path d="M240.36441,200.65534v-41.35342h7.33559v41.35342z"/><path d="M249.50002,200.65534v-41.35342h3.2v41.35342z"/></g></g><g stroke="none"><path d="M229.50632,193.48955h-10.27253v-34.26475h13.06596c0,0 0.46064,8.98676 0.06623,13.82468c-0.50778,6.22856 -2.85966,20.44007 -2.85966,20.44007z" fill="#aeaeae"/><path d="M229.48784,193.42393h-10.28781v-2.85582h10.28781z" fill="#000000"/><g fill="#ffffff"><path d="M229.51028,190.62522h-10.29606v-8.13559h10.29606z"/><path d="M231.37257,179.56082h-12.15835v-7.33559h12.15835z"/><path d="M231.5588,170.42521h-12.34457v-3.2h12.34457z"/></g></g><path d="M233.76524,159.27637c0,0 0.55378,10.59283 -0.74803,20.64705c-0.81529,6.29667 -3.53523,12.68787 -3.53523,12.68787h-2.79343c0,0 2.36954,-6.29102 3.27415,-13.14174c1.30352,-9.87165 1.00911,-20.19318 1.00911,-20.19318z" data-paper-data="{&quot;index&quot;:null}" fill="#000000" stroke="#000000"/></g></g></g></svg>