<svg version="1.1" xmlns="http://www.w3.org/2000/svg" xmlns:xlink="http://www.w3.org/1999/xlink" width="81.67068" height="81.67068" viewBox="0,0,81.67068,81.67068"><g transform="translate(-199.16466,-139.16466)"><g data-paper-data="{&quot;isPaintingLayer&quot;:true}" fill-rule="nonzero" stroke-width="0" stroke-linecap="butt" stroke-linejoin="miter" stroke-miterlimit="10" stroke-dasharray="" stroke-dashoffset="0" style="mix-blend-mode: normal"><path d="M199.16466,220.83534v-81.67068h81.67068v81.67068z" data-paper-data="{&quot;index&quot;:null}" fill="none" stroke="none"/><path d="M227.9649,173.32469c1.10947,-2.09958 3.52449,-3.96699 5.87785,-4.83929c1.43614,-0.53232 5.23227,0.0239 6.85621,0.0239c1.51511,0 2.9977,1.0409 4.63623,1.33896c1.48517,0.27017 3.14684,-0.24207 4.17864,0.50024c1.62847,1.17156 2.16638,3.18267 2.84241,5.11595c0.68968,1.97231 1.50097,3.87672 1.50097,6.06466c0,3.04253 -2.13991,5.19831 -3.90727,7.4149c-1.43975,1.8057 -2.965,4.09753 -4.85382,5.13234c-1.27238,0.6971 -2.70978,0.47257 -4.39713,0.47257c-2.49035,0 -5.3617,-0.0416 -7.34718,-1.23089c-1.89003,-1.13213 -3.68062,-2.50118 -4.6571,-4.55254c-0.99109,-2.08205 -2.58446,-5.05993 -2.58446,-7.44073c0,-2.3808 0.74518,-5.90047 1.85467,-8.00006z" fill="#f32f00" stroke="#000000"/><path d="M233.41712,173.75684c1.34886,-1.24446 4.90905,-0.1039 6.8749,-0.1039c1.04258,0 2.00495,0.85626 3.5348,1.24225c1.01755,0.25675 2.73999,-0.05305 3.25101,0.34454c1.81241,1.41008 0.8107,3.63073 0.8107,6.12864c0,2.12778 0.23717,5.01881 -1.13434,6.41458c-0.78433,0.79819 -3.1781,-0.17685 -4.5475,-0.05707c-1.03148,0.09022 -1.01225,1.35792 -1.91467,1.35792c-2.84329,0 -4.97715,-0.03203 -6.90392,-2.12292c-1.271,-1.37928 -2.53182,-3.96304 -2.53182,-6.00122c0,-1.18122 2.56084,-7.20282 2.56084,-7.20282z" fill="#f29e4a" stroke="#000000"/><path d="M234.32283,176.29396c0.91495,-1.08872 3.17951,1.84487 5.32002,1.84487c1.82047,0 3.43502,-1.30045 4.43999,-0.46958c0.67727,0.55994 1.07768,3.09175 1.07768,3.84149c0,0.85344 -0.51883,3.6764 -1.37424,4.27036c-1.01116,0.70211 -2.49264,-0.89846 -4.14343,-0.89846c-1.92993,0 -3.42408,2.2555 -4.41021,1.33839c-0.57095,-0.53099 -1.10746,-4.02743 -1.10746,-4.71029c0,-0.55416 -0.18996,-4.75554 0.19765,-5.21678z" fill="#ffffff" stroke="#000000"/><path d="M226.97265,166.79696c0,-0.73361 0.59471,-1.32832 1.32832,-1.32832c0.73361,0 1.32832,0.59471 1.32832,1.32832c0,0.73361 -0.59471,1.32832 -1.32832,1.32832c-0.73361,0 -1.32832,-0.59471 -1.32832,-1.32832z" fill="#f32f00" stroke="#000000"/><path d="M223.30215,174.88188c0,-0.67719 0.54897,-1.22615 1.22615,-1.22615c0.67719,0 1.22615,0.54897 1.22615,1.22615c0,0.67719 -0.54897,1.22615 -1.22615,1.22615c-0.67719,0 -1.22615,-0.54897 -1.22615,-1.22615z" fill="#f32f00" stroke="none"/><path d="M223.85161,170.44359c0,-0.39502 0.32023,-0.71525 0.71525,-0.71525c0.39502,0 0.71525,0.32023 0.71525,0.71525c0,0.39502 -0.32023,0.71525 -0.71525,0.71525c-0.39502,0 -0.71525,-0.32023 -0.71525,-0.71525z" fill="#f32f00" stroke="none"/><path d="M223.49857,195.20273c0,-1.07221 0.8692,-1.9414 1.9414,-1.9414c1.07221,0 1.9414,0.8692 1.9414,1.9414c0,1.07221 -0.8692,1.9414 -1.9414,1.9414c-1.07221,0 -1.9414,-0.8692 -1.9414,-1.9414z" fill="#f32f00" stroke="none"/><path d="M229.42495,196.22451c0,-0.50789 0.41173,-0.91961 0.91961,-0.91961c0.50789,0 0.91961,0.41173 0.91961,0.91961c0,0.50789 -0.41173,0.91961 -0.91961,0.91961c-0.50789,0 -0.91961,-0.41173 -0.91961,-0.91961z" fill="#f32f00" stroke="none"/><path d="M249.86076,193.8744c0,-1.12863 0.91494,-2.04358 2.04358,-2.04358c1.12863,0 2.04358,0.91494 2.04358,2.04358c0,1.12863 -0.91494,2.04358 -2.04358,2.04358c-1.12863,0 -2.04358,-0.91494 -2.04358,-2.04358z" fill="#f32f00" stroke="none"/><path d="M255.37842,195.40709c0,-0.39502 0.32023,-0.71525 0.71525,-0.71525c0.39502,0 0.71525,0.32023 0.71525,0.71525c0,0.39502 -0.32023,0.71525 -0.71525,0.71525c-0.39502,0 -0.71525,-0.32023 -0.71525,-0.71525z" fill="#f32f00" stroke="none"/><path d="M252.92612,169.35144c0,-1.2415 1.00644,-2.24794 2.24794,-2.24794c1.2415,0 2.24794,1.00644 2.24794,2.24794c0,1.2415 -1.00644,2.24794 -2.24794,2.24794c-1.2415,0 -2.24794,-1.00644 -2.24794,-2.24794z" fill="#f32f00" stroke="none"/><path d="M249.86076,164.44684c0,-0.45145 0.36598,-0.81744 0.81744,-0.81744c0.45145,0 0.81744,0.36598 0.81744,0.81744c0,0.45145 -0.36598,0.81744 -0.81744,0.81744c-0.45145,0 -0.81744,-0.36598 -0.81744,-0.81744z" fill="#f32f00" stroke="none"/></g></g></svg>