<svg version="1.1" xmlns="http://www.w3.org/2000/svg" xmlns:xlink="http://www.w3.org/1999/xlink" width="81.67068" height="81.67068" viewBox="0,0,81.67068,81.67068"><g transform="translate(-199.16466,-139.16466)"><g data-paper-data="{&quot;isPaintingLayer&quot;:true}" fill-rule="nonzero" stroke="none" stroke-linecap="butt" stroke-linejoin="miter" stroke-miterlimit="10" stroke-dasharray="" stroke-dashoffset="0" style="mix-blend-mode: normal"><path d="M199.16466,220.83534v-81.67068h81.67068v81.67068z" data-paper-data="{&quot;index&quot;:null}" fill="none" stroke-width="0"/><g><g><path d="M240.1423,165.46126c8.35008,0 14.14374,8.96751 16.74488,15.76945c3.00721,7.86381 -8.55793,12.19288 -16.97713,12.19288c-8.42482,0 -19.67047,-4.82947 -16.83778,-11.86773c3.48928,-8.66965 8.71994,-16.0946 17.07003,-16.0946z" data-paper-data="{&quot;index&quot;:null}" fill="#f29e4a" stroke-width="0"/><g data-paper-data="{&quot;index&quot;:null}" fill="none" stroke-width="1" font-family="sans-serif" font-weight="normal" font-size="12" text-anchor="start"><g data-paper-data="{&quot;index&quot;:null}"/><g data-paper-data="{&quot;index&quot;:null}"/><g data-paper-data="{&quot;index&quot;:null}"/></g></g><path d="M227.36796,181.08276c0,-3.30884 2.68235,-5.9912 5.9912,-5.9912c3.30884,0 5.9912,2.68235 5.9912,5.9912c0,3.30884 -2.68235,5.9912 -5.9912,5.9912c-3.30884,0 -5.9912,-2.68235 -5.9912,-5.9912z" fill="#20ad00" stroke-width="0"/><path d="M241.89613,170.49121c0,-1.8395 2.13381,-4.28218 2.13381,-4.28218c0,0 2.83405,1.01504 4.66584,2.638c2.40433,2.13022 4.20875,4.9199 4.20875,4.9199c0,0 -2.91733,2.71548 -5.01721,2.71548c-3.30884,0 -5.9912,-2.68236 -5.9912,-5.9912z" fill="#20ad00" stroke-width="0"/><path d="M254.16856,183.40428c0.60682,1.99613 -0.41155,4.07345 -2.27461,4.63982c-1.86306,0.56637 -3.86529,-0.59268 -4.47212,-2.58882c-0.60682,-1.99613 0.41155,-4.07345 2.27461,-4.63982c1.86306,-0.56637 3.86529,0.59268 4.47212,2.58882z" fill="#20ad00" stroke-width="0"/><path d="M226.51756,189.36591c0,0 6.67815,0.957 13.54914,0.957c6.87099,0 13.85135,-0.85627 13.85135,-0.85627c0,0 -5.1671,4.18059 -14.05283,4.07985c-7.97859,-0.09045 -13.34767,-4.18059 -13.34767,-4.18059z" fill="#20ad00" stroke-width="0"/><path d="M240.22046,191.25587c4.75865,0 8.6163,-0.09092 8.6163,2.79496c0,2.88588 -3.85765,5.22535 -8.6163,5.22535c-4.75865,0 -8.6163,-2.33947 -8.6163,-5.22535c0,-2.88589 3.85765,-2.79496 8.6163,-2.79496z" fill="#ffffff" stroke-width="0"/></g></g></g></svg>