<svg version="1.1" xmlns="http://www.w3.org/2000/svg" xmlns:xlink="http://www.w3.org/1999/xlink" width="50.74355" height="56.74534" viewBox="0,0,50.74355,56.74534"><g transform="translate(-212.94175,-145.47217)"><g data-paper-data="{&quot;isPaintingLayer&quot;:true}" fill-rule="nonzero" stroke-linejoin="miter" stroke-miterlimit="10" stroke-dasharray="" stroke-dashoffset="0" style="mix-blend-mode: normal"><g><path d="M233.29252,191.74105c-0.92931,0.27467 -4.4238,-0.18465 -6.45633,-1.86319c-2.03253,-1.67853 -1.57358,-4.19481 -2.89357,-5.8583c-0.77077,-0.97135 -1.15315,-2.35381 -2.22267,-3.51877c-0.76211,-0.8301 -2.35556,-1.54977 -2.50002,-1.93156c-0.18937,-0.50053 1.81781,-1.39568 2.20835,-2.05077c0.77923,-1.30703 0.97652,-3.32175 1.02961,-5.20141c0.08028,-2.84278 3.26135,-3.70869 -0.00895,-5.13312c-0.92165,-0.40144 -1.69732,1.29854 -2.23157,2.3279c-0.72568,1.3982 -1.71471,0.93434 -2.29466,2.52434c-0.69993,1.91891 -0.95321,5.78526 -1.37989,5.86822c-0.48077,0.09348 -1.6501,-1.20654 -2.69936,-4.78545c-0.52165,-1.77926 -1.23117,-6.19184 -0.73167,-10.1535c0.49949,-3.96166 2.19751,-2.59141 3.43157,-5.38938c0.81387,-1.84528 1.61501,-6.11284 2.53201,-8.20865c1.37777,-3.14892 3.01705,-2.89008 5.35389,-2.89008c2.18812,0 5.15902,2.15488 6.81208,6.00942c1.77981,4.15013 2.40918,10.99033 0.64225,14.52005c-1.27348,2.544 -2.78085,5.44819 -3.60403,7.48421c-0.62718,1.55124 -0.73966,2.59852 -0.73966,2.59852l6.31373,1.0547z" data-paper-data="{&quot;index&quot;:null}" fill="#cccccc" stroke="none" stroke-width="0" stroke-linecap="butt"/><path d="M218.52452,162.94954c0,0.45581 -1.38232,0.21683 -1.90587,0.52489c-0.56898,0.33478 -0.30116,1.19733 -0.79651,1.19733c-0.95116,0 -0.74208,-0.77106 -0.74208,-1.72222c0,-0.95116 0.77106,-1.72223 1.72222,-1.72223c0.95115,0 1.72222,0.77107 1.72222,1.72223z" data-paper-data="{&quot;index&quot;:null}" fill="#a5a5a5" stroke="none" stroke-width="0" stroke-linecap="butt"/><g data-paper-data="{&quot;index&quot;:null}" stroke="none" stroke-width="0" stroke-linecap="butt"><path d="M225.66657,155.67757c0,4.14572 -1.75966,6.04181 -3.47862,6.04181c-1.71895,0 -2.74627,-1.89608 -2.74627,-6.04181c0,-4.14572 -0.08436,-7.28273 3.11245,-7.50648c2.80621,-0.19642 3.11245,3.36076 3.11245,7.50648z" fill="#a5a5a5"/><path d="M222.0056,156.04373c0,1.51673 -0.69461,2.50316 -1.40242,2.50316c-0.70781,0 -0.79534,-0.98643 -0.79534,-2.50316c0,-1.51672 0.08753,-2.50314 0.79534,-2.50314c0.70781,0 1.40242,0.98641 1.40242,2.50314z" fill="#ffffff"/></g><path d="M254.54235,198.1509c1.04165,-0.8232 2.01297,-2.48309 2.01297,-2.48309c0,0 2.0687,1.77275 3.13071,2.36217c1.96025,1.08793 4.04634,2.48221 3.7637,2.63628c-0.02335,0.63858 -3.4675,1.55125 -6.89441,1.55125c-3.42692,0 -6.89442,-1.20653 -6.89442,-1.20653c0,0 2.87922,-1.27775 4.88145,-2.86008z" data-paper-data="{&quot;index&quot;:null}" fill="#cccccc" stroke="none" stroke-width="0" stroke-linecap="butt"/><path d="M233.87278,195.27573c2.85802,2.25866 6.9679,4.08256 6.9679,4.08256c0,0 -4.9496,1.72222 -9.84127,1.72222c-4.89168,0 -10.92876,-0.18195 -10.96209,-1.09347c-0.40346,-0.21991 3.6951,-3.33095 6.49321,-4.8839c1.51594,-0.84135 4.46887,-3.37183 4.46887,-3.37183c0,0 1.38649,2.36937 2.87337,3.54443z" data-paper-data="{&quot;index&quot;:null}" fill="#cccccc" stroke="none" stroke-width="0" stroke-linecap="butt"/><path d="M246.5859,200.09639c-5.04021,0 -8.6027,-2.00251 -11.75626,-4.12375c-1.98704,-1.33659 -4.35149,-1.83021 -5.12262,-4.70057c-1.41871,-5.28082 0.9545,-6.79604 0.9545,-8.90589c0,-2.61224 -0.24792,-7.73743 -0.24792,-7.73743c0,0 1.64062,-1.8465 3.64491,-4.69214c3.5815,-5.08493 7.66087,-6.44354 14.31764,-5.26879c10.12845,1.78741 11.60542,11.70563 11.60542,22.30423c0,2.46295 -0.2004,7.45743 -0.2004,7.45743z" data-paper-data="{&quot;index&quot;:null}" fill="#a5a5a5" stroke="none" stroke-width="NaN" stroke-linecap="butt"/><g data-paper-data="{&quot;index&quot;:null}" fill="#cccccc" stroke="none" stroke-width="0" stroke-linecap="butt"><path d="M259.90777,190.92473l-22.29951,-24.79516l2.15079,-1.22238l20.44081,22.41792z"/><path d="M253.25246,199.57023l-22.63692,-24.95254l1.45257,-1.94738l22.76673,25.16023z"/></g><g data-paper-data="{&quot;index&quot;:null}" fill="#cccccc" stroke="none" stroke-width="0" stroke-linecap="butt"><path d="M229.72134,189.34241l21.61198,-23.76073l2.25373,1.0016l-22.28331,24.49884z"/><path d="M237.77752,197.21543l20.80415,-23.14964l0.8081,2.8852l-20.02987,22.00415z"/></g><path d="M256.27916,171.94886c1.24061,2.74811 0.60913,6.1767 0.60913,6.1767c0,0 -0.63185,-3.15479 -1.24708,-4.66491c-0.58074,-1.42543 -2.34677,-4.15637 -2.34677,-4.15637c0,0 2.34439,1.22614 2.98473,2.64458z" data-paper-data="{&quot;index&quot;:null}" fill="#ffffff" stroke="none" stroke-width="0" stroke-linecap="butt"/><path d="M261.93531,195.66779c0,0 -2.79565,-0.41831 -4.87803,0.07946c-2.21067,0.52844 -4.76593,3.04137 -7.7651,3.53338c-4.87331,0.79945 -10.425,-0.46342 -13.8968,-2.58483c-2.43759,-1.48946 -4.92086,-3.78634 -5.66075,-6.35086c-0.99801,-3.45917 0.25749,-7.40529 0.4141,-10.51364c0.15048,-2.98653 -0.26348,-5.39456 -0.26348,-5.39456" data-paper-data="{&quot;index&quot;:null}" fill="none" stroke="#ffffff" stroke-width="3.5" stroke-linecap="round"/></g></g></g></svg>