<svg version="1.1" xmlns="http://www.w3.org/2000/svg" xmlns:xlink="http://www.w3.org/1999/xlink" width="37.51952" height="50.04865" viewBox="0,0,37.51952,50.04865"><g transform="translate(-217.82564,-155.44241)"><g data-paper-data="{&quot;isPaintingLayer&quot;:true}" fill-rule="nonzero" stroke-linejoin="miter" stroke-miterlimit="10" stroke-dasharray="" stroke-dashoffset="0" style="mix-blend-mode: normal"><g><g data-paper-data="{&quot;index&quot;:null}" stroke="#000000"><path d="M238.13392,200.86371c0,0 -2.55428,3.52831 -9.4727,3.88861c-6.91842,0.3603 -10.68163,-3.10292 -10.68163,-3.10292l0.36591,-45.54716c0,0 6.98642,-0.20283 9.4899,1.6903c2.7717,2.09595 5.61768,10.33898 5.61768,10.33898c0,0 2.58246,-3.39531 4.56666,-3.41537c7.45126,-0.07531 7.20836,13.64923 7.20836,13.64923c0,0 3.44282,-3.12825 6.0655,-0.60331c3.13845,3.02149 1.11753,9.85593 1.11753,9.85593c0,0 1.66366,1.87157 2.07981,4.13091c0.39516,2.14534 0.4864,3.57618 -0.77591,5.23822c-4.07322,5.36305 -15.58111,3.87658 -15.58111,3.87658z" fill="#ffffff" stroke-width="0" stroke-linecap="butt"/><path d="M218.57564,156.2832c0,0 6.66772,-0.73335 9.48929,1.96847c4.30886,4.12597 4.21429,9.85699 4.84613,10.05793c0.73689,0.23434 1.9063,-2.60833 4.9469,-3.40889c5.62235,-1.48032 6.99371,6.54182 7.25901,12.34972c0.1072,2.3468 1.7056,-1.82714 4.83221,-0.52055c2.0702,0.86512 3.3593,3.62144 2.94979,6.36046c-0.31261,2.0909 -0.75209,4.06552 -0.63993,4.24143c2.51713,3.94804 2.91959,5.71774 1.59399,8.91994c-2.53393,6.12109 -15.92336,4.69127 -15.92336,4.69127c0,0 -3.12109,3.41785 -9.85441,3.79808c-6.43751,0.36352 -9.2147,-2.54565 -9.2147,-2.54565" fill="none" stroke-width="1.5" stroke-linecap="round"/></g><path d="M225.79562,168.93319c-0.28135,0.55101 -3.15599,-2.34636 -4.05332,-2.87328c-1.03776,-0.60937 -3.75283,-2.11916 -3.16609,-2.43708c0.59218,-0.32089 2.82353,0.10789 4.20539,1.12434c1.38186,1.01645 3.25191,3.72015 3.01403,4.18603z" fill="#6ff1ff" stroke="none" stroke-width="0" stroke-linecap="butt"/><path d="M217.91273,198.80993v-4.17591c0,0 5.74731,3.1952 9.45399,2.2631c4.77874,-1.2017 8.3237,-3.3535 8.74361,-2.0614c0.29917,0.92058 -3.52053,5.27698 -8.63786,5.61518c-4.72421,0.31222 -9.55974,-1.64097 -9.55974,-1.64097z" data-paper-data="{&quot;index&quot;:null}" fill="#6ff1ff" stroke="none" stroke-width="0" stroke-linecap="butt"/><path d="M238.01614,191.96704c0.34131,0.53093 -0.13521,1.44555 -1.06435,2.04286c-0.92913,0.59731 -1.95904,0.6511 -2.30036,0.12017c-0.34132,-0.53093 0.42092,-0.58841 1.35006,-1.18572c0.92914,-0.5973 1.67333,-1.50824 2.01465,-0.97731z" fill="#6ff1ff" stroke="none" stroke-width="0" stroke-linecap="butt"/></g></g></g></svg>