<svg version="1.1" xmlns="http://www.w3.org/2000/svg" xmlns:xlink="http://www.w3.org/1999/xlink" width="41.35998" height="40.91596" viewBox="0,0,41.35998,40.91596"><g transform="translate(-219.19954,-159.46611)"><g data-paper-data="{&quot;isPaintingLayer&quot;:true}" fill-rule="nonzero" stroke="none" stroke-linecap="butt" stroke-linejoin="miter" stroke-miterlimit="10" stroke-dasharray="" stroke-dashoffset="0" style="mix-blend-mode: normal"><path d="M219.32636,200.38207v-6.44765h41.11926v6.44765z" fill="#732e08" stroke-width="0"/><g data-paper-data="{&quot;index&quot;:null}"><path d="M249.84923,198.58889c-6.7164,-0.09554 -10.23452,-3.09062 -10.23452,-3.09062c0,0 -3.67144,2.9862 -9.60408,3.16201c-6.51103,0.19295 -10.69719,-3.60584 -10.69719,-3.60584v-35.42408h41.11926v35.42408c0,0 -6.3454,3.59473 -10.58347,3.53445z" fill="#a5e62a" stroke-width="0"/><g fill="none" stroke-width="1" font-family="sans-serif" font-weight="normal" font-size="12" text-anchor="start"/></g><path d="M219.3542,160.94554v-1.47943h41.20532v1.47943z" data-paper-data="{&quot;index&quot;:null}" fill="#21370a" stroke-width="0"/><g data-paper-data="{&quot;index&quot;:null}" fill="#21370a" stroke-width="0"><path d="M239.65103,194.43723c0,0 2.46789,4.01724 10.0166,3.84653c7.00966,-0.15852 10.73724,-3.84653 10.73724,-3.84653v1.77532c0,0 -3.51187,3.55064 -10.4184,3.55064c-7.96931,0 -10.33543,-3.55064 -10.33543,-3.55064z"/><path d="M239.72015,196.21255c0,0 -3.0456,3.55063 -10.77701,3.55063c-6.70037,0 -9.7436,-3.55063 -9.7436,-3.55063v-1.77532c0,0 3.2525,3.68801 10.05292,3.84652c7.32337,0.17071 10.46769,-3.84652 10.46769,-3.84652z" data-paper-data="{&quot;index&quot;:null}"/></g></g></g></svg>