<svg version="1.1" xmlns="http://www.w3.org/2000/svg" xmlns:xlink="http://www.w3.org/1999/xlink" width="43.91205" height="50.41566" viewBox="0,0,43.91205,50.41566"><g transform="translate(-216.12855,-155.45998)"><g data-paper-data="{&quot;isPaintingLayer&quot;:true}" fill-rule="nonzero" stroke-linejoin="miter" stroke-miterlimit="10" stroke-dasharray="" stroke-dashoffset="0" style="mix-blend-mode: normal"><path d="M259.04724,192.26326c0.28227,0.56455 -1.14726,0.99424 -2.48806,1.66464c-1.3408,0.6704 -2.08513,1.32764 -2.3674,0.76309c-0.28227,-0.56455 0.57583,-1.56567 1.91663,-2.23607c1.3408,-0.6704 2.65656,-0.75621 2.93883,-0.19166z" fill="#6ff1ff" stroke="none" stroke-width="0" stroke-linecap="butt"/><g><g stroke="#000000"><path d="M219.99184,193.4747c0,0 -2.0689,-1.96353 -2.75506,-3.86333c-0.79194,-2.19269 -0.21637,-4.39537 -0.21637,-4.94113c0,-1.00067 2.98607,-0.84713 3.33663,-1.81227c0.50795,-1.39846 1.1955,-3.88903 2.91611,-5.14703c2.75736,-2.01601 10.11781,-2.31525 10.11781,-2.31525l3.33423,-4.09942c0,0 -1.40907,-4.31551 1.60128,-8.18671c0.71911,-0.92474 2.5547,-2.80452 3.93111,-3.40633c1.46012,-0.63841 3.33227,0.29403 4.52835,-0.46421c2.80223,-1.77647 3.1032,-3.21177 5.24291,-3.21177c4.00669,0 7.57896,0 7.57896,0v45.99524l-2.52982,0.12415c0,0 -4.52173,2.91693 -8.64207,3.20595c-1.80794,0.12681 -6.59608,-2.27099 -7.27953,-2.23946c-2.34585,0.10822 -7.84687,-0.22896 -9.31003,-0.56404c-4.40736,-1.00933 -4.1064,-4.34457 -5.89379,-6.10032c-2.22052,-2.18122 -5.96071,-2.97408 -5.96071,-2.97408z" fill="#ffffff" stroke-width="0" stroke-linecap="butt"/><path d="M259.09275,202.57389c0,0 -0.57294,0.00217 -1.35576,-0.15177c-0.39888,-0.07844 -0.85226,-0.56759 -1.31209,-0.35611c-1.38887,0.63876 -2.86628,3.03888 -6.19835,3.05963c-7.10002,0.04422 -7.97284,-2.26011 -9.53421,-2.13743c-4.6421,0.36479 -4.41177,1.15339 -8.99199,-0.18937c-4.80078,-1.40743 -4.01648,-4.28788 -6.44337,-7.1159c-1.12728,-1.3136 -3.17284,-1.04302 -4.88367,-2.31281c-3.0289,-2.24807 -3.84683,-6.63932 -3.36695,-8.20994c0.47987,-1.57062 2.89495,-0.74743 3.53614,-2.35183c2.27062,-5.68162 6.76275,-8.07826 12.86133,-7.58446c0.82391,0.06671 2.54148,-2.90286 2.86109,-3.89941c0.72603,-2.2638 -0.4097,-5.48919 1.82913,-8.09106c1.15578,-1.34321 2.30416,-3.02506 4.49326,-3.93315c0.59706,-0.24767 3.36283,0.68919 3.88351,0.40711c2.45729,-1.33124 2.39785,-2.4333 4.9506,-3.26017c1.08343,-0.35093 1.92559,-1.17381 3.45706,-1.1678c2.07695,0.00814 4.31622,0.93056 4.31622,0.93056" fill="none" stroke-width="1.5" stroke-linecap="round"/></g><g fill="#6ff1ff" stroke="none" stroke-width="0" stroke-linecap="butt"><path d=""/><path d="M243.15304,164.52566c1.70312,-0.82489 7.79119,-1.58664 8.11675,-0.97834c0.38504,0.71944 -5.08526,2.50187 -6.31958,3.08357c-1.42746,0.67271 -4.35853,2.92034 -4.26556,2.04323c0.09383,-0.88525 0.76527,-3.32357 2.46839,-4.14846z"/></g><path d="M227.6317,192.97019c0,0 3.79788,4.7204 7.74757,5.45066c1.56855,0.29001 0.81281,-2.38012 3.48455,-3.03257c0.92379,-0.22559 2.30038,1.22051 3.1038,1.62154c0.92408,0.46128 3.13177,1.59217 5.12538,1.1131c3.42941,-0.82411 3.68347,0.95738 6.9128,-0.21108c1.45115,-0.52507 2.28251,-1.97093 3.24754,-2.91457c1.18251,-1.1563 2.78726,-1.55917 2.78726,-1.55917v4.21699c0,0 -0.64211,0.3026 -1.36936,0.7448c-1.86141,1.13181 -5.51417,3.17816 -9.51612,3.40603c-1.53844,0.0876 -2.60292,-0.38975 -4.29597,-0.95156c-1.62109,-0.53793 -3.87392,-1.1533 -5.22259,-1.42433c-2.02072,-0.40608 -3.27683,0.65516 -4.48054,0.42148c-3.79928,-0.73755 -7.5243,-6.88134 -7.5243,-6.88134z" fill="#6ff1ff" stroke="none" stroke-width="0" stroke-linecap="butt"/></g></g></g></svg>