<svg version="1.1" xmlns="http://www.w3.org/2000/svg" xmlns:xlink="http://www.w3.org/1999/xlink" width="41.41938" height="41.66159" viewBox="0,0,41.41938,41.66159"><g transform="translate(-219.27957,-158.4118)"><g data-paper-data="{&quot;isPaintingLayer&quot;:true}" fill-rule="nonzero" stroke-linejoin="miter" stroke-miterlimit="10" stroke-dasharray="" stroke-dashoffset="0" style="mix-blend-mode: normal"><g data-paper-data="{&quot;index&quot;:null}"><path d="M220.33802,200.0399c0,0 -0.08802,-19.1943 -0.08802,-21.11133c0,-4.62352 0.4872,-9.81866 4.01085,-13.32935c1.90913,-1.90211 4.5783,-2.61168 6.83383,-3.73271c3.27833,-1.62938 5.90532,-3.23794 5.90532,-3.23794c0,0 7.9238,2.32871 10.76457,3.42331c2.85879,1.10154 6.77886,1.77617 8.59219,4.06176c2.6271,3.3113 3.39324,8.28254 3.39324,12.81493c0,0.72554 -0.11621,5.76824 -0.23359,10.67661c-0.11977,5.00812 -0.24075,10.46821 -0.24075,10.46821z" fill="#a5e62a" stroke="none" stroke-width="0" stroke-linecap="butt"/><path d="M220.5,199.5c0,0 -0.81463,-4.88022 -0.71139,-10.69843c0.07325,-4.1281 1.00583,-8.7284 1.24506,-12.3928c0.20143,-2.45658 0.18941,-6.33776 2.61428,-9.7624c1.55787,-2.20018 2.85077,-2.61192 6.26178,-3.9364c1.71771,-0.66698 3.40055,-3.0694 5.93731,-3.79817c1.27208,-0.36545 3.35773,0.5882 4.56725,0.5882c1.94349,0 3.6896,1.01711 5.25773,1.41135c4.77523,1.20051 9.49994,2.65212 11.52169,5.81254c2.11206,3.3016 1.42042,8.35848 1.74933,11.69636c0.33713,3.42121 1.25009,7.88381 1.25591,11.18028c0.01049,5.94514 -1.12751,9.89947 -1.12751,9.89947" fill="none" stroke="#000000" stroke-width="1" stroke-linecap="round"/></g></g></g></svg>