<svg version="1.1" xmlns="http://www.w3.org/2000/svg" xmlns:xlink="http://www.w3.org/1999/xlink" width="86.77064" height="84.84106" viewBox="0,0,86.77064,84.84106"><g transform="translate(-179.79423,-116.32759)"><g data-paper-data="{&quot;isPaintingLayer&quot;:true}" fill-rule="nonzero" stroke="none" stroke-width="0" stroke-linecap="butt" stroke-linejoin="miter" stroke-miterlimit="10" stroke-dasharray="" stroke-dashoffset="0" style="mix-blend-mode: normal"><g><g><path d="M220.72918,197.91388c0,-3.65701 7.21074,-9.37938 16.12597,-9.76434c6.85232,-0.29589 11.68762,6.10733 11.68762,10.35612c0,0.40223 -6.90653,2.663 -12.87118,2.663c-5.96465,0 -14.9424,-2.85255 -14.9424,-3.25478z" fill="#faa428"/><path d="M218.28812,199.02346c-0.88767,-3.36503 3.52071,-6.43559 5.39998,-6.43559c1.87927,0 1.91154,1.14586 1.91154,3.10684c0,1.96098 0.18964,3.55067 -1.68963,3.55067c-1.87928,0 -5.61265,-0.18685 -5.6219,-0.22192z" fill="#fafafa"/></g><path d="M208.94516,155.28128c-0.81974,0.2156 -2.38151,0.41144 -2.38151,0.41144c0,0 -4.63436,-3.41225 -8.24635,-5.99074c-1.77869,-1.26975 -7.47888,-2.83882 -7.47888,-2.83882l-3.90077,-10.1241c0,0 1.18788,-2.46563 2.73861,-3.46752c1.54824,-1.00027 9.10971,-6.11246 9.10971,-6.11246c0,0 -0.14184,-2.99822 1.58774,-4.48589c1.72806,-1.48635 5.32635,-1.46212 8.0125,-1.5895c8.66989,-0.41114 13.98025,8.96831 13.98025,17.45174c0,8.48343 -4.60918,14.4281 -13.4213,16.74585z" fill="#20ad00"/><g fill="#fafafa"><path d="M193.57728,146.21301c1.07747,0 0.43554,1.14257 0.42189,2.21995c-0.02163,1.70669 0.79326,3.12876 0.48072,3.25834c-0.96445,0.39985 -2.1656,-0.39835 -3.20805,-1.69352c-0.75855,-0.94244 -1.71173,-3.36921 -1.71173,-3.36921c0,0 2.7166,-0.41556 4.01717,-0.41556z"/><path d="M185.47589,144.62663c0,0 -0.88227,1.70009 -0.81878,2.54952c0.11298,1.51165 0.78099,3.4696 0.19322,3.4696c-0.49555,0 -1.5055,-1.58503 -2.33014,-3.55395c-0.70308,-1.6787 -1.27146,-4.89596 -1.27146,-4.89596z"/><path d="M199.60967,144.27368c0,0 -0.57276,3.6016 -0.83114,3.87864c-0.46961,0.50354 -2.76604,-2.42194 -2.76604,-2.42194z"/><path d="M203.90424,141.85652c0,0 -0.57276,3.6016 -0.83114,3.87864c-0.46961,0.50354 -2.3549,-2.21637 -2.3549,-2.21637z"/><path d="M199.32942,159.45813c0,0 -1.80578,-3.1684 -1.77746,-3.54617c0.05146,-0.68661 3.22367,0.25642 3.22367,0.25642z" data-paper-data="{&quot;index&quot;:null}"/><path d="M203.06652,156.46545c0,0 -0.92823,-3.52675 -0.80351,-3.88446c0.22667,-0.65015 3.04869,1.07856 3.04869,1.07856z" data-paper-data="{&quot;index&quot;:null}"/><path d="M205.35914,152.94008c0,0 -0.92823,-3.52675 -0.80351,-3.88446c0.22667,-0.65015 3.04869,1.07856 3.04869,1.07856z" data-paper-data="{&quot;index&quot;:null}"/></g><g><path d="M199.48046,130.05637c0.46281,2.90199 -0.12295,6.66759 -1.95829,8.52898c-1.50074,1.52203 -2.38853,2.57277 -5.18476,1.80196c-2.8604,-0.78849 -4.46348,-5.28145 -4.46348,-5.28145c0,0 1.33617,-2.28054 3.94459,-4.51237c3.71204,-3.17611 6.61082,-3.49589 6.61082,-3.49589c0,0 0.64723,0.42622 1.05112,2.95877z" fill="#fafafa"/><path d="M192.82803,129.65399c0,0 1.23911,0.90621 1.24441,3.13019c0.00475,1.99144 -0.58759,3.38766 -2.02583,3.5319c-2.89947,0.29081 -3.33726,-2.51509 -3.33726,-2.51509c0,0 1.52078,-2.00201 2.01212,-2.52083c0.65237,-0.68885 2.10655,-1.62617 2.10655,-1.62617z" fill="#20ad00"/></g><g><path d="M208.76524,121.17743c0,0 2.08087,0.10914 4.25658,-2.26281c2.58858,-2.82205 4.40246,-2.16604 6.19189,-2.41646c1.046,-0.14639 5.46281,-0.00836 5.28863,0.95673c-0.1954,1.08263 -3.6329,2.04455 -5.12252,3.63818c-0.96465,1.03201 -0.86565,2.30318 -1.27987,3.24527c-0.62331,1.41767 -1.4813,2.31409 -1.4813,2.31409c0,0 -1.94514,2.15828 -4.92629,0.09812c-2.55353,-1.76464 -2.92711,-5.57312 -2.92711,-5.57312z" fill="#faa428"/><path d="M208.6302,121.05645c0,0 2.08086,0.10913 4.25657,-2.26282c2.58858,-2.82205 4.40246,-2.16603 6.19189,-2.41645c1.046,-0.14638 5.46281,-0.00836 5.28863,0.95673c-0.72764,-0.18163 -2.65345,0.37977 -3.37883,0.34235c-0.96609,-0.04984 -1.6104,-0.62064 -2.36036,-0.1788c-0.48063,0.28317 -0.68155,1.04718 -1.08071,1.4742c-0.35078,0.37526 -0.93068,1.72138 -1.73628,2.08238c-0.65467,0.29336 -1.58925,-0.42554 -1.61777,0.06687c-0.05,0.86322 -0.26233,1.66144 -0.54645,2.36695c-0.31585,0.78431 -0.6423,0.32413 -1.01118,0.84124c-0.53631,0.75181 -1.0753,2.3109 -1.07841,2.30047c-2.55353,-1.76464 -2.92711,-5.57312 -2.92711,-5.57312z" fill="#fafafa"/></g><g><path d="M192.8332,142.60784c1.1089,0.45041 3.19312,0.39331 4.01687,0.22925c1.06032,-0.21118 0.82034,-0.68715 2.02918,-1.40895c1.13727,-0.67906 3.45433,-1.26583 4.18016,-2.1349c1.79463,-2.14878 1.60301,-4.33505 2.81275,-4.87079c0.80518,-0.35659 2.34509,1.10301 2.92146,2.75981c0.13235,0.38046 0.13609,4.19007 -0.33784,4.41947c-0.16861,0.08162 -0.68158,-0.19391 -0.95566,-0.87173c-0.31043,-0.76771 -0.3898,-1.97606 -0.69872,-2.38263c-0.80842,-1.06395 -0.82907,0.14918 -1.39771,1.6488c-0.45573,1.20185 -1.40649,2.5877 -2.32824,3.13288c-1.20081,0.71023 -1.84871,1.05841 -3.31184,1.66762c-0.91981,0.38299 -2.01681,1.14353 -3.19984,1.56462c-1.62338,0.57784 -4.07533,0.75194 -5.78711,0.5808c-5.6949,-0.56937 -10.02107,-2.28251 -10.87805,-7.94127c-0.34619,-2.28594 0.22153,-4.13719 0.92833,-5.46131c0.65163,-1.22075 2.77481,-2.50748 4.2072,-2.61886c1.43238,-0.11139 1.62376,1.07332 2.02041,1.79995c0.57895,1.06058 1.6759,2.47712 2.11753,4.19949c0.44163,1.72236 1.57969,4.84233 3.66113,5.68777z" fill="#faa428"/><path d="M199.53376,160.61941c-2.8297,-5.38805 5.67945,-3.66727 6.78763,-12.05151c0.44837,-3.39223 0.63811,-6.72283 0.97329,-8.91888c0.24187,-1.58464 0.55945,-2.57853 1.10457,-2.57853c1.30057,0 1.8008,6.43772 1.8008,12.32855c0,2.549 -0.17421,6.65739 -2.13291,9.19479c-2.56793,3.32663 -7.20733,4.55047 -8.53336,2.02558z" fill="#faa428"/><path d="M183.40627,132.4195c0.76504,0 1.38523,0.55817 1.38523,1.24671c0,0.68854 -0.62019,0.59203 -1.38523,0.59203c-0.76504,0 -1.38523,0.09651 -1.38523,-0.59203c0,-0.68854 0.62019,-1.24671 1.38523,-1.24671z" fill="#000000"/></g><path d="M251.24741,143.10359c5.09315,5.17442 10.97307,13.31519 11.9487,22.73554c0.76015,7.33983 4.07825,28.03134 -9.25075,28.52314c-9.21884,0.34015 -20.19854,-0.19405 -26.72438,-7.45199c-3.6262,-4.033 -1.58181,-9.33493 -2.7371,-14.93189c-1.89238,-9.16789 -14.34858,-17.50664 -14.34858,-17.50664l11.43244,-19.21149c0,0 20.8962,-1.08031 29.67966,7.84332z" fill="#20ad00"/><g><path d="M231.41175,196.8925c0,-4.23458 8.34955,-10.8607 18.67281,-11.30647c7.93454,-0.34262 13.5335,7.07189 13.5335,11.99171c0,0.46576 -7.9973,3.08358 -14.90398,3.08358c-6.90667,0 -17.30232,-3.30306 -17.30232,-3.76882z" fill="#faa428"/><path d="M228.58514,198.17734c-1.02786,-3.89648 4.07675,-7.45199 6.25282,-7.45199c2.17608,0 4.1971,1.32682 4.1971,3.59751c0,2.27068 -1.76406,4.11144 -3.94013,4.11144c-2.17608,0 -6.49907,-0.21636 -6.50979,-0.25697z" fill="#fafafa"/><path d="M237.32197,200.74699c-1.02786,-3.89648 4.07675,-7.45199 6.25282,-7.45199c2.17607,0 4.1971,1.32682 4.1971,3.59751c0,2.27068 -1.76407,4.11144 -3.94014,4.11144c-2.17607,0 -6.49906,-0.21636 -6.50978,-0.25697z" fill="#fafafa"/></g><g><path d="M202.861,167.14633c0.4071,-2.33338 2.78469,-2.76571 5.12684,-3.11886c4.13506,-0.62348 9.13225,4.0814 11.73108,2.59088c5.64511,-3.23764 3.85969,-10.42635 6.08243,-10.42635c3.97371,0 6.6811,0.1453 6.6811,5.39627c0,5.25096 -3.99777,15.02138 -12.33433,18.75846c-8.33656,3.73708 -20.8984,-1.09781 -16.95971,-9.76468c0.41129,-0.90502 -0.54269,-2.20183 -0.32741,-3.43572z" fill="#faa428"/><g><path d="M207.8746,173.10415c0.68806,-7.74257 4.6288,-8.94622 4.6288,-8.94622c0,0 2.35337,0.68402 2.1842,1.15634c-0.26642,0.74382 -3.84162,2.02849 -4.39445,8.13086c-0.60902,6.72264 2.21034,7.4288 2.21025,8.18643c-0.00012,1.05483 -2.1842,0.38545 -2.1842,0.38545c0,0 -3.15192,-0.95371 -2.4446,-8.91286z" fill="#000000"/><path d="M208.8612,164.46919c0.12513,-0.10439 3.03833,0.3549 3.03833,1.77774c0,0.85686 -0.7525,1.55149 -1.68077,1.55149c-0.92827,0 -1.73597,-3.01351 -1.35755,-3.32923z" fill="#fafafa"/><path d="M209.44396,170.6101c0.56357,1.0534 0.23217,2.32907 -0.7402,2.84928c-1.61464,0.86383 -3.9045,-2.16323 -3.862,-2.3686c0.12853,-0.6211 4.03864,-1.53407 4.60221,-0.48067z" data-paper-data="{&quot;index&quot;:null}" fill="#fafafa"/><path d="M205.248,178.3772c-0.17299,-0.49298 2.19931,-2.79758 3.04436,-2.29333c0.84505,0.50426 1.15276,1.54539 0.68729,2.32544c-0.77292,1.29529 -3.67446,0.13089 -3.73166,-0.03211z" data-paper-data="{&quot;index&quot;:null}" fill="#fafafa"/><path d="M210.03931,179.8506c0.75222,0.17998 1.22734,0.88877 1.0612,1.58313c-0.27588,1.153 -2.72565,0.96035 -2.8068,0.8515c-0.24543,-0.32922 0.99338,-2.61461 1.7456,-2.43463z" data-paper-data="{&quot;index&quot;:null}" fill="#fafafa"/></g><g><path d="M230.18966,171.30899c0,0 -1.51508,1.34485 -5.45895,-1.58946c-3.83655,-2.85446 -3.19815,-5.30763 -3.19815,-5.30763c0,0 1.11653,-1.01318 1.3096,-0.77238c0.30406,0.37922 -0.17414,2.66689 2.84628,4.92218c3.32743,2.48452 4.60565,1.23423 5.00272,1.47831c0.55283,0.33982 -0.50149,1.26898 -0.50149,1.26898z" fill="#000000"/><path d="M220.5226,166.42117c-0.01441,-0.09921 1.16464,-1.4782 1.9104,-1.01991c0.44912,0.27599 0.57081,0.89414 0.27183,1.38068c-0.29898,0.48655 -2.13863,-0.06074 -2.18223,-0.36077z" fill="#fafafa"/><path d="M223.92898,168.09367c0.73364,0.0439 1.29553,0.62848 1.255,1.3057c-0.0673,1.12453 -2.39143,1.34974 -2.48539,1.26131c-0.28415,-0.26742 0.49675,-2.61092 1.23039,-2.56701z" data-paper-data="{&quot;index&quot;:null}" fill="#fafafa"/><path d="M227.86729,170.8491c0.42996,0.82231 -1.11491,1.96808 -1.21877,1.94556c-0.31411,-0.06811 -0.75794,-2.05382 -0.22145,-2.33433c0.53648,-0.28051 1.18129,-0.10645 1.44022,0.38877z" data-paper-data="{&quot;index&quot;:null}" fill="#fafafa"/><path d="M229.67785,172.45701c-0.2516,0.0226 -1.05045,-1.36281 -0.71383,-1.69911c0.33663,-0.33629 0.86116,-0.35702 1.17159,-0.04629c0.51547,0.51597 -0.37455,1.73794 -0.45775,1.74541z" data-paper-data="{&quot;index&quot;:null}" fill="#fafafa"/></g></g><g><g><path d="M266.35932,160.0462c0.0294,0.42321 -3.51815,4.74849 -3.62232,4.66939c-2.20417,-1.67377 -3.43498,-4.3205 -1.58267,-6.04239c0.27595,-0.25651 5.19884,1.28437 5.20499,1.373z" fill="#faa428"/><path d="M266.35933,160.04619c0.09128,0.05167 -1.73247,0.58803 -3.11689,1.3026c-1.41237,0.729 -2.39086,1.62425 -2.80024,0.41709c-0.37429,-1.10369 -0.22921,-2.21762 0.71213,-3.09268c0.27595,-0.25652 5.19884,1.28436 5.20499,1.37299z" fill="#fafafa"/></g><g><path d="M238.58538,133.92169c0.64418,0.31498 3.9727,9.16523 3.76882,9.25075c-4.31389,1.80964 -9.2282,1.37181 -10.18105,-2.79538c-0.14196,-0.62082 6.27733,-6.52133 6.41223,-6.45537z" fill="#faa428"/><path d="M238.58536,133.92169c0.15283,-0.08988 -0.60503,3.03267 -0.73046,5.66305c-0.12796,2.68349 0.35439,4.8727 -1.75844,4.4506c-1.93172,-0.38592 -3.43908,-1.54052 -3.92332,-3.65829c-0.14195,-0.62082 6.27733,-6.52133 6.41223,-6.45537z" fill="#fafafa"/></g><g><path d="M253.94191,140.01955c0.33875,0.49639 -0.90367,8.32287 -1.08763,8.30069c-3.89244,-0.46922 -7.29103,-2.82447 -6.25844,-6.25503c0.15383,-0.51107 7.27513,-2.1496 7.34607,-2.04565z" fill="#faa428"/><path d="M246.59583,142.06521c0.15383,-0.51107 7.27513,-2.1496 7.34607,-2.04565c0.14859,-0.00215 -1.69737,1.95855 -2.87868,3.82277c-1.20516,1.90186 -1.7609,3.69654 -3.12516,2.51357c-1.24732,-1.08156 -1.86699,-2.54727 -1.34223,-4.29068z" fill="#fafafa"/></g><g><path d="M261.13693,149.78423c0.33875,0.49639 -0.90367,8.32287 -1.08763,8.30069c-3.89244,-0.46922 -7.29103,-2.82447 -6.25844,-6.25503c0.15383,-0.51107 7.27513,-2.1496 7.34607,-2.04565z" fill="#faa428"/><path d="M253.79086,151.82986c0.15383,-0.51107 7.27513,-2.1496 7.34607,-2.04565c0.14859,-0.00215 -1.69737,1.95855 -2.87868,3.82277c-1.20516,1.90186 -1.7609,3.69654 -3.12516,2.51357c-1.24733,-1.08156 -1.86699,-2.54727 -1.34223,-4.29068z" fill="#fafafa"/></g><g><path d="M245.2051,148.24244c0.33875,0.49639 -0.90367,8.32287 -1.08763,8.30069c-3.89244,-0.46922 -7.29103,-2.82447 -6.25844,-6.25503c0.15383,-0.51107 7.27514,-2.1496 7.34607,-2.04565z" fill="#faa428"/><path d="M237.85903,150.28808c0.15383,-0.51107 7.27513,-2.1496 7.34607,-2.04565c0.14859,-0.00215 -1.69737,1.95855 -2.87868,3.82277c-1.20516,1.90186 -1.7609,3.69654 -3.12516,2.51357c-1.24732,-1.08156 -1.86699,-2.54727 -1.34223,-4.29068z" fill="#fafafa"/></g><g><path d="M251.37225,162.11857c0.33875,0.49639 -0.90367,8.32287 -1.08763,8.30069c-3.89244,-0.46922 -7.29103,-2.82447 -6.25844,-6.25503c0.15383,-0.51107 7.27513,-2.1496 7.34607,-2.04565z" fill="#faa428"/><path d="M244.02618,164.1642c0.15383,-0.51107 7.27513,-2.1496 7.34607,-2.04565c0.14859,-0.00215 -1.69737,1.95855 -2.87868,3.82277c-1.20516,1.90186 -1.7609,3.69654 -3.12516,2.51357c-1.24732,-1.08156 -1.86699,-2.54727 -1.34223,-4.29068z" fill="#fafafa"/></g><g><path d="M266.56297,171.38521c-0.15479,0.70435 -5.88823,5.35895 -5.96575,5.16206c-1.64032,-4.16593 -1.80174,-9.26299 0.95546,-10.82508c0.41076,-0.23271 5.04271,5.51553 5.01029,5.66302z" fill="#faa428"/><path d="M266.56297,171.38521c0.07571,0.14397 -2.12821,-0.19367 -3.9367,0.04752c-1.84499,0.24606 -3.29517,1.04803 -3.20483,-1.17624c0.0826,-2.03362 0.73003,-3.74045 2.13124,-4.5343c0.41076,-0.23271 5.04271,5.51553 5.01029,5.66302z" fill="#fafafa"/></g><g><path d="M253.73671,175.08376c0.33629,-0.16988 4.63832,2.67648 4.61964,2.76333c-0.08919,0.41475 -4.69759,3.58584 -4.77572,3.48094c-1.6532,-2.21964 -2.10128,-5.10397 0.15608,-6.24428z" fill="#faa428"/><path d="M258.35635,177.84708c0.07336,0.07497 -1.82761,0.08422 -3.35594,0.3866c-1.55918,0.30848 -2.74766,0.89708 -2.80601,-0.37628c-0.05334,-1.16421 0.39512,-2.19414 1.54231,-2.77365c0.33629,-0.16988 4.63832,2.67648 4.61964,2.76333z" fill="#fafafa"/></g><path d="M222.47672,134.2297c0.91568,-1.43188 1.46346,-1.27808 2.55147,-1.12794c1.08801,0.15014 2.16469,-0.21511 2.40776,1.81227c0.24307,2.02738 0.42653,5.82737 0.05911,8.7233c-0.3856,3.03922 -3.39358,5.40942 -4.88525,6.89791c-0.91705,0.9151 -1.48573,2.01511 -0.32717,2.31322c10.45821,2.69097 10.01074,3.42699 12.7291,8.2912c3.86759,6.92061 -0.01489,14.13245 8.21045,21.83596c3.36487,3.1514 18.16943,1.35257 20.70891,3.38179c0.47688,0.38107 -0.00646,1.67061 -0.91756,3.03688c-0.4934,0.73988 -2.50331,3.23596 -2.69837,3.4241c-0.3509,0.33846 -12.00274,-0.84919 -16.70844,-4.4598c-15.42987,-11.8391 -8.35497,-19.77467 -12.74296,-27.09832c-2.3344,-3.89618 -10.03706,-4.80544 -10.75409,-4.95892c-2.12998,-0.45593 -4.08385,-0.94537 -3.76691,-3.56746c0.56553,-4.67884 5.39627,-5.03 5.39627,-9.71329c0,-2.67008 -0.47674,-6.89185 0.73769,-8.79092z" fill="#fafafa"/></g></g></g></g></svg>