<svg version="1.1" xmlns="http://www.w3.org/2000/svg" xmlns:xlink="http://www.w3.org/1999/xlink" width="112.66618" height="112.66618" viewBox="0,0,112.66618,112.66618"><g transform="translate(-183.8346,-123.66691)"><g data-paper-data="{&quot;isPaintingLayer&quot;:true}" fill-rule="nonzero" stroke-linejoin="miter" stroke-miterlimit="10" stroke-dasharray="" stroke-dashoffset="0" style="mix-blend-mode: normal"><path d="M183.8346,236.33309v-112.66618h112.66618v112.66618z" data-paper-data="{&quot;index&quot;:null}" fill="none" stroke="none" stroke-width="0" stroke-linecap="butt"/><path d="M242.19254,199.02114c-2.46054,0.87002 -4.8693,0.4565 -5.55416,-0.07873c-0.42023,-0.32841 -3.44039,-4.30916 -2.63759,-6.41809c0.75293,-1.97792 8.29529,-2.04568 8.5373,-1.52322c0.30538,0.6593 -0.09117,2.25639 0.76037,2.96824c0.85154,0.71185 3.90321,0.58629 3.82396,1.8959c-0.03156,0.52159 -2.5099,2.3002 -4.92989,3.15589z" data-paper-data="{&quot;index&quot;:null}" fill="#dc570f" stroke="none" stroke-width="0" stroke-linecap="butt"/><path d="M248.18743,185.06659c-5.94921,10.68451 -15.18708,8.54555 -16.44462,4.7854c-1.65035,-0.60182 -5.53184,-2.10821 -5.53184,-2.10821c0,0 -4.35906,-6.88496 -0.24225,-17.14791c4.3653,-11.13122 13.11726,-12.63454 19.00865,-10.48616c2.83251,1.03292 3.63212,4.41607 4.54997,8.42678c0.9912,4.33123 0.97566,12.37145 -1.3399,16.5301z" data-paper-data="{&quot;index&quot;:null}" fill="#148382" stroke="none" stroke-width="0" stroke-linecap="butt"/><path d="M249.12342,166.1843c-4.56136,0 -10.1406,-0.55277 -11.73385,-4.18272c-0.49477,-1.12724 0.91002,-4.36943 0.91002,-5.65714c0,-5.4344 4.846,-9.83985 10.82384,-9.83985c3.2487,0 8.64802,2.89026 10.45112,5.17668c1.51472,1.92075 -0.29803,3.02058 -0.29803,5.50161c0,5.4344 -4.17525,9.00141 -10.15309,9.00141z" data-paper-data="{&quot;index&quot;:null}" fill="#148382" stroke="none" stroke-width="0" stroke-linecap="butt"/><path d="M259.14228,157.4945c0,1.48178 -1.5766,2.683 -3.52144,2.683c-1.94484,0 -2.34762,-1.00612 -2.34762,-1.00612c0,0 -0.43565,-5.03063 3.01837,-4.35988c1.90917,0.37075 2.85069,1.20122 2.85069,2.683z" data-paper-data="{&quot;index&quot;:null}" fill="#ffffff" stroke="none" stroke-width="0" stroke-linecap="butt"/><path d="M258.97459,157.99756c0,0.92612 -0.45045,1.67687 -1.00612,1.67687c-0.55567,0 -1.00612,-0.75076 -1.00612,-1.67687c0,-0.92612 0.45046,-1.67687 1.00612,-1.67687c0.55567,0 1.00612,0.75076 1.00612,1.67687z" data-paper-data="{&quot;index&quot;:null}" fill="#148382" stroke="none" stroke-width="0" stroke-linecap="butt"/><path d="M262.96743,165.2244c-3.92764,-1.22494 -2.74588,2.5568 -7.68196,2.22143c-2.00282,-0.13608 -4.82323,-0.18465 -6.68404,-0.94659c-1.62665,-0.66607 -2.44092,-1.95637 -2.37444,-3.28708c0.33537,-6.71336 11.74148,-3.76316 11.74148,-3.76316c0,0 1.06839,-1.98898 1.89542,-1.96874c3.44083,0.0842 4.04028,3.9957 3.10354,7.74415z" data-paper-data="{&quot;index&quot;:null}" fill="#dc570f" stroke="none" stroke-width="0" stroke-linecap="butt"/><path d="M237.68676,157.29604c0,0 -1.71339,-10.52844 8.49099,-13.1598c10.41868,-2.68662 13.79595,7.41276 13.79595,7.41276z" data-paper-data="{&quot;index&quot;:null}" fill="#148382" stroke="none" stroke-width="0" stroke-linecap="butt"/><path d="M251.26184,155.21838c-4.36602,1.12222 -14.1089,4.21575 -14.1089,4.21575l-0.70263,-3.24382c0,0 9.65454,-3.11393 14.0292,-4.23837c3.60168,-0.92576 10.35351,-2.02885 10.35351,-2.02885l0.70263,3.24382c0,0 -6.65224,1.1206 -10.27381,2.05147z" data-paper-data="{&quot;index&quot;:null}" fill="#ffffff" stroke="none" stroke-width="0" stroke-linecap="butt"/><path d="M246.56572,162.35744v-6.37212h2.34763l-0.16769,6.37212z" data-paper-data="{&quot;index&quot;:null}" fill="#ffffff" stroke="none" stroke-width="0" stroke-linecap="butt"/><path d="M237.69571,159.01199l2.10439,-1.63454l8.25738,2.95943l-0.59521,2.3053z" data-paper-data="{&quot;index&quot;:null}" fill="#ffffff" stroke="none" stroke-width="0" stroke-linecap="butt"/><path d="M250.05249,168.03232c0,0 -2.14711,-1.72202 -2.72736,-2.68304c-0.59356,-0.98306 -0.79499,-3.15071 -0.79499,-3.15071l2.16634,-0.90462c0,0 0.09425,2.04779 0.6232,2.92383c0.62806,1.0402 2.89915,2.90991 2.89915,2.90991z" data-paper-data="{&quot;index&quot;:null}" fill="#ffffff" stroke="none" stroke-width="0" stroke-linecap="butt"/><path d="M243.08157,149.42003c-1.01772,1.20123 -2.27235,1.81105 -2.8023,1.36205c-0.52995,-0.44899 -0.13456,-1.78677 0.88316,-2.988c1.01772,-1.20123 2.27235,-1.81105 2.80231,-1.36205c0.52995,0.44899 0.13455,1.78677 -0.88316,2.988z" data-paper-data="{&quot;index&quot;:null}" fill="#ffffff" stroke="none" stroke-width="0" stroke-linecap="butt"/><path d="M230.09268,165.36382c0.44231,0.13706 0.30091,1.86169 -0.31583,3.85208c-0.61674,1.99039 -2.07968,3.49282 -2.522,3.35576c-0.44231,-0.13706 -0.09944,-1.86169 0.5173,-3.85208c0.61674,-1.99039 1.87822,-3.49282 2.32053,-3.35576z" data-paper-data="{&quot;index&quot;:null}" fill="#ffffff" stroke="none" stroke-width="0" stroke-linecap="butt"/><path d="M236.96121,185.94763l-11.9705,-11.9705l0.35991,-1.86678l12.72394,12.72394z" data-paper-data="{&quot;index&quot;:null}" fill="#dc570f" stroke="none" stroke-width="0" stroke-linecap="butt"/><path d="M228.00447,176.67202l8.45444,-8.45445l1.11335,1.11334l-8.45445,8.45445z" data-paper-data="{&quot;index&quot;:null}" fill="#dc570f" stroke="none" stroke-width="0" stroke-linecap="butt"/><path d="M239.09595,168.24179l-6.44527,-6.44527l1.23891,-0.98777l6.3197,6.3197z" data-paper-data="{&quot;index&quot;:null}" fill="#dc570f" stroke="none" stroke-width="0" stroke-linecap="butt"/><path d="M225.90376,186.65404l6.69834,-6.69835l1.11334,1.11335l-6.94949,6.94949z" data-paper-data="{&quot;index&quot;:null}" fill="#dc570f" stroke="none" stroke-width="0" stroke-linecap="butt"/><path d="M237.38307,192.91722c0.2384,3.23657 1.1728,5.04662 0.70868,5.69149c-0.4014,0.55773 -4.16857,0.97907 -6.43798,-0.62981c-1.87192,-1.32709 -3.44301,-7.4528 -3.30118,-8.43593c0.01945,-1.1012 8.38067,-2.5976 8.98648,-2.17386c1.23869,0.86642 -0.14008,3.04896 0.044,5.54811z" data-paper-data="{&quot;index&quot;:null}" fill="#dc570f" stroke="none" stroke-width="0" stroke-linecap="butt"/><path d="M238.19879,159.4934c0,0 2.40464,1.82578 3.06408,6.5314c0.49242,3.5138 -4.56233,-1.28566 -5.37278,6.11037c-0.64932,5.92558 4.11137,6.12939 2.96338,11.15884c-1.34231,5.88076 -12.89587,4.20319 -12.89587,4.20319" data-paper-data="{&quot;index&quot;:null}" fill="none" stroke="#ffffff" stroke-width="2.5" stroke-linecap="round"/><path d="M255.1579,180.43113c-0.74247,1.19344 -7.39591,2.00508 -12.52466,-1.18564c-5.12875,-3.19072 -7.855,-7.31853 -6.0482,-10.36897c2.3589,-3.98252 7.34102,-0.11647 10.85938,4.3125c3.75715,4.72955 8.20476,6.45243 7.71348,7.24211z" data-paper-data="{&quot;index&quot;:null}" fill="#dc570f" stroke="none" stroke-width="0" stroke-linecap="butt"/></g></g></svg>