<svg version="1.1" xmlns="http://www.w3.org/2000/svg" xmlns:xlink="http://www.w3.org/1999/xlink" width="85.49398" height="85.49398" viewBox="0,0,85.49398,85.49398"><g transform="translate(-197.25302,-137.25301)"><g data-paper-data="{&quot;isPaintingLayer&quot;:true}" fill-rule="nonzero" stroke-linejoin="miter" stroke-miterlimit="10" stroke-dasharray="" stroke-dashoffset="0" style="mix-blend-mode: normal"><path d="M205.74519,148.69851c1.16556,0 66.72968,0 68.61911,0c2.99266,0 4.95364,2.07748 4.95364,5.07014c0,1.1798 0,50.56322 0,52.42833c0,2.98585 -2.23268,4.60723 -5.21853,4.60723c-1.85567,0 -67.35092,0 -68.48667,0c-2.91521,0 -4.88931,-1.9569 -4.88931,-4.8721c0,-1.73515 -0.09306,-49.18082 0,-52.031c0.09306,-2.85019 3.8562,-5.20259 5.02176,-5.20259z" fill="#45a7e0" stroke="none" stroke-width="0" stroke-linecap="butt"/><path d="M197.25302,222.74699v-85.49398h85.49398v85.49398z" data-paper-data="{&quot;index&quot;:null}" fill="none" stroke="none" stroke-width="0" stroke-linecap="butt"/><path d="M201.625,185.39931c0,0 13.46114,-13.46114 16.125,-16.125c1.02355,-1.02355 2.35145,-1.14855 3.375,-0.125c2.40802,2.40802 14.12989,14.12989 18.875,18.875c1.44235,1.44235 3.18265,0.81735 4.625,-0.625c2.7457,-2.7457 6.83278,-6.83278 8.125,-8.125c1.0976,-1.0976 2.5274,-0.7226 3.625,0.375c3.38581,3.38581 21.875,21.875 21.875,21.875" fill="none" stroke="#ffffff" stroke-width="2" stroke-linecap="round"/><path d="M239.125,165.64931c0,-3.86599 3.13401,-7 7,-7c3.86599,0 7,3.13401 7,7c0,3.86599 -3.13401,7 -7,7c-3.86599,0 -7,-3.13401 -7,-7z" fill="none" stroke="#ffffff" stroke-width="2" stroke-linecap="butt"/></g></g></svg>