<svg version="1.1" xmlns="http://www.w3.org/2000/svg" xmlns:xlink="http://www.w3.org/1999/xlink" width="119.71806" height="119.71806" viewBox="0,0,119.71806,119.71806"><defs><linearGradient x1="239.99937" y1="171.85658" x2="239.99937" y2="202.36703" gradientUnits="userSpaceOnUse" id="color-1"><stop offset="0" stop-color="#da842e"/><stop offset="1" stop-color="#f29e4a"/></linearGradient></defs><g transform="translate(-180.14097,-120.14097)"><g data-paper-data="{&quot;isPaintingLayer&quot;:true}" fill-rule="nonzero" stroke-width="0" stroke-linecap="butt" stroke-linejoin="miter" stroke-miterlimit="10" stroke-dasharray="" stroke-dashoffset="0" style="mix-blend-mode: normal"><path d="M180.14097,239.85903v-119.71806h119.71806v119.71806z" data-paper-data="{&quot;index&quot;:null}" fill="none" stroke="none"/><g><path d="M236.89696,171.85658h6.23631c0,0 -0.35745,8.99011 0.53289,17.80526c0.7352,7.27908 1.85144,12.70519 -3.37889,12.70519c-6.38816,0 -4.37851,-5.63572 -3.96204,-12.58547c0.54605,-9.11184 0.57172,-17.92497 0.57172,-17.92497z" data-paper-data="{&quot;index&quot;:null}" fill="url(#color-1)" stroke="none"/><g data-paper-data="{&quot;index&quot;:null}"><g data-paper-data="{&quot;index&quot;:null}"><path d="M260.96129,185.0262c0,0 -4.96503,7.55143 -8.91636,14.11395c-2.52523,4.19402 -7.38209,3.7807 -9.62604,2.66919c-0.73257,-0.36287 0.52098,-0.31226 -0.02302,-0.84236c-2.21032,-2.15384 -1.68633,-5.51636 3.21425,-9.73551c7.59938,-6.54267 15.35118,-6.20527 15.35118,-6.20527z" fill="#f29e4a" stroke="none"/><path d="M254.33946,189.01095c2.48165,-2.39442 5.1009,-3.4971 5.25873,-3.32496c0.16163,0.17628 -2.31265,1.34082 -4.98071,3.99818c-1.47409,1.46818 -4.17783,1.87962 -5.77276,3.34202c-4.37125,4.00802 -6.21345,7.66779 -6.46793,7.39026c-0.25448,-0.27754 1.5711,-3.95543 5.94236,-7.96345c1.66014,-1.52219 4.47074,-1.94693 6.02031,-3.44203z" fill="#20ad00" stroke="#20ad00"/></g><g data-paper-data="{&quot;index&quot;:null}"><path d="M234.22921,191.24814c4.90058,4.21915 5.42456,7.58167 3.21424,9.73552c-0.544,0.53009 0.70956,0.4795 -0.02302,0.84236c-2.24395,1.11152 -7.10081,1.52482 -9.62605,-2.66919c-3.95133,-6.56253 -8.91636,-14.11396 -8.91636,-14.11396c0,0 7.7518,-0.3374 15.35118,6.20527z" fill="#f29e4a" stroke="none"/><path d="M231.52014,192.46964c4.37125,4.00801 6.19683,7.68591 5.94236,7.96345c-0.25448,0.27754 -2.09668,-3.38224 -6.46793,-7.39025c-1.59492,-1.4624 -4.29866,-1.87384 -5.77276,-3.34202c-2.66806,-2.65736 -5.14233,-3.82191 -4.98071,-3.99818c0.15783,-0.17213 2.77708,0.93055 5.25873,3.32497c1.54957,1.4951 4.36017,1.91985 6.02031,3.44203z" fill="#20ad00" stroke="#20ad00"/></g></g></g><g data-paper-data="{&quot;index&quot;:null}" stroke="none"><g fill="#ffffff"><path d="M249.14151,157.38517c-0.54445,-0.32575 -1.4476,-1.34821 -3.08086,-1.41248c-1.34418,-0.05289 -2.81457,0.29538 -2.96218,-0.25662c-0.30187,-1.12893 0.13207,-2.13815 2.5186,-3.35679c2.22738,-1.13736 5.72804,-1.9217 5.72804,-1.9217z"/><path d="M250.59287,151.71159c-0.54445,-0.32575 -1.4476,-1.34821 -3.08086,-1.41248c-1.34418,-0.05289 -2.81457,0.29539 -2.96217,-0.25661c-0.30187,-1.12893 0.13207,-2.13816 2.5186,-3.35679c2.22738,-1.13736 6.68543,-0.78518 6.68543,-0.78518z"/><path d="M252.70985,146.03085c-0.47158,-0.42443 -1.16111,-1.60157 -2.75147,-1.97893c-1.30888,-0.31057 -2.8188,-0.25176 -2.85742,-0.82184c-0.07899,-1.16592 0.54105,-2.07278 3.11748,-2.80939c2.40462,-0.68749 5.99078,-0.78352 5.99078,-0.78352z"/><path d="M255.3344,140.19889c-0.4014,-0.49134 -2.23971,-2.5772 -3.754,-3.1925c-1.24627,-0.5064 -2.98172,0.00469 -2.93302,-0.56464c0.0996,-1.16434 1.0848,-2.64917 3.7434,-2.98455c2.48129,-0.31302 6.07007,-0.21044 6.07007,-0.21044z"/></g><path d="M260.14187,164.34438c-8.32852,13.01605 -20.78495,9.75014 -20.78495,9.75014l-0.01928,-4.30657c0,0 2.75065,-2.76269 3.88489,-4.93588c5.70921,-10.9388 5.94533,-16.78792 15.10982,-33.14475c0.23902,-0.42661 10.24451,19.45464 1.80955,32.63704z" data-paper-data="{&quot;index&quot;:null}" fill="#20ad00"/><path d="M248.46293,159.82169c0.07995,-0.93464 0.90244,-1.62749 1.83708,-1.54754c0.93464,0.07995 1.62749,0.90244 1.54754,1.83708c-0.07995,0.93464 -0.90244,1.62749 -1.83708,1.54754c-0.93464,-0.07995 -1.62749,-0.90244 -1.54754,-1.83708z" fill="#f29e4a"/><path d="M251.67857,152.48948c0.06996,-0.8178 0.78963,-1.42406 1.60745,-1.3541c0.8178,0.06996 1.42406,0.78963 1.3541,1.60745c-0.06996,0.8178 -0.78963,1.42406 -1.60745,1.3541c-0.8178,-0.06996 -1.42406,-0.78963 -1.3541,-1.60745z" fill="#f29e4a"/><path d="M258.93564,151.98103c0.06996,-0.8178 0.78963,-1.42406 1.60745,-1.3541c0.8178,0.06996 1.42406,0.78963 1.3541,1.60745c-0.06996,0.8178 -0.78963,1.42406 -1.60745,1.3541c-0.8178,-0.06996 -1.42406,-0.78963 -1.3541,-1.60745z" fill="#f29e4a"/><path d="M253.75451,142.80126c0.05997,-0.70098 0.67683,-1.22062 1.37781,-1.16066c0.70098,0.05997 1.22062,0.67683 1.16066,1.37781c-0.05997,0.70098 -0.67683,1.22062 -1.37781,1.16066c-0.70098,-0.05997 -1.22062,-0.67683 -1.16066,-1.37781z" fill="#f29e4a"/><path d="M255.76381,159.16773c0.05997,-0.70098 0.67683,-1.22062 1.37781,-1.16066c0.70098,0.05997 1.22062,0.67683 1.16066,1.37781c-0.05997,0.70098 -0.67683,1.22062 -1.37781,1.16066c-0.70098,-0.05997 -1.22062,-0.67683 -1.16066,-1.37781z" fill="#f29e4a"/><path d="M246.39747,169.0208c0.07995,-0.93464 0.90244,-1.62749 1.83708,-1.54754c0.93464,0.07995 1.62749,0.90244 1.54754,1.83708c-0.07995,0.93464 -0.90244,1.62749 -1.83708,1.54754c-0.93464,-0.07995 -1.62749,-0.90244 -1.54754,-1.83708z" fill="#f29e4a"/><path d="M251.72773,166.49357c0.03998,-0.46731 0.45122,-0.81374 0.91853,-0.77376c0.46731,0.03998 0.81374,0.45122 0.77376,0.91853c-0.03998,0.46731 -0.45122,0.81374 -0.91853,0.77376c-0.46731,-0.03998 -0.81374,-0.45122 -0.77376,-0.91853z" fill="#f29e4a"/><path d="M258.3834,138.50935c0.05997,-0.70098 0.67683,-1.22062 1.37781,-1.16066c0.70098,0.05997 1.22062,0.67683 1.16066,1.37781c-0.05997,0.70098 -0.67683,1.22062 -1.37781,1.16066c-0.70098,-0.05997 -1.22062,-0.67683 -1.16066,-1.37781z" fill="#f29e4a"/></g><g data-paper-data="{&quot;index&quot;:null}" stroke="none"><g fill="#ffffff"><path d="M228.47394,150.92226c0,0 3.51601,0.71237 5.76625,1.80381c2.41103,1.16943 2.86558,2.16955 2.58692,3.30443c-0.13625,0.55491 -1.61347,0.23687 -2.95629,0.31733c-1.63159,0.09775 -2.51359,1.13852 -3.05124,1.47537z"/><path d="M225.97264,146.43556c0,0 4.44989,-0.44354 6.70013,0.6479c2.41103,1.16942 2.86558,2.16955 2.58692,3.30443c-0.13624,0.55491 -1.61347,0.23686 -2.95628,0.31732c-1.63159,0.09775 -2.51359,1.13852 -3.05124,1.47537z"/><path d="M223.38934,140.22388c0,0 3.58738,0.02246 6.00559,0.66048c2.591,0.68361 3.22951,1.57756 3.17445,2.74485c-0.02692,0.57076 -1.53773,0.54292 -2.83996,0.88028c-1.58229,0.4099 -2.24753,1.60094 -2.7103,2.03495z"/><path d="M221.00711,133.881c0,0 3.58592,-0.17617 6.07311,0.08589c2.66492,0.28079 3.68036,1.7451 3.80383,2.90714c0.06037,0.56821 -1.68519,0.09283 -2.92082,0.62468c-1.50135,0.64623 -3.29649,2.76934 -3.68773,3.26882z"/></g><path d="M219.96425,165.00654c-8.70357,-13.00661 0.89204,-33.0889 1.13976,-32.66728c9.49804,16.16541 9.85409,22.00846 15.78646,32.82786c1.17857,2.14947 3.98531,4.85516 3.98531,4.85516l0.06905,4.30605c0,0 -12.38683,3.52071 -20.98056,-9.32178z" data-paper-data="{&quot;index&quot;:null}" fill="#20ad00"/><path d="M230.03846,162.11371c-0.9328,0.09911 -1.76933,-0.57673 -1.86843,-1.50953c-0.09911,-0.9328 0.57673,-1.76933 1.50953,-1.86843c0.9328,-0.09911 1.76933,0.57673 1.86843,1.50953c0.09911,0.9328 -0.57673,1.76933 -1.50953,1.86843z" fill="#f29e4a"/><path d="M226.8618,154.61544c-0.81621,0.08672 -1.54816,-0.50465 -1.63488,-1.32084c-0.08672,-0.81621 0.50465,-1.54816 1.32084,-1.63488c0.81621,-0.08672 1.54816,0.50465 1.63488,1.32084c0.08672,0.81621 -0.50465,1.54816 -1.32084,1.63488z" fill="#f29e4a"/><path d="M219.59582,154.25596c-0.81621,0.08672 -1.54816,-0.50465 -1.63488,-1.32084c-0.08672,-0.81621 0.50465,-1.54816 1.32084,-1.63488c0.81621,-0.08672 1.54816,0.50465 1.63488,1.32084c0.08672,0.81621 -0.50465,1.54816 -1.32084,1.63488z" fill="#f29e4a"/><path d="M224.77627,144.7383c-0.6996,0.07433 -1.327,-0.43255 -1.40133,-1.13215c-0.07433,-0.6996 0.43255,-1.327 1.13215,-1.40133c0.6996,-0.07433 1.327,0.43255 1.40133,1.13215c0.07433,0.6996 -0.43255,1.327 -1.13215,1.40133z" fill="#f29e4a"/><path d="M223.10308,161.14253c-0.6996,0.07433 -1.327,-0.43255 -1.40133,-1.13215c-0.07433,-0.6996 0.43255,-1.327 1.13215,-1.40133c0.6996,-0.07433 1.327,0.43255 1.40133,1.13215c0.07433,0.6996 -0.43255,1.327 -1.13215,1.40133z" fill="#f29e4a"/><path d="M232.29217,171.26852c-0.9328,0.09911 -1.76933,-0.57673 -1.86843,-1.50953c-0.09911,-0.9328 0.57673,-1.76933 1.50953,-1.86843c0.9328,-0.09911 1.76933,0.57673 1.86843,1.50953c0.09911,0.9328 -0.57673,1.76933 -1.50953,1.86843z" fill="#f29e4a"/><path d="M227.66596,167.91693c-0.46639,0.04955 -0.88466,-0.28837 -0.93421,-0.75476c-0.04955,-0.46639 0.28837,-0.88466 0.75476,-0.93421c0.46639,-0.04955 0.88466,0.28837 0.93421,0.75476c0.04955,0.46639 -0.28837,0.88466 -0.75476,0.93421z" fill="#f29e4a"/><path d="M220.06033,140.54223c-0.6996,0.07433 -1.327,-0.43255 -1.40133,-1.13215c-0.07433,-0.6996 0.43255,-1.327 1.13215,-1.40133c0.6996,-0.07433 1.327,0.43255 1.40133,1.13215c0.07433,0.6996 -0.43255,1.327 -1.13215,1.40133z" fill="#f29e4a"/></g></g></g></svg>