<svg version="1.1" xmlns="http://www.w3.org/2000/svg" xmlns:xlink="http://www.w3.org/1999/xlink" width="162" height="74" viewBox="0,0,162,74"><g transform="translate(-201.5,-142)"><g data-paper-data="{&quot;isPaintingLayer&quot;:true}" fill-rule="nonzero" stroke-width="0" stroke-linecap="butt" stroke-linejoin="miter" stroke-miterlimit="10" stroke-dasharray="" stroke-dashoffset="0" style="mix-blend-mode: normal"><g data-paper-data="{&quot;index&quot;:null}"><path d="M319.08926,186.44039c-3.89567,-2.00526 -5.42816,-6.78892 -3.4229,-10.68459c2.00526,-3.89567 6.54801,-5.63544 10.13271,-3.11606c5.23655,3.68029 1.58074,6.9582 3.26453,9.63044c1.76816,2.80614 4.1754,1.03095 4.57239,1.51138c0.39699,0.48043 -3.0842,4.22206 -7.01366,4.64893c-3.17454,0.34485 -5.79224,-1.09401 -7.53309,-1.99008z" fill="#f32f00" stroke="#000000"/><path d="M332.11112,180.77363l-1.55711,-0.80151l0.80151,-1.55711l1.55711,0.80151z" fill="#f32f00" stroke="#000000"/><path d="M334.13078,182.20717l-1.24569,-0.6412l0.6412,-1.24569l1.24569,0.6412z" fill="#f32f00" stroke="none"/><path d="M320.37126,183.47555c-2.10761,-1.08487 -2.93669,-3.67287 -1.85183,-5.78048c1.08487,-2.10761 3.54254,-3.04883 5.4819,-1.68582c1.49833,1.05305 1.09825,3.7357 1.45947,5.84523c0.21353,1.24702 1.04727,2.03457 1.73687,2.86911c0,0 -1.79825,0.05293 -3.49612,-0.22163c-1.49873,-0.24236 -2.88873,-0.79911 -3.33031,-1.02641z" fill="#f29e4a" stroke="#000000"/><path d="M320.95897,180.32723c-0.805,-0.41436 -1.12166,-1.40284 -0.7073,-2.20784c0.41436,-0.805 1.40284,-1.12166 2.20784,-0.7073c0.805,0.41436 1.12166,1.40284 0.7073,2.20784c-0.41436,0.805 -1.40284,1.12166 -2.20784,0.7073z" fill="#ffffff" stroke="#000000"/><path d="M321.73447,182.40256c-0.43909,-0.22601 -0.61182,-0.76519 -0.3858,-1.20427c0.22601,-0.43909 0.76519,-0.61182 1.20427,-0.3858c0.43909,0.22601 0.61182,0.76519 0.3858,1.20427c-0.22601,0.43909 -0.76519,0.61182 -1.20427,0.3858z" fill="#ffffff" stroke="none"/></g><g data-paper-data="{&quot;index&quot;:null}"><path d="M302.30878,186.4106c-3.83891,-2.11189 -5.23894,-6.93598 -3.12705,-10.77489c2.11189,-3.83891 6.70087,-5.45278 10.21476,-2.83555c5.1331,3.82325 1.38832,6.99913 2.99781,9.71677c1.69013,2.85382 4.1454,1.14567 4.52899,1.63685c0.3836,0.49119 -3.19942,4.13544 -7.13916,4.45382c-3.18284,0.25721 -5.75988,-1.25327 -7.47536,-2.19699z" fill="#f32f00" stroke="#000000"/><path d="M315.48191,181.10497l-1.53443,-0.84413l0.84413,-1.53443l1.53443,0.84413z" fill="#f32f00" stroke="#000000"/><path d="M317.46128,182.59364l-1.22754,-0.6753l0.6753,-1.22754l1.22754,0.6753z" fill="#f32f00" stroke="none"/><path d="M303.67203,183.48222c-2.0769,-1.14255 -2.83433,-3.75243 -1.69177,-5.82934c1.14255,-2.0769 3.62524,-2.95001 5.52629,-1.53406c1.46874,1.09395 0.99485,3.76455 1.29778,5.88325c0.17907,1.25243 0.99078,2.06267 1.65712,2.9159c0,0 -1.79903,0.00334 -3.48867,-0.31793c-1.49147,-0.28358 -2.86561,-0.87844 -3.30075,-1.11783z" fill="#f29e4a" stroke="#000000"/><path d="M304.3463,180.3513c-0.79327,-0.4364 -1.08256,-1.43322 -0.64616,-2.22649c0.4364,-0.79327 1.43322,-1.08256 2.22649,-0.64616c0.79327,0.4364 1.08256,1.43322 0.64616,2.22649c-0.4364,0.79327 -1.43322,1.08256 -2.22649,0.64616z" fill="#ffffff" stroke="#000000"/><path d="M305.06429,182.44722c-0.43268,-0.23804 -0.59048,-0.78176 -0.35245,-1.21446c0.23804,-0.43268 0.78176,-0.59048 1.21446,-0.35245c0.43268,0.23804 0.59048,0.78176 0.35245,1.21446c-0.23804,0.43268 -0.78176,0.59048 -1.21446,0.35245z" fill="#ffffff" stroke="none"/></g><g data-paper-data="{&quot;index&quot;:null}"><path d="M284.35193,185.63781c-3.53682,-2.58617 -4.30748,-7.54982 -1.72132,-11.08665c2.58617,-3.53682 7.34405,-4.54968 10.4938,-1.50395c4.60117,4.44919 0.48048,7.11929 1.72865,10.02069c1.31072,3.04677 3.96452,1.66715 4.28205,2.20342c0.31753,0.53627 -3.7027,3.69162 -7.65079,3.5028c-3.18957,-0.15255 -5.55194,-1.98064 -7.13242,-3.1363z" fill="#f32f00" stroke="#000000"/><path d="M298.09609,182.063l-1.41368,-1.03369l1.03369,-1.41368l1.41368,1.03369z" fill="#f32f00" stroke="#000000"/><path d="M299.86849,183.79292l-1.13094,-0.82695l0.82695,-1.13094l1.13094,0.82695z" fill="#f32f00" stroke="none"/><path d="M286.07901,182.90815c-1.91347,-1.39914 -2.33039,-4.08454 -0.93126,-5.998c1.39914,-1.91347 3.9732,-2.46142 5.67725,-0.81365c1.31654,1.27305 0.50452,3.86097 0.53361,6.001c0.0172,1.26506 0.71845,2.17257 1.27002,3.10411c0,0 -1.78464,-0.22709 -3.41923,-0.76212c-1.44287,-0.47226 -2.7295,-1.23822 -3.1304,-1.53136z" fill="#f29e4a" stroke="#000000"/><path d="M287.1487,179.88936c-0.73084,-0.5344 -0.89009,-1.56008 -0.35569,-2.29092c0.5344,-0.73084 1.56008,-0.89009 2.29092,-0.35569c0.73084,0.5344 0.89009,1.56008 0.35569,2.29092c-0.5344,0.73084 -1.56008,0.89009 -2.29092,0.35569z" fill="#ffffff" stroke="#000000"/><path d="M287.59236,182.05997c-0.39864,-0.29148 -0.4855,-0.85095 -0.19401,-1.24959c0.29148,-0.39864 0.85095,-0.4855 1.24959,-0.19401c0.39864,0.29148 0.4855,0.85095 0.19401,1.24959c-0.29148,0.39864 -0.85095,0.4855 -1.24959,0.19401z" fill="#ffffff" stroke="none"/></g><g data-paper-data="{&quot;index&quot;:null}"><path d="M267.66096,185.93617c-3.62012,-2.46822 -4.55393,-7.40378 -2.08571,-11.02391c2.46822,-3.62012 7.19014,-4.7892 10.43854,-1.84892c4.74528,4.29515 0.71481,7.0996 2.05792,9.95828c1.4104,3.00192 4.0173,1.53561 4.35233,2.06113c0.33503,0.52552 -3.57905,3.81162 -7.5312,3.753c-3.19286,-0.04737 -5.61419,-1.79661 -7.2319,-2.89957z" fill="#f32f00" stroke="#000000"/><path d="M281.27984,181.91041l-1.44697,-0.98656l0.98656,-1.44697l1.44697,0.98656z" fill="#f32f00" stroke="#000000"/><path d="M283.1083,183.58099l-1.15758,-0.78924l0.78924,-1.15758l1.15758,0.78924z" fill="#f32f00" stroke="none"/><path d="M269.29715,183.15109c-1.95853,-1.33533 -2.46373,-4.00552 -1.1284,-5.96405c1.33533,-1.95853 3.88994,-2.59101 5.64736,-1.00028c1.35776,1.22898 0.63147,3.84225 0.73106,5.98017c0.05887,1.26381 0.78966,2.14772 1.37162,3.06058c0,0 -1.79115,-0.16817 -3.44248,-0.64903c-1.45765,-0.42446 -2.76883,-1.14761 -3.17916,-1.42738z" fill="#f29e4a" stroke="#000000"/><path d="M270.26679,180.09868c-0.74805,-0.51003 -0.94101,-1.5299 -0.43098,-2.27795c0.51003,-0.74805 1.5299,-0.94101 2.27795,-0.43098c0.74805,0.51003 0.94101,1.5299 0.43098,2.27795c-0.51003,0.74805 -1.5299,0.94101 -2.27795,0.43098z" fill="#ffffff" stroke="#000000"/><path d="M270.78172,182.25351c-0.40802,-0.2782 -0.51328,-0.83449 -0.23508,-1.24252c0.2782,-0.40802 0.83449,-0.51328 1.24252,-0.23508c0.40802,0.2782 0.51328,0.83449 0.23508,1.24252c-0.2782,0.40802 -0.83449,0.51328 -1.24252,0.23508z" fill="#ffffff" stroke="none"/></g><g data-paper-data="{&quot;index&quot;:null}"><path d="M250.82754,185.94031c-3.61893,-2.46997 -4.55033,-7.40599 -2.08037,-11.02492c2.46997,-3.61893 7.19246,-4.78572 10.43944,-1.84386c4.7432,4.29745 0.71137,7.09994 2.05309,9.95928c1.40894,3.00261 4.01656,1.53755 4.35134,2.06323c0.33477,0.52568 -3.5809,3.80989 -7.53302,3.74935c-3.19284,-0.04891 -5.61332,-1.79933 -7.23049,-2.90307z" fill="#f32f00" stroke="#000000"/><path d="M264.44838,181.92115l-1.4465,-0.98725l0.98725,-1.4465l1.4465,0.98725z" fill="#f32f00" stroke="#000000"/><path d="M266.27603,183.5926l-1.15719,-0.7898l0.7898,-1.15719l1.15719,0.7898z" fill="#f32f00" stroke="none"/><path d="M252.46507,183.15601c-1.95788,-1.33628 -2.46178,-4.00673 -1.1255,-5.96461c1.33628,-1.95788 3.89119,-2.58912 5.64784,-0.99755c1.35717,1.22963 0.62961,3.84255 0.72816,5.98052c0.05827,1.26383 0.78861,2.14811 1.37013,3.06124c0,0 -1.79106,-0.16904 -3.44216,-0.6507c-1.45745,-0.42517 -2.76826,-1.14895 -3.17847,-1.42892z" fill="#f29e4a" stroke="#000000"/><path d="M253.43621,180.10408c-0.74781,-0.51039 -0.94027,-1.53035 -0.42988,-2.27816c0.51039,-0.74781 1.53035,-0.94027 2.27816,-0.42988c0.74781,0.51039 0.94027,1.53035 0.42988,2.27816c-0.51039,0.74781 -1.53035,0.94027 -2.27816,0.42988z" fill="#ffffff" stroke="#000000"/><path d="M253.9501,182.25915c-0.40789,-0.2784 -0.51287,-0.83474 -0.23448,-1.24263c0.2784,-0.40789 0.83474,-0.51287 1.24263,-0.23448c0.40789,0.2784 0.51287,0.83474 0.23448,1.24263c-0.2784,0.40789 -0.83474,0.51287 -1.24263,0.23448z" fill="#ffffff" stroke="none"/></g><g data-paper-data="{&quot;index&quot;:null}"><path d="M233.48399,185.69864c-3.50861,-2.62432 -4.22548,-7.59603 -1.60117,-11.10463c2.62432,-3.50861 7.39288,-4.46989 10.50947,-1.39024c4.55272,4.49874 0.40337,7.12408 1.62006,10.03881c1.27765,3.06079 3.94624,1.70998 4.25794,2.24966c0.31171,0.53968 -3.74246,3.65131 -7.68826,3.41975c-3.18774,-0.18708 -5.53017,-2.04064 -7.09805,-3.21334z" fill="#f32f00" stroke="#000000"/><path d="M247.26605,182.27287l-1.4024,-1.04894l1.04894,-1.4024l1.4024,1.04894z" fill="#f32f00" stroke="#000000"/><path d="M249.01962,184.02187l-1.12192,-0.83916l0.83916,-1.12192l1.12192,0.83916z" fill="#f32f00" stroke="none"/><path d="M235.24053,182.98784c-1.8982,-1.41978 -2.28604,-4.10953 -0.86626,-6.00773c1.41978,-1.8982 3.99962,-2.41825 5.68573,-0.75213c1.30267,1.28723 0.46269,3.8662 0.4686,6.00643c0.0035,1.26517 0.69488,2.18023 1.23634,3.11769c0,0 -1.78208,-0.24641 -3.41077,-0.79909c-1.43767,-0.48787 -2.71593,-1.26771 -3.11364,-1.56517z" fill="#f29e4a" stroke="#000000"/><path d="M236.34285,179.98082c-0.72501,-0.54228 -0.87315,-1.56962 -0.33087,-2.29463c0.54228,-0.72501 1.56962,-0.87315 2.29463,-0.33087c0.72501,0.54228 0.87315,1.56962 0.33087,2.29463c-0.54228,0.72501 -1.56962,0.87315 -2.29463,0.33087z" fill="#ffffff" stroke="#000000"/><path d="M236.76298,182.15611c-0.39546,-0.29579 -0.47626,-0.85616 -0.18047,-1.25162c0.29579,-0.39546 0.85616,-0.47626 1.25162,-0.18047c0.39546,0.29579 0.47626,0.85616 0.18047,1.25162c-0.29579,0.39546 -0.85616,0.47626 -1.25162,0.18047z" fill="#ffffff" stroke="none"/></g><path d="M201.5,216v-74h162v74z" fill="none" stroke="#a97a4a"/></g></g></svg>