<svg version="1.1" xmlns="http://www.w3.org/2000/svg" xmlns:xlink="http://www.w3.org/1999/xlink" width="41.41093" height="41.41092" viewBox="0,0,41.41093,41.41092"><g transform="translate(-219.29454,-159.29454)"><g data-paper-data="{&quot;isPaintingLayer&quot;:true}" fill-rule="nonzero" stroke-width="0" stroke-linecap="butt" stroke-linejoin="miter" stroke-miterlimit="10" stroke-dasharray="" stroke-dashoffset="0" style="mix-blend-mode: normal"><path d="M219.29454,200.70546v-41.41092h41.41093v41.41092z" data-paper-data="{&quot;index&quot;:null}" fill="#355aff" stroke="none"/><g stroke="#ffffff"><path d="M224.82238,200.48515c0,0 -1.7277,-1.63689 -2.60918,-4.39409c-0.67495,-2.11119 -1.85676,-4.63335 0.00198,-6.22095c1.85167,-1.58156 3.03289,1.3191 4.12953,3.52216c1.11758,2.24512 2.13298,3.80883 2.13298,3.80883c0,0 -0.6635,-1.97511 -0.83176,-3.77808c-0.1898,-2.03378 1.70029,-4.2803 1.40845,-6.82804c-0.3093,-2.70014 -3.39156,-4.93011 -2.02578,-6.02433c2.06702,-1.65603 4.8584,1.21694 6.30021,4.51375c0.83849,1.91727 1.18962,4.05279 1.33417,6.02316c0.19605,2.67239 0.91426,4.24713 0.91426,4.24713c0,0 0.99287,-1.45455 1.94592,-4.17728c0.32416,-0.92608 2.72331,-1.73005 3.1068,-2.72385c0.97308,-2.52172 0.16953,-5.02109 2.17542,-4.6592c1.04974,0.18939 2.34675,1.62756 2.63707,4.42434c0.19281,1.85741 -1.87354,3.48666 -2.05945,5.04063c-0.11656,0.97429 1.63631,2.37109 1.63631,2.37109c0,0 2.67649,-1.35439 3.61761,-3.66547c1.25804,-3.08937 1.03587,-7.34804 2.75368,-7.17311c1.61037,0.16399 2.36532,3.22546 1.8208,6.67921c-0.50725,3.21738 -2.26528,6.84903 -2.26528,6.84903c0,0 2.04123,-2.67759 3.69912,-5.49904c1.10241,-1.87612 1.61979,-4.54304 2.76713,-3.88208c1.78221,1.02669 2.30408,4.38595 1.23565,6.97166c-0.33661,0.81462 -2.1963,1.32754 -2.71076,1.96555c-1.17943,1.46269 -1.1321,2.60896 -1.1321,2.60896z" fill="#ff6fc4"/><path d="M231.34038,200.48516c0,0 -1.10935,-3.84819 -0.87715,-5.6284c0.3059,-2.34529 1.06337,-7.22137 1.06337,-7.22137c0,0 0.21297,6.08229 0.68374,8.24784c0.46013,2.11659 2.10969,4.60193 2.10969,4.60193z" fill="#ff437a"/><path d="M236.74101,200.48516c0,0 1.70645,-2.61241 2.41703,-4.00395c0.77385,-1.51546 2.05246,-4.7488 2.05246,-4.7488c0,0 -0.01593,4.50111 -0.22223,6.11718c-0.13541,1.06077 -0.89514,2.63557 -0.89514,2.63557z" fill="#ff437a"/><path d="M244.93507,200.29893c0,0 3.29782,-0.40661 6.21104,-5.46193c1.23311,-2.13982 1.98301,-7.76031 1.98301,-7.76031c0,0 0.60708,4.15942 -0.53463,7.45507c-0.72345,2.08829 -2.81748,5.76716 -2.81748,5.76716z" fill="#ff437a"/></g></g></g></svg>