<svg version="1.1" xmlns="http://www.w3.org/2000/svg" xmlns:xlink="http://www.w3.org/1999/xlink" width="85.49398" height="85.49398" viewBox="0,0,85.49398,85.49398"><defs><linearGradient x1="-3285.69704" y1="-2895.28055" x2="-3285.69704" y2="4105.40967" gradientUnits="userSpaceOnUse" id="color-1"><stop offset="0" stop-color="#ffffff"/><stop offset="1" stop-color="#ffffff" stop-opacity="0"/></linearGradient><linearGradient x1="242.20145" y1="184.11765" x2="246.75919" y2="184.11765" gradientUnits="userSpaceOnUse" id="color-2"><stop offset="0" stop-color="#a5e62a"/><stop offset="1" stop-color="#74d126"/></linearGradient></defs><g transform="translate(-197.25302,-137.25301)"><g data-paper-data="{&quot;isPaintingLayer&quot;:true}" fill-rule="nonzero" stroke-linecap="butt" stroke-linejoin="miter" stroke-miterlimit="10" stroke-dasharray="" stroke-dashoffset="0" style="mix-blend-mode: normal"><path d="M208.63952,205.58013c0.00324,-13.1024 0,-44.63208 0,-51.75c0,-3.5626 2.97813,-5.21784 6.54073,-5.21784c12.68063,0 43.89984,0 51,0c2.96729,0 5.18024,2.50056 5.18024,5.46784c0,6.43742 0,39.20833 0,51.75c0,2.95974 -2.72049,5.55758 -5.68024,5.55758c-6.61442,0 -39.17756,0 -52,0c-3.13138,0 -5.04177,-1.58613 -5.04073,-5.80758z" fill="url(#color-1)" stroke="#a97a4a" stroke-width="2"/><path d="M197.25302,222.74699v-85.49398h85.49398v85.49398z" fill="none" stroke="none" stroke-width="0"/><g><path d="M242.20145,204.13778v-40.04027h4.55774v40.04027z" fill="url(#color-2)" stroke="none" stroke-width="0"/><g><g stroke="none" stroke-width="0"><path d="M215.7134,165.09489h26.5068v26.5068z" fill="#ffffff"/><path d="M229.41355,172.54062c0,-3.28973 2.66685,-5.95659 5.95659,-5.95659c3.28973,0 5.95659,2.66685 5.95659,5.95659c0,3.28973 -2.66685,5.95659 -5.95659,5.95659c-3.28973,0 -5.95659,-2.66685 -5.95659,-5.95659z" fill="#20ad00"/><path d="M232.98749,169.26449c0.82243,0 1.48914,1.4001 1.48914,3.1272c0,1.7271 -0.66671,3.1272 -1.48914,3.1272c-0.82243,0 -1.48914,-1.4001 -1.48914,-3.1272c0,-1.7271 0.66671,-3.1272 1.48914,-3.1272z" fill="#ffffff"/><path d="M237.65284,169.16456c0.82243,0 1.48915,1.40009 1.48915,3.1272c0,1.7271 -0.66672,3.1272 -1.48915,3.1272c-0.82243,0 -1.48915,-1.40009 -1.48915,-3.1272c0,-1.7271 0.66672,-3.1272 1.48915,-3.1272z" fill="#ffffff"/></g><g><path d="M239.19318,158.93348c0,-2.91814 2.36562,-5.28376 5.28376,-5.28376c2.91814,0 5.28376,2.36562 5.28376,5.28376c0,2.91814 -2.36562,5.28376 -5.28376,5.28376c-2.91814,0 -5.28376,-2.36562 -5.28376,-5.28376z" fill="#20ad00" stroke="#000000" stroke-width="1"/><path d="M241.51589,156.45278c0,-0.9285 0.75269,-1.6812 1.6812,-1.6812c0.9285,0 1.6812,0.75269 1.6812,1.6812c0,0.9285 -0.75269,1.6812 -1.6812,1.6812c-0.9285,0 -1.6812,-0.75269 -1.6812,-1.6812z" fill="#ffffff" stroke="none" stroke-width="0"/></g></g></g></g></g></svg>