<svg version="1.1" xmlns="http://www.w3.org/2000/svg" xmlns:xlink="http://www.w3.org/1999/xlink" width="86.71951" height="85.74263" viewBox="0,0,86.71951,85.74263"><defs><linearGradient x1="197.52614" y1="153.80291" x2="213.15659" y2="153.80291" gradientUnits="userSpaceOnUse" id="color-1"><stop offset="0" stop-color="#a97a4a" stop-opacity="0"/><stop offset="1" stop-color="#a97a4a"/></linearGradient></defs><g transform="translate(-196.27614,-137.25301)"><g data-paper-data="{&quot;isPaintingLayer&quot;:true}" fill-rule="nonzero" stroke-linejoin="miter" stroke-miterlimit="10" stroke-dasharray="" stroke-dashoffset="0" style="mix-blend-mode: normal"><path d="M197.25302,222.74699v-85.49398h85.49398v85.49398z" data-paper-data="{&quot;index&quot;:null}" fill="none" stroke="none" stroke-width="0" stroke-linecap="butt"/><g><path d="M213.74128,202.57371v-48.23715h52.96141v48.23715l-4.47561,3.97832h-44.25883z" fill="#ffffff" stroke="none" stroke-width="0" stroke-linecap="butt"/><path d="M266.59918,154.63053c0,0 0.08077,37.68837 0.09923,45.62254c0.00918,3.9444 -2.55058,6.39264 -6.49499,6.3929c-11.37037,0.00074 -34.23725,0.00223 -40.50616,0.00264c-3.84934,0.00025 -6.39571,-2.54595 -6.39571,-6.3953c0,-7.93565 0,-45.62277 0,-45.62277" fill="none" stroke="#a97a4a" stroke-width="2.5" stroke-linecap="round"/></g><path d="M197.50167,222.99564v-85.49398h85.49398v85.49398z" data-paper-data="{&quot;index&quot;:null}" fill="none" stroke="none" stroke-width="0" stroke-linecap="butt"/><g stroke="none" stroke-width="0" stroke-linecap="butt"><path d="M222.35746,197.60367v-35.18018h35.18019v35.18018z" fill="#a97a4a"/><path d="M237.26115,189.5935c0,0 5.60522,-2.77933 7.86319,-6.94012c0.67693,-1.24738 0.45144,-3.71237 0.87896,-5.05288c2.47817,-7.77061 0.82412,-15.15692 0.82412,-15.15692h2.29435l0.79724,1.92321c0,0 -0.05555,8.25211 -1.06364,13.09522c-0.50952,2.4479 -0.86912,5.07857 -1.94435,6.67817c-3.32542,4.94713 -7.54671,6.21812 -7.54671,6.21812l-0.05294,7.17253l-2.05022,0.00294z" fill="#e2c4a5"/><path d="M247.99235,180.30598v-4.79112c0,0 1.19001,1.81579 2.20719,2.11248c1.04044,0.30346 4.34031,0.30658 4.34031,0.30658l1.66583,0.93196v1.4401z" fill="#e2c4a5"/><path d="M224.5501,164.39262v-1.9963h21.56002v1.9963z" fill="#e2c4a5"/><path d="M222.32565,195.43596v-30.87221h2.05333v30.87221z" fill="#e2c4a5"/><path d="M248.83364,164.46402v-1.9963h6.84445v1.9963z" fill="#e2c4a5"/><path d="M222.45398,186.70849v-1.9963c0,0 3.39747,0.37938 4.80255,0.85301c0.89156,0.30052 2.25324,2.29723 3.5957,2.8879c2.1714,0.95539 4.29252,0.53688 4.29252,0.53688v1.9963c0,0 -3.34086,0.35342 -5.45151,-0.48762c-1.7747,-0.70717 -2.26185,-2.59304 -3.29129,-2.94005c-1.12239,-0.37833 -3.94796,-0.85012 -3.94796,-0.85012z" fill="#e2c4a5"/><g fill="#752e08"><path d="M249.93757,178.6266l-1.29675,-1.40835l0.68599,-3.20086l1.55402,2.48596l4.60548,-0.17111v2.29435z"/><path d="M224.42706,197.58822v-2.22445h10.73195v2.22445z"/><path d="M239.26566,197.58822v-2.39556h16.08447v2.39557z"/><path d="M255.39288,195.12146v-16.54076h2.13889v16.54076z"/><path d="M255.39288,176.29922v-11.69261h2.28148v11.69261z"/><path d="M235.20781,189.33684c0,0 5.94745,-2.35156 8.20543,-6.51235c3.8013,-7.00465 1.71013,-20.35239 1.71013,-20.35239h2.72567c0,0 2.1385,14.71675 -2.64912,21.83918c-3.32542,4.94713 -7.54671,6.21813 -7.54671,6.21813l-0.05294,4.77697l-2.39244,0.00294z"/><path d="M222.45398,185.13997v-1.9963c0,0 3.39747,0.37938 4.80255,0.853c0.89156,0.30052 2.25324,2.29723 3.5957,2.8879c2.1714,0.95539 10.15919,0.53688 10.15919,0.53688l-3.17779,1.9963c0,0 -6.02974,0.35342 -8.14039,-0.48762c-1.7747,-0.70717 -2.26185,-2.59304 -3.29129,-2.94005c-1.12239,-0.37833 -3.94796,-0.85012 -3.94796,-0.85012z"/></g></g><path d="M213.19281,153.80291h53.29711" fill="none" stroke="#a97a4a" stroke-width="2.5" stroke-linecap="round"/><path d="M197.52614,153.80291h15.63044" fill="none" stroke="url(#color-1)" stroke-width="2.5" stroke-linecap="round"/></g></g></svg>