<svg version="1.1" xmlns="http://www.w3.org/2000/svg" xmlns:xlink="http://www.w3.org/1999/xlink" width="41.41093" height="41.41092" viewBox="0,0,41.41093,41.41092"><g transform="translate(-219.29454,-159.29454)"><g data-paper-data="{&quot;isPaintingLayer&quot;:true}" fill-rule="nonzero" stroke-width="0" stroke-linecap="butt" stroke-linejoin="miter" stroke-miterlimit="10" stroke-dasharray="" stroke-dashoffset="0" style="mix-blend-mode: normal"><path d="M219.29454,200.70546v-41.41092h41.41093v41.41092z" data-paper-data="{&quot;index&quot;:null}" fill="#355aff" stroke="none"/><path d="M248.65964,200.48515c0,0 0.391,-1.97519 1.43488,-4.92723c0.67028,-1.89551 2.57354,-2.92282 3.34717,-4.85519c0.5908,-1.4757 -1.17653,-4.3008 -0.95889,-5.28019c0.51888,-2.33495 3.43975,-8.4022 3.43975,-8.4022c0,0 -1.05769,6.06097 -0.37246,8.93897c0.22969,0.96469 2.21162,2.60713 2.51679,5.1074c0.29774,2.43939 -2.58897,3.43645 -1.81443,5.71227c0.79997,2.35055 3.20845,3.70617 3.20845,3.70617z" fill="#20ad00" stroke="#ffffff"/><path d="M240.09312,200.48515c0,0 0.67096,-3.05784 2.50853,-5.91634c1.14478,-1.78079 2.42261,-4.37369 2.95051,-5.68144c1.3558,-3.35869 3.2937,-7.02509 3.2937,-7.02509c0,0 -0.72841,3.7493 -0.55869,7.44914c0.07441,1.6222 -1.22692,3.78369 -2.08445,5.90887c-1.09829,2.72183 0.78086,5.26484 0.78086,5.26484z" fill="#20ad00" stroke="#ffffff"/><path d="M236.84355,200.48515c0,0 0.51423,-1.72355 1.23707,-5.54483c0.30151,-1.59395 -2.06509,-5.22076 -1.98867,-7.02082c0.08369,-1.97154 4.38077,-2.86835 4.14136,-4.74775c-0.4146,-3.2547 -0.09899,-4.42915 0.06676,-5.95405c0.24429,-2.24749 0.75313,-5.96362 0.75313,-5.96362c0,0 1.20658,3.28656 1.20658,5.99832c0,1.38346 -0.02906,3.55136 0.63438,6.04821c0.53266,2.00471 -3.43795,3.66279 -3.37056,5.85584c0.06571,2.138 1.87299,4.4294 1.54628,6.22428c-0.54238,2.97979 -0.94784,5.1044 -0.94784,5.1044z" data-paper-data="{&quot;index&quot;:null}" fill="#20ad00" stroke="#ffffff"/><path d="M222.72154,200.45281c0,0 0.06155,-3.53272 2.63121,-7.7766c3.2926,-5.43782 -0.7209,-4.52153 -0.4197,-8.41897c0.41714,-5.39757 4.75027,-10.38816 4.75027,-10.38816c0,0 -2.29419,3.0508 -0.23636,9.68161c1.27647,4.1131 5.97197,6.96423 5.10735,11.18317c-0.80966,3.95077 3.46688,5.71895 3.46688,5.71895z" fill="#20ad00" stroke="#ffffff"/></g></g></svg>