<svg version="1.1" xmlns="http://www.w3.org/2000/svg" xmlns:xlink="http://www.w3.org/1999/xlink" width="35.31646" height="41.03081" viewBox="0,0,35.31646,41.03081"><g transform="translate(-222.34177,-159.48459)"><g data-paper-data="{&quot;isPaintingLayer&quot;:true}" fill-rule="nonzero" stroke="none" stroke-width="0" stroke-linecap="butt" stroke-linejoin="miter" stroke-miterlimit="10" stroke-dasharray="" stroke-dashoffset="0" style="mix-blend-mode: normal"><g data-paper-data="{&quot;index&quot;:null}"><path d="M257.65823,195.05744c0,0 -5.54642,1.04244 -9.28979,1.04244c-3.74337,0 -5.70147,-6.06608 -5.70147,-6.06608c0,0 3.42403,-3.8525 7.13679,-3.37484c6.97285,0.89708 7.85447,8.39848 7.85447,8.39848z" data-paper-data="{&quot;index&quot;:null}" fill="#20ad00"/><path d="M253.21266,191.73824c0,0.64407 -2.06974,-0.62796 -4.84422,-0.62796c-2.77448,0 -5.20306,0.01612 -5.20306,-0.62795c0,-0.64407 2.42858,-1.70445 5.20306,-1.70445c2.77448,0 4.84422,2.31629 4.84422,2.96036z" data-paper-data="{&quot;index&quot;:null}" fill="#f29e4a"/></g><path d="M236.84152,200.51541v-41.03081h6.04778v41.03081z" data-paper-data="{&quot;index&quot;:null}" fill="#20ad00"/><g data-paper-data="{&quot;index&quot;:null}"><path d="M230.19624,165.62059c3.71276,-0.47766 7.13679,3.37484 7.13679,3.37484c0,0 -1.9581,6.06608 -5.70147,6.06608c-3.74337,0 -9.28979,-1.04244 -9.28979,-1.04244c0,0 0.88162,-7.5014 7.85447,-8.39848z" data-paper-data="{&quot;index&quot;:null}" fill="#20ad00"/><path d="M231.63154,167.73951c2.77448,0 5.20306,1.06038 5.20306,1.70445c0,0.64407 -2.42858,0.62795 -5.20306,0.62795c-2.77448,0 -4.84422,1.27203 -4.84422,0.62796c0,-0.64407 2.06974,-2.96036 4.84422,-2.96036z" data-paper-data="{&quot;index&quot;:null}" fill="#f29e4a"/></g></g></g></svg>