<svg version="1.1" xmlns="http://www.w3.org/2000/svg" xmlns:xlink="http://www.w3.org/1999/xlink" width="93.39969" height="93.39969" viewBox="0,0,93.39969,93.39969"><defs><linearGradient x1="238.84443" y1="168.4271" x2="238.84443" y2="191.64901" gradientUnits="userSpaceOnUse" id="color-1"><stop offset="0" stop-color="#e3872b"/><stop offset="1" stop-color="#dc570f"/></linearGradient></defs><g transform="translate(-193.30016,-133.30015)"><g data-paper-data="{&quot;isPaintingLayer&quot;:true}" fill-rule="nonzero" stroke="#000000" stroke-width="0" stroke-linecap="butt" stroke-linejoin="miter" stroke-miterlimit="10" stroke-dasharray="" stroke-dashoffset="0" style="mix-blend-mode: normal"><path d="M193.30017,226.69985v-93.39969h93.39969v93.39969z" fill="none"/><path d="M238.84443,168.42711c1.21172,0 3.18608,0.0213 3.18608,0.0213c0,0 3.90141,6.1804 3.90141,11.55151c0,5.524 -4.34713,11.64909 -4.34713,11.64909c0,0 -1.67488,-0.08202 -2.74036,-0.07629c-4.83702,0.03695 -7.08749,-5.10569 -7.08749,-11.57281c0,-6.46712 2.40281,-11.57281 7.08749,-11.57281z" data-paper-data="{&quot;index&quot;:null}" fill="url(#color-1)"/><path d="M248.24306,179.9999c0,6.46713 -1.93841,11.67043 -7.08749,11.70976c-4.83702,0.03695 -7.08749,-5.24263 -7.08749,-11.70976c0,-6.46713 2.4028,-11.70976 7.08749,-11.70976c4.83877,0 7.08749,5.24263 7.08749,11.70976z" data-paper-data="{&quot;index&quot;:null}" fill="#f29e4a"/><path d="M243.77485,180.9244c0,2.0058 0.36921,3.49635 -0.21066,4.75014c-0.51751,1.11897 -1.91639,2.1121 -3.02493,2.12298c-2.2082,0.0217 -3.23559,-3.0772 -3.23559,-6.87312c0,-3.79592 1.55916,-7.79758 3.69782,-7.79758c2.209,0 2.77336,4.00166 2.77336,7.79758z" data-paper-data="{&quot;index&quot;:null}" fill="#dc570f"/><path d="M242.15706,172.43349c2.209,0 3.23559,3.0772 3.23559,6.87312c0,3.79592 -0.88494,7.46634 -3.23559,7.48943c-2.2082,0.02169 -3.23559,-3.69351 -3.23559,-7.48943c0,-2.17074 -0.1035,-4.10643 0.60362,-5.36603c0.5294,-0.94303 1.71633,-1.5071 2.63197,-1.5071z" data-paper-data="{&quot;index&quot;:null}" fill="#ffffff"/><path d="M244.69931,179.99994c0,3.79592 -0.88492,6.85003 -3.23559,6.87312c-2.2082,0.0217 -3.23559,-3.0772 -3.23559,-6.87312c0,-3.79592 1.09693,-6.87312 3.23559,-6.87312c2.209,0 3.23559,3.0772 3.23559,6.87312z" data-paper-data="{&quot;index&quot;:null}" fill="#f29e4a"/></g></g></svg>