<svg version="1.1" xmlns="http://www.w3.org/2000/svg" xmlns:xlink="http://www.w3.org/1999/xlink" width="81.67068" height="85.91405" viewBox="0,0,81.67068,85.91405"><g transform="translate(-199.16466,-134.92129)"><g data-paper-data="{&quot;isPaintingLayer&quot;:true}" fill-rule="nonzero" stroke-width="0" stroke-linecap="butt" stroke-linejoin="miter" stroke-miterlimit="10" stroke-dasharray="" stroke-dashoffset="0" style="mix-blend-mode: normal"><path d="M199.16466,220.83534v-81.67068h81.67068v81.67068z" data-paper-data="{&quot;index&quot;:null}" fill="none" stroke="none"/><g data-paper-data="{&quot;index&quot;:null}" stroke="none"><path d="M249.26868,162.18276c-0.69945,0.64487 -1.27,1.78353 -1.27,1.78353l-14.61835,3.94533c0,0 2.38114,-3.73024 6.97694,-5.6607c4.59579,-1.93045 10.63152,-1.54382 10.63152,-1.54382c0,0 -0.89123,0.71143 -1.72012,1.47565z" fill="#f29e4a"/><path d="M224.07775,184.37906l2.46927,8.47084c0,0 -0.28596,5.76664 -1.14033,5.76664c-1.28442,0 -4.12939,-3.4973 -5.31577,-6.68991c-1.82724,-4.91721 -0.95219,-8.40525 -0.66446,-9.77755c0.17576,-0.8383 1.40495,1.02638 2.72109,1.96379c0.71906,0.51214 1.93021,0.26617 1.93021,0.26617z" fill="#f29e4a"/><g><path d="M257.6335,178.64791c0,2.46328 -0.21511,5.03587 -0.79596,7.69329c-0.39593,1.8114 -1.99102,3.31914 -2.77454,5.20163c-0.44094,1.05941 0.07841,2.47191 -0.5089,3.55001c-1.71465,3.14751 -10.6046,4.52785 -16.56384,3.88016c-8.88498,-0.9657 -13.98749,-4.64053 -14.24223,-12.39335c-0.32004,-9.74021 12.24719,-23.29949 20.64323,-23.29949c8.39604,0 14.24223,7.61047 14.24223,15.36774z" fill="#f32f00"/><path d="M253.81188,194.82663c-2.3414,4.01042 -11.02243,4.9593 -16.98165,4.31161c-2.39119,-0.2599 -6.33093,-1.39504 -6.33093,-1.39504c0,0 1.94303,-2.71551 8.52976,-5.97488c6.58672,-3.25937 10.31228,-3.45217 10.31228,-3.45217z" fill="#ffffff"/></g><g><g><path d="M255.26734,176.29577c0,3.68537 -1.22006,6.67295 -4.66261,6.67295c-4.09315,0 -4.66263,-2.98758 -4.66263,-6.67295c0,-3.68537 0.78633,-6.67295 4.66263,-6.67295c4.09315,0 4.66261,2.98758 4.66261,6.67295z" fill="#ffffff"/><path d="M253.5324,177.02371c0,1.40713 -0.72821,2.54784 -1.62649,2.54784c-0.89829,0 -1.62649,-1.14071 -1.62649,-2.54784c0,-1.40713 0.72821,-2.54784 1.62649,-2.54784c0.89829,0 1.62649,1.1407 1.62649,2.54784z" fill="#f32f00"/></g><g><path d="M261.03623,176.63518c0,3.68537 -0.56946,5.94498 -4.01203,5.94498c-2.14136,0 -3.5783,-2.50226 -3.5783,-6.18763c0,-3.68537 1.43694,-6.67295 3.5783,-6.67295c4.09315,0 4.01203,3.23022 4.01203,6.91559z" fill="#ffffff"/><path d="M259.30131,176.87784c0,1.40713 -0.7282,2.54784 -1.62648,2.54784c-0.89829,0 -1.62651,-1.1407 -1.62651,-2.54784c0,-1.40713 0.72822,-2.54786 1.62651,-2.54786c0.89829,0 1.62648,1.14072 1.62648,2.54786z" fill="#f32f00"/></g></g><path d="M253.1297,193.53425c1.75438,0.74558 3.68346,-0.56148 3.69874,1.14741c0.02429,2.71719 -5.1121,2.01083 -7.56147,-0.64485c-1.35882,-1.47327 -0.11208,-4.204 0.33641,-5.65073c1.11567,-3.59882 4.5108,-6.02238 7.22505,-6.02238c1.65812,0 3.23857,1.62212 2.81696,3.0806c-0.30058,1.03982 -1.12749,0.89708 -2.5499,1.11203c-2.82931,0.42756 -5.72019,6.23234 -3.9658,6.97792z" fill="#f29e4a"/><path d="M235.59117,176.71021c3.52255,3.7075 4.59125,7.27508 2.06203,7.62996c-3.5237,0.49441 -10.70007,2.08935 -15.01474,-0.45858c-1.67298,-0.98795 -2.62374,-3.80486 -3.19988,-5.75185c-2.06203,-6.96831 4.81141,-13.35618 16.1526,-1.41954z" fill="#ffffff"/></g><path d="M235.58351,143.84517c-0.66196,0.66165 -1.73554,0.66085 -2.39702,-0.00176c-0.66196,-0.66231 -0.66117,-1.73558 0.00175,-2.39754c2.61557,-2.61176 6.03794,-6.02898 6.03794,-6.02898c0.66231,-0.66148 1.73575,-0.66069 2.39737,0.00175c0,0 3.96033,3.96562 6.0778,6.08652c0.66165,0.66244 0.66069,1.73554 -0.00175,2.3975c-0.66244,0.66165 -1.73571,0.66086 -2.39736,-0.00175c-2.61158,-2.61557 -3.18457,-3.18254 -3.18457,-3.18254c0,0 -0.00965,8.43887 -0.01184,11.43572c-0.00069,0.93633 -0.76004,1.69476 -1.69637,1.69407c-0.93619,-0.00069 -1.69475,-0.76025 -1.6941,-1.69655c0.00261,-3.57449 0.0117,-11.44492 0.0117,-11.44492c0,0 -1.02202,1.02065 -3.14354,3.13846z" fill="#f29e4a" stroke="#ffffff"/></g></g></svg>