<svg version="1.1" xmlns="http://www.w3.org/2000/svg" xmlns:xlink="http://www.w3.org/1999/xlink" width="85.49398" height="85.49398" viewBox="0,0,85.49398,85.49398"><defs><linearGradient x1="-3285.69704" y1="-2895.28055" x2="-3285.69704" y2="4105.40967" gradientUnits="userSpaceOnUse" id="color-1"><stop offset="0" stop-color="#ffffff"/><stop offset="1" stop-color="#ffffff" stop-opacity="0"/></linearGradient></defs><g transform="translate(-197.25302,-137.25301)"><g data-paper-data="{&quot;isPaintingLayer&quot;:true}" fill-rule="nonzero" stroke-linecap="butt" stroke-linejoin="miter" stroke-miterlimit="10" stroke-dasharray="" stroke-dashoffset="0" style="mix-blend-mode: normal"><path d="M208.63952,205.58013c0.00324,-13.1024 0,-44.63208 0,-51.75c0,-3.5626 2.97813,-5.21784 6.54073,-5.21784c12.68063,0 43.89984,0 51,0c2.96729,0 5.18024,2.50056 5.18024,5.46784c0,6.43742 0,39.20833 0,51.75c0,2.95974 -2.72049,5.55758 -5.68024,5.55758c-6.61442,0 -39.17756,0 -52,0c-3.13138,0 -5.04177,-1.58613 -5.04073,-5.80758z" fill="url(#color-1)" stroke="#a97a4a" stroke-width="2"/><path d="M197.25302,222.74699v-85.49398h85.49398v85.49398z" fill="none" stroke="none" stroke-width="0"/><path d="M207.25301,212.74699v-65.49398h65.49398v65.49398z" fill="none" stroke="none" stroke-width="0"/><g stroke="none" stroke-width="0"><path d="M224.52462,195.43105v-30.83111h30.83111v30.83111z" data-paper-data="{&quot;index&quot;:null}" fill="#efcfaf"/><g fill="#dc570f"><path d="M226.06509,174.34679v-1.33986c0,0 2.99161,4.31731 4.49775,4.31731c1.60734,0 4.86244,-4.31731 4.86244,-4.31731v1.33986c0,0 -3.27322,4.31731 -4.86244,4.31731c-1.52847,0 -4.49775,-4.31731 -4.49775,-4.31731z"/><path d="M235.33846,174.38933v-1.33986c0,0 2.99161,4.31731 4.49775,4.31731c1.60734,0 4.86244,-4.31731 4.86244,-4.31731v1.33986c0,0 -3.27322,4.31731 -4.86244,4.31731c-1.52847,0 -4.49775,-4.31731 -4.49775,-4.31731z"/><path d="M244.6292,174.38933v-1.33986c0,0 2.99161,4.31731 4.49775,4.31731c1.60734,0 4.86244,-4.31731 4.86244,-4.31731v1.33986c0,0 -3.27322,4.31731 -4.86244,4.31731c-1.52847,0 -4.49775,-4.31731 -4.49775,-4.31731z"/></g><path d="M224.52462,195.43105v-30.83111h1.50316v30.83111z" data-paper-data="{&quot;index&quot;:null}" fill="#000000"/><path d="M253.85257,195.43105v-30.83111h1.50316v30.83111z" data-paper-data="{&quot;index&quot;:null}" fill="#000000"/></g></g></g></svg>