<svg version="1.1" xmlns="http://www.w3.org/2000/svg" xmlns:xlink="http://www.w3.org/1999/xlink" width="20.24615" height="42.44082" viewBox="0,0,20.24615,42.44082"><g transform="translate(-229.9989,-158.80878)"><g data-paper-data="{&quot;isPaintingLayer&quot;:true}" fill-rule="nonzero" stroke-linejoin="miter" stroke-miterlimit="10" stroke-dasharray="" stroke-dashoffset="0" style="mix-blend-mode: normal"><g><g><g data-paper-data="{&quot;index&quot;:null}"><path d="M231.24353,200.4996c-0.64117,-2.35073 -0.61718,-8.5455 -0.27236,-10.63909c0.35529,-2.15711 1.25877,-4.73597 1.25877,-4.73597l15.97692,0.07692c0,0 0.97947,2.97827 1.14178,4.26706c0.29148,2.31452 0.26325,8.07538 -0.11265,11.09358" data-paper-data="{&quot;index&quot;:null}" fill="#efcfaf" stroke="#5c442b" stroke-width="1.5" stroke-linecap="butt"/><path d="M246.08733,198.47707v-3.84616" fill="none" stroke="#b2815f" stroke-width="1" stroke-linecap="round"/></g><path d="M243.34633,196.98729v-2.125" fill="none" stroke="#b2815f" stroke-width="1" stroke-linecap="round"/><path d="M233.47133,199.11229v-4" fill="none" stroke="#b2815f" stroke-width="1" stroke-linecap="round"/></g><g data-paper-data="{&quot;index&quot;:null}"><path d="M244.6316,190.13946c-0.96408,-0.35624 -0.21003,-2.30786 -1.79312,-3.02424c-1.29463,-0.58584 -4.98333,0.01058 -5.52147,0.01058c-1.39372,0 0.05598,2.54826 -1.72034,3.07586c-3.3668,1.00002 -4.82225,-2.95843 -4.84777,-6.47051c-0.01616,-2.22573 -0.21898,-5.77633 0.12584,-7.86992c0.35529,-2.15711 1.25877,-5.45284 1.25877,-5.45284l15.97692,0.07693c0,0 0.97947,3.69514 1.14178,4.98393c0.29148,2.31452 0.03373,5.24396 0.16592,8.26189c0.35201,8.03627 -3.82245,6.76457 -4.78653,6.40833z" data-paper-data="{&quot;index&quot;:null}" fill="#efcfaf" stroke="#5c442b" stroke-width="1.5" stroke-linecap="butt"/><path d="M246.0104,178.23016l0.07692,8.36439" fill="none" stroke="#b2815f" stroke-width="1" stroke-linecap="round"/></g><g data-paper-data="{&quot;index&quot;:null}"><path d="M245.18643,175.68996c-1.12421,0.04453 -1.33496,-1.5424 -2.34419,-2.29833c-1.23806,-0.92733 -4.01311,-1.03206 -5.18475,-0.22001c-1.101,0.76309 -0.59048,2.40561 -1.9839,2.81948c-1.81377,0.53873 -3.50845,-0.1844 -4.29039,-3.38896c-0.23146,-0.94854 -0.42237,-1.89968 -0.43238,-3.27796c-0.01617,-2.22573 -0.34398,-4.27632 0.00084,-6.36991c0.35529,-2.15711 1.25877,-2.82432 1.25877,-2.82432l15.97692,0.07693c0,0 0.97947,1.06662 1.14178,2.35541c0.29148,2.31452 0.29182,5.2437 0.16592,8.2619c-0.1259,3.0182 -1.69717,4.76233 -4.30862,4.86578z" data-paper-data="{&quot;index&quot;:null}" fill="#efcfaf" stroke="#5c442b" stroke-width="1.5" stroke-linecap="butt"/><path d="M247.35903,171.66714l-0.07692,-7.06079" fill="none" stroke="#b2815f" stroke-width="1" stroke-linecap="round"/></g><path d="M249.1896,159.55878c0,0 -0.19523,1.78109 -0.92497,2.78575c-0.79141,1.08956 -2.52782,1.15324 -3.83762,0.66925c-0.71634,-0.26469 -0.47523,-1.75239 -1.57549,-2.28879c-1.59147,-0.77587 -4.19551,-0.36644 -4.90275,-0.36644c-1.39372,0 -0.42193,2.42878 -2.19825,2.95638c-0.83612,0.24834 -2.6836,-0.37443 -3.53096,-1.26535c-1.03404,-1.08719 -0.993,-2.51525 -0.993,-2.51525" data-paper-data="{&quot;index&quot;:null}" fill="#efcfaf" stroke="#5c442b" stroke-width="1.5" stroke-linecap="butt"/><path d="M244.74141,170.49448v-1.51271" fill="none" stroke="#b2815f" stroke-width="1" stroke-linecap="round"/><path d="M243.72133,178.875v2.875" fill="none" stroke="#b2815f" stroke-width="1" stroke-linecap="round"/><path d="M234.97133,178.50001v6.56631" fill="none" stroke="#b2815f" stroke-width="1" stroke-linecap="round"/><path d="M245.92197,171.83402v-5.30639" fill="none" stroke="#b2815f" stroke-width="0.5" stroke-linecap="round"/><path d="M242.69606,164.37703v5.90378" fill="none" stroke="#b2815f" stroke-width="0.5" stroke-linecap="round"/><path d="M241.9792,177.80792v6.33233" fill="none" stroke="#b2815f" stroke-width="0.5" stroke-linecap="round"/><path d="M244.01032,182.58704v2.7867" fill="none" stroke="#b2815f" stroke-width="0.5" stroke-linecap="round"/><path d="M245.32458,194.60495v5.37651" fill="none" stroke="#b2815f" stroke-width="0.5" stroke-linecap="round"/><path d="M244.48823,198.42825v0.95582" fill="none" stroke="#b2815f" stroke-width="0.5" stroke-linecap="round"/><path d="M234.09365,186.68799v-3.02565" fill="none" stroke="#b2815f" stroke-width="0.5" stroke-linecap="round"/><path d="M232.06995,171.35189v-4.10807" fill="none" stroke="#b2815f" stroke-width="0.5" stroke-linecap="round"/><path d="M233.69823,169.95761v4.10807" fill="none" stroke="#b2815f" stroke-width="0.5" stroke-linecap="round"/><path d="M233.56254,159.78087v1.49259" fill="none" stroke="#b2815f" stroke-width="0.5" stroke-linecap="round"/></g></g></g></svg>