<svg version="1.1" xmlns="http://www.w3.org/2000/svg" xmlns:xlink="http://www.w3.org/1999/xlink" width="85.49398" height="85.49398" viewBox="0,0,85.49398,85.49398"><defs><linearGradient x1="-3285.69704" y1="-2895.28053" x2="-3285.69704" y2="4105.40968" gradientUnits="userSpaceOnUse" id="color-1"><stop offset="0" stop-color="#ffffff"/><stop offset="1" stop-color="#ffffff" stop-opacity="0"/></linearGradient></defs><g transform="translate(-197.25302,-137.25303)"><g data-paper-data="{&quot;isPaintingLayer&quot;:true}" fill-rule="nonzero" stroke-linecap="butt" stroke-linejoin="miter" stroke-miterlimit="10" stroke-dasharray="" stroke-dashoffset="0" style="mix-blend-mode: normal"><path d="M208.63952,205.58015c0.00324,-13.1024 0,-44.63208 0,-51.75c0,-3.5626 2.97813,-5.21784 6.54073,-5.21784c12.68063,0 43.89984,0 51,0c2.96729,0 5.18024,2.50056 5.18024,5.46784c0,6.43742 0,39.20833 0,51.75c0,2.95974 -2.72049,5.55758 -5.68024,5.55758c-6.61442,0 -39.17756,0 -52,0c-3.13138,0 -5.04177,-1.58613 -5.04073,-5.80758z" fill="url(#color-1)" stroke="#a97a4a" stroke-width="2"/><path d="M197.25302,222.74701v-85.49398h85.49398v85.49398z" fill="none" stroke="none" stroke-width="0"/><path d="M207.25301,212.74701v-65.49398h65.49398v65.49398z" fill="none" stroke="none" stroke-width="0"/><g stroke="none" stroke-width="0"><path d="M220.64153,200.53125c0,0 1.85143,-18.45207 2.75982,-22.07814c1.29937,-5.18674 7.68212,-11.3677 8.2522,-13.34445c0.73101,-2.53477 0.82094,-5.60822 0.82094,-5.60822h15.1379c0,0 0.16309,2.94457 0.94559,5.6264c0.56006,1.91949 7.61,9.25032 8.2593,13.42358c0.64464,4.14337 2.7669,21.98083 2.7669,21.98083z" data-paper-data="{&quot;index&quot;:null}" fill="#000000"/><path d="M219.59745,200.53125c0,0 1.85143,-18.45208 2.75982,-22.07814c1.29936,-5.18675 7.68213,-11.3677 8.25221,-13.34446c0.73101,-2.53477 0.82094,-5.60822 0.82094,-5.60822h2.56611c0,0 0.21588,4.49669 -2.0742,9.00437c-1.78567,3.51481 -6.04995,6.76345 -6.90092,9.67142c-2.05378,7.01828 -3.03186,22.35501 -3.03186,22.35501z" data-paper-data="{&quot;index&quot;:null}" fill="#ffffff"/><path d="M258.06002,200.53125c0,0 -0.97808,-15.33674 -3.03186,-22.35502c-0.85097,-2.90797 -5.11525,-6.1566 -6.90091,-9.67142c-2.29008,-4.50768 -1.90019,-9.00438 -1.90019,-9.00438h2.3921c0,0 0.08993,3.07345 0.82094,5.60822c0.57008,1.97675 6.95284,8.15771 8.25221,13.34446c0.90839,3.62606 2.75982,22.07814 2.75982,22.07814z" data-paper-data="{&quot;index&quot;:null}" fill="#dc570f"/><path d="M245.74248,197.74945c-2.39477,0 -7.95028,0 -12.181,0c-2.63313,0 -4.17634,-1.87206 -4.17634,-4.7426c0,-4.73635 0,-11.66917 0,-14.2278c0,-2.65086 1.74472,-4.17349 4.17634,-4.17349c4.1731,0 10.30332,0 12.70304,0c2.43635,0 4.35036,1.51747 4.35036,4.17349c0,2.57054 0,8.91169 0,13.65869c0,4.747 -3.00988,5.31171 -4.8724,5.31171z" data-paper-data="{&quot;index&quot;:null}" fill="#dc570f"/><g><path d="M233.17576,185.91533c0.93704,-3.82959 4.22894,-6.93409 6.93409,-6.93409c2.70514,0 6.18446,2.16746 6.93409,6.93409c0.59495,3.78309 0.8301,7.03533 -6.93409,6.93409c-8.32878,-0.10861 -7.84428,-3.21423 -6.93409,-6.93409z" fill="#ffffff"/><path d="M242.25905,191.69542l1.61576,0.26914c0,0 -0.27206,2.9352 -0.56929,3.24616c-0.85234,0.89173 -2.17519,1.00278 -3.04734,1.00278c-0.79956,0 -2.3539,0.27939 -3.18921,-0.6208c-1.2129,-1.30711 -0.74797,-4.02637 -0.74797,-4.02637l1.3339,0.16993c0,0 0.00148,1.61032 0.32939,2.03601c0.45874,0.59553 1.38273,0.37582 2.27389,0.37582c0.7408,0 1.33122,0.07344 1.69016,-0.31686c0.591,-0.64264 0.3107,-2.13582 0.3107,-2.13582z" fill="#ffffff"/><path d="M237.80552,181.75564c1.03375,0 0.96816,1.70684 0.96816,4.13081c0,2.42398 -0.45076,4.64717 -1.48451,4.64717c-1.03375,0 -2.51721,-0.15778 -2.77539,-1.67814c-0.40581,-2.38976 2.25799,-7.09984 3.29174,-7.09984z" fill="#dc570f"/><path d="M245.44537,188.85548c-0.25817,1.52035 -1.74163,1.67815 -2.77539,1.67815c-1.03376,0 -1.48451,-2.2232 -1.48451,-4.64717c0,-2.42397 -0.0656,-4.13081 0.96815,-4.13081c1.03376,0 3.69755,4.71007 3.29174,7.09983z" data-paper-data="{&quot;index&quot;:null}" fill="#dc570f"/></g></g></g></g></svg>