<svg version="1.1" xmlns="http://www.w3.org/2000/svg" xmlns:xlink="http://www.w3.org/1999/xlink" width="119.71806" height="119.71806" viewBox="0,0,119.71806,119.71806"><defs><linearGradient x1="239.99937" y1="171.85658" x2="239.99937" y2="202.36703" gradientUnits="userSpaceOnUse" id="color-1"><stop offset="0" stop-color="#da842e"/><stop offset="1" stop-color="#f29e4a"/></linearGradient></defs><g transform="translate(-180.14097,-120.14097)"><g data-paper-data="{&quot;isPaintingLayer&quot;:true}" fill-rule="nonzero" stroke="none" stroke-width="0" stroke-linecap="butt" stroke-linejoin="miter" stroke-miterlimit="10" stroke-dasharray="" stroke-dashoffset="0" style="mix-blend-mode: normal"><g><path d="M236.89696,171.85658h6.23631c0,0 -0.35745,8.99011 0.53289,17.80526c0.7352,7.27908 1.85144,12.70519 -3.37889,12.70519c-6.38816,0 -4.37851,-5.63572 -3.96204,-12.58547c0.54605,-9.11184 0.57172,-17.92497 0.57172,-17.92497z" data-paper-data="{&quot;index&quot;:null}" fill="url(#color-1)"/><g data-paper-data="{&quot;index&quot;:null}"><g data-paper-data="{&quot;index&quot;:null}"><path d="M260.96129,185.0262c0,0 -4.96503,7.55143 -8.91636,14.11395c-2.52523,4.19402 -7.38209,3.7807 -9.62604,2.66919c-0.73257,-0.36287 0.52098,-0.31226 -0.02302,-0.84236c-2.21032,-2.15384 -1.68633,-5.51636 3.21425,-9.73551c7.59938,-6.54267 15.35118,-6.20527 15.35118,-6.20527z" fill="#f29e4a"/><path d="M254.33946,189.01095c2.48165,-2.39442 5.1009,-3.4971 5.25873,-3.32496c0.16163,0.17628 -2.31265,1.34082 -4.98071,3.99818c-1.47409,1.46818 -4.17783,1.87962 -5.77276,3.34202c-4.37125,4.00802 -6.21345,7.66779 -6.46793,7.39026c-0.25448,-0.27754 1.5711,-3.95543 5.94236,-7.96345c1.66014,-1.52219 4.47074,-1.94693 6.02031,-3.44203z" fill="#20ad00"/></g><g data-paper-data="{&quot;index&quot;:null}"><path d="M234.22921,191.24814c4.90058,4.21915 5.42456,7.58167 3.21424,9.73552c-0.544,0.53009 0.70956,0.4795 -0.02302,0.84236c-2.24395,1.11152 -7.10081,1.52482 -9.62605,-2.66919c-3.95133,-6.56253 -8.91636,-14.11396 -8.91636,-14.11396c0,0 7.7518,-0.3374 15.35118,6.20527z" fill="#f29e4a"/><path d="M231.52014,192.46964c4.37125,4.00801 6.19683,7.68591 5.94236,7.96345c-0.25448,0.27754 -2.09668,-3.38224 -6.46793,-7.39025c-1.59492,-1.4624 -4.29866,-1.87384 -5.77276,-3.34202c-2.66806,-2.65736 -5.14233,-3.82191 -4.98071,-3.99818c0.15783,-0.17213 2.77708,0.93055 5.25873,3.32497c1.54957,1.4951 4.36017,1.91985 6.02031,3.44203z" fill="#20ad00"/></g></g></g><path d="M180.14097,239.85903v-119.71806h119.71806v119.71806z" data-paper-data="{&quot;index&quot;:null}" fill="none"/><g><g data-paper-data="{&quot;index&quot;:null}"><g fill="#ffffff"><path d="M235.36311,149.49639c0,0 3.11055,1.78727 4.90039,3.53405c1.91774,1.8716 2.03284,2.96412 1.40973,3.95273c-0.30468,0.48339 -1.60562,-0.2853 -2.90501,-0.63344c-1.57883,-0.42302 -2.7446,0.28559 -3.36116,0.43521z"/><path d="M234.40833,144.44908c0,0 4.36193,0.98583 6.15178,2.73261c1.91774,1.8716 2.03284,2.96412 1.40973,3.95273c-0.30467,0.48339 -1.60561,-0.2853 -2.905,-0.63345c-1.57883,-0.42302 -2.7446,0.28559 -3.36116,0.43521z"/><path d="M233.92102,137.73931c0,0 3.39634,1.15529 5.48888,2.525c2.24205,1.46758 2.56524,2.51753 2.14402,3.60756c-0.20596,0.53298 -1.6305,0.029 -2.9726,-0.06258c-1.63073,-0.11129 -2.63835,0.8084 -3.21458,1.07387z"/><path d="M233.66595,130.96864c0,0 3.45774,0.96639 5.73455,2.00122c2.43952,1.10878 2.94002,2.81899 2.68983,3.96047c-0.12234,0.55816 -1.62813,-0.44462 -2.96852,-0.33063c-1.62864,0.13851 -4.00286,1.58531 -4.53193,1.93551z"/></g><path d="M222.83768,160.16856c-4.14585,-15.09092 11.30582,-31.11028 11.40756,-30.63198c3.90108,18.33889 2.39187,23.99488 4.6,36.13476c0.43869,2.41181 2.24623,5.86597 2.24623,5.86597l-1.29565,4.10709c0,0 -12.8646,-0.57534 -16.95813,-15.47583z" data-paper-data="{&quot;index&quot;:null}" fill="#20ad00"/><path d="M233.30976,160.60855c-0.9163,-0.20084 -1.4963,-1.10645 -1.29546,-2.02275c0.20084,-0.9163 1.10645,-1.4963 2.02275,-1.29546c0.9163,0.20084 1.4963,1.10645 1.29546,2.02275c-0.20084,0.9163 -1.10645,1.4963 -2.02275,1.29546z" fill="#f29e4a"/><path d="M232.66621,152.4906c-0.80177,-0.17573 -1.30926,-0.96815 -1.13353,-1.76991c0.17573,-0.80177 0.96815,-1.30926 1.76991,-1.13353c0.80177,0.17573 1.30926,0.96815 1.13353,1.76991c-0.17573,0.80177 -0.96815,1.30926 -1.76991,1.13353z" fill="#f29e4a"/><path d="M225.88643,149.85275c-0.80177,-0.17573 -1.30926,-0.96815 -1.13353,-1.76991c0.17573,-0.80177 0.96815,-1.30926 1.76991,-1.13353c0.80177,0.17573 1.30926,0.96815 1.13353,1.76991c-0.17573,0.80177 -0.96815,1.30926 -1.76991,1.13353z" fill="#f29e4a"/><path d="M233.80982,142.46067c-0.68723,-0.15063 -1.12222,-0.82984 -0.9716,-1.51707c0.15063,-0.68723 0.82984,-1.12222 1.51707,-0.9716c0.68723,0.15063 1.12222,0.82984 0.9716,1.51707c-0.15063,0.68723 -0.82984,1.12222 -1.51707,0.9716z" fill="#f29e4a"/><path d="M227.03698,157.49487c-0.68723,-0.15063 -1.12222,-0.82984 -0.9716,-1.51707c0.15063,-0.68723 0.82984,-1.12222 1.51707,-0.9716c0.68723,0.15063 1.12222,0.82984 0.9716,1.51707c-0.15063,0.68723 -0.82984,1.12222 -1.51707,0.9716z" fill="#f29e4a"/><path d="M232.55404,170.00635c-0.9163,-0.20084 -1.4963,-1.10645 -1.29546,-2.02275c0.20084,-0.9163 1.10645,-1.4963 2.02275,-1.29546c0.9163,0.20084 1.4963,1.10645 1.29546,2.02275c-0.20084,0.9163 -1.10645,1.4963 -2.02275,1.29546z" fill="#f29e4a"/><path d="M229.22449,165.36426c-0.45814,-0.10042 -0.74814,-0.55322 -0.64773,-1.01137c0.10042,-0.45814 0.55322,-0.74814 1.01137,-0.64773c0.45814,0.10042 0.74814,0.55322 0.64773,1.01137c-0.10042,0.45814 -0.55322,0.74814 -1.01137,0.64773z" fill="#f29e4a"/><path d="M230.66208,136.98903c-0.68723,-0.15063 -1.12222,-0.82984 -0.9716,-1.51707c0.15063,-0.68723 0.82984,-1.12222 1.51707,-0.9716c0.68723,0.15063 1.12222,0.82984 0.9716,1.51707c-0.15063,0.68723 -0.82984,1.12222 -1.51707,0.9716z" fill="#f29e4a"/></g><g data-paper-data="{&quot;index&quot;:null}"><g fill="#ffffff"><path d="M244.26798,156.78495c-0.61656,-0.14962 -1.78232,-0.85823 -3.36115,-0.43521c-1.2994,0.34814 -2.60034,1.11683 -2.90501,0.63344c-0.62311,-0.98861 -0.50801,-2.08113 1.40973,-3.95273c1.78985,-1.74678 4.9004,-3.53404 4.9004,-3.53404z"/><path d="M243.97137,150.93619c-0.61656,-0.14962 -1.78232,-0.85823 -3.36116,-0.43521c-1.2994,0.34814 -2.60033,1.11684 -2.905,0.63344c-0.62311,-0.98861 -0.50801,-2.08113 1.40973,-3.95273c1.78985,-1.74678 6.15178,-2.73261 6.15178,-2.73261z"/><path d="M244.30832,144.88317c-0.57624,-0.26548 -1.58386,-1.18516 -3.21458,-1.07387c-1.3421,0.09159 -2.76665,0.59556 -2.9726,0.06258c-0.42122,-1.09004 -0.09803,-2.13998 2.14402,-3.60756c2.09254,-1.36971 5.48888,-2.525 5.48888,-2.525z"/><path d="M245.08516,138.53521c-0.52907,-0.3502 -2.90329,-1.797 -4.53193,-1.93551c-1.34038,-0.11399 -2.84617,0.88879 -2.96851,0.33063c-0.25019,-1.14148 0.25031,-2.85169 2.68983,-3.96047c2.27682,-1.03483 5.73456,-2.00122 5.73456,-2.00122z"/></g><path d="M256.83736,160.16857c-4.09353,14.9005 -16.95812,15.47583 -16.95812,15.47583l-1.29565,-4.10709c0,0 1.80754,-3.45417 2.24623,-5.86597c2.20814,-12.13988 0.69892,-17.79587 4.60001,-36.13476c0.10174,-0.47831 15.55342,15.54106 11.40756,30.63198z" data-paper-data="{&quot;index&quot;:null}" fill="#20ad00"/><path d="M244.34254,159.31309c-0.20084,-0.9163 0.37916,-1.82191 1.29546,-2.02275c0.9163,-0.20084 1.82191,0.37916 2.02275,1.29546c0.20084,0.9163 -0.37916,1.82191 -1.29546,2.02275c-0.9163,0.20084 -1.82191,-0.37916 -2.02275,-1.29546z" fill="#f29e4a"/><path d="M245.23893,151.35707c-0.17573,-0.80176 0.33177,-1.59418 1.13353,-1.76991c0.80176,-0.17573 1.59418,0.33176 1.7699,1.13353c0.17573,0.80176 -0.33176,1.59418 -1.13352,1.76991c-0.80176,0.17573 -1.59418,-0.33176 -1.76991,-1.13353z" fill="#f29e4a"/><path d="M252.01871,148.71922c-0.17573,-0.80176 0.33177,-1.59418 1.13353,-1.7699c0.80176,-0.17573 1.59418,0.33177 1.7699,1.13353c0.17573,0.80176 -0.33176,1.59418 -1.13353,1.7699c-0.80176,0.17573 -1.59418,-0.33177 -1.76991,-1.13353z" fill="#f29e4a"/><path d="M244.34817,141.48908c-0.15062,-0.68723 0.28437,-1.36644 0.9716,-1.51707c0.68723,-0.15062 1.36644,0.28437 1.51707,0.9716c0.15062,0.68723 -0.28437,1.36644 -0.9716,1.51707c-0.68723,0.15062 -1.36644,-0.28437 -1.51707,-0.9716z" fill="#f29e4a"/><path d="M251.121,156.52327c-0.15062,-0.68723 0.28437,-1.36644 0.9716,-1.51707c0.68723,-0.15062 1.36644,0.28437 1.51707,0.97159c0.15062,0.68723 -0.28437,1.36644 -0.9716,1.51707c-0.68723,0.15062 -1.36644,-0.28437 -1.51707,-0.97159z" fill="#f29e4a"/><path d="M245.09826,168.71089c-0.20084,-0.9163 0.37916,-1.82191 1.29546,-2.02275c0.9163,-0.20084 1.82191,0.37916 2.02275,1.29546c0.20084,0.9163 -0.37916,1.82191 -1.29546,2.02275c-0.9163,0.20084 -1.82191,-0.37916 -2.02275,-1.29546z" fill="#f29e4a"/><path d="M249.43919,164.71653c-0.10041,-0.45815 0.18958,-0.91096 0.64773,-1.01137c0.45815,-0.10041 0.91096,0.18958 1.01137,0.64773c0.10041,0.45815 -0.18958,0.91096 -0.64773,1.01137c-0.45815,0.10041 -0.91096,-0.18958 -1.01137,-0.64773z" fill="#f29e4a"/><path d="M247.49591,136.01743c-0.15062,-0.68723 0.28437,-1.36644 0.97159,-1.51707c0.68723,-0.15062 1.36645,0.28437 1.51707,0.9716c0.15062,0.68723 -0.28438,1.36644 -0.9716,1.51707c-0.68723,0.15062 -1.36644,-0.28437 -1.51706,-0.9716z" fill="#f29e4a"/></g></g></g></g></svg>