<svg version="1.1" xmlns="http://www.w3.org/2000/svg" xmlns:xlink="http://www.w3.org/1999/xlink" width="112.66618" height="112.66618" viewBox="0,0,112.66618,112.66618"><g transform="translate(-183.66691,-123.66691)"><g data-paper-data="{&quot;isPaintingLayer&quot;:true}" fill-rule="nonzero" stroke-linejoin="miter" stroke-miterlimit="10" stroke-dasharray="" stroke-dashoffset="0" style="mix-blend-mode: normal"><g data-paper-data="{&quot;index&quot;:null}" stroke="none" stroke-width="0" stroke-linecap="butt"><path d="M245.12374,176.11871l6.13437,-1.82896c0,0 -0.24139,-1.02527 -1.05597,-2.48683c-1.06913,-1.91832 -2.92477,-4.61334 -4.50368,-6.97993c-2.19071,-3.28356 -2.41381,-10.14903 -1.162,-14.48772c1.16267,-4.02967 3.84365,-6.53609 6.0149,-6.80724c2.31882,-0.28958 3.9134,-0.74956 5.67076,2.20436c1.16964,1.96602 2.49343,6.10142 3.52969,7.83162c1.57127,2.62348 3.08641,1.05338 4.07296,4.92261c0.98657,3.86923 0.82932,8.33572 0.53216,10.16591c-0.59768,3.68134 -1.5969,5.11625 -2.08555,5.08307c-0.43367,-0.02945 -1.16411,-3.83461 -2.09643,-5.652c-0.77251,-1.50587 -1.69643,-0.92304 -2.58978,-2.22054c-0.65769,-0.95522 -1.63804,-2.54598 -2.50284,-2.03342c-3.06858,1.8187 0.19527,2.28374 0.62721,5.09467c0.2856,1.85859 0.73104,3.83333 1.66623,5.03374c0.46871,0.60165 2.57134,1.24117 2.44546,1.76131c-0.09603,0.39675 -1.58803,1.30833 -2.24139,2.22647c-0.91692,1.28851 -1.12504,2.70771 -1.7695,3.76707c-1.10368,1.81424 -0.33645,4.25425 -2.14532,6.17171c-1.80886,1.91747 -5.2195,2.80627 -6.17569,2.64889z" data-paper-data="{&quot;index&quot;:null}" fill="#f29e4a"/><path d="M258.57574,160.13387c-0.11787,-0.94383 0.55171,-1.80451 1.49553,-1.92237c0.94383,-0.11787 1.8045,0.55171 1.92236,1.49554c0.11787,0.94383 0.42089,1.68303 -0.52294,1.8009c-0.49153,0.06138 -0.33267,-0.8277 -0.93874,-1.0894c-0.55769,-0.24081 -1.89975,0.16763 -1.95623,-0.28468z" data-paper-data="{&quot;index&quot;:null}" fill="#20ad00"/><g data-paper-data="{&quot;index&quot;:null}"><path d="M252.01691,141.36546c4.30004,-0.23397 4.70994,3.96313 5.4003,9.49126c0.69035,5.52813 -0.36379,8.22754 -2.65594,8.51378c-2.29216,0.28624 -4.95432,-1.94907 -5.64467,-7.4772c-0.69035,-5.52813 -0.87435,-10.32246 2.90031,-10.52784z" fill="#ffffff"/><path d="M255.51255,148.20057c0.94383,-0.11787 1.22481,1.18291 1.47738,3.20538c0.25257,2.02249 0.30011,3.35242 -0.64372,3.47029c-0.94383,0.11787 -2.03433,-1.08182 -2.2869,-3.10431c-0.25257,-2.02249 0.50941,-3.45349 1.45324,-3.57136z" fill="#20ad00"/></g></g><path d="M236.13847,193.67612c0,0 -3.03128,-0.24561 -6.74251,2.94111c-3.71123,3.18673 1.8797,4.59088 -0.66989,5.51564c-1.46535,0.5315 -7.14739,-1.33473 -8.04961,-3.69353c-1.17908,-3.08264 3.02693,-8.91519 3.02693,-8.91519z" data-paper-data="{&quot;index&quot;:null}" fill="#f29e4a" stroke="none" stroke-width="0" stroke-linecap="butt"/><path d="M249.00011,188.90277c0,0 2.61377,5.83254 1.43469,8.91518c-0.90222,2.3588 -8.97261,4.62309 -10.43796,4.09159c-2.54958,-0.92476 3.17033,-3.07921 2.11652,-5.51564c-1.0538,-2.43643 -5.9464,-3.33917 -5.9464,-3.33917z" data-paper-data="{&quot;index&quot;:null}" fill="#f29e4a" stroke="none" stroke-width="0" stroke-linecap="butt"/><g><path d="M217.8887,190.44889c0,0 -0.2004,-4.99448 -0.2004,-7.45743c0,-10.5986 1.47697,-20.51682 11.60542,-22.30423c6.65677,-1.17475 10.73614,0.18386 14.31764,5.26879c2.00429,2.84564 3.64491,4.69214 3.64491,4.69214c0,0 -0.24792,5.12519 -0.24792,7.73743c0,2.10985 2.37321,3.62507 0.9545,8.90589c-0.77113,2.87036 -3.13558,3.36398 -5.12262,4.70057c-3.15356,2.12124 -6.71605,4.12375 -11.75626,4.12375z" data-paper-data="{&quot;index&quot;:null}" fill="#20ad00" stroke="none" stroke-width="NaN" stroke-linecap="butt"/><g data-paper-data="{&quot;index&quot;:null}" fill="#f29e4a" stroke="none" stroke-width="0" stroke-linecap="butt"><path d="M217.47001,183.34455l20.44081,-22.41792l2.15079,1.22238l-22.29951,24.79516z"/><path d="M222.83503,193.84998l22.76673,-25.16023l1.45257,1.94738l-22.63692,24.95254z"/></g><g data-paper-data="{&quot;index&quot;:null}" fill="#f29e4a" stroke="none" stroke-width="0" stroke-linecap="butt"><path d="M246.36613,187.10155l-22.28331,-24.49884l2.25373,-1.0016l21.61198,23.76073z"/><path d="M238.30997,194.97457l-20.02987,-22.00415l0.8081,-2.8852l20.80415,23.14964z"/></g><path d="M221.39069,167.96829c0.64034,-1.41844 2.98473,-2.64458 2.98473,-2.64458c0,0 -1.76603,2.73094 -2.34677,4.15637c-0.61523,1.51012 -1.24708,4.66491 -1.24708,4.66491c0,0 -0.63148,-3.42859 0.60913,-6.1767z" data-paper-data="{&quot;index&quot;:null}" fill="#ffffff" stroke="none" stroke-width="0" stroke-linecap="butt"/><path d="M247.78462,170.45618c0,0 -0.41396,2.40803 -0.26348,5.39456c0.15661,3.10835 1.41211,7.05447 0.4141,10.51364c-0.73989,2.56452 -3.22316,4.8614 -5.66075,6.35086c-3.4718,2.12141 -9.02349,3.38428 -13.8968,2.58483c-2.99917,-0.49201 -5.55443,-3.00494 -7.7651,-3.53338c-2.08238,-0.49777 -4.87803,-0.07946 -4.87803,-0.07946" data-paper-data="{&quot;index&quot;:null}" fill="none" stroke="#ffffff" stroke-width="3.5" stroke-linecap="round"/></g><path d="M183.66691,236.33309v-112.66618h112.66618v112.66618z" data-paper-data="{&quot;index&quot;:null}" fill="none" stroke="none" stroke-width="0" stroke-linecap="butt"/></g></g></svg>