<svg version="1.1" xmlns="http://www.w3.org/2000/svg" xmlns:xlink="http://www.w3.org/1999/xlink" width="109.33333" height="109.33333" viewBox="0,0,109.33333,109.33333"><g transform="translate(-185.33335,-125.33336)"><g data-paper-data="{&quot;isPaintingLayer&quot;:true}" fill-rule="nonzero" stroke-linecap="butt" stroke-linejoin="miter" stroke-miterlimit="10" stroke-dasharray="" stroke-dashoffset="0" style="mix-blend-mode: normal"><path d="M185.33336,234.66669v-109.33333h109.33333v109.33333z" fill="none" stroke="none" stroke-width="0"/><g><g stroke="none" stroke-width="0"><path d="M240.40572,174.61467c4.28015,0 7.65433,1.71412 8.33479,5.27007c1.1698,6.11313 -3.30334,8.42715 -7.5817,8.53315c-4.70633,0.1166 -10.50708,0.10755 -11.62756,-1.49331c-1.29105,-1.84456 2.52127,-5.43234 3.12457,-7.2908c1.1698,-3.60358 3.46975,-5.01911 7.74989,-5.01911z" data-paper-data="{&quot;index&quot;:null}" fill="#908816"/><path d="M228.44564,177.59942c0,0 1.75866,-0.98113 3.20324,-1.11228c1.74925,-0.15881 2.03568,0.9795 2.03568,0.9795c0,0 1.98324,0.66288 2.22663,2.70163c0.28449,2.38317 -1.49505,5.85588 -0.75249,6.44233c0.36304,0.28672 8.9369,0.4866 9.65834,-0.45513c0.35477,-0.46308 2.41566,-1.94968 2.88408,-4.08637c0.47442,-2.16409 -0.64585,-4.97563 -0.64585,-4.97563l2.91168,0.44079c0,0 0.50272,3.13617 -1.05083,6.99268c-1.03116,2.55973 -0.82531,2.21842 -0.57329,3.45463c0.14361,0.70437 2.90171,2.94468 3.35389,4.00707c0.68584,1.61137 -1.52294,4.07236 -1.52294,4.07236l-9.24578,0.19484c0,0 1.58077,-1.93453 1.4417,-3.04244c-0.08068,-0.64283 -1.82549,-0.99879 -2.83117,-1.01156c-1.02797,-0.01304 -2.44712,0.33137 -2.5463,0.98754c-0.16245,1.07486 1.00266,2.9716 1.00266,2.9716l-9.66716,-0.10565c0,0 -2.15051,-3.84601 -1.68676,-4.95868c0.52961,-1.27066 4.07625,-5.65709 4.07625,-5.65709c0,0 1.59606,-1.02184 2.42769,-2.44741c0.44975,-0.77096 1.12182,-2.88462 -0.0196,-4.22222c-1.6444,-1.92702 -4.67969,-1.17053 -4.67969,-1.17053z" data-paper-data="{&quot;index&quot;:null}" fill="#f32f00"/></g><path d="M244.08408,200.12601c-2.5463,0 -2.82133,-3.92233 -2.82133,-3.92233c0,0 5.3672,-0.49029 7.91348,-0.49029c0.20666,0 4.12127,0.50122 3.54114,3.59548c-0.24949,1.33072 -8.63331,0.81714 -8.63331,0.81714z" data-paper-data="{&quot;index&quot;:null}" fill="#908816" stroke="none" stroke-width="0"/><path d="M228.59679,195.54985c3.02373,0 9.39726,0.49029 9.39726,0.49029c0,0 -0.32661,3.92233 -3.35033,3.92233c-3.02373,0 -8.84168,0.51728 -9.07042,-0.81715c-0.58012,-3.38432 3.02348,-3.59547 3.02348,-3.59547z" data-paper-data="{&quot;index&quot;:null}" fill="#908816" stroke="none" stroke-width="0"/><path d="M236.81708,178.92966c0,-0.67695 0.54877,-1.22573 1.22573,-1.22573c0.67695,0 1.22573,0.54877 1.22573,1.22573c0,0.67695 -0.54877,1.22573 -1.22573,1.22573c-0.67695,0 -1.22573,-0.54877 -1.22573,-1.22573z" data-paper-data="{&quot;index&quot;:null}" fill="#f29e4a" stroke="none" stroke-width="0"/><path d="M242.04687,178.92966c0,-0.67695 0.54877,-1.22573 1.22573,-1.22573c0.67695,0 1.22573,0.54877 1.22573,1.22573c0,0.67695 -0.54877,1.22573 -1.22573,1.22573c-0.67695,0 -1.22573,-0.54877 -1.22573,-1.22573z" data-paper-data="{&quot;index&quot;:null}" fill="#f29e4a" stroke="none" stroke-width="0"/><g stroke="none" stroke-width="0"><path d="M229.21133,190.55179c-0.93929,0.7084 -1.10013,3.12163 -1.10013,3.12163c0,0 -5.38056,-4.03467 -5.25952,-7.79586c0.18057,-5.61126 5.66711,-9.80861 8.30411,-8.78949c5.35993,2.07142 2.56872,5.59941 2.56872,5.59941c0,0 -2.45572,1.13538 -2.46645,2.21109c-0.01154,1.15549 2.42241,3.94046 2.42241,3.94046z" data-paper-data="{&quot;index&quot;:null}" fill="#908816"/><path d="M228.9528,190.22745c0.58969,-0.89865 1.79139,-2.03808 2.62087,-2.3589c0.87705,-0.33922 1.98128,-0.3877 2.75695,0.1213c0.54156,0.35537 -0.3549,1.92832 -0.2227,2.65265c0.23622,1.29431 1.08833,1.98601 -0.13787,3.85465c-1.93052,2.94198 -4.25946,1.34305 -5.48465,0.01727c-1.37692,-1.48996 -0.83549,-2.30147 0.4674,-4.28697z" data-paper-data="{&quot;index&quot;:null}" fill="#f29e4a"/></g><g data-paper-data="{&quot;index&quot;:null}" stroke="none" stroke-width="0"><path d="M245.50907,188.10892c0,0 2.2981,-2.05028 3.11968,-3.74127c0.48713,-1.0026 0.67378,-4.46592 1.08497,-6.03725c0.34233,-1.30818 0.95585,-0.84281 0.95585,-0.84281c0,0 3.98155,2.42514 4.16212,8.03641c0.12103,3.7612 -3.75334,7.41932 -3.75334,7.41932c0,0 -0.16084,-2.41323 -1.10013,-3.12163z" data-paper-data="{&quot;index&quot;:null}" fill="#908816"/><path d="M250.23673,189.49732c1.30289,1.98551 1.84433,2.797 0.4674,4.28697c-1.22518,1.32578 -3.55412,2.92471 -5.48465,-0.01727c-1.22621,-1.86865 -0.37409,-2.56035 -0.13787,-3.85465c0.13219,-0.72433 -0.76427,-2.29728 -0.2227,-2.65265c0.77567,-0.50899 1.8799,-0.46053 2.75695,-0.1213c0.82948,0.32083 2.03117,1.46025 2.62087,2.35891z" data-paper-data="{&quot;index&quot;:null}" fill="#f29e4a"/></g><g stroke="none" stroke-width="0"><g><path d="M231.99626,170.84289c0,-4.8242 4.01185,-7.65395 10.83384,-7.42764c6.56797,0.21789 4.66007,2.11525 7.39267,4.32017c1.11809,0.90216 3.22803,1.11629 4.6354,2.15906c1.40736,1.04277 2.29207,2.46004 2.29207,3.78103c0,0.93278 -1.654,1.29034 -2.75638,1.48536c-1.95039,0.34505 -2.0487,2.36373 -3.84549,3.19721c-2.92443,1.35655 -4.92429,1.21982 -8.15408,1.21982c-4.89827,0 -7.82363,0.16497 -9.82355,-2.75526c-0.78696,-1.14912 -0.5745,-4.61748 -0.5745,-5.97974z" data-paper-data="{&quot;index&quot;:null}" fill="#f29e4a"/><path d="M243.15909,176.84151c-0.0412,-0.3785 0.94828,-0.43882 1.65101,-1.21278c0.63747,-0.70207 0.9308,-2.13403 2.0295,-2.25359c1.03792,-0.11293 2.01324,1.57671 3.37365,1.9367c1.66728,0.4412 3.64227,-0.38518 3.68552,0.01232c0.00942,0.08661 0.27129,1.76545 -0.16005,2.11878c-0.48495,0.39724 -1.67004,-0.53191 -1.67004,-0.53191c0,0 -0.71499,1.22681 -1.32423,1.51553c-1.26074,0.59746 -1.826,-0.36628 -1.826,-0.36628c0,0 -1.56201,0.89171 -2.05385,0.75257c-0.88344,-0.24989 -1.39116,-1.37577 -1.39116,-1.37577c0,0 -2.27783,-0.25982 -2.31436,-0.5956z" data-paper-data="{&quot;index&quot;:null}" fill="#908816"/><path d="M233.77159,164.8211c3.02476,-1.4313 7.00802,-2.36367 8.25552,-0.63604c0.6838,0.94699 -3.56615,5.21504 -3.02608,6.08338c0.52241,0.83993 1.38612,1.75568 1.0339,2.88332c-0.14726,0.47149 -0.65518,1.67899 -1.23944,1.77096c-0.61381,0.09661 -1.31187,-0.92501 -1.76452,-0.50635c-1.09464,1.01244 -1.33701,3.26046 -2.38781,3.26046c-1.86773,0 -4.81355,0.24365 -5.62941,-1.32774c-1.56781,-3.0197 0.40771,-5.29999 0.61786,-6.29853c0.65368,-3.10604 1.11521,-3.79814 4.13998,-5.22944z" data-paper-data="{&quot;index&quot;:null}" fill="#908816"/><path d="M235.00009,172.9921c0,-1.62458 1.14874,-2.59846 1.93094,-2.59846c0.7822,0 1.4163,0.97389 1.4163,2.59846c0,1.62458 -0.6341,2.94156 -1.4163,2.94156c-0.7822,0 -1.93094,-1.31699 -1.93094,-2.94156z" data-paper-data="{&quot;index&quot;:null}" fill="#f29e4a"/><path d="M246.4094,167.00005c0.84237,0 1.52526,1.02431 1.52526,2.28788c0,1.26355 -0.68289,2.28788 -1.52526,2.28788c-0.84237,0 -1.52526,-1.02431 -1.52526,-2.28788c0,-1.26355 0.68289,-2.28788 1.52526,-2.28788z" data-paper-data="{&quot;index&quot;:null}" fill="#908816"/><path d="M230.72109,165.039c0.38182,-0.75086 1.79526,-5.7141 10.78573,-5.22944c5.38285,0.29017 7.1387,3.76802 7.50626,3.73832c2.88384,-0.23308 6.11207,1.00616 6.11207,1.49112c0,0.84237 -5.70692,1.52526 -12.74676,1.52526c-7.03985,0 -12.52887,0.18869 -11.6573,-1.52526z" data-paper-data="{&quot;index&quot;:null}" fill="#f32f00"/></g></g><path d="M234.69281,185.872c0,-0.62388 0.50575,-1.12964 1.12964,-1.12964c0.62388,0 1.12964,0.50575 1.12964,1.12964c0,0.62388 -0.50575,1.12964 -1.12964,1.12964c-0.62388,0 -1.12964,-0.50575 -1.12964,-1.12964z" fill="#f29e4a" stroke="#f29e4a" stroke-width="1"/></g></g></g></svg>