<svg version="1.1" xmlns="http://www.w3.org/2000/svg" xmlns:xlink="http://www.w3.org/1999/xlink" width="109.33333" height="109.33333" viewBox="0,0,109.33333,109.33333"><g transform="translate(-185.33335,-125.33335)"><g data-paper-data="{&quot;isPaintingLayer&quot;:true}" fill-rule="nonzero" stroke="none" stroke-width="0" stroke-linecap="butt" stroke-linejoin="miter" stroke-miterlimit="10" stroke-dasharray="" stroke-dashoffset="0" style="mix-blend-mode: normal"><path d="M185.33335,234.66668v-109.33333h109.33333v109.33333z" fill="none"/><g data-paper-data="{&quot;index&quot;:null}"><path d="M256.69507,184.78305c-2.30643,0.26862 -2.69179,-0.77934 -3.64936,-3.32314c-0.43341,-1.15135 -0.67677,-3.03103 -0.41413,-4.01448c0.27772,-1.03985 0.97753,-2.0937 1.97132,-2.46781c0.69385,-0.26119 1.54395,1.62855 2.30297,1.99475c1.35626,0.65436 2.57055,0.33277 3.47177,2.72687c1.41888,3.76924 -1.63031,4.84478 -3.68258,5.08381z" data-paper-data="{&quot;index&quot;:null}" fill="#f29e4a"/><path d="M252.66461,175.81236l2.65362,9.17308c0,0 -5.75602,0.30232 -8.79896,-1.44009c-4.53969,-2.59946 -7.68984,-7.01661 -7.68984,-7.01661l8.24859,-2.74742c0,0 1.73804,1.9408 2.61088,2.41484c0.93759,0.5092 2.9757,-0.38382 2.9757,-0.38382z" data-paper-data="{&quot;index&quot;:null}" fill="#908816"/></g><path d="M250.45063,198.85629c-2.96936,1.2693 -4.87835,-2.73871 -4.87835,-2.73871c0,0 4.20444,-3.07794 7.1738,-4.34724c0.24099,-0.10301 3.64227,-1.35905 5.35301,1.6427c1.34879,2.36665 -7.64847,5.44325 -7.64847,5.44325z" data-paper-data="{&quot;index&quot;:null}" fill="#908816"/><path d="M226.03942,197.61055c-0.98838,-0.67679 -2.01501,-1.68484 -2.08711,-2.66912c-0.11531,-1.5743 1.17669,-3.08778 1.17669,-3.08778c0,0 5.2183,2.00244 7.86563,3.64188c0,0 4.07416,2.60353 2.73552,3.88814c-1.33864,1.28461 -4.38753,1.85822 -9.69073,-1.77312z" data-paper-data="{&quot;index&quot;:null}" fill="#908816"/><path d="M240.63187,171.3414c4.89882,0 8.76071,2.28626 9.53953,7.02913c1.33888,8.15359 -4.64276,9.55457 -9.53953,9.69595c-11.59322,0.33472 -11.4878,-5.40057 -10.19803,-10.03067c1.33888,-4.80639 5.29922,-6.69441 10.19803,-6.69441z" data-paper-data="{&quot;index&quot;:null}" fill="#908816"/><path d="M236.01114,181.11177c2.48835,-3.22563 2.1372,-9.73097 2.1372,-9.73097l2.54838,-0.1617c0,0 -0.75172,7.05943 0.82527,8.38462c0.41552,0.34918 2.47117,0.59261 3.29689,-0.55428c0.81731,-1.1352 0.40688,-6.90907 0.40688,-6.90907l2.47059,1.454l1.53714,10.44451c0,0 -1.37642,1.59258 0.12537,2.34752c4.06832,2.0451 4.92044,5.20531 4.92044,5.20531l-9.55664,5.07756c0,0 -1.07624,-4.01378 -3.03531,-4.5884c-1.95907,-0.57463 -0.79883,-0.2886 -2.89617,1.49261c-1.33295,1.13203 -4.15374,3.69198 -4.15374,3.69198c0,0 -3.62333,-1.55914 -5.33184,-2.35849c-1.33035,-0.62242 -4.40353,-3.36895 -4.40353,-3.36895c0,0 3.25874,-1.45924 4.92858,-2.95899c1.2351,-1.10929 0.44024,-4.31445 0.44024,-4.31445c0,0 3.2519,0.07281 5.74025,-3.15282z" data-paper-data="{&quot;index&quot;:null}" fill="#f32f00"/><path d="M238.24841,182.14598c0,-0.7748 0.6281,-1.4029 1.4029,-1.4029c0.7748,0 1.4029,0.6281 1.4029,1.4029c0,0.7748 -0.6281,1.4029 -1.4029,1.4029c-0.7748,0 -1.4029,-0.6281 -1.4029,-1.4029z" data-paper-data="{&quot;index&quot;:null}" fill="#f29e4a"/><path d="M244.23412,182.14598c0,-0.7748 0.6281,-1.4029 1.4029,-1.4029c0.7748,0 1.4029,0.6281 1.4029,1.4029c0,0.7748 -0.6281,1.4029 -1.4029,1.4029c-0.7748,0 -1.4029,-0.6281 -1.4029,-1.4029z" data-paper-data="{&quot;index&quot;:null}" fill="#f29e4a"/><path d="M232.92706,163.90826c0,-4.85542 4.03781,-7.70348 10.90394,-7.4757c6.61047,0.2193 4.69022,2.12894 7.4405,4.34811c1.12532,0.908 3.24892,1.12351 4.66539,2.17303c1.41646,1.04952 2.3069,2.47596 2.3069,3.8055c0,0.93882 -1.66469,1.29868 -2.77421,1.49497c-1.96301,0.34728 -2.06196,2.37903 -3.87036,3.21789c-2.94335,1.36533 -4.95615,1.22771 -8.20683,1.22771c-4.92997,0 -7.87426,0.16604 -9.88711,-2.77308c-0.79206,-1.15655 -0.57823,-4.64736 -0.57823,-6.01844z" data-paper-data="{&quot;index&quot;:null}" fill="#f29e4a"/><path d="M244.16212,169.94566c-0.04146,-0.38096 0.95442,-0.44165 1.6617,-1.22063c0.64158,-0.70661 0.93681,-2.14784 2.04264,-2.26817c1.04463,-0.11367 2.02627,1.58691 3.39548,1.94923c1.67807,0.44405 3.66583,-0.38768 3.70937,0.01241c0.00949,0.08717 0.27304,1.77687 -0.16109,2.13249c-0.48808,0.39981 -1.68085,-0.53535 -1.68085,-0.53535c0,0 -0.71961,1.23475 -1.3328,1.52534c-1.2689,0.60133 -1.83782,-0.36864 -1.83782,-0.36864c0,0 -1.57212,0.89747 -2.06715,0.75744c-0.88916,-0.25151 -1.40015,-1.38467 -1.40015,-1.38467c0,0 -2.29256,-0.2615 -2.32934,-0.59946z" data-paper-data="{&quot;index&quot;:null}" fill="#908816"/><path d="M234.71388,157.84747c3.04434,-1.44057 7.05335,-2.37897 8.30893,-0.64016c0.68823,0.95312 -3.58922,5.24878 -3.04566,6.12274c0.52579,0.84537 1.39509,1.76705 1.0406,2.90197c-0.14822,0.47454 -0.65942,1.68985 -1.24746,1.78241c-0.61778,0.09724 -1.32036,-0.931 -1.77594,-0.50963c-1.10172,1.01899 -1.34566,3.28156 -2.40326,3.28156c-1.87981,0 -4.8447,0.24523 -5.66583,-1.33633c-1.57795,-3.03924 0.41035,-5.33428 0.62186,-6.33928c0.65791,-3.12613 1.12242,-3.82271 4.16676,-5.26328z" data-paper-data="{&quot;index&quot;:null}" fill="#908816"/><path d="M235.95366,166.07138c0,-1.63509 1.15284,-2.61749 1.94011,-2.61749c0.78727,0 1.42547,0.9824 1.42547,2.61749c0,1.63509 -0.6382,2.96059 -1.42547,2.96059c-0.78727,0 -1.94011,-1.3255 -1.94011,-2.96059z" data-paper-data="{&quot;index&quot;:null}" fill="#f29e4a"/><path d="M247.43346,160.04052c0.84782,0 1.53512,1.03094 1.53512,2.30268c0,1.27173 -0.6873,2.30268 -1.53512,2.30268c-0.84782,0 -1.53512,-1.03094 -1.53512,-2.30268c0,-1.27173 0.6873,-2.30268 1.53512,-2.30268z" data-paper-data="{&quot;index&quot;:null}" fill="#908816"/><path d="M231.64364,158.06683c0.3843,-0.75573 1.80687,-5.75107 10.85551,-5.26328c5.41768,0.29205 7.1849,3.7924 7.55483,3.7625c2.90251,-0.23459 6.15162,1.01267 6.15162,1.50077c0,0.84782 -5.74385,1.53512 -12.82924,1.53512c-7.08539,0 -12.60993,0.18992 -11.73272,-1.53512z" data-paper-data="{&quot;index&quot;:null}" fill="#f32f00"/><g><path d="M229.36836,183.66134c0,0 -2.90729,-3.3975 -4.53681,-4.09171c-1.23879,-0.52775 -3.8687,-0.94452 -3.8687,-0.94452c0,0 3.7584,-4.37008 7.12046,-5.36604c5.01579,-1.48585 10.38559,-0.71128 10.38559,-0.71128l-3.71295,7.8614c0,0 -2.60391,-0.08446 -3.54968,0.21902c-1.01592,0.32598 -1.83792,3.03313 -1.83792,3.03313z" data-paper-data="{&quot;index&quot;:null}" fill="#908816"/><path d="M225.35299,179.06155c1.1318,0.48217 2.65882,1.60494 3.18831,2.47431c0.55986,0.91921 0.83821,2.15327 0.42202,3.13019c-0.29058,0.68206 -2.24408,-0.00903 -3.03324,0.28666c-1.41012,0.52836 -2.01662,1.62842 -4.37006,0.6258c-3.70522,-1.57849 -2.37603,-4.52597 -1.13087,-6.17475c1.39937,-1.85298 2.42321,-1.4075 4.92382,-0.3422z" data-paper-data="{&quot;index&quot;:null}" fill="#f29e4a"/></g></g></g></svg>