<svg version="1.1" xmlns="http://www.w3.org/2000/svg" xmlns:xlink="http://www.w3.org/1999/xlink" width="85.49398" height="85.49398" viewBox="0,0,85.49398,85.49398"><defs><linearGradient x1="-3285.69704" y1="-2895.28055" x2="-3285.69704" y2="4105.40967" gradientUnits="userSpaceOnUse" id="color-1"><stop offset="0" stop-color="#ffffff"/><stop offset="1" stop-color="#ffffff" stop-opacity="0"/></linearGradient></defs><g transform="translate(-197.25302,-137.25301)"><g data-paper-data="{&quot;isPaintingLayer&quot;:true}" fill-rule="nonzero" stroke-linejoin="miter" stroke-miterlimit="10" stroke-dasharray="" stroke-dashoffset="0" style="mix-blend-mode: normal"><path d="M208.63952,205.58013c0.00324,-13.1024 0,-44.63208 0,-51.75c0,-3.5626 2.97813,-5.21784 6.54073,-5.21784c12.68063,0 43.89984,0 51,0c2.96729,0 5.18024,2.50056 5.18024,5.46784c0,6.43742 0,39.20833 0,51.75c0,2.95974 -2.72049,5.55758 -5.68024,5.55758c-6.61442,0 -39.17756,0 -52,0c-3.13138,0 -5.04177,-1.58613 -5.04073,-5.80758z" fill="url(#color-1)" stroke="#a97a4a" stroke-width="2" stroke-linecap="butt"/><path d="M197.25302,222.74699v-85.49398h85.49398v85.49398z" fill="none" stroke="none" stroke-width="0" stroke-linecap="butt"/><g><path d="M229.20003,191.7437v-13.16453c0,0 0.57096,-0.13692 2.1941,-2.59911c0.56661,-0.8595 1.98792,-4.29893 2.79281,-4.82053c0.69544,-0.45067 1.60356,-0.0209 2.16386,-0.5695c1.05741,-1.03534 2.04317,-2.78475 4.23602,-2.38576c4.67278,-0.03986 5.96927,6.64876 5.96927,6.64876c0,0 0.60098,-0.66044 0.97431,-1.12521c0.49572,-0.61714 0.90709,-1.04395 2.06995,-0.63032c2.03861,0.72515 2.91784,4.15171 2.91784,4.15171v14.49448z" fill="#a5e62a" stroke="none" stroke-width="0" stroke-linecap="butt"/><g fill="#61cd25" stroke="none" stroke-width="0" stroke-linecap="butt"><path d="M235.55711,178.68578c0.44461,-0.22493 2.78665,-0.72563 2.92534,-0.44743c0.16403,0.32903 -1.95339,1.48719 -2.47923,1.75322c-0.60812,0.30766 -2.28282,0.42091 -2.24322,0.01978c0.03998,-0.40486 1.79711,-1.32556 1.79711,-1.32556z"/><path d="M234.98507,181.35212c0.58197,-0.29443 3.64762,-0.94982 3.82916,-0.58566c0.2147,0.43068 -2.55692,1.94668 -3.24522,2.2949c-0.79601,0.40271 -2.98813,0.55095 -2.93628,0.02588c0.05233,-0.52994 2.35234,-1.73511 2.35234,-1.73511z"/></g><path d="M229.36907,178.21721c0,0 1.27189,-0.92757 1.91645,-1.97822c0.73662,-1.20069 0.90817,-2.62411 1.82159,-4.07976c0.57571,-0.91747 2.73067,-1.03736 3.02826,-1.19221c0.36328,-0.22102 2.0977,-2.71515 2.90817,-2.84585c5.64343,-0.91012 6.62648,5.22782 6.88754,5.90763c0.14302,0.37243 0.08901,1.52877 1.13693,0.54463c0.62868,-0.59042 0.99399,-1.52681 1.36889,-1.52681c0.6136,0 2.28872,0.5911 2.86835,1.38839c1.20059,1.65144 1.11812,2.87029 1.11812,2.87029" fill="none" stroke="#000000" stroke-width="1" stroke-linecap="round"/><g><g stroke="#000000"><path d="M215.88867,188.90205c-0.25085,-0.69455 -0.06854,-1.39226 -0.06854,-1.56513c0,-0.31697 0.94586,-0.26833 1.0569,-0.57405c0.1609,-0.44297 0.37868,-1.23187 0.9237,-1.63036c0.87341,-0.63859 3.20488,-0.73337 3.20488,-0.73337l1.05614,-1.29852c0,0 -0.44633,-1.36697 0.50721,-2.59319c0.22778,-0.29292 0.80922,-0.88835 1.2452,-1.07898c0.4625,-0.20222 2.41734,-1.56968 3.09511,-1.56968c1.26914,0 2.40068,0.20265 2.40068,0.20265v13.77893l-10.12268,0.13032c0,0 -1.30263,-0.57832 -1.95644,-1.18654c-0.65381,-0.60822 -1.34219,-1.88207 -1.34219,-1.88207z" fill="#a5e62a" stroke-width="0" stroke-linecap="butt"/><path d="M219.12244,191.80254c0,0 -0.78963,-0.20321 -1.67281,-0.85872c-0.95943,-0.71209 -1.78595,-2.9542 -1.63394,-3.45171c0.152,-0.49751 0.91699,-0.23675 1.1201,-0.74496c0.71924,-1.79969 2.14215,-2.55884 4.07391,-2.40243c0.26098,0.02113 0.80503,-0.9195 0.90627,-1.23517c0.22998,-0.71708 -0.12977,-1.73874 0.57939,-2.56289c0.3661,-0.42547 0.72986,-0.95821 1.42327,-1.24585c0.90355,-0.37481 1.88091,-1.32597 2.89432,-1.58785c1.19823,-0.30965 2.36618,0.10236 2.36618,0.10236" fill="none" stroke-width="1" stroke-linecap="round"/></g><path d="M224.63088,181.11622c0.76725,-0.37161 3.5099,-0.71477 3.65656,-0.44074c0.17346,0.3241 -2.29089,1.12708 -2.84694,1.38913c-0.64306,0.30305 -1.9635,1.3156 -1.92161,0.92046c0.04227,-0.3988 0.34475,-1.49725 1.112,-1.86886z" fill="#61cd25" stroke="none" stroke-width="0" stroke-linecap="butt"/></g><g><g data-paper-data="{&quot;index&quot;:null}" stroke="#000000"><path d="M252.18773,191.73557l0.10799,-13.90028c0,0 1.70785,0.02511 2.39543,1.00547c0.68758,0.98036 1.04999,3.8619 1.04999,3.8619c0,0 1.65053,-2.12972 3.0597,-2.14396c1.38848,0.78836 1.40672,4.55631 1.40672,4.55631c0,0 2.29301,-2.27311 3.06704,-1.52793c0.47139,0.45383 0.88348,1.35417 0.82879,2.47475c-0.05278,1.08125 -0.56443,2.39181 -0.56443,2.39181c0,0 0.49099,0.55235 0.61381,1.21914c0.11662,0.63315 -1.02203,1.87637 -1.02203,1.87637z" fill="#a5e62a" stroke-width="0" stroke-linecap="butt"/><path d="M252.76893,177.8887c0,0 1.49947,0.25039 2.2906,1.85117c0.5308,1.07402 0.07419,2.47706 1.12958,2.8127c0.10184,0.03238 0.93828,-1.07768 1.54509,-1.61677c1.77803,-1.57959 2.33203,1.87958 2.44055,4.25545c0.03164,0.6926 2.13235,-1.94237 3.0551,-1.55676c0.89058,0.37216 1.19766,1.89695 0.90882,2.82197c-0.27358,0.87616 -0.78407,1.84592 -0.64461,1.91271c0.69328,1.08739 0.49873,2.21868 -0.43524,3.10792" fill="none" stroke-width="1" stroke-linecap="round"/></g><path d="M254.49445,182.93926c-0.08303,0.16262 -0.93142,-0.69247 -1.19624,-0.84798c-0.30627,-0.17984 -1.10756,-0.62542 -0.9344,-0.71925c0.17477,-0.0947 0.8333,0.03184 1.24112,0.33182c0.40783,0.29998 0.95972,1.09792 0.88952,1.23541z" fill="#61cd25" stroke="none" stroke-width="0" stroke-linecap="butt"/></g></g></g></g></svg>