<svg version="1.1" xmlns="http://www.w3.org/2000/svg" xmlns:xlink="http://www.w3.org/1999/xlink" width="41.27485" height="41.4912" viewBox="0,0,41.27485,41.4912"><g transform="translate(-219.35013,-159.30501)"><g data-paper-data="{&quot;isPaintingLayer&quot;:true}" fill-rule="nonzero" stroke="none" stroke-width="0" stroke-linecap="butt" stroke-linejoin="miter" stroke-miterlimit="10" stroke-dasharray="" stroke-dashoffset="0" style="mix-blend-mode: normal"><path d="M241.78025,199.86551c-11.30603,0.81403 -22.43012,0.38871 -22.43012,0.38871v-40.63442c0,0 25.21716,-1.21058 32.2558,4.88611c11.04828,9.56973 7.38621,28.94361 5.72912,30.91278c-2.71088,3.22141 -15.5548,4.44682 -15.5548,4.44682z" data-paper-data="{&quot;index&quot;:null}" fill="#f29e4a"/><path d="M241.18744,185.01663c0,5.64496 -3.82286,10.22111 -8.53859,10.22111c-4.71574,0 -8.53859,-4.57615 -8.53859,-10.22111c0,-5.64496 3.82286,-10.22111 8.53859,-10.22111c4.71574,0 8.53859,4.57615 8.53859,10.22111z" data-paper-data="{&quot;index&quot;:null}" fill="#f32f00"/><path d="M259.06617,179.08911c-1.43508,0.5899 -3.00185,0.91446 -4.64257,0.91446c-6.893,0 -12.48088,-5.72846 -12.48088,-12.79486c0,-2.45495 0.50776,-3.24842 1.67703,-5.1963c0,0 6.92397,0.63435 9.3599,3.59589c2.64076,3.21057 6.08651,13.48082 6.08651,13.48082z" data-paper-data="{&quot;index&quot;:null}" fill="#f32f00"/><path d="M258.53477,195.24104c-0.62354,1.53277 -3.5066,2.97335 -7.44868,3.77254c-11.42236,2.3157 -31.73596,1.71162 -31.73596,1.71162v-1.54363c0,0 20.12969,0.90939 31.17724,-1.59513c3.83463,-0.86933 6.57505,-2.44314 6.99963,-4.20769c3.44614,-14.32211 -1.17593,-22.71099 -5.38032,-27.28164c-5.95525,-6.47404 -32.79655,-5.6511 -32.79655,-5.6511v-1.1402c0,0 27.24604,-0.18293 32.75043,4.97857c5.50439,5.1615 11.91388,17.48678 6.43422,30.95666z" data-paper-data="{&quot;index&quot;:null}" fill="#000000"/></g></g></svg>