<svg version="1.1" xmlns="http://www.w3.org/2000/svg" xmlns:xlink="http://www.w3.org/1999/xlink" width="85.49398" height="85.49398" viewBox="0,0,85.49398,85.49398"><defs><linearGradient x1="-3285.69704" y1="-2895.28054" x2="-3285.69704" y2="4105.40968" gradientUnits="userSpaceOnUse" id="color-1"><stop offset="0" stop-color="#ffffff"/><stop offset="1" stop-color="#ffffff" stop-opacity="0"/></linearGradient></defs><g transform="translate(-199.57062,-137.63928)"><g data-paper-data="{&quot;isPaintingLayer&quot;:true}" fill-rule="nonzero" stroke-linecap="butt" stroke-linejoin="miter" stroke-miterlimit="10" stroke-dasharray="" stroke-dashoffset="0" style="mix-blend-mode: normal"><path d="M199.57062,223.13326v-85.49398h85.49398v85.49398z" fill="none" stroke="none" stroke-width="0"/><path d="M208.63952,205.58014c0.00324,-13.1024 0,-44.63208 0,-51.75c0,-3.5626 2.97813,-5.21784 6.54073,-5.21784c12.68063,0 43.89984,0 51,0c2.96729,0 5.18024,2.50056 5.18024,5.46784c0,6.43742 0,39.20833 0,51.75c0,2.95974 -2.72049,5.55758 -5.68024,5.55758c-6.61442,0 -39.17756,0 -52,0c-3.13138,0 -5.04177,-1.58613 -5.04073,-5.80758z" fill="url(#color-1)" stroke="#a97a4a" stroke-width="2"/><g stroke="none" stroke-width="0"><g fill="#f29e4a"><g data-paper-data="{&quot;index&quot;:null}"><path d="M254.13783,181.11935c0,0 7.05423,5.94724 6.74502,6.68862c-0.26789,0.64232 -9.35084,0.57312 -9.35084,0.57312c0,0 -0.94319,-1.61338 -0.01859,-4.18999c0.86161,-2.40108 2.62441,-3.07174 2.62441,-3.07174z" data-paper-data="{&quot;index&quot;:null}"/><path d="M228.48657,184.3911c0.9246,2.57661 -0.01859,4.18999 -0.01859,4.18999c0,0 -9.08294,0.06921 -9.35084,-0.57312c-0.30921,-0.74138 6.74502,-6.68862 6.74502,-6.68862c0,0 1.76279,0.67066 2.6244,3.07174z" data-paper-data="{&quot;index&quot;:null}"/></g><g><path d="M251.51343,175.31152c-0.9246,-2.57661 0.01859,-4.18999 0.01859,-4.18999c0,0 9.08294,-0.06921 9.35084,0.57312c0.30921,0.74138 -6.74503,6.68862 -6.74503,6.68862c0,0 -1.76279,-0.67066 -2.6244,-3.07174z" data-paper-data="{&quot;index&quot;:null}"/><path d="M225.86217,178.18326c0,0 -7.05423,-5.94724 -6.74503,-6.68862c0.26789,-0.64232 9.35084,-0.57312 9.35084,-0.57312c0,0 0.94318,1.61338 0.01859,4.18999c-0.86161,2.40108 -2.6244,3.07175 -2.6244,3.07175z" data-paper-data="{&quot;index&quot;:null}"/></g><g data-paper-data="{&quot;index&quot;:null}"><path d="M247.12873,191.27659c2.31894,-1.45475 4.09683,-0.87883 4.09683,-0.87883c0,0 2.01204,8.85756 1.44197,9.25675c-0.658,0.46075 -7.97751,-5.15678 -7.97751,-5.15678c0,0 0.27774,-1.8655 2.43871,-3.22115z" data-paper-data="{&quot;index&quot;:null}"/><path d="M232.3721,191.02069c2.32243,1.44917 2.58206,3.2999 2.58206,3.2999c0,0 -7.08558,5.68325 -7.69389,5.34517c-0.70212,-0.39022 1.14851,-9.42942 1.14851,-9.42942c0,0 1.7991,-0.5661 3.96332,0.78436z" data-paper-data="{&quot;index&quot;:null}"/></g><path d="M244.69002,165.50225c0,0 7.31952,-5.61752 7.97751,-5.15677c0.57008,0.39919 -1.44197,9.25675 -1.44197,9.25675c0,0 -1.77789,0.57593 -4.09682,-0.87882c-2.16097,-1.35565 -2.43871,-3.22115 -2.43871,-3.22115z" data-paper-data="{&quot;index&quot;:null}"/><path d="M228.40878,169.76366c0,0 -1.85063,-9.0392 -1.14851,-9.42942c0.60831,-0.33808 7.69388,5.34517 7.69388,5.34517c0,0 -0.25962,1.85072 -2.58205,3.2999c-2.16422,1.35045 -3.96332,0.78436 -3.96332,0.78436z" data-paper-data="{&quot;index&quot;:null}"/></g><path d="M239.83937,164.0465c8.17381,0 14.8,7.20822 14.8,16.1c0,8.89179 -6.62619,16.1 -14.8,16.1c-8.17382,0 -14.8,-7.20822 -14.8,-16.1c0,-8.89179 6.62619,-16.1 14.8,-16.1z" fill="#f32f00"/><path d="M231.37543,169.64395c2.11944,-2.17595 4.89596,-2.90903 6.20153,-1.63736c1.30557,1.27166 -1.3542,2.26651 -3.47364,4.44246c-2.11944,2.17595 -2.89596,4.70904 -4.20153,3.43737c-1.30557,-1.27166 -0.64581,-4.06652 1.47363,-6.24247z" fill="#ffffff"/><path d="M241.97749,191.60368c-1.30557,-1.27167 1.3542,-2.26651 3.47363,-4.44246c2.11944,-2.17595 2.89596,-4.70904 4.20153,-3.43737c1.30557,1.27167 0.64581,4.06652 -1.47363,6.24247c-2.11944,2.17595 -4.89596,2.90903 -6.20153,1.63737z" data-paper-data="{&quot;index&quot;:null}" fill="#ffffff"/></g></g></g></svg>