<svg version="1.1" xmlns="http://www.w3.org/2000/svg" xmlns:xlink="http://www.w3.org/1999/xlink" width="85.49398" height="85.49398" viewBox="0,0,85.49398,85.49398"><defs><linearGradient x1="-3285.69704" y1="-2895.28054" x2="-3285.69704" y2="4105.40968" gradientUnits="userSpaceOnUse" id="color-1"><stop offset="0" stop-color="#ffffff"/><stop offset="1" stop-color="#ffffff" stop-opacity="0"/></linearGradient><linearGradient x1="235.40045" y1="198.74623" x2="244.83132" y2="198.74623" gradientUnits="userSpaceOnUse" id="color-2"><stop offset="0" stop-color="#efcfaf"/><stop offset="1" stop-color="#000000"/></linearGradient><linearGradient x1="230.11606" y1="190.95564" x2="250.04704" y2="190.95564" gradientUnits="userSpaceOnUse" id="color-3"><stop offset="0" stop-color="#a5e62a"/><stop offset="1" stop-color="#9cb418"/></linearGradient><linearGradient x1="230.11606" y1="170.25849" x2="250.04704" y2="170.25849" gradientUnits="userSpaceOnUse" id="color-4"><stop offset="0" stop-color="#a5e62a"/><stop offset="1" stop-color="#9cb418"/></linearGradient></defs><g transform="translate(-197.25301,-137.25301)"><g data-paper-data="{&quot;isPaintingLayer&quot;:true}" fill-rule="nonzero" stroke-linejoin="miter" stroke-miterlimit="10" stroke-dasharray="" stroke-dashoffset="0" style="mix-blend-mode: normal"><path d="M197.25301,222.74699v-85.49398h85.49398v85.49398z" fill="none" stroke="none" stroke-width="0" stroke-linecap="butt"/><path d="M208.63952,205.58014c0.00324,-13.1024 0,-44.63208 0,-51.75c0,-3.5626 2.97813,-5.21784 6.54073,-5.21784c12.68063,0 43.89984,0 51,0c2.96729,0 5.18024,2.50056 5.18024,5.46784c0,6.43742 0,39.20833 0,51.75c0,2.95974 -2.72049,5.55758 -5.68024,5.55758c-6.61442,0 -39.17756,0 -52,0c-3.13138,0 -5.04177,-1.58613 -5.04073,-5.80758z" fill="url(#color-1)" stroke="#a97a4a" stroke-width="2" stroke-linecap="butt"/><path d="M207.25301,212.74699v-65.49398h65.49398v65.49398z" fill="none" stroke="none" stroke-width="0" stroke-linecap="butt"/><g stroke-width="0.5"><g><g data-paper-data="{&quot;index&quot;:null}"><path d="M235.76052,201.51638c-0.32352,-1.18613 -0.4574,-3.09033 -0.2834,-4.14671c0.17927,-1.08844 0.63516,-1.4251 0.63516,-1.4251l8.06167,0.03882c0,0 0.49422,0.5382 0.57612,1.1885c0.14707,1.16787 0.08418,2.85312 -0.1055,4.37604" data-paper-data="{&quot;index&quot;:null}" fill="url(#color-2)" stroke="#000000" stroke-linecap="butt"/><path d="M243.1531,200.54451v-1.9407" fill="none" stroke="#b2815f" stroke-linecap="round"/></g><path d="M241.77005,199.79278v-1.07224" fill="none" stroke="#b2815f" stroke-linecap="round"/><path d="M236.78731,200.86502v-2.01833" fill="none" stroke="#b2815f" stroke-linecap="round"/></g><path d="M241.41509,200.88045c-3.8962,0.42674 -5.91081,-1.00917 -5.91081,-1.00917c0,0 1.69387,1.03009 6.16864,0.22153c5.12099,-0.92534 6.37382,-2.67236 6.37382,-2.67236c0,0 -1.55949,2.90444 -6.63165,3.45999z" fill="#000000" stroke="none" stroke-linecap="butt"/><g><g><path d="M250.00263,180.4196c0,0 0.04441,9.83441 0.04441,10.80171c0,5.43412 -4.46171,9.83934 -9.96549,9.83934c-5.50379,0 -9.96549,-4.40523 -9.96549,-9.83934c0,-0.73963 0.23934,-10.8186 0.23934,-10.8186z" fill="url(#color-3)" stroke="none" stroke-linecap="butt"/><path d="M249.9209,180.84134c0,0 0.3909,3.99339 0.35086,7.9605c-0.0124,1.22872 -0.24862,2.63738 -0.3174,3.69092c-0.08618,1.05105 -0.82087,2.82079 -1.69431,4.32684c-1.31878,2.27393 -3.47045,4.20502 -8.28663,4.20502c-2.68081,0 -4.89586,-0.61687 -6.37452,-1.84197c-0.77192,-0.63956 -0.96166,-1.42271 -1.42196,-2.26431c-0.68088,-1.2449 -1.47419,-2.6177 -1.71957,-3.84278c-0.11096,-0.55395 0.21658,-1.09239 0.16679,-1.59777c-0.12686,-1.28742 -0.81774,-2.62115 -0.87472,-3.88546c-0.15722,-3.4884 0.50718,-6.44824 0.50718,-6.44824" fill="none" stroke="#000000" stroke-linecap="round"/></g><g data-paper-data="{&quot;index&quot;:null}"><path d="M230.16047,180.64522c0,0 -0.04441,-9.68509 -0.04441,-10.65239c0,-5.43412 4.46171,-9.83934 9.96549,-9.83934c3.18751,0 6.42914,1.0739 8.25333,3.37316c1.32558,1.67082 1.71217,4.17922 1.71217,6.46618c0,0.3661 -0.05864,2.91055 -0.11787,5.38722c-0.06043,2.52701 -0.12147,5.28207 -0.12147,5.28207z" fill="url(#color-4)" stroke="none" stroke-linecap="butt"/><path d="M230.2422,180.3728c0,0 -0.41105,-2.46247 -0.35895,-5.39823c0.03696,-2.08296 0.50752,-4.40419 0.62824,-6.25319c0.10164,-1.23954 0.09557,-3.19792 1.31912,-4.92593c0.78607,-1.11018 1.43845,-1.31792 3.15958,-1.98623c0.86672,-0.33654 1.71586,-1.54877 2.99586,-1.91649c0.64187,-0.1844 1.69426,0.2968 2.30455,0.2968c0.98064,0 1.8617,0.51321 2.65296,0.71215c2.40949,0.60575 4.79349,1.33822 5.81364,2.93291c1.0657,1.66593 0.71671,4.21754 0.88268,5.90177c0.17012,1.72628 0.63078,3.97802 0.6337,5.64137c0.00529,2.99981 -0.56892,4.9951 -0.56892,4.9951" fill="none" stroke="#000000" stroke-linecap="round"/></g></g></g></g></g></svg>