<svg version="1.1" xmlns="http://www.w3.org/2000/svg" xmlns:xlink="http://www.w3.org/1999/xlink" width="47.47054" height="64.13439" viewBox="0,0,47.47054,64.13439"><g transform="translate(-216.26474,-134.98775)"><g data-paper-data="{&quot;isPaintingLayer&quot;:true}" fill-rule="nonzero" stroke-linecap="butt" stroke-linejoin="miter" stroke-miterlimit="10" stroke-dasharray="" stroke-dashoffset="0" style="mix-blend-mode: normal"><path d="M216.30721,166.22058c0.13271,-4.0644 3.0391,-5.34271 5.15701,-5.34271c1.19696,0 35.24367,0 37.18399,0c3.07327,0 5.08707,2.13343 5.08707,5.2067c0,1.21159 0,26.39088 0,28.30624c0,3.06626 -2.29282,4.73133 -5.3591,4.73133c-1.90566,0 -35.88164,0 -37.04797,0c-2.99374,0 -5.02099,-2.00962 -5.02099,-5.00333c0,-1.78187 -0.09557,-24.97124 0,-27.89821z" fill="#45a7e0" stroke="none" stroke-width="0"/><g data-paper-data="{&quot;index&quot;:null}" fill="#ffffff" stroke="none" stroke-width="0"><path d="M223.56496,174.02579h18.25481v12.25481h-18.25481z"/><path d="M256.43504,180l-15.38119,15.38119v-30.76237z"/></g><text transform="translate(220.59589,153.58405) scale(0.43756,0.43756)" font-size="40" xml:space="preserve" fill="#ffffff" fill-rule="nonzero" stroke="#ffffff" stroke-width="1" stroke-linecap="butt" stroke-linejoin="miter" stroke-miterlimit="10" stroke-dasharray="" stroke-dashoffset="0" font-family="&quot;ヒラギノ角ゴ Pro W3&quot;, &quot;Hiragino Kaku Gothic Pro&quot;, Osaka, &quot;メイリオ&quot;, Meiryo, &quot;ＭＳ Ｐゴシック&quot;, &quot;MS PGothic&quot;" font-weight="normal" text-anchor="start" style="mix-blend-mode: normal"><tspan x="0" dy="0">Next</tspan></text></g></g></svg>