<svg version="1.1" xmlns="http://www.w3.org/2000/svg" xmlns:xlink="http://www.w3.org/1999/xlink" width="112.66618" height="112.66618" viewBox="0,0,112.66618,112.66618"><g transform="translate(-183.66691,-123.66691)"><g data-paper-data="{&quot;isPaintingLayer&quot;:true}" fill-rule="nonzero" stroke-linejoin="miter" stroke-miterlimit="10" stroke-dasharray="" stroke-dashoffset="0" style="mix-blend-mode: normal"><path d="M183.66691,236.33309v-112.66618h112.66618v112.66618z" data-paper-data="{&quot;index&quot;:null}" fill="none" stroke="none" stroke-width="0" stroke-linecap="butt"/><g><path d="M247.45503,175.83656c7.90531,7.87957 1.62306,24.52588 -5.35067,24.90085c-5.50563,0.29604 -0.78345,-10.68388 -0.78345,-10.68388c0,0 -5.21278,6.52991 -7.77692,3.89807c-2.79363,-2.8674 1.68318,-10.67436 1.68318,-10.67436c0,0 -3.94223,5.38632 -5.89347,2.59398c-2.29077,-3.27822 4.23761,-8.55025 4.83363,-9.03981c2.6187,-2.15092 7.88374,-6.38121 13.28769,-0.99485z" data-paper-data="{&quot;index&quot;:null}" fill="#dcdcdc" stroke="#000000" stroke-width="0" stroke-linecap="butt"/><g data-paper-data="{&quot;index&quot;:null}"><g data-paper-data="{&quot;index&quot;:null}" stroke="none" stroke-width="0" stroke-linecap="butt"><path d="M246.54925,176.08311l6.15141,-1.77081c0,0 -0.23168,-1.02751 -1.03238,-2.49672c-1.05093,-1.92835 -2.88097,-4.64081 -4.43742,-7.02223c-2.15953,-3.30415 -2.31765,-10.17142 -1.02482,-14.49807c1.20076,-4.01849 3.90533,-6.49942 6.07906,-6.75001c2.32147,-0.26762 3.92032,-0.71249 5.64964,2.25793c1.15098,1.97701 2.43557,6.12474 3.45541,7.86468c1.54637,2.63824 3.07629,1.08254 4.02619,4.96094c0.94991,3.87839 0.75039,8.3432 0.43593,10.17049c-0.6325,3.67553 -1.64525,5.10091 -2.13357,5.0631c-0.43337,-0.03355 -1.12776,-3.84546 -2.04285,-5.67159c-0.75822,-1.51312 -1.68762,-0.93905 -2.56865,-2.24495c-0.64862,-0.9614 -1.61387,-2.56137 -2.48348,-2.05702c-3.08566,1.78958 0.17365,2.28549 0.57896,5.10037c0.268,1.86121 0.69472,3.84008 1.61851,5.04928c0.46299,0.60606 2.55948,1.26545 2.42868,1.78438c-0.09979,0.39582 -1.60034,1.29324 -2.26237,2.20516c-0.92907,1.27978 -1.15061,2.69693 -1.80507,3.75016c-1.1208,1.80371 -0.3767,4.25088 -2.20364,6.15113c-1.82693,1.90026 -5.24583,2.75675 -6.20048,2.59032z" data-paper-data="{&quot;index&quot;:null}" fill="#f29e4a"/><path d="M260.15194,160.22631c-0.10893,-0.9449 0.56877,-1.7992 1.51366,-1.90813c0.9449,-0.10893 1.79919,0.56877 1.90812,1.51367c0.10893,0.9449 0.40493,1.68695 -0.53997,1.79587c-0.49209,0.05673 -0.32481,-0.83082 -0.92839,-1.09824c-0.55538,-0.24608 -1.90124,0.14964 -1.95344,-0.30317z" data-paper-data="{&quot;index&quot;:null}" fill="#f32f00"/><g data-paper-data="{&quot;index&quot;:null}"><path d="M253.77103,141.39666c4.30207,-0.19327 4.67222,4.00753 5.31023,9.54195c0.638,5.53442 -0.44164,8.22373 -2.73639,8.48827c-2.29476,0.26454 -4.93565,-1.99588 -5.57366,-7.53029c-0.638,-5.53442 -0.77662,-10.33028 2.99982,-10.49992z" fill="#ffffff"/><path d="M257.20182,148.26455c0.9449,-0.10893 1.21356,1.19445 1.44698,3.21922c0.23342,2.02479 0.26837,3.35511 -0.67654,3.46404c-0.9449,0.10893 -2.024,-1.10102 -2.25741,-3.12581c-0.23342,-2.02479 0.54207,-3.44852 1.48697,-3.55744z" fill="#f32f00"/></g></g><path d="M233.57922,201.6031c0,0 -3.30651,1.59569 -6.71089,1.98815c-3.40436,0.39245 -6.93037,-0.11979 -7.0267,-0.75149c-0.29842,-0.12069 1.61427,-1.7447 3.43703,-3.04996c0.98752,-0.70716 2.83959,-2.70516 2.83959,-2.70516c0,0 1.15502,1.53773 2.28409,2.23623c2.17027,1.34262 5.17687,2.28224 5.17687,2.28224z" data-paper-data="{&quot;index&quot;:null}" fill="#f29e4a" stroke="none" stroke-width="0" stroke-linecap="butt"/><path d="M248.60668,194.09753c1.34253,-1.33761 2.44855,-3.85017 2.44855,-3.85017c0,0 3.22329,2.17566 4.82561,2.83787c2.95755,1.22229 7.38542,3.84349 7.0098,4.10816c0.07128,0.90934 -5.90525,1.78146 -10.76474,2.34166c-4.85949,0.5602 -9.97375,-0.58386 -9.97375,-0.58386c0,0 3.87397,-2.28257 6.45452,-4.85367z" data-paper-data="{&quot;index&quot;:null}" fill="#f29e4a" stroke="none" stroke-width="0" stroke-linecap="butt"/><path d="M222.77182,196.22389c0,0 -0.77105,-4.93867 -1.05311,-7.38542c-1.21376,-10.52887 -0.88235,-20.55098 8.97477,-23.48655c6.47844,-1.92936 10.68656,-1.04686 14.82683,3.59446c2.31699,2.59739 4.15828,4.24385 4.15828,4.24385c0,0 0.34065,5.11986 0.63981,7.71492c0.24162,2.09597 2.77274,3.32944 1.96813,8.73799c-0.43734,2.93979 -2.7297,3.70094 -4.5506,5.25629c-2.88989,2.46843 -6.19961,4.86575 -11.20666,5.44296z" data-paper-data="{&quot;index&quot;:null}" fill="#f32f00" stroke="none" stroke-width="NaN" stroke-linecap="butt"/><g data-paper-data="{&quot;index&quot;:null}" fill="#f29e4a" stroke="none" stroke-width="0" stroke-linecap="butt"><path d="M221.54228,189.21421l17.73901,-24.61133l2.27663,0.96803l-19.31324,27.18579z"/><path d="M228.0751,199.03611l19.73557,-27.60196l1.66603,1.76822l-19.6304,27.38077z"/></g><g data-paper-data="{&quot;index&quot;:null}" fill="#f29e4a" stroke="none" stroke-width="0" stroke-linecap="butt"><path d="M250.67855,189.63729l-24.94233,-21.78575l2.1242,-1.25311l24.19089,21.12938z"/><path d="M243.57701,198.38111l-22.41802,-19.56554l0.47237,-2.95876l23.31839,20.61483z"/></g><path d="M223.67627,173.49012c0.47369,-1.48244 2.66223,-2.96899 2.66223,-2.96899c0,0 -1.44166,2.91522 -1.85534,4.39778c-0.43824,1.57064 -0.70465,4.77704 -0.70465,4.77704c0,0 -1.01997,-3.33372 -0.10224,-6.20582z" data-paper-data="{&quot;index&quot;:null}" fill="#ffffff" stroke="none" stroke-width="0" stroke-linecap="butt"/><path d="M250.18146,172.93897c0,0 -0.13547,2.43959 0.35604,5.38924c0.51155,3.06996 2.2107,6.84634 1.61541,10.39705c-0.44133,2.63238 -2.64522,5.19854 -4.8962,6.95735c-3.20601,2.50505 -8.57655,4.39539 -13.50935,4.1593c-3.03578,-0.14531 -5.86201,-2.34907 -8.11866,-2.62087c-2.12568,-0.25602 -4.85504,0.4797 -4.85504,0.4797" data-paper-data="{&quot;index&quot;:null}" fill="none" stroke="#ffffff" stroke-width="3.5" stroke-linecap="round"/></g><g stroke="#000000" stroke-width="0" stroke-linecap="butt"><path d="M224.54985,177.70667c3.55799,0.0846 10.63678,0.33576 10.19075,8.95701c-0.65249,12.61183 -18.29325,22.28372 -23.52498,17.45632c-4.13036,-3.81114 7.91477,-9.76359 7.91477,-9.76359c0,0 -8.86476,1.76445 -8.59283,-2.39166c0.29627,-4.5281 9.65257,-7.93392 9.65257,-7.93392c0,0 -7.05918,1.71952 -6.22636,-2.12196c0.97775,-4.50992 9.77626,-4.22147 10.58608,-4.20221z" fill="#ffffff"/><path d="M231.11703,186.25577c-0.4773,3.62549 -2.00846,6.29159 -2.77243,6.13895c-0.76399,-0.15265 0.48137,-2.46125 0.95868,-6.08675c0.47728,-3.6255 -1.08766,-3.46504 -0.32369,-3.31238c0.76398,0.15264 2.61474,-0.36532 2.13743,3.26019z" fill="#f29e4a"/></g></g></g></g></svg>