<svg version="1.1" xmlns="http://www.w3.org/2000/svg" xmlns:xlink="http://www.w3.org/1999/xlink" width="85.49398" height="85.49398" viewBox="0,0,85.49398,85.49398"><defs><linearGradient x1="-3285.69704" y1="-2895.28055" x2="-3285.69704" y2="4105.40967" gradientUnits="userSpaceOnUse" id="color-1"><stop offset="0" stop-color="#ffffff"/><stop offset="1" stop-color="#ffffff" stop-opacity="0"/></linearGradient></defs><g transform="translate(-197.25302,-137.25301)"><g data-paper-data="{&quot;isPaintingLayer&quot;:true}" fill-rule="nonzero" stroke-linecap="butt" stroke-linejoin="miter" stroke-miterlimit="10" stroke-dasharray="" stroke-dashoffset="0" style="mix-blend-mode: normal"><path d="M208.63952,205.58013c0.00324,-13.1024 0,-44.63208 0,-51.75c0,-3.5626 2.97813,-5.21784 6.54073,-5.21784c12.68063,0 43.89984,0 51,0c2.96729,0 5.18024,2.50056 5.18024,5.46784c0,6.43742 0,39.20833 0,51.75c0,2.95974 -2.72049,5.55758 -5.68024,5.55758c-6.61442,0 -39.17756,0 -52,0c-3.13138,0 -5.04177,-1.58613 -5.04073,-5.80758z" fill="url(#color-1)" stroke="#a97a4a" stroke-width="2"/><path d="M197.25302,222.74699v-85.49398h85.49398v85.49398z" fill="none" stroke="none" stroke-width="0"/><g stroke="none" stroke-width="0"><path d="M237.61892,200.60447v-32.78003h4.73489v32.78003z" data-paper-data="{&quot;index&quot;:null}" fill="#20ad00"/><g><path d="M240,158.94096c10.57358,0 19.14517,3.74033 19.14517,8.35426c0,4.61393 -8.57158,8.35426 -19.14517,8.35426c-10.57358,0 -19.14517,-3.74033 -19.14517,-8.35426c0,-4.61393 8.57158,-8.35426 19.14517,-8.35426z" fill="#ffffff"/><path d="M240,161.98679c6.96896,0 12.61841,2.37666 12.61841,5.30843c0,2.93176 -5.64946,5.30843 -12.61841,5.30843c-6.96896,0 -12.61841,-2.37666 -12.61841,-5.30843c0,-2.93176 5.64946,-5.30843 12.61841,-5.30843z" fill="#f29e4a"/><path d="M233.29919,167.29522c0,-1.55687 3.00006,-2.81896 6.70081,-2.81896c3.70076,0 6.70081,1.26209 6.70081,2.81896c0,1.55687 -3.00006,2.81896 -6.70081,2.81896c-3.70076,0 -6.70081,-1.26209 -6.70081,-2.81896z" fill="#f32f00"/></g><g fill="#20ad00"><path d="M234.32536,187.19564c3.25912,2.91605 2.91168,7.13479 3.56466,9.44425c0.43309,1.53172 2.71336,2.1159 1.75495,3.11047c-1.30918,1.35859 -6.69471,1.32944 -12.1154,-3.52065c-2.3281,-2.08303 -2.78826,-5.09018 -3.98674,-7.8434c-1.59204,-3.65732 -5.0958,-5.92587 -5.0958,-5.92587c0,0 10.45764,-0.11489 15.87834,4.7352z" data-paper-data="{&quot;index&quot;:null}"/><path d="M261.55297,182.46044c0,0 -3.50375,2.26856 -5.0958,5.92587c-1.19849,2.75322 -1.65864,5.76037 -3.98675,7.8434c-5.42069,4.85009 -10.80621,4.87924 -12.1154,3.52065c-0.9584,-0.99456 1.32186,-1.57875 1.75495,-3.11047c0.65298,-2.30946 0.30554,-6.52821 3.56466,-9.44425c5.42069,-4.85009 15.87833,-4.73521 15.87833,-4.73521z" data-paper-data="{&quot;index&quot;:null}"/></g></g></g></g></svg>