<svg version="1.1" xmlns="http://www.w3.org/2000/svg" xmlns:xlink="http://www.w3.org/1999/xlink" width="109.33333" height="109.33333" viewBox="0,0,109.33333,109.33333"><g transform="translate(-185.33335,-125.33335)"><g data-paper-data="{&quot;isPaintingLayer&quot;:true}" fill-rule="nonzero" stroke="none" stroke-width="0" stroke-linecap="butt" stroke-linejoin="miter" stroke-miterlimit="10" stroke-dasharray="" stroke-dashoffset="0" style="mix-blend-mode: normal"><path d="M185.33335,234.66668v-109.33333h109.33333v109.33333z" fill="none"/><g><path d="M260.85168,183.11799c0.57578,2.09024 0.65378,5.46047 -3.99041,5.46047c-2.94984,0 -3.09609,-1.30294 -4.35326,-2.38593c-0.70355,-0.60608 -3.08833,-0.74146 -3.08833,-1.5144c0,-1.10707 0.85303,-2.17698 1.86242,-2.82989c0.95463,-0.61749 3.08206,-1.07044 4.50068,-1.07044c3.1343,0 4.42181,-0.00891 5.06891,2.34021z" data-paper-data="{&quot;index&quot;:null}" fill="#f29e4a"/><path d="M247.20597,200.6017c-3.36063,0 -3.72363,-4.68039 -3.72363,-4.68039c0,0 7.0837,-0.58505 10.44433,-0.58505c0.27274,0 5.4393,0.59809 4.67365,4.29037c-0.32928,1.58791 -11.39435,0.97507 -11.39435,0.97507z" data-paper-data="{&quot;index&quot;:null}" fill="#908816"/><path d="M226.76563,195.14115c3.99075,0 12.40264,0.58505 12.40264,0.58505c0,0 -0.43107,4.68039 -4.42181,4.68039c-3.99075,0 -11.66936,0.61725 -11.97126,-0.97508c-0.76565,-4.03839 3.99043,-4.29036 3.99043,-4.29036z" data-paper-data="{&quot;index&quot;:null}" fill="#908816"/><path d="M240.36335,163.4201c5.649,0 10.10229,1.33153 11.00037,8.75437c1.54391,12.7608 -5.35373,12.87511 -11.00037,13.09638c-13.36856,0.52385 -11.7157,-6.37388 -10.22842,-13.62024c1.54391,-7.52225 4.57943,-8.23051 10.22842,-8.23051z" data-paper-data="{&quot;index&quot;:null}" fill="#908816"/><path d="M248.73846,178.57274c-0.86619,-1.0171 -3.66679,-2.49273 -3.66679,-2.49273l-0.38598,-11.35007c0,0 6.04676,-0.06803 10.69636,5.14805c3.11661,3.49631 5.12873,12.09392 5.12873,12.09392l-10.97767,1.17099c0,0 0.13577,-3.47763 -0.79466,-4.57016z" data-paper-data="{&quot;index&quot;:null}" fill="#908816"/><path d="M229.82537,184.747c0,0 -4.6198,-3.10853 -6.66225,-3.10853c-1.55272,0 -4.53111,1.01311 -4.53111,1.01311c0,0 2.01212,-8.5976 5.12873,-12.09392c4.6496,-5.21607 10.69636,-5.14805 10.69636,-5.14805l-0.38598,11.35007c0,0 -2.8006,1.47562 -3.66679,2.49273c-0.93044,1.09253 -0.57897,5.49459 -0.57897,5.49459z" data-paper-data="{&quot;index&quot;:null}" fill="#908816"/><path d="M237.49949,163.48175l2.93863,-0.25307c0,0 -0.86684,8.80179 0.95165,10.87578c0.47915,0.54649 2.84959,0.92747 3.80176,-0.86748c0.94247,-1.77665 0.46919,-8.56646 0.46919,-8.56646l2.84893,2.27558c0,0 2.117,4.96004 3.08583,9.6462c0.96883,4.68616 0.40165,4.22835 0.73427,6.58461c0.69473,4.92115 2.91349,12.4353 2.91349,12.4353l-12.2027,0.37136c0,0 1.09237,-2.25186 0.90883,-4.36355c-0.10648,-1.22523 -1.41536,-3.33913 -2.74268,-3.36345c-1.35674,-0.02485 -2.73278,2.06702 -2.86367,3.31769c-0.21441,2.0487 0.82635,4.22853 0.82635,4.22853l-12.75884,-0.20137l3.1537,-17.98731c0,0 4.09439,-2.66535 5.19198,-5.38252c1.44875,-3.58648 2.74328,-8.74983 2.74328,-8.74983z" data-paper-data="{&quot;index&quot;:null}" fill="#f32f00"/><path d="M223.48667,180.7777c1.41862,0 3.54604,0.45294 4.50068,1.07044c1.00939,0.65291 1.86242,1.72281 1.86242,2.82989c0,0.77294 -2.38478,0.90832 -3.08833,1.5144c-1.25717,1.08299 -1.40342,2.38593 -4.35326,2.38593c-4.64419,0 -4.5662,-3.37023 -3.99041,-5.46047c0.64709,-2.34911 1.9346,-2.34019 5.06891,-2.34019z" data-paper-data="{&quot;index&quot;:null}" fill="#f29e4a"/><path d="M237.61489,177.55539c0,-0.80778 0.72428,-1.46262 1.61773,-1.46262c0.89345,0 1.61773,0.65483 1.61773,1.46262c0,0.80778 -0.72428,1.46262 -1.61773,1.46262c-0.89345,0 -1.61773,-0.65483 -1.61773,-1.46262z" data-paper-data="{&quot;index&quot;:null}" fill="#f29e4a"/><path d="M244.51723,177.55539c0,-0.80778 0.72428,-1.46262 1.61773,-1.46262c0.89345,0 1.61773,0.65483 1.61773,1.46262c0,0.80778 -0.72428,1.46262 -1.61773,1.46262c-0.89345,0 -1.61773,-0.65483 -1.61773,-1.46262z" data-paper-data="{&quot;index&quot;:null}" fill="#f29e4a"/><g><path d="M228.76745,153.49266c0,-6.36705 5.2949,-10.10179 14.29865,-9.80311c8.6685,0.28757 6.15042,2.79174 9.75695,5.70181c1.47567,1.19068 4.2604,1.47329 6.11786,2.84956c1.85745,1.37627 3.0251,3.2468 3.0251,4.99026c0,1.2311 -2.18296,1.703 -3.6379,1.9604c-2.57416,0.4554 -2.70391,3.11969 -5.07532,4.21972c-3.8597,1.79039 -6.49914,1.60993 -10.76186,1.60993c-6.46481,0 -10.32574,0.21774 -12.96526,-3.63643c-1.03865,-1.51662 -0.75824,-6.09422 -0.75824,-7.89215z" data-paper-data="{&quot;index&quot;:null}" fill="#f29e4a"/><path d="M243.50031,161.40971c-0.05437,-0.49956 1.25156,-0.57915 2.17903,-1.60064c0.84133,-0.9266 1.22847,-2.81652 2.67857,-2.97432c1.36986,-0.14905 2.6571,2.08096 4.45259,2.55609c2.20051,0.5823 4.80711,-0.50837 4.8642,0.01627c0.01244,0.11431 0.35805,2.33006 -0.21124,2.7964c-0.64004,0.52428 -2.20415,-0.70202 -2.20415,-0.70202c0,0 -0.94365,1.61916 -1.74774,2.00022c-1.66394,0.78854 -2.40998,-0.48341 -2.40998,-0.48341c0,0 -2.06156,1.17688 -2.71071,0.99325c-1.16598,-0.32981 -1.83606,-1.81576 -1.83606,-1.81576c0,0 -3.00631,-0.34291 -3.05453,-0.78609z" data-paper-data="{&quot;index&quot;:null}" fill="#908816"/><path d="M231.11056,145.54499c3.99213,-1.88906 9.24927,-3.11961 10.89574,-0.83946c0.90249,1.24985 -4.70665,6.88288 -3.99386,8.02893c0.68948,1.10856 1.82943,2.31718 1.36456,3.80544c-0.19436,0.62228 -0.86471,2.21595 -1.63583,2.33733c-0.81011,0.12751 -1.73142,-1.22085 -2.32884,-0.66829c-1.44472,1.33623 -1.7646,4.3032 -3.15146,4.3032c-2.46505,0 -6.35299,0.32157 -7.42977,-1.75236c-2.06921,-3.98544 0.5381,-6.99499 0.81546,-8.31289c0.86274,-4.09939 1.47186,-5.01283 5.464,-6.90189z" data-paper-data="{&quot;index&quot;:null}" fill="#908816"/><path d="M233.41119,156.32922c0,-2.14414 0.83689,-3.88231 1.86926,-3.88231c1.03237,0 1.86926,1.73817 1.86926,3.88231c0,2.14414 -0.83689,3.88231 -1.86926,3.88231c-1.03237,0 -1.86926,-1.73817 -1.86926,-3.88231z" data-paper-data="{&quot;index&quot;:null}" fill="#f29e4a"/><path d="M247.79012,148.42081c1.11177,0 2.01305,1.3519 2.01305,3.01957c0,1.66765 -0.90128,3.01957 -2.01305,3.01957c-1.11177,0 -2.01305,-1.3519 -2.01305,-3.01957c0,-1.66765 0.90128,-3.01957 2.01305,-3.01957z" data-paper-data="{&quot;index&quot;:null}" fill="#908816"/><path d="M227.08447,145.83262c0.50394,-0.991 2.36941,-7.54154 14.23515,-6.90189c7.10437,0.38297 9.42176,4.97308 9.90687,4.93388c3.80614,-0.30762 8.0668,1.32794 8.0668,1.968c0,1.11177 -7.53208,2.01305 -16.82335,2.01305c-9.29128,0 -16.53577,0.24904 -15.38546,-2.01305z" data-paper-data="{&quot;index&quot;:null}" fill="#f32f00"/></g></g></g></g></svg>