<svg version="1.1" xmlns="http://www.w3.org/2000/svg" xmlns:xlink="http://www.w3.org/1999/xlink" width="85.49398" height="85.49398" viewBox="0,0,85.49398,85.49398"><defs><linearGradient x1="-3285.69704" y1="-2895.28055" x2="-3285.69704" y2="4105.40967" gradientUnits="userSpaceOnUse" id="color-1"><stop offset="0" stop-color="#ffffff"/><stop offset="1" stop-color="#ffffff" stop-opacity="0"/></linearGradient></defs><g transform="translate(-197.25302,-137.25301)"><g data-paper-data="{&quot;isPaintingLayer&quot;:true}" fill-rule="nonzero" stroke-linecap="butt" stroke-linejoin="miter" stroke-miterlimit="10" stroke-dasharray="" stroke-dashoffset="0" style="mix-blend-mode: normal"><path d="M208.63952,205.58013c0.00324,-13.1024 0,-44.63208 0,-51.75c0,-3.5626 2.97813,-5.21784 6.54073,-5.21784c12.68063,0 43.89984,0 51,0c2.96729,0 5.18024,2.50056 5.18024,5.46784c0,6.43742 0,39.20833 0,51.75c0,2.95974 -2.72049,5.55758 -5.68024,5.55758c-6.61442,0 -39.17756,0 -52,0c-3.13138,0 -5.04177,-1.58613 -5.04073,-5.80758z" fill="url(#color-1)" stroke="#a97a4a" stroke-width="2"/><path d="M197.25302,222.74699v-85.49398h85.49398v85.49398z" fill="none" stroke="none" stroke-width="0"/><g stroke="none" stroke-width="0"><path d="M219.42342,200.53125v-41.03081h41.03083v41.03081z" fill="#dc570f"/><path d="M236.80566,191.18895c0,0 6.5374,-3.24155 9.17088,-8.0943c0.78951,-1.45483 0.52652,-4.32975 1.02513,-5.8932c2.8903,-9.0629 0.96118,-17.67759 0.96118,-17.67759h2.67591l0.92982,2.24305c0,0 -0.06479,9.62448 -1.24053,15.27302c-0.59426,2.855 -1.01366,5.92316 -2.26771,7.78878c-3.87845,5.76986 -8.80177,7.25222 -8.80177,7.25222l-0.06174,8.36536l-2.39118,0.00343z" fill="#e2c4a5"/><path d="M249.32152,180.35687v-5.58791c0,0 1.38792,2.11777 2.57426,2.46379c1.21347,0.35393 5.06213,0.35757 5.06213,0.35757l1.94286,1.08695v1.67959z" fill="#e2c4a5"/><path d="M221.98071,161.79704v-2.3283h25.14556v2.3283z" fill="#e2c4a5"/><path d="M219.38632,198.00303v-36.00641h2.39481v36.00641z" fill="#e2c4a5"/><path d="M250.30272,161.88031v-2.3283h7.98272v2.3283z" fill="#e2c4a5"/><path d="M219.53599,187.82415v-2.3283c0,0 3.96249,0.44247 5.60124,0.99487c1.03983,0.3505 2.62796,2.67927 4.19368,3.36817c2.53251,1.11428 5.00639,0.62617 5.00639,0.62617v2.3283c0,0 -3.89646,0.41219 -6.35812,-0.56871c-2.06984,-0.82478 -2.63801,-3.02428 -3.83865,-3.42899c-1.30905,-0.44125 -4.60453,-0.9915 -4.60453,-0.9915z" fill="#e2c4a5"/><path d="M224.31578,165.00914c1.64088,-1.78093 10.06988,-1.18281 12.60804,-1.18281c2.92957,0 5.14536,1.72051 5.63129,4.48964c0.34152,1.94625 0.33365,4.92381 0.33365,7.09936c0,3.55969 -0.60653,7.19045 -3.64353,8.73012c-1.45998,0.74017 -4.79205,0.47291 -6.41163,0.47291c-4.98858,0 -9.03261,-4.27294 -9.03261,-9.54388c0,-2.58912 -1.06936,-8.34597 0.5148,-10.06534z" fill="#eb5d10"/><path d="M245.57666,192.758c0.16908,-1.80886 3.08884,-1.54472 3.71926,-2.72293c1.64845,-3.08082 2.03333,-6.78012 3.30714,-6.78012c2.3531,0 3.91981,4.86329 3.91981,7.49876c0,2.63547 -1.90755,4.77195 -4.26066,4.77195c0,0 -7.18543,2.58012 -6.68555,-2.76766z" fill="#eb5d10"/><g fill="#752e08"><path d="M251.59024,178.3982l-1.51241,-1.64256l0.80007,-3.73318l1.81246,2.89939l5.37139,-0.19957v2.67591z"/><path d="M221.8372,200.51323v-2.59439h12.51672v2.59439z"/><path d="M239.14354,200.51323v-2.79395h18.75939v2.79396z"/><path d="M257.95279,197.63623v-19.29157h2.4946v19.29157z"/><path d="M257.95279,175.68376v-13.63715h2.6609v13.63715z"/><path d="M234.41084,190.8896c0,0 6.93654,-2.74264 9.57003,-7.59538c4.43348,-8.16956 1.99453,-23.73709 1.99453,-23.73709h3.17896c0,0 2.49414,17.16422 -3.08968,25.47114c-3.87845,5.76986 -8.80177,7.25223 -8.80177,7.25223l-0.06175,5.5714l-2.79032,0.00343z"/><path d="M219.53599,185.99477v-2.3283c0,0 3.96249,0.44247 5.60124,0.99486c1.03983,0.3505 2.62796,2.67927 4.19368,3.36817c2.53251,1.11428 11.84871,0.62617 11.84871,0.62617l-3.70627,2.3283c0,0 -7.03252,0.41219 -9.49418,-0.56871c-2.06984,-0.82478 -2.63801,-3.02428 -3.83865,-3.42899c-1.30905,-0.44125 -4.60453,-0.9915 -4.60453,-0.9915z"/></g></g></g></g></svg>