<svg version="1.1" xmlns="http://www.w3.org/2000/svg" xmlns:xlink="http://www.w3.org/1999/xlink" width="35.44354" height="41.28139" viewBox="0,0,35.44354,41.28139"><g transform="translate(-222.01895,-159.38091)"><g data-paper-data="{&quot;isPaintingLayer&quot;:true}" fill-rule="nonzero" stroke="none" stroke-width="0" stroke-linecap="butt" stroke-linejoin="miter" stroke-miterlimit="10" stroke-dasharray="" stroke-dashoffset="0" style="mix-blend-mode: normal"><path d="M236.91495,200.53125v-41.03081h6.04778v41.03081z" fill="#20ad00"/><path d="M257.46249,184.55412c0,0 -5.54642,1.04244 -9.28979,1.04244c-3.74337,0 -5.70147,-6.06608 -5.70147,-6.06608c0,0 3.42403,-3.8525 7.13679,-3.37484c6.97285,0.89708 7.85447,8.39848 7.85447,8.39848z" data-paper-data="{&quot;index&quot;:null}" fill="#20ad00"/><path d="M253.01693,181.23492c0,0.64407 -2.06974,-0.62796 -4.84422,-0.62796c-2.77448,0 -5.20306,0.01612 -5.20306,-0.62795c0,-0.64407 2.42858,-1.70445 5.20306,-1.70445c2.77448,0 4.84422,2.31629 4.84422,2.96036z" data-paper-data="{&quot;index&quot;:null}" fill="#f29e4a"/><g><path d="M230.0517,196.35375c3.71277,-0.47766 7.1368,3.37484 7.1368,3.37484c0,0 -0.12,0.37176 -0.35739,0.93122c-4.39693,-0.00513 -8.79595,-0.03815 -13.19308,0.00248c1.11516,-1.91767 3.05981,-3.87706 6.41366,-4.30854z" fill="#20ad00"/><path d="M231.84586,198.8315c2.77448,0 5.20306,1.06037 5.20306,1.70445c0,0.04442 -0.01155,0.0857 -0.03397,0.12406c-3.09361,-0.00305 -6.18829,-0.0206 -9.28264,-0.0173c0.83863,-0.85463 2.33057,-1.81121 4.11355,-1.81121z" fill="#f29e4a"/></g><g><path d="M237.01021,159.43477c0,0 -1.9581,6.06608 -5.70147,6.06608c-3.74239,0 -9.28687,-1.04189 -9.28979,-1.04244c0.2608,-2.21338 2.82317,-4.9641 2.82317,-4.9641c5.77198,-0.24705 11.50875,-0.01345 11.50875,-0.01345z" fill="#20ad00"/><path d="M222.01895,164.45841c0,0 0,0 0,0c0,0.00001 0,0.00001 0,0.00001z" fill="#20ad00"/><path d="M226.82334,161.49804c0,-0.62459 0.34185,-1.93035 2.98989,-2.06266c0.86741,0.08412 3.33531,-0.00994 4.20185,0.06192c1.66559,0.35233 2.85554,0.29399 2.85554,0.74483c0,0.64408 -2.42858,0.62796 -5.20306,0.62796c-2.77448,0 -4.84423,1.27204 -4.84423,0.62796z" fill="#f29e4a"/></g></g></g></svg>