<svg version="1.1" xmlns="http://www.w3.org/2000/svg" xmlns:xlink="http://www.w3.org/1999/xlink" width="41.26032" height="41.18463" viewBox="0,0,41.26032,41.18463"><g transform="translate(-219.36984,-159.40769)"><g data-paper-data="{&quot;isPaintingLayer&quot;:true}" fill-rule="nonzero" stroke="none" stroke-width="0" stroke-linecap="butt" stroke-linejoin="miter" stroke-miterlimit="10" stroke-dasharray="" stroke-dashoffset="0" style="mix-blend-mode: normal"><g><g><path d="M219.49742,200.55849v-41.02112h41.02113v41.02112z" fill="#dc570f"/><g fill="#752e08"><path d="M219.36984,200.59232v-3.60894h41.26032v3.60894z"/><path d="M219.36984,190.28109v-3.60894h41.2603v3.60894z"/><path d="M219.36984,180.14171v-3.60893h41.2603v3.60893z"/><path d="M219.36984,169.83049v-3.60894h41.2603v3.60894z"/><g><path d="M236.91681,166.39342v-6.87414h3.47847v6.87414z"/><path d="M257.04904,166.28184v-6.87415h3.47845v6.87415z"/></g><g><path d="M226.79766,176.5328v-6.87414h3.47846v6.87414z"/><path d="M246.92987,176.58932v-6.87415h3.47847v6.87415z"/></g><g><path d="M236.91681,186.84025v-7.21035h3.47847v7.21035z"/><path d="M257.04904,186.89678v-7.21036h3.47845v7.21036z"/></g><g><path d="M226.79766,196.98338v-6.87414h3.47846v6.87414z"/><path d="M246.92987,197.03991v-6.87415h3.47847v6.87415z"/></g></g></g><path d="M219.49742,194.33797v-34.8006h17.60271v34.8006z" fill="#000000"/></g></g></g></svg>