<svg version="1.1" xmlns="http://www.w3.org/2000/svg" xmlns:xlink="http://www.w3.org/1999/xlink" width="109.33333" height="109.33333" viewBox="0,0,109.33333,109.33333"><g transform="translate(-185.3335,-125.33349)"><g data-paper-data="{&quot;isPaintingLayer&quot;:true}" fill-rule="nonzero" stroke-width="0" stroke-linecap="butt" stroke-linejoin="miter" stroke-miterlimit="10" stroke-dasharray="" stroke-dashoffset="0" style="mix-blend-mode: normal"><path d="M185.33351,234.66683v-109.33333h109.33333v109.33333z" fill="none" stroke="none"/><path d="M236.09918,191.62999c-2.09836,-3.96971 3.65781,-7.91131 3.65781,-7.91131c0,0 3.43145,5.69207 5.52978,9.66176c0.17029,0.32218 3.05414,6.5651 -2.14363,8.43191c-2.23537,0.80282 -7.04394,-10.18236 -7.04394,-10.18236z" data-paper-data="{&quot;index&quot;:null}" fill="#908816" stroke="none"/><path d="M245.69257,155.4744c2.50473,4.37592 5.74604,12.31344 5.33031,17.1104c-0.44493,5.1338 -1.82191,9.49984 -6.87587,11.39074c-18.98981,7.10495 -17.86668,-0.25075 -18.34941,-8.63929c-0.17146,-2.9793 2.96024,-7.84954 3.717,-9.95996c1.45511,-4.05792 4.93769,-8.61201 4.93769,-8.61201z" data-paper-data="{&quot;index&quot;:null}" fill="#908816" stroke="none"/><path d="M246.63383,170.33915c2.32013,2.47503 4.50255,-1.68617 4.50255,-1.68617c0,0 0.25101,13.27008 -3.71829,17.28278c-0.79601,0.8047 -3.75172,4.65966 -3.75172,4.65966c0,0 -2.05517,-2.71145 -4.65774,-1.45681c-3.52053,1.69719 -9.06959,6.50039 -9.06959,6.50039l-5.18512,-7.3922c0,0 -0.37897,-1.8455 0.03841,-2.85743c0.45638,-1.1065 -1.81724,-4.90113 1.14826,-12.99783c1.68451,-4.59919 3.36754,-8.81103 5.43972,-12.13374c1.06928,-1.71457 1.33058,-3.3747 3.66384,-4.34621c8.42714,-3.50882 11.58968,14.42756 11.58968,14.42756z" data-paper-data="{&quot;index&quot;:null}" fill="#f32f00" stroke="none"/><path d="M221.74935,195.1376c-3.1487,-5.09207 3.04674,-7.80821 3.04674,-7.80821c0,0 3.56617,4.53667 6.71488,9.62874c0,0 2.73715,4.70695 -2.73087,6.52599c-2.22076,0.73878 -7.03075,-8.34652 -7.03075,-8.34652z" data-paper-data="{&quot;index&quot;:null}" fill="#908816" stroke="none"/><path d="M230.60782,166.60799c0,-4.52873 3.80484,-9.44242 6.33636,-9.44242c3.77394,0 5.34242,3.1743 5.34242,7.70303c0,4.52874 -1.31999,7.95152 -5.09394,7.95152c-3.77395,0 -6.58485,-1.68339 -6.58485,-6.21212z" fill="#908816" stroke="#000000"/><path d="M227.9378,145.27096c0,-6.36951 5.29695,-10.10571 14.30418,-9.8069c8.67185,0.28769 6.1528,2.79282 9.76072,5.70401c1.47624,1.19115 4.26205,1.47386 6.12023,2.85066c1.85816,1.3768 3.02627,3.24805 3.02627,4.99219c0,1.23158 -2.1838,1.70366 -3.63931,1.96116c-2.57515,0.45557 -2.70496,3.1209 -5.07728,4.22134c-3.86119,1.79109 -6.50166,1.61055 -10.76602,1.61055c-6.46731,0 -10.32974,0.21782 -12.97027,-3.63783c-1.03905,-1.51721 -0.75854,-6.09658 -0.75854,-7.89521z" data-paper-data="{&quot;index&quot;:null}" fill="#f29e4a" stroke="none"/><path d="M242.67637,153.19108c-0.05439,-0.49976 1.25204,-0.57937 2.17988,-1.60127c0.84165,-0.92696 1.22894,-2.81761 2.67961,-2.97547c1.37038,-0.14912 2.65813,2.08177 4.45431,2.55707c2.20135,0.58252 4.80897,-0.50857 4.86609,0.01628c0.01245,0.11435 0.35818,2.33096 -0.21132,2.79748c-0.64028,0.52448 -2.205,-0.70229 -2.205,-0.70229c0,0 -0.94401,1.61979 -1.74841,2.001c-1.66459,0.78885 -2.41092,-0.4836 -2.41092,-0.4836c0,0 -2.06236,1.17733 -2.71176,0.99364c-1.16643,-0.32994 -1.83677,-1.81646 -1.83677,-1.81646c0,0 -3.00746,-0.34305 -3.05571,-0.7864z" data-paper-data="{&quot;index&quot;:null}" fill="#908816" stroke="none"/><path d="M230.28182,137.32011c3.99368,-1.88979 9.25284,-3.12082 10.89995,-0.83978c0.90284,1.25034 -4.70847,6.88554 -3.9954,8.03203c0.68975,1.10898 1.83012,2.31808 1.36509,3.80691c-0.19444,0.62252 -0.86505,2.21681 -1.63646,2.33823c-0.81043,0.12756 -1.7321,-1.22132 -2.32974,-0.66855c-1.44527,1.33675 -1.76529,4.30487 -3.15268,4.30487c-2.466,0 -6.35545,0.3217 -7.43264,-1.75304c-2.07001,-3.98698 0.53831,-6.9977 0.81578,-8.3161c0.86307,-4.10097 1.47243,-5.01477 5.46611,-6.90456z" data-paper-data="{&quot;index&quot;:null}" fill="#908816" stroke="none"/><path d="M231.72555,148.10861c0,-2.14497 1.69495,-3.54071 2.72772,-3.54071c1.03277,0 1.86999,1.39574 1.86999,3.54071c0,2.14497 -0.83722,3.88381 -1.86999,3.88381c-1.03277,0 -2.72772,-1.73884 -2.72772,-3.88381z" data-paper-data="{&quot;index&quot;:null}" fill="#f29e4a" stroke="none"/><path d="M246.96782,140.19709c1.1122,0 2.01383,1.35243 2.01383,3.02074c0,1.6683 -0.90163,3.02074 -2.01383,3.02074c-1.1122,0 -2.01383,-1.35243 -2.01383,-3.02074c0,-1.6683 0.90163,-3.02074 2.01383,-3.02074z" data-paper-data="{&quot;index&quot;:null}" fill="#908816" stroke="none"/><path d="M226.25413,137.60795c0.50414,-0.99139 2.37032,-7.54446 14.24065,-6.90456c7.10711,0.38312 9.42541,4.97501 9.9107,4.93579c3.80762,-0.30775 8.06992,1.32845 8.06992,1.96876c0,1.1122 -7.53499,2.01383 -16.82986,2.01383c-9.29487,0 -16.54217,0.24914 -15.39141,-2.01383z" data-paper-data="{&quot;index&quot;:null}" fill="#f32f00" stroke="none"/><path d="M244.28667,175.85851c0,-1.02926 0.83437,-1.86364 1.86363,-1.86364c1.02926,0 1.86364,0.83438 1.86364,1.86364c0,1.02926 -0.83438,1.86363 -1.86364,1.86363c-1.02926,0 -1.86363,-0.83437 -1.86363,-1.86363z" fill="#f29e4a" stroke="#f29e4a"/><g stroke="none"><path d="M236.6225,177.59383c3.01186,0.71419 1.34986,6.7996 -2.12709,10.02851c-1.90151,1.76587 -5.08819,1.46148 -5.51811,-0.17585c-0.46569,-1.77355 1.40031,-2.49914 1.6447,-3.29677c0.616,-2.01042 -0.96434,-2.42882 0.01768,-5.03408c1.44924,-2.80485 2.38687,-2.37452 5.98277,-1.52181z" data-paper-data="{&quot;index&quot;:null}" fill="#f29e4a"/><path d="M238.7237,179.84561l-8.82108,-2.74279c0,0 -1.43215,-4.41775 -0.07427,-10.01412c2.02578,-8.34908 2.89823,-5.73391 2.89823,-5.73391l8.89637,6.46399c0,0 -0.89478,3.62863 -1.24368,5.22215c-0.37477,1.71171 -1.65558,6.80467 -1.65558,6.80467z" data-paper-data="{&quot;index&quot;:null}" fill="#908816"/></g></g></g></svg>