<svg version="1.1" xmlns="http://www.w3.org/2000/svg" xmlns:xlink="http://www.w3.org/1999/xlink" width="41.41092" height="41.18869" viewBox="0,0,41.41092,41.18869"><g transform="translate(-218.99303,-159.4156)"><g data-paper-data="{&quot;isPaintingLayer&quot;:true}" fill-rule="nonzero" stroke="none" stroke-width="0" stroke-linecap="butt" stroke-linejoin="miter" stroke-miterlimit="10" stroke-dasharray="" stroke-dashoffset="0" style="mix-blend-mode: normal"><g><path d="M218.99303,200.60429v-41.18869h41.41092v41.18869z" data-paper-data="{&quot;index&quot;:null}" fill="#dc570f"/><path d="M230.41419,180.33147c0.72892,0.60277 0.54892,12.43822 0.25492,12.64664c-1.22519,0.86854 -1.4634,-1.34607 -2.2182,0.10646c-0.99983,1.92401 -1.68769,5.34611 -2.14858,5.34611c-0.80881,0 0.13151,-10.91979 2.62575,-8.20418z" data-paper-data="{&quot;index&quot;:null}" fill="#582306"/><path d="M251.02568,179.86919c0.72892,0.60277 0.54892,12.43822 0.25492,12.64664c-1.22519,0.86854 -1.4634,-1.34606 -2.2182,0.10646c-0.99983,1.92401 -1.68769,5.34611 -2.14858,5.34611c-0.80881,0 0.13151,-10.91979 2.62575,-8.20419z" data-paper-data="{&quot;index&quot;:null}" fill="#582306"/><path d="M229.96248,161.68582c0.72892,0.60277 0.54892,12.43822 0.25492,12.64665c-1.22519,0.86853 -1.4634,-1.34607 -2.2182,0.10646c-0.99983,1.92401 -1.68768,5.34611 -2.14857,5.34611c-0.80881,0 0.13151,-10.91978 2.62575,-8.20418z" data-paper-data="{&quot;index&quot;:null}" fill="#582306"/><path d="M250.91275,161.33588c0.72892,0.60277 0.54891,12.43821 0.25491,12.64664c-1.22519,0.86853 -1.46339,-1.34606 -2.21819,0.10647c-0.99983,1.92401 -1.68769,5.34611 -2.14858,5.34611c-0.80881,0 0.13151,-10.91979 2.62575,-8.20419z" data-paper-data="{&quot;index&quot;:null}" fill="#582306"/></g></g></g></svg>