<svg version="1.1" xmlns="http://www.w3.org/2000/svg" xmlns:xlink="http://www.w3.org/1999/xlink" width="112.66618" height="112.66618" viewBox="0,0,112.66618,112.66618"><g transform="translate(-183.66691,-123.66691)"><g data-paper-data="{&quot;isPaintingLayer&quot;:true}" fill-rule="nonzero" stroke-linejoin="miter" stroke-miterlimit="10" stroke-dasharray="" stroke-dashoffset="0" style="mix-blend-mode: normal"><path d="M183.66691,236.33309v-112.66618h112.66618v112.66618z" data-paper-data="{&quot;index&quot;:null}" fill="none" stroke="none" stroke-width="0" stroke-linecap="butt"/><g><path d="M232.64715,175.73516c2.99269,-1.94645 8.9924,-5.72853 13.371,3.94681c6.40535,14.15381 -2.87504,34.83048 -9.86558,32.55401c-5.5189,-1.79723 1.17656,-15.20341 1.17656,-15.20341c0,0 -6.36848,7.00779 -8.43217,2.31091c-2.24841,-5.11724 3.62314,-14.2001 3.62314,-14.2001c0,0 -4.89817,5.92403 -6.32418,1.24951c-1.67413,-5.48793 5.77007,-10.21471 6.45123,-10.65774z" data-paper-data="{&quot;index&quot;:null}" fill="#dcdcdc" stroke="#000000" stroke-width="0" stroke-linecap="butt"/><g data-paper-data="{&quot;index&quot;:null}"><g data-paper-data="{&quot;index&quot;:null}" stroke="none" stroke-width="0" stroke-linecap="butt"><path d="M246.05468,176.42386l6.12497,-1.8602c0,0 -0.24662,-1.02403 -1.06862,-2.48142c-1.0789,-1.91284 -2.94825,-4.59836 -4.5392,-6.95687c-2.20742,-3.27235 -2.46552,-10.13659 -1.23584,-14.48162c1.14212,-4.03555 3.81028,-6.5556 5.98012,-6.83782c2.31732,-0.30139 3.90953,-0.7695 5.68192,2.17542c1.17965,1.96004 2.5245,6.08863 3.56958,7.81352c1.58462,2.61544 3.09173,1.03763 4.09801,4.90178c1.00629,3.86415 0.8718,8.33139 0.58399,10.16306c-0.5789,3.68435 -1.5708,5.12433 -2.05961,5.09363c-0.43381,-0.02724 -1.18365,-3.82862 -2.12522,-5.64124c-0.78017,-1.50192 -1.70112,-0.91438 -2.60107,-2.2073c-0.66255,-0.95186 -1.651,-2.5376 -2.51318,-2.02064c-3.05927,1.83432 0.20691,2.28272 0.65317,5.0914c0.29507,1.85711 0.75057,3.82956 1.69187,5.02517c0.47177,0.59925 2.57763,1.22805 2.4544,1.74882c-0.09401,0.39724 -1.58134,1.3164 -2.23001,2.23787c-0.91033,1.29318 -1.11122,2.71341 -1.75027,3.77605c-1.09442,1.81984 -0.31476,4.25591 -2.11382,6.18257c-1.79907,1.92667 -5.20513,2.83285 -6.1621,2.68034z" data-paper-data="{&quot;index&quot;:null}" fill="#f29e4a"/><path d="M259.42502,160.37065c-0.12267,-0.94322 0.5425,-1.8073 1.48571,-1.92997c0.94322,-0.12267 1.80729,0.5425 1.92996,1.48572c0.12267,0.94322 0.42946,1.68087 -0.51376,1.80355c-0.49121,0.06388 -0.33688,-0.826 -0.94428,-1.0846c-0.55891,-0.23796 -1.89886,0.17731 -1.95765,-0.27469z" data-paper-data="{&quot;index&quot;:null}" fill="#f32f00"/><g data-paper-data="{&quot;index&quot;:null}"><path d="M252.77058,141.63592c4.2988,-0.2559 4.73009,3.93906 5.44862,9.4636c0.71853,5.52454 -0.32184,8.22929 -2.61249,8.52722c-2.29066,0.29793 -4.96419,-1.92379 -5.68272,-7.44833c-0.71853,-5.52454 -0.92697,-10.31787 2.8466,-10.54249z" fill="#ffffff"/><path d="M256.30102,148.45312c0.94322,-0.12267 1.23083,1.17665 1.4937,3.19781c0.26287,2.02117 0.3172,3.35084 -0.62602,3.47353c-0.94322,0.12267 -2.03982,-1.07144 -2.30269,-3.09261c-0.26287,-2.02117 0.49179,-3.45605 1.43501,-3.57872z" fill="#f32f00"/></g></g><path d="M233.45765,202.13002c0,0 -3.28293,1.64368 -6.68122,2.08566c-3.39829,0.44199 -6.93138,-0.01885 -7.0369,-0.64908c-0.30015,-0.11633 1.58869,-1.76802 3.39225,-3.09968c0.97712,-0.72147 2.7999,-2.74622 2.7999,-2.74622c0,0 1.17729,1.52075 2.31642,2.20272c2.18959,1.31088 5.20956,2.20661 5.20956,2.20661z" data-paper-data="{&quot;index&quot;:null}" fill="#f29e4a" stroke="none" stroke-width="0" stroke-linecap="butt"/><path d="M248.37422,194.4064c1.32291,-1.35702 2.39223,-3.88541 2.39223,-3.88541c0,0 3.25464,2.12849 4.86643,2.7673c2.97504,1.1791 7.4406,3.73554 7.06888,4.00564c0.08451,0.90821 -5.87868,1.86727 -10.72951,2.49817c-4.85081,0.6309 -9.98119,-0.43855 -9.98119,-0.43855c0,0 3.84032,-2.33873 6.38316,-4.94715z" data-paper-data="{&quot;index&quot;:null}" fill="#f29e4a" stroke="none" stroke-width="0" stroke-linecap="butt"/><path d="M222.57306,196.90875c0,0 -0.84289,-4.92692 -1.16055,-7.36929c-1.36696,-10.51008 -1.18153,-20.53596 8.63179,-23.61475c6.44966,-2.0235 10.67018,-1.20237 14.8776,3.37816c2.35457,2.56337 4.21964,4.18285 4.21964,4.18285c0,0 0.41517,5.11436 0.75208,7.70478c0.27212,2.09223 2.82093,3.28871 2.09517,8.7084c-0.39448,2.94584 -2.67552,3.74029 -4.47358,5.322c-2.85364,2.51026 -6.12809,4.95551 -11.12621,5.60557z" data-paper-data="{&quot;index&quot;:null}" fill="#f32f00" stroke="none" stroke-width="NaN" stroke-linecap="butt"/><g data-paper-data="{&quot;index&quot;:null}" fill="#f29e4a" stroke="none" stroke-width="0" stroke-linecap="butt"><path d="M221.24158,189.91771l17.37873,-24.86704l2.29049,0.93477l-18.9153,27.46415z"/><path d="M227.91672,199.64345l19.33153,-27.88643l1.6916,1.74377l-19.2296,27.66373z"/></g><g data-paper-data="{&quot;index&quot;:null}" fill="#f29e4a" stroke="none" stroke-width="0" stroke-linecap="butt"><path d="M250.38091,189.91647l-25.25693,-21.42023l2.10573,-1.28391l24.49602,20.77487z"/><path d="M243.40746,198.76277l-22.70056,-19.23701l0.42924,-2.96532l23.61612,20.27307z"/></g><path d="M223.14635,174.16421c0.45205,-1.48918 2.61872,-3.00745 2.61872,-3.00745c0,0 -1.39906,2.93591 -1.7911,4.42433c-0.41532,1.57686 -0.63501,4.78679 -0.63501,4.78679c0,0 -1.06841,-3.31851 -0.1926,-6.20367z" data-paper-data="{&quot;index&quot;:null}" fill="#ffffff" stroke="none" stroke-width="0" stroke-linecap="butt"/><path d="M249.64071,173.22716c0,0 -0.09993,2.44131 0.43449,5.38348c0.5562,3.06219 2.31016,6.81342 1.76664,10.37242c-0.40295,2.63853 -2.56924,5.2365 -4.79437,7.02791c-3.16919,2.55147 -8.51164,4.51982 -13.44735,4.35558c-3.03757,-0.10108 -5.8956,-2.26346 -8.15597,-2.50237c-2.12918,-0.22503 -4.84753,0.55035 -4.84753,0.55035" data-paper-data="{&quot;index&quot;:null}" fill="none" stroke="#ffffff" stroke-width="3.5" stroke-linecap="round"/></g><g data-paper-data="{&quot;index&quot;:null}" stroke="#000000" stroke-width="0" stroke-linecap="butt"><path d="M226.75817,176.12688c3.42995,-0.99008 10.27128,-2.86005 11.641,7.67124c2.00372,15.40598 -12.89823,32.48174 -18.92224,28.26733c-4.75584,-3.3272 5.55506,-14.20103 5.55506,-14.20103c0,0 -8.13392,4.84829 -8.73965,-0.24607c-0.65995,-5.55032 7.60318,-12.52844 7.60318,-12.52844c0,0 -6.41164,4.23994 -6.41385,-0.64726c-0.00258,-5.7376 8.49582,-8.09044 9.2765,-8.31578z" fill="#ffffff"/><path d="M234.83891,184.41854c0.29814,4.51766 -1.15569,11.07251 -1.92021,11.12296c-0.76452,0.05046 0.48975,-5.98565 0.1916,-10.50331c-0.29814,-4.51766 -2.03579,-5.80614 -1.27126,-5.85659c0.76452,-0.05046 2.70173,0.71927 2.99987,5.23694z" fill="#f29e4a"/></g></g></g></g></svg>