<svg version="1.1" xmlns="http://www.w3.org/2000/svg" xmlns:xlink="http://www.w3.org/1999/xlink" width="119.71806" height="119.71806" viewBox="0,0,119.71806,119.71806"><g transform="translate(-180.14097,-120.14097)"><g data-paper-data="{&quot;isPaintingLayer&quot;:true}" fill-rule="nonzero" stroke-width="0" stroke-linecap="butt" stroke-linejoin="miter" stroke-miterlimit="10" stroke-dasharray="" stroke-dashoffset="0" style="mix-blend-mode: normal"><path d="M180.14097,239.85903v-119.71806h119.71806v119.71806z" data-paper-data="{&quot;index&quot;:null}" fill="none" stroke="none"/><path d="M236.89696,171.85658h6.23631c0,0 -0.35745,8.99011 0.53289,17.80526c0.7352,7.27908 1.85144,12.70519 -3.37889,12.70519c-6.38816,0 -4.37851,-5.63572 -3.96204,-12.58547c0.54605,-9.11184 0.57172,-17.92497 0.57172,-17.92497z" data-paper-data="{&quot;index&quot;:null}" fill="#dc570f" stroke="none"/><g data-paper-data="{&quot;index&quot;:null}"><path d="M262.52444,186.8999c0,0 -5.91174,6.83571 -10.68893,12.82388c-3.05303,3.82696 -7.81385,2.78077 -9.8928,1.38481c-0.6787,-0.45574 0.55741,-0.2413 0.08756,-0.83811c-1.90903,-2.4249 -0.94894,-5.68977 4.46225,-9.23038c8.39119,-5.49045 16.03193,-4.14019 16.03193,-4.14019z" fill="#dc570f" stroke="none"/><path d="M255.43756,189.98258c2.77401,-2.04859 5.51517,-2.79854 5.64908,-2.6072c0.13714,0.19594 -2.46841,1.02622 -5.46167,3.31105c-1.65377,1.26236 -4.38811,1.31596 -6.16091,2.55676c-4.85876,3.40066 -7.16464,6.78748 -7.38056,6.479c-0.21592,-0.30849 2.07586,-3.71545 6.93463,-7.11611c1.84529,-1.29152 4.68731,-1.34431 6.41943,-2.62347z" fill="#148382" stroke="#148382"/></g><g data-paper-data="{&quot;index&quot;:null}"><path d="M233.16995,190.7966c5.58886,3.25293 6.71828,6.46315 4.93861,8.98453c-0.43801,0.62054 0.78521,0.34181 0.13124,0.83239c-2.00314,1.50274 -6.70277,2.79632 -9.95167,-0.86581c-5.08366,-5.73029 -11.34463,-12.24765 -11.34463,-12.24765c0,0 7.55973,-1.7478 16.22643,3.29654z" fill="#dc570f" stroke="none"/><path d="M230.7296,192.49243c5.02987,3.14204 7.4966,6.42456 7.29711,6.74391c-0.1995,0.31936 -2.67926,-2.94231 -7.70912,-6.08435c-1.83523,-1.14643 -4.56863,-1.05704 -6.28613,-2.23123c-3.10861,-2.12525 -5.75397,-2.81821 -5.62727,-3.02104c0.12373,-0.19807 2.90034,0.40758 5.77764,2.30837c1.79662,1.18687 4.63752,1.09104 6.54779,2.28434z" fill="#148382" stroke="#148382"/></g><g stroke="none"><path d="M230.92975,152.87975c0,0 3.44537,0.97833 5.60132,2.1884c2.31001,1.29655 2.68531,2.25733 2.32027,3.27445c-0.1785,0.49732 -1.62458,0.06906 -2.96763,0.01932c-1.63188,-0.06044 -2.59031,0.81463 -3.15157,1.07464z" fill="#ffffff"/><path d="M228.786,148.52688c0,0 4.46433,0.00225 6.62029,1.21232c2.31001,1.29654 2.68531,2.25733 2.32027,3.27445c-0.17849,0.49733 -1.62458,0.06905 -2.96762,0.01932c-1.63188,-0.06044 -2.59031,0.81463 -3.15157,1.07464z" fill="#ffffff"/><path d="M226.41883,142.21532c0,0 3.54364,-0.41103 6.02724,-0.11781c2.66107,0.31417 3.42736,1.05582 3.55082,2.13118c0.06038,0.52581 -1.43481,0.68208 -2.66854,1.14762c-1.49904,0.56565 -1.97412,1.73617 -2.36469,2.18921z" fill="#ffffff"/><path d="M223.07803,136.74032c0,0 3.47617,-0.73818 5.96269,-0.90079c2.66421,-0.17424 3.9459,0.99353 4.29495,2.03023c0.17068,0.50692 -1.63165,0.35604 -2.73694,1.03878c-1.34299,0.82958 -2.68362,3.0494 -2.96858,3.56662z" fill="#ffffff"/><path d="M221.37049,165.03721c-4.71248,-7.84475 -1.22154,-16.86066 0.25791,-22.90652c0.92553,-3.78228 0.29979,-6.50973 0.29979,-6.50973c0,0 2.92094,-0.54865 5.50558,4.04133c3.93327,6.98498 7.71533,20.75243 10.77521,27.08119c1.00736,2.08354 3.59271,4.82808 3.59271,4.82808l-0.26372,3.96291c0,0 -12.60353,2.09426 -20.16745,-10.49723z" data-paper-data="{&quot;index&quot;:null}" fill="#148382"/><path d="M231.62322,163.3069c-0.9363,0.00516 -1.71693,-0.69286 -1.74357,-1.55907c-0.02665,-0.86621 0.71078,-1.57261 1.64708,-1.57777c0.9363,-0.00516 1.71693,0.69286 1.74357,1.55907c0.02665,0.86621 -0.71078,1.57261 -1.64708,1.57777z" fill="#dc570f"/><path d="M229.03963,156.12471c-0.81927,0.00452 -1.5023,-0.60625 -1.52562,-1.36419c-0.02332,-0.75795 0.62193,-1.37603 1.4412,-1.38055c0.81927,-0.00452 1.5023,0.60625 1.52562,1.36419c0.02332,0.75795 -0.62193,1.37603 -1.4412,1.38055z" fill="#dc570f"/><path d="M221.83376,155.12529c-0.81927,0.00452 -1.5023,-0.60625 -1.52562,-1.36419c-0.02332,-0.75795 0.62193,-1.37603 1.4412,-1.38055c0.81927,-0.00452 1.5023,0.60625 1.52562,1.36419c0.02332,0.75795 -0.62193,1.37603 -1.4412,1.38055z" fill="#dc570f"/><path d="M227.726,146.85721c-0.70223,0.00387 -1.2877,-0.51964 -1.30768,-1.1693c-0.01998,-0.64966 0.53308,-1.17946 1.23531,-1.18333c0.70223,-0.00387 1.2877,0.51964 1.30768,1.1693c0.01998,0.64966 -0.53308,1.17946 -1.23531,1.18333z" fill="#dc570f"/><path d="M224.79369,161.77588c-0.70223,0.00387 -1.2877,-0.51964 -1.30768,-1.1693c-0.01998,-0.64966 0.53308,-1.17946 1.23531,-1.18333c0.70223,-0.00387 1.2877,0.51964 1.30768,1.1693c0.01998,0.64966 -0.53308,1.17946 -1.23531,1.18333z" fill="#dc570f"/><path d="M233.16005,171.92618c-0.9363,0.00516 -1.71693,-0.69286 -1.74357,-1.55907c-0.02665,-0.86621 0.71078,-1.57261 1.64708,-1.57777c0.9363,-0.00516 1.71693,0.69286 1.74357,1.55907c0.02665,0.86621 -0.71078,1.57261 -1.64708,1.57777z" fill="#dc570f"/><path d="M228.81321,168.42061c-0.46814,0.00258 -0.85845,-0.34642 -0.87178,-0.77953c-0.01332,-0.4331 0.35538,-0.7863 0.82354,-0.78888c0.46814,-0.00258 0.85845,0.34642 0.87178,0.77953c0.01332,0.4331 -0.35538,0.7863 -0.82354,0.78888z" fill="#dc570f"/><path d="M223.35503,142.56744c-0.70223,0.00387 -1.2877,-0.51964 -1.30768,-1.1693c-0.01998,-0.64966 0.53308,-1.17946 1.23531,-1.18333c0.70223,-0.00387 1.2877,0.51964 1.30768,1.1693c0.01998,0.64966 -0.53308,1.17946 -1.23531,1.18333z" fill="#dc570f"/></g><g data-paper-data="{&quot;index&quot;:null}" stroke="none"><path d="M249.09661,159.19957c-0.54942,-0.29448 -1.46865,-1.23905 -3.10198,-1.25873c-1.34425,-0.01621 -2.8081,0.35028 -2.96459,-0.16822c-0.32004,-1.06043 0.09725,-2.02612 2.46257,-3.23908c2.20758,-1.13206 5.69343,-1.96218 5.69343,-1.96218z" fill="#ffffff"/><path d="M250.45491,153.79557c-0.54942,-0.29448 -1.46865,-1.23905 -3.10198,-1.25873c-1.34424,-0.01621 -2.8081,0.35029 -2.96458,-0.16821c-0.32004,-1.06043 0.09724,-2.02613 2.46257,-3.23908c2.20759,-1.13206 6.66873,-0.91109 6.66873,-0.91109z" fill="#ffffff"/><path d="M251.38588,147.12447c-0.37036,-0.48374 -0.7936,-1.70685 -2.26666,-2.36141c-1.21235,-0.53871 -2.69956,-0.77361 -2.6161,-1.30936c0.17067,-1.09568 0.96901,-1.81728 3.64193,-2.0061c2.49467,-0.17623 6.01762,0.42215 6.01762,0.42215z" fill="#ffffff"/><path d="M254.94082,142.07541c-0.262,-0.54422 -1.50402,-2.88577 -2.80953,-3.80297c-1.07445,-0.75484 -2.88208,-0.69038 -2.68924,-1.20126c0.39438,-1.04478 1.72649,-2.17722 4.38107,-1.86545c2.47754,0.29098 5.91868,1.2212 5.91868,1.2212z" fill="#ffffff"/><path d="M260.20354,165.50646c-8.11213,12.52344 -20.61426,9.74724 -20.61426,9.74724l-0.08923,-4.07374c0,0 2.70415,-2.68287 3.8024,-4.76736c3.33597,-6.33166 7.72076,-20.24918 11.95833,-27.20954c2.7846,-4.57381 5.67926,-3.86555 5.67926,-3.86555c0,0 -0.74524,2.76336 0.01326,6.68512c1.21245,6.26881 4.30429,15.68146 -0.74974,23.48381z" data-paper-data="{&quot;index&quot;:null}" fill="#148382"/><path d="M248.45801,161.52171c0.06472,-0.88622 0.87548,-1.5624 1.81086,-1.51028c0.93538,0.05212 1.64119,0.8128 1.57647,1.69902c-0.06472,0.88622 -0.87548,1.5624 -1.81086,1.51028c-0.93538,-0.05212 -1.64119,-0.8128 -1.57647,-1.69902z" fill="#dc570f"/><path d="M251.55263,154.50415c0.05664,-0.77545 0.76603,-1.36711 1.5845,-1.3215c0.81846,0.04561 1.43605,0.71119 1.37942,1.48664c-0.05664,0.77545 -0.76603,1.36711 -1.5845,1.3215c-0.81846,-0.04561 -1.43605,-0.71119 -1.37942,-1.48664z" fill="#dc570f"/><path d="M258.79715,153.84049c0.05664,-0.77545 0.76603,-1.36711 1.5845,-1.3215c0.81846,0.04561 1.43605,0.71119 1.37942,1.48664c-0.05664,0.77545 -0.76603,1.36711 -1.5845,1.3215c-0.81846,-0.04561 -1.43605,-0.71119 -1.37942,-1.48664z" fill="#dc570f"/><path d="M253.46995,145.28639c0.04854,-0.66467 0.6566,-1.1718 1.35814,-1.13271c0.70154,0.03909 1.23089,0.60959 1.18235,1.27427c-0.04854,0.66467 -0.6566,1.1718 -1.35814,1.13271c-0.70154,-0.03909 -1.23089,-0.60959 -1.18235,-1.27427z" fill="#dc570f"/><path d="M255.74396,160.71929c0.04854,-0.66467 0.6566,-1.1718 1.35814,-1.13271c0.70154,0.03909 1.23089,0.60959 1.18235,1.27427c-0.04854,0.66467 -0.6566,1.1718 -1.35814,1.13271c-0.70154,-0.03909 -1.23089,-0.60959 -1.18235,-1.27427z" fill="#dc570f"/><path d="M246.54323,170.2765c0.06472,-0.88622 0.87548,-1.5624 1.81086,-1.51028c0.93538,0.05212 1.64119,0.8128 1.57647,1.69902c-0.06472,0.88622 -0.87548,1.5624 -1.81086,1.51028c-0.93538,-0.05212 -1.64119,-0.8128 -1.57647,-1.69902z" fill="#dc570f"/><path d="M251.82928,167.75147c0.03236,-0.44311 0.43773,-0.7812 0.90542,-0.75514c0.46769,0.02606 0.8206,0.4064 0.78823,0.8495c-0.03236,0.44311 -0.43773,0.7812 -0.90542,0.75514c-0.46769,-0.02606 -0.8206,-0.4064 -0.78823,-0.8495z" fill="#dc570f"/><path d="M258.02637,141.10952c0.04854,-0.66467 0.6566,-1.1718 1.35814,-1.13271c0.70154,0.03909 1.23089,0.60959 1.18235,1.27427c-0.04854,0.66467 -0.6566,1.1718 -1.35814,1.13271c-0.70154,-0.03909 -1.23089,-0.60959 -1.18235,-1.27427z" fill="#dc570f"/></g></g></g></svg>