<svg version="1.1" xmlns="http://www.w3.org/2000/svg" xmlns:xlink="http://www.w3.org/1999/xlink" width="85.49398" height="85.49398" viewBox="0,0,85.49398,85.49398"><defs><linearGradient x1="-3285.69704" y1="-2895.28053" x2="-3285.69704" y2="4105.40968" gradientUnits="userSpaceOnUse" id="color-1"><stop offset="0" stop-color="#ffffff"/><stop offset="1" stop-color="#ffffff" stop-opacity="0"/></linearGradient></defs><g transform="translate(-197.25302,-137.25303)"><g data-paper-data="{&quot;isPaintingLayer&quot;:true}" fill-rule="nonzero" stroke-linecap="butt" stroke-linejoin="miter" stroke-miterlimit="10" stroke-dasharray="" stroke-dashoffset="0" style="mix-blend-mode: normal"><path d="M208.63952,205.58015c0.00324,-13.1024 0,-44.63208 0,-51.75c0,-3.5626 2.97813,-5.21784 6.54073,-5.21784c12.68063,0 43.89984,0 51,0c2.96729,0 5.18024,2.50056 5.18024,5.46784c0,6.43742 0,39.20833 0,51.75c0,2.95974 -2.72049,5.55758 -5.68024,5.55758c-6.61442,0 -39.17756,0 -52,0c-3.13138,0 -5.04177,-1.58613 -5.04073,-5.80758z" fill="url(#color-1)" stroke="#a97a4a" stroke-width="2"/><path d="M197.25302,222.74701v-85.49398h85.49398v85.49398z" fill="none" stroke="none" stroke-width="0"/><path d="M207.25301,212.74701v-65.49398h65.49398v65.49398z" fill="none" stroke="none" stroke-width="0"/><g stroke="none" stroke-width="0"><path d="M219.26857,200.7067v-41.32314h41.32315v41.32314z" fill="#cccccc"/><g fill="#a5a5a5"><path d="M219.14005,200.74078v-3.63208h41.5641v3.63208z"/><path d="M219.14005,190.36346v-3.63208h41.56408v3.63208z"/><path d="M219.14005,180.1591v-3.63206h41.56408v3.63206z"/><path d="M219.14005,169.78178v-3.63208h41.56408v3.63208z"/><g><path d="M236.81622,166.32268v-6.91819h3.50408v6.91819z"/><path d="M257.09667,166.21038v-6.9182h3.50406v6.91821z"/></g><g><path d="M226.62255,176.52705v-6.91819h3.50407v6.91819z"/><path d="M246.90299,176.58394v-6.91821h3.50408v6.91821z"/></g><g><path d="M236.81622,186.90058v-7.25655h3.50408v7.25655z"/><path d="M257.09667,186.95747v-7.25657h3.50406v7.25657z"/></g><g><path d="M226.62255,197.10871v-6.91819h3.50407v6.91819z"/><path d="M246.90299,197.16561v-6.9182h3.50408v6.91821z"/></g></g></g></g></g></svg>