<svg version="1.1" xmlns="http://www.w3.org/2000/svg" xmlns:xlink="http://www.w3.org/1999/xlink" width="112.66618" height="112.66618" viewBox="0,0,112.66618,112.66618"><g transform="translate(-183.66691,-123.66691)"><g data-paper-data="{&quot;isPaintingLayer&quot;:true}" fill-rule="nonzero" stroke-linejoin="miter" stroke-miterlimit="10" stroke-dasharray="" stroke-dashoffset="0" style="mix-blend-mode: normal"><path d="M183.66691,236.33309v-112.66618h112.66618v112.66618z" data-paper-data="{&quot;index&quot;:null}" fill="none" stroke="none" stroke-width="0" stroke-linecap="butt"/><path d="M224.52534,196.52369c0.82495,-1.93424 0.99067,-2.77134 2.27149,-3.7796c2.66152,-2.09512 3.69273,0.80013 5.20442,2.72048c0.3592,0.4563 -1.08944,1.54921 -3.75095,3.64434c-2.66152,2.09512 -3.82003,3.05455 -4.08319,2.72024c-0.7842,-0.9962 -0.53104,-3.22039 0.35824,-5.30546z" data-paper-data="{&quot;index&quot;:null}" fill="#f29e4a" stroke="none" stroke-width="0" stroke-linecap="butt"/><path d="M234.95374,175.40681c6.05037,-0.68465 11.12001,-0.41457 16.1641,1.92961c4.73694,2.20143 8.54674,7.52324 8.54674,7.52324l-3.2533,2.09969c0,0 4.96791,5.18817 4.44272,7.87542c-0.38054,1.94715 -18.20691,3.10886 -18.20691,3.10886c0,0 -4.04246,1.91796 -6.60647,1.91796c-8.55381,0 -14.83869,-5.73647 -16.57491,-8.28745c-2.10141,-3.08754 2.50722,-14.69844 15.48803,-16.16733z" data-paper-data="{&quot;index&quot;:null}" fill="#f32f00" stroke="none" stroke-width="0" stroke-linecap="butt"/><path d="M253.51757,191.57413c0,-1.5757 0.79074,-2.85306 1.76618,-2.85306c0.97544,0 1.76618,1.27736 1.76618,2.85306c0,1.5757 -0.79074,2.85306 -1.76618,2.85306c-0.97544,0 -1.76618,-1.27736 -1.76618,-2.85306z" data-paper-data="{&quot;index&quot;:null}" fill="#ffffff" stroke="none" stroke-width="0" stroke-linecap="butt"/><path d="M232.0644,176.62954c0,0 5.46552,-16.40242 6.82928,-16.32536c1.18154,0.06677 6.28584,16.32536 6.28584,16.32536c0,0 -2.03991,2.7172 -6.69342,2.7172c-4.3365,0 -6.4217,-2.7172 -6.4217,-2.7172z" data-paper-data="{&quot;index&quot;:null}" fill="#f29e4a" stroke="none" stroke-width="0" stroke-linecap="butt"/><path d="M220.80632,185.08301c0,0 -0.83462,-18.90221 0.35039,-19.58155c1.02668,-0.58858 10.64146,12.42715 10.64146,12.42715c0,0 -0.2274,3.39009 -4.12753,5.92862c-3.63444,2.3656 -6.86432,1.22579 -6.86432,1.22579z" data-paper-data="{&quot;index&quot;:null}" fill="#f29e4a" stroke="none" stroke-width="0" stroke-linecap="butt"/><path d="M250.19006,182.49863c-3.90013,-2.53853 -4.12753,-5.92862 -4.12753,-5.92862c0,0 9.61477,-13.01573 10.64146,-12.42715c1.18501,0.67935 0.35039,19.58155 0.35039,19.58155c0,0 -3.22987,1.13981 -6.86431,-1.22579z" data-paper-data="{&quot;index&quot;:null}" fill="#f29e4a" stroke="none" stroke-width="0" stroke-linecap="butt"/><path d="M238.89368,180.29776c2.37486,0 7.74401,3.09815 7.74401,6.24956c0,3.1514 -3.46711,5.70612 -7.74401,5.70612c-4.2769,0 -7.74401,-2.55472 -7.74401,-5.70612c0,-3.1514 5.36915,-6.24956 7.74401,-6.24956z" data-paper-data="{&quot;index&quot;:null}" fill="#f29e4a" stroke="none" stroke-width="0" stroke-linecap="butt"/><path d="M228.31183,177.83529c-0.47872,-1.00321 -7.15512,-12.33383 -7.15512,-12.33383c1.02668,-0.58858 10.64146,12.42715 10.64146,12.42715c0,0 -0.22741,3.39009 -4.12753,5.92862c-1.74746,1.1374 1.78111,-4.0098 0.64119,-6.02194z" data-paper-data="{&quot;index&quot;:null}" fill="#ffffff" stroke="none" stroke-width="0" stroke-linecap="butt"/><path d="M241.84631,176.00847c0.00409,-4.12439 -4.31639,-15.78135 -2.95264,-15.70428c1.18154,0.06677 6.28584,16.32536 6.28584,16.32536c0,0 -2.03991,2.7172 -6.69342,2.7172c-4.3365,0 3.35842,-1.52182 3.36022,-3.33827z" data-paper-data="{&quot;index&quot;:null}" fill="#ffffff" stroke="none" stroke-width="0" stroke-linecap="butt"/><path d="M250.19006,182.49863c-3.90013,-2.53853 2.78152,0.75556 3.94643,-2.66798c2.01935,-5.93465 1.54081,-16.27637 2.5675,-15.68779c1.18501,0.67935 0.35039,19.58155 0.35039,19.58155c0,0 -3.22987,1.13981 -6.86431,-1.22579z" data-paper-data="{&quot;index&quot;:null}" fill="#ffffff" stroke="none" stroke-width="0" stroke-linecap="butt"/><path d="M238.89368,180.29776c2.37486,0 7.74401,3.09815 7.74401,6.24956c0,1.27679 -0.56911,2.45563 -1.53061,3.40631c-1.7414,1.72181 -3.24389,-1.26796 -3.24389,-3.71685c0,-3.1514 -5.34437,-5.93902 -2.96951,-5.93902z" data-paper-data="{&quot;index&quot;:null}" fill="#ffffff" stroke="none" stroke-width="0" stroke-linecap="butt"/><path d="M249.71608,201.625c-0.33804,0.25833 -1.22149,-0.9591 -3.27821,-3.65042c-2.05671,-2.69132 -1.85463,-2.77687 -1.39322,-3.12949c1.94183,-1.48396 2.32748,-5.36505 4.38421,-2.67374c0.98977,1.29516 0.94205,2.14717 1.25994,4.22582c0.34269,2.24074 0.03464,4.45799 -0.97271,5.22782z" fill="#f29e4a" stroke="none" stroke-width="0" stroke-linecap="butt"/><path d="M260.22368,185.73216c0,0 -4.67871,0.86492 -8.82072,4.07191c-4.69965,3.63874 -8.71155,9.39621 -14.86514,9.27557c-4.05627,-0.07952 -5.63591,-1.11396 -9.34314,-2.66036c-5.6317,-2.34916 -9.08757,-5.52444 -9.08757,-5.52444" data-paper-data="{&quot;index&quot;:null}" fill="none" stroke="#ffffff" stroke-width="3.5" stroke-linecap="round"/></g></g></svg>