<svg version="1.1" xmlns="http://www.w3.org/2000/svg" xmlns:xlink="http://www.w3.org/1999/xlink" width="41.41093" height="17.33264" viewBox="0,0,41.41093,17.33264"><g transform="translate(-219.29454,-159.44166)"><g data-paper-data="{&quot;isPaintingLayer&quot;:true}" fill-rule="nonzero" stroke-width="0" stroke-linecap="butt" stroke-linejoin="miter" stroke-miterlimit="10" stroke-dasharray="" stroke-dashoffset="0" style="mix-blend-mode: normal"><path d="M252.20699,171.12653c2.15756,-1.93741 0.51935,-5.27651 0.51935,-5.27651c0,0 1.96848,1.23553 1.96848,3.62516c0,2.38963 -2.82503,4.32681 -5.0324,4.32681c-2.20738,0 -3.69801,-1.72908 -3.69801,-1.72908c0,0 4.08502,0.99103 6.24258,-0.94637z" fill="#f32f00" stroke="#a97a4a"/><path d="M232.4021,170.96978c2.15756,-1.93741 0.51937,-5.2765 0.51937,-5.2765c0,0 1.96846,1.23553 1.96846,3.62515c0,2.38963 -2.82503,4.32681 -5.0324,4.32681c-2.20738,0 -3.69801,-1.72909 -3.69801,-1.72909c0,0 4.08502,0.99103 6.24258,-0.94637z" fill="#f32f00" stroke="#a97a4a"/><path d="M219.32555,175.52027v-15.52698h41.19217v15.52698zM249.71778,172.97103c3.05888,-0.12945 4.61005,-1.66748 4.61005,-3.72441c0,-2.05693 -1.29351,-3.66065 -4.61005,-3.72439c-3.3197,-0.0638 -4.61005,1.66746 -4.61005,3.72439c0,2.05693 1.81257,3.8428 4.61005,3.72441zM229.77439,172.81427c2.92768,-0.05394 4.73949,-1.66747 4.73949,-3.7244c0,-2.05693 -1.81165,-3.65222 -4.73949,-3.7244c-2.9314,-0.07227 -4.7395,1.66747 -4.7395,3.7244c0,2.05693 1.937,3.77604 4.7395,3.7244z" data-paper-data="{&quot;index&quot;:null}" fill="#f29e4a" stroke="none"/><path d="M219.29454,164.53445v-2.80665h41.41093v2.80665z" data-paper-data="{&quot;index&quot;:null}" fill="#f32f00" stroke="none"/><path d="M219.29454,176.7743v-2.80667h41.41093v2.80667z" data-paper-data="{&quot;index&quot;:null}" fill="#f32f00" stroke="none"/><path d="M219.29454,161.81974v-2.37808h41.41093v2.37808z" data-paper-data="{&quot;index&quot;:null}" fill="#ffffff" stroke="none"/></g></g></svg>