<svg version="1.1" xmlns="http://www.w3.org/2000/svg" xmlns:xlink="http://www.w3.org/1999/xlink" width="35.28586" height="60.1792" viewBox="0,0,35.28586,60.1792"><g transform="translate(-223.48912,-141.18793)"><g data-paper-data="{&quot;isPaintingLayer&quot;:true}" fill-rule="nonzero" stroke="none" stroke-width="0" stroke-linecap="butt" stroke-linejoin="miter" stroke-miterlimit="10" stroke-dasharray="" stroke-dashoffset="0" style="mix-blend-mode: normal"><g><path d="M245.46211,148.24925c0,0 6.49868,7.25498 6.49868,15.83586c0,1.38896 0.26836,5.51803 0.26836,5.51803l-0.81191,-0.46693c0,0 1.26772,12.69373 -12.3791,12.12931c-15.23864,-0.63026 -5.30352,-21.51286 -5.30352,-21.51286z" fill="#f32f00"/><path d="M258.77496,191.46723c0,1.65365 -0.06491,9.85187 -0.06491,9.85187l-35.22093,0.04803c0,0 0.19058,-3.09336 0.19058,-9.89992c0,-6.80656 7.17463,-12.32437 17.54764,-12.32437c10.37301,0 17.54764,5.51781 17.54764,12.32437z" data-paper-data="{&quot;index&quot;:null}" fill="#ffffff"/><path d="M223.69213,199.37509v-5.47781c0,0 3.24914,0.22598 7.1679,-0.49747c3.47214,-0.641 7.96795,-1.74345 10.69723,-1.74345c2.5304,0 5.66883,1.01022 8.9814,1.59165c4.34725,0.76303 8.13676,0.64928 8.13676,0.64928v5.47781c0,0 -3.65006,0.64421 -7.89515,-0.10865c-3.37627,-0.59878 -6.63095,-1.63428 -9.22302,-1.63428c-2.70611,0 -7.15729,1.09223 -10.60866,1.72713c-3.95825,0.72814 -7.25647,0.01581 -7.25647,0.01581z" fill="#f32f00"/><path d="M235.08348,181.39732v-8.21672h11.45361v8.21672z" fill="#ffffff"/><path d="M228.7757,171.93565c3.11737,0 5.70433,-4.13981 7.30304,-3.08903c4.19333,2.75616 -1.12307,6.65791 -6.14109,6.65791c-5.01802,0 -4.27933,-3.56888 -1.16196,-3.56888z" data-paper-data="{&quot;index&quot;:null}" fill="#f29e4a"/><path d="M231.84661,171.81116c0,-1.02677 1.49138,-1.93874 2.34392,-2.95761c0.52044,-0.62199 0.17801,-1.49207 0.93317,-1.84565c1.40412,-0.65744 3.15958,-0.30107 5.06412,-0.30107c1.95742,0 4.50434,-0.08538 5.92723,0.60544c1.92583,0.935 2.41397,2.87766 2.41397,4.49888c0,2.81904 -3.73448,5.10432 -8.34121,5.10432c-4.60673,0 -8.34122,-2.28528 -8.34122,-5.10432z" fill="#ffffff"/><path d="M228.11171,173.3051c0,-1.44753 2.22083,-0.59035 5.30317,-0.31732c1.45636,0.129 3.23399,-0.38815 4.82249,-0.38815c3.11737,0 5.70433,-4.13981 7.30304,-3.08903c4.19334,2.75615 -3.44698,7.65387 -8.465,7.65387c-1.65956,0 -3.21379,-0.36018 -4.5468,-0.69865c-2.64339,-0.67119 -4.41689,-1.74378 -4.41689,-3.16072z" fill="#f29e4a"/><path d="M242.67547,163.39837c0,0 0.28175,2.7925 0.14029,4.31076c-0.09988,1.07199 -0.90873,1.60657 -1.67872,2.00965c-1.61744,0.84671 -3.72645,1.57535 -4.09753,1.34076c-0.32404,-0.20486 -1.35073,-0.88865 -1.27098,-1.63532c0.0705,-0.66007 2.77011,-2.56658 2.77011,-2.56658l0.10766,-2.50275z" fill="#f29e4a"/><path d="M238.98434,146.995c6.82229,-0.49798 9.04669,4.05034 9.04669,9.04669c0,4.99635 -4.05034,9.04669 -9.04669,9.04669c-4.99634,0 -12.03992,-5.11995 -6.39078,-10.87263c1.09783,-1.11796 1.40769,-6.85702 6.39078,-7.22075z" fill="#f29e4a"/><path d="M233.92152,152.47282c1.28347,0 0.66398,0.7977 0.66398,1.57694c0,0.77924 -1.04045,1.41095 -2.32392,1.41095c-1.28347,0 -2.32393,-0.63171 -2.32393,-1.41095c0,-0.77924 2.7004,-1.57694 3.98387,-1.57694z" fill="#f29e4a"/><path d="M237.07541,151.31086c0.55005,0 0.99596,0.81749 0.99596,1.82593c0,1.00843 -0.4459,1.82593 -0.99596,1.82593c-0.55005,0 -0.99596,-0.81749 -0.99596,-1.82593c0,-1.00843 0.4459,-1.82593 0.99596,-1.82593z" fill="#000000"/><g><path d="M231.4467,160.06165c0,-0.64173 -0.33975,-1.25251 0.89788,-1.25251c1.23762,0 3.07089,-0.49083 3.07089,0.1509c0,0.64173 -0.6864,1.43359 -1.38078,1.5694c-1.21461,0.23757 -2.588,0.17393 -2.588,-0.4678z" data-paper-data="{&quot;index&quot;:null}" fill="#f32f00"/><path d="M230.76763,157.95064c0,-0.64174 1.91664,-0.56956 3.13125,-0.33199c0.69437,0.13581 1.51659,0.52023 1.51659,1.16196c0,0.64173 -1.96909,0.55834 -3.20671,0.55834c-1.23762,0 -1.44113,-0.74659 -1.44113,-1.38832z" fill="#d12a00"/></g><path d="M237.54308,146.49024l0.90039,-5.30231l1.67017,1.98837l2.30656,-1.31307l1.74382,2.00087l2.23292,-1.32558l-0.90039,5.30231z" fill="#f29e4a"/><g><path d="M231.40656,145.33606c0.7385,-1.32013 3.50787,-0.1245 7.22075,-0.1245c1.86406,0 5.5814,0.60379 7.70543,2.88434c2.10666,2.2619 2.62771,6.1976 2.62771,6.95082c0,0.17135 -0.75129,-1.74883 -1.68295,-1.4384c-0.95744,0.31902 -2.10535,2.86108 -2.82413,2.45177c-0.49565,-0.28226 -0.5014,-5.30246 -0.66975,-5.45287c-1.7242,-1.54044 -2.90087,-2.16818 -3.64176,-1.82527c-1.59237,0.737 -0.64309,2.03191 -0.64309,2.03191c0,0 -7.56356,0.81173 -8.63168,-1.78726c-1.22783,-2.98759 0.36017,-3.37006 0.53946,-3.69055z" fill="#f32f00"/><path d="M246.34604,154.67324c0,0 0.2433,-1.49395 1.61844,-1.49395c1.37514,0 2.48991,1.11477 2.48991,2.48991c0,1.37514 -1.11477,2.48991 -2.48991,2.48991c-1.37514,0 -1.61844,-3.48588 -1.61844,-3.48588z" fill="#f29e4a"/></g></g></g></g></svg>