<svg version="1.1" xmlns="http://www.w3.org/2000/svg" xmlns:xlink="http://www.w3.org/1999/xlink" width="109.33333" height="109.33333" viewBox="0,0,109.33333,109.33333"><g transform="translate(-185.33334,-125.33334)"><g data-paper-data="{&quot;isPaintingLayer&quot;:true}" fill-rule="nonzero" stroke="none" stroke-width="0" stroke-linecap="butt" stroke-linejoin="miter" stroke-miterlimit="10" stroke-dasharray="" stroke-dashoffset="0" style="mix-blend-mode: normal"><path d="M185.33334,234.66667v-109.33333h109.33333v109.33333z" fill="none"/><path d="M243.0373,194.21508c-0.43991,3.19917 -5.65494,2.77318 -5.65494,2.77318c0,0 0.15119,-5.58738 0.5911,-8.78656c0.03571,-0.25964 0.69331,-3.40592 4.56184,-3.11787c3.17384,0.23633 0.502,9.13125 0.502,9.13125z" data-paper-data="{&quot;index&quot;:null}" fill="#908816"/><path d="M222.58655,174.82522c1.64374,0 3.59056,-1.14408 4.94922,-0.3526c3.09332,1.80201 4.80321,6.97592 4.80321,11.10017c0,0.5191 -0.67723,2.14681 -0.67723,2.14681l6.48735,-0.1402c0,0 1.82761,2.19648 1.77781,5.52452c-0.03872,2.58747 -2.21641,4.26137 -2.21641,4.26137c0,0 -12.94974,0.14924 -14.72589,0.14924c-5.38612,0 -10.87157,-6.20321 -9.35437,-11.94175c1.99029,-7.52795 3.57019,-10.74756 8.95631,-10.74756z" fill="#f32f00"/><g><path d="M215.21506,167.49078c0,-4.85542 4.03781,-7.70348 10.90394,-7.4757c6.61047,0.2193 4.69022,2.12894 7.4405,4.34811c1.12532,0.908 3.24892,1.12351 4.66539,2.17303c1.41646,1.04952 2.3069,2.47596 2.3069,3.8055c0,0.93882 -1.66469,1.29868 -2.77421,1.49497c-1.96301,0.34728 -2.06196,2.37903 -3.87036,3.21789c-2.94335,1.36533 -4.95615,1.22771 -8.20683,1.22771c-4.92997,0 -7.87426,0.16604 -9.88711,-2.77308c-0.79206,-1.15655 -0.57823,-4.64736 -0.57823,-6.01844z" data-paper-data="{&quot;index&quot;:null}" fill="#f29e4a"/><path d="M226.45014,173.52818c-0.04146,-0.38096 0.95442,-0.44165 1.6617,-1.22063c0.64158,-0.70661 0.93681,-2.14784 2.04264,-2.26817c1.04463,-0.11367 2.02627,1.58691 3.39548,1.94923c1.67807,0.44405 3.66583,-0.38768 3.70937,0.01241c0.00949,0.08717 0.27304,1.77687 -0.16109,2.13249c-0.48808,0.39981 -1.68085,-0.53535 -1.68085,-0.53535c0,0 -0.71961,1.23475 -1.3328,1.52534c-1.2689,0.60133 -1.83782,-0.36864 -1.83782,-0.36864c0,0 -1.57212,0.89747 -2.06715,0.75744c-0.88916,-0.25151 -1.40015,-1.38467 -1.40015,-1.38467c0,0 -2.29256,-0.2615 -2.32934,-0.59946z" data-paper-data="{&quot;index&quot;:null}" fill="#908816"/><path d="M217.0019,161.42991c3.04434,-1.44057 7.05335,-2.37897 8.30893,-0.64016c0.68823,0.95312 -3.58922,5.24878 -3.04566,6.12274c0.52579,0.84537 1.39509,1.76705 1.0406,2.90197c-0.14822,0.47454 -0.65942,1.68985 -1.24746,1.78241c-0.61778,0.09724 -1.32036,-0.931 -1.77594,-0.50963c-1.10172,1.01899 -1.34566,3.28156 -2.40326,3.28156c-1.87981,0 -4.8447,0.24523 -5.66583,-1.33633c-1.57795,-3.03924 0.41035,-5.33428 0.62186,-6.33928c0.65791,-3.12613 1.12242,-3.82271 4.16676,-5.26328z" data-paper-data="{&quot;index&quot;:null}" fill="#908816"/><path d="M218.24167,169.65385c0,-1.63509 1.15284,-2.61749 1.94011,-2.61749c0.78727,0 1.42547,0.9824 1.42547,2.61749c0,1.63509 -0.6382,2.96059 -1.42547,2.96059c-0.78727,0 -1.94011,-1.3255 -1.94011,-2.96059z" data-paper-data="{&quot;index&quot;:null}" fill="#f29e4a"/><path d="M229.72148,163.62297c0.84782,0 1.53512,1.03094 1.53512,2.30268c0,1.27173 -0.6873,2.30268 -1.53512,2.30268c-0.84782,0 -1.53512,-1.03094 -1.53512,-2.30268c0,-1.27173 0.6873,-2.30268 1.53512,-2.30268z" data-paper-data="{&quot;index&quot;:null}" fill="#908816"/><path d="M213.93165,161.64929c0.3843,-0.75573 1.80687,-5.75107 10.85551,-5.26328c5.41768,0.29205 7.1849,3.7924 7.55483,3.7625c2.90251,-0.23459 6.15162,1.01267 6.15162,1.50077c0,0.84782 -5.74385,1.53512 -12.82924,1.53512c-7.08539,0 -12.60993,0.18992 -11.73272,-1.53512z" data-paper-data="{&quot;index&quot;:null}" fill="#f32f00"/></g><path d="M228.75642,183.98057c0.87936,0 1.59223,0.80198 1.59223,1.79126c0,0.98929 -0.71286,1.79126 -1.59223,1.79126c-0.87936,0 -1.59223,-0.80198 -1.59223,-1.79126c0,-0.98929 0.71286,-1.79126 1.59223,-1.79126z" fill="#f29e4a"/><g><path d="M236.44781,176.2758c0,0 0.39037,4.09036 1.24858,5.47329c0.65242,1.05133 2.40929,2.75429 2.40929,2.75429c0,0 -10.47224,0.47088 -15.18102,-0.04266c-4.55972,-0.49729 -3.66831,-7.35631 0.44126,-7.61931c3.81882,-0.24439 11.0819,-0.5656 11.0819,-0.5656z" data-paper-data="{&quot;index&quot;:null}" fill="#908816"/><path d="M237.03592,181.85556c-0.59608,-0.96053 -1.15077,-2.61147 -1.08945,-3.54482c0.06483,-0.98687 0.50765,-2.06168 1.33674,-2.57618c0.57885,-0.35921 1.68226,1.19256 2.43177,1.38727c1.33927,0.3479 2.3765,-0.15861 3.61596,1.83869c1.9514,3.14451 -0.6053,4.65799 -2.41259,5.23955c-2.03112,0.65359 -2.56543,-0.22231 -3.88241,-2.3445z" data-paper-data="{&quot;index&quot;:null}" fill="#f29e4a"/></g></g></g></svg>