<svg version="1.1" xmlns="http://www.w3.org/2000/svg" xmlns:xlink="http://www.w3.org/1999/xlink" width="85.49398" height="85.49398" viewBox="0,0,85.49398,85.49398"><defs><linearGradient x1="-3285.69704" y1="-2895.28055" x2="-3285.69704" y2="4105.40967" gradientUnits="userSpaceOnUse" id="color-1"><stop offset="0" stop-color="#ffffff"/><stop offset="1" stop-color="#ffffff" stop-opacity="0"/></linearGradient></defs><g transform="translate(-197.25302,-137.25301)"><g data-paper-data="{&quot;isPaintingLayer&quot;:true}" fill-rule="nonzero" stroke-linecap="butt" stroke-linejoin="miter" stroke-miterlimit="10" stroke-dasharray="" stroke-dashoffset="0" style="mix-blend-mode: normal"><path d="M208.63952,205.58013c0.00324,-13.1024 0,-44.63208 0,-51.75c0,-3.5626 2.97813,-5.21784 6.54073,-5.21784c12.68063,0 43.89984,0 51,0c2.96729,0 5.18024,2.50056 5.18024,5.46784c0,6.43742 0,39.20833 0,51.75c0,2.95974 -2.72049,5.55758 -5.68024,5.55758c-6.61442,0 -39.17756,0 -52,0c-3.13138,0 -5.04177,-1.58613 -5.04073,-5.80758z" fill="url(#color-1)" stroke="#a97a4a" stroke-width="2"/><path d="M197.25302,222.74699v-85.49398h85.49398v85.49398z" fill="none" stroke="none" stroke-width="0"/><path d="M219.26858,200.7067v-41.32314h41.32315v41.32314z" fill="#dc570f" stroke="none" stroke-width="0"/><path d="M219.14005,200.74078v-3.34481h41.5641v3.34481z" fill="#752e08" stroke="none" stroke-width="0"/><path d="M219.14005,191.18421v-3.34481h41.56408v3.34481z" fill="#752e08" stroke="none" stroke-width="0"/><path d="M219.14005,181.78692v-3.3448h41.56408v3.3448z" fill="#752e08" stroke="none" stroke-width="0"/><path d="M219.14005,172.23035v-3.34481h41.56408v3.34481z" fill="#752e08" stroke="none" stroke-width="0"/><path d="M218.98426,162.60402v-3.3448h42.03149v3.3448z" fill="#ffffff" stroke="none" stroke-width="0"/><g fill="#752e08" stroke="none" stroke-width="0"><path d="M236.81623,169.04484v-6.37103h3.50408v6.37103z"/><path d="M257.09667,168.94142v-6.37104h3.50406v6.37104z"/></g><g fill="#752e08" stroke="none" stroke-width="0"><path d="M226.62256,178.44213v-6.37103h3.50407v6.37103z"/><path d="M246.903,178.49452v-6.37104h3.50408v6.37104z"/></g><g fill="#752e08" stroke="none" stroke-width="0"><path d="M236.81623,187.99521v-6.68263h3.50408v6.68263z"/><path d="M257.09667,188.0476v-6.68264h3.50406v6.68264z"/></g><g fill="#752e08" stroke="none" stroke-width="0"><path d="M226.62256,197.39597v-6.37103h3.50407v6.37103z"/><path d="M246.903,197.44837v-6.37104h3.50408v6.37104z"/></g></g></g></svg>