<svg version="1.1" xmlns="http://www.w3.org/2000/svg" xmlns:xlink="http://www.w3.org/1999/xlink" width="85.49398" height="85.49398" viewBox="0,0,85.49398,85.49398"><g transform="translate(-197.25302,-137.25301)"><g data-paper-data="{&quot;isPaintingLayer&quot;:true}" fill-rule="nonzero" stroke="none" stroke-width="0" stroke-linecap="butt" stroke-linejoin="miter" stroke-miterlimit="10" stroke-dasharray="" stroke-dashoffset="0" style="mix-blend-mode: normal"><path d="M214.56306,151.28999c1.07762,0 49.22823,0 50.9751,0c2.76687,0 4.57991,1.92074 4.57991,4.68761c0,1.09079 0,46.74838 0,48.47277c0,2.76058 -2.06424,4.25963 -4.82481,4.25963c-1.71567,0 -49.8026,0 -50.85266,0c-2.69527,0 -4.52042,-1.80927 -4.52042,-4.50452c0,-1.60423 -0.08603,-45.47027 0,-48.10542c0.08603,-2.63515 3.56526,-4.81008 4.64288,-4.81008z" fill="#45a7e0"/><path d="M197.25302,222.74699v-85.49398h85.49398v85.49398z" data-paper-data="{&quot;index&quot;:null}" fill="none"/><g fill="#ffffff"><g><path d="M225.96597,186.54571c3.35448,-0.75129 6.51544,0.6115 7.0602,3.04385c0.54476,2.43236 -1.73297,5.01321 -5.08744,5.7645c-3.35448,0.75129 -6.51544,-0.6115 -7.0602,-3.04385c-0.54476,-2.43236 1.73297,-5.01321 5.08744,-5.7645z"/><path d="M230.91093,191.03735v-24.1395h2.20404v24.1395z"/></g><g><path d="M242.28922,188.53186c-0.54477,-2.43236 1.73297,-5.01322 5.08744,-5.76451c3.35448,-0.75129 6.51543,0.6115 7.0602,3.04385c0.54476,2.43236 -1.73297,5.01321 -5.08744,5.7645c-3.35449,0.75128 -6.51544,-0.6115 -7.06021,-3.04385z"/><path d="M252.32162,187.259v-24.1395h2.20404v24.1395z"/></g><path d="M230.85845,171.09603v-4.18774l23.7083,-5.55903v4.18774z"/></g></g></g></svg>