<svg version="1.1" xmlns="http://www.w3.org/2000/svg" xmlns:xlink="http://www.w3.org/1999/xlink" width="85.49398" height="85.49398" viewBox="0,0,85.49398,85.49398"><defs><linearGradient x1="-3285.69704" y1="-2895.28054" x2="-3285.69704" y2="4105.40968" gradientUnits="userSpaceOnUse" id="color-1"><stop offset="0" stop-color="#ffffff"/><stop offset="1" stop-color="#ffffff" stop-opacity="0"/></linearGradient></defs><g transform="translate(-197.25301,-137.25301)"><g data-paper-data="{&quot;isPaintingLayer&quot;:true}" fill-rule="nonzero" stroke-linejoin="miter" stroke-miterlimit="10" stroke-dasharray="" stroke-dashoffset="0" style="mix-blend-mode: normal"><path d="M197.25301,222.74699v-85.49398h85.49398v85.49398z" fill="none" stroke="none" stroke-width="0" stroke-linecap="butt"/><path d="M208.63952,205.58014c0.00324,-13.1024 0,-44.63208 0,-51.75c0,-3.5626 2.97813,-5.21784 6.54073,-5.21784c12.68063,0 43.89984,0 51,0c2.96729,0 5.18024,2.50056 5.18024,5.46784c0,6.43742 0,39.20833 0,51.75c0,2.95974 -2.72049,5.55758 -5.68024,5.55758c-6.61442,0 -39.17756,0 -52,0c-3.13138,0 -5.04177,-1.58613 -5.04073,-5.80758z" fill="url(#color-1)" stroke="#a97a4a" stroke-width="2" stroke-linecap="butt"/><g stroke="#000000"><g><path d="M237.23274,184.32427v-25.16667h5.66667v25.16667z" fill="#a5e62a" stroke-width="0" stroke-linecap="butt"/><path d="M257.3994,184.32427v-25.16667h3.5v25.16667z" fill="#a5e62a" stroke-width="0" stroke-linecap="butt"/><path d="M219.06607,184.32427v-25.16667h3.5v25.16667z" fill="#a5e62a" stroke-width="0" stroke-linecap="butt"/><path d="M237.3994,162.49094c-5.0154,-0.3297 -3.11835,8.14959 -7.83333,8c-4.94428,-0.15687 -1.6244,-7.95394 -7.5,-8" fill="none" stroke-width="1.5" stroke-linecap="round"/><path d="M257.8994,162.49094c-5.0154,-0.3297 -3.11835,8.1496 -7.83333,8c-4.94428,-0.15687 -1.6244,-7.95395 -7.5,-8" fill="none" stroke-width="1.5" stroke-linecap="round"/></g><g stroke-linecap="butt"><path d="M240.05179,184.33988c6.81339,-0.11274 8.24972,3.69353 8.24972,8.24973c0,4.5562 -0.63362,8.37657 -8.24972,8.24972c-7.78023,-0.12958 -8.24973,-3.69353 -8.24973,-8.24972c0,-4.5562 1.27749,-8.13435 8.24973,-8.24973z" fill="none" stroke-width="0"/><path d="M219.21897,184.47549c0,0 0.02502,-0.07395 0.2839,-0.07824c6.67568,-0.11047 7.45503,3.61888 7.45503,8.08299c0,0.09433 -0.00011,0.18834 -0.00039,0.282c-0.01319,4.33858 0.22539,7.92265 -7.07911,7.80099c-0.35788,-0.00596 -0.65144,-0.03988 -0.65144,-0.03988z" fill="#efcfaf" stroke-width="0"/><path d="M260.88008,200.64284c0,0 -0.29356,0.03392 -0.65144,0.03988c-7.46218,0.12428 -7.23649,-3.61888 -7.23649,-8.083c0,-4.46411 0.93633,-8.19346 7.61202,-8.08299c0.25887,0.00429 0.2839,0.07824 0.2839,0.07824z" data-paper-data="{&quot;index&quot;:null}" fill="#efcfaf" stroke-width="0"/><path d="M240.05179,184.33988c6.81339,-0.11274 8.24973,3.69353 8.24973,8.24973c0,4.5562 -0.63362,8.37657 -8.24973,8.24972c-7.78023,-0.12958 -8.24973,-3.69353 -8.24973,-8.24972c0,-4.5562 1.27749,-8.13435 8.24973,-8.24973z" fill="#efcfaf" stroke-width="1"/><path d="M260.69962,200.68272c-7.46218,0.12428 -7.70747,-3.61888 -7.70747,-8.08299c0,-4.46411 1.40731,-8.19347 8.083,-8.083" data-paper-data="{&quot;index&quot;:null}" fill="none" stroke-width="1"/><path d="M218.92485,184.51673c6.67568,-0.11047 8.08299,3.61888 8.08299,8.083c0,4.46411 -0.24529,8.20727 -7.70747,8.08299" data-paper-data="{&quot;index&quot;:null}" fill="none" stroke-width="1"/><path d="M254.62514,189.86081c0,0 0.64511,1.92122 0.64511,2.8654c0,0.86775 -0.64511,2.58978 -0.64511,2.58978h-7.41385c0,0 -0.77414,-1.68836 -0.77414,-2.58978c0,-0.91672 0.77414,-2.8654 0.77414,-2.8654z" data-paper-data="{&quot;index&quot;:null}" fill="#dc570f" stroke-width="0"/><path d="M233.0838,189.95268c0,0 0.64511,1.92122 0.64511,2.8654c0,0.86775 -0.64511,2.58978 -0.64511,2.58978h-7.41385c0,0 -0.77414,-1.68837 -0.77414,-2.58978c0,-0.91672 0.77414,-2.8654 0.77414,-2.8654z" data-paper-data="{&quot;index&quot;:null}" fill="#dc570f" stroke-width="0"/></g></g></g></g></svg>