<svg version="1.1" xmlns="http://www.w3.org/2000/svg" xmlns:xlink="http://www.w3.org/1999/xlink" width="35.26525" height="41.34989" viewBox="0,0,35.26525,41.34989"><g transform="translate(-222.36737,-159.32506)"><g data-paper-data="{&quot;isPaintingLayer&quot;:true}" fill-rule="nonzero" stroke="none" stroke-width="0" stroke-linecap="butt" stroke-linejoin="miter" stroke-miterlimit="10" stroke-dasharray="" stroke-dashoffset="0" style="mix-blend-mode: normal"><g data-paper-data="{&quot;index&quot;:null}"><path d="M257.40367,200.67494c-4.31024,-0.08066 -8.61155,-0.22274 -12.91334,-0.27679c-1.22221,-1.68629 -1.84896,-3.09306 -1.84896,-3.09306c0,0 3.42403,-3.8525 7.1368,-3.37484c5.28467,0.67989 7.07053,4.61844 7.6255,6.74469z" fill="#20ad00"/><path d="M252.82823,199.36837c0,0.64408 -2.06975,-0.62796 -4.84423,-0.62796c-2.77448,0 -5.20306,0.01612 -5.20306,-0.62796c0,-0.64408 2.42858,-1.70445 5.20306,-1.70445c2.77448,0 4.84423,2.31629 4.84423,2.96036z" fill="#f29e4a"/></g><path d="M236.86714,200.42553v-41.03081h6.04778v41.03081z" data-paper-data="{&quot;index&quot;:null}" fill="#20ad00"/><path d="M230.22185,173.01896c3.71276,-0.47766 7.13679,3.37484 7.13679,3.37484c0,0 -1.9581,6.06608 -5.70147,6.06608c-3.74337,0 -9.28979,-1.04244 -9.28979,-1.04244c0,0 0.88162,-7.5014 7.85447,-8.39848z" data-paper-data="{&quot;index&quot;:null}" fill="#20ad00"/><path d="M231.65716,175.13788c2.77448,0 5.20306,1.06038 5.20306,1.70445c0,0.64407 -2.42858,0.62795 -5.20306,0.62795c-2.77448,0 -4.84422,1.27203 -4.84422,0.62796c0,-0.64407 2.06974,-2.96036 4.84422,-2.96036z" data-paper-data="{&quot;index&quot;:null}" fill="#f29e4a"/><g data-paper-data="{&quot;index&quot;:null}" fill="#20ad00"><path d="M243.52614,159.41909c4.39528,-0.1705 8.82019,-0.06525 13.22275,-0.02338c0.72248,1.63064 0.88324,2.45668 0.88374,2.46089c-0.00291,0.00055 -5.5474,1.04244 -9.28979,1.04244c-2.28217,0 -3.90079,-1.71977 -4.8167,-3.47995z"/><path d="M257.63263,161.85661v0v0.00001z"/></g></g></g></svg>