<svg version="1.1" xmlns="http://www.w3.org/2000/svg" xmlns:xlink="http://www.w3.org/1999/xlink" width="109.33333" height="109.33333" viewBox="0,0,109.33333,109.33333"><g transform="translate(-185.33342,-125.33345)"><g data-paper-data="{&quot;isPaintingLayer&quot;:true}" fill-rule="nonzero" stroke="none" stroke-width="0" stroke-linecap="butt" stroke-linejoin="miter" stroke-miterlimit="10" stroke-dasharray="" stroke-dashoffset="0" style="mix-blend-mode: normal"><path d="M248.60619,176.76529c0.39421,-1.94799 4.33475,-1.01097 6.48084,1.15156c1.17368,1.18267 1.04616,3.23411 0.00459,3.54486c-1.12822,0.33659 -1.63357,-0.84543 -2.15063,-0.98528c-1.30325,-0.35252 -1.53811,0.67054 -3.23087,0.0958c-1.83079,-0.87032 -1.57458,-1.48118 -1.10393,-3.80692z" data-paper-data="{&quot;index&quot;:null}" fill="#f29e4a"/><path d="M250.43764,174.93737l-1.78422,5.951c0,0 -2.96118,0.99334 -6.73406,0.11843c-5.62868,-1.30525 -3.87592,-1.90987 -3.87592,-1.90987l4.27685,-6.95002c0,0 2.45579,1.49988 3.52983,1.7236c1.1537,0.24033 4.58751,1.06685 4.58751,1.06685z" data-paper-data="{&quot;index&quot;:null}" fill="#908816"/><path d="M230.5757,193.17573c-0.93238,-2.88358 3.98907,-4.81889 3.98907,-4.81889c0,0 2.59307,5.87518 3.52543,8.75875c0.07566,0.23402 0.50295,3.74782 -3.67134,4.37188c-1.79521,0.26838 -3.84315,-8.31174 -3.84315,-8.31174z" data-paper-data="{&quot;index&quot;:null}" fill="#908816"/><path d="M246.80004,171.98116c0.64279,3.32952 -0.33908,8.81188 -1.64651,11.77446c-1.39924,3.17061 -3.06662,5.70399 -6.69421,5.80872c-13.6304,0.39354 -11.94516,-4.78827 -10.42875,-10.23199c0.53857,-1.93341 2.05129,-3.46517 2.99172,-4.6438c1.80827,-2.26627 3.64798,-3.22696 7.43703,-3.22696z" data-paper-data="{&quot;index&quot;:null}" fill="#908816"/><path d="M241.05244,172.16697l2.43672,-0.16252c0,0 -0.15311,8.37357 0.46627,9.74595c0.93855,2.07959 2.59958,-0.31038 2.59958,-0.31038c0,0 -3.0414,8.39209 -6.43995,10.08301c-0.68155,0.33909 -3.40072,2.14997 -3.40072,2.14997c0,0 -0.71853,-2.17245 -2.64765,-1.93974c-2.60956,0.3148 -7.18538,2.16539 -7.18538,2.16539l-2.75379,-5.31126c0,0 1.22084,-1.77756 1.70646,-2.33085c0.531,-0.605 -1.36014,-3.41802 2.2874,-7.92637c0.53808,-0.66506 0.97166,-0.63212 2.13937,-1.63725c1.74066,-1.4983 4.22063,-4.40131 4.22063,-4.40131l2.20623,-0.09862c0,0 -4.85499,8.56508 -3.98653,9.52377c1.52633,1.68493 5.08478,-0.53106 6.23499,-2.12866c1.15021,-1.5976 2.11637,-7.42113 2.11637,-7.42113z" data-paper-data="{&quot;index&quot;:null}" fill="#f32f00"/><path d="M223.81311,200.62691c-1.81617,0.14428 -2.20137,-4.59367 -3.20424,-8.53705c-1.00287,-3.94339 4.4186,-4.23065 4.4186,-4.23065c0,0 1.46901,3.68876 2.47189,7.63214c0,0 0.91982,4.76967 -3.68624,5.13557z" data-paper-data="{&quot;index&quot;:null}" fill="#908816"/><path d="M185.33343,234.66679v-109.33333h109.33333v109.33333z" fill="none"/><path d="M232.92718,164.57225c0,-4.85542 4.03781,-7.70348 10.90394,-7.4757c6.61047,0.2193 4.69022,2.12894 7.4405,4.34811c1.12532,0.908 3.24892,1.12351 4.66539,2.17303c1.41646,1.04952 2.3069,2.47596 2.3069,3.8055c0,0.93882 -1.66469,1.29868 -2.77421,1.49497c-1.96301,0.34728 -2.06196,2.37903 -3.87036,3.21789c-2.94335,1.36533 -4.95615,1.22771 -8.20683,1.22771c-4.92997,0 -7.87426,0.16604 -9.88711,-2.77308c-0.79206,-1.15655 -0.57823,-4.64736 -0.57823,-6.01844z" data-paper-data="{&quot;index&quot;:null}" fill="#f29e4a"/><path d="M244.16223,170.60974c-0.04146,-0.38096 0.95442,-0.44165 1.6617,-1.22063c0.64158,-0.70661 0.93681,-2.14784 2.04264,-2.26817c1.04463,-0.11367 2.02627,1.58691 3.39548,1.94923c1.67807,0.44405 3.66583,-0.38768 3.70937,0.01241c0.00949,0.08717 0.27304,1.77687 -0.16109,2.13249c-0.48808,0.39981 -1.68085,-0.53535 -1.68085,-0.53535c0,0 -0.71961,1.23475 -1.3328,1.52534c-1.2689,0.60133 -1.83782,-0.36864 -1.83782,-0.36864c0,0 -1.57212,0.89747 -2.06715,0.75744c-0.88916,-0.25151 -1.40015,-1.38467 -1.40015,-1.38467c0,0 -2.29256,-0.2615 -2.32934,-0.59946z" data-paper-data="{&quot;index&quot;:null}" fill="#908816"/><path d="M234.71398,158.51146c3.04434,-1.44057 7.05335,-2.37897 8.30893,-0.64016c0.68823,0.95312 -3.58922,5.24878 -3.04566,6.12274c0.52579,0.84537 1.39509,1.76705 1.0406,2.90197c-0.14822,0.47454 -0.65942,1.68985 -1.24746,1.78241c-0.61778,0.09724 -1.32036,-0.931 -1.77594,-0.50963c-1.10172,1.01899 -1.34566,3.28156 -2.40326,3.28156c-1.87981,0 -4.8447,0.24523 -5.66583,-1.33633c-1.57795,-3.03924 0.41035,-5.33428 0.62186,-6.33928c0.65791,-3.12613 1.12242,-3.82271 4.16676,-5.26328z" data-paper-data="{&quot;index&quot;:null}" fill="#908816"/><path d="M235.95372,166.73539c0,-1.63509 1.15284,-2.61749 1.94011,-2.61749c0.78727,0 1.42547,0.9824 1.42547,2.61749c0,1.63509 -0.6382,2.96059 -1.42547,2.96059c-0.78727,0 -1.94011,-1.3255 -1.94011,-2.96059z" data-paper-data="{&quot;index&quot;:null}" fill="#f29e4a"/><path d="M247.43354,160.70452c0.84782,0 1.53512,1.03094 1.53512,2.30268c0,1.27173 -0.6873,2.30268 -1.53512,2.30268c-0.84782,0 -1.53512,-1.03094 -1.53512,-2.30268c0,-1.27173 0.6873,-2.30268 1.53512,-2.30268z" data-paper-data="{&quot;index&quot;:null}" fill="#908816"/><path d="M231.6437,158.73082c0.3843,-0.75573 1.80687,-5.75107 10.85551,-5.26328c5.41768,0.29205 7.1849,3.7924 7.55483,3.7625c2.90251,-0.23459 6.15162,1.01267 6.15162,1.50077c0,0.84782 -5.74385,1.53512 -12.82924,1.53512c-7.08539,0 -12.60993,0.18992 -11.73272,-1.53512z" data-paper-data="{&quot;index&quot;:null}" fill="#f32f00"/><path d="M246.05583,179.39833c1.00985,-1.90419 4.8188,0.28377 6.38437,3.1934c0.85619,1.59125 0.0918,3.68516 -1.08696,3.6875c-1.27683,0.00254 -1.43828,-1.38223 -1.93285,-1.68689c-1.2466,-0.76794 -1.8059,0.22353 -3.38909,-0.89543c-1.63569,-1.46884 -1.18115,-2.02512 0.02454,-4.29857z" data-paper-data="{&quot;index&quot;:null}" fill="#f29e4a"/><path d="M247.71566,178.58008l-3.26618,5.28487c0,0 -3.11746,0.19159 -6.53448,-1.63163c-5.09776,-2.72002 -3.24818,-2.8495 -3.24818,-2.8495l5.9326,-5.60344c0,0 1.98291,2.08532 2.96221,2.57987c1.05193,0.53124 4.15402,2.21982 4.15402,2.21982z" data-paper-data="{&quot;index&quot;:null}" fill="#908816"/></g></g></svg>