<svg version="1.1" xmlns="http://www.w3.org/2000/svg" xmlns:xlink="http://www.w3.org/1999/xlink" width="109.33333" height="109.33333" viewBox="0,0,109.33333,109.33333"><g transform="translate(-185.33334,-125.33334)"><g data-paper-data="{&quot;isPaintingLayer&quot;:true}" fill-rule="nonzero" stroke="none" stroke-width="0" stroke-linecap="butt" stroke-linejoin="miter" stroke-miterlimit="10" stroke-dasharray="" stroke-dashoffset="0" style="mix-blend-mode: normal"><path d="M185.33334,234.66667v-109.33333h109.33333v109.33333z" fill="none"/><g data-paper-data="{&quot;index&quot;:null}"><g data-paper-data="{&quot;index&quot;:null}"><path d="M230.34448,161.9497c2.2896,0.38668 2.36672,1.50057 2.57521,4.21063c0.09437,1.2266 -0.19729,3.09939 -0.72432,3.97025c-0.55726,0.9208 -1.52371,1.73708 -2.58246,1.81854c-0.7392,0.05687 -1.02729,-1.99515 -1.65372,-2.55889c-1.11934,-1.00733 -2.37512,-1.03792 -2.57134,-3.58849c-0.30894,-4.01559 2.91934,-4.1961 4.95664,-3.85205z" data-paper-data="{&quot;index&quot;:null}" fill="#f29e4a"/><path d="M231.70725,171.68935l0.01577,-9.54918c0,0 5.61115,1.31839 8.04588,3.8418c3.63232,3.7646 5.42246,8.88613 5.42246,8.88613l-8.68774,0.33267c0,0 -1.12638,-2.3492 -1.83196,-3.04829c-0.75792,-0.75095 -2.96439,-0.46311 -2.96439,-0.46311z" data-paper-data="{&quot;index&quot;:null}" fill="#908816"/></g><path d="M232.89979,194.09262c2.96936,1.2693 7.83777,4.01526 7.83777,4.01526c0,0 -1.90899,4.00801 -4.87835,2.73871c-2.96937,-1.26929 -8.0874,-2.91881 -7.98046,-4.44731c0.21625,-3.09072 5.02104,-2.30666 5.02104,-2.30666z" data-paper-data="{&quot;index&quot;:null}" fill="#908816"/><path d="M250.96554,178.03582c1.28977,4.6301 2.72313,9.03745 -8.87009,8.70273c-3.226,-0.09314 -4.93096,-0.15662 -6.69529,-2.52049c-0.91376,-1.22426 -2.30511,-3.06554 -1.84829,-5.84752c0.77882,-4.74287 3.64476,-7.02913 8.54358,-7.02913c4.89881,0 7.53121,1.88802 8.87009,6.69441z" data-paper-data="{&quot;index&quot;:null}" fill="#908816"/><path d="M251.46048,183.9326c0,0 0.14126,4.68956 -2.73511,6.90284c-1.45328,1.11825 -3.06719,0.12215 -4.63308,0.58146c-1.95907,0.57462 -3.30122,7.24266 -3.30122,7.24266c0,0 -3.68475,-0.70899 -5.2692,-1.58488c-1.30189,-0.71968 -3.5574,-3.29446 -3.5574,-3.29446c0,0 0.12208,-4.55261 4.1904,-6.59771c1.50179,-0.75494 -2.66104,-5.79951 -2.66104,-5.79951l1.53714,-7.78864l2.47059,-1.454c0,0 -0.41043,5.77387 0.40688,6.90907c0.82572,1.14689 2.88137,0.90346 3.29689,0.55428c1.57699,-1.32519 0.82527,-8.38462 0.82527,-8.38462l2.54838,0.1617c0,0 -0.35115,6.50534 2.1372,9.73097c1.32348,1.71561 4.74426,2.82083 4.74426,2.82083z" data-paper-data="{&quot;index&quot;:null}" fill="#f32f00"/><path d="M243.07601,183.54888c-0.7748,0 -1.4029,-0.6281 -1.4029,-1.4029c0,-0.7748 0.6281,-1.4029 1.4029,-1.4029c0.7748,0 1.4029,0.6281 1.4029,1.4029c0,0.7748 -0.6281,1.4029 -1.4029,1.4029z" data-paper-data="{&quot;index&quot;:null}" fill="#f29e4a"/><path d="M237.0903,183.54888c-0.7748,0 -1.4029,-0.6281 -1.4029,-1.4029c0,-0.7748 0.6281,-1.4029 1.4029,-1.4029c0.7748,0 1.4029,0.6281 1.4029,1.4029c0,0.7748 -0.6281,1.4029 -1.4029,1.4029z" data-paper-data="{&quot;index&quot;:null}" fill="#f29e4a"/><path d="M232.92707,163.90826c0,-4.85542 4.03781,-7.70348 10.90394,-7.4757c6.61047,0.2193 4.69022,2.12894 7.4405,4.34811c1.12532,0.908 3.24892,1.12351 4.66539,2.17303c1.41646,1.04952 2.3069,2.47596 2.3069,3.8055c0,0.93882 -1.66469,1.29868 -2.77421,1.49497c-1.96301,0.34728 -2.06196,2.37903 -3.87036,3.21789c-2.94335,1.36533 -4.95615,1.22771 -8.20683,1.22771c-4.92997,0 -7.87426,0.16604 -9.88711,-2.77308c-0.79206,-1.15655 -0.57823,-4.64736 -0.57823,-6.01844z" data-paper-data="{&quot;index&quot;:null}" fill="#f29e4a"/><path d="M244.16213,169.94567c-0.04146,-0.38096 0.95442,-0.44165 1.6617,-1.22063c0.64158,-0.70661 0.93681,-2.14784 2.04264,-2.26817c1.04463,-0.11367 2.02627,1.58691 3.39548,1.94923c1.67807,0.44405 3.66583,-0.38768 3.70937,0.01241c0.00949,0.08717 0.27304,1.77687 -0.16109,2.13249c-0.48808,0.39981 -1.68085,-0.53535 -1.68085,-0.53535c0,0 -0.71961,1.23475 -1.3328,1.52534c-1.2689,0.60133 -1.83782,-0.36864 -1.83782,-0.36864c0,0 -1.57212,0.89747 -2.06715,0.75744c-0.88916,-0.25151 -1.40015,-1.38467 -1.40015,-1.38467c0,0 -2.29256,-0.2615 -2.32934,-0.59946z" data-paper-data="{&quot;index&quot;:null}" fill="#908816"/><path d="M234.71389,157.84748c3.04434,-1.44057 7.05335,-2.37897 8.30893,-0.64016c0.68823,0.95312 -3.58922,5.24878 -3.04566,6.12274c0.52579,0.84537 1.39509,1.76705 1.0406,2.90197c-0.14822,0.47454 -0.65942,1.68985 -1.24746,1.78241c-0.61778,0.09724 -1.32036,-0.931 -1.77594,-0.50963c-1.10172,1.01899 -1.34566,3.28156 -2.40326,3.28156c-1.87981,0 -4.8447,0.24523 -5.66583,-1.33633c-1.57795,-3.03924 0.41035,-5.33428 0.62186,-6.33928c0.65791,-3.12613 1.12242,-3.82271 4.16676,-5.26328z" data-paper-data="{&quot;index&quot;:null}" fill="#908816"/><path d="M235.95368,166.07138c0,-1.63509 1.15284,-2.61749 1.94011,-2.61749c0.78727,0 1.42547,0.9824 1.42547,2.61749c0,1.63509 -0.6382,2.96059 -1.42547,2.96059c-0.78727,0 -1.94011,-1.3255 -1.94011,-2.96059z" data-paper-data="{&quot;index&quot;:null}" fill="#f29e4a"/><path d="M247.43347,160.04053c0.84782,0 1.53512,1.03094 1.53512,2.30268c0,1.27173 -0.6873,2.30268 -1.53512,2.30268c-0.84782,0 -1.53512,-1.03094 -1.53512,-2.30268c0,-1.27173 0.6873,-2.30268 1.53512,-2.30268z" data-paper-data="{&quot;index&quot;:null}" fill="#908816"/><path d="M231.64365,158.06683c0.3843,-0.75573 1.80687,-5.75107 10.85551,-5.26328c5.41768,0.29205 7.1849,3.7924 7.55483,3.7625c2.90251,-0.23459 6.15162,1.01267 6.15162,1.50077c0,0.84782 -5.74385,1.53512 -12.82924,1.53512c-7.08539,0 -12.60993,0.18992 -11.73272,-1.53512z" data-paper-data="{&quot;index&quot;:null}" fill="#f32f00"/><g data-paper-data="{&quot;index&quot;:null}"><path d="M239.85243,174.26806c0,0 2.12995,1.86215 3.16449,1.60119c0.9631,-0.24294 3.12792,-1.69244 3.12792,-1.69244l3.72783,4.30792c0,0 -0.56408,3.89669 -5.60637,5.28996c-3.37983,0.9339 -8.88135,-0.78554 -8.88135,-0.78554c0,0 2.01104,-1.74524 2.78294,-2.84855c1.01537,-1.4513 1.68454,-5.87257 1.68454,-5.87257z" data-paper-data="{&quot;index&quot;:null}" fill="#908816"/><path d="M238.87918,180.29582c-1.55816,2.22713 -2.19119,3.14688 -4.3591,2.31503c-1.929,-0.74018 -4.6165,-2.53788 -2.30774,-5.83787c1.46645,-2.09606 2.56317,-1.48354 4.03928,-1.78137c0.82609,-0.16668 2.11801,-1.78677 2.72549,-1.36178c0.87008,0.60873 1.28688,1.80315 1.29821,2.87938c0.01074,1.01786 -0.6909,2.77858 -1.39612,3.7866z" data-paper-data="{&quot;index&quot;:null}" fill="#f29e4a"/></g><path d="M234.59416,185.84929c1.80526,-2.19792 5.53814,-2.11571 8.3376,0.18363c2.79946,2.29934 3.60541,5.94509 1.80014,8.14301c-1.80526,2.19792 -3.59504,0.00328 -6.87787,-1.5287c-4.59558,-2.14458 -5.06513,-4.60003 -3.25987,-6.79795z" fill="#908816"/></g></g></g></svg>