<svg version="1.1" xmlns="http://www.w3.org/2000/svg" xmlns:xlink="http://www.w3.org/1999/xlink" width="42.53579" height="41.16168" viewBox="0,0,42.53579,41.16168"><g transform="translate(-218.50544,-159.5258)"><g data-paper-data="{&quot;isPaintingLayer&quot;:true}" fill-rule="nonzero" stroke-linejoin="miter" stroke-miterlimit="10" stroke-dasharray="" stroke-dashoffset="0" style="mix-blend-mode: normal"><g><path d="M219.29633,200.68748v-26.87782h41.62105v26.87782z" data-paper-data="{&quot;index&quot;:null}" fill="#f32f00" stroke="none" stroke-width="0" stroke-linecap="butt"/><g fill="#f32f00" stroke="none" stroke-width="0" stroke-linecap="butt"><path d="M219.33701,173.99735c0,0 7.35677,-4.48129 10.50887,-6.97155c5.16471,-4.08029 6.18596,-6.06696 6.81273,-6.21762c0.42451,-0.10204 2.35866,3.52009 1.23314,7.05135c-1.12552,3.53126 2.11863,6.13782 2.11863,6.13782z" data-paper-data="{&quot;index&quot;:null}"/><path d="M240.28555,173.99735c0,0 7.35677,-4.48129 10.50887,-6.97155c5.16471,-4.08029 6.18596,-6.06696 6.81273,-6.21762c0.42451,-0.10204 2.35866,3.52009 1.23314,7.05135c-1.12552,3.53126 2.11863,6.13782 2.11863,6.13782z" data-paper-data="{&quot;index&quot;:null}"/></g><g fill="none" stroke="#ffffff" stroke-width="1.5" stroke-linecap="butt"><path d="M219.25544,174.12299c1.73535,-0.02713 7.2471,-5.13931 10.3992,-7.62957c5.16471,-4.08029 6.18596,-6.06696 6.81273,-6.21762c0.42451,-0.10204 2.35866,3.52009 1.23314,7.05135c-1.12552,3.53126 1.18745,6.78095 2.48722,6.01496" data-paper-data="{&quot;index&quot;:null}"/><path d="M240.09431,173.46498c0,0 7.35677,-4.48129 10.50887,-6.97155c5.16471,-4.08029 6.18596,-6.06696 6.81273,-6.21762c0.42451,-0.10204 2.35866,3.52009 1.23314,7.05135c-1.12552,3.53126 0.72858,6.47379 2.33797,6.35716" data-paper-data="{&quot;index&quot;:null}"/></g><path d="M234.0442,178.02865c0,0 4.40295,2.74683 13.63574,-4.9942c2.02117,-1.69461 2.89358,5.01475 2.89358,5.01475" fill="none" stroke="#ffffff" stroke-width="1" stroke-linecap="round"/></g></g></g></svg>