<svg version="1.1" xmlns="http://www.w3.org/2000/svg" xmlns:xlink="http://www.w3.org/1999/xlink" width="41.08967" height="40.29708" viewBox="0,0,41.08967,40.29708"><g transform="translate(-219.09486,-159.46611)"><g data-paper-data="{&quot;isPaintingLayer&quot;:true}" fill-rule="nonzero" stroke="none" stroke-linecap="butt" stroke-linejoin="miter" stroke-miterlimit="10" stroke-dasharray="" stroke-dashoffset="0" style="mix-blend-mode: normal"><g><g data-paper-data="{&quot;index&quot;:null}"><path d="M229.43015,198.58889c-4.23807,0.06028 -10.20847,-3.53445 -10.20847,-3.53445v-35.42408c0,0 22.79798,0 30.27199,0c6.76465,0 10.347,5.85151 10.2022,12.61461c-0.13246,6.18686 -0.4572,21.35493 -0.4572,21.35493c0,0 -3.45888,5.25333 -9.96991,5.06038c-5.93264,-0.17581 -9.60408,-3.16201 -9.60408,-3.16201c0,0 -3.51812,2.99508 -10.23452,3.09062z" fill="#ffffff" stroke-width="0"/><g fill="none" stroke-width="1" font-family="sans-serif" font-weight="normal" font-size="12" text-anchor="start"/></g><path d="M258.37972,170.47976c0,0 -0.21196,-9.71604 -10.21297,-9.53422c-7.43827,0.13523 -29.07189,0 -29.07189,0v-1.47943c0,0 22.84325,0 30.16963,0c9.44914,0 10.6607,10.97739 10.6607,10.97739l-1.54546,0.03626z" data-paper-data="{&quot;index&quot;:null}" fill="#a5a5a5" stroke-width="0"/><g data-paper-data="{&quot;index&quot;:null}" fill="#a5a5a5" stroke-width="0"><path d="M239.62835,196.21255c0,0 -2.36612,3.55064 -10.33543,3.55064c-6.90653,0 -10.0434,-3.55064 -10.0434,-3.55064v-1.77532c0,0 3.35258,3.68801 10.36224,3.84653c7.54871,0.17071 10.0166,-3.84653 10.0166,-3.84653z"/><path d="M239.55923,194.43723c0,0 3.14432,4.01723 10.46769,3.84652c2.20616,-0.05142 6.84633,-2.17544 7.76441,-4.19762c1.44316,-3.17873 0.58425,-23.97342 0.58425,-23.97342l1.45332,-0.03911c0,0 1.1742,18.82276 -0.74459,24.56914c-0.78203,2.34202 -5.7948,5.12044 -8.74806,5.12044c-7.73141,0 -10.77701,-3.55063 -10.77701,-3.55063z" data-paper-data="{&quot;index&quot;:null}"/></g></g></g></g></svg>