<svg version="1.1" xmlns="http://www.w3.org/2000/svg" xmlns:xlink="http://www.w3.org/1999/xlink" width="85.49398" height="85.49398" viewBox="0,0,85.49398,85.49398"><defs><linearGradient x1="-3285.69704" y1="-2895.28054" x2="-3285.69704" y2="4105.40968" gradientUnits="userSpaceOnUse" id="color-1"><stop offset="0" stop-color="#ffffff"/><stop offset="1" stop-color="#ffffff" stop-opacity="0"/></linearGradient></defs><g transform="translate(-197.25302,-137.25303)"><g data-paper-data="{&quot;isPaintingLayer&quot;:true}" fill-rule="nonzero" stroke-linecap="butt" stroke-linejoin="miter" stroke-miterlimit="10" stroke-dasharray="" stroke-dashoffset="0" style="mix-blend-mode: normal"><path d="M197.25302,222.74701v-85.49398h85.49398v85.49398z" fill="none" stroke="none" stroke-width="0"/><path d="M208.63952,205.58014c0.00324,-13.1024 0,-44.63208 0,-51.75c0,-3.5626 2.97813,-5.21784 6.54073,-5.21784c12.68063,0 43.89984,0 51,0c2.96729,0 5.18024,2.50056 5.18024,5.46784c0,6.43742 0,39.20833 0,51.75c0,2.95974 -2.72049,5.55758 -5.68024,5.55758c-6.61442,0 -39.17756,0 -52,0c-3.13138,0 -5.04177,-1.58613 -5.04073,-5.80758z" fill="url(#color-1)" stroke="#a97a4a" stroke-width="2"/><path d="M207.25301,212.74699v-65.49398h65.49398v65.49398z" fill="none" stroke="none" stroke-width="0"/><g stroke="none" stroke-width="0"><path d="M219.13503,200.38207v-40.74425h40.74426v40.74425z" data-paper-data="{&quot;index&quot;:null}" fill="#525252"/><g><path d="M239.43883,200.39505v-18.20795h18.20796v18.20795z" data-paper-data="{&quot;index&quot;:null}" fill="#a4a4a4"/><path d="M257.58553,182.12584v2.95205l-15.43682,0.07215l-0.04927,15.18375h-2.72187v-18.20795z" data-paper-data="{&quot;index&quot;:null}" fill="#cccccc"/><path d="M239.43883,200.39505v-2.95205l15.43682,-0.07214l0.04927,-15.31029h2.72187v18.33448z" data-paper-data="{&quot;index&quot;:null}" fill="#767676"/></g><g><path d="M219.00201,200.4563v-18.20795h18.20796v18.20795z" data-paper-data="{&quot;index&quot;:null}" fill="#a4a4a4"/><path d="M237.14871,182.1871v2.95205l-15.43682,0.07214l-0.04928,15.18376h-2.72186v-18.20795z" data-paper-data="{&quot;index&quot;:null}" fill="#cccccc"/><path d="M219.00201,200.4563v-2.95205l15.43682,-0.07214l0.04927,-15.31029h2.72187v18.33448z" data-paper-data="{&quot;index&quot;:null}" fill="#767676"/></g><g><g><path d="M229.25507,179.80741v-18.20795h18.20796v18.20795z" data-paper-data="{&quot;index&quot;:null}" fill="#a4a4a4"/><path d="M247.40177,161.53821v2.95205l-15.43682,0.07215l-0.04927,15.18375h-2.72186v-18.20795z" data-paper-data="{&quot;index&quot;:null}" fill="#cccccc"/><path d="M229.25507,179.80741v-2.95205l15.43682,-0.07214l0.04927,-15.31029h2.72186v18.33448z" data-paper-data="{&quot;index&quot;:null}" fill="#767676"/></g><g><path d="M249.56536,179.74616v-18.20795h10.48496v18.20795z" data-paper-data="{&quot;index&quot;:null}" fill="#a4a4a4"/><path d="M260.12018,161.47695v2.95205l-7.84494,0.07214l-0.04927,15.18376h-2.72187v-18.20795z" data-paper-data="{&quot;index&quot;:null}" fill="#cccccc"/><path d="M249.56536,179.74616v-2.95205l10.47654,-0.07214l-0.01255,3.02419z" data-paper-data="{&quot;index&quot;:null}" fill="#767676"/></g><g><path d="M226.78839,161.52905v18.20795h-7.68649v-18.20795z" data-paper-data="{&quot;index&quot;:null}" fill="#a4a4a4"/><path d="M226.7884,161.52905v2.95205l-7.64917,0.07214l0.01255,-3.02419z" data-paper-data="{&quot;index&quot;:null}" fill="#cccccc"/><path d="M218.95997,179.79825v-2.95205l5.11854,-0.07215l0.04927,-15.18375h2.72187v18.20795z" data-paper-data="{&quot;index&quot;:null}" fill="#767676"/></g></g></g></g></g></svg>