<svg version="1.1" xmlns="http://www.w3.org/2000/svg" xmlns:xlink="http://www.w3.org/1999/xlink" width="415.65032" height="322.25881" viewBox="0,0,415.65032,322.25881"><g transform="translate(-34.10715,-24.58547)"><g data-paper-data="{&quot;isPaintingLayer&quot;:true}" fill-rule="nonzero" stroke-linejoin="miter" stroke-miterlimit="10" stroke-dasharray="" stroke-dashoffset="0" style="mix-blend-mode: normal"><g><g><g><g><path d="M36.74267,139.2229c0,0 -1.41913,-1.34686 -1.88979,-2.65c-0.54322,-1.50404 -0.14842,-3.01494 -0.14842,-3.3893c0,-0.6864 2.04825,-0.58108 2.28871,-1.2431c0.34842,-0.95925 0.82004,-2.66762 2.00026,-3.53053c1.89137,-1.38285 6.94017,-1.58811 6.94017,-1.58811l2.28707,-2.81194c0,0 -0.96653,-2.96016 1.09837,-5.61556c0.49326,-0.63431 1.75236,-1.92372 2.69649,-2.33652c1.00155,-0.43791 2.28572,0.20169 3.10616,-0.31842c1.92215,-1.21854 2.1286,-2.20307 3.5963,-2.20307c2.74833,0 5.19868,0 5.19868,0v31.54977l-1.73529,0.08516c0,0 -3.10162,2.00083 -5.9279,2.19908c-1.24013,0.08698 -4.52449,-1.55775 -4.99329,-1.53613c-1.6091,0.07423 -5.38245,-0.15705 -6.38608,-0.3869c-3.02316,-0.69234 -2.81673,-2.9801 -4.04276,-4.18443c-1.52313,-1.49618 -4.08866,-2.04003 -4.08866,-2.04003z" fill="#ade1ff" stroke="#000000" stroke-width="0" stroke-linecap="butt"/><path d="M63.56337,145.46436c0,0 -0.393,0.00149 -0.92996,-0.1041c-0.27361,-0.0538 -0.5846,-0.38933 -0.90001,-0.24427c-0.95268,0.43815 -1.96608,2.08448 -4.25167,2.09871c-4.87016,0.03033 -5.46885,-1.55029 -6.53985,-1.46614c-3.18418,0.25022 -3.02619,0.79115 -6.16793,-0.1299c-3.29303,-0.96541 -2.75505,-2.94121 -4.41974,-4.88105c-0.77324,-0.90104 -2.17636,-0.71544 -3.34988,-1.58644c-2.07763,-1.54203 -2.63868,-4.55415 -2.30951,-5.63149c0.32916,-1.07734 1.98575,-0.51269 2.42556,-1.6132c1.5575,-3.89723 4.63881,-5.54117 8.82204,-5.20245c0.56515,0.04576 1.74329,-1.99117 1.96252,-2.67474c0.49801,-1.55282 -0.28103,-3.76523 1.25467,-5.54995c0.79279,-0.92136 1.58051,-2.075 3.08209,-2.69789c0.40954,-0.16989 2.30668,0.47274 2.66384,0.27925c1.68554,-0.91314 1.64477,-1.66909 3.39579,-2.23627c0.74316,-0.24072 1.32083,-0.80516 2.37132,-0.80104c1.42465,0.00558 2.96065,0.6383 2.96065,0.6383" fill="none" stroke="#80c7f2" stroke-width="1" stroke-linecap="round"/></g><g stroke="none" stroke-width="0" stroke-linecap="butt"><path d="" fill="#6ff1ff"/><path d="M52.62976,119.36573c1.16823,-0.56582 5.34425,-1.08833 5.56757,-0.67108c0.26411,0.49349 -3.48816,1.71612 -4.33482,2.11513c-0.97915,0.46144 -2.98967,2.00317 -2.9259,1.40152c0.06436,-0.60722 0.52493,-2.27975 1.69316,-2.84558z" fill="#92d3f6"/></g><path d="M41.98312,138.87684c0,0 2.6051,3.23789 5.31433,3.7388c1.07592,0.19893 0.55754,-1.63261 2.39018,-2.08015c0.63366,-0.15474 1.57791,0.83719 2.12901,1.11227c0.63386,0.31641 2.14819,1.09213 3.51568,0.76351c2.35235,-0.56529 2.52662,0.6567 4.74174,-0.14479c0.9954,-0.36016 1.56565,-1.35193 2.2276,-1.99921c0.81113,-0.79315 1.91188,-1.06949 1.91188,-1.06949v2.89258c0,0 -0.44045,0.20756 -0.93929,0.51088c-1.27681,0.77635 -3.78237,2.18001 -6.52745,2.33632c-1.05527,0.06009 -1.78544,-0.26734 -2.94676,-0.65271c-1.11196,-0.36899 -2.65726,-0.79109 -3.58236,-0.977c-1.38608,-0.27854 -2.24769,0.4494 -3.07336,0.28911c-2.60606,-0.50591 -5.16118,-4.72016 -5.16118,-4.72016z" fill="#92d3f6" stroke="none" stroke-width="0" stroke-linecap="butt"/></g><g><g><path d="M63.13118,145.37651v-31.66718c0,0 2.49419,-0.74954 4.18967,0.9616c1.49142,1.50521 1.06535,3.8754 2.54208,5.907c1.04366,1.43581 0.55345,-1.87103 4.1717,-1.07598c3.19342,0.70171 2.5518,4.65496 4.73589,4.40561c1.53466,-0.1752 1.92347,-2.28162 3.19094,-4.59153c0.89837,-1.63725 2.73832,-2.35521 4.3073,-3.22887c1.24999,-0.69603 1.47782,-1.55672 2.46725,-1.98519c0.92632,-0.40115 3.06728,-0.39265 3.06728,-0.39265v31.66718c0,0 -4.34033,2.32282 -6.74725,2.3406c-2.27316,0.01679 -7.31591,-2.23671 -7.31591,-2.23671c0,0 -5.14849,1.62896 -7.54637,1.6119c-2.46966,-0.01756 -7.06258,-1.71579 -7.06258,-1.71579z" fill="#ade1ff" stroke="none" stroke-width="0" stroke-linecap="butt"/><path d="M91.52892,113.83399c0,0 -1.45054,-0.20713 -3.28084,0.64405c-0.86512,0.40232 -1.37868,1.04906 -2.15245,1.78218c-0.65019,0.61603 -2.66225,1.29304 -3.32983,1.93726c-1.8894,1.82327 -2.05359,5.21616 -3.88593,5.89761c-2.57164,0.95639 -2.08498,-4.79141 -4.91736,-4.52661c-2.83238,0.26481 -2.37974,2.2986 -3.42487,1.49627c-1.55429,-1.19318 -1.72243,-5.42893 -3.23412,-6.51488c-1.42493,-1.02363 -3.76077,-0.84055 -3.76077,-0.84055" fill="none" stroke="#80c7f2" stroke-width="1" stroke-linecap="round"/><g fill="#92d3f6" stroke="none" stroke-width="0" stroke-linecap="butt"><path d="M69.99054,124.1569c0.5469,-0.25771 3.42778,-0.83137 3.59838,-0.51263c0.20177,0.37698 -2.40282,1.70393 -3.04964,2.00871c-0.74803,0.3525 -2.80803,0.48225 -2.75932,0.02266c0.04917,-0.46385 2.21057,-1.51874 2.21057,-1.51874z"/><path d="M69.28691,127.21181c0.71586,-0.33734 4.48683,-1.08824 4.71015,-0.67102c0.26411,0.49345 -3.14519,2.23037 -3.99186,2.62934c-0.97915,0.46139 -3.67561,0.63124 -3.61184,0.02965c0.06437,-0.60716 2.89355,-1.98798 2.89355,-1.98798z"/></g></g><path d="M62.88551,139.25626c0,0 4.2698,1.39701 6.60043,0.81577c3.49673,-0.87204 8.47468,-2.85277 8.47468,-2.85277c0,0 -0.34738,0.66687 -1.58075,1.38883c-0.7955,0.46565 -2.8752,1.05822 -2.4066,1.16179c0.93662,0.20701 3.5901,1.98664 6.73743,1.99548c4.06116,0.01139 4.42902,-2.70284 4.99046,-3.23194c1.11211,-1.04803 1.03895,-2.96326 1.87793,-2.85689c1.1404,0.14459 0.86793,2.22422 1.5318,3.14025c0.91306,1.25988 2.92534,1.43027 2.92534,1.43027v2.93875c0,0 -2.70846,0.22137 -3.87787,0.15375c-1.17397,-0.06789 -4.50872,-1.27268 -4.50872,-1.27268c0,0 -4.6259,2.18757 -6.66893,2.18757c-2.85768,0 -9.00433,-1.08539 -9.00433,-1.08539c0,0 -1.74186,0.00619 -2.55816,0.00909c-0.74944,0.00266 -2.53271,-0.98313 -2.53271,-0.98313z" fill="#92d3f6" stroke="none" stroke-width="0" stroke-linecap="butt"/><path d="M91.6875,145.30526c0,0 -2.0669,1.91342 -5.71762,2.23858c-4.54608,0.40491 -8.17451,-1.91873 -8.17451,-1.91873c0,0 -5.06033,1.34248 -7.37188,1.34248c-5.28425,0 -7.31665,-1.66232 -7.31665,-1.66232" fill="none" stroke="#80c7f2" stroke-width="1" stroke-linecap="round"/></g><g><g data-paper-data="{&quot;index&quot;:null}"><path d="M105.01012,144.29129c0,0 -1.75207,2.42019 -6.49766,2.66734c-4.74559,0.24714 -7.32691,-2.1284 -7.32691,-2.1284l0.25099,-31.24242c0,0 4.79223,-0.13913 6.50946,1.15944c1.90121,1.43769 3.85337,7.09187 3.85337,7.09187c0,0 1.7714,-2.32896 3.13243,-2.34272c5.11108,-0.05166 4.94447,9.36249 4.94447,9.36249c0,0 2.36155,-2.14578 4.16054,-0.41383c2.15277,2.07255 0.76655,6.76053 0.76655,6.76053c0,0 1.14116,1.28378 1.42662,2.83354c0.27105,1.47156 0.33364,2.45303 -0.53222,3.59308c-2.79397,3.67871 -10.68764,2.65908 -10.68764,2.65908z" fill="#ade1ff" stroke="#000000" stroke-width="0" stroke-linecap="butt"/><path d="M91.5944,113.71193c0,0 4.57363,-0.50303 6.50904,1.35024c2.9556,2.83015 2.89073,6.76126 3.32413,6.89909c0.50546,0.16074 1.3076,-1.78915 3.39325,-2.33828c3.85657,-1.0154 4.79723,4.48727 4.97921,8.47111c0.07353,1.60975 1.16993,-1.2533 3.31458,-0.35706c1.42002,0.59342 2.30426,2.48407 2.02337,4.36287c-0.21443,1.43422 -0.51589,2.78868 -0.43895,2.90935c1.72659,2.7081 2.00265,3.922 1.09337,6.1185c-1.73811,4.19867 -10.9224,3.21791 -10.9224,3.21791c0,0 -2.14087,2.34442 -6.75949,2.60524c-4.41572,0.24935 -6.32069,-1.74615 -6.32069,-1.74615" fill="none" stroke="#80c7f2" stroke-width="1" stroke-linecap="round"/></g><path d="M96.54684,122.38901c-0.19299,0.37796 -2.16481,-1.60945 -2.78032,-1.97088c-0.71184,-0.41799 -2.5742,-1.45361 -2.17173,-1.67168c0.4062,-0.22011 1.93676,0.07401 2.88463,0.77122c0.94787,0.69722 2.2306,2.55178 2.06743,2.87135z" fill="#92d3f6" stroke="none" stroke-width="0" stroke-linecap="butt"/><path d="M91.13969,143.18739v-3.16927c0,0 3.94228,2.1917 6.48483,1.55234c3.27791,-0.82429 5.70952,-2.30028 5.99755,-1.41399c0.20521,0.63146 -2.41486,3.61967 -5.92502,3.85165c-3.2405,0.21416 -6.55737,-0.82074 -6.55737,-0.82074z" data-paper-data="{&quot;index&quot;:null}" fill="#92d3f6" stroke="none" stroke-width="0" stroke-linecap="butt"/><path d="M104.92933,138.18874c0.23412,0.36418 -0.09275,0.99155 -0.73008,1.40127c-0.63732,0.40972 -1.34378,0.44661 -1.5779,0.08243c-0.23412,-0.36418 0.28872,-0.40361 0.92605,-0.81333c0.63733,-0.40971 1.1478,-1.03456 1.38192,-0.67037z" fill="#92d3f6" stroke="none" stroke-width="0" stroke-linecap="butt"/></g></g><g><g><g data-paper-data="{&quot;index&quot;:null}"><path d="M137.19373,55.72711c0,0 -1.75207,2.42019 -6.49766,2.66734c-4.74559,0.24714 -7.32691,-2.1284 -7.32691,-2.1284l0.25099,-31.24242c0,0 4.79223,-0.13913 6.50946,1.15944c1.90121,1.43769 3.85337,7.09187 3.85337,7.09187c0,0 1.7714,-2.32896 3.13243,-2.34272c5.11108,-0.05166 4.94447,9.36249 4.94447,9.36249c0,0 2.36155,-2.14578 4.16054,-0.41383c2.15277,2.07255 0.76655,6.76053 0.76655,6.76053c0,0 1.14116,1.28378 1.42662,2.83354c0.27105,1.47156 0.33364,2.45303 -0.53222,3.59308c-2.79397,3.67871 -10.68764,2.65908 -10.68764,2.65908z" fill="#ade1ff" stroke="#000000" stroke-width="0" stroke-linecap="butt"/><path d="M123.77799,25.14775c0,0 4.57363,-0.50303 6.50904,1.35024c2.9556,2.83015 2.89073,6.76126 3.32413,6.89909c0.50546,0.16074 1.3076,-1.78915 3.39325,-2.33828c3.85657,-1.0154 4.79723,4.48727 4.97921,8.47111c0.07353,1.60975 1.16993,-1.2533 3.31458,-0.35706c1.42002,0.59342 2.30426,2.48407 2.02337,4.36287c-0.21443,1.43422 -0.51589,2.78868 -0.43895,2.90935c1.72659,2.7081 2.00265,3.922 1.09337,6.1185c-1.73811,4.19867 -10.9224,3.21791 -10.9224,3.21791c0,0 -2.14087,2.34442 -6.75949,2.60524c-4.41572,0.24935 -6.32069,-1.74615 -6.32069,-1.74615" fill="none" stroke="#80c7f2" stroke-width="1" stroke-linecap="round"/></g><path d="M128.73044,33.82483c-0.19299,0.37796 -2.16481,-1.60945 -2.78032,-1.97088c-0.71184,-0.41799 -2.5742,-1.45361 -2.17173,-1.67168c0.4062,-0.22011 1.93676,0.07401 2.88463,0.77122c0.94787,0.69722 2.2306,2.55178 2.06743,2.87135z" fill="#92d3f6" stroke="none" stroke-width="0" stroke-linecap="butt"/><path d="M123.32327,53.5562v-2.86441c0,0 3.94228,2.95385 6.48483,2.31449c3.27791,-0.82429 5.70952,-2.30028 5.99755,-1.41399c0.20521,0.63146 -2.41486,3.61967 -5.92502,3.85165c-3.2405,0.21416 -6.55737,-1.88775 -6.55737,-1.88775z" data-paper-data="{&quot;index&quot;:null}" fill="#92d3f6" stroke="none" stroke-width="0" stroke-linecap="butt"/><path d="M137.11291,49.62457c0.23412,0.36418 -0.09275,0.99155 -0.73008,1.40127c-0.63732,0.40972 -1.34378,0.44661 -1.5779,0.08243c-0.23412,-0.36418 0.28872,-0.40361 0.92605,-0.81333c0.63733,-0.40971 1.1478,-1.03456 1.38192,-0.67037z" fill="#92d3f6" stroke="none" stroke-width="0" stroke-linecap="butt"/></g><g><g><path d="M96.89247,50.65872c0,0 -1.41913,-1.34686 -1.88979,-2.65c-0.54322,-1.50404 -0.14842,-3.01494 -0.14842,-3.3893c0,-0.6864 2.04825,-0.58108 2.28871,-1.2431c0.34842,-0.95925 0.82004,-2.66762 2.00026,-3.53053c1.89137,-1.38285 6.94017,-1.58811 6.94017,-1.58811l2.28707,-2.81194c0,0 -0.96653,-2.96016 1.09837,-5.61556c0.49326,-0.63431 1.75236,-1.92372 2.69649,-2.33652c1.00155,-0.43791 2.28572,0.20169 3.10616,-0.31842c1.92215,-1.21854 2.1286,-2.20307 3.5963,-2.20307c2.74833,0 5.19868,0 5.19868,0v31.54977l-1.73529,0.08516c0,0 -3.10162,2.00083 -5.9279,2.19908c-1.24013,0.08698 -4.52449,-1.55775 -4.99329,-1.53613c-1.6091,0.07423 -5.38245,-0.15705 -6.38608,-0.3869c-3.02316,-0.69234 -2.81673,-2.9801 -4.04276,-4.18443c-1.52313,-1.49618 -4.08866,-2.04003 -4.08866,-2.04003z" fill="#ade1ff" stroke="#000000" stroke-width="0" stroke-linecap="butt"/><path d="M123.71317,56.90018c0,0 -0.393,0.00149 -0.92996,-0.1041c-0.27361,-0.0538 -0.5846,-0.38933 -0.90001,-0.24427c-0.95268,0.43815 -1.96608,2.08448 -4.25167,2.09871c-4.87016,0.03033 -5.46885,-1.55029 -6.53985,-1.46614c-3.18418,0.25022 -3.02619,0.79115 -6.16793,-0.1299c-3.29303,-0.96541 -2.75505,-2.94121 -4.41974,-4.88105c-0.77324,-0.90104 -2.17636,-0.71544 -3.34988,-1.58644c-2.07763,-1.54203 -2.63868,-4.55415 -2.30951,-5.63149c0.32916,-1.07734 1.98575,-0.51269 2.42556,-1.6132c1.5575,-3.89723 4.63881,-5.54117 8.82204,-5.20245c0.56515,0.04576 1.74329,-1.99117 1.96252,-2.67474c0.49801,-1.55282 -0.28103,-3.76523 1.25467,-5.54995c0.79279,-0.92136 1.58051,-2.075 3.08209,-2.69789c0.40954,-0.16989 2.30668,0.47274 2.66384,0.27925c1.68554,-0.91314 1.64477,-1.66909 3.39579,-2.23627c0.74316,-0.24072 1.32083,-0.80516 2.37132,-0.80104c1.42465,0.00558 2.96065,0.6383 2.96065,0.6383" fill="none" stroke="#80c7f2" stroke-width="1" stroke-linecap="round"/></g><g stroke="none" stroke-width="0" stroke-linecap="butt"><path d="" fill="#6ff1ff"/><path d="M112.77958,30.80155c1.16823,-0.56582 5.34425,-1.08833 5.56757,-0.67108c0.26411,0.49349 -3.48816,1.71612 -4.33482,2.11513c-0.97915,0.46144 -2.98967,2.00317 -2.9259,1.40152c0.06436,-0.60722 0.52493,-2.27975 1.69316,-2.84558z" fill="#92d3f6"/></g><path d="M102.13293,50.31266c0,0 2.6051,3.23789 5.31433,3.7388c1.07592,0.19893 0.55754,-1.63261 2.39018,-2.08015c0.63366,-0.15474 1.57791,0.83719 2.12901,1.11227c0.63386,0.31641 2.14819,1.09213 3.51568,0.76351c2.35235,-0.56529 2.52662,0.6567 4.74174,-0.14479c0.9954,-0.36016 1.56565,-1.35193 2.2276,-1.99921c0.81113,-0.79315 1.68324,-0.99328 1.68324,-0.99328l0.22865,2.81637c0,0 -0.44045,0.20756 -0.93929,0.51088c-1.27681,0.77635 -3.78237,2.18001 -6.52745,2.33632c-1.05527,0.06009 -1.78544,-0.26734 -2.94676,-0.65271c-1.11196,-0.36899 -2.65726,-0.79109 -3.58236,-0.977c-1.38608,-0.27854 -2.24769,0.4494 -3.07336,0.28911c-2.60606,-0.50591 -5.16118,-4.72016 -5.16118,-4.72016z" fill="#92d3f6" stroke="none" stroke-width="0" stroke-linecap="butt"/></g></g><g><g><g data-paper-data="{&quot;index&quot;:null}"><path d="M275.19372,100.72711c0,0 -1.75207,2.42019 -6.49766,2.66733c-4.74559,0.24715 -7.32691,-2.12841 -7.32691,-2.12841l0.25099,-31.24242c0,0 4.79223,-0.13913 6.50946,1.15944c1.90121,1.43769 3.85336,7.09188 3.85336,7.09188c0,0 1.7714,-2.32897 3.13244,-2.34273c5.11109,-0.05166 4.94447,9.36249 4.94447,9.36249c0,0 2.36155,-2.14578 4.16054,-0.41383c2.15277,2.07255 0.76655,6.76053 0.76655,6.76053c0,0 1.14117,1.28378 1.42662,2.83354c0.27105,1.47156 0.33364,2.45303 -0.53222,3.59308c-2.79397,3.6787 -10.68763,2.65909 -10.68763,2.65909z" fill="#ade1ff" stroke="#000000" stroke-width="0" stroke-linecap="butt"/><path d="M261.77799,70.14775c0,0 4.57362,-0.50303 6.50904,1.35025c2.9556,2.83015 2.89074,6.76126 3.32414,6.89909c0.50546,0.16074 1.3076,-1.78914 3.39325,-2.33828c3.85657,-1.0154 4.79723,4.48727 4.97921,8.47111c0.07353,1.60975 1.16993,-1.2533 3.31459,-0.35707c1.42003,0.59341 2.30426,2.48407 2.02336,4.36286c-0.21443,1.43422 -0.51588,2.78869 -0.43895,2.90935c1.72659,2.7081 2.00265,3.922 1.09338,6.1185c-1.73811,4.19867 -10.9224,3.21791 -10.9224,3.21791c0,0 -2.14086,2.34442 -6.75949,2.60523c-4.41572,0.24935 -6.32069,-1.74615 -6.32069,-1.74615" fill="none" stroke="#80c7f2" stroke-width="1" stroke-linecap="round"/></g><path d="M266.73042,78.82483c-0.19299,0.37796 -2.16481,-1.60945 -2.78031,-1.97088c-0.71184,-0.41799 -2.5742,-1.45361 -2.17174,-1.67168c0.4062,-0.22011 1.93676,0.074 2.88463,0.77123c0.94786,0.69722 2.2306,2.55178 2.06743,2.87135z" fill="#92d3f6" stroke="none" stroke-width="0" stroke-linecap="butt"/><path d="M261.32327,98.5562v-2.86441c0,0 3.94229,2.95386 6.48483,2.31449c3.27791,-0.82429 5.70952,-2.30028 5.99755,-1.41399c0.20521,0.63146 -2.41485,3.61967 -5.92502,3.85165c-3.2405,0.21417 -6.55737,-1.88775 -6.55737,-1.88775z" data-paper-data="{&quot;index&quot;:null}" fill="#92d3f6" stroke="none" stroke-width="0" stroke-linecap="butt"/><path d="M275.11292,94.62456c0.23412,0.36419 -0.09274,0.99156 -0.73007,1.40127c-0.63733,0.40972 -1.34377,0.44662 -1.5779,0.08243c-0.23413,-0.36419 0.28872,-0.40361 0.92606,-0.81333c0.63733,-0.40971 1.14779,-1.03456 1.38192,-0.67038z" fill="#92d3f6" stroke="none" stroke-width="0" stroke-linecap="butt"/></g><g><g><path d="M234.89248,95.65873c0,0 -1.41913,-1.34686 -1.88979,-2.65c-0.54322,-1.50405 -0.14842,-3.01494 -0.14842,-3.3893c0,-0.68639 2.04825,-0.58107 2.28871,-1.2431c0.34842,-0.95925 0.82004,-2.66763 2.00027,-3.53053c1.89137,-1.38286 6.94017,-1.58811 6.94017,-1.58811l2.28706,-2.81194c0,0 -0.96653,-2.96016 1.09838,-5.61555c0.49327,-0.63431 1.75236,-1.92372 2.69649,-2.33652c1.00155,-0.43791 2.28572,0.20169 3.10616,-0.31842c1.92215,-1.21854 2.12859,-2.20307 3.5963,-2.20307c2.74833,0 5.19868,0 5.19868,0v31.54977l-1.7353,0.08516c0,0 -3.10161,2.00083 -5.9279,2.19908c-1.24013,0.08698 -4.52448,-1.55776 -4.99329,-1.53612c-1.6091,0.07423 -5.38244,-0.15705 -6.38608,-0.38689c-3.02317,-0.69234 -2.81673,-2.9801 -4.04276,-4.18443c-1.52313,-1.49617 -4.08866,-2.04003 -4.08866,-2.04003z" fill="#ade1ff" stroke="#000000" stroke-width="0" stroke-linecap="butt"/><path d="M261.71317,101.90018c0,0 -0.393,0.00149 -0.92996,-0.10411c-0.27361,-0.0538 -0.58459,-0.38932 -0.90001,-0.24426c-0.95267,0.43815 -1.96609,2.08447 -4.25167,2.09871c-4.87016,0.03033 -5.46885,-1.55029 -6.53985,-1.46614c-3.18418,0.25022 -3.02619,0.79115 -6.16792,-0.1299c-3.29302,-0.96541 -2.75504,-2.94121 -4.41974,-4.88105c-0.77324,-0.90104 -2.17637,-0.71545 -3.34989,-1.58644c-2.07763,-1.54203 -2.63868,-4.55415 -2.30951,-5.63149c0.32916,-1.07734 1.98575,-0.51269 2.42557,-1.61321c1.5575,-3.89722 4.63881,-5.54116 8.82205,-5.20245c0.56515,0.04576 1.74329,-1.99117 1.96252,-2.67475c0.49801,-1.55282 -0.28103,-3.76523 1.25466,-5.54994c0.79279,-0.92135 1.58051,-2.075 3.08209,-2.69788c0.40955,-0.16988 2.30668,0.47274 2.66384,0.27925c1.68554,-0.91314 1.64477,-1.66908 3.3958,-2.23626c0.74316,-0.24072 1.32083,-0.80515 2.37132,-0.80103c1.42466,0.00558 2.96065,0.6383 2.96065,0.6383" fill="none" stroke="#80c7f2" stroke-width="1" stroke-linecap="round"/></g><g stroke="none" stroke-width="0" stroke-linecap="butt"><path d="" fill="#6ff1ff"/><path d="M250.77957,75.80155c1.16823,-0.56582 5.34425,-1.08833 5.56757,-0.67108c0.26412,0.49349 -3.48816,1.71612 -4.33482,2.11513c-0.97914,0.46144 -2.98967,2.00317 -2.9259,1.40153c0.06436,-0.60722 0.52493,-2.27976 1.69316,-2.84558z" fill="#92d3f6"/></g><path d="M240.13293,95.31267c0,0 2.60509,3.23789 5.31433,3.7388c1.07593,0.19893 0.55754,-1.63261 2.39018,-2.08015c0.63366,-0.15474 1.57791,0.83719 2.129,1.11227c0.63386,0.31641 2.14819,1.09212 3.51568,0.76351c2.35235,-0.56529 2.52662,0.6567 4.74173,-0.14479c0.9954,-0.36016 1.56566,-1.35193 2.22761,-1.9992c0.81113,-0.79315 1.68323,-0.99328 1.68323,-0.99328l0.22865,2.81637c0,0 -0.44045,0.20757 -0.93929,0.51088c-1.2768,0.77635 -3.78236,2.18001 -6.52744,2.33632c-1.05527,0.06009 -1.78544,-0.26734 -2.94676,-0.65271c-1.11196,-0.36899 -2.65726,-0.79109 -3.58236,-0.977c-1.38609,-0.27855 -2.2477,0.4494 -3.07336,0.28911c-2.60606,-0.50591 -5.16119,-4.72016 -5.16119,-4.72016z" fill="#92d3f6" stroke="none" stroke-width="0" stroke-linecap="butt"/></g></g><g><g><g><path d="M363.7427,62.2229c0,0 -1.41913,-1.34686 -1.88979,-2.65c-0.54322,-1.50404 -0.14841,-3.01494 -0.14841,-3.3893c0,-0.6864 2.04825,-0.58107 2.28872,-1.2431c0.34842,-0.95926 0.82003,-2.66762 2.00026,-3.53053c1.89137,-1.38286 6.94017,-1.58811 6.94017,-1.58811l2.28706,-2.81194c0,0 -0.96653,-2.96016 1.09837,-5.61555c0.49327,-0.63431 1.75236,-1.92372 2.69649,-2.33652c1.00155,-0.43791 2.28572,0.20168 3.10616,-0.31842c1.92215,-1.21855 2.12859,-2.20306 3.5963,-2.20306c2.74833,0 5.19867,0 5.19867,0v31.54977l-1.73529,0.08516c0,0 -3.10161,2.00083 -5.9279,2.19908c-1.24013,0.08698 -4.52449,-1.55775 -4.99329,-1.53612c-1.6091,0.07423 -5.38244,-0.15705 -6.38608,-0.3869c-3.02316,-0.69234 -2.81673,-2.9801 -4.04276,-4.18443c-1.52313,-1.49617 -4.08867,-2.04003 -4.08867,-2.04003z" fill="#ade1ff" stroke="#000000" stroke-width="0" stroke-linecap="butt"/><path d="M390.56341,68.46436c0,0 -0.393,0.00149 -0.92997,-0.10411c-0.2736,-0.05381 -0.5846,-0.38933 -0.90001,-0.24427c-0.95267,0.43815 -1.96608,2.08447 -4.25167,2.09871c-4.87016,0.03033 -5.46886,-1.55029 -6.53986,-1.46614c-3.18418,0.25022 -3.02619,0.79115 -6.16792,-0.1299c-3.29302,-0.96541 -2.75505,-2.94121 -4.41974,-4.88105c-0.77324,-0.90105 -2.17636,-0.71544 -3.34988,-1.58643c-2.07763,-1.54203 -2.63867,-4.55414 -2.30951,-5.63149c0.32916,-1.07735 1.98575,-0.51269 2.42557,-1.61321c1.5575,-3.89722 4.6388,-5.54116 8.82204,-5.20245c0.56515,0.04576 1.74329,-1.99117 1.96252,-2.67475c0.49801,-1.55282 -0.28103,-3.76523 1.25467,-5.54995c0.79279,-0.92136 1.58051,-2.075 3.08209,-2.69789c0.40954,-0.16988 2.30669,0.47274 2.66384,0.27925c1.68555,-0.91315 1.64477,-1.66909 3.39579,-2.23627c0.74316,-0.24071 1.32083,-0.80515 2.37132,-0.80103c1.42466,0.00558 2.96065,0.63831 2.96065,0.63831" fill="none" stroke="#80c7f2" stroke-width="1" stroke-linecap="round"/></g><g stroke="none" stroke-width="0" stroke-linecap="butt"><path d="" fill="#6ff1ff"/><path d="M379.62979,42.36572c1.16823,-0.56582 5.34425,-1.08833 5.56757,-0.67108c0.26412,0.49349 -3.48816,1.71612 -4.33482,2.11513c-0.97915,0.46143 -2.98967,2.00316 -2.9259,1.40152c0.06436,-0.60722 0.52493,-2.27975 1.69316,-2.84557z" fill="#92d3f6"/></g><path d="M368.98315,61.87684c0,0 2.6051,3.23789 5.31434,3.7388c1.07592,0.19893 0.55754,-1.63261 2.39017,-2.08015c0.63366,-0.15474 1.57791,0.83719 2.12901,1.11227c0.63386,0.31641 2.14819,1.09213 3.51568,0.76352c2.35235,-0.56528 2.52663,0.6567 4.74174,-0.14479c0.99539,-0.36016 1.56565,-1.35193 2.2276,-1.99921c0.81113,-0.79315 1.91188,-1.06949 1.91188,-1.06949v2.89258c0,0 -0.44045,0.20756 -0.93929,0.51089c-1.27681,0.77635 -3.78237,2.18001 -6.52745,2.33631c-1.05527,0.06009 -1.78544,-0.26734 -2.94676,-0.6527c-1.11196,-0.36899 -2.65726,-0.79109 -3.58236,-0.977c-1.38608,-0.27855 -2.24769,0.4494 -3.07336,0.28911c-2.60606,-0.50591 -5.16118,-4.72016 -5.16118,-4.72016z" fill="#92d3f6" stroke="none" stroke-width="0" stroke-linecap="butt"/></g><g><g><path d="M390.13121,68.37651v-31.66718c0,0 2.49419,-0.74954 4.18967,0.9616c1.49142,1.50521 1.06535,3.8754 2.54208,5.907c1.04366,1.43581 0.55345,-1.87104 4.1717,-1.07598c3.19342,0.70171 2.5518,4.65496 4.73589,4.4056c1.53466,-0.1752 1.92347,-2.28162 3.19094,-4.59153c0.89837,-1.63725 2.73833,-2.35521 4.30731,-3.22887c1.24999,-0.69603 1.47782,-1.55671 2.46725,-1.98519c0.92632,-0.40115 3.06727,-0.39265 3.06727,-0.39265v31.66718c0,0 -4.34033,2.32283 -6.74725,2.34061c-2.27315,0.01679 -7.31592,-2.23671 -7.31592,-2.23671c0,0 -5.14849,1.62896 -7.54637,1.6119c-2.46965,-0.01756 -7.06258,-1.7158 -7.06258,-1.7158z" fill="#ade1ff" stroke="none" stroke-width="0" stroke-linecap="butt"/><path d="M418.52894,36.83399c0,0 -1.45054,-0.20712 -3.28084,0.64405c-0.86512,0.40232 -1.37868,1.04906 -2.15245,1.78218c-0.65019,0.61602 -2.66225,1.29304 -3.32984,1.93726c-1.8894,1.82327 -2.05359,5.21616 -3.88594,5.8976c-2.57164,0.95638 -2.08497,-4.79141 -4.91735,-4.52661c-2.83238,0.2648 -2.37974,2.2986 -3.42487,1.49628c-1.55429,-1.19318 -1.72243,-5.42893 -3.23411,-6.51488c-1.42493,-1.02363 -3.76078,-0.84055 -3.76078,-0.84055" fill="none" stroke="#80c7f2" stroke-width="1" stroke-linecap="round"/><g fill="#92d3f6" stroke="none" stroke-width="0" stroke-linecap="butt"><path d="M396.99058,47.1569c0.5469,-0.25772 3.42779,-0.83137 3.59839,-0.51263c0.20177,0.37698 -2.40282,1.70392 -3.04963,2.00871c-0.74804,0.3525 -2.80804,0.48225 -2.75932,0.02266c0.04917,-0.46385 2.21057,-1.51874 2.21057,-1.51874z"/><path d="M396.28694,50.21181c0.71587,-0.33733 4.48683,-1.08824 4.71015,-0.67102c0.2641,0.49345 -3.14519,2.23037 -3.99185,2.62933c-0.97915,0.4614 -3.67561,0.63124 -3.61185,0.02965c0.06437,-0.60717 2.89355,-1.98798 2.89355,-1.98798z"/></g></g><path d="M389.88553,62.25626c0,0 4.2698,1.39701 6.60043,0.81578c3.49673,-0.87204 8.47468,-2.85278 8.47468,-2.85278c0,0 -0.34737,0.66687 -1.58075,1.38883c-0.7955,0.46564 -2.8752,1.05822 -2.4066,1.16179c0.93663,0.20701 3.5901,1.98664 6.73743,1.99547c4.06117,0.01139 4.42902,-2.70284 4.99045,-3.23194c1.11211,-1.04803 1.03895,-2.96327 1.87793,-2.85689c1.1404,0.14459 0.86793,2.22423 1.5318,3.14025c0.91305,1.25988 2.92534,1.43027 2.92534,1.43027v2.93874c0,0 -2.70847,0.22137 -3.87787,0.15375c-1.17397,-0.06788 -4.50872,-1.27268 -4.50872,-1.27268c0,0 -4.6259,2.18757 -6.66892,2.18757c-2.85769,0 -9.00434,-1.08539 -9.00434,-1.08539c0,0 -1.74186,0.00619 -2.55815,0.00909c-0.74944,0.00266 -2.53271,-0.98314 -2.53271,-0.98314z" fill="#92d3f6" stroke="none" stroke-width="0" stroke-linecap="butt"/><path d="M418.68751,68.30525c0,0 -2.0669,1.91342 -5.71762,2.23858c-4.54608,0.40491 -8.1745,-1.91873 -8.1745,-1.91873c0,0 -5.06033,1.34248 -7.37188,1.34248c-5.28425,0 -7.31665,-1.66233 -7.31665,-1.66233" fill="none" stroke="#80c7f2" stroke-width="1" stroke-linecap="round"/></g><g><g data-paper-data="{&quot;index&quot;:null}"><path d="M432.01012,67.29128c0,0 -1.75207,2.4202 -6.49766,2.66734c-4.74559,0.24714 -7.32691,-2.12841 -7.32691,-2.12841l0.25099,-31.24241c0,0 4.79224,-0.13913 6.50946,1.15944c1.90121,1.43769 3.85337,7.09188 3.85337,7.09188c0,0 1.7714,-2.32896 3.13244,-2.34273c5.11109,-0.05166 4.94447,9.36249 4.94447,9.36249c0,0 2.36155,-2.14577 4.16054,-0.41383c2.15278,2.07254 0.76655,6.76054 0.76655,6.76054c0,0 1.14117,1.28377 1.42662,2.83353c0.27105,1.47156 0.33364,2.45304 -0.53223,3.59309c-2.79396,3.67871 -10.68763,2.65908 -10.68763,2.65908z" fill="#ade1ff" stroke="#000000" stroke-width="0" stroke-linecap="butt"/><path d="M418.59442,36.71193c0,0 4.57362,-0.50303 6.50904,1.35025c2.9556,2.83015 2.89074,6.76126 3.32414,6.89909c0.50546,0.16074 1.3076,-1.78914 3.39325,-2.33828c3.85657,-1.01541 4.79723,4.48727 4.97921,8.47111c0.07353,1.60976 1.16993,-1.2533 3.31459,-0.35707c1.42003,0.59342 2.30426,2.48407 2.02337,4.36286c-0.21443,1.43422 -0.51589,2.78869 -0.43895,2.90935c1.72659,2.7081 2.00265,3.92199 1.09338,6.1185c-1.73811,4.19868 -10.9224,3.21791 -10.9224,3.21791c0,0 -2.14086,2.34442 -6.75949,2.60524c-4.41572,0.24935 -6.32069,-1.74615 -6.32069,-1.74615" fill="none" stroke="#80c7f2" stroke-width="1" stroke-linecap="round"/></g><path d="M423.54684,45.38901c-0.19299,0.37796 -2.16481,-1.60945 -2.78031,-1.97088c-0.71183,-0.41799 -2.5742,-1.45361 -2.17174,-1.67168c0.4062,-0.22011 1.93676,0.074 2.88463,0.77123c0.94786,0.69722 2.2306,2.55178 2.06743,2.87135z" fill="#92d3f6" stroke="none" stroke-width="0" stroke-linecap="butt"/><path d="M418.13969,66.18739v-3.16926c0,0 3.94229,2.1917 6.48483,1.55234c3.27791,-0.82429 5.70952,-2.30028 5.99755,-1.41398c0.20521,0.63146 -2.41485,3.61966 -5.92502,3.85165c-3.2405,0.21417 -6.55737,-0.82074 -6.55737,-0.82074z" data-paper-data="{&quot;index&quot;:null}" fill="#92d3f6" stroke="none" stroke-width="0" stroke-linecap="butt"/><path d="M431.92934,61.18875c0.23411,0.36418 -0.09275,0.99155 -0.73008,1.40127c-0.63733,0.40972 -1.34377,0.44662 -1.5779,0.08243c-0.23412,-0.36418 0.28872,-0.40362 0.92606,-0.81333c0.63733,-0.40971 1.14779,-1.03455 1.38192,-0.67037z" fill="#92d3f6" stroke="none" stroke-width="0" stroke-linecap="butt"/></g></g><g><g><g data-paper-data="{&quot;index&quot;:null}"><path d="M362.19374,166.72711c0,0 -1.75207,2.42019 -6.49766,2.66733c-4.74559,0.24715 -7.32691,-2.12841 -7.32691,-2.12841l0.25099,-31.24242c0,0 4.79223,-0.13913 6.50946,1.15944c1.90121,1.43769 3.85336,7.09188 3.85336,7.09188c0,0 1.7714,-2.32897 3.13244,-2.34273c5.11109,-0.05166 4.94447,9.36249 4.94447,9.36249c0,0 2.36155,-2.14578 4.16054,-0.41383c2.15277,2.07255 0.76655,6.76053 0.76655,6.76053c0,0 1.14117,1.28378 1.42662,2.83354c0.27105,1.47156 0.33364,2.45303 -0.53222,3.59308c-2.79397,3.6787 -10.68763,2.65909 -10.68763,2.65909z" fill="#ade1ff" stroke="#000000" stroke-width="0" stroke-linecap="butt"/><path d="M348.778,136.14775c0,0 4.57362,-0.50303 6.50904,1.35025c2.9556,2.83015 2.89074,6.76126 3.32414,6.89909c0.50546,0.16074 1.3076,-1.78914 3.39325,-2.33828c3.85657,-1.0154 4.79723,4.48727 4.97921,8.47111c0.07353,1.60975 1.16993,-1.2533 3.31459,-0.35707c1.42003,0.59341 2.30426,2.48407 2.02336,4.36286c-0.21443,1.43422 -0.51588,2.78869 -0.43895,2.90935c1.72659,2.7081 2.00265,3.922 1.09338,6.1185c-1.73811,4.19867 -10.9224,3.21791 -10.9224,3.21791c0,0 -2.14086,2.34442 -6.75949,2.60523c-4.41572,0.24935 -6.32069,-1.74615 -6.32069,-1.74615" fill="none" stroke="#80c7f2" stroke-width="1" stroke-linecap="round"/></g><path d="M353.73044,144.82483c-0.19299,0.37796 -2.16481,-1.60945 -2.78031,-1.97088c-0.71184,-0.41799 -2.5742,-1.45361 -2.17174,-1.67168c0.4062,-0.22011 1.93676,0.074 2.88463,0.77123c0.94786,0.69722 2.2306,2.55178 2.06743,2.87135z" fill="#92d3f6" stroke="none" stroke-width="0" stroke-linecap="butt"/><path d="M348.32329,164.5562v-2.86441c0,0 3.94229,2.95386 6.48483,2.31449c3.27791,-0.82429 5.70952,-2.30028 5.99755,-1.41399c0.20521,0.63146 -2.41485,3.61967 -5.92502,3.85165c-3.2405,0.21417 -6.55737,-1.88775 -6.55737,-1.88775z" data-paper-data="{&quot;index&quot;:null}" fill="#92d3f6" stroke="none" stroke-width="0" stroke-linecap="butt"/><path d="M362.11292,160.62456c0.23412,0.36419 -0.09274,0.99156 -0.73007,1.40127c-0.63733,0.40972 -1.34377,0.44662 -1.5779,0.08243c-0.23413,-0.36419 0.28872,-0.40361 0.92606,-0.81333c0.63733,-0.40971 1.14779,-1.03456 1.38192,-0.67038z" fill="#92d3f6" stroke="none" stroke-width="0" stroke-linecap="butt"/></g><g><g><path d="M321.89248,161.65873c0,0 -1.41913,-1.34686 -1.88979,-2.65c-0.54322,-1.50405 -0.14842,-3.01494 -0.14842,-3.3893c0,-0.68639 2.04825,-0.58107 2.28871,-1.2431c0.34842,-0.95925 0.82004,-2.66763 2.00027,-3.53053c1.89137,-1.38286 6.94017,-1.58811 6.94017,-1.58811l2.28706,-2.81194c0,0 -0.96653,-2.96016 1.09838,-5.61555c0.49327,-0.63431 1.75236,-1.92372 2.69649,-2.33652c1.00155,-0.43791 2.28572,0.20169 3.10616,-0.31842c1.92215,-1.21854 2.12859,-2.20307 3.5963,-2.20307c2.74833,0 5.19868,0 5.19868,0v31.54977l-1.7353,0.08516c0,0 -3.10161,2.00083 -5.9279,2.19908c-1.24013,0.08698 -4.52448,-1.55776 -4.99329,-1.53612c-1.6091,0.07423 -5.38244,-0.15705 -6.38608,-0.38689c-3.02317,-0.69234 -2.81673,-2.9801 -4.04276,-4.18443c-1.52313,-1.49617 -4.08866,-2.04003 -4.08866,-2.04003z" fill="#ade1ff" stroke="#000000" stroke-width="0" stroke-linecap="butt"/><path d="M348.71319,167.90018c0,0 -0.393,0.00149 -0.92996,-0.10411c-0.27361,-0.0538 -0.58459,-0.38932 -0.90001,-0.24426c-0.95267,0.43815 -1.96609,2.08447 -4.25167,2.09871c-4.87016,0.03033 -5.46885,-1.55029 -6.53985,-1.46614c-3.18418,0.25022 -3.02619,0.79115 -6.16792,-0.1299c-3.29302,-0.96541 -2.75504,-2.94121 -4.41974,-4.88105c-0.77324,-0.90104 -2.17637,-0.71545 -3.34989,-1.58644c-2.07763,-1.54203 -2.63868,-4.55415 -2.30951,-5.63149c0.32916,-1.07734 1.98575,-0.51269 2.42557,-1.61321c1.5575,-3.89722 4.63881,-5.54116 8.82205,-5.20245c0.56515,0.04576 1.74329,-1.99117 1.96252,-2.67475c0.49801,-1.55282 -0.28103,-3.76523 1.25466,-5.54994c0.79279,-0.92135 1.58051,-2.075 3.08209,-2.69788c0.40955,-0.16988 2.30668,0.47274 2.66384,0.27925c1.68554,-0.91314 1.64477,-1.66908 3.3958,-2.23626c0.74316,-0.24072 1.32083,-0.80515 2.37132,-0.80103c1.42466,0.00558 2.96065,0.6383 2.96065,0.6383" fill="none" stroke="#80c7f2" stroke-width="1" stroke-linecap="round"/></g><g stroke="none" stroke-width="0" stroke-linecap="butt"><path d="" fill="#6ff1ff"/><path d="M337.77959,141.80155c1.16823,-0.56582 5.34425,-1.08833 5.56757,-0.67108c0.26412,0.49349 -3.48816,1.71612 -4.33482,2.11513c-0.97914,0.46144 -2.98967,2.00317 -2.9259,1.40153c0.06436,-0.60722 0.52493,-2.27976 1.69316,-2.84558z" fill="#92d3f6"/></g><path d="M327.13293,161.31267c0,0 2.60509,3.23789 5.31433,3.7388c1.07593,0.19893 0.55754,-1.63261 2.39018,-2.08015c0.63366,-0.15474 1.57791,0.83719 2.129,1.11227c0.63386,0.31641 2.14819,1.09212 3.51568,0.76351c2.35235,-0.56529 2.52662,0.6567 4.74173,-0.14479c0.9954,-0.36016 1.56566,-1.35193 2.22761,-1.9992c0.81113,-0.79315 1.68323,-0.99328 1.68323,-0.99328l0.22865,2.81637c0,0 -0.44045,0.20757 -0.93929,0.51088c-1.2768,0.77635 -3.78236,2.18001 -6.52744,2.33632c-1.05527,0.06009 -1.78544,-0.26734 -2.94676,-0.65271c-1.11196,-0.36899 -2.65726,-0.79109 -3.58236,-0.977c-1.38609,-0.27855 -2.2477,0.4494 -3.07336,0.28911c-2.60606,-0.50591 -5.16119,-4.72016 -5.16119,-4.72016z" fill="#92d3f6" stroke="none" stroke-width="0" stroke-linecap="butt"/></g></g></g><g><g><g><g><path d="M42.69864,315.91666c0,0 -1.41913,-1.34686 -1.88979,-2.65c-0.54322,-1.50404 -0.14842,-3.01494 -0.14842,-3.3893c0,-0.6864 2.04825,-0.58108 2.28871,-1.2431c0.34842,-0.95925 0.82004,-2.66762 2.00026,-3.53053c1.89137,-1.38285 6.94017,-1.58811 6.94017,-1.58811l2.28707,-2.81194c0,0 -0.96653,-2.96016 1.09837,-5.61556c0.49326,-0.63431 1.75236,-1.92372 2.69649,-2.33652c1.00155,-0.43791 2.28572,0.20169 3.10616,-0.31842c1.92215,-1.21854 2.1286,-2.20307 3.5963,-2.20307c2.74833,0 5.19868,0 5.19868,0v31.54977l-1.73529,0.08516c0,0 -3.10162,2.00083 -5.9279,2.19908c-1.24013,0.08698 -4.52449,-1.55775 -4.99329,-1.53613c-1.6091,0.07423 -5.38245,-0.15705 -6.38608,-0.3869c-3.02316,-0.69234 -2.81673,-2.9801 -4.04276,-4.18443c-1.52313,-1.49618 -4.08866,-2.04003 -4.08866,-2.04003z" fill="#ade1ff" stroke="#000000" stroke-width="0" stroke-linecap="butt"/><path d="M69.51934,322.15812c0,0 -0.393,0.00149 -0.92996,-0.1041c-0.27361,-0.0538 -0.5846,-0.38933 -0.90001,-0.24427c-0.95268,0.43815 -1.96608,2.08448 -4.25167,2.09871c-4.87016,0.03033 -5.46885,-1.55029 -6.53985,-1.46614c-3.18418,0.25022 -3.02619,0.79115 -6.16793,-0.1299c-3.29303,-0.96541 -2.75505,-2.94121 -4.41974,-4.88105c-0.77324,-0.90104 -2.17636,-0.71544 -3.34988,-1.58644c-2.07763,-1.54203 -2.63868,-4.55415 -2.30951,-5.63149c0.32916,-1.07734 1.98575,-0.51269 2.42556,-1.6132c1.5575,-3.89723 4.63881,-5.54117 8.82204,-5.20245c0.56515,0.04576 1.74329,-1.99117 1.96252,-2.67474c0.49801,-1.55282 -0.28103,-3.76523 1.25467,-5.54995c0.79279,-0.92136 1.58051,-2.075 3.08209,-2.69789c0.40954,-0.16989 2.30668,0.47274 2.66384,0.27925c1.68554,-0.91314 1.64477,-1.66909 3.39579,-2.23627c0.74316,-0.24072 1.32083,-0.80516 2.37132,-0.80104c1.42465,0.00558 2.96065,0.6383 2.96065,0.6383" fill="none" stroke="#80c7f2" stroke-width="1" stroke-linecap="round"/></g><g stroke="none" stroke-width="0" stroke-linecap="butt"><path d="" fill="#6ff1ff"/><path d="M58.58573,296.05949c1.16823,-0.56582 5.34425,-1.08833 5.56757,-0.67108c0.26411,0.49349 -3.48816,1.71612 -4.33482,2.11513c-0.97915,0.46144 -2.98967,2.00317 -2.9259,1.40152c0.06436,-0.60722 0.52493,-2.27975 1.69316,-2.84558z" fill="#92d3f6"/></g><path d="M47.93909,315.5706c0,0 2.6051,3.23789 5.31433,3.7388c1.07592,0.19893 0.55754,-1.63261 2.39018,-2.08015c0.63366,-0.15474 1.57791,0.83719 2.12901,1.11227c0.63386,0.31641 2.14819,1.09213 3.51568,0.76351c2.35235,-0.56529 2.52662,0.6567 4.74174,-0.14479c0.9954,-0.36016 1.56565,-1.35193 2.2276,-1.99921c0.81113,-0.79315 1.91188,-1.06949 1.91188,-1.06949v2.89258c0,0 -0.44045,0.20756 -0.93929,0.51088c-1.27681,0.77635 -3.78237,2.18001 -6.52745,2.33632c-1.05527,0.06009 -1.78544,-0.26734 -2.94676,-0.65271c-1.11196,-0.36899 -2.65726,-0.79109 -3.58236,-0.977c-1.38608,-0.27854 -2.24769,0.4494 -3.07336,0.28911c-2.60606,-0.50591 -5.16118,-4.72016 -5.16118,-4.72016z" fill="#92d3f6" stroke="none" stroke-width="0" stroke-linecap="butt"/></g><g><g><path d="M69.08715,322.07027v-31.66718c0,0 2.49419,-0.74954 4.18967,0.9616c1.49142,1.50521 1.06535,3.8754 2.54208,5.907c1.04366,1.43581 0.55345,-1.87103 4.1717,-1.07598c3.19342,0.70171 2.5518,4.65496 4.73589,4.40561c1.53466,-0.1752 1.92347,-2.28162 3.19094,-4.59153c0.89837,-1.63725 2.73832,-2.35521 4.3073,-3.22887c1.24999,-0.69603 1.47782,-1.55672 2.46725,-1.98519c0.92632,-0.40115 3.06728,-0.39265 3.06728,-0.39265v31.66718c0,0 -4.34033,2.32282 -6.74725,2.3406c-2.27316,0.01679 -7.31591,-2.23671 -7.31591,-2.23671c0,0 -5.14849,1.62896 -7.54637,1.6119c-2.46966,-0.01756 -7.06258,-1.71579 -7.06258,-1.71579z" fill="#ade1ff" stroke="none" stroke-width="0" stroke-linecap="butt"/><path d="M97.48489,290.52775c0,0 -1.45054,-0.20713 -3.28084,0.64405c-0.86512,0.40232 -1.37868,1.04906 -2.15245,1.78218c-0.65019,0.61603 -2.66225,1.29304 -3.32983,1.93726c-1.8894,1.82327 -2.05359,5.21616 -3.88593,5.89761c-2.57164,0.95639 -2.08498,-4.79141 -4.91736,-4.52661c-2.83238,0.26481 -2.37974,2.2986 -3.42487,1.49627c-1.55429,-1.19318 -1.72243,-5.42893 -3.23412,-6.51488c-1.42493,-1.02363 -3.76077,-0.84055 -3.76077,-0.84055" fill="none" stroke="#80c7f2" stroke-width="1" stroke-linecap="round"/><g fill="#92d3f6" stroke="none" stroke-width="0" stroke-linecap="butt"><path d="M75.94651,300.85066c0.5469,-0.25771 3.42778,-0.83137 3.59838,-0.51263c0.20177,0.37698 -2.40282,1.70393 -3.04964,2.00871c-0.74803,0.3525 -2.80803,0.48225 -2.75932,0.02266c0.04917,-0.46385 2.21057,-1.51874 2.21057,-1.51874z"/><path d="M75.24288,303.90557c0.71586,-0.33734 4.48683,-1.08824 4.71015,-0.67102c0.26411,0.49345 -3.14519,2.23037 -3.99186,2.62934c-0.97915,0.46139 -3.67561,0.63124 -3.61184,0.02965c0.06437,-0.60716 2.89355,-1.98798 2.89355,-1.98798z"/></g></g><path d="M68.84148,315.95002c0,0 4.2698,1.39701 6.60043,0.81577c3.49673,-0.87204 8.47468,-2.85277 8.47468,-2.85277c0,0 -0.34738,0.66687 -1.58075,1.38883c-0.7955,0.46565 -2.8752,1.05822 -2.4066,1.16179c0.93662,0.20701 3.5901,1.98664 6.73743,1.99548c4.06116,0.01139 4.42902,-2.70284 4.99046,-3.23194c1.11211,-1.04803 1.03895,-2.96326 1.87793,-2.85689c1.1404,0.14459 0.86793,2.22422 1.5318,3.14025c0.91306,1.25988 2.92534,1.43027 2.92534,1.43027v2.93875c0,0 -2.70846,0.22137 -3.87787,0.15375c-1.17397,-0.06789 -4.50872,-1.27268 -4.50872,-1.27268c0,0 -4.6259,2.18757 -6.66893,2.18757c-2.85768,0 -9.00433,-1.08539 -9.00433,-1.08539c0,0 -1.74186,0.00619 -2.55816,0.00909c-0.74944,0.00266 -2.53271,-0.98313 -2.53271,-0.98313z" fill="#92d3f6" stroke="none" stroke-width="0" stroke-linecap="butt"/><path d="M97.64347,321.99902c0,0 -2.0669,1.91342 -5.71762,2.23858c-4.54608,0.40491 -8.17451,-1.91873 -8.17451,-1.91873c0,0 -5.06033,1.34248 -7.37188,1.34248c-5.28425,0 -7.31665,-1.66232 -7.31665,-1.66232" fill="none" stroke="#80c7f2" stroke-width="1" stroke-linecap="round"/></g><g><g data-paper-data="{&quot;index&quot;:null}"><path d="M110.96609,320.98505c0,0 -1.75207,2.42019 -6.49766,2.66734c-4.74559,0.24714 -7.32691,-2.1284 -7.32691,-2.1284l0.25099,-31.24242c0,0 4.79223,-0.13913 6.50946,1.15944c1.90121,1.43769 3.85337,7.09187 3.85337,7.09187c0,0 1.7714,-2.32896 3.13243,-2.34272c5.11108,-0.05166 4.94447,9.36249 4.94447,9.36249c0,0 2.36155,-2.14578 4.16054,-0.41383c2.15277,2.07255 0.76655,6.76053 0.76655,6.76053c0,0 1.14116,1.28378 1.42662,2.83354c0.27105,1.47156 0.33364,2.45303 -0.53222,3.59308c-2.79397,3.67871 -10.68764,2.65908 -10.68764,2.65908z" fill="#ade1ff" stroke="#000000" stroke-width="0" stroke-linecap="butt"/><path d="M97.55037,290.40569c0,0 4.57363,-0.50303 6.50904,1.35024c2.9556,2.83015 2.89073,6.76126 3.32413,6.89909c0.50546,0.16074 1.3076,-1.78915 3.39325,-2.33828c3.85657,-1.0154 4.79723,4.48727 4.97921,8.47111c0.07353,1.60975 1.16993,-1.2533 3.31458,-0.35706c1.42002,0.59342 2.30426,2.48407 2.02337,4.36287c-0.21443,1.43422 -0.51589,2.78868 -0.43895,2.90935c1.72659,2.7081 2.00265,3.922 1.09337,6.1185c-1.73811,4.19867 -10.9224,3.21791 -10.9224,3.21791c0,0 -2.14087,2.34442 -6.75949,2.60524c-4.41572,0.24935 -6.32069,-1.74615 -6.32069,-1.74615" fill="none" stroke="#80c7f2" stroke-width="1" stroke-linecap="round"/></g><path d="M102.50281,299.08277c-0.19299,0.37796 -2.16481,-1.60945 -2.78032,-1.97088c-0.71184,-0.41799 -2.5742,-1.45361 -2.17173,-1.67168c0.4062,-0.22011 1.93676,0.07401 2.88463,0.77122c0.94787,0.69722 2.2306,2.55178 2.06743,2.87135z" fill="#92d3f6" stroke="none" stroke-width="0" stroke-linecap="butt"/><path d="M97.09566,319.88115v-3.16927c0,0 3.94228,2.1917 6.48483,1.55234c3.27791,-0.82429 5.70952,-2.30028 5.99755,-1.41399c0.20521,0.63146 -2.41486,3.61967 -5.92502,3.85165c-3.2405,0.21416 -6.55737,-0.82074 -6.55737,-0.82074z" data-paper-data="{&quot;index&quot;:null}" fill="#92d3f6" stroke="none" stroke-width="0" stroke-linecap="butt"/><path d="M110.8853,314.8825c0.23412,0.36418 -0.09275,0.99155 -0.73008,1.40127c-0.63732,0.40972 -1.34378,0.44661 -1.5779,0.08243c-0.23412,-0.36418 0.28872,-0.40361 0.92605,-0.81333c0.63733,-0.40971 1.1478,-1.03456 1.38192,-0.67037z" fill="#92d3f6" stroke="none" stroke-width="0" stroke-linecap="butt"/></g></g><g><g><g data-paper-data="{&quot;index&quot;:null}"><path d="M143.1497,232.42087c0,0 -1.75207,2.42019 -6.49766,2.66734c-4.74559,0.24714 -7.32691,-2.1284 -7.32691,-2.1284l0.25099,-31.24242c0,0 4.79223,-0.13913 6.50946,1.15944c1.90121,1.43769 3.85337,7.09187 3.85337,7.09187c0,0 1.7714,-2.32896 3.13243,-2.34272c5.11108,-0.05166 4.94447,9.36249 4.94447,9.36249c0,0 2.36155,-2.14578 4.16054,-0.41383c2.15277,2.07255 0.76655,6.76053 0.76655,6.76053c0,0 1.14116,1.28378 1.42662,2.83354c0.27105,1.47156 0.33364,2.45303 -0.53222,3.59308c-2.79397,3.67871 -10.68764,2.65908 -10.68764,2.65908z" fill="#ade1ff" stroke="#000000" stroke-width="0" stroke-linecap="butt"/><path d="M129.73396,201.84151c0,0 4.57363,-0.50303 6.50904,1.35024c2.9556,2.83015 2.89073,6.76126 3.32413,6.89909c0.50546,0.16074 1.3076,-1.78915 3.39325,-2.33828c3.85657,-1.0154 4.79723,4.48727 4.97921,8.47111c0.07353,1.60975 1.16993,-1.2533 3.31458,-0.35706c1.42002,0.59342 2.30426,2.48407 2.02337,4.36287c-0.21443,1.43422 -0.51589,2.78868 -0.43895,2.90935c1.72659,2.7081 2.00265,3.922 1.09337,6.1185c-1.73811,4.19867 -10.9224,3.21791 -10.9224,3.21791c0,0 -2.14087,2.34442 -6.75949,2.60524c-4.41572,0.24935 -6.32069,-1.74615 -6.32069,-1.74615" fill="none" stroke="#80c7f2" stroke-width="1" stroke-linecap="round"/></g><path d="M134.68641,210.51859c-0.19299,0.37796 -2.16481,-1.60945 -2.78032,-1.97088c-0.71184,-0.41799 -2.5742,-1.45361 -2.17173,-1.67168c0.4062,-0.22011 1.93676,0.07401 2.88463,0.77122c0.94787,0.69722 2.2306,2.55178 2.06743,2.87135z" fill="#92d3f6" stroke="none" stroke-width="0" stroke-linecap="butt"/><path d="M129.27924,230.24996v-2.86441c0,0 3.94228,2.95385 6.48483,2.31449c3.27791,-0.82429 5.70952,-2.30028 5.99755,-1.41399c0.20521,0.63146 -2.41486,3.61967 -5.92502,3.85165c-3.2405,0.21416 -6.55737,-1.88775 -6.55737,-1.88775z" data-paper-data="{&quot;index&quot;:null}" fill="#92d3f6" stroke="none" stroke-width="0" stroke-linecap="butt"/><path d="M143.06888,226.31833c0.23412,0.36418 -0.09275,0.99155 -0.73008,1.40127c-0.63732,0.40972 -1.34378,0.44661 -1.5779,0.08243c-0.23412,-0.36418 0.28872,-0.40361 0.92605,-0.81333c0.63733,-0.40971 1.1478,-1.03456 1.38192,-0.67037z" fill="#92d3f6" stroke="none" stroke-width="0" stroke-linecap="butt"/></g><g><g><path d="M102.84844,227.35248c0,0 -1.41913,-1.34686 -1.88979,-2.65c-0.54322,-1.50404 -0.14842,-3.01494 -0.14842,-3.3893c0,-0.6864 2.04825,-0.58108 2.28871,-1.2431c0.34842,-0.95925 0.82004,-2.66762 2.00026,-3.53053c1.89137,-1.38285 6.94017,-1.58811 6.94017,-1.58811l2.28707,-2.81194c0,0 -0.96653,-2.96016 1.09837,-5.61556c0.49326,-0.63431 1.75236,-1.92372 2.69649,-2.33652c1.00155,-0.43791 2.28572,0.20169 3.10616,-0.31842c1.92215,-1.21854 2.1286,-2.20307 3.5963,-2.20307c2.74833,0 5.19868,0 5.19868,0v31.54977l-1.73529,0.08516c0,0 -3.10162,2.00083 -5.9279,2.19908c-1.24013,0.08698 -4.52449,-1.55775 -4.99329,-1.53613c-1.6091,0.07423 -5.38245,-0.15705 -6.38608,-0.3869c-3.02316,-0.69234 -2.81673,-2.9801 -4.04276,-4.18443c-1.52313,-1.49618 -4.08866,-2.04003 -4.08866,-2.04003z" fill="#ade1ff" stroke="#000000" stroke-width="0" stroke-linecap="butt"/><path d="M129.66914,233.59394c0,0 -0.393,0.00149 -0.92996,-0.1041c-0.27361,-0.0538 -0.5846,-0.38933 -0.90001,-0.24427c-0.95268,0.43815 -1.96608,2.08448 -4.25167,2.09871c-4.87016,0.03033 -5.46885,-1.55029 -6.53985,-1.46614c-3.18418,0.25022 -3.02619,0.79115 -6.16793,-0.1299c-3.29303,-0.96541 -2.75505,-2.94121 -4.41974,-4.88105c-0.77324,-0.90104 -2.17636,-0.71544 -3.34988,-1.58644c-2.07763,-1.54203 -2.63868,-4.55415 -2.30951,-5.63149c0.32916,-1.07734 1.98575,-0.51269 2.42556,-1.6132c1.5575,-3.89723 4.63881,-5.54117 8.82204,-5.20245c0.56515,0.04576 1.74329,-1.99117 1.96252,-2.67474c0.49801,-1.55282 -0.28103,-3.76523 1.25467,-5.54995c0.79279,-0.92136 1.58051,-2.075 3.08209,-2.69789c0.40954,-0.16989 2.30668,0.47274 2.66384,0.27925c1.68554,-0.91314 1.64477,-1.66909 3.39579,-2.23627c0.74316,-0.24072 1.32083,-0.80516 2.37132,-0.80104c1.42465,0.00558 2.96065,0.6383 2.96065,0.6383" fill="none" stroke="#80c7f2" stroke-width="1" stroke-linecap="round"/></g><g stroke="none" stroke-width="0" stroke-linecap="butt"><path d="" fill="#6ff1ff"/><path d="M118.73555,207.49531c1.16823,-0.56582 5.34425,-1.08833 5.56757,-0.67108c0.26411,0.49349 -3.48816,1.71612 -4.33482,2.11513c-0.97915,0.46144 -2.98967,2.00317 -2.9259,1.40152c0.06436,-0.60722 0.52493,-2.27975 1.69316,-2.84558z" fill="#92d3f6"/></g><path d="M108.0889,227.00642c0,0 2.6051,3.23789 5.31433,3.7388c1.07592,0.19893 0.55754,-1.63261 2.39018,-2.08015c0.63366,-0.15474 1.57791,0.83719 2.12901,1.11227c0.63386,0.31641 2.14819,1.09213 3.51568,0.76351c2.35235,-0.56529 2.52662,0.6567 4.74174,-0.14479c0.9954,-0.36016 1.56565,-1.35193 2.2276,-1.99921c0.81113,-0.79315 1.68324,-0.99328 1.68324,-0.99328l0.22865,2.81637c0,0 -0.44045,0.20756 -0.93929,0.51088c-1.27681,0.77635 -3.78237,2.18001 -6.52745,2.33632c-1.05527,0.06009 -1.78544,-0.26734 -2.94676,-0.65271c-1.11196,-0.36899 -2.65726,-0.79109 -3.58236,-0.977c-1.38608,-0.27854 -2.24769,0.4494 -3.07336,0.28911c-2.60606,-0.50591 -5.16118,-4.72016 -5.16118,-4.72016z" fill="#92d3f6" stroke="none" stroke-width="0" stroke-linecap="butt"/></g></g><g><g><g data-paper-data="{&quot;index&quot;:null}"><path d="M281.14969,277.42087c0,0 -1.75207,2.42019 -6.49766,2.66733c-4.74559,0.24715 -7.32691,-2.12841 -7.32691,-2.12841l0.25099,-31.24242c0,0 4.79223,-0.13913 6.50946,1.15944c1.90121,1.43769 3.85336,7.09188 3.85336,7.09188c0,0 1.7714,-2.32897 3.13244,-2.34273c5.11109,-0.05166 4.94447,9.36249 4.94447,9.36249c0,0 2.36155,-2.14578 4.16054,-0.41383c2.15277,2.07255 0.76655,6.76053 0.76655,6.76053c0,0 1.14117,1.28378 1.42662,2.83354c0.27105,1.47156 0.33364,2.45303 -0.53222,3.59308c-2.79397,3.6787 -10.68763,2.65909 -10.68763,2.65909z" fill="#ade1ff" stroke="#000000" stroke-width="0" stroke-linecap="butt"/><path d="M267.73396,246.84151c0,0 4.57362,-0.50303 6.50904,1.35025c2.9556,2.83015 2.89074,6.76126 3.32414,6.89909c0.50546,0.16074 1.3076,-1.78914 3.39325,-2.33828c3.85657,-1.0154 4.79723,4.48727 4.97921,8.47111c0.07353,1.60975 1.16993,-1.2533 3.31459,-0.35707c1.42003,0.59341 2.30426,2.48407 2.02336,4.36286c-0.21443,1.43422 -0.51588,2.78869 -0.43895,2.90935c1.72659,2.7081 2.00265,3.922 1.09338,6.1185c-1.73811,4.19867 -10.9224,3.21791 -10.9224,3.21791c0,0 -2.14086,2.34442 -6.75949,2.60523c-4.41572,0.24935 -6.32069,-1.74615 -6.32069,-1.74615" fill="none" stroke="#80c7f2" stroke-width="1" stroke-linecap="round"/></g><path d="M272.68639,255.51859c-0.19299,0.37796 -2.16481,-1.60945 -2.78031,-1.97088c-0.71184,-0.41799 -2.5742,-1.45361 -2.17174,-1.67168c0.4062,-0.22011 1.93676,0.074 2.88463,0.77123c0.94786,0.69722 2.2306,2.55178 2.06743,2.87135z" fill="#92d3f6" stroke="none" stroke-width="0" stroke-linecap="butt"/><path d="M267.27924,275.24996v-2.86441c0,0 3.94229,2.95386 6.48483,2.31449c3.27791,-0.82429 5.70952,-2.30028 5.99755,-1.41399c0.20521,0.63146 -2.41485,3.61967 -5.92502,3.85165c-3.2405,0.21417 -6.55737,-1.88775 -6.55737,-1.88775z" data-paper-data="{&quot;index&quot;:null}" fill="#92d3f6" stroke="none" stroke-width="0" stroke-linecap="butt"/><path d="M281.06889,271.31832c0.23412,0.36419 -0.09274,0.99156 -0.73007,1.40127c-0.63733,0.40972 -1.34377,0.44662 -1.5779,0.08243c-0.23413,-0.36419 0.28872,-0.40361 0.92606,-0.81333c0.63733,-0.40971 1.14779,-1.03456 1.38192,-0.67038z" fill="#92d3f6" stroke="none" stroke-width="0" stroke-linecap="butt"/></g><g><g><path d="M240.84845,272.35249c0,0 -1.41913,-1.34686 -1.88979,-2.65c-0.54322,-1.50405 -0.14842,-3.01494 -0.14842,-3.3893c0,-0.68639 2.04825,-0.58107 2.28871,-1.2431c0.34842,-0.95925 0.82004,-2.66763 2.00027,-3.53053c1.89137,-1.38286 6.94017,-1.58811 6.94017,-1.58811l2.28706,-2.81194c0,0 -0.96653,-2.96016 1.09838,-5.61555c0.49327,-0.63431 1.75236,-1.92372 2.69649,-2.33652c1.00155,-0.43791 2.28572,0.20169 3.10616,-0.31842c1.92215,-1.21854 2.12859,-2.20307 3.5963,-2.20307c2.74833,0 5.19868,0 5.19868,0v31.54977l-1.7353,0.08516c0,0 -3.10161,2.00083 -5.9279,2.19908c-1.24013,0.08698 -4.52448,-1.55776 -4.99329,-1.53612c-1.6091,0.07423 -5.38244,-0.15705 -6.38608,-0.38689c-3.02317,-0.69234 -2.81673,-2.9801 -4.04276,-4.18443c-1.52313,-1.49617 -4.08866,-2.04003 -4.08866,-2.04003z" fill="#ade1ff" stroke="#000000" stroke-width="0" stroke-linecap="butt"/><path d="M267.66914,278.59394c0,0 -0.393,0.00149 -0.92996,-0.10411c-0.27361,-0.0538 -0.58459,-0.38932 -0.90001,-0.24426c-0.95267,0.43815 -1.96609,2.08447 -4.25167,2.09871c-4.87016,0.03033 -5.46885,-1.55029 -6.53985,-1.46614c-3.18418,0.25022 -3.02619,0.79115 -6.16792,-0.1299c-3.29302,-0.96541 -2.75504,-2.94121 -4.41974,-4.88105c-0.77324,-0.90104 -2.17637,-0.71545 -3.34989,-1.58644c-2.07763,-1.54203 -2.63868,-4.55415 -2.30951,-5.63149c0.32916,-1.07734 1.98575,-0.51269 2.42557,-1.61321c1.5575,-3.89722 4.63881,-5.54116 8.82205,-5.20245c0.56515,0.04576 1.74329,-1.99117 1.96252,-2.67475c0.49801,-1.55282 -0.28103,-3.76523 1.25466,-5.54994c0.79279,-0.92135 1.58051,-2.075 3.08209,-2.69788c0.40955,-0.16988 2.30668,0.47274 2.66384,0.27925c1.68554,-0.91314 1.64477,-1.66908 3.3958,-2.23626c0.74316,-0.24072 1.32083,-0.80515 2.37132,-0.80103c1.42466,0.00558 2.96065,0.6383 2.96065,0.6383" fill="none" stroke="#80c7f2" stroke-width="1" stroke-linecap="round"/></g><g stroke="none" stroke-width="0" stroke-linecap="butt"><path d="" fill="#6ff1ff"/><path d="M256.73554,252.49531c1.16823,-0.56582 5.34425,-1.08833 5.56757,-0.67108c0.26412,0.49349 -3.48816,1.71612 -4.33482,2.11513c-0.97914,0.46144 -2.98967,2.00317 -2.9259,1.40153c0.06436,-0.60722 0.52493,-2.27976 1.69316,-2.84558z" fill="#92d3f6"/></g><path d="M246.0889,272.00643c0,0 2.60509,3.23789 5.31433,3.7388c1.07593,0.19893 0.55754,-1.63261 2.39018,-2.08015c0.63366,-0.15474 1.57791,0.83719 2.129,1.11227c0.63386,0.31641 2.14819,1.09212 3.51568,0.76351c2.35235,-0.56529 2.52662,0.6567 4.74173,-0.14479c0.9954,-0.36016 1.56566,-1.35193 2.22761,-1.9992c0.81113,-0.79315 1.68323,-0.99328 1.68323,-0.99328l0.22865,2.81637c0,0 -0.44045,0.20757 -0.93929,0.51088c-1.2768,0.77635 -3.78236,2.18001 -6.52744,2.33632c-1.05527,0.06009 -1.78544,-0.26734 -2.94676,-0.65271c-1.11196,-0.36899 -2.65726,-0.79109 -3.58236,-0.977c-1.38609,-0.27855 -2.2477,0.4494 -3.07336,0.28911c-2.60606,-0.50591 -5.16119,-4.72016 -5.16119,-4.72016z" fill="#92d3f6" stroke="none" stroke-width="0" stroke-linecap="butt"/></g></g><g><g><g><path d="M369.69867,238.91666c0,0 -1.41913,-1.34686 -1.88979,-2.65c-0.54322,-1.50404 -0.14841,-3.01494 -0.14841,-3.3893c0,-0.6864 2.04825,-0.58107 2.28872,-1.2431c0.34842,-0.95926 0.82003,-2.66762 2.00026,-3.53053c1.89137,-1.38286 6.94017,-1.58811 6.94017,-1.58811l2.28706,-2.81194c0,0 -0.96653,-2.96016 1.09837,-5.61555c0.49327,-0.63431 1.75236,-1.92372 2.69649,-2.33652c1.00155,-0.43791 2.28572,0.20168 3.10616,-0.31842c1.92215,-1.21855 2.12859,-2.20306 3.5963,-2.20306c2.74833,0 5.19867,0 5.19867,0v31.54977l-1.73529,0.08516c0,0 -3.10161,2.00083 -5.9279,2.19908c-1.24013,0.08698 -4.52449,-1.55775 -4.99329,-1.53612c-1.6091,0.07423 -5.38244,-0.15705 -6.38608,-0.3869c-3.02316,-0.69234 -2.81673,-2.9801 -4.04276,-4.18443c-1.52313,-1.49617 -4.08867,-2.04003 -4.08867,-2.04003z" fill="#ade1ff" stroke="#000000" stroke-width="0" stroke-linecap="butt"/><path d="M396.51938,245.15812c0,0 -0.393,0.00149 -0.92997,-0.10411c-0.2736,-0.05381 -0.5846,-0.38933 -0.90001,-0.24427c-0.95267,0.43815 -1.96608,2.08447 -4.25167,2.09871c-4.87016,0.03033 -5.46886,-1.55029 -6.53986,-1.46614c-3.18418,0.25022 -3.02619,0.79115 -6.16792,-0.1299c-3.29302,-0.96541 -2.75505,-2.94121 -4.41974,-4.88105c-0.77324,-0.90105 -2.17636,-0.71544 -3.34988,-1.58643c-2.07763,-1.54203 -2.63867,-4.55414 -2.30951,-5.63149c0.32916,-1.07735 1.98575,-0.51269 2.42557,-1.61321c1.5575,-3.89722 4.6388,-5.54116 8.82204,-5.20245c0.56515,0.04576 1.74329,-1.99117 1.96252,-2.67475c0.49801,-1.55282 -0.28103,-3.76523 1.25467,-5.54995c0.79279,-0.92136 1.58051,-2.075 3.08209,-2.69789c0.40954,-0.16988 2.30669,0.47274 2.66384,0.27925c1.68555,-0.91315 1.64477,-1.66909 3.39579,-2.23627c0.74316,-0.24071 1.32083,-0.80515 2.37132,-0.80103c1.42466,0.00558 2.96065,0.63831 2.96065,0.63831" fill="none" stroke="#80c7f2" stroke-width="1" stroke-linecap="round"/></g><g stroke="none" stroke-width="0" stroke-linecap="butt"><path d="" fill="#6ff1ff"/><path d="M385.58576,219.05948c1.16823,-0.56582 5.34425,-1.08833 5.56757,-0.67108c0.26412,0.49349 -3.48816,1.71612 -4.33482,2.11513c-0.97915,0.46143 -2.98967,2.00316 -2.9259,1.40152c0.06436,-0.60722 0.52493,-2.27975 1.69316,-2.84557z" fill="#92d3f6"/></g><path d="M374.93912,238.5706c0,0 2.6051,3.23789 5.31434,3.7388c1.07592,0.19893 0.55754,-1.63261 2.39017,-2.08015c0.63366,-0.15474 1.57791,0.83719 2.12901,1.11227c0.63386,0.31641 2.14819,1.09213 3.51568,0.76352c2.35235,-0.56528 2.52663,0.6567 4.74174,-0.14479c0.99539,-0.36016 1.56565,-1.35193 2.2276,-1.99921c0.81113,-0.79315 1.91188,-1.06949 1.91188,-1.06949v2.89258c0,0 -0.44045,0.20756 -0.93929,0.51089c-1.27681,0.77635 -3.78237,2.18001 -6.52745,2.33631c-1.05527,0.06009 -1.78544,-0.26734 -2.94676,-0.6527c-1.11196,-0.36899 -2.65726,-0.79109 -3.58236,-0.977c-1.38608,-0.27855 -2.24769,0.4494 -3.07336,0.28911c-2.60606,-0.50591 -5.16118,-4.72016 -5.16118,-4.72016z" fill="#92d3f6" stroke="none" stroke-width="0" stroke-linecap="butt"/></g><g><g><path d="M396.08718,245.07027v-31.66718c0,0 2.49419,-0.74954 4.18967,0.9616c1.49142,1.50521 1.06535,3.8754 2.54208,5.907c1.04366,1.43581 0.55345,-1.87104 4.1717,-1.07598c3.19342,0.70171 2.5518,4.65496 4.73589,4.4056c1.53466,-0.1752 1.92347,-2.28162 3.19094,-4.59153c0.89837,-1.63725 2.73833,-2.35521 4.30731,-3.22887c1.24999,-0.69603 1.47782,-1.55671 2.46725,-1.98519c0.92632,-0.40115 3.06727,-0.39265 3.06727,-0.39265v31.66718c0,0 -4.34033,2.32283 -6.74725,2.34061c-2.27315,0.01679 -7.31592,-2.23671 -7.31592,-2.23671c0,0 -5.14849,1.62896 -7.54637,1.6119c-2.46965,-0.01756 -7.06258,-1.7158 -7.06258,-1.7158z" fill="#ade1ff" stroke="none" stroke-width="0" stroke-linecap="butt"/><path d="M424.48491,213.52775c0,0 -1.45054,-0.20712 -3.28084,0.64405c-0.86512,0.40232 -1.37868,1.04906 -2.15245,1.78218c-0.65019,0.61602 -2.66225,1.29304 -3.32984,1.93726c-1.8894,1.82327 -2.05359,5.21616 -3.88594,5.8976c-2.57164,0.95638 -2.08497,-4.79141 -4.91735,-4.52661c-2.83238,0.2648 -2.37974,2.2986 -3.42487,1.49628c-1.55429,-1.19318 -1.72243,-5.42893 -3.23411,-6.51488c-1.42493,-1.02363 -3.76078,-0.84055 -3.76078,-0.84055" fill="none" stroke="#80c7f2" stroke-width="1" stroke-linecap="round"/><g fill="#92d3f6" stroke="none" stroke-width="0" stroke-linecap="butt"><path d="M402.94655,223.85066c0.5469,-0.25772 3.42779,-0.83137 3.59839,-0.51263c0.20177,0.37698 -2.40282,1.70392 -3.04963,2.00871c-0.74804,0.3525 -2.80804,0.48225 -2.75932,0.02266c0.04917,-0.46385 2.21057,-1.51874 2.21057,-1.51874z"/><path d="M402.24291,226.90557c0.71587,-0.33733 4.48683,-1.08824 4.71015,-0.67102c0.2641,0.49345 -3.14519,2.23037 -3.99185,2.62933c-0.97915,0.4614 -3.67561,0.63124 -3.61185,0.02965c0.06437,-0.60717 2.89355,-1.98798 2.89355,-1.98798z"/></g></g><path d="M395.8415,238.95002c0,0 4.2698,1.39701 6.60043,0.81578c3.49673,-0.87204 8.47468,-2.85278 8.47468,-2.85278c0,0 -0.34737,0.66687 -1.58075,1.38883c-0.7955,0.46564 -2.8752,1.05822 -2.4066,1.16179c0.93663,0.20701 3.5901,1.98664 6.73743,1.99547c4.06117,0.01139 4.42902,-2.70284 4.99045,-3.23194c1.11211,-1.04803 1.03895,-2.96327 1.87793,-2.85689c1.1404,0.14459 0.86793,2.22423 1.5318,3.14025c0.91305,1.25988 2.92534,1.43027 2.92534,1.43027v2.93874c0,0 -2.70847,0.22137 -3.87787,0.15375c-1.17397,-0.06788 -4.50872,-1.27268 -4.50872,-1.27268c0,0 -4.6259,2.18757 -6.66892,2.18757c-2.85769,0 -9.00434,-1.08539 -9.00434,-1.08539c0,0 -1.74186,0.00619 -2.55815,0.00909c-0.74944,0.00266 -2.53271,-0.98314 -2.53271,-0.98314z" fill="#92d3f6" stroke="none" stroke-width="0" stroke-linecap="butt"/><path d="M424.64348,244.99901c0,0 -2.0669,1.91342 -5.71762,2.23858c-4.54608,0.40491 -8.1745,-1.91873 -8.1745,-1.91873c0,0 -5.06033,1.34248 -7.37188,1.34248c-5.28425,0 -7.31665,-1.66233 -7.31665,-1.66233" fill="none" stroke="#80c7f2" stroke-width="1" stroke-linecap="round"/></g><g><g data-paper-data="{&quot;index&quot;:null}"><path d="M437.96609,243.98504c0,0 -1.75207,2.4202 -6.49766,2.66734c-4.74559,0.24714 -7.32691,-2.12841 -7.32691,-2.12841l0.25099,-31.24241c0,0 4.79224,-0.13913 6.50946,1.15944c1.90121,1.43769 3.85337,7.09188 3.85337,7.09188c0,0 1.7714,-2.32896 3.13244,-2.34273c5.11109,-0.05166 4.94447,9.36249 4.94447,9.36249c0,0 2.36155,-2.14577 4.16054,-0.41383c2.15278,2.07254 0.76655,6.76054 0.76655,6.76054c0,0 1.14117,1.28377 1.42662,2.83353c0.27105,1.47156 0.33364,2.45304 -0.53223,3.59309c-2.79396,3.67871 -10.68763,2.65908 -10.68763,2.65908z" fill="#ade1ff" stroke="#000000" stroke-width="0" stroke-linecap="butt"/><path d="M424.55039,213.40569c0,0 4.57362,-0.50303 6.50904,1.35025c2.9556,2.83015 2.89074,6.76126 3.32414,6.89909c0.50546,0.16074 1.3076,-1.78914 3.39325,-2.33828c3.85657,-1.01541 4.79723,4.48727 4.97921,8.47111c0.07353,1.60976 1.16993,-1.2533 3.31459,-0.35707c1.42003,0.59342 2.30426,2.48407 2.02337,4.36286c-0.21443,1.43422 -0.51589,2.78869 -0.43895,2.90935c1.72659,2.7081 2.00265,3.92199 1.09338,6.1185c-1.73811,4.19868 -10.9224,3.21791 -10.9224,3.21791c0,0 -2.14086,2.34442 -6.75949,2.60524c-4.41572,0.24935 -6.32069,-1.74615 -6.32069,-1.74615" fill="none" stroke="#80c7f2" stroke-width="1" stroke-linecap="round"/></g><path d="M429.50281,222.08277c-0.19299,0.37796 -2.16481,-1.60945 -2.78031,-1.97088c-0.71183,-0.41799 -2.5742,-1.45361 -2.17174,-1.67168c0.4062,-0.22011 1.93676,0.074 2.88463,0.77123c0.94786,0.69722 2.2306,2.55178 2.06743,2.87135z" fill="#92d3f6" stroke="none" stroke-width="0" stroke-linecap="butt"/><path d="M424.09566,242.88115v-3.16926c0,0 3.94229,2.1917 6.48483,1.55234c3.27791,-0.82429 5.70952,-2.30028 5.99755,-1.41398c0.20521,0.63146 -2.41485,3.61966 -5.92502,3.85165c-3.2405,0.21417 -6.55737,-0.82074 -6.55737,-0.82074z" data-paper-data="{&quot;index&quot;:null}" fill="#92d3f6" stroke="none" stroke-width="0" stroke-linecap="butt"/><path d="M437.88531,237.88251c0.23411,0.36418 -0.09275,0.99155 -0.73008,1.40127c-0.63733,0.40972 -1.34377,0.44662 -1.5779,0.08243c-0.23412,-0.36418 0.28872,-0.40362 0.92606,-0.81333c0.63733,-0.40971 1.14779,-1.03455 1.38192,-0.67037z" fill="#92d3f6" stroke="none" stroke-width="0" stroke-linecap="butt"/></g></g><g><g><g data-paper-data="{&quot;index&quot;:null}"><path d="M368.14971,343.42087c0,0 -1.75207,2.42019 -6.49766,2.66733c-4.74559,0.24715 -7.32691,-2.12841 -7.32691,-2.12841l0.25099,-31.24242c0,0 4.79223,-0.13913 6.50946,1.15944c1.90121,1.43769 3.85336,7.09188 3.85336,7.09188c0,0 1.7714,-2.32897 3.13244,-2.34273c5.11109,-0.05166 4.94447,9.36249 4.94447,9.36249c0,0 2.36155,-2.14578 4.16054,-0.41383c2.15277,2.07255 0.76655,6.76053 0.76655,6.76053c0,0 1.14117,1.28378 1.42662,2.83354c0.27105,1.47156 0.33364,2.45303 -0.53222,3.59308c-2.79397,3.6787 -10.68763,2.65909 -10.68763,2.65909z" fill="#ade1ff" stroke="#000000" stroke-width="0" stroke-linecap="butt"/><path d="M354.73397,312.84151c0,0 4.57362,-0.50303 6.50904,1.35025c2.9556,2.83015 2.89074,6.76126 3.32414,6.89909c0.50546,0.16074 1.3076,-1.78914 3.39325,-2.33828c3.85657,-1.0154 4.79723,4.48727 4.97921,8.47111c0.07353,1.60975 1.16993,-1.2533 3.31459,-0.35707c1.42003,0.59341 2.30426,2.48407 2.02336,4.36286c-0.21443,1.43422 -0.51588,2.78869 -0.43895,2.90935c1.72659,2.7081 2.00265,3.922 1.09338,6.1185c-1.73811,4.19867 -10.9224,3.21791 -10.9224,3.21791c0,0 -2.14086,2.34442 -6.75949,2.60523c-4.41572,0.24935 -6.32069,-1.74615 -6.32069,-1.74615" fill="none" stroke="#80c7f2" stroke-width="1" stroke-linecap="round"/></g><path d="M359.68641,321.51859c-0.19299,0.37796 -2.16481,-1.60945 -2.78031,-1.97088c-0.71184,-0.41799 -2.5742,-1.45361 -2.17174,-1.67168c0.4062,-0.22011 1.93676,0.074 2.88463,0.77123c0.94786,0.69722 2.2306,2.55178 2.06743,2.87135z" fill="#92d3f6" stroke="none" stroke-width="0" stroke-linecap="butt"/><path d="M354.27926,341.24996v-2.86441c0,0 3.94229,2.95386 6.48483,2.31449c3.27791,-0.82429 5.70952,-2.30028 5.99755,-1.41399c0.20521,0.63146 -2.41485,3.61967 -5.92502,3.85165c-3.2405,0.21417 -6.55737,-1.88775 -6.55737,-1.88775z" data-paper-data="{&quot;index&quot;:null}" fill="#92d3f6" stroke="none" stroke-width="0" stroke-linecap="butt"/><path d="M368.06889,337.31832c0.23412,0.36419 -0.09274,0.99156 -0.73007,1.40127c-0.63733,0.40972 -1.34377,0.44662 -1.5779,0.08243c-0.23413,-0.36419 0.28872,-0.40361 0.92606,-0.81333c0.63733,-0.40971 1.14779,-1.03456 1.38192,-0.67038z" fill="#92d3f6" stroke="none" stroke-width="0" stroke-linecap="butt"/></g><g><g><path d="M327.84845,338.35249c0,0 -1.41913,-1.34686 -1.88979,-2.65c-0.54322,-1.50405 -0.14842,-3.01494 -0.14842,-3.3893c0,-0.68639 2.04825,-0.58107 2.28871,-1.2431c0.34842,-0.95925 0.82004,-2.66763 2.00027,-3.53053c1.89137,-1.38286 6.94017,-1.58811 6.94017,-1.58811l2.28706,-2.81194c0,0 -0.96653,-2.96016 1.09838,-5.61555c0.49327,-0.63431 1.75236,-1.92372 2.69649,-2.33652c1.00155,-0.43791 2.28572,0.20169 3.10616,-0.31842c1.92215,-1.21854 2.12859,-2.20307 3.5963,-2.20307c2.74833,0 5.19868,0 5.19868,0v31.54977l-1.7353,0.08516c0,0 -3.10161,2.00083 -5.9279,2.19908c-1.24013,0.08698 -4.52448,-1.55776 -4.99329,-1.53612c-1.6091,0.07423 -5.38244,-0.15705 -6.38608,-0.38689c-3.02317,-0.69234 -2.81673,-2.9801 -4.04276,-4.18443c-1.52313,-1.49617 -4.08866,-2.04003 -4.08866,-2.04003z" fill="#ade1ff" stroke="#000000" stroke-width="0" stroke-linecap="butt"/><path d="M354.66916,344.59394c0,0 -0.393,0.00149 -0.92996,-0.10411c-0.27361,-0.0538 -0.58459,-0.38932 -0.90001,-0.24426c-0.95267,0.43815 -1.96609,2.08447 -4.25167,2.09871c-4.87016,0.03033 -5.46885,-1.55029 -6.53985,-1.46614c-3.18418,0.25022 -3.02619,0.79115 -6.16792,-0.1299c-3.29302,-0.96541 -2.75504,-2.94121 -4.41974,-4.88105c-0.77324,-0.90104 -2.17637,-0.71545 -3.34989,-1.58644c-2.07763,-1.54203 -2.63868,-4.55415 -2.30951,-5.63149c0.32916,-1.07734 1.98575,-0.51269 2.42557,-1.61321c1.5575,-3.89722 4.63881,-5.54116 8.82205,-5.20245c0.56515,0.04576 1.74329,-1.99117 1.96252,-2.67475c0.49801,-1.55282 -0.28103,-3.76523 1.25466,-5.54994c0.79279,-0.92135 1.58051,-2.075 3.08209,-2.69788c0.40955,-0.16988 2.30668,0.47274 2.66384,0.27925c1.68554,-0.91314 1.64477,-1.66908 3.3958,-2.23626c0.74316,-0.24072 1.32083,-0.80515 2.37132,-0.80103c1.42466,0.00558 2.96065,0.6383 2.96065,0.6383" fill="none" stroke="#80c7f2" stroke-width="1" stroke-linecap="round"/></g><g stroke="none" stroke-width="0" stroke-linecap="butt"><path d="" fill="#6ff1ff"/><path d="M343.73556,318.49531c1.16823,-0.56582 5.34425,-1.08833 5.56757,-0.67108c0.26412,0.49349 -3.48816,1.71612 -4.33482,2.11513c-0.97914,0.46144 -2.98967,2.00317 -2.9259,1.40153c0.06436,-0.60722 0.52493,-2.27976 1.69316,-2.84558z" fill="#92d3f6"/></g><path d="M333.0889,338.00643c0,0 2.60509,3.23789 5.31433,3.7388c1.07593,0.19893 0.55754,-1.63261 2.39018,-2.08015c0.63366,-0.15474 1.57791,0.83719 2.129,1.11227c0.63386,0.31641 2.14819,1.09212 3.51568,0.76351c2.35235,-0.56529 2.52662,0.6567 4.74173,-0.14479c0.9954,-0.36016 1.56566,-1.35193 2.22761,-1.9992c0.81113,-0.79315 1.68323,-0.99328 1.68323,-0.99328l0.22865,2.81637c0,0 -0.44045,0.20757 -0.93929,0.51088c-1.2768,0.77635 -3.78236,2.18001 -6.52744,2.33632c-1.05527,0.06009 -1.78544,-0.26734 -2.94676,-0.65271c-1.11196,-0.36899 -2.65726,-0.79109 -3.58236,-0.977c-1.38609,-0.27855 -2.2477,0.4494 -3.07336,0.28911c-2.60606,-0.50591 -5.16119,-4.72016 -5.16119,-4.72016z" fill="#92d3f6" stroke="none" stroke-width="0" stroke-linecap="butt"/></g></g></g></g></g></svg>