<svg version="1.1" xmlns="http://www.w3.org/2000/svg" xmlns:xlink="http://www.w3.org/1999/xlink" width="109.33333" height="109.33333" viewBox="0,0,109.33333,109.33333"><g transform="translate(-185.33334,-125.33335)"><g data-paper-data="{&quot;isPaintingLayer&quot;:true}" fill-rule="nonzero" stroke="none" stroke-width="0" stroke-linecap="butt" stroke-linejoin="miter" stroke-miterlimit="10" stroke-dasharray="" stroke-dashoffset="0" style="mix-blend-mode: normal"><g data-paper-data="{&quot;index&quot;:null}"><g data-paper-data="{&quot;index&quot;:null}"><path d="M225.46139,146.82303c3.08535,0.52107 3.18927,2.02209 3.47022,5.67403c0.12717,1.6529 -0.26586,4.17658 -0.97606,5.35011c-0.75094,1.24082 -2.05327,2.3408 -3.47999,2.45057c-0.99611,0.07664 -1.38432,-2.68856 -2.22847,-3.44823c-1.50837,-1.35743 -3.20059,-1.39865 -3.46501,-4.83567c-0.41631,-5.41121 3.93395,-5.65445 6.67932,-5.19083z" data-paper-data="{&quot;index&quot;:null}" fill="#f29e4a"/><path d="M227.29779,159.94769l0.02125,-12.86799c0,0 7.5613,1.7766 10.84222,5.17701c4.89473,5.07298 7.30703,11.9745 7.30703,11.9745l-11.70716,0.44829c0,0 -1.51785,-3.16566 -2.46866,-4.10772c-1.02133,-1.01194 -3.99466,-0.62406 -3.99466,-0.62406z" data-paper-data="{&quot;index&quot;:null}" fill="#908816"/></g><path d="M228.9048,190.1372c4.00136,1.71044 10.56178,5.41076 10.56178,5.41076c0,0 -2.57246,5.40099 -6.57382,3.69055c-4.00137,-1.71043 -10.89817,-3.93324 -10.75406,-5.99297c0.29141,-4.1649 6.7661,-3.10834 6.7661,-3.10834z" data-paper-data="{&quot;index&quot;:null}" fill="#908816"/><path d="M253.24929,168.49987c1.73803,6.23929 3.66955,12.17841 -11.95288,11.72736c-4.34719,-0.12551 -6.64471,-0.21105 -9.02223,-3.39648c-1.23134,-1.64975 -3.10625,-4.13097 -2.49066,-7.87982c1.0495,-6.39125 4.91149,-9.4721 11.5129,-9.4721c6.60139,0 10.14868,2.5442 11.95288,9.02105z" data-paper-data="{&quot;index&quot;:null}" fill="#908816"/><path d="M253.91624,176.44607c0,0 0.19035,6.31941 -3.6857,9.30192c-1.95837,1.5069 -4.13319,0.1646 -6.2433,0.78355c-2.63994,0.77433 -4.44856,9.75984 -4.44856,9.75984c0,0 -4.96538,-0.9554 -7.10051,-2.1357c-1.75436,-0.9698 -4.79377,-4.43945 -4.79377,-4.43945c0,0 0.16451,-6.13487 5.64677,-8.89074c2.02374,-1.01732 -3.58588,-7.81513 -3.58588,-7.81513l2.07137,-10.49558l3.32924,-1.95934c0,0 -0.55307,7.78057 0.54829,9.31031c1.1127,1.54549 3.88279,1.21746 4.44272,0.74692c2.12507,-1.78576 1.11209,-11.29869 1.11209,-11.29869l3.43407,0.2179c0,0 -0.47319,8.76627 2.87998,13.11296c1.78345,2.31187 6.39312,3.80121 6.39312,3.80121z" data-paper-data="{&quot;index&quot;:null}" fill="#f32f00"/><path d="M242.61776,175.92899c-1.04408,0 -1.89048,-0.8464 -1.89048,-1.89048c0,-1.04408 0.8464,-1.89048 1.89048,-1.89048c1.04408,0 1.89048,0.8464 1.89048,1.89048c0,1.04408 -0.8464,1.89048 -1.89048,1.89048z" data-paper-data="{&quot;index&quot;:null}" fill="#f29e4a"/><path d="M234.55172,175.92899c-1.04408,0 -1.89048,-0.8464 -1.89048,-1.89048c0,-1.04408 0.8464,-1.89048 1.89048,-1.89048c1.04408,0 1.89048,0.8464 1.89048,1.89048c0,1.04408 -0.8464,1.89048 -1.89048,1.89048z" data-paper-data="{&quot;index&quot;:null}" fill="#f29e4a"/><path d="M228.94156,149.46229c0,-6.54292 5.44115,-10.38082 14.6936,-10.07387c8.90793,0.29552 6.3203,2.86885 10.02644,5.85929c1.51642,1.22357 4.37808,1.51399 6.28684,2.92827c1.90875,1.41428 3.10866,3.33648 3.10866,5.1281c0,1.26511 -2.24325,1.75004 -3.73838,2.01455c-2.64525,0.46798 -2.77859,3.20586 -5.2155,4.33627c-3.96631,1.83985 -6.67866,1.6544 -11.05911,1.6544c-6.64338,0 -10.61095,0.22375 -13.32337,-3.73686c-1.06734,-1.55851 -0.77919,-6.26255 -0.77919,-8.11014z" data-paper-data="{&quot;index&quot;:null}" fill="#f29e4a"/><path d="M244.08136,157.598c-0.05587,-0.51336 1.28613,-0.59515 2.23922,-1.64486c0.86456,-0.95219 1.2624,-2.89432 2.75256,-3.05647c1.40769,-0.15318 2.7305,2.13844 4.57558,2.62668c2.26128,0.59838 4.93989,-0.52242 4.99856,0.01672c0.01279,0.11747 0.36793,2.39442 -0.21708,2.87364c-0.65771,0.53876 -2.26503,-0.72141 -2.26503,-0.72141c0,0 -0.96971,1.66389 -1.79601,2.05547c-1.70991,0.81032 -2.47655,-0.49676 -2.47655,-0.49676c0,0 -2.11851,1.20939 -2.78559,1.02069c-1.19819,-0.33892 -1.88677,-1.86591 -1.88677,-1.86591c0,0 -3.08934,-0.35238 -3.1389,-0.8078z" data-paper-data="{&quot;index&quot;:null}" fill="#908816"/><path d="M231.34939,141.29509c4.1024,-1.94124 9.50474,-3.20578 11.19669,-0.86265c0.92742,1.28438 -4.83665,7.07299 -4.10418,8.25069c0.70853,1.13918 1.87995,2.38119 1.40226,3.91055c-0.19973,0.63947 -0.8886,2.27716 -1.68101,2.40189c-0.83249,0.13104 -1.77925,-1.25457 -2.39317,-0.68675c-1.48462,1.37314 -1.81334,4.42206 -3.23851,4.42206c-2.53314,0 -6.52847,0.33046 -7.63499,-1.80077c-2.12637,-4.09553 0.55297,-7.18821 0.83799,-8.54249c0.88657,-4.21261 1.51252,-5.15129 5.61491,-7.09253z" data-paper-data="{&quot;index&quot;:null}" fill="#908816"/><path d="M232.85583,152.3772c0,-2.20336 1.71775,-3.64644 2.77863,-3.64644c1.06089,0 1.92089,1.44308 1.92089,3.64644c0,2.20336 -0.86001,3.98954 -1.92089,3.98954c-1.06089,0 -2.77863,-1.78618 -2.77863,-3.98954z" data-paper-data="{&quot;index&quot;:null}" fill="#f29e4a"/><path d="M248.48965,144.25033c1.14248,0 2.06865,1.38924 2.06865,3.10297c0,1.71372 -0.92617,3.10297 -2.06865,3.10297c-1.14248,0 -2.06865,-1.38924 -2.06865,-3.10297c0,-1.71372 0.92617,-3.10297 2.06865,-3.10297z" data-paper-data="{&quot;index&quot;:null}" fill="#908816"/><path d="M227.21209,141.59067c0.51786,-1.01838 2.43485,-7.74985 14.62833,-7.09253c7.30059,0.39355 9.68201,5.11045 10.18051,5.07015c3.91128,-0.31612 8.28961,1.36462 8.28961,2.02236c0,1.14248 -7.74012,2.06865 -17.28803,2.06865c-9.54791,0 -16.9925,0.25593 -15.81042,-2.06865z" data-paper-data="{&quot;index&quot;:null}" fill="#f32f00"/><g data-paper-data="{&quot;index&quot;:null}"><path d="M238.27382,163.42263c0,0 2.87021,2.50934 4.26431,2.15768c1.29782,-0.32737 4.21503,-2.28065 4.21503,-2.28065l5.02343,5.80513c0,0 -0.76013,5.25098 -7.55486,7.12848c-4.55449,1.25848 -11.96806,-1.05855 -11.96806,-1.05855c0,0 2.70998,-2.3518 3.75015,-3.83856c1.36826,-1.9557 2.27,-7.91358 2.27,-7.91358z" data-paper-data="{&quot;index&quot;:null}" fill="#908816"/><path d="M236.96232,171.54533c-2.0997,3.00117 -2.95274,4.24058 -5.8741,3.11962c-2.59942,-0.99743 -6.22096,-3.41992 -3.10979,-7.86682c1.97611,-2.82454 3.454,-1.99914 5.44313,-2.40048c1.1132,-0.22461 2.85412,-2.40776 3.67273,-1.83507c1.17248,0.82029 1.73413,2.42983 1.7494,3.88011c0.01447,1.37162 -0.93102,3.74427 -1.88134,5.10263z" data-paper-data="{&quot;index&quot;:null}" fill="#f29e4a"/></g><path d="M231.18805,179.02891c2.43268,-2.96181 7.46292,-2.85102 11.23533,0.24745c3.77241,3.09847 4.85847,8.0113 2.42578,10.97311c-2.43268,2.96181 -4.84449,0.00442 -9.26827,-2.06c-6.19277,-2.88993 -6.82551,-6.19877 -4.39284,-9.16057z" fill="#908816"/></g><path d="M185.33334,234.66668v-109.33333h109.33333v109.33333z" fill="none"/></g></g></svg>