<svg version="1.1" xmlns="http://www.w3.org/2000/svg" xmlns:xlink="http://www.w3.org/1999/xlink" width="85.49398" height="85.49398" viewBox="0,0,85.49398,85.49398"><defs><linearGradient x1="-3285.69704" y1="-2895.28052" x2="-3285.69704" y2="4105.40968" gradientUnits="userSpaceOnUse" id="color-1"><stop offset="0" stop-color="#ffffff"/><stop offset="1" stop-color="#ffffff" stop-opacity="0"/></linearGradient></defs><g transform="translate(-197.25302,-137.25304)"><g data-paper-data="{&quot;isPaintingLayer&quot;:true}" fill-rule="nonzero" stroke-linecap="butt" stroke-linejoin="miter" stroke-miterlimit="10" stroke-dasharray="" stroke-dashoffset="0" style="mix-blend-mode: normal"><g><path d="M208.63952,205.58016c0.00324,-13.1024 0,-44.63208 0,-51.75c0,-3.5626 2.97813,-5.21784 6.54073,-5.21784c12.68063,0 43.89984,0 51,0c2.96729,0 5.18024,2.50056 5.18024,5.46784c0,6.43742 0,39.20833 0,51.75c0,2.95974 -2.72049,5.55758 -5.68024,5.55758c-6.61442,0 -39.17756,0 -52,0c-3.13138,0 -5.04177,-1.58613 -5.04073,-5.80758z" fill="url(#color-1)" stroke="#a97a4a" stroke-width="2"/><path d="M197.25302,222.74702v-85.49398h85.49398v85.49398z" fill="none" stroke="none" stroke-width="0"/></g><g stroke="none" stroke-width="0"><path d="M227.93007,205.10746v-25.26552h24.03399v25.26552z" fill="#aeaeae"/><path d="M227.43745,205.10746v-25.26552h1.49683v25.26552z" fill="#ffffff"/><path d="M251.083,205.10746v-25.26552h1.37368v25.26552z" fill="#cccccc"/><g><path d="M228.06438,180.15806c0,0 1.14005,-11.36222 1.69941,-13.59504c0.80011,-3.19384 4.73041,-6.99988 5.08145,-8.2171c0.45013,-1.56083 0.50551,-3.45337 0.50551,-3.45337h9.32146c0,0 0.10043,1.81318 0.58227,3.46457c0.34487,1.18196 4.68601,5.69606 5.08582,8.26583c0.39695,2.55136 1.70377,13.53512 1.70377,13.53512z" data-paper-data="{&quot;index&quot;:null}" fill="#aeaeae"/><path d="M227.42148,180.15806c0,0 1.14005,-11.36223 1.69941,-13.59504c0.80011,-3.19384 4.73042,-6.99988 5.08146,-8.21711c0.45013,-1.56083 0.50551,-3.45337 0.50551,-3.45337h1.58013c0,0 0.13293,2.76892 -1.27723,5.54462c-1.09956,2.16431 -3.72537,4.16473 -4.24938,5.95536c-1.26465,4.32164 -1.86693,13.76553 -1.86693,13.76553z" data-paper-data="{&quot;index&quot;:null}" fill="#ffffff"/><path d="M251.10553,180.15806c0,0 -0.60227,-9.4439 -1.86693,-13.76554c-0.524,-1.79064 -3.14981,-3.79105 -4.24937,-5.95536c-1.41016,-2.77569 -1.17008,-5.54462 -1.17008,-5.54462h1.47298c0,0 0.05538,1.89254 0.50551,3.45337c0.35104,1.21722 4.28135,5.02327 5.08146,8.21711c0.55936,2.23282 1.69941,13.59504 1.69941,13.59504z" data-paper-data="{&quot;index&quot;:null}" fill="#cccccc"/><path d="M243.52079,178.44511c-1.47463,0 -4.89554,0 -7.50069,0c-1.6214,0 -2.57166,-1.15276 -2.57166,-2.92035c0,-2.9165 0,-7.18552 0,-8.76104c0,-1.63232 1.07435,-2.56991 2.57166,-2.56991c2.56967,0 6.34447,0 7.82214,0c1.50023,0 2.67882,0.93441 2.67882,2.56991c0,1.58286 0,5.48755 0,8.4106c0,2.92306 -1.85339,3.27079 -3.00028,3.27079z" data-paper-data="{&quot;index&quot;:null}" fill="#cccccc"/><g><path d="M235.78257,171.15802c0.577,-2.35814 2.60405,-4.2698 4.2698,-4.2698c1.66574,0 3.8082,1.33466 4.2698,4.2698c0.36635,2.32951 0.51115,4.33214 -4.2698,4.2698c-5.12861,-0.06688 -4.83027,-1.97922 -4.2698,-4.2698z" fill="#ffffff"/><path d="M241.3758,174.71723l0.99494,0.16573c0,0 -0.16753,1.80741 -0.35055,1.99889c-0.52484,0.5491 -1.33942,0.61748 -1.87646,0.61748c-0.49234,0 -1.44946,0.17204 -1.96382,-0.38227c-0.74687,-0.80488 -0.46058,-2.47932 -0.46058,-2.47932l0.82137,0.10464c0,0 0.00091,0.99159 0.20283,1.25371c0.28248,0.36671 0.85144,0.23142 1.40019,0.23142c0.45616,0 0.81972,0.04522 1.04075,-0.19511c0.36392,-0.39572 0.19132,-1.31517 0.19132,-1.31517z" fill="#ffffff"/><path d="M238.63344,168.59661c0.63655,0 0.59616,1.05102 0.59616,2.54363c0,1.49261 -0.27756,2.86159 -0.91412,2.86159c-0.63655,0 -1.55002,-0.09716 -1.709,-1.03335c-0.24989,-1.47154 1.3904,-4.37186 2.02695,-4.37186z" fill="#cccccc"/><path d="M243.33782,172.96848c-0.15897,0.93619 -1.07244,1.03335 -1.709,1.03335c-0.63656,0 -0.91412,-1.36898 -0.91412,-2.86159c0,-1.49261 -0.04039,-2.54363 0.59616,-2.54363c0.63656,0 2.27684,2.90032 2.02695,4.37186z" data-paper-data="{&quot;index&quot;:null}" fill="#cccccc"/></g></g></g></g></g></svg>