<svg version="1.1" xmlns="http://www.w3.org/2000/svg" xmlns:xlink="http://www.w3.org/1999/xlink" width="85.49398" height="85.49398" viewBox="0,0,85.49398,85.49398"><defs><linearGradient x1="-3285.69704" y1="-2895.28055" x2="-3285.69704" y2="4105.40967" gradientUnits="userSpaceOnUse" id="color-1"><stop offset="0" stop-color="#ffffff"/><stop offset="1" stop-color="#ffffff" stop-opacity="0"/></linearGradient></defs><g transform="translate(-197.25302,-137.25301)"><g data-paper-data="{&quot;isPaintingLayer&quot;:true}" fill-rule="nonzero" stroke-linejoin="miter" stroke-miterlimit="10" stroke-dasharray="" stroke-dashoffset="0" style="mix-blend-mode: normal"><path d="M208.63952,205.58013c0.00324,-13.1024 0,-44.63208 0,-51.75c0,-3.5626 2.97813,-5.21784 6.54073,-5.21784c12.68063,0 43.89984,0 51,0c2.96729,0 5.18024,2.50056 5.18024,5.46784c0,6.43742 0,39.20833 0,51.75c0,2.95974 -2.72049,5.55758 -5.68024,5.55758c-6.61442,0 -39.17756,0 -52,0c-3.13138,0 -5.04177,-1.58613 -5.04073,-5.80758z" fill="url(#color-1)" stroke="#a97a4a" stroke-width="2" stroke-linecap="butt"/><path d="M197.25302,222.74699v-85.49398h85.49398v85.49398z" fill="none" stroke="none" stroke-width="0" stroke-linecap="butt"/><text transform="translate(233.98493,191.07734) scale(0.75924,0.75924)" font-size="40" xml:space="preserve" fill="#737373" fill-rule="nonzero" stroke="none" stroke-width="1" stroke-linecap="butt" stroke-linejoin="miter" stroke-miterlimit="10" stroke-dasharray="" stroke-dashoffset="0" font-family="Sans Serif" font-weight="normal" text-anchor="start" style="mix-blend-mode: normal"><tspan x="0" dy="0">?</tspan></text><g fill="none" stroke="#656565" stroke-width="3" stroke-linecap="round"><path d="M226.1944,160.16875h-5.94938v5.79683"/><path d="M226.1944,199.67871h-5.94938v-5.79683" data-paper-data="{&quot;index&quot;:null}"/><path d="M253.8056,160.3213h5.94938v5.79682" data-paper-data="{&quot;index&quot;:null}"/><path d="M259.75498,193.72933v5.79682h-5.94938" data-paper-data="{&quot;index&quot;:null}"/><g><g><path d="M220.24502,172.0675v4.4239"/><path d="M220.24502,182.74587v4.42389"/></g><g><path d="M259.60243,172.0675v4.4239"/><path d="M259.60243,182.74587v4.42389"/></g></g><g><g><path d="M232.3726,199.29734h4.4239"/><path d="M243.05096,199.29733h4.42389"/></g><g><path d="M232.3726,159.93992h4.4239"/><path d="M243.05096,159.93992h4.42389"/></g></g></g></g></g></svg>