<svg version="1.1" xmlns="http://www.w3.org/2000/svg" xmlns:xlink="http://www.w3.org/1999/xlink" width="34.14029" height="42.65464" viewBox="0,0,34.14029,42.65464"><g transform="translate(-223.3222,-157.87662)"><g data-paper-data="{&quot;isPaintingLayer&quot;:true}" fill-rule="nonzero" stroke="none" stroke-width="0" stroke-linecap="butt" stroke-linejoin="miter" stroke-miterlimit="10" stroke-dasharray="" stroke-dashoffset="0" style="mix-blend-mode: normal"><path d="M236.91495,200.53126c0,0 0.08373,-4.95416 0.46922,-10.16644c0.22709,-3.07058 0.80156,-6.23073 0.8728,-8.52037c0.1784,-5.73352 -0.22719,-17.14147 -0.22719,-17.14147l2.14588,0.37161c0,0 2.26874,9.81823 2.64246,14.57256c0.22891,2.91214 0.09606,7.40146 0.08473,11.4726c-0.01399,5.0242 0.05989,9.4115 0.05989,9.4115z" fill="#20ad00"/><path d="M257.46249,188.11995c0,0 -5.54642,1.04244 -9.28979,1.04244c-3.74337,0 -5.70147,-6.06608 -5.70147,-6.06608c0,0 3.42403,-3.8525 7.13679,-3.37484c6.97285,0.89708 7.85447,8.39848 7.85447,8.39848z" data-paper-data="{&quot;index&quot;:null}" fill="#20ad00"/><path d="M253.01693,184.80075c0,0.64407 -2.06974,-0.62796 -4.84422,-0.62796c-2.77448,0 -5.20306,0.01612 -5.20306,-0.62795c0,-0.64407 2.42858,-1.70445 5.20306,-1.70445c2.77448,0 4.84422,2.31629 4.84422,2.96036z" data-paper-data="{&quot;index&quot;:null}" fill="#f29e4a"/><g><path d="M223.3222,162.90651c0,0 4.24325,-6.84875 11.38551,-4.56291c3.80297,1.21712 5.36926,6.48719 5.36926,6.48719c0,0 -4.63435,4.97533 -8.25093,3.2829c-3.61658,-1.69244 -8.50384,-5.20719 -8.50384,-5.20719z" fill="#20ad00"/><path d="M229.3023,162.21854c0.29119,-0.62226 3.33807,-1.92433 6.01858,-0.66994c2.68051,1.25439 4.54742,3.37684 4.25622,3.9991c-0.2912,0.62226 -2.63023,-0.49131 -5.31074,-1.74569c-2.68051,-1.25439 -5.25526,-0.9612 -4.96406,-1.58346z" fill="#f29e4a"/></g></g></g></svg>