<svg version="1.1" xmlns="http://www.w3.org/2000/svg" xmlns:xlink="http://www.w3.org/1999/xlink" width="22.90873" height="26.47498" viewBox="0,0,22.90873,26.47498"><g transform="translate(-218.91076,-174.42948)"><g data-paper-data="{&quot;isPaintingLayer&quot;:true}" fill-rule="nonzero" stroke-linejoin="miter" stroke-miterlimit="10" stroke-dasharray="" stroke-dashoffset="0" style="mix-blend-mode: normal"><g><g data-paper-data="{&quot;index&quot;:null}" stroke="#000000"><path d="M218.91076,200.62955l0.19848,-25.54822c0,0 3.13897,0.04616 4.40272,1.84802c1.26375,1.80186 1.92984,7.09803 1.92984,7.09803c0,0 3.03362,-3.91435 5.62362,-3.94053c2.55198,1.44898 2.5855,8.37434 2.5855,8.37434c0,0 4.21448,-4.17789 5.63711,-2.80828c0.8664,0.83412 1.62381,2.48892 1.52328,4.54851c-0.097,1.9873 -1.0374,4.39607 -1.0374,4.39607c0,0 0.90242,1.0152 1.12816,2.24074c0.21435,1.1637 -1.87845,3.4487 -1.87845,3.4487z" fill="#a5e62a" stroke-width="0" stroke-linecap="butt"/><path d="M219.97898,175.17948c0,0 2.75597,0.4602 4.21005,3.40239c0.97559,1.97402 0.13636,4.55275 2.07613,5.16964c0.18717,0.05952 1.72452,-1.98073 2.83983,-2.97156c3.26796,-2.90323 4.28618,3.45461 4.48565,7.82136c0.05815,1.27298 3.91919,-3.57001 5.61516,-2.86127c1.63685,0.68402 2.20126,3.48652 1.67038,5.18669c-0.50283,1.61036 -1.44109,3.39274 -1.18477,3.51549c1.27422,1.99858 0.91665,4.07785 -0.79996,5.71224" fill="none" stroke-width="1.5" stroke-linecap="round"/></g><path d="M223.15043,184.46223c-0.15261,0.29889 -1.71191,-1.27274 -2.19865,-1.55856c-0.56292,-0.33054 -2.03566,-1.1495 -1.71739,-1.32195c0.32122,-0.17406 1.53158,0.05852 2.28114,0.60988c0.74957,0.55136 1.76394,2.01793 1.63491,2.27064z" fill="#61cd25" stroke="none" stroke-width="0" stroke-linecap="butt"/></g></g></g></svg>