<svg version="1.1" xmlns="http://www.w3.org/2000/svg" xmlns:xlink="http://www.w3.org/1999/xlink" width="109.33335" height="109.33336" viewBox="0,0,109.33335,109.33336"><g transform="translate(-185.33333,-125.33333)"><g data-paper-data="{&quot;isPaintingLayer&quot;:true}" fill-rule="nonzero" stroke="none" stroke-width="0" stroke-linecap="butt" stroke-linejoin="miter" stroke-miterlimit="10" stroke-dasharray="" stroke-dashoffset="0" style="mix-blend-mode: normal"><path d="M185.33333,234.66666v-109.33333h109.33333v109.33333z" fill="none"/><path d="M185.33335,234.66669v-109.33333h109.33333v109.33333z" fill="none"/><g><g><path d="M257.69357,162.20614c0,0 -2.92835,4.95868 -2.71152,6.98959c0.16483,1.54395 1.59522,4.38655 1.59522,4.38655c0,0 -9.66924,-0.99128 -13.84534,-3.67977c-6.23022,-4.01091 -4.25024,-5.52426 -4.25024,-5.52426l4.94524,-7.14052c0,0 6.95168,4.29597 8.16224,5.03786c1.30033,0.7969 6.10441,-0.06943 6.10441,-0.06943z" data-paper-data="{&quot;index&quot;:null}" fill="#f32f00"/><path d="M254.00102,168.97511c-0.1506,-1.41061 0.12172,-3.57919 0.6995,-4.60094c0.61092,-1.08034 1.69704,-2.05418 2.9146,-2.18417c0.85008,-0.09075 1.25213,2.26466 1.99338,2.89307c1.32453,1.12291 2.77303,1.11536 3.08617,4.04853c0.493,4.61796 -3.22185,4.93611 -5.58182,4.60899c-2.65224,-0.36763 -2.77911,-1.6489 -3.11183,-4.76551z" data-paper-data="{&quot;index&quot;:null}" fill="#f29e4a"/></g><path d="M245.196,200.22157c-3.36063,0 -3.72363,-5.17675 -3.72363,-5.17675c0,0 7.0837,-0.64709 10.44433,-0.64709c0.27274,0 5.4393,0.66152 4.67365,4.74536c-0.32928,1.75631 -11.39435,1.07848 -11.39435,1.07848z" data-paper-data="{&quot;index&quot;:null}" fill="#f32f00"/><path d="M226.26641,198.8769c-1.7772,0.18586 -3.19743,-7.39108 -4.27715,-11.233c-1.07971,-3.8419 3.78734,-5.65749 3.78734,-5.65749c0,0 2.89883,7.92309 3.97855,11.76501c0,0 1.01848,4.6541 -3.48874,5.12548z" data-paper-data="{&quot;index&quot;:null}" fill="#f32f00"/><path d="M239.61492,154.00094c5.649,0 10.10229,3.95759 11.00037,12.16762c1.54391,14.11409 -5.35373,14.24052 -11.00037,14.48526c-13.36856,0.5794 -11.7157,-7.04983 -10.22842,-15.06467c1.54391,-8.31999 4.57943,-11.58821 10.22842,-11.58821z" data-paper-data="{&quot;index&quot;:null}" fill="#f32f00"/><path d="M238.89567,156.59226l3.82171,-1.16298c0,0 0.26855,10.45391 2.08704,12.74785c1.10163,1.38969 2.32084,0.43569 2.95255,-1.46001c1.27257,-3.81887 -2.84467,-11.33311 -2.84467,-11.33311l2.84893,2.51691c0,0 2.117,7.9709 3.08583,13.15403c0.96883,5.18313 0.40165,4.67677 0.73427,7.28291c0.18953,1.48492 1.07727,5.54018 1.67406,7.77988c0.90517,3.39703 -0.02211,8.58519 -0.02211,8.58519l-12.2027,0.41074c0,0 1.09237,-2.36452 0.90883,-4.70016c-0.10648,-1.35517 0.98156,-4.07171 -0.34576,-4.0986c-0.58314,-0.01182 -1.02463,4.35447 -2.63329,6.46028c-2.13405,2.79359 -8.86557,3.77853 -8.86557,3.77853l-4.68499,-14.73042c0,0 1.42037,0.54424 1.78014,-0.28759c0.22518,-0.86299 -1.30647,0.04474 -0.56707,-4.04515c0.58961,-3.26132 1.59213,-7.05329 2.49838,-10.58602c0.7862,-3.06476 1.17036,-5.87495 2.07019,-7.95981c0.79979,-1.85307 2.29206,-2.65501 2.29206,-2.65501c0,0 -3.81535,10.86347 -2.41286,13.9625c1.52316,3.36567 7.91649,-1.57274 8.48792,-3.13738c1.44875,-3.96683 -0.66288,-10.5226 -0.66288,-10.5226z" data-paper-data="{&quot;index&quot;:null}" fill="#ffe2e2"/><path d="M240.0203,171.99403c0,-0.89345 0.72428,-1.61773 1.61773,-1.61773c0.89345,0 1.61773,0.72428 1.61773,1.61773c0,0.89345 -0.72428,1.61773 -1.61773,1.61773c-0.89345,0 -1.61773,-0.72428 -1.61773,-1.61773z" data-paper-data="{&quot;index&quot;:null}" fill="#f29e4a"/><path d="M246.03957,171.61556c0,-0.89345 0.72428,-1.61773 1.61773,-1.61773c0.89345,0 1.61773,0.72428 1.61773,1.61773c0,0.89345 -0.72428,1.61773 -1.61773,1.61773c-0.89345,0 -1.61773,-0.72428 -1.61773,-1.61773z" data-paper-data="{&quot;index&quot;:null}" fill="#f29e4a"/><g><path d="M229.01296,145.5441c0,-6.36705 5.2949,-10.10179 14.29865,-9.80311c8.6685,0.28757 6.15042,2.79174 9.75695,5.70181c1.47567,1.19068 4.2604,1.47329 6.11786,2.84956c1.85745,1.37627 3.0251,3.2468 3.0251,4.99026c0,1.2311 -2.18296,1.703 -3.6379,1.9604c-2.57416,0.4554 -2.70391,3.11969 -5.07532,4.21972c-3.8597,1.79039 -6.49914,1.60993 -10.76186,1.60993c-6.46481,0 -10.32574,0.21774 -12.96526,-3.63643c-1.03865,-1.51662 -0.75824,-6.09422 -0.75824,-7.89215z" data-paper-data="{&quot;index&quot;:null}" fill="#f29e4a"/><path d="M243.74582,153.46118c-0.05437,-0.49956 1.25156,-0.57915 2.17903,-1.60064c0.84133,-0.9266 1.22847,-2.81652 2.67857,-2.97432c1.36986,-0.14905 2.6571,2.08096 4.45259,2.55609c2.20051,0.5823 4.80711,-0.50837 4.8642,0.01627c0.01244,0.11431 0.35805,2.33006 -0.21124,2.7964c-0.64004,0.52428 -2.20415,-0.70202 -2.20415,-0.70202c0,0 -0.94365,1.61916 -1.74774,2.00022c-1.66394,0.78854 -2.40998,-0.48341 -2.40998,-0.48341c0,0 -2.06156,1.17688 -2.71071,0.99325c-1.16598,-0.32981 -1.83606,-1.81576 -1.83606,-1.81576c0,0 -3.00631,-0.34291 -3.05453,-0.78609z" data-paper-data="{&quot;index&quot;:null}" fill="#f32f00"/><path d="M231.35607,137.59648c3.99213,-1.88906 9.24927,-3.11961 10.89574,-0.83946c0.90249,1.24985 -4.70665,6.88288 -3.99386,8.02893c0.68948,1.10856 1.82943,2.31718 1.36456,3.80544c-0.19436,0.62228 -0.86471,2.21595 -1.63583,2.33733c-0.81011,0.12751 -1.73142,-1.22085 -2.32884,-0.66829c-1.44472,1.33623 -1.7646,4.3032 -3.15146,4.3032c-2.46505,0 -6.35299,0.32157 -7.42977,-1.75236c-2.06921,-3.98544 0.5381,-6.99499 0.81546,-8.31289c0.86274,-4.09939 1.47186,-5.01283 5.464,-6.90189z" data-paper-data="{&quot;index&quot;:null}" fill="#f32f00"/><path d="M232.79896,148.38069c0,-2.14414 1.69463,-3.53921 2.727,-3.53921c1.03237,0 1.86926,1.39507 1.86926,3.53921c0,2.14414 -0.83689,3.88231 -1.86926,3.88231c-1.03237,0 -2.727,-1.73817 -2.727,-3.88231z" data-paper-data="{&quot;index&quot;:null}" fill="#f29e4a"/><path d="M248.03563,140.47228c1.11177,0 2.01305,1.3519 2.01305,3.01957c0,1.66765 -0.90128,3.01957 -2.01305,3.01957c-1.11177,0 -2.01305,-1.3519 -2.01305,-3.01957c0,-1.66765 0.90128,-3.01957 2.01305,-3.01957z" data-paper-data="{&quot;index&quot;:null}" fill="#f32f00"/><path d="M227.32998,137.88408c0.50394,-0.991 2.36941,-7.54154 14.23515,-6.90189c7.10437,0.38297 9.42176,4.97308 9.90687,4.93388c3.80614,-0.30762 8.0668,1.32794 8.0668,1.968c0,1.11177 -7.53208,2.01305 -16.82335,2.01305c-9.29128,0 -16.53577,0.24904 -15.38546,-2.01305z" data-paper-data="{&quot;index&quot;:null}" fill="#ffe2e2"/></g><g data-paper-data="{&quot;index&quot;:null}"><path d="M216.1923,168.6592c1.74109,-2.03425 2.88817,-1.44946 5.69134,-0.04729c1.26875,0.63464 2.9473,2.03442 3.49553,3.07232c0.57969,1.09742 0.8132,2.53738 0.26541,3.6325c-0.38246,0.76459 -2.58228,-0.16835 -3.51139,0.11644c-1.66022,0.50888 -2.43573,1.73232 -5.07392,0.41267c-4.15354,-2.07764 -2.41617,-5.37657 -0.86696,-7.18665z" data-paper-data="{&quot;index&quot;:null}" fill="#f29e4a"/><path d="M229.27484,169.58202c-1.37273,0.6645 -2.97205,4.1653 -2.97205,4.1653l-9.23849,-6.06934c0,0 3.73879,-6.30359 8.25614,-8.36788c6.73933,-3.07968 9.35703,-2.19372 9.35703,-2.19372l-0.88983,11.64025c0,0 -3.23487,0.20681 -4.51282,0.82541z" data-paper-data="{&quot;index&quot;:null}" fill="#f32f00"/></g></g></g></g></svg>