<svg version="1.1" xmlns="http://www.w3.org/2000/svg" xmlns:xlink="http://www.w3.org/1999/xlink" width="39.1648" height="55.40289" viewBox="0,0,39.1648,55.40289"><g transform="translate(-215.93941,-144.43261)"><g data-paper-data="{&quot;isPaintingLayer&quot;:true}" fill-rule="nonzero" stroke-linejoin="miter" stroke-miterlimit="10" stroke-dasharray="" stroke-dashoffset="0" style="mix-blend-mode: normal"><g><path d="M229.24117,194.80937c-1.79508,-1.83473 -3.23574,-4.52362 -3.03417,-5.00572c0.50609,-1.21047 3.19,0.2473 4.26812,-0.01634c1.07812,-0.26364 1.42611,-1.87201 1.99082,-2.32921c0.44751,-0.3623 7.18784,3.02293 6.99189,5.13022c-0.20893,2.24687 -4.67447,4.48889 -5.19643,4.59846c-0.85065,0.17857 -3.19508,-0.51194 -5.02024,-2.37741z" data-paper-data="{&quot;index&quot;:null}" fill="#f29e4a" stroke="none" stroke-width="0" stroke-linecap="butt"/><path d="M231.11657,185.81754c-2.31556,-4.15865 -2.3311,-12.19887 -1.3399,-16.5301c0.91785,-4.01071 1.71746,-7.39386 4.54997,-8.42678c5.89139,-2.14838 14.64335,-0.64506 19.00865,10.48616c4.11681,10.26295 -0.24225,17.14791 -0.24225,17.14791c0,0 -3.88149,1.50639 -5.53184,2.10821c-1.25754,3.76015 -10.49541,5.89911 -16.44462,-4.7854z" data-paper-data="{&quot;index&quot;:null}" fill="#20ad00" stroke="none" stroke-width="0" stroke-linecap="butt"/><path d="M230.18058,166.93524c-5.97784,0 -10.15309,-3.56701 -10.15309,-9.00141c0,-2.48103 -1.81275,-3.58086 -0.29803,-5.50161c1.8031,-2.28642 7.20242,-5.17668 10.45112,-5.17668c5.97784,0 10.82384,4.40545 10.82384,9.83985c0,1.28771 1.40479,4.5299 0.91002,5.65714c-1.59325,3.62995 -7.17249,4.18272 -11.73385,4.18272z" data-paper-data="{&quot;index&quot;:null}" fill="#20ad00" stroke="none" stroke-width="0" stroke-linecap="butt"/><path d="M223.01242,155.56245c3.45402,-0.67075 3.01837,4.35988 3.01837,4.35988c0,0 -0.40278,1.00612 -2.34762,1.00612c-1.94484,0 -3.52144,-1.20122 -3.52144,-2.683c0,-1.48178 0.94152,-2.31225 2.85069,-2.683z" data-paper-data="{&quot;index&quot;:null}" fill="#ffffff" stroke="none" stroke-width="0" stroke-linecap="butt"/><path d="M221.33554,157.07164c0.55566,0 1.00612,0.75075 1.00612,1.67687c0,0.92611 -0.45045,1.67687 -1.00612,1.67687c-0.55567,0 -1.00612,-0.75075 -1.00612,-1.67687c0,-0.92611 0.45045,-1.67687 1.00612,-1.67687z" data-paper-data="{&quot;index&quot;:null}" fill="#20ad00" stroke="none" stroke-width="0" stroke-linecap="butt"/><path d="M216.33658,165.97536c-0.93674,-3.74845 -0.33729,-7.65995 3.10354,-7.74415c0.82703,-0.02024 1.89542,1.96874 1.89542,1.96874c0,0 11.40611,-2.9502 11.74148,3.76316c0.06648,1.33071 -0.74779,2.62101 -2.37444,3.28708c-1.86081,0.76194 -4.68122,0.81051 -6.68404,0.94659c-4.93608,0.33537 -3.75432,-3.44637 -7.68196,-2.22143z" data-paper-data="{&quot;index&quot;:null}" fill="#f29e4a" stroke="none" stroke-width="0" stroke-linecap="butt"/><path d="M219.33031,152.29995c0,0 3.37727,-10.09938 13.79595,-7.41276c10.20438,2.63136 8.49099,13.1598 8.49099,13.1598z" data-paper-data="{&quot;index&quot;:null}" fill="#20ad00" stroke="none" stroke-width="0" stroke-linecap="butt"/><path d="M217.76836,153.91786l0.70263,-3.24382c0,0 6.75183,1.10309 10.35351,2.02885c4.37466,1.12444 14.0292,4.23837 14.0292,4.23837l-0.70263,3.24382c0,0 -9.74288,-3.09353 -14.1089,-4.21575c-3.62157,-0.93087 -10.27381,-2.05147 -10.27381,-2.05147z" data-paper-data="{&quot;index&quot;:null}" fill="#ffffff" stroke="none" stroke-width="0" stroke-linecap="butt"/><path d="M230.55835,163.10839l-0.16769,-6.37212h2.34763v6.37212z" data-paper-data="{&quot;index&quot;:null}" fill="#ffffff" stroke="none" stroke-width="0" stroke-linecap="butt"/><path d="M231.84174,163.39313l-0.59521,-2.3053l8.25738,-2.95943l2.10439,1.63454z" data-paper-data="{&quot;index&quot;:null}" fill="#ffffff" stroke="none" stroke-width="0" stroke-linecap="butt"/><path d="M227.08518,167.87864c0,0 2.27109,-1.86971 2.89915,-2.90991c0.52895,-0.87604 0.6232,-2.92383 0.6232,-2.92383l2.16634,0.90462c0,0 -0.20143,2.16765 -0.79499,3.15071c-0.58025,0.96102 -2.72736,2.68304 -2.72736,2.68304z" data-paper-data="{&quot;index&quot;:null}" fill="#ffffff" stroke="none" stroke-width="0" stroke-linecap="butt"/><path d="M236.22243,150.17098c-1.01771,-1.20123 -1.41311,-2.53901 -0.88316,-2.988c0.52996,-0.449 1.78459,0.16082 2.80231,1.36205c1.01772,1.20123 1.41311,2.53901 0.88316,2.988c-0.52995,0.449 -1.78458,-0.16082 -2.8023,-1.36205z" data-paper-data="{&quot;index&quot;:null}" fill="#ffffff" stroke="none" stroke-width="0" stroke-linecap="butt"/><path d="M251.53186,169.47053c0.61674,1.99039 0.95961,3.71502 0.5173,3.85208c-0.44232,0.13706 -1.90526,-1.36537 -2.522,-3.35576c-0.61674,-1.99039 -0.75814,-3.71502 -0.31583,-3.85208c0.44231,-0.13706 1.70379,1.36537 2.32053,3.35576z" data-paper-data="{&quot;index&quot;:null}" fill="#ffffff" stroke="none" stroke-width="0" stroke-linecap="butt"/><path d="M241.22945,185.58524l12.72394,-12.72394l0.35991,1.86678l-11.9705,11.9705z" data-paper-data="{&quot;index&quot;:null}" fill="#f29e4a" stroke="none" stroke-width="0" stroke-linecap="butt"/><path d="M250.1862,178.53631l-8.45445,-8.45445l1.11335,-1.11334l8.45444,8.45445z" data-paper-data="{&quot;index&quot;:null}" fill="#f29e4a" stroke="none" stroke-width="0" stroke-linecap="butt"/><path d="M239.09472,167.8794l6.3197,-6.3197l1.23891,0.98777l-6.44527,6.44527z" data-paper-data="{&quot;index&quot;:null}" fill="#f29e4a" stroke="none" stroke-width="0" stroke-linecap="butt"/><path d="M240.12022,190.86556c0.93678,-0.51512 2.08789,-1.22559 4.18345,-1.54294c2.92986,-0.44369 6.45017,-0.32937 6.87776,-0.12783c0.89852,0.42348 1.9901,2.62782 2.06579,4.92119c0.09175,2.78034 -2.33601,5.69154 -3.02261,5.7191c-0.79389,0.03187 -1.78926,-1.74538 -4.35854,-3.72806c-3.03033,-2.33846 -6.2528,-4.96269 -5.74585,-5.24146z" data-paper-data="{&quot;index&quot;:null}" fill="#f29e4a" stroke="none" stroke-width="0" stroke-linecap="butt"/><path d="M252.53806,188.76948l-6.94949,-6.94949l1.11334,-1.11335l6.69834,6.69835z" data-paper-data="{&quot;index&quot;:null}" fill="#f29e4a" stroke="none" stroke-width="0" stroke-linecap="butt"/><path d="M253.34641,188.24815c0,0 -11.55356,1.67757 -12.89587,-4.20319c-1.14799,-5.02945 3.6127,-5.23326 2.96338,-11.15884c-0.81045,-7.39603 -5.8652,-2.59657 -5.37278,-6.11037c0.65944,-4.70562 3.06408,-6.5314 3.06408,-6.5314" data-paper-data="{&quot;index&quot;:null}" fill="none" stroke="#ffffff" stroke-width="2.5" stroke-linecap="round"/><path d="M231.85959,173.93997c3.51836,-4.42897 8.50048,-8.29502 10.85938,-4.3125c1.8068,3.05044 -0.91945,7.17825 -6.0482,10.36897c-5.12875,3.19072 -11.78219,2.37908 -12.52466,1.18564c-0.49128,-0.78968 3.95633,-2.51256 7.71348,-7.24211z" data-paper-data="{&quot;index&quot;:null}" fill="#f29e4a" stroke="none" stroke-width="0" stroke-linecap="butt"/></g></g></g></svg>