<svg version="1.1" xmlns="http://www.w3.org/2000/svg" xmlns:xlink="http://www.w3.org/1999/xlink" width="35.44354" height="41.28138" viewBox="0,0,35.44354,41.28138"><g transform="translate(-222.27823,-159.35931)"><g data-paper-data="{&quot;isPaintingLayer&quot;:true}" fill-rule="nonzero" stroke="none" stroke-width="0" stroke-linecap="butt" stroke-linejoin="miter" stroke-miterlimit="10" stroke-dasharray="" stroke-dashoffset="0" style="mix-blend-mode: normal"><path d="M236.77799,200.50965v-41.03081h6.04778v41.03081z" data-paper-data="{&quot;index&quot;:null}" fill="#20ad00"/><path d="M230.1327,176.13404c3.71276,-0.47766 7.13679,3.37484 7.13679,3.37484c0,0 -1.9581,6.06608 -5.70147,6.06608c-3.74337,0 -9.28979,-1.04244 -9.28979,-1.04244c0,0 0.88162,-7.5014 7.85447,-8.39848z" data-paper-data="{&quot;index&quot;:null}" fill="#20ad00"/><path d="M231.56801,178.25296c2.77448,0 5.20306,1.06038 5.20306,1.70445c0,0.64407 -2.42858,0.62795 -5.20306,0.62795c-2.77448,0 -4.84422,1.27203 -4.84422,0.62796c0,-0.64407 2.06974,-2.96036 4.84422,-2.96036z" data-paper-data="{&quot;index&quot;:null}" fill="#f29e4a"/><g data-paper-data="{&quot;index&quot;:null}"><path d="M249.68903,196.33215c3.35385,0.43148 5.2985,2.39087 6.41366,4.30854c-4.39713,-0.04063 -8.79615,-0.00761 -13.19308,-0.00248c-0.23739,-0.55946 -0.35739,-0.93122 -0.35739,-0.93122c0,0 3.42403,-3.8525 7.1368,-3.37484z" fill="#20ad00"/><path d="M252.00841,200.62111c-3.09435,-0.0033 -6.18903,0.01425 -9.28264,0.0173c-0.02242,-0.03836 -0.03397,-0.07964 -0.03397,-0.12406c0,-0.64408 2.42858,-1.70445 5.20306,-1.70445c1.78298,0 3.27492,0.95658 4.11355,1.81121z" fill="#f29e4a"/></g><g data-paper-data="{&quot;index&quot;:null}"><path d="M243.38985,159.45926c0,0 5.73677,-0.2336 11.50875,0.01345c0,0 2.56237,2.75072 2.82317,4.9641c-0.00292,0.00055 -5.5474,1.04244 -9.28979,1.04244c-3.74337,0 -5.70147,-6.06608 -5.70147,-6.06608z" fill="#20ad00"/><path d="M257.72177,164.43681v0c0,0.00001 0,0.00001 0,0.00001z" fill="#20ad00"/><path d="M252.91739,161.47644c0,0.64408 -2.06975,-0.62796 -4.84423,-0.62796c-2.77448,0 -5.20306,0.01612 -5.20306,-0.62796c0,-0.45084 1.18995,-0.3925 2.85554,-0.74483c0.86654,-0.07186 3.33444,0.0222 4.20185,-0.06192c2.64804,0.13231 2.98989,1.43807 2.98989,2.06266z" fill="#f29e4a"/></g></g></g></svg>