<svg version="1.1" xmlns="http://www.w3.org/2000/svg" xmlns:xlink="http://www.w3.org/1999/xlink" width="112.66618" height="112.66618" viewBox="0,0,112.66618,112.66618"><g transform="translate(-183.8346,-123.66691)"><g data-paper-data="{&quot;isPaintingLayer&quot;:true}" fill-rule="nonzero" stroke-linejoin="miter" stroke-miterlimit="10" stroke-dasharray="" stroke-dashoffset="0" style="mix-blend-mode: normal"><path d="M183.8346,236.33309v-112.66618h112.66618v112.66618z" data-paper-data="{&quot;index&quot;:null}" fill="none" stroke="none" stroke-width="0" stroke-linecap="butt"/><path d="M247.07827,196.87478c-2.32626,1.18309 -4.76837,1.08682 -5.5171,0.64535c-0.45942,-0.27088 -3.97234,-3.82435 -3.45106,-6.01988c0.4889,-2.05914 7.95819,-3.10869 8.26618,-2.6222c0.38865,0.61391 0.20349,2.24904 1.1405,2.84391c0.937,0.59487 3.94633,0.07292 4.03832,1.3817c0.03665,0.52126 -2.18892,2.60752 -4.47685,3.77111z" data-paper-data="{&quot;index&quot;:null}" fill="#f29e4a" stroke="none" stroke-width="0" stroke-linecap="butt"/><path d="M248.18743,186.26659c-5.94921,10.68451 -15.18708,8.54555 -16.44462,4.7854c-1.65035,-0.60182 -5.53184,-2.10821 -5.53184,-2.10821c0,0 -4.35906,-6.88496 -0.24225,-17.14791c4.3653,-11.13122 13.11726,-12.63454 19.00865,-10.48616c2.83251,1.03292 3.63212,4.41607 4.54997,8.42678c0.9912,4.33123 0.97566,12.37145 -1.3399,16.5301z" data-paper-data="{&quot;index&quot;:null}" fill="#20ad00" stroke="none" stroke-width="0" stroke-linecap="butt"/><path d="M249.12342,167.3843c-4.56136,0 -10.1406,-0.55277 -11.73385,-4.18272c-0.49477,-1.12724 0.91002,-4.36943 0.91002,-5.65714c0,-5.4344 4.846,-9.83985 10.82384,-9.83985c3.2487,0 8.64802,2.89026 10.45112,5.17668c1.51472,1.92075 -0.29803,3.02058 -0.29803,5.50161c0,5.4344 -4.17525,9.00141 -10.15309,9.00141z" data-paper-data="{&quot;index&quot;:null}" fill="#20ad00" stroke="none" stroke-width="0" stroke-linecap="butt"/><path d="M259.14228,158.6945c0,1.48178 -1.5766,2.683 -3.52144,2.683c-1.94484,0 -2.34762,-1.00612 -2.34762,-1.00612c0,0 -0.43565,-5.03063 3.01837,-4.35988c1.90917,0.37075 2.85069,1.20122 2.85069,2.683z" data-paper-data="{&quot;index&quot;:null}" fill="#ffffff" stroke="none" stroke-width="0" stroke-linecap="butt"/><path d="M258.97459,159.19756c0,0.92612 -0.45045,1.67687 -1.00612,1.67687c-0.55567,0 -1.00612,-0.75076 -1.00612,-1.67687c0,-0.92612 0.45046,-1.67687 1.00612,-1.67687c0.55567,0 1.00612,0.75076 1.00612,1.67687z" data-paper-data="{&quot;index&quot;:null}" fill="#20ad00" stroke="none" stroke-width="0" stroke-linecap="butt"/><path d="M262.96743,166.4244c-3.92764,-1.22494 -2.74588,2.5568 -7.68196,2.22143c-2.00282,-0.13608 -4.82323,-0.18465 -6.68404,-0.94659c-1.62665,-0.66607 -2.44092,-1.95637 -2.37444,-3.28708c0.33537,-6.71336 11.74148,-3.76316 11.74148,-3.76316c0,0 1.06839,-1.98898 1.89542,-1.96874c3.44083,0.0842 4.04028,3.9957 3.10354,7.74415z" data-paper-data="{&quot;index&quot;:null}" fill="#f29e4a" stroke="none" stroke-width="0" stroke-linecap="butt"/><path d="M237.68676,158.49604c0,0 -1.71339,-10.52844 8.49099,-13.1598c10.41868,-2.68662 13.79595,7.41276 13.79595,7.41276z" data-paper-data="{&quot;index&quot;:null}" fill="#20ad00" stroke="none" stroke-width="0" stroke-linecap="butt"/><path d="M251.26184,156.41838c-4.36602,1.12222 -14.1089,4.21575 -14.1089,4.21575l-0.70263,-3.24382c0,0 9.65454,-3.11393 14.0292,-4.23837c3.60168,-0.92576 10.35351,-2.02885 10.35351,-2.02885l0.70263,3.24382c0,0 -6.65224,1.1206 -10.27381,2.05147z" data-paper-data="{&quot;index&quot;:null}" fill="#ffffff" stroke="none" stroke-width="0" stroke-linecap="butt"/><path d="M246.56572,163.55744v-6.37212h2.34763l-0.16769,6.37212z" data-paper-data="{&quot;index&quot;:null}" fill="#ffffff" stroke="none" stroke-width="0" stroke-linecap="butt"/><path d="M237.69571,160.21199l2.10439,-1.63454l8.25738,2.95943l-0.59521,2.3053z" data-paper-data="{&quot;index&quot;:null}" fill="#ffffff" stroke="none" stroke-width="0" stroke-linecap="butt"/><path d="M250.05249,169.23232c0,0 -2.14711,-1.72202 -2.72736,-2.68304c-0.59356,-0.98306 -0.79499,-3.15071 -0.79499,-3.15071l2.16634,-0.90462c0,0 0.09425,2.04779 0.6232,2.92383c0.62806,1.0402 2.89915,2.90991 2.89915,2.90991z" data-paper-data="{&quot;index&quot;:null}" fill="#ffffff" stroke="none" stroke-width="0" stroke-linecap="butt"/><path d="M243.08157,150.62003c-1.01772,1.20123 -2.27235,1.81105 -2.8023,1.36205c-0.52995,-0.44899 -0.13456,-1.78677 0.88316,-2.988c1.01772,-1.20123 2.27235,-1.81105 2.80231,-1.36205c0.52995,0.44899 0.13455,1.78677 -0.88316,2.988z" data-paper-data="{&quot;index&quot;:null}" fill="#ffffff" stroke="none" stroke-width="0" stroke-linecap="butt"/><path d="M230.09268,166.56382c0.44231,0.13706 0.30091,1.86169 -0.31583,3.85208c-0.61674,1.99039 -2.07968,3.49282 -2.522,3.35576c-0.44231,-0.13706 -0.09944,-1.86169 0.5173,-3.85208c0.61674,-1.99039 1.87822,-3.49282 2.32053,-3.35576z" data-paper-data="{&quot;index&quot;:null}" fill="#ffffff" stroke="none" stroke-width="0" stroke-linecap="butt"/><path d="M236.96121,187.14763l-11.9705,-11.9705l0.35991,-1.86678l12.72394,12.72394z" data-paper-data="{&quot;index&quot;:null}" fill="#f29e4a" stroke="none" stroke-width="0" stroke-linecap="butt"/><path d="M228.00447,177.87202l8.45444,-8.45445l1.11335,1.11334l-8.45445,8.45445z" data-paper-data="{&quot;index&quot;:null}" fill="#f29e4a" stroke="none" stroke-width="0" stroke-linecap="butt"/><path d="M239.09595,169.44179l-6.44527,-6.44527l1.23891,-0.98777l6.3197,6.3197z" data-paper-data="{&quot;index&quot;:null}" fill="#f29e4a" stroke="none" stroke-width="0" stroke-linecap="butt"/><path d="M235.18383,194.36446c-1.6964,2.76666 -1.9948,4.78169 -2.74814,5.03419c-0.65153,0.21837 -3.95576,-1.63935 -4.85861,-4.27062c-0.7447,-2.17041 -0.50825,-4.61883 0.18098,-5.33412c0.32799,-0.34041 3.5776,-1.69896 6.47376,-2.32603c2.07146,-0.4485 3.39996,-0.19376 4.45868,-0.04539c0.57294,0.0803 -1.50585,3.67884 -3.50667,6.94197z" data-paper-data="{&quot;index&quot;:null}" fill="#f29e4a" stroke="none" stroke-width="0" stroke-linecap="butt"/><path d="M225.90376,187.85404l6.69834,-6.69835l1.11334,1.11335l-6.94949,6.94949z" data-paper-data="{&quot;index&quot;:null}" fill="#f29e4a" stroke="none" stroke-width="0" stroke-linecap="butt"/><path d="M238.19879,160.6934c0,0 2.40464,1.82578 3.06408,6.5314c0.49242,3.5138 -4.56233,-1.28566 -5.37278,6.11037c-0.64932,5.92558 4.11137,6.12939 2.96338,11.15884c-1.34231,5.88076 -12.89587,4.20319 -12.89587,4.20319" data-paper-data="{&quot;index&quot;:null}" fill="none" stroke="#ffffff" stroke-width="2.5" stroke-linecap="round"/><path d="M252.09571,185.46067c-1.02177,0.96517 -7.66268,0.05669 -11.81045,-4.33429c-4.14778,-4.39098 -5.73367,-9.07673 -3.20999,-11.56686c3.29482,-3.251 7.12892,1.75575 9.40418,6.93434c2.42969,5.53005 6.29234,8.32817 5.61626,8.9668z" data-paper-data="{&quot;index&quot;:null}" fill="#f29e4a" stroke="none" stroke-width="0" stroke-linecap="butt"/></g></g></svg>