<svg version="1.1" xmlns="http://www.w3.org/2000/svg" xmlns:xlink="http://www.w3.org/1999/xlink" width="37.75" height="35.40923" viewBox="0,0,37.75,35.40923"><g transform="translate(-221.125,-169.22819)"><g data-paper-data="{&quot;isPaintingLayer&quot;:true}" fill-rule="nonzero" stroke-linejoin="miter" stroke-miterlimit="10" stroke-dasharray="" stroke-dashoffset="0" style="mix-blend-mode: normal"><g><path d="M223.54042,197.87475c0,0 -3.85059,-28.43789 16.88563,-28.64545c20.73755,-0.20758 15.82003,28.85303 15.82003,28.85303c0,0 -3.01289,0.53585 -7.29864,2.05112c-2.66447,0.94205 -5.82093,3.15407 -9.05123,3.13827c-3.5121,-0.01718 -5.66294,-2.03402 -8.2729,-2.98845c-4.31261,-1.57708 -8.08289,-2.40852 -8.08289,-2.40852z" fill="#000000" stroke="none" stroke-width="0" stroke-linecap="butt"/><path d="M257.125,197.87475c0,0 -4.30405,0.21094 -7.88612,1.45807c-3.57242,1.24378 -5.38423,3.86805 -9.55024,3.52375c-4.42369,-0.3656 -5.77926,-2.51992 -9.16064,-3.66625c-3.92543,-1.33077 -7.653,-1.31557 -7.653,-1.31557" fill="none" stroke="#dc570f" stroke-width="3.5" stroke-linecap="round"/><g stroke="none" stroke-width="0" stroke-linecap="butt"><path d="M240.65923,171.2573c2.56105,0.088 4.4958,2.16128 4.54838,2.74401c0.03901,0.43243 -1.91807,0.64749 -4.47912,0.55949c-2.56105,-0.08801 -4.99568,-0.43709 -4.79527,-0.87817c0.14646,-0.32235 2.16495,-2.51333 4.72601,-2.42533z" fill="#dc570f"/><path d="M240.60465,171.87914c1.03114,0.07497 2.26508,1.06431 1.73722,1.38842c-0.32373,0.19878 -3.79079,0.44814 -4.31484,0.14273c-0.33393,-0.19461 1.54647,-1.60612 2.57761,-1.53115z" fill="#efcfaf"/></g></g></g></g></svg>