<svg version="1.1" xmlns="http://www.w3.org/2000/svg" xmlns:xlink="http://www.w3.org/1999/xlink" width="81.67068" height="81.67068" viewBox="0,0,81.67068,81.67068"><g transform="translate(-199.16466,-139.16466)"><g data-paper-data="{&quot;isPaintingLayer&quot;:true}" fill-rule="nonzero" stroke-linejoin="miter" stroke-miterlimit="10" stroke-dasharray="" stroke-dashoffset="0" style="mix-blend-mode: normal"><path d="M199.16466,220.83534v-81.67068h81.67068v81.67068z" data-paper-data="{&quot;index&quot;:null}" fill="none" stroke="none" stroke-width="0" stroke-linecap="butt"/><path d="M242.56371,177.14423l6.31373,-1.0547c0,0 -0.11248,-1.04728 -0.73966,-2.59852c-0.82318,-2.03602 -2.33055,-4.94021 -3.60403,-7.48421c-1.76693,-3.52972 -1.13756,-10.36992 0.64225,-14.52005c1.65306,-3.85454 4.62396,-6.00942 6.81208,-6.00942c2.33684,0 3.97612,-0.25884 5.35389,2.89008c0.917,2.09581 1.71814,6.36337 2.53201,8.20865c1.23406,2.79797 2.93208,1.42772 3.43157,5.38938c0.4995,3.96166 -0.21002,8.37424 -0.73167,10.1535c-1.04926,3.57891 -2.21859,4.87893 -2.69936,4.78545c-0.42668,-0.08296 -0.67996,-3.94931 -1.37989,-5.86822c-0.57995,-1.59 -1.56898,-1.12614 -2.29466,-2.52434c-0.53425,-1.02936 -1.30992,-2.72934 -2.23157,-2.3279c-3.2703,1.42443 -0.08923,2.29034 -0.00895,5.13312c0.05309,1.87966 0.25038,3.89438 1.02961,5.20141c0.39054,0.65509 2.39772,1.55024 2.20835,2.05077c-0.14446,0.38179 -1.73791,1.10146 -2.50002,1.93156c-1.06952,1.16496 -1.4519,2.54742 -2.22267,3.51877c-1.31999,1.66349 -0.86104,4.17977 -2.89357,5.8583c-2.03253,1.67854 -5.52702,2.13786 -6.45633,1.86319z" data-paper-data="{&quot;index&quot;:null}" fill="#cccccc" stroke="none" stroke-width="0" stroke-linecap="butt"/><path d="M257.89284,162.94954c0,-0.95116 0.77107,-1.72223 1.72222,-1.72223c0.95116,0 1.72222,0.77107 1.72222,1.72223c0,0.95116 0.20908,1.72222 -0.74208,1.72222c-0.49535,0 -0.22753,-0.86255 -0.79651,-1.19733c-0.52355,-0.30806 -1.90587,-0.06908 -1.90587,-0.52489z" data-paper-data="{&quot;index&quot;:null}" fill="#a5a5a5" stroke="none" stroke-width="0" stroke-linecap="butt"/><g data-paper-data="{&quot;index&quot;:null}" stroke="none" stroke-width="0" stroke-linecap="butt"><path d="M250.75076,155.67757c0,-4.14572 0.30624,-7.7029 3.11245,-7.50648c3.19681,0.22375 3.11245,3.36076 3.11245,7.50648c0,4.14573 -1.02732,6.04181 -2.74627,6.04181c-1.71896,0 -3.47862,-1.89609 -3.47862,-6.04181z" fill="#a5a5a5"/><path d="M255.81416,153.54059c0.70781,0 0.79534,0.98642 0.79534,2.50314c0,1.51673 -0.08753,2.50316 -0.79534,2.50316c-0.70781,0 -1.40242,-0.98643 -1.40242,-2.50316c0,-1.51673 0.69461,-2.50314 1.40242,-2.50314z" fill="#ffffff"/></g><path d="M226.75644,201.01098c0,0 -3.4675,1.20653 -6.89442,1.20653c-3.42691,0 -6.87106,-0.91267 -6.89441,-1.55125c-0.28264,-0.15407 1.80345,-1.54835 3.7637,-2.63628c1.06201,-0.58942 3.13071,-2.36217 3.13071,-2.36217c0,0 0.97132,1.65989 2.01297,2.48309c2.00223,1.58233 4.88145,2.86008 4.88145,2.86008z" data-paper-data="{&quot;index&quot;:null}" fill="#cccccc" stroke="none" stroke-width="0" stroke-linecap="butt"/><path d="M242.54457,195.27574c1.48688,-1.17506 2.87337,-3.54443 2.87337,-3.54443c0,0 2.95293,2.53048 4.46887,3.37183c2.79811,1.55295 6.89667,4.66399 6.49321,4.8839c-0.03333,0.91152 -6.07041,1.09347 -10.96209,1.09347c-4.89167,0 -9.84127,-1.72222 -9.84127,-1.72222c0,0 4.10988,-1.8239 6.9679,-4.08256z" data-paper-data="{&quot;index&quot;:null}" fill="#cccccc" stroke="none" stroke-width="0" stroke-linecap="butt"/><path d="M216.63617,194.42948c0,0 -0.2004,-4.99448 -0.2004,-7.45743c0,-10.5986 1.47697,-20.51682 11.60542,-22.30423c6.65677,-1.17475 10.73614,0.18386 14.31764,5.26879c2.00429,2.84564 3.64491,4.69214 3.64491,4.69214c0,0 -0.24792,5.12519 -0.24792,7.73743c0,2.10985 2.37321,3.62507 0.9545,8.90589c-0.77113,2.87036 -3.13558,3.36398 -5.12262,4.70057c-3.15356,2.12124 -6.71605,4.12375 -11.75626,4.12375z" data-paper-data="{&quot;index&quot;:null}" fill="#a5a5a5" stroke="none" stroke-width="NaN" stroke-linecap="butt"/><g data-paper-data="{&quot;index&quot;:null}" fill="#cccccc" stroke="none" stroke-width="0" stroke-linecap="butt"><path d="M216.21748,187.32511l20.44081,-22.41792l2.15079,1.22238l-22.29951,24.79516z"/><path d="M221.5825,197.83054l22.76673,-25.16023l1.45257,1.94738l-22.63692,24.95254z"/></g><g data-paper-data="{&quot;index&quot;:null}" fill="#cccccc" stroke="none" stroke-width="0" stroke-linecap="butt"><path d="M245.1136,191.08212l-22.28331,-24.49884l2.25373,-1.0016l21.61198,23.76073z"/><path d="M237.05744,198.95514l-20.02987,-22.00415l0.8081,-2.8852l20.80415,23.14964z"/></g><path d="M220.13817,171.94886c0.64034,-1.41844 2.98473,-2.64458 2.98473,-2.64458c0,0 -1.76603,2.73094 -2.34677,4.15637c-0.61523,1.51012 -1.24708,4.66491 -1.24708,4.66491c0,0 -0.63148,-3.42859 0.60913,-6.1767z" data-paper-data="{&quot;index&quot;:null}" fill="#ffffff" stroke="none" stroke-width="0" stroke-linecap="butt"/><path d="M246.53209,174.43674c0,0 -0.41396,2.40803 -0.26348,5.39456c0.15661,3.10835 1.41211,7.05447 0.4141,10.51364c-0.73989,2.56452 -3.22316,4.8614 -5.66075,6.35086c-3.4718,2.12141 -9.02349,3.38428 -13.8968,2.58483c-2.99917,-0.49201 -5.55443,-3.00494 -7.7651,-3.53338c-2.08238,-0.49777 -4.87803,-0.07946 -4.87803,-0.07946" data-paper-data="{&quot;index&quot;:null}" fill="none" stroke="#ffffff" stroke-width="3.5" stroke-linecap="round"/></g></g></svg>