<svg version="1.1" xmlns="http://www.w3.org/2000/svg" xmlns:xlink="http://www.w3.org/1999/xlink" width="85.49398" height="85.49398" viewBox="0,0,85.49398,85.49398"><defs><linearGradient x1="-3285.69704" y1="-2895.28055" x2="-3285.69704" y2="4105.40967" gradientUnits="userSpaceOnUse" id="color-1"><stop offset="0" stop-color="#ffffff"/><stop offset="1" stop-color="#ffffff" stop-opacity="0"/></linearGradient></defs><g transform="translate(-197.25302,-137.25301)"><g data-paper-data="{&quot;isPaintingLayer&quot;:true}" fill-rule="nonzero" stroke-linecap="butt" stroke-linejoin="miter" stroke-miterlimit="10" stroke-dasharray="" stroke-dashoffset="0" style="mix-blend-mode: normal"><path d="M208.63952,205.58013c0.00324,-13.1024 0,-44.63208 0,-51.75c0,-3.5626 2.97813,-5.21784 6.54073,-5.21784c12.68063,0 43.89984,0 51,0c2.96729,0 5.18024,2.50056 5.18024,5.46784c0,6.43742 0,39.20833 0,51.75c0,2.95974 -2.72049,5.55758 -5.68024,5.55758c-6.61442,0 -39.17756,0 -52,0c-3.13138,0 -5.04177,-1.58613 -5.04073,-5.80758z" fill="url(#color-1)" stroke="#a97a4a" stroke-width="2"/><path d="M197.25302,222.74699v-85.49398h85.49398v85.49398z" fill="none" stroke="none" stroke-width="0"/><path d="M207.25301,212.74699v-65.49398h65.49398v65.49398z" fill="none" stroke="none" stroke-width="0"/><g stroke="none" stroke-width="0"><path d="M224.31013,198.98286v-19.27692h15.83509v19.27692z" fill="#aeaeae"/><path d="M224.34079,198.94819v-19.21706h1.33429v19.21706z" fill="#000000"/><g fill="#ffffff"><path d="M225.64839,198.94042v-19.85223h3.80109v19.85223z"/><path d="M230.81788,198.94042v-19.85223h3.42732v19.85223z"/><path d="M235.0862,198.94042v-19.85223h1.4951v19.85223z"/></g></g><g stroke="none" stroke-width="0"><g><path d="M224.34714,179.82866v-1.92756h15.83509v1.92756z" fill="#000000"/><path d="M220.98317,178.14668v-17.4392h19.19906v17.4392z" fill="#aeaeae"/><path d="M221.01322,178.17499v-1.24592h19.29886v1.24592z" fill="#000000"/><path d="M221.01382,177.55135v-16.81868h1.33429v16.81868z" fill="#000000"/><path d="M221.01322,161.82236v-1.24592h19.14036v1.24592z" fill="#000000"/></g><path d="M222.41487,176.92462v-12.73503h3.80109v12.73503z" fill="#ffffff"/><path d="M227.58436,176.92462v-14.06994h3.42732v14.06994z" fill="#ffffff"/><path d="M231.85267,176.92462v-12.73503h1.4951v12.73503z" fill="#ffffff"/><path d="M222.30808,163.32191v-1.4684h17.96564v1.4684z" fill="#ffffff"/></g><g stroke="none" stroke-width="0"><g><path d="M239.77818,198.97821v-19.27692h15.25392v19.27692z" data-paper-data="{&quot;index&quot;:null}" fill="#aeaeae"/><path d="M254.14266,199.02142v-19.37281h1.33429v19.37281z" data-paper-data="{&quot;index&quot;:null}" fill="#000000"/></g><g><path d="M250.49124,199.16475v-19.68384h3.80109v19.68384z" fill="#ffffff"/><path d="M247.31416,199.05398v-19.33669h3.33727v19.33669z" fill="#cccccc"/></g></g><g stroke="none" stroke-width="0"><path d="M239.81778,179.77503v-1.92756h15.83509v1.92756z" fill="#000000"/><path d="M239.81778,178.09304v-17.4392h19.19906v17.4392z" fill="#aeaeae"/><path d="M239.80778,163.26827v-1.4684h17.83215v1.4684z" fill="#ffffff"/><g><path d="M253.87549,177.00447v-12.73503h3.80109v12.73503z" fill="#ffffff"/><path d="M250.69841,177.01782v-12.74837h3.33727v12.74837z" fill="#cccccc"/></g><g fill="#000000"><path d="M239.68792,178.12134v-1.24592h19.29886v1.24592z"/><path d="M257.65189,177.49771v-16.81868h1.33429v16.81868z"/><path d="M239.84642,161.76872v-1.24592h19.14036v1.24592z"/></g></g></g></g></svg>