<svg version="1.1" xmlns="http://www.w3.org/2000/svg" xmlns:xlink="http://www.w3.org/1999/xlink" width="85.49398" height="85.49398" viewBox="0,0,85.49398,85.49398"><defs><linearGradient x1="-3285.69704" y1="-2895.28052" x2="-3285.69704" y2="4105.40968" gradientUnits="userSpaceOnUse" id="color-1"><stop offset="0" stop-color="#ffffff"/><stop offset="1" stop-color="#ffffff" stop-opacity="0"/></linearGradient></defs><g transform="translate(-197.25302,-137.25304)"><g data-paper-data="{&quot;isPaintingLayer&quot;:true}" fill-rule="nonzero" stroke-linecap="butt" stroke-linejoin="miter" stroke-miterlimit="10" stroke-dasharray="" stroke-dashoffset="0" style="mix-blend-mode: normal"><g><path d="M208.63952,205.58016c0.00324,-13.1024 0,-44.63208 0,-51.75c0,-3.5626 2.97813,-5.21784 6.54073,-5.21784c12.68063,0 43.89984,0 51,0c2.96729,0 5.18024,2.50056 5.18024,5.46784c0,6.43742 0,39.20833 0,51.75c0,2.95974 -2.72049,5.55758 -5.68024,5.55758c-6.61442,0 -39.17756,0 -52,0c-3.13138,0 -5.04177,-1.58613 -5.04073,-5.80758z" fill="url(#color-1)" stroke="#a97a4a" stroke-width="2"/><path d="M197.25302,222.74702v-85.49398h85.49398v85.49398z" fill="none" stroke="none" stroke-width="0"/></g><g stroke="none" stroke-width="0"><g data-paper-data="{&quot;index&quot;:null}"><path d="M230.0981,180.04799v-19.81222h19.81223v19.81222z" fill="#cccccc"/><g><path d="M230.03648,180.06433v-1.74303h19.92775v1.74303z" fill="#752e08"/><path d="M230.03648,175.08425v-1.74303h19.92774v1.74303z" fill="#752e08"/><path d="M230.03648,170.18717v-1.74303h19.92774v1.74303z" fill="#aeaeae"/><path d="M230.03648,165.2071v-1.74303h19.92774v1.74303z" fill="#aeaeae"/><g fill="#aeaeae"><path d="M238.51125,163.54708v-3.32005h1.68002v3.32005z"/><path d="M248.23464,163.49319v-3.32005h1.68001v3.32005z"/></g><g fill="#752e08"><path d="M233.62394,168.44416v-3.32005h1.68001v3.32005z"/><path d="M243.34732,168.47145v-3.32005h1.68002v3.32005z"/></g><g fill="#752e08"><path d="M238.51125,173.42241v-3.48243h1.68002v3.48243z"/><path d="M248.23464,173.44971v-3.48243h1.68001v3.48243z"/></g><g fill="#752e08"><path d="M233.62394,178.3213v-3.32005h1.68001v3.32005z"/><path d="M243.34732,178.3486v-3.32005h1.68002v3.32005z"/></g></g></g><path d="M230.0981,180.04799l-0.06233,-9.51877c0,0 0.2684,-8.80656 9.95189,-8.8875c9.8843,0.13838 9.9307,8.54005 9.9307,8.54005l-0.00803,9.86622z" data-paper-data="{&quot;index&quot;:null}" fill="#767676"/><path d="M230.09389,199.82686v-19.81222h19.81223v19.81222z" fill="#767676"/></g></g></g></svg>