<svg version="1.1" xmlns="http://www.w3.org/2000/svg" xmlns:xlink="http://www.w3.org/1999/xlink" width="41.03083" height="41.03081" viewBox="0,0,41.03083,41.03081"><g transform="translate(-219.42342,-159.50044)"><g data-paper-data="{&quot;isPaintingLayer&quot;:true}" fill-rule="nonzero" stroke="none" stroke-width="0" stroke-linecap="butt" stroke-linejoin="miter" stroke-miterlimit="10" stroke-dasharray="" stroke-dashoffset="0" style="mix-blend-mode: normal"><g><path d="M219.42342,200.53125v-41.03081h41.03083v41.03081z" fill="#0dba1d"/><g fill="#086c12"><path d="M251.29177,160.99349c2.26995,0 4.11011,3.88478 4.11011,8.6769c0,4.79212 -1.84016,8.6769 -4.11011,8.6769c-2.26995,0 -4.11011,-3.88478 -4.11011,-8.6769c0,-4.79212 1.84016,-8.6769 4.11011,-8.6769z"/><path d="M241.47317,174.23718c1.89162,0 3.42509,2.76023 3.42509,6.16516c0,3.40492 -1.53346,6.16516 -3.42509,6.16516c-1.89162,0 -3.42509,-2.76023 -3.42509,-6.16516c0,-3.40492 1.53346,-6.16516 3.42509,-6.16516z"/></g></g></g></g></svg>