<svg version="1.1" xmlns="http://www.w3.org/2000/svg" xmlns:xlink="http://www.w3.org/1999/xlink" width="109.33333" height="137.33333" viewBox="0,0,109.33333,137.33333"><g transform="translate(-185.33334,-111.33334)"><g data-paper-data="{&quot;isPaintingLayer&quot;:true}" fill-rule="nonzero" stroke="none" stroke-width="0" stroke-linecap="butt" stroke-linejoin="miter" stroke-miterlimit="10" stroke-dasharray="" stroke-dashoffset="0" style="mix-blend-mode: normal"><path d="M185.33334,248.66667v-137.33333h109.33333v137.33333z" fill="none"/><g data-paper-data="{&quot;index&quot;:null}"><path d="M271.11309,177.45093c-2.21951,0.09367 -4.62385,0.45802 -8.40689,0.2197c-3.01119,-0.18969 -7.56679,-1.07164 -8.76031,-0.53758c-0.71973,0.32205 -3.40114,2.27153 0.79724,4.32872c2.63659,1.29192 4.05365,1.98271 5.58569,2.30435c1.2251,0.2572 3.13401,1.12548 5.1885,1.02919c6.16584,-0.28899 -2.64899,1.76301 -11.4643,2.39514c-3.30864,0.23726 -7.14168,-1.18111 -9.42192,-0.88622c-1.41084,0.18245 -2.79487,0.83133 -3.56669,2.09411c-0.51786,0.84727 4.51875,2.01311 1.97438,2.18319c-3.177,0.21236 -11.31705,-2.96853 -14.46564,-3.49185c-4.42262,-0.73509 3.67201,4.38642 0.32059,3.41663c-1.6003,-0.46307 -8.38215,-1.58911 -11.07251,-2.99455c-2.62177,-1.3696 -2.36709,-3.76743 -3.98524,-5.21937c-2.01061,-1.80407 -5.58491,-2.60852 -5.58491,-3.57076c0,-0.95021 2.42148,-3.90616 4.23058,-4.70463c2.59248,-1.14422 3.99279,-0.93632 7.33946,-2.13094c2.18824,-0.7811 3.82615,-2.2144 5.856,-2.47169c3.06288,-0.38823 -2.08289,1.9357 0.04557,2.79994c0.69291,0.28134 5.01162,0.3848 8.12766,0.01628c2.831,-0.33482 2.62525,-1.13316 5.52657,-1.13316c3.61776,0 3.89892,0.32452 6.86348,0.89525c3.46279,0.66663 8.7149,0.39847 11.60404,1.61206c4.54675,1.90987 16.8192,3.69637 13.26864,3.8462z" data-paper-data="{&quot;index&quot;:null}" fill="#f32f00"/><path d="M245.62528,180.94384c1.80547,0.07618 -4.43512,0.98463 -6.74716,1.95581c-1.46914,0.61712 -4.13986,0.48076 -5.90071,0.81974c-1.50749,0.29021 -1.65046,0.45524 -3.49011,0.45524c-1.47533,0 -1.37071,-0.40596 -2.81029,-0.57621c-1.58452,-0.1874 -3.7806,-0.13479 -4.13295,0.00828c-1.08233,0.43947 1.53432,1.6212 -0.02317,1.42378c-1.03219,-0.13084 -1.86508,-0.85967 -2.97781,-1.25687c-1.70179,-0.60747 -2.41386,-0.50175 -3.73215,-1.08359c-0.91994,-0.40602 -2.15127,-1.90914 -2.15127,-2.39233c0,-0.4893 1.81755,-0.89837 2.83995,-1.81575c0.82284,-0.73832 0.69333,-1.95762 2.02652,-2.65407c1.36806,-0.71467 4.81666,-1.28727 5.63042,-1.52274c1.70421,-0.49314 -2.41195,2.11117 -0.16303,1.73737c1.60107,-0.26611 5.74033,-1.88361 7.35585,-1.77562c1.29383,0.08648 -1.26731,0.67932 -1.00398,1.11016c0.39247,0.64213 1.09626,0.97208 1.81367,1.06486c1.15951,0.14995 3.10863,-0.57129 4.79109,-0.45064c4.48262,0.32144 8.965,1.36489 5.82965,1.21793c-1.04472,-0.04897 -2.01542,0.39256 -2.63838,0.52335c-0.77905,0.16356 -1.49963,0.51483 -2.84035,1.17178c-2.13489,1.04609 -0.77138,2.03741 -0.4054,2.20117c0.60691,0.27158 2.92345,-0.1769 4.45465,-0.27336c1.92369,-0.12119 3.14631,0.06409 4.27494,0.11172z" data-paper-data="{&quot;index&quot;:null}" fill="#faa428"/><path d="M229.99583,177.97245c1.29282,0.54306 4.78237,1.05103 3.77281,1.09363c-0.6311,0.02664 -1.31475,0.13024 -2.39042,0.06247c-0.8562,-0.05394 -2.15154,-0.30471 -2.49091,-0.15286c-0.20464,0.09157 -0.96707,0.64588 0.22669,1.23083c0.74969,0.36734 1.15262,0.56377 1.58824,0.65522c0.34834,0.07313 0.89113,0.32002 1.4753,0.29264c1.75319,-0.08217 -0.75321,0.5013 -3.25976,0.68103c-0.94078,0.06746 -2.03067,-0.33583 -2.67903,-0.25199c-0.40116,0.05187 -0.79469,0.23637 -1.01415,0.59544c-0.14725,0.24091 1.28486,0.57241 0.56139,0.62077c-0.90335,0.06039 -3.2179,-0.84407 -4.11317,-0.99287c-1.25753,-0.20901 1.0441,1.24724 0.09116,0.97149c-0.45503,-0.13167 -2.38339,-0.45185 -3.14836,-0.85147c-0.74547,-0.38943 -0.67306,-1.07123 -1.13316,-1.48408c-0.5717,-0.51297 -1.58802,-0.74171 -1.58802,-1.01531c0,-0.27018 0.68852,-1.11069 1.20293,-1.33772c0.73714,-0.32535 1.13531,-0.26624 2.08691,-0.60591c0.6222,-0.2221 1.08793,-0.62964 1.6651,-0.7028c0.87091,-0.11039 -0.59225,0.5504 0.01296,0.79613c0.19702,0.08 1.425,0.10941 2.31102,0.00463c0.80497,-0.0952 0.74647,-0.3222 1.57143,-0.3222c1.02868,0 1.10862,0.09228 1.95157,0.25455c0.98461,0.18956 2.47799,0.11331 3.29949,0.45838z" data-paper-data="{&quot;index&quot;:null}" fill="#ffffff"/></g></g></g></svg>