<svg version="1.1" xmlns="http://www.w3.org/2000/svg" xmlns:xlink="http://www.w3.org/1999/xlink" width="112.66618" height="112.66618" viewBox="0,0,112.66618,112.66618"><g transform="translate(-183.66691,-123.66691)"><g data-paper-data="{&quot;isPaintingLayer&quot;:true}" fill-rule="nonzero" stroke-linejoin="miter" stroke-miterlimit="10" stroke-dasharray="" stroke-dashoffset="0" style="mix-blend-mode: normal"><path d="M183.66691,236.33309v-112.66618h112.66618v112.66618z" data-paper-data="{&quot;index&quot;:null}" fill="none" stroke="none" stroke-width="0" stroke-linecap="butt"/><g><path d="M223.54042,197.87475c0,0 -3.85059,-28.43789 16.88563,-28.64545c20.73755,-0.20758 15.82003,28.85303 15.82003,28.85303c0,0 -6.67956,0.53585 -10.96531,2.05112c-2.66447,0.94205 -5.82093,1.4874 -9.05123,1.4716c-3.5121,-0.01718 -3.49627,0.79932 -6.10623,-0.15511c-4.31261,-1.57708 -6.58289,-3.57519 -6.58289,-3.57519z" fill="#000000" stroke="none" stroke-width="0" stroke-linecap="butt"/><path d="M257.125,199.04142c0,0 -3.07854,-1.58492 -6.51852,-1.22234c-2.08589,0.21986 -6.01545,1.04298 -7.3676,1.51374c-3.57242,1.24378 -7.38423,3.03472 -11.55024,2.69042c-4.42369,-0.3656 -3.79221,-0.83909 -5.66064,-1.83292c-2.73187,-1.45311 -3.153,-2.31557 -3.153,-2.31557" fill="none" stroke="#dc570f" stroke-width="3.5" stroke-linecap="round"/><g stroke="none" stroke-width="0" stroke-linecap="butt"><path d="M240.65923,171.2573c2.56105,0.088 4.4958,2.16128 4.54838,2.74401c0.03901,0.43243 -1.91807,0.64749 -4.47912,0.55949c-2.56105,-0.08801 -4.99568,-0.43709 -4.79527,-0.87817c0.14646,-0.32235 2.16495,-2.51333 4.72601,-2.42533z" fill="#dc570f"/><path d="M240.60465,171.87914c1.03114,0.07497 2.26508,1.06431 1.73722,1.38842c-0.32373,0.19878 -3.79079,0.44814 -4.31484,0.14273c-0.33393,-0.19461 1.54647,-1.60612 2.57761,-1.53115z" fill="#efcfaf"/></g></g></g></g></svg>