<svg version="1.1" xmlns="http://www.w3.org/2000/svg" xmlns:xlink="http://www.w3.org/1999/xlink" width="41.07123" height="41.71393" viewBox="0,0,41.07123,41.71393"><defs><linearGradient x1="219.62787" y1="180.25205" x2="259.57213" y2="180.25205" gradientUnits="userSpaceOnUse" id="color-1"><stop offset="0" stop-color="#ffffff"/><stop offset="1" stop-color="#eaeaea"/></linearGradient></defs><g transform="translate(-219.35,-159.43607)"><g data-paper-data="{&quot;isPaintingLayer&quot;:true}" fill-rule="nonzero" stroke-linejoin="miter" stroke-miterlimit="10" stroke-dasharray="" stroke-dashoffset="0" style="mix-blend-mode: normal"><g><path d="M219.62787,201.06804c0,0 0.20712,-7.04657 0.67339,-12.25001c0.29067,-3.24379 0.92661,-4.66355 0.92661,-7.21803c0,-2.81532 -0.66492,-4.91131 -0.97917,-8.77959c-0.45802,-5.63815 -0.62083,-13.38434 -0.62083,-13.38434h39.14426c0,0 -0.47941,8.47472 -0.24412,16.16307c0.13639,4.45681 1.04412,8.84823 1.04412,11.60086c0,2.51963 -0.58071,5.71001 -0.77036,8.3644c-0.20938,2.93052 -0.02964,5.50364 -0.02964,5.50364z" data-paper-data="{&quot;index&quot;:null}" fill="url(#color-1)" stroke="none" stroke-width="0" stroke-linecap="butt"/><path d="M220.5,160.50409c0,0 -0.4,7.03044 -0.4,11.49591c0,2.5438 1.24868,6.36887 1.31207,10.79266c0.02494,1.7405 -1.14784,3.91177 -1.12041,5.6235c0.03184,1.98693 0.06396,4.29364 0.09313,5.97891c0.06492,3.75094 0.11521,6.00493 0.11521,6.00493" fill="none" stroke="#909090" stroke-width="1.5" stroke-linecap="round"/><path d="M258.9,160.50409c0,0 0,4.84032 0,7.49591c0,1.22982 -0.30162,4.41199 -0.1742,6.78789c0.17691,3.29882 0.80981,6.15668 0.9131,10.01375c0.12471,4.65693 -0.13469,6.28746 -0.37976,9.22829c-0.18359,2.20303 -0.35913,6.37007 -0.35913,6.37007" fill="none" stroke="#909090" stroke-width="1.5" stroke-linecap="round"/></g></g></g></svg>