<svg version="1.1" xmlns="http://www.w3.org/2000/svg" xmlns:xlink="http://www.w3.org/1999/xlink" width="41.11742" height="41.19646" viewBox="0,0,41.11742,41.19646"><g transform="translate(-219.42342,-159.50045)"><g data-paper-data="{&quot;isPaintingLayer&quot;:true}" fill-rule="nonzero" stroke="none" stroke-width="0" stroke-linecap="butt" stroke-linejoin="miter" stroke-miterlimit="10" stroke-dasharray="" stroke-dashoffset="0" style="mix-blend-mode: normal"><g><path d="M221.06253,198.06843v-35.15649h37.75262v35.15649z" data-paper-data="{&quot;index&quot;:null}" fill="#000000"/><path d="M230.16961,172.03565v-4.06509h28.64554v4.06509z" data-paper-data="{&quot;index&quot;:null}" fill="#ffffff"/><path d="M230.16961,165.7534v-3.79012h28.64554v3.79012z" data-paper-data="{&quot;index&quot;:null}" fill="#ffffff"/><path d="M219.42342,200.53126v-41.03081h8.0146v4.89394l-3.60488,1.22641l-1.04873,34.91046z" fill="#ffffff"/><path d="M222.4414,200.53126v-37.2362h4.99662v37.2362z" fill="#000000"/><path d="M221.64603,170.46578v-4.933h5.88165v4.933z" fill="#ffffff"/><path d="M222.02549,197.78701v-2.65623h5.31246v2.65623z" fill="#ffffff"/><g><path d="M252.43657,200.53126v-41.03081h8.0146v4.13502l-3.79461,1.98534l-0.66926,34.91046z" fill="#ffffff"/><path d="M255.45455,200.53126v-37.2362h4.99662v37.2362z" fill="#000000"/><path d="M254.65918,170.46578v-4.933h5.88166v4.933z" fill="#ffffff"/><path d="M255.03864,197.78701v-2.65623h5.31246v2.65623z" fill="#ffffff"/></g><path d="M231.4639,200.69691v-10.27429c0,0 -0.42952,-8.09428 8.34752,-8.16158c9.02168,-0.06917 8.72699,8.16158 8.72699,8.16158v10.27429z" data-paper-data="{&quot;index&quot;:null}" fill="#000000"/><path d="M246.1443,200.69691c0,0 0.46099,-10.59494 -0.89927,-13.66062c-2.45956,-5.5432 -9.80021,-3.63162 -9.80021,-3.63162c0,0 0.39007,-0.27974 0.6783,-0.40226c1.10551,-0.46992 2.47985,-0.75447 4.18828,-0.74137c8.77704,0.0673 8.34752,8.16158 8.34752,8.16158v10.27429z" data-paper-data="{&quot;index&quot;:null}" fill="#dc570f"/><path d="M231.4639,200.69691v-10.27429c0,0 -0.42952,-8.09429 8.34752,-8.16158c1.70843,-0.0131 3.08277,0.27144 4.18828,0.74137c0.28823,0.12252 0.67829,0.40226 0.67829,0.40226c0,0 -7.34064,-1.91158 -9.80021,3.63162c-1.36026,3.06567 -0.89927,13.66061 -0.89927,13.66061z" data-paper-data="{&quot;index&quot;:null}" fill="#ffffff"/><g><path d="M236.48999,188.72762c0,-1.62418 1.31665,-2.94082 2.94083,-2.94082c1.62418,0 2.94082,1.31665 2.94082,2.94082c0,1.62418 -1.31665,2.94083 -2.94082,2.94083c-1.62418,0 -2.94083,-1.31665 -2.94083,-2.94083z" fill="#ffffff"/><path d="M237.62837,189.866c0,-1.62418 1.31665,-2.94083 2.94083,-2.94083c1.62418,0 2.94082,1.31665 2.94082,2.94083c0,1.62418 -1.31665,2.94083 -2.94082,2.94083c-1.62418,0 -2.94083,-1.31665 -2.94083,-2.94083z" fill="#dc570f"/><path d="M237.05918,189.29681c0,-1.62418 1.31665,-2.94083 2.94082,-2.94083c1.62418,0 2.94082,1.31665 2.94082,2.94083c0,1.62418 -1.31665,2.94083 -2.94082,2.94083c-1.62418,0 -2.94082,-1.31665 -2.94082,-2.94083z" fill="#000000"/></g></g></g></g></svg>