<svg version="1.1" xmlns="http://www.w3.org/2000/svg" xmlns:xlink="http://www.w3.org/1999/xlink" width="85.49398" height="85.49398" viewBox="0,0,85.49398,85.49398"><defs><linearGradient x1="-3285.69704" y1="-2895.28054" x2="-3285.69704" y2="4105.40968" gradientUnits="userSpaceOnUse" id="color-1"><stop offset="0" stop-color="#ffffff"/><stop offset="1" stop-color="#ffffff" stop-opacity="0"/></linearGradient></defs><g transform="translate(-197.25301,-137.25301)"><g data-paper-data="{&quot;isPaintingLayer&quot;:true}" fill-rule="nonzero" stroke-linejoin="miter" stroke-miterlimit="10" stroke-dasharray="" stroke-dashoffset="0" style="mix-blend-mode: normal"><path d="M197.25301,222.74699v-85.49398h85.49398v85.49398z" fill="none" stroke="none" stroke-width="0" stroke-linecap="butt"/><path d="M208.63952,205.58014c0.00324,-13.1024 0,-44.63208 0,-51.75c0,-3.5626 2.97813,-5.21784 6.54073,-5.21784c12.68063,0 43.89984,0 51,0c2.96729,0 5.18024,2.50056 5.18024,5.46784c0,6.43742 0,39.20833 0,51.75c0,2.95974 -2.72049,5.55758 -5.68024,5.55758c-6.61442,0 -39.17756,0 -52,0c-3.13138,0 -5.04177,-1.58613 -5.04073,-5.80758z" fill="url(#color-1)" stroke="#a97a4a" stroke-width="2" stroke-linecap="butt"/><path d="M207.25301,212.74699v-65.49398h65.49398v65.49398z" fill="none" stroke="none" stroke-width="0" stroke-linecap="butt"/><g stroke-width="0.5"><g><g data-paper-data="{&quot;index&quot;:null}"><path d="M233.22681,188.07124c-0.47983,-1.75923 -0.46188,-6.39527 -0.20382,-7.96206c0.26589,-1.61434 0.94204,-3.54429 0.94204,-3.54429l11.95678,0.05757c0,0 0.73301,2.22887 0.85448,3.19337c0.21813,1.73214 0.19701,6.04343 -0.0843,8.30219" data-paper-data="{&quot;index&quot;:null}" fill="#efcfaf" stroke="#5c442b" stroke-linecap="butt"/><path d="M244.33558,186.55761v-2.87838" fill="none" stroke="#b2815f" stroke-linecap="round"/></g><path d="M242.28428,185.44269v-1.5903" fill="none" stroke="#b2815f" stroke-linecap="round"/><path d="M234.89405,184.03949v2.99351" fill="none" stroke="#b2815f" stroke-linecap="round"/></g><g data-paper-data="{&quot;index&quot;:null}"><path d="M243.24614,180.31793c-0.7215,-0.2666 -0.15719,-1.72716 -1.34194,-2.26328c-0.96887,-0.43843 -3.72941,0.00792 -4.13215,0.00792c-1.04303,0 0.04189,1.90706 -1.28746,2.3019c-2.51963,0.7484 -3.60886,-2.21402 -3.62797,-4.84239c-0.01209,-1.66569 -0.16388,-4.32287 0.09418,-5.88968c0.26589,-1.61434 0.94204,-4.08079 0.94204,-4.08079l11.95678,0.05757c0,0 0.73301,2.76536 0.85448,3.72986c0.21813,1.73214 0.02523,3.92446 0.12417,6.18301c0.26344,6.01417 -2.86064,5.06245 -3.58213,4.79585z" data-paper-data="{&quot;index&quot;:null}" fill="#efcfaf" stroke="#5c442b" stroke-linecap="butt"/><path d="M244.33558,177.66499l-0.05757,-6.25972" fill="none" stroke="#b2815f" stroke-linecap="round"/></g><g data-paper-data="{&quot;index&quot;:null}"><path d="M243.66137,169.50423c-0.84133,0.03333 -0.99906,-1.1543 -1.75434,-1.72002c-0.92653,-0.69399 -3.00332,-0.77237 -3.88015,-0.16466c-0.82396,0.57108 -0.44191,1.80031 -1.48471,2.11003c-1.35739,0.40318 -2.62564,-0.138 -3.21083,-2.53622c-0.17322,-0.70986 -0.3161,-1.42169 -0.32358,-2.45315c-0.0121,-1.66569 -0.25743,-3.2003 0.00063,-4.76711c0.26589,-1.61434 0.94204,-2.11366 0.94204,-2.11366l11.95678,0.05757c0,0 0.73301,0.79824 0.85448,1.76274c0.21813,1.73214 0.21839,3.92426 0.12417,6.18303c-0.09422,2.25876 -1.27012,3.56402 -3.22448,3.64144z" data-paper-data="{&quot;index&quot;:null}" fill="#efcfaf" stroke="#5c442b" stroke-linecap="butt"/><path d="M245.22974,161.20951l0.05757,5.28414" fill="none" stroke="#b2815f" stroke-linecap="round"/></g><path d="M246.65726,157.43201c0,0 -0.14611,1.33292 -0.69223,2.0848c-0.59227,0.8154 -1.89176,0.86306 -2.87199,0.50085c-0.53609,-0.19809 -0.35564,-1.31146 -1.17907,-1.71288c-1.19102,-0.58065 -3.13983,-0.27424 -3.66911,-0.27424c-1.04303,0 -0.31577,1.81764 -1.64511,2.2125c-0.62574,0.18585 -2.00835,-0.28022 -2.64249,-0.94696c-0.77386,-0.81363 -0.74314,-1.88237 -0.74314,-1.88237" data-paper-data="{&quot;index&quot;:null}" fill="#efcfaf" stroke="#5c442b" stroke-linecap="butt"/><path d="M243.32832,164.48398v1.13207" fill="none" stroke="#b2815f" stroke-linecap="round"/><path d="M242.56492,174.03944v-2.15159" fill="none" stroke="#b2815f" stroke-linecap="round"/><path d="M236.01661,176.5213v-4.91408" fill="none" stroke="#b2815f" stroke-linecap="round"/><path d="M244.21184,166.61854v-3.97119" fill="none" stroke="#b2815f" stroke-linecap="round"/><path d="M241.79764,165.45614v-4.41825" fill="none" stroke="#b2815f" stroke-linecap="round"/><path d="M241.26115,175.82825v-4.73897" fill="none" stroke="#b2815f" stroke-linecap="round"/><path d="M242.78119,174.66587v2.08551" fill="none" stroke="#b2815f" stroke-linecap="round"/><path d="M243.76476,183.65981v4.02366" fill="none" stroke="#b2815f" stroke-linecap="round"/><path d="M243.13885,187.23638v-0.71532" fill="none" stroke="#b2815f" stroke-linecap="round"/><path d="M235.35979,175.47059v2.26434" fill="none" stroke="#b2815f" stroke-linecap="round"/><path d="M233.84529,163.18333v3.07439" fill="none" stroke="#b2815f" stroke-linecap="round"/><path d="M235.06385,168.28866v-3.07439" fill="none" stroke="#b2815f" stroke-linecap="round"/><path d="M234.96231,157.59823v1.11702" fill="none" stroke="#b2815f" stroke-linecap="round"/></g></g></g></svg>