<svg version="1.1" xmlns="http://www.w3.org/2000/svg" xmlns:xlink="http://www.w3.org/1999/xlink" width="44.76582" height="53.32756" viewBox="0,0,44.76582,53.32756"><g transform="translate(-217.61708,-146.9395)"><g data-paper-data="{&quot;isPaintingLayer&quot;:true}" fill-rule="nonzero" stroke-linejoin="miter" stroke-miterlimit="10" stroke-dasharray="" stroke-dashoffset="0" style="mix-blend-mode: normal"><g><path d="M257.65894,167.68237c0,1.2017 -7.91055,3.46158 -17.66872,3.46158c-9.75817,0 -17.66872,-2.25988 -17.66872,-3.46158c0,-1.2017 7.91055,-2.17587 17.66872,-2.17587c9.75817,0 17.66872,0.97417 17.66872,2.17587z" fill="#f32f00" stroke="none" stroke-width="0" stroke-linecap="butt"/><path d="M229.24654,183.79861c0.32661,-5.15587 4.3563,-9.35424 10.854,-9.35424c6.4977,0 10.854,4.18803 10.854,9.35424c0,1.02257 0.2405,5.65959 0.2405,5.65959l-22.52712,0.22298c0,0 0.38574,-2.83794 0.57861,-5.88257z" data-paper-data="{&quot;index&quot;:null}" fill="#f29e4a" stroke="none" stroke-width="0" stroke-linecap="butt"/><g data-paper-data="{&quot;index&quot;:null}" fill="#f29e4a" stroke="none" stroke-width="0" stroke-linecap="butt"><path d="M225.39917,173.65984l8.55633,3.34385l-2.71162,5.92902l-8.01541,-5.80959z"/><path d="M221.21817,175.50878c0.0227,-0.32893 -2.62655,-0.19156 -3.17675,-0.45647c-0.66251,-0.31898 -0.5625,-0.78166 0.39347,-0.94642c0.79627,-0.13724 2.47706,0.1368 2.56437,-0.46942c0.0847,-0.58806 -2.51923,0.21029 -2.4233,-0.66429c0.16179,-1.47519 4.52208,-0.36334 4.74794,-0.39727c0.22586,-0.03393 0.39541,-0.21833 0.27621,-0.45578c-0.14548,-0.2898 -0.49191,-0.81412 -0.54587,-1.06421c-0.11299,-0.52373 0.22812,-0.83638 0.57531,-0.80311c0.31538,0.03023 0.54232,0.37298 0.81168,0.5693c0.79747,0.58122 1.43121,1.1914 1.67939,2.14649c0.23323,0.89755 0.9528,1.90056 0.88846,2.57199c-0.1602,1.67173 -1.98407,2.86459 -4.07373,2.66434c-1.46378,-0.14027 -2.9044,0.60564 -3.15678,-0.22652c-0.08607,-0.28379 0.19957,-0.49363 0.59214,-0.52903c0.43987,-0.03968 0.98699,0.0893 0.76009,-0.42002c-0.16411,-0.36839 -2.71777,0.33883 -2.6971,-0.53959c0.0049,-0.20823 0.14847,-0.46756 0.43135,-0.55573c0.78975,-0.24613 2.32638,-0.03699 2.35311,-0.42425z"/></g><g data-paper-data="{&quot;index&quot;:null}" fill="#f29e4a" stroke="none" stroke-width="0" stroke-linecap="butt"><path d="M256.77156,177.04718l-8.01541,5.80959l-2.71162,-5.92902l8.55633,-3.34385z"/><path d="M261.95859,174.97635c-0.55021,0.26491 -3.19947,0.12754 -3.17676,0.45647c0.02673,0.38728 1.56337,0.17813 2.35311,0.42425c0.28287,0.08815 0.42645,0.3475 0.43134,0.55573c0.02067,0.87842 -2.533,0.1712 -2.69711,0.53959c-0.2269,0.50932 0.32022,0.38034 0.76009,0.42001c0.39257,0.03542 0.67821,0.24525 0.59214,0.52904c-0.25237,0.83216 -1.69299,0.08625 -3.15678,0.22652c-2.08965,0.20026 -3.91353,-0.99262 -4.07373,-2.66434c-0.06434,-0.67143 0.65523,-1.67445 0.88846,-2.57199c0.24818,-0.95509 0.88191,-1.56527 1.67939,-2.14649c0.26937,-0.19632 0.49631,-0.53908 0.81168,-0.5693c0.34721,-0.03327 0.68831,0.27938 0.57531,0.80311c-0.05395,0.25008 -0.40039,0.77441 -0.54587,1.06421c-0.1192,0.23747 0.05035,0.42185 0.27621,0.45578c0.22585,0.03394 4.58615,-1.07792 4.74794,0.39727c0.09592,0.87458 -2.508,0.07624 -2.4233,0.6643c0.08731,0.60622 1.7681,0.33218 2.56437,0.46942c0.95597,0.16476 1.05598,0.62744 0.39347,0.94642z"/></g><path d="M228.23771,192.09777c0,-0.96026 -0.39564,-4.53793 1.37678,-5.5763c1.04235,-0.61067 19.08948,-0.29557 20.2424,-0.17248c1.86638,0.19927 1.87243,1.79628 1.87243,5.74879c0,3.95251 -4.80246,7.15665 -11.74581,7.15665c-6.94335,0 -11.74581,-3.20414 -11.74581,-7.15665z" data-paper-data="{&quot;index&quot;:null}" fill="#ffe2e2" stroke="none" stroke-width="0" stroke-linecap="butt"/><g data-paper-data="{&quot;index&quot;:null}" stroke="none" stroke-width="0" stroke-linecap="butt"><path d="M229.55927,190.51494c3.39449,-0.15021 7.67871,4.23667 8.17115,7.29969c0.33648,2.09292 -2.75447,2.42076 -6.15228,2.42076c-3.39781,0 -7.49819,0.34511 -8.00291,-1.24309c-0.32815,-1.03259 -1.61974,-8.14088 5.98404,-8.47736z" fill="#f32f00"/><path d="M227.85624,192.01285c0.32197,0.39685 0.0273,1.1694 -0.65817,1.72554c-0.68547,0.55614 -1.50217,0.68526 -1.82414,0.28841c-0.32197,-0.39685 -0.0273,-1.1694 0.65817,-1.72554c0.68547,-0.55614 1.50217,-0.68526 1.82414,-0.28841z" fill="#ffe2e2"/></g><g data-paper-data="{&quot;index&quot;:null}" stroke="none" stroke-width="0" stroke-linecap="butt"><path d="M256.50706,198.82564c-0.50471,1.5882 -4.6051,1.24309 -8.00291,1.24309c-3.39781,0 -6.48876,-0.32785 -6.15228,-2.42076c0.49244,-3.06301 4.77666,-7.4499 8.17115,-7.29969c7.60378,0.33648 6.31219,7.44477 5.98404,8.47736z" fill="#f32f00"/><path d="M254.05019,192.13459c0.68547,0.55614 0.98015,1.32869 0.65817,1.72554c-0.32197,0.39685 -1.13867,0.26773 -1.82414,-0.28841c-0.68547,-0.55614 -0.98015,-1.32869 -0.65817,-1.72554c0.32197,-0.39686 1.13867,-0.26773 1.82414,0.28841z" fill="#ffe2e2"/></g><g data-paper-data="{&quot;index&quot;:null}" fill="#f32f00" stroke="none" stroke-width="0" stroke-linecap="butt"><path d="M254.12777,185.84635c0,0 -2.35242,1.01518 -3.20727,1.39761c-1.56802,0.70149 -4.51178,1.65317 -4.51178,1.65317c0,0 0.02808,-5.48669 -0.31123,-7.86181c-0.28118,-1.96827 -1.58319,-5.39907 -1.58319,-5.39907c0,0 1.94816,-0.27185 2.62227,-0.30249c1.09667,-0.04985 2.39266,2.37922 2.39266,2.37922c0,0 1.061,2.04423 1.90732,3.2585z" data-paper-data="{&quot;index&quot;:null}"/><path d="M240.25782,177.9366c-2.02766,0 -5.31337,-0.81189 -5.31337,-0.81189v-1.35315c0,0 3.26579,0.81189 5.31337,0.81189c1.91243,0 4.77211,-0.81189 4.77211,-0.81189v1.35315c0,0 -2.83462,0.81189 -4.77211,0.81189z"/><path d="M228.47044,180.97148c0.86009,-1.21427 1.93837,-3.2585 1.93837,-3.2585c0,0 1.31709,-2.42907 2.43161,-2.37922c0.68508,0.03064 2.66495,0.30249 2.66495,0.30249c0,0 -1.3232,3.4308 -1.60896,5.39907c-0.34483,2.37513 -0.31629,7.86181 -0.31629,7.86181c0,0 -2.99168,-0.95169 -4.58522,-1.65317c-0.86877,-0.38244 -3.25947,-1.39761 -3.25947,-1.39761z" data-paper-data="{&quot;index&quot;:null}"/></g><path d="M248.83305,168.03145c-0.15649,6.91753 -3.95857,8.84172 -8.84172,8.84172c-4.88315,0 -8.84172,-1.61121 -8.84172,-8.84172c0,-4.88315 3.95857,-8.84172 8.84172,-8.84172c4.88315,0 8.95216,3.95982 8.84172,8.84172z" data-paper-data="{&quot;index&quot;:null}" fill="#f29e4a" stroke="none" stroke-width="0" stroke-linecap="butt"/><g data-paper-data="{&quot;index&quot;:null}" fill="none" stroke="#000000" stroke-width="1.5" stroke-linecap="round"><path d="M242.13337,167.82296v1.81735"/><path d="M237.8093,169.55041v-1.72744"/></g><g stroke="none" stroke-width="0" stroke-linecap="butt"><path d="M257.75674,167.47059c0.0216,1.825 -7.95385,-1.55273 -17.76541,-1.55273c-9.81157,0 -17.7654,3.71134 -17.7654,1.55273c0,-6.84155 2.01588,-20.41811 17.7654,-20.53041c15.74989,-0.11231 17.6846,13.70184 17.76541,20.53041z" data-paper-data="{&quot;index&quot;:null}" fill="#ffe2e2"/><path d="M240.00891,153.13217c2.31135,0 4.18508,2.44882 4.18508,5.46957c0,3.02076 -1.87372,5.46957 -4.18508,5.46957c-2.31135,0 -4.18508,-2.44882 -4.18508,-5.46957c0,-3.02075 1.87372,-5.46957 4.18508,-5.46957z" fill="#f32f00"/><path d="M234.71487,150.26203c1.11343,0.89276 1.30673,2.67311 0.43174,3.97652c-0.87499,1.30341 -2.48693,1.6363 -3.60036,0.74353c-1.11343,-0.89276 -1.30673,-2.67311 -0.43174,-3.97652c0.87499,-1.30341 2.48693,-1.6363 3.60036,-0.74353z" fill="#f32f00"/><path d="M222.53932,164.01621c0,0 0.00205,-2.98893 0.65539,-4.86994c0.78733,-2.26675 1.93068,-4.37135 1.93068,-4.37135c2.0206,0.30451 4.30033,2.60068 4.30033,5.27382c0,2.88134 -1.82135,5.21714 -4.06811,5.21714c-0.92064,0 -2.16017,-0.61303 -2.81828,-1.24968z" fill="#f32f00"/><path d="M248.49827,151.00557c0.87498,1.30342 0.68169,3.08376 -0.43173,3.97652c-1.11343,0.89276 -2.72536,0.55987 -3.60036,-0.74355c-0.87498,-1.30342 -0.68169,-3.08376 0.43174,-3.97652c1.11343,-0.89276 2.72536,-0.55987 3.60036,0.74355z" data-paper-data="{&quot;index&quot;:null}" fill="#f32f00"/><path d="M257.46425,164.01621c-0.65812,0.63665 -1.89764,1.24968 -2.81828,1.24968c-2.24676,0 -4.06812,-2.33579 -4.06812,-5.21714c0,-2.67314 2.27974,-4.96931 4.30033,-5.27382c0,0 1.14335,2.1046 1.93068,4.37135c0.65334,1.88101 0.65538,4.86994 0.65538,4.86994z" data-paper-data="{&quot;index&quot;:null}" fill="#f32f00"/></g><path d="M236.55,171.86667h6.9c0,0 -1.5863,3.3 -3.5,3.3c-2.14155,0 -3.4,-3.3 -3.4,-3.3z" fill="#000000" stroke="none" stroke-width="0" stroke-linecap="butt"/></g></g></g></svg>