<svg version="1.1" xmlns="http://www.w3.org/2000/svg" xmlns:xlink="http://www.w3.org/1999/xlink" width="85.49398" height="85.49398" viewBox="0,0,85.49398,85.49398"><defs><linearGradient x1="-3285.69704" y1="-2895.28053" x2="-3285.69704" y2="4105.40968" gradientUnits="userSpaceOnUse" id="color-1"><stop offset="0" stop-color="#ffffff"/><stop offset="1" stop-color="#ffffff" stop-opacity="0"/></linearGradient></defs><g transform="translate(-197.25302,-137.25303)"><g data-paper-data="{&quot;isPaintingLayer&quot;:true}" fill-rule="nonzero" stroke-linecap="butt" stroke-linejoin="miter" stroke-miterlimit="10" stroke-dasharray="" stroke-dashoffset="0" style="mix-blend-mode: normal"><path d="M208.63952,205.58015c0.00324,-13.1024 0,-44.63208 0,-51.75c0,-3.5626 2.97813,-5.21784 6.54073,-5.21784c12.68063,0 43.89984,0 51,0c2.96729,0 5.18024,2.50056 5.18024,5.46784c0,6.43742 0,39.20833 0,51.75c0,2.95974 -2.72049,5.55758 -5.68024,5.55758c-6.61442,0 -39.17756,0 -52,0c-3.13138,0 -5.04177,-1.58613 -5.04073,-5.80758z" fill="url(#color-1)" stroke="#a97a4a" stroke-width="2"/><path d="M197.25302,222.74701v-85.49398h85.49398v85.49398z" fill="none" stroke="none" stroke-width="0"/><path d="M207.25301,212.74701v-65.49398h65.49398v65.49398z" fill="none" stroke="none" stroke-width="0"/><g data-paper-data="{&quot;index&quot;:null}" stroke="none" stroke-width="0"><path d="M246.73695,167.70399h6.51348v24.59204h-6.51348z" fill="#dc570f"/><path d="M248.15959,172.51686v-3.22803h4.1084v3.22803z" fill="#ffffff"/><g fill="#000000"><path d="M234.51385,195.02968c0,0 -13.14271,-10.52161 -13.14271,-15.62707c0,-4.90641 13.14271,-14.43229 13.14271,-14.43229h14.23265v30.05936z"/><path d="M219.20079,179.85327c0,-9.77697 15.40648,-14.88295 15.40648,-14.88295v30.05936c0,0 -15.40648,-5.39944 -15.40648,-15.17641z"/><path d="M251.53434,195.02968v-30.05936h5.28223v30.05936z"/></g><path d="M235.24749,169.1421c-4.10731,0 -9.68407,4.84203 -9.68407,4.84203v-1.46729c0,0 5.57676,-4.84203 9.68407,-4.84203c3.66853,0 10.41772,0 10.41772,0v1.46729c0,0 -6.74919,0 -10.41772,0z" fill="#ffffff"/><path d="M230.84564,178.8807c0,2.90617 -2.7864,5.09543 -5.29851,5.09543c-2.51211,0 -3.79865,-2.18926 -3.79865,-5.09543c0,-0.05216 2.74997,-2.94319 5.97559,-4.01345c0.52199,-0.1732 3.12157,1.10728 3.12157,4.01345z" fill="#dc570f"/><path d="M229.42911,178.79737c0,2.48954 -2.36977,4.09552 -3.79865,4.09552c-2.51211,0 -3.88198,-1.10603 -3.88198,-4.01219c0,-0.05216 2.74998,-2.9432 5.97559,-4.01345c0.52199,-0.1732 1.70504,1.02396 1.70504,3.93013z" fill="#ffffff"/><path d="M223.43587,181.17382c-0.76984,0 -1.39392,-0.62408 -1.39392,-1.39392c0,-0.76984 0.62408,-1.39392 1.39392,-1.39392c0.76984,0 1.39392,0.62408 1.39392,1.39392c0,0.76984 -0.62408,1.39392 -1.39392,1.39392z" fill="#000000"/><path d="M242.45382,185.68108c-2.01212,0 -3.64327,-1.63115 -3.64327,-3.64327c0,-2.01212 1.63115,-3.64327 3.64327,-3.64327c2.01212,0 3.64327,1.63115 3.64327,3.64327c0,2.01212 -1.63115,3.64327 -3.64327,3.64327z" fill="#dc570f"/><g fill="#ffffff"><path d="M238.78219,188.43688c0,2.30952 -1.57662,4.18176 -3.52148,4.18176c-0.77855,0 -1.88875,-0.26016 -2.52478,-1.11956c-0.38265,-0.51704 -0.35525,-1.48938 -0.65241,-2.08081c-0.44276,-0.88122 -0.9048,-1.55387 -0.9048,-2.38264c0,-1.23649 2.77017,-1.05461 3.14608,-1.38349c0.22409,-0.19606 -0.59384,-1.64179 0.74907,-2.33119c0.43893,-0.22533 2.48259,0.21546 2.8796,0.82036c0.43769,0.6669 0.82871,2.98637 0.82871,4.29558z"/><path d="M245.16292,182.83186c1.21442,8.6052 -6.81729,7.43132 -6.81729,7.43132l-1.07645,-3.83476c0,0 5.74515,1.14343 3.3163,-3.3163c-0.70326,-1.29131 0.73467,-2.94264 2.10189,-2.94264c1.36721,0 2.27007,1.20642 2.47555,2.66239z"/></g></g></g></g></svg>