<svg version="1.1" xmlns="http://www.w3.org/2000/svg" xmlns:xlink="http://www.w3.org/1999/xlink" width="112.66618" height="112.66618" viewBox="0,0,112.66618,112.66618"><g transform="translate(-183.66691,-123.66691)"><g data-paper-data="{&quot;isPaintingLayer&quot;:true}" fill-rule="nonzero" stroke-linejoin="miter" stroke-miterlimit="10" stroke-dasharray="" stroke-dashoffset="0" style="mix-blend-mode: normal"><path d="M183.66691,236.33309v-112.66618h112.66618v112.66618z" data-paper-data="{&quot;index&quot;:null}" fill="none" stroke="none" stroke-width="0" stroke-linecap="butt"/><g><path d="M222.37963,196.42854c2.09905,-1.14883 2.83643,-1.78068 4.69133,-1.78068c3.85444,0 2.73864,3.31459 2.73864,6.09565c0,0.66082 -2.06452,0.6184 -5.91897,0.6184c-3.85444,0 -5.5656,0.04243 -5.5656,-0.44171c0,-1.44271 1.79187,-3.25325 4.05462,-4.49166z" data-paper-data="{&quot;index&quot;:null}" fill="#9bf2ff" stroke="none" stroke-width="0" stroke-linecap="butt"/><path d="M234.95374,164.60716c6.05037,-0.99634 11.12001,-0.6033 16.1641,2.80806c4.73694,3.20363 8.54674,10.94818 8.54674,10.94818l-1.04447,2.45115c0,0 0.34966,2.4726 1.22935,5.02659c0.22069,0.64073 1.2818,0.47991 1.53534,1.11761c0.74187,1.86596 0.66343,4.47467 0.46921,5.9209c-0.38054,2.83359 -18.20691,4.52416 -18.20691,4.52416c0,0 -5.24393,0.57492 -7.80794,0.57492c-8.55381,0 -14.63722,-6.1318 -16.37344,-9.8441c-2.10141,-4.49314 2.50722,-21.38987 15.48803,-23.52747z" data-paper-data="{&quot;index&quot;:null}" fill="#095352" stroke="#6d0000" stroke-width="0" stroke-linecap="butt"/><path d="M256.75442,201.30015c0,0.50929 -1.80006,0.46466 -5.85473,0.46466c-4.05468,0 -6.22645,0.04463 -6.22645,-0.65053c0,-2.92552 -1.17378,-6.41232 2.8809,-6.41232c1.95125,0 2.72694,0.66468 4.93504,1.87318c2.38029,1.30275 4.26525,3.20735 4.26525,4.725z" fill="#9bf2ff" stroke="none" stroke-width="0" stroke-linecap="butt"/><path d="M260.62662,180.03604c0,0 -5.40548,0.84042 -7.81336,3.3065c-2.40788,2.46608 -3.52162,11.7276 -8.92333,13.63815c-3.59969,1.27319 -14.21399,1.77593 -18.10555,-0.58636c-5.6317,-3.41861 -7.07285,-9.24826 -7.07285,-9.24826" data-paper-data="{&quot;index&quot;:null}" fill="none" stroke="#148382" stroke-width="3.5" stroke-linecap="round"/><path d="M227.92288,171.14629c2.33677,-2.46107 6.09112,-2.55758 6.71487,-2.09784c0.46287,0.34117 -1.04302,2.46982 -3.3798,4.93089c-2.33678,2.46107 -4.82128,4.56752 -5.08242,3.98144c-0.19085,-0.42831 -0.58944,-4.35342 1.74734,-6.81449z" fill="#148382" stroke="none" stroke-width="0" stroke-linecap="butt"/><path d="M228.49127,171.74659c0.98003,-0.95616 3.04446,-1.31016 2.90205,-0.50229c-0.08734,0.49547 -2.88555,4.15085 -3.64856,4.402c-0.4862,0.16003 -0.23352,-2.94355 0.74651,-3.8997z" fill="#9bf2ff" stroke="none" stroke-width="0" stroke-linecap="butt"/><path d="M255.58333,188.08689c0,-0.7824 0.63426,-1.41667 1.41667,-1.41667c0.7824,0 1.41667,0.63426 1.41667,1.41667c0,0.7824 -0.63426,1.41667 -1.41667,1.41667c-0.7824,0 -1.41667,-0.63426 -1.41667,-1.41667z" fill="#148382" stroke="none" stroke-width="0" stroke-linecap="butt"/></g></g></g></svg>