<svg version="1.1" xmlns="http://www.w3.org/2000/svg" xmlns:xlink="http://www.w3.org/1999/xlink" width="85.49398" height="85.49398" viewBox="0,0,85.49398,85.49398"><defs><linearGradient x1="-3285.69704" y1="-2895.28053" x2="-3285.69704" y2="4105.40968" gradientUnits="userSpaceOnUse" id="color-1"><stop offset="0" stop-color="#ffffff"/><stop offset="1" stop-color="#ffffff" stop-opacity="0"/></linearGradient></defs><g transform="translate(-197.25302,-137.25303)"><g data-paper-data="{&quot;isPaintingLayer&quot;:true}" fill-rule="nonzero" stroke-linejoin="miter" stroke-miterlimit="10" stroke-dasharray="" stroke-dashoffset="0" style="mix-blend-mode: normal"><path d="M208.63952,205.58015c0.00324,-13.1024 0,-44.63208 0,-51.75c0,-3.5626 2.97813,-5.21784 6.54073,-5.21784c12.68063,0 43.89984,0 51,0c2.96729,0 5.18024,2.50056 5.18024,5.46784c0,6.43742 0,39.20833 0,51.75c0,2.95974 -2.72049,5.55758 -5.68024,5.55758c-6.61442,0 -39.17756,0 -52,0c-3.13138,0 -5.04177,-1.58613 -5.04073,-5.80758z" fill="url(#color-1)" stroke="#a97a4a" stroke-width="2" stroke-linecap="butt"/><path d="M197.25302,222.74701v-85.49398h85.49398v85.49398z" fill="none" stroke="none" stroke-width="0" stroke-linecap="butt"/><path d="M207.25301,212.74701v-65.49398h65.49398v65.49398z" fill="none" stroke="none" stroke-width="0" stroke-linecap="butt"/><g><path d="M219.30312,200.68455v-41.32397h41.32398z" fill="#ffffff" stroke="none" stroke-width="0" stroke-linecap="butt"/><path d="M260.69693,159.31545v41.32397h-41.32398z" fill="#a5a5a5" stroke="none" stroke-width="0" stroke-linecap="butt"/><path d="M220.11695,160.25658c0,0 2.66871,2.87866 3.56892,3.77885c0.61807,0.61807 2.04738,1.57413 3.22932,2.5769c1.54002,1.30657 2.5966,2.9341 2.5966,2.9341" fill="none" stroke="#cccccc" stroke-width="1.5" stroke-linecap="round"/><path d="M260.00419,199.8289c0,0 -2.74066,-2.83147 -4.15923,-4.03339c-1.32754,-1.12477 -3.30912,-2.38525 -3.97427,-3.0504c-0.67932,-0.67932 -1.62705,-2.46683 -1.62705,-2.46683" fill="none" stroke="#cccccc" stroke-width="1.5" stroke-linecap="round"/><path d="M228.51848,191.46919v-22.89327h22.89327v22.89327z" fill="#cccccc" stroke="none" stroke-width="0" stroke-linecap="butt"/></g></g></g></svg>