<svg version="1.1" xmlns="http://www.w3.org/2000/svg" xmlns:xlink="http://www.w3.org/1999/xlink" width="21.20312" height="30.12055" viewBox="0,0,21.20312,30.12055"><defs><linearGradient x1="241.29998" y1="168.65423" x2="241.29998" y2="198.52038" gradientUnits="userSpaceOnUse" id="color-1"><stop offset="0" stop-color="#f29e4a"/><stop offset="1" stop-color="#dc570f"/></linearGradient></defs><g transform="translate(-229.21221,-168.47808)"><g data-paper-data="{&quot;isPaintingLayer&quot;:true}" fill-rule="nonzero" stroke="#000000" stroke-width="0" stroke-linecap="butt" stroke-linejoin="miter" stroke-miterlimit="10" stroke-dasharray="" stroke-dashoffset="0" style="mix-blend-mode: normal"><g><path d="M241.29997,168.65423c6.02506,0 9.11536,6.56653 9.11536,14.88402c0,8.31749 -2.89438,14.93153 -9.11536,14.88401c-1.37034,-0.00737 -3.52443,0.09812 -3.52443,0.09812c0,0 -5.59092,-7.87759 -5.59092,-14.98212c0,-6.90788 5.01768,-14.85662 5.01768,-14.85662c0,0 2.53926,-0.0274 4.09768,-0.0274z" fill="url(#color-1)"/><path d="M238.32757,168.47808c6.02507,0 9.11536,6.74265 9.11536,15.06015c0,8.3175 -2.89438,15.10767 -9.11536,15.06015c-6.62233,-0.05058 -9.11536,-6.74265 -9.11536,-15.06015c0,-8.3175 2.89212,-15.06015 9.11536,-15.06015z" fill="#bb5122"/><path d="M238.52574,174.69863c2.75057,0 4.75584,5.14661 4.75584,10.02862c0,4.882 -1.32135,8.86756 -4.16136,8.83965c-1.42571,-0.01399 -3.22484,-1.29127 -3.89042,-2.7304c-0.74578,-1.61252 -0.27093,-3.52956 -0.27093,-6.10925c0,-4.882 0.72583,-10.02862 3.56687,-10.02862z" fill="#dc570f"/><path d="M237.03954,173.80691c1.17762,0 2.70416,0.72547 3.38503,1.93831c0.90944,1.61999 0.77633,4.10953 0.77633,6.90136c0,4.882 -1.32134,9.66019 -4.16135,9.63229c-3.02321,-0.0297 -4.16135,-4.75029 -4.16135,-9.63229c0,-4.882 1.32031,-8.83965 4.16135,-8.83965z" fill="#ffffff"/><path d="M237.93125,174.69863c2.75057,0 4.16135,3.95765 4.16135,8.83965c0,4.882 -1.32134,8.86756 -4.16135,8.83965c-3.02325,-0.0297 -4.16135,-3.95765 -4.16135,-8.83965c0,-4.882 1.32031,-8.83965 4.16135,-8.83965z" fill="#bb5122"/></g></g></g></svg>