<svg version="1.1" xmlns="http://www.w3.org/2000/svg" xmlns:xlink="http://www.w3.org/1999/xlink" width="85.49398" height="85.49398" viewBox="0,0,85.49398,85.49398"><defs><linearGradient x1="-3285.69704" y1="-2895.28054" x2="-3285.69704" y2="4105.40968" gradientUnits="userSpaceOnUse" id="color-1"><stop offset="0" stop-color="#ffffff"/><stop offset="1" stop-color="#ffffff" stop-opacity="0"/></linearGradient></defs><g transform="translate(-197.25302,-137.25303)"><g data-paper-data="{&quot;isPaintingLayer&quot;:true}" fill-rule="nonzero" stroke-linecap="butt" stroke-linejoin="miter" stroke-miterlimit="10" stroke-dasharray="" stroke-dashoffset="0" style="mix-blend-mode: normal"><path d="M197.25302,222.74701v-85.49398h85.49398v85.49398z" fill="none" stroke="none" stroke-width="0"/><path d="M208.63952,205.58014c0.00324,-13.1024 0,-44.63208 0,-51.75c0,-3.5626 2.97813,-5.21784 6.54073,-5.21784c12.68063,0 43.89984,0 51,0c2.96729,0 5.18024,2.50056 5.18024,5.46784c0,6.43742 0,39.20833 0,51.75c0,2.95974 -2.72049,5.55758 -5.68024,5.55758c-6.61442,0 -39.17756,0 -52,0c-3.13138,0 -5.04177,-1.58613 -5.04073,-5.80758z" fill="url(#color-1)" stroke="#a97a4a" stroke-width="2"/><path d="M207.25301,212.74699v-65.49398h65.49398v65.49398z" fill="none" stroke="none" stroke-width="0"/><g stroke="none" stroke-width="0"><g><g data-paper-data="{&quot;index&quot;:null}"><path d="M230.22477,180.15876v-19.55877h19.55877v19.55877z" fill="#dc570f"/><g fill="#752e08"><path d="M230.16394,180.17489v-1.72073h19.67282v1.72073z"/><path d="M230.16394,175.25852v-1.72073h19.67281v1.72073z"/><path d="M230.16394,170.42409v-1.72073h19.67281v1.72073z"/><path d="M230.16394,165.50772v-1.72073h19.67281v1.72073z"/><g><path d="M238.5303,163.86894v-3.27757h1.65853v3.27757z"/><path d="M248.12929,163.81573v-3.27758h1.65852v3.27758z"/></g><g><path d="M233.70551,168.70337v-3.27757h1.65852v3.27757z"/><path d="M243.3045,168.73032v-3.27758h1.65853v3.27758z"/></g><g><path d="M238.5303,173.61793v-3.43788h1.65853v3.43788z"/><path d="M248.12929,173.64489v-3.43788h1.65852v3.43788z"/></g><g><path d="M233.70551,178.45415v-3.27757h1.65852v3.27757z"/><path d="M243.3045,178.48111v-3.27758h1.65853v3.27758z"/></g></g></g><path d="M230.22477,180.15876l-0.06154,-9.397c0,0 0.26497,-8.6939 9.82458,-8.7738c9.75785,0.13661 9.80365,8.4308 9.80365,8.4308l-0.00792,9.74001z" data-paper-data="{&quot;index&quot;:null}" fill="#000000"/></g><path d="M230.22062,199.46184v-19.55877h19.55877v19.55877z" fill="#000000"/></g></g></g></svg>