<svg version="1.1" xmlns="http://www.w3.org/2000/svg" xmlns:xlink="http://www.w3.org/1999/xlink" width="41.41939" height="41.41938" viewBox="0,0,41.41939,41.41938"><g transform="translate(-219.23048,-159.30581)"><g data-paper-data="{&quot;isPaintingLayer&quot;:true}" fill-rule="nonzero" stroke="none" stroke-width="0" stroke-linecap="butt" stroke-linejoin="miter" stroke-miterlimit="10" stroke-dasharray="" stroke-dashoffset="0" style="mix-blend-mode: normal"><g><path d="M219.23048,200.72519v-41.41938h41.41939v41.41938z" data-paper-data="{&quot;index&quot;:null}" fill="#efcfaf"/><g fill="#dc570f"><path d="M221.3,172.4v-1.8c0,0 4.01902,5.8 6.04241,5.8c2.15934,0 6.53234,-5.8 6.53234,-5.8v1.8c0,0 -4.39733,5.8 -6.53234,5.8c-2.05339,0 -6.04241,-5.8 -6.04241,-5.8z"/><path d="M233.7581,172.45714v-1.8c0,0 4.01902,5.8 6.04241,5.8c2.15934,0 6.53234,-5.8 6.53234,-5.8v1.8c0,0 -4.39733,5.8 -6.53234,5.8c-2.05339,0 -6.04241,-5.8 -6.04241,-5.8z"/><path d="M246.23954,172.45715v-1.8c0,0 4.01902,5.8 6.04241,5.8c2.15934,0 6.53234,-5.8 6.53234,-5.8v1.8c0,0 -4.39733,5.8 -6.53234,5.8c-2.05339,0 -6.04241,-5.8 -6.04241,-5.8z"/></g><path d="M219.23048,200.72519v-41.41938h2.01939v41.41938z" data-paper-data="{&quot;index&quot;:null}" fill="#000000"/><path d="M258.63048,200.72519v-41.41938h2.01939v41.41938z" data-paper-data="{&quot;index&quot;:null}" fill="#000000"/></g></g></g></svg>