<svg version="1.1" xmlns="http://www.w3.org/2000/svg" xmlns:xlink="http://www.w3.org/1999/xlink" width="85.49398" height="85.49398" viewBox="0,0,85.49398,85.49398"><defs><linearGradient x1="-3285.69704" y1="-2895.28055" x2="-3285.69704" y2="4105.40967" gradientUnits="userSpaceOnUse" id="color-1"><stop offset="0" stop-color="#ffffff"/><stop offset="1" stop-color="#ffffff" stop-opacity="0"/></linearGradient></defs><g transform="translate(-197.25302,-137.25301)"><g data-paper-data="{&quot;isPaintingLayer&quot;:true}" fill-rule="nonzero" stroke-linejoin="miter" stroke-miterlimit="10" stroke-dasharray="" stroke-dashoffset="0" style="mix-blend-mode: normal"><path d="M208.63952,205.58013c0.00324,-13.1024 0,-44.63208 0,-51.75c0,-3.5626 2.97813,-5.21784 6.54073,-5.21784c12.68063,0 43.89984,0 51,0c2.96729,0 5.18024,2.50056 5.18024,5.46784c0,6.43742 0,39.20833 0,51.75c0,2.95974 -2.72049,5.55758 -5.68024,5.55758c-6.61442,0 -39.17756,0 -52,0c-3.13138,0 -5.04177,-1.58613 -5.04073,-5.80758z" fill="url(#color-1)" stroke="#a97a4a" stroke-width="2" stroke-linecap="butt"/><path d="M197.25302,222.74699v-85.49398h85.49398v85.49398z" fill="none" stroke="none" stroke-width="0" stroke-linecap="butt"/><g><g stroke="none" stroke-linecap="butt"><path d="M230.9763,197.49428v-17.8103h17.81031v17.8103z" fill="#0dba1d" stroke-width="0"/><g fill="none" stroke-width="1" font-family="sans-serif" font-weight="normal" font-size="12" text-anchor="start"/></g><g><path d="M213.57408,197.45934l17.57906,-17.57906v17.57906z" fill="#0dba1d" stroke="none" stroke-width="0" stroke-linecap="butt"/><path d="M213.18475,197.08753l17.71544,-17.52999" data-paper-data="{&quot;index&quot;:null}" fill="none" stroke="#086c12" stroke-width="1.5" stroke-linecap="round"/></g><g><path d="M248.69155,197.45934v-17.57905l17.57906,17.57905z" data-paper-data="{&quot;index&quot;:null}" fill="#0dba1d" stroke="none" stroke-width="0" stroke-linecap="butt"/><path d="M266.27168,197.08753l-17.5918,-17.52999" fill="none" stroke="#086c12" stroke-width="1.5" stroke-linecap="round"/></g><g><path d="M231.17337,179.81182c0,0 3.72379,-3.53895 8.58599,-3.61722c5.42787,-0.08439 8.8314,3.61722 8.8314,3.61722z" fill="#0dba1d" stroke="none" stroke-width="0" stroke-linecap="butt"/><path d="M231.06283,179.42511c0,0 3.55531,-3.3845 9.00969,-3.41123c5.17301,-0.02535 8.4676,3.41123 8.4676,3.41123" fill="none" stroke="#086c12" stroke-width="1.5" stroke-linecap="round"/></g><g fill="#086c12" stroke="none" stroke-width="0" stroke-linecap="butt"><g><path d="M244.57496,179.98056c1.04086,0 1.88465,1.78133 1.88465,3.97871c0,2.19738 -0.84379,3.97871 -1.88465,3.97871c-1.04086,0 -1.88465,-1.78133 -1.88465,-3.97871c0,-2.19738 0.84379,-3.97871 1.88465,-3.97871z"/><path d="M240.07273,186.05333c0.86738,0 1.57054,1.26568 1.57054,2.82697c0,1.56129 -0.70315,2.82697 -1.57054,2.82697c-0.86738,0 -1.57054,-1.26568 -1.57054,-2.82697c0,-1.56129 0.70315,-2.82697 1.57054,-2.82697z"/></g></g></g></g></g></svg>