<svg version="1.1" xmlns="http://www.w3.org/2000/svg" xmlns:xlink="http://www.w3.org/1999/xlink" width="85.49398" height="85.49398" viewBox="0,0,85.49398,85.49398"><defs><linearGradient x1="-3285.69704" y1="-2895.28054" x2="-3285.69704" y2="4105.40968" gradientUnits="userSpaceOnUse" id="color-1"><stop offset="0" stop-color="#ffffff"/><stop offset="1" stop-color="#ffffff" stop-opacity="0"/></linearGradient></defs><g transform="translate(-199.57062,-137.63928)"><g data-paper-data="{&quot;isPaintingLayer&quot;:true}" fill-rule="nonzero" stroke-linejoin="miter" stroke-miterlimit="10" stroke-dasharray="" stroke-dashoffset="0" style="mix-blend-mode: normal"><path d="M199.57062,223.13326v-85.49398h85.49398v85.49398z" fill="none" stroke="none" stroke-width="0" stroke-linecap="butt"/><path d="M208.63952,205.58014c0.00324,-13.1024 0,-44.63208 0,-51.75c0,-3.5626 2.97813,-5.21784 6.54073,-5.21784c12.68063,0 43.89984,0 51,0c2.96729,0 5.18024,2.50056 5.18024,5.46784c0,6.43742 0,39.20833 0,51.75c0,2.95974 -2.72049,5.55758 -5.68024,5.55758c-6.61442,0 -39.17756,0 -52,0c-3.13138,0 -5.04177,-1.58613 -5.04073,-5.80758z" fill="url(#color-1)" stroke="#a97a4a" stroke-width="2" stroke-linecap="butt"/><g stroke-width="1"><g stroke-linecap="butt"><path d="M231.29519,169.64766c-1.64611,-4.88071 -0.39956,-9.32711 5.57897,-9.85079c5.97853,-0.52368 10.5287,1.55151 12.81728,8.06763c1.70685,4.85981 1.78128,9.54965 1.78128,9.54965l-19.28808,-2.74817c0,0 0.15322,-1.92682 -0.88945,-5.01832z" fill="#20ad00" stroke="none"/><path d="M245.8049,163.09779c0.21781,2.48666 0.15301,6.03674 -0.58976,6.1018c-0.29399,0.02575 -2.24175,-5.62518 -4.40567,-6.6448c-1.47219,-0.69368 -3.26436,1.731 -4.90801,1.89483c-2.04442,0.20378 -4.07311,-1.89232 -4.14606,-2.72517c-0.1267,-1.44648 1.77836,-3.04527 4.89218,-3.5627c3.11382,-0.51743 5.0948,-0.22953 7.1606,1.6908c1.24564,1.15792 1.91479,2.30986 1.99672,3.24524z" fill="#f29e4a" stroke="none"/><path d="M235.55431,163.72291c0.36555,-0.18821 0.5154,-3.13931 4.50652,-3.3741c2.68604,-0.15801 4.48394,1.0428 4.73003,3.8524c0.2461,2.8096 -1.11566,5.01542 -3.79608,5.25021c-1.02836,0.09008 -7.24673,1.90225 -9.77202,-0.04726c-1.42755,-1.10207 -2.29702,-3.53202 -1.98807,-5.37248c0.23068,-1.37417 1.40486,-2.37748 1.94664,-2.4822c3.19481,-0.61752 3.77737,2.48009 4.37297,2.17344z" fill="#ffffff" stroke="#20ad00"/><path d="M236.2759,169.39338c0.74277,-0.06506 1.38388,0.32725 1.43197,0.87626c0.04809,0.549 -0.51506,1.0468 -1.25783,1.11186c-0.74277,0.06506 -1.38388,-0.32725 -1.43197,-0.87626c-0.04809,-0.549 0.51506,-1.0468 1.25783,-1.11186z" fill="#f29e4a" stroke="none"/><path d="M237.69506,166.08725c0.5813,-0.05092 1.12591,0.74556 1.21643,1.77897c0.09052,1.03341 -0.30733,1.91244 -0.88863,1.96336c-0.5813,0.05092 -1.12591,-0.74556 -1.21643,-1.77897c-0.09052,-1.03341 0.30733,-1.91244 0.88863,-1.96336z" fill="#20ad00" stroke="none"/><path d="M234.44101,166.60798c0.5813,-0.05092 1.11903,0.66701 1.20106,1.60355c0.08203,0.93653 -0.3227,1.73702 -0.90399,1.78793c-0.5813,0.05092 -1.11903,-0.66701 -1.20106,-1.60355c-0.08203,-0.93653 0.3227,-1.73702 0.90399,-1.78793z" fill="#20ad00" stroke="none"/></g><path d="M240.10371,173.66599c3.67097,0 7.62124,-0.32312 10.13947,2.47031c0.87732,0.9732 0.90953,2.37433 1.4256,3.67046c0.80617,2.02473 1.84473,4.10933 1.84473,6.33457c0,0.98323 -1.10281,2.87653 -1.17846,4.21106c-0.05615,0.99056 0.94642,1.37758 0.7863,2.41587c-0.20699,1.34221 -0.52303,2.6724 -1.00545,3.85637c-0.99235,2.43544 -2.97891,4.05875 -4.72877,4.85519c-3.82448,1.74071 -6.93045,-1.36688 -7.28342,-1.32676c-1.54212,0.1753 -3.44651,2.72761 -7.18147,1.64611c-1.80953,-0.52398 -4.10626,-2.32141 -5.18007,-5.02793c-0.56809,-1.43186 -1.10007,-2.19686 -0.7227,-4.69108c0.214,-1.41439 0.82004,-1.17226 0.59255,-2.39402c-0.13118,-0.70447 -1.12554,-2.99449 -1.12554,-3.54481c0,-2.20896 0.72915,-3.78573 1.33345,-5.67712c0.51468,-1.61087 0.78809,-3.60064 2.06807,-4.77884c2.48207,-2.2847 6.9403,-2.01938 10.21572,-2.01938z" data-paper-data="{&quot;index&quot;:null}" fill="#ffffff" stroke="#20ad00" stroke-linecap="butt"/><path d="M226.91578,192.299l1.64615,-4.49948" fill="none" stroke="#20ad00" stroke-linecap="round"/><path d="M250.40085,187.58004c0,0 0.68357,0.81215 0.97587,1.32367c0.40309,0.70542 1.43848,2.51734 1.43848,2.51734" fill="none" stroke="#20ad00" stroke-linecap="round"/><path d="M245.02342,194.71336c0,0 -1.6292,1.92139 -5.15793,1.86564c-3.27503,-0.05175 -4.71896,-1.86564 -4.71896,-1.86564" fill="none" stroke="#20ad00" stroke-linecap="round"/><path d="M237.78037,189.22619v-3.07281" fill="none" stroke="#20ad00" stroke-linecap="round"/><path d="M242.49933,186.15338v2.96307" fill="none" stroke="#20ad00" stroke-linecap="round"/><path d="M240.08223,172.66002c0,-1.85536 2.30114,-1.60352 4.59824,-1.60352c2.2971,0 4.15928,1.50405 4.15928,3.35941c0,1.85535 -1.86217,3.35941 -4.15928,3.35941c-1.30894,0 -2.83868,-0.72927 -3.72374,-1.98324c-0.66816,-0.94666 -0.8745,-2.33394 -0.8745,-3.13207z" fill="#f29e4a" stroke="none" stroke-linecap="butt"/><path d="M236.87773,172.76975c0,0.79813 -0.20635,2.18541 -0.8745,3.13207c-0.88506,1.25397 -2.41479,1.98324 -3.72374,1.98324c-2.2971,0 -4.15928,-1.50406 -4.15928,-3.35942c0,-1.85536 1.86218,-3.35941 4.15928,-3.35941c2.2971,0 4.59824,-0.25184 4.59824,1.60351z" data-paper-data="{&quot;index&quot;:null}" fill="#f29e4a" stroke="none" stroke-linecap="butt"/></g></g></g></svg>