<svg version="1.1" xmlns="http://www.w3.org/2000/svg" xmlns:xlink="http://www.w3.org/1999/xlink" width="109.33333" height="109.33333" viewBox="0,0,109.33333,109.33333"><g transform="translate(-185.33344,-125.33346)"><g data-paper-data="{&quot;isPaintingLayer&quot;:true}" fill-rule="nonzero" stroke="none" stroke-width="0" stroke-linecap="butt" stroke-linejoin="miter" stroke-miterlimit="10" stroke-dasharray="" stroke-dashoffset="0" style="mix-blend-mode: normal"><path d="M230.61616,193.09054c-0.86649,-2.90406 4.09774,-4.72683 4.09774,-4.72683c0,0 2.45865,5.93269 3.32513,8.83673c0.07032,0.23569 0.4175,3.75829 -3.76991,4.28717c-1.80085,0.22744 -3.65294,-8.39707 -3.65294,-8.39707z" data-paper-data="{&quot;index&quot;:null}" fill="#908816"/><path d="M246.80006,171.98119c0.64279,3.32952 -0.33908,8.81188 -1.64651,11.77446c-1.39924,3.17061 -3.06662,5.70399 -6.69421,5.80872c-13.6304,0.39354 -11.94516,-4.78827 -10.42875,-10.23199c0.53857,-1.93341 2.05129,-3.46517 2.99172,-4.6438c1.80827,-2.26627 3.64798,-3.22696 7.43703,-3.22696z" data-paper-data="{&quot;index&quot;:null}" fill="#908816"/><path d="M239.65922,172.16697l3.43187,-0.16252c0,0 -1.94437,7.57745 -1.32499,8.94983c0.93855,2.07959 4.19181,0.08768 4.19181,0.08768c0,0 -2.44431,8.79015 -5.84286,10.48107c-0.68155,0.33909 -3.40072,2.14997 -3.40072,2.14997c0,0 -0.71853,-2.17245 -2.64765,-1.93974c-2.60956,0.3148 -7.18538,2.16539 -7.18538,2.16539l-2.75379,-5.31126c0,0 1.22084,-1.77756 1.70646,-2.33085c0.531,-0.605 -1.36014,-3.41802 2.2874,-7.92637c0.53808,-0.66506 0.97166,-0.63212 2.13937,-1.63725c1.93669,-1.66703 0.72475,3.13002 2.44033,5.02384c1.52633,1.68493 3.89061,-0.92912 5.04082,-2.52672c1.15021,-1.5976 1.91734,-7.02307 1.91734,-7.02307z" data-paper-data="{&quot;index&quot;:null}" fill="#f32f00"/><path d="M224.87941,201.38847c-1.78057,0.3858 -2.79577,-4.2581 -4.31687,-8.032c-1.52109,-3.7739 3.81329,-4.78344 3.81329,-4.78344c0,0 1.94901,3.45924 3.47011,7.23313c0,0 1.54927,4.60387 -2.96653,5.58231z" data-paper-data="{&quot;index&quot;:null}" fill="#908816"/><path d="M185.33345,234.66679v-109.33333h109.33333v109.33333z" fill="none"/><path d="M232.92719,164.57227c0,-4.85542 4.03781,-7.70348 10.90394,-7.4757c6.61047,0.2193 4.69022,2.12894 7.4405,4.34811c1.12532,0.908 3.24892,1.12351 4.66539,2.17303c1.41646,1.04952 2.3069,2.47596 2.3069,3.8055c0,0.93882 -1.66469,1.29868 -2.77421,1.49497c-1.96301,0.34728 -2.06196,2.37903 -3.87036,3.21789c-2.94335,1.36533 -4.95615,1.22771 -8.20683,1.22771c-4.92997,0 -7.87426,0.16604 -9.88711,-2.77308c-0.79206,-1.15655 -0.57823,-4.64736 -0.57823,-6.01844z" data-paper-data="{&quot;index&quot;:null}" fill="#f29e4a"/><path d="M244.16225,170.60974c-0.04146,-0.38096 0.95442,-0.44165 1.6617,-1.22063c0.64158,-0.70661 0.93681,-2.14784 2.04264,-2.26817c1.04463,-0.11367 2.02627,1.58691 3.39548,1.94923c1.67807,0.44405 3.66583,-0.38768 3.70937,0.01241c0.00949,0.08717 0.27304,1.77687 -0.16109,2.13249c-0.48808,0.39981 -1.68085,-0.53535 -1.68085,-0.53535c0,0 -0.71961,1.23475 -1.3328,1.52534c-1.2689,0.60133 -1.83782,-0.36864 -1.83782,-0.36864c0,0 -1.57212,0.89747 -2.06715,0.75744c-0.88916,-0.25151 -1.40015,-1.38467 -1.40015,-1.38467c0,0 -2.29256,-0.2615 -2.32934,-0.59946z" data-paper-data="{&quot;index&quot;:null}" fill="#908816"/><path d="M234.714,158.51146c3.04434,-1.44057 7.05335,-2.37897 8.30893,-0.64016c0.68823,0.95312 -3.58922,5.24878 -3.04566,6.12274c0.52579,0.84537 1.39509,1.76705 1.0406,2.90197c-0.14822,0.47454 -0.65942,1.68985 -1.24746,1.78241c-0.61778,0.09724 -1.32036,-0.931 -1.77594,-0.50963c-1.10172,1.01899 -1.34566,3.28156 -2.40326,3.28156c-1.87981,0 -4.8447,0.24523 -5.66583,-1.33633c-1.57795,-3.03924 0.41035,-5.33428 0.62186,-6.33928c0.65791,-3.12613 1.12242,-3.82271 4.16676,-5.26328z" data-paper-data="{&quot;index&quot;:null}" fill="#908816"/><path d="M235.95374,166.73541c0,-1.63509 1.15284,-2.61749 1.94011,-2.61749c0.78727,0 1.42547,0.9824 1.42547,2.61749c0,1.63509 -0.6382,2.96059 -1.42547,2.96059c-0.78727,0 -1.94011,-1.3255 -1.94011,-2.96059z" data-paper-data="{&quot;index&quot;:null}" fill="#f29e4a"/><path d="M247.43356,160.70452c0.84782,0 1.53512,1.03094 1.53512,2.30268c0,1.27173 -0.6873,2.30268 -1.53512,2.30268c-0.84782,0 -1.53512,-1.03094 -1.53512,-2.30268c0,-1.27173 0.6873,-2.30268 1.53512,-2.30268z" data-paper-data="{&quot;index&quot;:null}" fill="#908816"/><path d="M231.64372,158.73084c0.3843,-0.75573 1.80687,-5.75107 10.85551,-5.26328c5.41768,0.29205 7.1849,3.7924 7.55483,3.7625c2.90251,-0.23459 6.15162,1.01267 6.15162,1.50077c0,0.84782 -5.74385,1.53512 -12.82924,1.53512c-7.08539,0 -12.60993,0.18992 -11.73272,-1.53512z" data-paper-data="{&quot;index&quot;:null}" fill="#f32f00"/><path d="M237.83776,182.37453c0,-0.7748 0.6281,-1.4029 1.4029,-1.4029c0.7748,0 1.4029,0.6281 1.4029,1.4029c0,0.7748 -0.6281,1.4029 -1.4029,1.4029c-0.7748,0 -1.4029,-0.6281 -1.4029,-1.4029z" data-paper-data="{&quot;index&quot;:null}" fill="#f29e4a"/><path d="M228.53416,180.68544c1.40683,1.74657 -2.24746,4.49178 -5.67189,4.79572c-1.87279,0.16622 -3.56171,-1.42342 -3.08056,-2.55161c0.52117,-1.22206 1.91162,-0.80858 2.40577,-1.1566c1.24558,-0.87719 0.5268,-1.81862 2.24608,-2.87374c2.07539,-0.96184 2.42096,-0.29906 4.10059,1.78622z" data-paper-data="{&quot;index&quot;:null}" fill="#f29e4a"/><path d="M229.00091,182.58997l-3.44213,-5.172c0,0 2.79915,-2.69771 4.40814,-3.5986c1.49831,-0.83892 4.93742,-1.63409 4.93742,-1.63409l1.42595,5.93721c0,0 -2.72212,0.93306 -3.57989,1.61704c-0.92141,0.7347 -3.74946,2.85044 -3.74946,2.85044z" data-paper-data="{&quot;index&quot;:null}" fill="#908816"/></g></g></svg>