<svg version="1.1" xmlns="http://www.w3.org/2000/svg" xmlns:xlink="http://www.w3.org/1999/xlink" width="85.49398" height="85.49398" viewBox="0,0,85.49398,85.49398"><defs><linearGradient x1="-3285.69704" y1="-2895.28055" x2="-3285.69704" y2="4105.40967" gradientUnits="userSpaceOnUse" id="color-1"><stop offset="0" stop-color="#ffffff"/><stop offset="1" stop-color="#ffffff" stop-opacity="0"/></linearGradient></defs><g transform="translate(-197.25302,-137.25301)"><g data-paper-data="{&quot;isPaintingLayer&quot;:true}" fill-rule="nonzero" stroke-linecap="butt" stroke-linejoin="miter" stroke-miterlimit="10" stroke-dasharray="" stroke-dashoffset="0" style="mix-blend-mode: normal"><path d="M208.63952,205.58013c0.00324,-13.1024 0,-44.63208 0,-51.75c0,-3.5626 2.97813,-5.21784 6.54073,-5.21784c12.68063,0 43.89984,0 51,0c2.96729,0 5.18024,2.50056 5.18024,5.46784c0,6.43742 0,39.20833 0,51.75c0,2.95974 -2.72049,5.55758 -5.68024,5.55758c-6.61442,0 -39.17756,0 -52,0c-3.13138,0 -5.04177,-1.58613 -5.04073,-5.80758z" fill="url(#color-1)" stroke="#a97a4a" stroke-width="2"/><path d="M197.25302,222.74699v-85.49398h85.49398v85.49398z" fill="none" stroke="none" stroke-width="0"/><g stroke-width="0"><path d="M228.11563,176.98407c0,-6.75992 5.48,-12.23992 12.23992,-12.23992c6.75992,0 12.35415,5.00317 11.42933,11.69952c-1.35097,9.78205 -8.4289,7.08165 -10.90567,11.27833c-2.60087,4.40695 1.53405,6.45567 1.15532,7.33949c-0.37872,0.88382 -7.96949,-1.24959 -11.32969,-6.33853c-2.71463,-4.11125 -2.58922,-8.71814 -2.58922,-11.73891z" fill="#f32f00" stroke="#000000"/><path d="M245.08398,190.84578v-2.70196h2.70196v2.70196z" fill="#f32f00" stroke="#000000"/><path d="M244.54359,194.62853v-2.16156h2.16156v2.16156z" fill="#f32f00" stroke="none"/><path d="M233.08796,176.6492c0,-3.65719 2.96474,-6.62193 6.62193,-6.62193c3.65719,0 6.68372,2.70676 6.18338,6.32956c-0.38656,2.79894 -4.34905,4.14436 -6.9878,6.12944c-1.55986,1.17345 -2.05148,2.87325 -2.70935,4.4085c0,0 -1.34236,-2.42942 -2.1646,-4.95238c-0.7258,-2.22704 -0.94355,-4.52695 -0.94355,-5.29319z" fill="#f29e4a" stroke="#000000"/><path d="M237.82173,175.23233c0,-1.39686 1.13237,-2.52922 2.52922,-2.52922c1.39686,0 2.52922,1.13237 2.52922,2.52922c0,1.39686 -1.13237,2.52922 -2.52922,2.52922c-1.39686,0 -2.52922,-1.13237 -2.52922,-2.52922z" fill="#ffffff" stroke="#000000"/><path d="M235.52243,177.76155c0,-0.76192 0.61766,-1.37958 1.37958,-1.37958c0.76192,0 1.37958,0.61766 1.37958,1.37958c0,0.76192 -0.61766,1.37958 -1.37958,1.37958c-0.76192,0 -1.37958,-0.61766 -1.37958,-1.37958z" fill="#ffffff" stroke="none"/></g></g></g></svg>