<svg version="1.1" xmlns="http://www.w3.org/2000/svg" xmlns:xlink="http://www.w3.org/1999/xlink" width="109.33333" height="109.33333" viewBox="0,0,109.33333,109.33333"><g transform="translate(-185.33335,-125.33334)"><g data-paper-data="{&quot;isPaintingLayer&quot;:true}" fill-rule="nonzero" stroke-linecap="butt" stroke-linejoin="miter" stroke-miterlimit="10" stroke-dasharray="" stroke-dashoffset="0" style="mix-blend-mode: normal"><path d="M185.33335,234.66667v-109.33333h109.33333v109.33333z" fill="none" stroke="none" stroke-width="0"/><g><g stroke="none" stroke-width="0"><path d="M241.60284,166.4252c5.649,0 10.10229,2.26232 11.00037,6.95551c1.54391,8.06819 -4.35979,11.12227 -10.00643,11.26218c-6.21149,0.15389 -13.86739,0.14195 -15.3462,-1.97089c-1.70394,-2.43447 3.32761,-7.16967 4.12385,-9.62251c1.54391,-4.75605 4.57943,-6.62429 10.22842,-6.62429z" data-paper-data="{&quot;index&quot;:null}" fill="#f32f00"/><path d="M225.81777,170.36453c0,0 2.3211,-1.29491 4.22768,-1.468c2.30868,-0.2096 2.68671,1.29276 2.68671,1.29276c0,0 2.61751,0.87487 2.93873,3.56565c0.37548,3.14533 -1.9732,7.72868 -0.99314,8.50267c0.47915,0.37841 11.79504,0.64222 12.74721,-0.60068c0.46823,-0.61119 3.18822,-2.57321 3.80645,-5.39324c0.62615,-2.8562 -0.85241,-6.56691 -0.85241,-6.56691l3.84287,0.58177c0,0 0.6635,4.13916 -1.38689,9.22903c-1.36094,3.37837 -1.08926,2.9279 -0.75664,4.55947c0.18953,0.92963 3.82972,3.88643 4.42651,5.28859c0.90517,2.12671 -2.00999,5.37476 -2.00999,5.37476l-12.2027,0.25715c0,0 2.08631,-2.55322 1.90277,-4.01546c-0.10648,-0.84841 -2.4093,-1.31822 -3.73662,-1.33506c-1.35674,-0.01721 -3.22975,0.43735 -3.36064,1.30337c-0.21441,1.41861 1.32332,3.92196 1.32332,3.92196l-12.75884,-0.13944c0,0 -2.83827,-5.07602 -2.2262,-6.54453c0.69898,-1.67704 5.3799,-7.4663 5.3799,-7.4663c0,0 2.10651,-1.34863 3.2041,-3.23012c0.59359,-1.01753 1.48059,-3.80716 -0.02587,-5.57254c-2.17029,-2.54331 -6.17631,-1.54489 -6.17631,-1.54489z" data-paper-data="{&quot;index&quot;:null}" fill="#ffe2e2"/></g><path d="M246.45759,200.09539c-3.36063,0 -3.72363,-5.17675 -3.72363,-5.17675c0,0 7.0837,-0.64709 10.44433,-0.64709c0.27274,0 5.4393,0.66152 4.67365,4.74536c-0.32928,1.75631 -11.39435,1.07848 -11.39435,1.07848z" data-paper-data="{&quot;index&quot;:null}" fill="#f32f00" stroke="none" stroke-width="0"/><path d="M226.01725,194.05575c3.99075,0 12.40264,0.64709 12.40264,0.64709c0,0 -0.43107,5.17675 -4.42181,5.17675c-3.99075,0 -11.66936,0.68271 -11.97126,-1.07849c-0.76565,-4.46666 3.99043,-4.74535 3.99043,-4.74535z" data-paper-data="{&quot;index&quot;:null}" fill="#f32f00" stroke="none" stroke-width="0"/><path d="M236.86651,172.12018c0,-0.89345 0.72428,-1.61773 1.61773,-1.61773c0.89345,0 1.61773,0.72428 1.61773,1.61773c0,0.89345 -0.72428,1.61773 -1.61773,1.61773c-0.89345,0 -1.61773,-0.72428 -1.61773,-1.61773z" data-paper-data="{&quot;index&quot;:null}" fill="#f29e4a" stroke="none" stroke-width="0"/><path d="M243.76885,172.12018c0,-0.89345 0.72428,-1.61773 1.61773,-1.61773c0.89345,0 1.61773,0.72428 1.61773,1.61773c0,0.89345 -0.72428,1.61773 -1.61773,1.61773c-0.89345,0 -1.61773,-0.72428 -1.61773,-1.61773z" data-paper-data="{&quot;index&quot;:null}" fill="#f29e4a" stroke="none" stroke-width="0"/><g stroke="none" stroke-width="0"><path d="M226.82834,187.45925c-1.23968,0.93496 -1.45197,4.11997 -1.45197,4.11997c0,0 -5.6074,-5.325 -5.44766,-10.28908c0.23832,-7.40581 5.98559,-12.94553 9.46595,-11.60048c7.07411,2.73389 3.39023,7.39017 3.39023,7.39017c0,0 -3.24109,1.4985 -3.25526,2.91823c-0.01523,1.52502 3.19713,5.20068 3.19713,5.20068z" data-paper-data="{&quot;index&quot;:null}" fill="#f32f00"/><path d="M226.48713,187.03117c0.77829,-1.18606 2.36431,-2.68988 3.45907,-3.11331c1.15754,-0.44772 2.61491,-0.51169 3.63866,0.16009c0.71476,0.46902 -0.4684,2.54502 -0.29393,3.501c0.31176,1.70825 1.43639,2.62116 -0.18197,5.08742c-2.54793,3.88286 -5.62169,1.77257 -7.23871,0.02279c-1.81728,-1.96647 -1.10268,-3.0375 0.61689,-5.658z" data-paper-data="{&quot;index&quot;:null}" fill="#f29e4a"/></g><g data-paper-data="{&quot;index&quot;:null}" stroke="none" stroke-width="0"><path d="M248.33832,184.23507c0,0 3.03306,-2.706 4.11739,-4.93777c0.64292,-1.32325 0.88927,-5.89418 1.43196,-7.96805c0.45181,-1.72656 1.26154,-1.11235 1.26154,-1.11235c0,0 4.59093,3.20073 4.82925,10.60655c0.15974,4.96409 -4.28974,9.79211 -4.28974,9.79211c0,0 -0.21229,-3.18501 -1.45197,-4.11997z" data-paper-data="{&quot;index&quot;:null}" fill="#f32f00"/><path d="M254.57795,186.06753c1.71957,2.6205 2.43418,3.69153 0.61689,5.658c-1.61702,1.74977 -4.69078,3.86006 -7.23871,-0.0228c-1.61836,-2.46626 -0.49373,-3.37918 -0.18197,-5.08742c0.17447,-0.95598 -1.00869,-3.03198 -0.29393,-3.501c1.02375,-0.67178 2.48111,-0.60781 3.63866,-0.16009c1.09476,0.42344 2.68077,1.92726 3.45907,3.11332z" data-paper-data="{&quot;index&quot;:null}" fill="#f29e4a"/></g><g stroke="none" stroke-width="0"><g><path d="M230.50392,161.44715c0,-6.36705 5.2949,-10.10179 14.29865,-9.80311c8.6685,0.28757 6.15042,2.79174 9.75695,5.70181c1.47567,1.19068 4.2604,1.47329 6.11786,2.84956c1.85745,1.37627 3.0251,3.2468 3.0251,4.99026c0,1.2311 -2.18296,1.703 -3.6379,1.9604c-2.57416,0.4554 -2.70391,3.11969 -5.07532,4.21972c-3.8597,1.79039 -6.49914,1.60993 -10.76186,1.60993c-6.46481,0 -10.32574,0.21774 -12.96526,-3.63643c-1.03865,-1.51662 -0.75824,-6.09422 -0.75824,-7.89215z" data-paper-data="{&quot;index&quot;:null}" fill="#f29e4a"/><path d="M245.23678,169.36422c-0.05437,-0.49956 1.25156,-0.57915 2.17903,-1.60064c0.84133,-0.9266 1.22847,-2.81652 2.67857,-2.97432c1.36986,-0.14905 2.6571,2.08096 4.45259,2.55609c2.20051,0.5823 4.80711,-0.50837 4.8642,0.01627c0.01244,0.11431 0.35805,2.33006 -0.21124,2.7964c-0.64004,0.52428 -2.20415,-0.70202 -2.20415,-0.70202c0,0 -0.94365,1.61916 -1.74774,2.00022c-1.66394,0.78854 -2.40998,-0.48341 -2.40998,-0.48341c0,0 -2.06156,1.17688 -2.71071,0.99325c-1.16598,-0.32981 -1.83606,-1.81576 -1.83606,-1.81576c0,0 -3.00631,-0.34291 -3.05453,-0.78609z" data-paper-data="{&quot;index&quot;:null}" fill="#f32f00"/><path d="M232.84703,153.49952c3.99213,-1.88906 9.24927,-3.11961 10.89574,-0.83946c0.90249,1.24985 -4.70665,6.88288 -3.99386,8.02893c0.68948,1.10856 1.82943,2.31718 1.36456,3.80544c-0.19436,0.62228 -0.86471,2.21595 -1.63583,2.33733c-0.81011,0.12751 -1.73142,-1.22085 -2.32884,-0.66829c-1.44472,1.33623 -1.7646,4.3032 -3.15146,4.3032c-2.46505,0 -6.35299,0.32157 -7.42977,-1.75236c-2.06921,-3.98544 0.5381,-6.99499 0.81546,-8.31289c0.86274,-4.09939 1.47186,-5.01283 5.464,-6.90189z" data-paper-data="{&quot;index&quot;:null}" fill="#f32f00"/><path d="M234.28992,164.28375c0,-2.14414 1.69463,-3.53921 2.727,-3.53921c1.03237,0 1.86926,1.39507 1.86926,3.53921c0,2.14414 -0.83689,3.88231 -1.86926,3.88231c-1.03237,0 -2.727,-1.73817 -2.727,-3.88231z" data-paper-data="{&quot;index&quot;:null}" fill="#f29e4a"/><path d="M249.52659,156.37533c1.11177,0 2.01305,1.3519 2.01305,3.01957c0,1.66765 -0.90128,3.01957 -2.01305,3.01957c-1.11177,0 -2.01305,-1.3519 -2.01305,-3.01957c0,-1.66765 0.90128,-3.01957 2.01305,-3.01957z" data-paper-data="{&quot;index&quot;:null}" fill="#f32f00"/><path d="M228.82094,153.78712c0.50394,-0.991 2.36941,-7.54154 14.23515,-6.90189c7.10437,0.38297 9.42176,4.97308 9.90687,4.93388c3.80614,-0.30762 8.0668,1.32794 8.0668,1.968c0,1.11177 -7.53208,2.01305 -16.82335,2.01305c-9.29128,0 -16.53577,0.24904 -15.38546,-2.01305z" data-paper-data="{&quot;index&quot;:null}" fill="#ffe2e2"/></g></g><path d="M234.06288,181.28279c0,-0.82341 0.6675,-1.49091 1.49091,-1.49091c0.82341,0 1.49091,0.6675 1.49091,1.49091c0,0.82341 -0.6675,1.49091 -1.49091,1.49091c-0.82341,0 -1.49091,-0.6675 -1.49091,-1.49091z" fill="#f29e4a" stroke="#f29e4a" stroke-width="1"/></g></g></g></svg>