<svg version="1.1" xmlns="http://www.w3.org/2000/svg" xmlns:xlink="http://www.w3.org/1999/xlink" width="112.66618" height="112.66618" viewBox="0,0,112.66618,112.66618"><g transform="translate(-183.66691,-123.66691)"><g data-paper-data="{&quot;isPaintingLayer&quot;:true}" fill-rule="nonzero" stroke-linejoin="miter" stroke-miterlimit="10" stroke-dasharray="" stroke-dashoffset="0" style="mix-blend-mode: normal"><path d="M183.66691,236.33309v-112.66618h112.66618v112.66618z" data-paper-data="{&quot;index&quot;:null}" fill="none" stroke="none" stroke-width="0" stroke-linecap="butt"/><g data-paper-data="{&quot;index&quot;:null}" stroke="none" stroke-width="0" stroke-linecap="butt"><path d="M245.96043,176.11147l6.24995,-1.38336c0,0 -0.16708,-1.03997 -0.87451,-2.55629c-0.9285,-1.9902 -2.58565,-4.81161 -3.9904,-7.28555c-1.94906,-3.43251 -1.67817,-10.29626 -0.11778,-14.53377c1.44927,-3.93569 4.30345,-6.24295 6.48857,-6.35736c2.33364,-0.12218 3.95715,-0.46637 5.49767,2.60621c1.02532,2.045 2.04848,6.26484 2.95772,8.06504c1.37866,2.72962 3.00272,1.27247 3.70865,5.2026c0.70594,3.93013 0.2281,8.37377 -0.19982,10.17787c-0.86071,3.62887 -1.96047,4.98825 -2.44547,4.92004c-0.43043,-0.06054 -0.88551,-3.90836 -1.68481,-5.78805c-0.66229,-1.5575 -1.62571,-1.04257 -2.4235,-2.40092c-0.58734,-1.00002 -1.45083,-2.65712 -2.35023,-2.20804c-3.19135,1.59346 0.03064,2.29187 0.25944,5.12657c0.15129,1.87431 0.45365,3.87596 1.30015,5.14047c0.42426,0.63378 2.47549,1.42276 2.31255,1.93251c-0.1243,0.38882 -1.67795,1.19082 -2.39561,2.05963c-1.00715,1.21928 -1.31673,2.61985 -2.03566,3.63016c-1.23121,1.73023 -0.64133,4.21907 -2.58332,6.00157c-1.94199,1.78251 -5.40769,2.4239 -6.35009,2.1982z" data-paper-data="{&quot;index&quot;:null}" fill="#dc570f"/><path d="M260.52646,161.13474c-0.04973,-0.94986 0.67997,-1.76019 1.62982,-1.80992c0.94986,-0.04973 1.76018,0.67997 1.80991,1.62983c0.04973,0.94986 0.29884,1.70893 -0.65102,1.75866c-0.49467,0.0259 -0.27232,-0.84947 -0.85802,-1.15405c-0.53894,-0.28027 -1.90688,0.03066 -1.93071,-0.42453z" data-paper-data="{&quot;index&quot;:null}" fill="#148382"/><g data-paper-data="{&quot;index&quot;:null}"><path d="M255.33344,141.94349c4.30574,0.07567 4.41294,4.29138 4.70421,9.85483c0.29127,5.56345 -0.95415,8.18012 -3.26094,8.30089c-2.3068,0.12077 -4.80143,-2.30009 -5.0927,-7.86354c-0.29127,-5.56345 -0.13023,-10.35861 3.64943,-10.29218z" fill="#ffffff"/><path d="M258.32881,149.01215c0.94986,-0.04973 1.13663,1.26788 1.24319,3.30327c0.10656,2.03541 0.0584,3.36532 -0.89146,3.41505c-0.94986,0.04973 -1.95132,-1.22523 -2.05788,-3.26064c-0.10656,-2.03541 0.75629,-3.40795 1.70615,-3.45768z" fill="#148382"/></g></g><path d="M231.55746,199.27048c0,0 -2.77131,2.42486 -6.19823,2.42486c-3.42691,0 -6.34892,-0.56458 -6.37227,-1.20316c-0.28264,-0.15407 1.45536,-1.54835 3.41561,-2.63628c1.06201,-0.58942 1.21619,-3.75455 1.21619,-3.75455c0,0 2.71179,2.18203 3.75344,3.00523c2.00223,1.58233 4.18526,2.16389 4.18526,2.16389z" data-paper-data="{&quot;index&quot;:null}" fill="#dc570f" stroke="none" stroke-width="0" stroke-linecap="butt"/><path d="M246.85205,191.40947c0,0 0.03736,4.12655 1.25695,5.35885c2.25111,2.27455 4.79204,4.49457 4.34313,4.59266c-0.15273,0.46018 -1.97466,0.68989 -4.35338,0.59831c-2.09613,-0.0807 -4.62461,-0.06281 -6.82427,-0.70464c-3.65157,-1.02209 -1.65494,-6.15034 -1.65494,-6.15034z" data-paper-data="{&quot;index&quot;:null}" fill="#dc570f" stroke="none" stroke-width="0" stroke-linecap="butt"/><g><path d="M219.15369,192.82123c0,0 -0.2004,-4.99448 -0.2004,-7.45743c0,-10.5986 1.47697,-20.51682 11.60542,-22.30423c6.65677,-1.17475 10.73614,0.18386 14.31764,5.26879c2.00429,2.84564 3.64491,4.69214 3.64491,4.69214c0,0 -0.24792,5.12519 -0.24792,7.73743c0,2.10985 2.37321,3.62507 0.9545,8.90589c-0.77113,2.87036 -3.13558,3.36398 -5.12262,4.70057c-3.15356,2.12124 -6.71605,4.12375 -11.75626,4.12375z" data-paper-data="{&quot;index&quot;:null}" fill="#148382" stroke="none" stroke-width="NaN" stroke-linecap="butt"/><g data-paper-data="{&quot;index&quot;:null}" fill="#dc570f" stroke="none" stroke-width="0" stroke-linecap="butt"><path d="M218.735,185.71686l20.44081,-22.41792l2.15079,1.22238l-22.29951,24.79516z"/><path d="M224.10002,196.22229l22.76673,-25.16023l1.45257,1.94738l-22.63692,24.95254z"/></g><g data-paper-data="{&quot;index&quot;:null}" fill="#dc570f" stroke="none" stroke-width="0" stroke-linecap="butt"><path d="M247.63112,189.47387l-22.28331,-24.49884l2.25373,-1.0016l21.61198,23.76073z"/><path d="M239.57496,197.34689l-20.02987,-22.00415l0.8081,-2.8852l20.80415,23.14964z"/></g><path d="M222.65568,170.34061c0.64034,-1.41844 2.98473,-2.64458 2.98473,-2.64458c0,0 -1.76603,2.73094 -2.34677,4.15637c-0.61523,1.51012 -1.24708,4.66491 -1.24708,4.66491c0,0 -0.63148,-3.42859 0.60913,-6.1767z" data-paper-data="{&quot;index&quot;:null}" fill="#ffffff" stroke="none" stroke-width="0" stroke-linecap="butt"/><path d="M249.04961,172.82849c0,0 -0.41396,2.40803 -0.26348,5.39456c0.15661,3.10835 1.41211,7.05447 0.4141,10.51364c-0.73989,2.56452 -3.22316,4.8614 -5.66075,6.35086c-3.4718,2.12141 -9.02349,3.38428 -13.8968,2.58483c-2.99917,-0.49201 -5.55443,-3.00494 -7.7651,-3.53338c-2.08238,-0.49777 -4.87803,-0.07946 -4.87803,-0.07946" data-paper-data="{&quot;index&quot;:null}" fill="none" stroke="#ffffff" stroke-width="3.5" stroke-linecap="round"/></g></g></g></svg>