<svg version="1.1" xmlns="http://www.w3.org/2000/svg" xmlns:xlink="http://www.w3.org/1999/xlink" width="109.33333" height="109.33333" viewBox="0,0,109.33333,109.33333"><g transform="translate(-185.33347,-125.33346)"><g data-paper-data="{&quot;isPaintingLayer&quot;:true}" fill-rule="nonzero" stroke-width="0" stroke-linecap="butt" stroke-linejoin="miter" stroke-miterlimit="10" stroke-dasharray="" stroke-dashoffset="0" style="mix-blend-mode: normal"><path d="M185.33348,234.6668v-109.33333h109.33333v109.33333z" fill="none" stroke="none"/><path d="M233.77529,192.12799c-2.09836,-3.96971 3.65781,-7.91131 3.65781,-7.91131c0,0 3.43145,5.69207 5.52978,9.66176c0.17029,0.32218 3.05414,6.5651 -2.14363,8.43191c-2.23537,0.80282 -7.04394,-10.18236 -7.04394,-10.18236z" data-paper-data="{&quot;index&quot;:null}" fill="#908816" stroke="none"/><path d="M245.69257,155.4744c2.50473,4.37592 5.74604,12.31344 5.33031,17.1104c-0.44493,5.1338 -1.82191,9.49984 -6.87587,11.39074c-18.98981,7.10495 -17.86668,-0.25075 -18.34941,-8.63929c-0.17146,-2.9793 2.96024,-7.84954 3.717,-9.95996c1.45511,-4.05792 4.93769,-8.61201 4.93769,-8.61201z" data-paper-data="{&quot;index&quot;:null}" fill="#908816" stroke="none"/><path d="M246.63384,170.33915c2.32013,2.47503 4.50255,-1.68617 4.50255,-1.68617c0,0 0.25101,13.27008 -3.71829,17.28278c-0.79601,0.8047 -5.41164,5.9876 -5.41164,5.9876c0,0 -1.05922,-3.37542 -3.66179,-2.12078c-1.54928,0.74688 -2.61353,2.09528 -4.8067,3.37114c-2.79051,1.62335 -5.92281,2.46528 -5.92281,2.46528l-3.5252,-9.21811c0,0 0.285,-0.01959 0.70238,-1.03152c0.45638,-1.1065 -1.81724,-4.90113 1.14826,-12.99783c1.68451,-4.59919 3.36754,-8.81103 5.43972,-12.13374c1.06928,-1.71457 1.33058,-3.3747 3.66384,-4.34621c8.42714,-3.50882 11.58968,14.42756 11.58968,14.42756z" data-paper-data="{&quot;index&quot;:null}" fill="#f32f00" stroke="none"/><path d="M220.04853,192.12916c-1.55942,-5.78028 5.15425,-6.60942 5.15425,-6.60942c0,0 2.1184,5.36762 3.67784,11.1479c0,0 1.27533,5.29348 -4.48458,5.47127c-2.33931,0.07221 -4.34751,-10.00975 -4.34751,-10.00975z" data-paper-data="{&quot;index&quot;:null}" fill="#908816" stroke="none"/><path d="M230.60782,166.60797c0,-4.52873 3.80484,-9.44242 6.33636,-9.44242c3.77394,0 5.34242,3.1743 5.34242,7.70303c0,4.52874 -1.31999,7.95152 -5.09394,7.95152c-3.77395,0 -6.58485,-1.68339 -6.58485,-6.21212z" fill="#908816" stroke="#000000"/><path d="M227.93779,145.27096c0,-6.36951 5.29695,-10.10571 14.30418,-9.8069c8.67185,0.28769 6.1528,2.79282 9.76072,5.70401c1.47624,1.19115 4.26205,1.47386 6.12023,2.85066c1.85816,1.3768 3.02627,3.24805 3.02627,4.99219c0,1.23158 -2.1838,1.70366 -3.63931,1.96116c-2.57515,0.45557 -2.70496,3.1209 -5.07728,4.22134c-3.86119,1.79109 -6.50166,1.61055 -10.76602,1.61055c-6.46731,0 -10.32974,0.21782 -12.97027,-3.63783c-1.03905,-1.51721 -0.75854,-6.09658 -0.75854,-7.89521z" data-paper-data="{&quot;index&quot;:null}" fill="#f29e4a" stroke="none"/><path d="M242.67637,153.19108c-0.05439,-0.49976 1.25204,-0.57937 2.17988,-1.60127c0.84165,-0.92696 1.22894,-2.81761 2.67961,-2.97547c1.37038,-0.14912 2.65813,2.08177 4.45431,2.55707c2.20135,0.58252 4.80897,-0.50857 4.86609,0.01628c0.01245,0.11435 0.35818,2.33096 -0.21132,2.79748c-0.64028,0.52448 -2.205,-0.70229 -2.205,-0.70229c0,0 -0.94401,1.61979 -1.74841,2.001c-1.66459,0.78885 -2.41092,-0.4836 -2.41092,-0.4836c0,0 -2.06236,1.17733 -2.71176,0.99364c-1.16643,-0.32994 -1.83677,-1.81646 -1.83677,-1.81646c0,0 -3.00746,-0.34305 -3.05571,-0.7864z" data-paper-data="{&quot;index&quot;:null}" fill="#908816" stroke="none"/><path d="M230.28181,137.32011c3.99368,-1.88979 9.25284,-3.12082 10.89995,-0.83978c0.90284,1.25034 -4.70847,6.88554 -3.9954,8.03203c0.68975,1.10898 1.83012,2.31808 1.36509,3.80691c-0.19444,0.62252 -0.86505,2.21681 -1.63646,2.33823c-0.81043,0.12756 -1.7321,-1.22132 -2.32974,-0.66855c-1.44527,1.33675 -1.76529,4.30487 -3.15268,4.30487c-2.466,0 -6.35545,0.3217 -7.43264,-1.75304c-2.07001,-3.98698 0.53831,-6.9977 0.81578,-8.3161c0.86307,-4.10097 1.47243,-5.01477 5.46611,-6.90456z" data-paper-data="{&quot;index&quot;:null}" fill="#908816" stroke="none"/><path d="M231.72554,148.10861c0,-2.14497 1.69495,-3.54071 2.72772,-3.54071c1.03277,0 1.86999,1.39574 1.86999,3.54071c0,2.14497 -0.83722,3.88381 -1.86999,3.88381c-1.03277,0 -2.72772,-1.73884 -2.72772,-3.88381z" data-paper-data="{&quot;index&quot;:null}" fill="#f29e4a" stroke="none"/><path d="M246.96782,140.19709c1.1122,0 2.01383,1.35243 2.01383,3.02074c0,1.6683 -0.90163,3.02074 -2.01383,3.02074c-1.1122,0 -2.01383,-1.35243 -2.01383,-3.02074c0,-1.6683 0.90163,-3.02074 2.01383,-3.02074z" data-paper-data="{&quot;index&quot;:null}" fill="#908816" stroke="none"/><path d="M226.25413,137.60793c0.50414,-0.99139 2.37032,-7.54446 14.24065,-6.90456c7.10711,0.38312 9.42541,4.97501 9.9107,4.93579c3.80762,-0.30775 8.06992,1.32845 8.06992,1.96876c0,1.1122 -7.53499,2.01383 -16.82986,2.01383c-9.29487,0 -16.54217,0.24914 -15.39141,-2.01383z" data-paper-data="{&quot;index&quot;:null}" fill="#f32f00" stroke="none"/><path d="M244.28666,175.85851c0,-1.02926 0.83437,-1.86364 1.86363,-1.86364c1.02926,0 1.86364,0.83438 1.86364,1.86364c0,1.02926 -0.83438,1.86363 -1.86364,1.86363c-1.02926,0 -1.86363,-0.83437 -1.86363,-1.86363z" fill="#f29e4a" stroke="#f29e4a"/><g stroke="none"><path d="M228.84516,174.60002c1.93937,2.41251 -3.10795,6.19656 -7.83478,6.61149c-2.58506,0.22693 -4.91398,-1.96937 -4.24839,-3.52585c0.72097,-1.68599 2.63946,-1.11346 3.32199,-1.59315c1.7203,-1.20905 0.72952,-2.50937 3.10389,-3.96335c2.86574,-1.32477 3.34182,-0.40953 5.65725,2.47083z" data-paper-data="{&quot;index&quot;:null}" fill="#f29e4a"/><path d="M229.12183,177.66743l-5.28036,-7.57971c0,0 1.581,-4.36669 6.08806,-7.95133c6.72396,-5.34784 5.80752,-2.74774 5.80752,-2.74774l3.05572,10.56367c0,0 -2.93365,2.31544 -4.1872,3.35931c-1.34652,1.12129 -5.48374,4.35581 -5.48374,4.35581z" data-paper-data="{&quot;index&quot;:null}" fill="#908816"/></g></g></g></svg>