<svg version="1.1" xmlns="http://www.w3.org/2000/svg" xmlns:xlink="http://www.w3.org/1999/xlink" width="81.67068" height="81.67068" viewBox="0,0,81.67068,81.67068"><g transform="translate(-199.16466,-139.16466)"><g data-paper-data="{&quot;isPaintingLayer&quot;:true}" fill-rule="nonzero" stroke-width="0" stroke-linecap="butt" stroke-linejoin="miter" stroke-miterlimit="10" stroke-dasharray="" stroke-dashoffset="0" style="mix-blend-mode: normal"><path d="M199.16466,220.83534v-81.67068h81.67068v81.67068z" data-paper-data="{&quot;index&quot;:null}" fill="none" stroke="none"/><g><path d="M232.29708,178.04521c0,-4.38148 3.55189,-7.93337 7.93337,-7.93337c4.38148,0 8.00741,3.24283 7.40798,7.58311c-0.87564,6.34029 -5.46324,4.59001 -7.06857,7.31011c-1.68577,2.85639 0.9943,4.18428 0.74883,4.75713c-0.24547,0.57285 -5.16547,-0.80993 -7.3434,-4.10835c-1.7595,-2.66473 -1.67822,-5.65071 -1.67822,-7.60864z" fill="#f32f00" stroke="#000000"/><path d="M243.29521,187.02975v-1.75129h1.75129v1.75129z" fill="#f32f00" stroke="#000000"/><path d="M242.94495,189.48156v-1.40103h1.40103v1.40103z" fill="#f32f00" stroke="none"/><path d="M235.51992,177.82816c0,-2.37043 1.92161,-4.29204 4.29204,-4.29204c2.37043,0 4.33209,1.7544 4.00779,4.10254c-0.25055,1.81415 -2.81886,2.68619 -4.52918,3.97283c-1.01103,0.76058 -1.32968,1.86231 -1.75608,2.85739c0,0 -0.87006,-1.57464 -1.403,-3.20991c-0.47043,-1.44347 -0.61157,-2.93417 -0.61157,-3.43081z" fill="#f29e4a" stroke="#000000"/><path d="M238.58814,176.90981c0,-0.90538 0.73395,-1.63933 1.63933,-1.63933c0.90538,0 1.63933,0.73395 1.63933,1.63933c0,0.90538 -0.73395,1.63933 -1.63933,1.63933c-0.90538,0 -1.63933,-0.73395 -1.63933,-1.63933z" fill="#ffffff" stroke="#000000"/><path d="M237.09784,178.54914c0,-0.49384 0.40034,-0.89418 0.89418,-0.89418c0.49384,0 0.89418,0.40034 0.89418,0.89418c0,0.49384 -0.40034,0.89418 -0.89418,0.89418c-0.49384,0 -0.89418,-0.40034 -0.89418,-0.89418z" fill="#ffffff" stroke="none"/></g></g></g></svg>