<svg version="1.1" xmlns="http://www.w3.org/2000/svg" xmlns:xlink="http://www.w3.org/1999/xlink" width="260.53894" height="44.8185" viewBox="0,0,260.53894,44.8185"><g transform="translate(-93.78073,-157.59075)"><g data-paper-data="{&quot;isPaintingLayer&quot;:true}" fill-rule="nonzero" stroke-linecap="butt" stroke-linejoin="miter" stroke-miterlimit="10" stroke-dasharray="" stroke-dashoffset="0" style="mix-blend-mode: normal"><path d="M125.68036,202.40925v-44.8185h228.63931v44.8185z" fill="none" stroke="none" stroke-width="0"/><path d="M133.20897,164.65355c0.96061,0 210.71507,0 212.27228,0c2.46645,0 4.08264,1.71219 4.08264,4.17864c0,0.97235 0,21.18003 0,22.71719c0,2.46084 -1.8401,3.79712 -4.30094,3.79712c-1.52939,0 -211.22707,0 -212.16313,0c-2.40262,0 -4.0296,-1.61281 -4.0296,-4.01542c0,-1.43004 -0.07669,-20.0407 0,-22.38973c0.07669,-2.34903 3.17814,-4.2878 4.13875,-4.2878z" fill="none" stroke="#ffffff" stroke-width="1"/><g stroke="none" stroke-width="0"><path d="M108.77674,167.02542c7.14857,0 12.10857,7.67716 14.33543,13.50036c2.5745,6.73227 -7.32652,10.43843 -14.53426,10.43843c-7.21256,0 -16.84005,-4.13455 -14.41496,-10.16006c2.9872,-7.42216 7.46521,-13.77872 14.6138,-13.77872z" data-paper-data="{&quot;index&quot;:null}" fill="none"/><path d="M121.53075,186.91352c-3.00287,2.59648 -8.5761,4.05071 -12.95284,4.05071c-3.90515,0 -8.69388,-1.29335 -11.78455,-3.3919c-5.46258,-3.70906 6.71393,-3.38021 13.31673,-3.38021c7.14859,0 14.42354,0.12492 11.42067,2.72141z" data-paper-data="{&quot;index&quot;:null}" fill="#ffffff"/><path d="M108.84365,188.10841c4.07392,0 7.37649,-0.07784 7.37649,2.39279c0,2.47063 -3.30257,4.47347 -7.37649,4.47347c-4.07392,0 -7.37649,-2.00284 -7.37649,-4.47347c0,-2.47063 3.30257,-2.39279 7.37649,-2.39279z" fill="none"/></g></g></g></svg>