<svg version="1.1" xmlns="http://www.w3.org/2000/svg" xmlns:xlink="http://www.w3.org/1999/xlink" width="85.49398" height="85.49398" viewBox="0,0,85.49398,85.49398"><defs><linearGradient x1="-3285.69704" y1="-2895.28055" x2="-3285.69704" y2="4105.40967" gradientUnits="userSpaceOnUse" id="color-1"><stop offset="0" stop-color="#ffffff"/><stop offset="1" stop-color="#ffffff" stop-opacity="0"/></linearGradient></defs><g transform="translate(-197.25302,-137.25301)"><g data-paper-data="{&quot;isPaintingLayer&quot;:true}" fill-rule="nonzero" stroke-linejoin="miter" stroke-miterlimit="10" stroke-dasharray="" stroke-dashoffset="0" style="mix-blend-mode: normal"><path d="M208.63952,205.58013c0.00324,-13.1024 0,-44.63208 0,-51.75c0,-3.5626 2.97813,-5.21784 6.54073,-5.21784c12.68063,0 43.89984,0 51,0c2.96729,0 5.18024,2.50056 5.18024,5.46784c0,6.43742 0,39.20833 0,51.75c0,2.95974 -2.72049,5.55758 -5.68024,5.55758c-6.61442,0 -39.17756,0 -52,0c-3.13138,0 -5.04177,-1.58613 -5.04073,-5.80758z" fill="url(#color-1)" stroke="#a97a4a" stroke-width="2" stroke-linecap="butt"/><path d="M197.25302,222.74699v-85.49398h85.49398v85.49398z" fill="none" stroke="none" stroke-width="0" stroke-linecap="butt"/><path d="M207.25301,212.74699v-65.49398h65.49398v65.49398z" fill="none" stroke="none" stroke-width="0" stroke-linecap="butt"/><g data-paper-data="{&quot;index&quot;:null}"><path d="M234.6827,199.19729c-1.51974,-1.55331 -2.73943,-3.82977 -2.56878,-4.23792c0.42846,-1.0248 2.70071,0.20937 3.61346,-0.01383c0.91275,-0.2232 1.20737,-1.58487 1.68546,-1.97195c0.37887,-0.30673 6.08534,2.55926 5.91945,4.34333c-0.17688,1.90224 -3.95748,3.80037 -4.39938,3.89313c-0.72017,0.15118 -2.70501,-0.43342 -4.25022,-2.01275z" data-paper-data="{&quot;index&quot;:null}" fill="#f29e4a" stroke="none" stroke-width="0" stroke-linecap="butt"/><path d="M236.27044,191.58466c-1.96039,-3.52078 -1.97355,-10.32776 -1.13438,-13.99465c0.77707,-3.39553 1.45403,-6.25976 3.85208,-7.13425c4.98775,-1.81885 12.3973,-0.54612 16.09303,8.87775c3.48536,8.68878 -0.20509,14.5177 -0.20509,14.5177c0,0 -3.28613,1.27533 -4.68335,1.78485c-1.06465,3.1834 -8.88559,4.99428 -13.92228,-4.0514z" data-paper-data="{&quot;index&quot;:null}" fill="#20ad00" stroke="none" stroke-width="0" stroke-linecap="butt"/><path d="M235.47802,175.5986c-5.06094,0 -8.59577,-3.01989 -8.59577,-7.62074c0,-2.10048 -1.5347,-3.03161 -0.25232,-4.65775c1.52653,-1.93572 6.09769,-4.38266 8.84809,-4.38266c5.06094,0 9.16364,3.72973 9.16364,8.33058c0,1.0902 1.18932,3.83509 0.77044,4.78943c-1.34887,3.07318 -6.07235,3.54116 -9.93407,3.54116z" data-paper-data="{&quot;index&quot;:null}" fill="#20ad00" stroke="none" stroke-width="0" stroke-linecap="butt"/><path d="M229.40934,165.97021c2.92423,-0.56787 2.5554,3.69115 2.5554,3.69115c0,0 -0.341,0.8518 -1.98753,0.8518c-1.64653,0 -2.98131,-1.01697 -2.98131,-2.27147c0,-1.2545 0.79711,-1.95759 2.41344,-2.27147z" data-paper-data="{&quot;index&quot;:null}" fill="#ffffff" stroke="none" stroke-width="0" stroke-linecap="butt"/><path d="M227.98966,167.24791c0.47043,0 0.8518,0.6356 0.8518,1.41967c0,0.78406 -0.38136,1.41967 -0.8518,1.41967c-0.47044,0 -0.8518,-0.6356 -0.8518,-1.41967c0,-0.78406 0.38136,-1.41967 0.8518,-1.41967z" data-paper-data="{&quot;index&quot;:null}" fill="#20ad00" stroke="none" stroke-width="0" stroke-linecap="butt"/><path d="M223.75746,174.78595c-0.79306,-3.1735 -0.28556,-6.48504 2.62751,-6.55632c0.70018,-0.01714 1.60469,1.66677 1.60469,1.66677c0,0 9.6566,-2.49769 9.94053,3.18595c0.05628,1.1266 -0.63309,2.21899 -2.01024,2.7829c-1.57539,0.64507 -3.9632,0.68619 -5.65882,0.8014c-4.17897,0.28393 -3.17847,-2.91775 -6.50367,-1.8807z" data-paper-data="{&quot;index&quot;:null}" fill="#f29e4a" stroke="none" stroke-width="0" stroke-linecap="butt"/><path d="M226.292,163.20812c0,0 2.85925,-8.5503 11.67988,-6.27576c8.6392,2.22775 7.18861,11.1413 7.18861,11.1413z" data-paper-data="{&quot;index&quot;:null}" fill="#20ad00" stroke="none" stroke-width="0" stroke-linecap="butt"/><path d="M224.96963,164.57787l0.59486,-2.74627c0,0 5.71621,0.93389 8.76545,1.71766c3.70366,0.95197 11.87735,3.58827 11.87735,3.58827l-0.59486,2.74627c0,0 -8.24848,-2.61903 -11.94483,-3.56912c-3.06608,-0.78809 -8.69798,-1.73681 -8.69798,-1.73681z" data-paper-data="{&quot;index&quot;:null}" fill="#ffffff" stroke="none" stroke-width="0" stroke-linecap="butt"/><path d="M235.79784,172.35872l-0.14197,-5.39474h1.98754v5.39474z" data-paper-data="{&quot;index&quot;:null}" fill="#ffffff" stroke="none" stroke-width="0" stroke-linecap="butt"/><path d="M236.88438,172.59979l-0.50391,-1.9517l6.99083,-2.5055l1.78161,1.38383z" data-paper-data="{&quot;index&quot;:null}" fill="#ffffff" stroke="none" stroke-width="0" stroke-linecap="butt"/><path d="M232.8574,176.39729c0,0 1.92274,-1.58293 2.45447,-2.46358c0.44782,-0.74167 0.52761,-2.47536 0.52761,-2.47536l1.83406,0.76587c0,0 -0.17053,1.83517 -0.67305,2.66744c-0.49125,0.81362 -2.30903,2.27151 -2.30903,2.27151z" data-paper-data="{&quot;index&quot;:null}" fill="#ffffff" stroke="none" stroke-width="0" stroke-linecap="butt"/><path d="M240.59315,161.4057c-0.86161,-1.01698 -1.19636,-2.14957 -0.7477,-2.52969c0.44867,-0.38013 1.51086,0.13615 2.37248,1.15313c0.86162,1.01698 1.19636,2.14957 0.7477,2.52969c-0.44866,0.38013 -1.51085,-0.13615 -2.37247,-1.15313z" data-paper-data="{&quot;index&quot;:null}" fill="#ffffff" stroke="none" stroke-width="0" stroke-linecap="butt"/><path d="M253.55436,177.74501c0.52214,1.6851 0.81242,3.1452 0.43795,3.26123c-0.37448,0.11604 -1.61302,-1.15594 -2.13517,-2.84104c-0.52214,-1.6851 -0.64185,-3.1452 -0.26739,-3.26123c0.37447,-0.11604 1.44246,1.15594 1.9646,2.84104z" data-paper-data="{&quot;index&quot;:null}" fill="#ffffff" stroke="none" stroke-width="0" stroke-linecap="butt"/><path d="M244.83217,191.38799l10.7723,-10.7723l0.30471,1.58045l-10.13442,10.13442z" data-paper-data="{&quot;index&quot;:null}" fill="#f29e4a" stroke="none" stroke-width="0" stroke-linecap="butt"/><path d="M252.4151,185.42025l-7.15768,-7.15768l0.94258,-0.94257l7.15767,7.15768z" data-paper-data="{&quot;index&quot;:null}" fill="#f29e4a" stroke="none" stroke-width="0" stroke-linecap="butt"/><path d="M243.02488,176.39794l5.35036,-5.35036l1.04888,0.83626l-5.45667,5.45667z" data-paper-data="{&quot;index&quot;:null}" fill="#f29e4a" stroke="none" stroke-width="0" stroke-linecap="butt"/><path d="M243.89308,195.8584c0.79309,-0.43611 1.76764,-1.0376 3.54178,-1.30628c2.48047,-0.37564 5.46082,-0.27885 5.82282,-0.10822c0.7607,0.35853 1.68485,2.22476 1.74893,4.16636c0.07768,2.35388 -1.9777,4.81855 -2.55899,4.84188c-0.67212,0.02698 -1.51482,-1.47767 -3.69001,-3.15624c-2.56553,-1.97978 -5.29372,-4.20149 -4.86453,-4.43751z" data-paper-data="{&quot;index&quot;:null}" fill="#f29e4a" stroke="none" stroke-width="0" stroke-linecap="butt"/><path d="M254.40623,194.08382l-5.88355,-5.88355l0.94257,-0.94258l5.67092,5.67093z" data-paper-data="{&quot;index&quot;:null}" fill="#f29e4a" stroke="none" stroke-width="0" stroke-linecap="butt"/><path d="M255.09059,193.64246c0,0 -9.78143,1.42026 -10.91785,-3.55849c-0.97191,-4.25801 3.05857,-4.43056 2.50885,-9.44726c-0.68614,-6.2616 -4.96557,-2.1983 -4.54868,-5.17314c0.55829,-3.98386 2.5941,-5.52959 2.5941,-5.52959" data-paper-data="{&quot;index&quot;:null}" fill="none" stroke="#ffffff" stroke-width="2.5" stroke-linecap="round"/><path d="M236.8995,181.52892c2.9787,-3.74964 7.19665,-7.0227 9.19373,-3.65103c1.52967,2.58255 -0.77842,6.07722 -5.12051,8.77854c-4.34208,2.70132 -9.975,2.01417 -10.60358,1.00378c-0.41593,-0.66856 3.34949,-2.12717 6.53036,-6.13129z" data-paper-data="{&quot;index&quot;:null}" fill="#f29e4a" stroke="none" stroke-width="0" stroke-linecap="butt"/></g></g></g></svg>