<svg version="1.1" xmlns="http://www.w3.org/2000/svg" xmlns:xlink="http://www.w3.org/1999/xlink" width="85.49398" height="85.49398" viewBox="0,0,85.49398,85.49398"><defs><linearGradient x1="-3285.69704" y1="-2895.28055" x2="-3285.69704" y2="4105.40967" gradientUnits="userSpaceOnUse" id="color-1"><stop offset="0" stop-color="#ffffff"/><stop offset="1" stop-color="#ffffff" stop-opacity="0"/></linearGradient></defs><g transform="translate(-197.25302,-137.25301)"><g data-paper-data="{&quot;isPaintingLayer&quot;:true}" fill-rule="nonzero" stroke-linecap="butt" stroke-linejoin="miter" stroke-miterlimit="10" stroke-dasharray="" stroke-dashoffset="0" style="mix-blend-mode: normal"><path d="M208.63952,205.58013c0.00324,-13.1024 0,-44.63208 0,-51.75c0,-3.5626 2.97813,-5.21784 6.54073,-5.21784c12.68063,0 43.89984,0 51,0c2.96729,0 5.18024,2.50056 5.18024,5.46784c0,6.43742 0,39.20833 0,51.75c0,2.95974 -2.72049,5.55758 -5.68024,5.55758c-6.61442,0 -39.17756,0 -52,0c-3.13138,0 -5.04177,-1.58613 -5.04073,-5.80758z" fill="url(#color-1)" stroke="#a97a4a" stroke-width="2"/><path d="M197.25302,222.74699v-85.49398h85.49398v85.49398z" fill="none" stroke="none" stroke-width="0"/><path d="M207.25301,212.74699v-65.49398h65.49398v65.49398z" fill="none" stroke="none" stroke-width="0"/><g stroke="none" stroke-width="0"><path d="M258.39465,188.57009c-4.88994,0.35207 -9.70119,0.16812 -9.70119,0.16812v-17.57469c0,0 10.90661,-0.52358 13.95087,2.11328c4.77846,4.13898 3.19459,12.51833 2.47789,13.37001c-1.17248,1.39328 -6.72757,1.92328 -6.72757,1.92328z" data-paper-data="{&quot;index&quot;:null}" fill="#f29e4a"/><path d="M258.13825,182.14784c0,2.44149 -1.65342,4.42071 -3.693,4.42071c-2.03959,0 -3.693,-1.97922 -3.693,-4.42071c0,-2.44149 1.65342,-4.42071 3.693,-4.42071c2.03959,0 3.693,1.97922 3.693,4.42071z" data-paper-data="{&quot;index&quot;:null}" fill="#f32f00"/><path d="M265.87094,179.58414c-0.62068,0.25514 -1.29832,0.39551 -2.00795,0.39551c-2.98127,0 -5.39807,-2.4776 -5.39807,-5.53387c0,-1.06178 0.21961,-1.40497 0.72533,-2.24744c0,0 2.99467,0.27436 4.04823,1.55525c1.14215,1.3886 2.63246,5.83055 2.63246,5.83055z" data-paper-data="{&quot;index&quot;:null}" fill="#f32f00"/><path d="M265.6411,186.56997c-0.26969,0.66293 -1.51663,1.286 -3.22161,1.63165c-4.94026,1.00156 -13.72604,0.74029 -13.72604,0.74029v-0.66763c0,0 8.70624,0.39332 13.48439,-0.68991c1.65851,-0.37599 2.84376,-1.05668 3.02739,-1.81986c1.49048,-6.19442 -0.5086,-9.82267 -2.32703,-11.79951c-2.57569,-2.80007 -14.18475,-2.44414 -14.18475,-2.44414v-0.49314c0,0 11.78411,-0.07912 14.1648,2.15327c2.38069,2.23239 5.15284,7.56316 2.78285,13.38899z" data-paper-data="{&quot;index&quot;:null}" fill="#000000"/><g><path d="M231.23328,188.94191v-17.91419h17.91419v17.91419z" fill="#f29e4a"/><path d="M231.23328,188.94191v-0.59962h17.91419v0.59962z" fill="#000000"/><path d="M237.339,175.43033c2.81252,0 5.09252,2.584 5.09252,5.77153c0,3.18753 -2.28,5.77153 -5.09252,5.77153c-2.81252,0 -5.09252,-2.584 -5.09252,-5.77153c0,-3.18753 2.28,-5.77153 5.09252,-5.77153z" fill="#f32f00"/><path d="M240.39451,171.35632c-0.00457,-0.14219 8.62334,0 8.62334,0c0,2.06252 -1.9304,3.73452 -4.31167,3.73452c-2.38126,0 -4.24406,-1.63311 -4.31167,-3.73452z" fill="#f32f00"/><path d="M231.23328,171.49154v-0.46382h17.91419v0.46382z" fill="#000000"/><g><path d="M214.87779,186.64681c-0.71671,-0.85168 -2.30058,-9.23103 2.47788,-13.37001c3.04426,-2.63686 13.95087,-2.11327 13.95087,-2.11327v17.57469c0,0 -4.81125,0.18395 -9.70119,-0.16812c0,0 -5.55509,-0.53 -6.72756,-1.92329z" fill="#f29e4a"/><path d="M222.68939,179.64015c1.95001,0 3.53081,1.672 3.53081,3.73452c0,2.06252 -1.5808,3.73452 -3.53081,3.73452c-1.95001,0 -3.53081,-1.672 -3.53081,-3.73452c0,-2.06252 1.5808,-3.73452 3.53081,-3.73452z" fill="#f32f00"/><path d="M216.76152,173.75359c1.05356,-1.28088 4.04823,-1.55525 4.04823,-1.55525c0.50572,0.84247 0.72533,1.18565 0.72533,2.24744c0,3.05627 -2.4168,5.53387 -5.39807,5.53387c-0.70962,0 -1.38726,-0.14037 -2.00795,-0.39551c0,0 1.49031,-4.44195 2.63246,-5.83055z" fill="#f32f00"/><path d="M231.04112,171.35632c0.16306,1.74672 -1.672,3.32712 -3.73452,3.32712c-2.06252,0 -3.73452,-1.27335 -3.73452,-3.11086c0,0 7.4487,-0.43402 7.46903,-0.21625z" fill="#f32f00"/><path d="M217.14174,173.18099c2.38069,-2.23239 14.1648,-2.15327 14.1648,-2.15327v0.49314c0,0 -11.60906,-0.35593 -14.18475,2.44414c-1.81843,1.97684 -3.81751,5.60509 -2.32703,11.79951c0.18363,0.76318 1.36888,1.44387 3.02739,1.81986c4.77815,1.08323 13.48439,0.68991 13.48439,0.68991v0.66763c0,0 -8.78579,0.26126 -13.72604,-0.74029c-1.70498,-0.34566 -2.95192,-0.96872 -3.22161,-1.63165c-2.36999,-5.82582 0.40216,-11.1566 2.78285,-13.38899z" fill="#000000"/></g></g></g></g></g></svg>