<svg version="1.1" xmlns="http://www.w3.org/2000/svg" xmlns:xlink="http://www.w3.org/1999/xlink" width="85.49398" height="85.49398" viewBox="0,0,85.49398,85.49398"><defs><linearGradient x1="-3285.69704" y1="-2895.28055" x2="-3285.69704" y2="4105.40967" gradientUnits="userSpaceOnUse" id="color-1"><stop offset="0" stop-color="#ffffff"/><stop offset="1" stop-color="#ffffff" stop-opacity="0"/></linearGradient></defs><g transform="translate(-197.25302,-137.25301)"><g data-paper-data="{&quot;isPaintingLayer&quot;:true}" fill-rule="nonzero" stroke-linecap="butt" stroke-linejoin="miter" stroke-miterlimit="10" stroke-dasharray="" stroke-dashoffset="0" style="mix-blend-mode: normal"><path d="M197.25302,222.74699v-85.49398h85.49398v85.49398z" fill="none" stroke="none" stroke-width="0"/><path d="M208.63952,205.58013c0.00324,-13.1024 0,-44.63208 0,-51.75c0,-3.5626 2.97813,-5.21784 6.54073,-5.21784c12.68063,0 43.89984,0 51,0c2.96729,0 5.18024,2.50056 5.18024,5.46784c0,6.43742 0,39.20833 0,51.75c0,2.95974 -2.72049,5.55758 -5.68024,5.55758c-6.61442,0 -39.17756,0 -52,0c-3.13138,0 -5.04177,-1.58613 -5.04073,-5.80758z" fill="url(#color-1)" stroke="#a97a4a" stroke-width="2"/><g stroke="none" stroke-width="0"><path d="M236.55559,201.28262c0,-2.04198 4.02629,-5.2372 9.00433,-5.45216c3.82616,-0.16522 6.52607,3.41018 6.52607,5.78259c0,0.22459 -3.85643,1.48695 -7.18694,1.48695c-3.33051,0 -8.34345,-1.59279 -8.34345,-1.81739z" fill="#faa428"/><path d="M235.19256,201.90218c-0.49565,-1.87895 1.96587,-3.59347 3.01521,-3.59347c1.04934,0 1.06735,0.63982 1.06735,1.73478c0,1.09496 0.10589,1.9826 -0.94345,1.9826c-1.04934,0 -3.13396,-0.10433 -3.13912,-0.12391z" fill="#fafafa"/></g><path d="M229.9757,177.47767c-0.45772,0.12039 -1.32977,0.22974 -1.32977,0.22974c0,0 -2.58771,-1.90531 -4.60455,-3.34508c-0.99317,-0.709 -4.17601,-1.58512 -4.17601,-1.58512l-2.17809,-5.65304c0,0 0.66328,-1.37674 1.52917,-1.93617c0.8645,-0.55853 5.08663,-3.41304 5.08663,-3.41304c0,0 -0.0792,-1.67413 0.88655,-2.50481c0.9649,-0.82994 2.9741,-0.81641 4.47397,-0.88754c4.84104,-0.22957 7.80621,5.00767 7.80621,9.7446c0,4.73693 -2.57365,8.05628 -7.49411,9.35045z" fill="#20ad00" stroke="none" stroke-width="0"/><g fill="#fafafa" stroke="none" stroke-width="0"><path d="M221.39467,172.41418c0.60163,0 0.24319,0.63798 0.23557,1.23956c-0.01208,0.95297 0.44294,1.74702 0.26842,1.81937c-0.53852,0.22327 -1.20922,-0.22243 -1.79129,-0.94562c-0.42355,-0.52623 -0.95579,-1.88128 -0.95579,-1.88128c0,0 1.51688,-0.23204 2.24308,-0.23204z"/><path d="M216.87106,171.52839c0,0 -0.49264,0.94929 -0.45719,1.42359c0.06309,0.84407 0.43608,1.93734 0.10789,1.93734c-0.2767,0 -0.84063,-0.88504 -1.30109,-1.98443c-0.39258,-0.93734 -0.70995,-2.73378 -0.70995,-2.73378z"/><path d="M224.763,171.33131c0,0 -0.31981,2.01104 -0.46409,2.16573c-0.26222,0.28116 -1.54449,-1.35235 -1.54449,-1.35235z"/><path d="M227.16098,169.98163c0,0 -0.31981,2.01104 -0.46409,2.16573c-0.26222,0.28116 -1.31492,-1.23756 -1.31492,-1.23756z"/><path d="M224.60651,179.80992c0,0 -1.0083,-1.76915 -0.99249,-1.98009c0.02873,-0.38339 1.80001,0.14318 1.80001,0.14318z" data-paper-data="{&quot;index&quot;:null}"/><path d="M226.69321,178.13888c0,0 -0.5183,-1.96925 -0.44866,-2.16898c0.12657,-0.36303 1.70231,0.60224 1.70231,0.60224z" data-paper-data="{&quot;index&quot;:null}"/><path d="M227.97335,176.17041c0,0 -0.5183,-1.96925 -0.44866,-2.16898c0.12657,-0.36303 1.70231,0.60224 1.70231,0.60224z" data-paper-data="{&quot;index&quot;:null}"/></g><g stroke="none" stroke-width="0"><path d="M224.69085,163.39273c0.25842,1.6204 -0.06865,3.72301 -1.09346,4.76236c-0.83797,0.84986 -1.33369,1.43657 -2.89504,1.00617c-1.59717,-0.44027 -2.49229,-2.94903 -2.49229,-2.94903c0,0 0.74608,-1.27339 2.20256,-2.51959c2.07271,-1.77346 3.69131,-1.95202 3.69131,-1.95202c0,0 0.3614,0.23799 0.58692,1.6521z" fill="#fafafa"/><path d="M220.9763,163.16805c0,0 0.69189,0.506 0.69485,1.74782c0.00265,1.11197 -0.3281,1.89158 -1.13117,1.97212c-1.61899,0.16238 -1.86344,-1.40436 -1.86344,-1.40436c0,0 0.84916,-1.11787 1.12352,-1.40757c0.36427,-0.38464 1.17624,-0.90801 1.17624,-0.90801z" fill="#20ad00"/></g><g stroke="none" stroke-width="0"><path d="M229.87523,158.43496c0,0 1.1619,0.06094 2.37676,-1.26349c1.4454,-1.57576 2.45822,-1.20946 3.45739,-1.34929c0.58406,-0.08174 3.05029,-0.00467 2.95304,0.53421c-0.10911,0.60451 -2.02852,1.14162 -2.86028,2.03147c-0.53864,0.57625 -0.48336,1.28604 -0.71465,1.81208c-0.34804,0.79159 -0.82712,1.29213 -0.82712,1.29213c0,0 -1.08612,1.20513 -2.75071,0.05479c-1.42583,-0.98533 -1.63442,-3.11189 -1.63442,-3.11189z" fill="#faa428"/><path d="M229.79983,158.36741c0,0 1.1619,0.06094 2.37676,-1.2635c1.4454,-1.57576 2.45822,-1.20946 3.45739,-1.34928c0.58406,-0.08173 3.05029,-0.00467 2.95304,0.53421c-0.4063,-0.10142 -1.48162,0.21205 -1.88665,0.19116c-0.53944,-0.02783 -0.89921,-0.34655 -1.31796,-0.09984c-0.26837,0.15811 -0.38056,0.58472 -0.60344,0.82316c-0.19587,0.20954 -0.51967,0.96117 -0.96949,1.16275c-0.36555,0.1638 -0.8874,-0.23761 -0.90332,0.03734c-0.02792,0.482 -0.14648,0.92771 -0.30512,1.32164c-0.17636,0.43794 -0.35864,0.18099 -0.56462,0.46973c-0.29946,0.41979 -0.60042,1.29035 -0.60216,1.28452c-1.42583,-0.98533 -1.63442,-3.11189 -1.63442,-3.11189z" fill="#fafafa"/></g><g stroke="none" stroke-width="0"><path d="M220.97919,170.40115c0.61918,0.2515 1.78296,0.21961 2.24292,0.12801c0.59206,-0.11792 0.45806,-0.38369 1.13304,-0.78672c0.63502,-0.37917 1.92881,-0.70681 2.33409,-1.19207c1.00208,-1.19982 0.89508,-2.42058 1.57057,-2.71972c0.44959,-0.19911 1.30944,0.61589 1.63127,1.54101c0.0739,0.21244 0.07599,2.33963 -0.18864,2.46772c-0.09415,0.04557 -0.38058,-0.10827 -0.53362,-0.48675c-0.17334,-0.42867 -0.21765,-1.10338 -0.39015,-1.3304c-0.4514,-0.59408 -0.46293,0.0833 -0.78045,0.92065c-0.25447,0.67108 -0.78535,1.44491 -1.30003,1.74932c-0.6705,0.39657 -1.03227,0.59099 -1.84925,0.93116c-0.5136,0.21385 -1.12613,0.63852 -1.78671,0.87364c-0.90645,0.32265 -2.27556,0.41986 -3.23137,0.3243c-3.17989,-0.31792 -5.59551,-1.27449 -6.07402,-4.4342c-0.1933,-1.27641 0.1237,-2.3101 0.51836,-3.04946c0.36385,-0.68164 1.54938,-1.40011 2.34919,-1.4623c0.7998,-0.0622 0.90667,0.59931 1.12815,1.00505c0.32327,0.5922 0.93578,1.38316 1.18237,2.34489c0.24659,0.96172 0.88206,2.70383 2.04428,3.1759z" fill="#faa428"/><path d="M224.72061,180.45835c-1.58003,-3.00855 3.17126,-2.04771 3.79004,-6.72925c0.25036,-1.89413 0.3563,-3.75386 0.54346,-4.98007c0.13505,-0.88482 0.31238,-1.43978 0.61676,-1.43978c0.7262,0 1.00552,3.59466 1.00552,6.88395c0,1.4233 -0.09727,3.71732 -1.19096,5.13413c-1.43387,1.8575 -4.02439,2.54087 -4.76481,1.13103z" fill="#faa428"/><path d="M215.71544,164.71224c0.42718,0 0.77348,0.31167 0.77348,0.69613c0,0.38446 -0.3463,0.33057 -0.77348,0.33057c-0.42718,0 -0.77348,0.05389 -0.77348,-0.33057c0,-0.38446 0.3463,-0.69613 0.77348,-0.69613z" fill="#000000"/></g><path d="M253.59618,170.67796c2.84388,2.88926 6.12708,7.43486 6.67185,12.69494c0.42445,4.09837 2.27719,15.65198 -5.16538,15.92659c-5.14756,0.18993 -11.27835,-0.10835 -14.92221,-4.161c-2.02478,-2.25192 -0.88324,-5.21239 -1.52833,-8.33758c-1.05666,-5.11911 -8.01188,-9.77526 -8.01188,-9.77526l6.38358,-10.7272c0,0 11.6679,-0.60322 16.57236,4.37951z" fill="#20ad00" stroke="none" stroke-width="0"/><g stroke="none" stroke-width="0"><path d="M242.52046,200.71231c0,-2.36448 4.66217,-6.06434 10.42642,-6.31324c4.43044,-0.19131 7.55676,3.94876 7.55676,6.69586c0,0.26007 -4.46549,1.72179 -8.322,1.72179c-3.85651,0 -9.66117,-1.84434 -9.66117,-2.10441z" fill="#faa428"/><path d="M240.94216,201.42973c-0.57393,-2.17569 2.27635,-4.161 3.49141,-4.161c1.21507,0 2.34355,0.74086 2.34355,2.00876c0,1.26789 -0.98501,2.29572 -2.20007,2.29572c-1.21507,0 -3.62891,-0.12081 -3.6349,-0.14349z" fill="#fafafa"/><path d="M245.82058,202.86456c-0.57393,-2.17569 2.27635,-4.161 3.49141,-4.161c1.21506,0 2.34355,0.74086 2.34355,2.00876c0,1.26789 -0.98501,2.29572 -2.20007,2.29572c-1.21506,0 -3.62891,-0.12081 -3.63489,-0.14349z" fill="#fafafa"/></g><g stroke="none" stroke-width="0"><path d="M226.57846,184.10281c0.22731,-1.3029 1.5549,-1.5443 2.8627,-1.74149c2.30891,-0.34814 5.09921,2.27895 6.55033,1.44668c3.15208,-1.80781 2.15515,-5.82181 3.39627,-5.82181c2.21882,0 3.73055,0.08113 3.73055,3.01314c0,2.932 -2.23225,8.38755 -6.88717,10.47424c-4.65492,2.08669 -11.66913,-0.61299 -9.46987,-5.45235c0.22965,-0.50534 -0.30302,-1.22945 -0.18282,-1.91842z" fill="#faa428"/><g><path d="M229.37792,187.4295c0.3842,-4.32325 2.5846,-4.99534 2.5846,-4.99534c0,0 1.31406,0.38194 1.2196,0.64567c-0.14876,0.41533 -2.14506,1.13266 -2.45375,4.54006c-0.34006,3.75375 1.2342,4.14805 1.23415,4.57109c-0.00007,0.58899 -1.2196,0.21523 -1.2196,0.21523c0,0 -1.75995,-0.53253 -1.365,-4.97671z" fill="#000000"/><path d="M229.92881,182.60796c0.06987,-0.05829 1.69653,0.19817 1.69653,0.99264c0,0.47845 -0.42018,0.86631 -0.9385,0.86631c-0.51832,0 -0.96932,-1.68267 -0.75802,-1.85896z" fill="#fafafa"/><path d="M230.25421,186.03689c0.31468,0.58819 0.12964,1.30049 -0.41331,1.59096c-0.90157,0.48234 -2.18017,-1.20789 -2.15644,-1.32257c0.07177,-0.34681 2.25507,-0.85659 2.56976,-0.26839z" data-paper-data="{&quot;index&quot;:null}" fill="#fafafa"/><path d="M227.9113,190.37384c-0.09659,-0.27527 1.22804,-1.5621 1.69989,-1.28054c0.47185,0.28157 0.64367,0.86291 0.38377,1.29847c-0.43158,0.72326 -2.05172,0.07309 -2.08366,-0.01793z" data-paper-data="{&quot;index&quot;:null}" fill="#fafafa"/><path d="M230.58664,191.19655c0.42002,0.1005 0.68532,0.49627 0.59255,0.88398c-0.15404,0.64381 -1.52193,0.53623 -1.56724,0.47546c-0.13704,-0.18383 0.55468,-1.45993 0.9747,-1.35943z" data-paper-data="{&quot;index&quot;:null}" fill="#fafafa"/></g><g><path d="M241.83808,186.42713c0,0 -0.84598,0.75093 -3.04814,-0.88751c-2.14223,-1.59386 -1.78576,-2.96364 -1.78576,-2.96364c0,0 0.62344,-0.56573 0.73125,-0.43128c0.16978,0.21175 -0.09724,1.48912 1.58929,2.74842c1.85795,1.38729 2.57168,0.68916 2.79339,0.82545c0.30869,0.18975 -0.28002,0.70857 -0.28002,0.70857z" fill="#000000"/><path d="M236.44024,183.6979c-0.00805,-0.0554 0.65031,-0.82539 1.06672,-0.56949c0.25078,0.15411 0.31873,0.49926 0.15178,0.77094c-0.16694,0.27168 -1.19416,-0.03392 -1.2185,-0.20144z" fill="#fafafa"/><path d="M238.34228,184.63178c0.40965,0.02451 0.72339,0.35093 0.70076,0.72907c-0.03758,0.62791 -1.33531,0.75366 -1.38778,0.70428c-0.15866,-0.14932 0.27737,-1.45787 0.68702,-1.43335z" data-paper-data="{&quot;index&quot;:null}" fill="#fafafa"/><path d="M240.54133,186.17034c0.24008,0.45916 -0.62254,1.09893 -0.68053,1.08635c-0.17539,-0.03803 -0.42321,-1.1468 -0.12365,-1.30343c0.29956,-0.15663 0.6596,-0.05944 0.80418,0.21708z" data-paper-data="{&quot;index&quot;:null}" fill="#fafafa"/><path d="M241.5523,187.06816c-0.14049,0.01262 -0.58654,-0.76096 -0.39858,-0.94874c0.18797,-0.18778 0.48085,-0.19935 0.65419,-0.02585c0.28783,0.2881 -0.20914,0.97042 -0.2556,0.97459z" data-paper-data="{&quot;index&quot;:null}" fill="#fafafa"/></g></g><g stroke="none" stroke-width="0"><g><path d="M262.03429,180.13828c0.01642,0.23631 -1.96444,2.65143 -2.02261,2.60727c-1.23075,-0.93459 -1.918,-2.41246 -0.88372,-3.37392c0.15408,-0.14323 2.9029,0.71716 2.90633,0.76665z" fill="#faa428"/><path d="M262.03429,180.13827c0.05097,0.02885 -0.96737,0.32834 -1.74039,0.72734c-0.78863,0.40705 -1.33499,0.90694 -1.56358,0.23289c-0.20899,-0.61627 -0.12798,-1.23826 0.39764,-1.72687c0.15408,-0.14323 2.9029,0.71715 2.90633,0.76664z" fill="#fafafa"/></g><g><path d="M246.52603,165.55102c0.35969,0.17588 2.21825,5.11763 2.10441,5.16538c-2.40877,1.01046 -5.15279,0.76598 -5.68484,-1.56087c-0.07927,-0.34665 3.5051,-3.64134 3.58042,-3.60451z" fill="#faa428"/><path d="M246.52602,165.55102c0.08534,-0.05019 -0.33783,1.69336 -0.40787,3.1621c-0.07145,1.49839 0.19788,2.72079 -0.98187,2.4851c-1.07862,-0.21549 -1.92029,-0.86019 -2.19068,-2.0427c-0.07926,-0.34665 3.5051,-3.64134 3.58042,-3.60451z" fill="#fafafa"/></g><g><path d="M255.10072,168.95591c0.18915,0.27717 -0.50459,4.64728 -0.6073,4.63489c-2.17344,-0.262 -4.07112,-1.57711 -3.49455,-3.49265c0.08589,-0.28537 4.06225,-1.20028 4.10186,-1.14224z" fill="#faa428"/><path d="M250.99886,170.09816c0.08589,-0.28537 4.06225,-1.20028 4.10186,-1.14224c0.08297,-0.0012 -0.94777,1.0936 -1.60738,2.13454c-0.67293,1.06195 -0.98324,2.06405 -1.74501,1.40351c-0.69647,-0.60392 -1.04248,-1.42233 -0.74947,-2.39581z" fill="#fafafa"/></g><g><path d="M259.11824,174.40826c0.18915,0.27717 -0.50459,4.64728 -0.6073,4.63489c-2.17344,-0.262 -4.07112,-1.57711 -3.49455,-3.49265c0.08589,-0.28537 4.06225,-1.20028 4.10186,-1.14224z" fill="#faa428"/><path d="M255.01638,175.55049c0.08589,-0.28537 4.06225,-1.20028 4.10186,-1.14224c0.08297,-0.0012 -0.94777,1.0936 -1.60738,2.13454c-0.67293,1.06195 -0.98324,2.06405 -1.74501,1.40351c-0.69648,-0.60392 -1.04248,-1.42233 -0.74947,-2.39581z" fill="#fafafa"/></g><g><path d="M250.22231,173.54736c0.18915,0.27717 -0.50459,4.64728 -0.6073,4.63489c-2.17344,-0.262 -4.07112,-1.57711 -3.49455,-3.49265c0.08589,-0.28537 4.06225,-1.20028 4.10186,-1.14224z" fill="#faa428"/><path d="M246.12046,174.6896c0.08589,-0.28537 4.06225,-1.20028 4.10186,-1.14224c0.08297,-0.0012 -0.94777,1.0936 -1.60738,2.13454c-0.67293,1.06195 -0.98324,2.06405 -1.74501,1.40351c-0.69647,-0.60392 -1.04248,-1.42233 -0.74947,-2.39581z" fill="#fafafa"/></g><g><path d="M253.66589,181.29544c0.18915,0.27717 -0.50459,4.64728 -0.6073,4.63489c-2.17344,-0.262 -4.07112,-1.57711 -3.49455,-3.49265c0.08589,-0.28537 4.06225,-1.20028 4.10186,-1.14224z" fill="#faa428"/><path d="M249.56404,182.43767c0.08589,-0.28537 4.06225,-1.20028 4.10186,-1.14224c0.08297,-0.0012 -0.94777,1.0936 -1.60738,2.13454c-0.67293,1.06195 -0.98324,2.06405 -1.74501,1.40351c-0.69647,-0.60392 -1.04248,-1.42233 -0.74947,-2.39581z" fill="#fafafa"/></g><g><path d="M262.148,186.46969c-0.08643,0.39329 -3.28784,2.9923 -3.33112,2.88236c-0.91591,-2.32615 -1.00605,-5.17222 0.5335,-6.04445c0.22936,-0.12994 2.81572,3.07973 2.79762,3.16208z" fill="#faa428"/><path d="M262.148,186.46969c0.04227,0.08039 -1.18834,-0.10814 -2.19815,0.02653c-1.0302,0.13739 -1.83994,0.58519 -1.78949,-0.65678c0.04612,-1.13552 0.40763,-2.08857 1.19003,-2.53184c0.22936,-0.12994 2.81572,3.07973 2.79762,3.16208z" fill="#fafafa"/></g><g><path d="M254.98615,188.53487c0.18778,-0.09486 2.58992,1.49448 2.57949,1.54297c-0.0498,0.23159 -2.62301,2.00224 -2.66664,1.94367c-0.9231,-1.23939 -1.1733,-2.84993 0.08715,-3.48665z" fill="#faa428"/><path d="M257.56563,190.07783c0.04096,0.04186 -1.02049,0.04703 -1.87387,0.21587c-0.87061,0.17225 -1.53422,0.50091 -1.5668,-0.21011c-0.02978,-0.65006 0.22062,-1.22515 0.86119,-1.54873c0.18778,-0.09486 2.58992,1.49448 2.57949,1.54297z" fill="#fafafa"/></g><path d="M237.53137,165.72301c0.51129,-0.79952 0.81716,-0.71365 1.42468,-0.62981c0.60752,0.08383 1.20871,-0.12011 1.34443,1.01192c0.13572,1.13204 0.23816,3.25385 0.03301,4.87087c-0.21531,1.69702 -1.89489,3.02048 -2.7278,3.85162c-0.51206,0.51097 -0.82959,1.12519 -0.18268,1.29164c5.8396,1.50257 5.58974,1.91354 7.1076,4.62959c2.15956,3.86429 -0.00831,7.8912 4.5845,12.19264c1.87886,1.75966 10.14534,0.75524 11.56332,1.8883c0.26628,0.21278 -0.00361,0.93283 -0.51234,1.69572c-0.2755,0.41313 -1.39778,1.80688 -1.5067,1.91193c-0.19593,0.18899 -6.70202,-0.47417 -9.32956,-2.49024c-8.61564,-6.61065 -4.6652,-11.04167 -7.11534,-15.13101c-1.30347,-2.17553 -5.60444,-2.68323 -6.00481,-2.76893c-1.18933,-0.25458 -2.28032,-0.52787 -2.10335,-1.99198c0.31578,-2.61254 3.01314,-2.80862 3.01314,-5.42365c0,-1.4909 -0.2662,-3.84823 0.41191,-4.90862z" fill="#fafafa"/></g></g></g></svg>