<svg version="1.1" xmlns="http://www.w3.org/2000/svg" xmlns:xlink="http://www.w3.org/1999/xlink" width="81.67068" height="81.67068" viewBox="0,0,81.67068,81.67068"><g transform="translate(-199.16466,-139.16466)"><g data-paper-data="{&quot;isPaintingLayer&quot;:true}" fill-rule="nonzero" stroke-width="0" stroke-linecap="butt" stroke-linejoin="miter" stroke-miterlimit="10" stroke-dasharray="" stroke-dashoffset="0" style="mix-blend-mode: normal"><path d="M199.16466,220.83534v-81.67068h81.67068v81.67068z" data-paper-data="{&quot;index&quot;:null}" fill="none" stroke="none"/><g><path d="M231.76893,180.61295c0,1.29698 1.02853,2.25126 1.66829,3.38549c0.63033,1.11751 0.86277,2.41995 2.0828,3.0367c1.28164,0.64789 3.13513,0.67055 4.74267,0.67055c1.08921,0 2.01705,0.12231 2.83839,-0.25744c1.21926,-0.56373 2.20382,-1.81224 3.13319,-2.79592c1.14085,-1.20752 2.52218,-2.38192 2.52218,-4.03938c0,-1.19192 -0.52369,-2.22937 -0.96889,-3.30382c-0.43638,-1.05318 -0.78361,-2.14877 -1.8348,-2.78699c-0.66604,-0.40438 -1.73866,-0.12533 -2.69735,-0.27251c-1.05768,-0.16237 -2.01471,-0.72942 -2.99273,-0.72942c-1.04827,0 -3.10296,-0.19168 -4.03,0.09831c-1.51911,0.4752 -3.47377,1.38117 -4.18995,2.52495c-0.80255,1.28172 -0.27381,2.86205 -0.27381,4.46947z" fill="#f32f00" stroke="#000000"/><path d="M235.09638,180.52539c0,1.11033 -0.37336,2.29522 0.44708,3.0466c0.56123,0.51399 1.44067,-0.03747 2.49754,0.13281c0.62818,0.10121 1.43231,1.02369 1.959,1.02369c0.58252,0 0.57011,-0.6906 1.23594,-0.73975c0.88395,-0.06525 2.42916,0.46592 2.93545,0.03109c0.88533,-0.76037 0.73223,-2.3353 0.73223,-3.49444c0,-1.36077 0.6466,-2.57051 -0.52332,-3.33867c-0.32987,-0.21659 -1.44172,-0.04782 -2.09856,-0.18769c-0.98752,-0.21028 -1.60875,-0.67674 -2.28174,-0.67674c-1.26897,0 -2.77562,-0.28736 -3.64632,0.39058c-0.4724,0.36781 0.09509,1.32413 -0.09785,1.99137c-0.21039,0.72758 -1.15945,1.17766 -1.15945,1.82115z" fill="#f29e4a" stroke="#000000"/><path d="M227.04044,185.86683c0,-0.91885 0.74488,-1.66373 1.66373,-1.66373c0.91885,0 1.66373,0.74488 1.66373,1.66373c0,0.91885 -0.74488,1.66373 -1.66373,1.66373c-0.91885,0 -1.66373,-0.74488 -1.66373,-1.66373z" fill="#f32f00" stroke="#000000"/><path d="M229.31712,181.2259c0,-0.38688 0.31363,-0.70052 0.70052,-0.70052c0.38688,0 0.70052,0.31363 0.70052,0.70052c0,0.38688 -0.31363,0.70052 -0.70052,0.70052c-0.38688,0 -0.70052,-0.31363 -0.70052,-0.70052z" fill="#f32f00" stroke="none"/><path d="M243.67771,170.45546c0,-0.62869 0.50965,-1.13834 1.13834,-1.13834c0.62869,0 1.13834,0.50965 1.13834,1.13834c0,0.62869 -0.50965,1.13834 -1.13834,1.13834c-0.62869,0 -1.13834,-0.50965 -1.13834,-1.13834z" fill="#f32f00" stroke="none"/><path d="M247.53055,174.13317c0,-0.53197 0.43124,-0.96321 0.96321,-0.96321c0.53197,0 0.96321,0.43124 0.96321,0.96321c0,0.53197 -0.43124,0.96321 -0.96321,0.96321c-0.53197,0 -0.96321,-0.43124 -0.96321,-0.96321z" fill="#f32f00" stroke="none"/><path d="M248.05594,186.30465c0,-0.87049 0.70567,-1.57616 1.57616,-1.57616c0.87049,0 1.57616,0.70567 1.57616,1.57616c0,0.87049 -0.70567,1.57616 -1.57616,1.57616c-0.87049,0 -1.57616,-0.70567 -1.57616,-1.57616z" fill="#f32f00" stroke="none"/></g></g></g></svg>