<svg version="1.1" xmlns="http://www.w3.org/2000/svg" xmlns:xlink="http://www.w3.org/1999/xlink" width="85.49398" height="85.49398" viewBox="0,0,85.49398,85.49398"><defs><linearGradient x1="-3285.69704" y1="-2895.28055" x2="-3285.69704" y2="4105.40967" gradientUnits="userSpaceOnUse" id="color-1"><stop offset="0" stop-color="#ffffff"/><stop offset="1" stop-color="#ffffff" stop-opacity="0"/></linearGradient></defs><g transform="translate(-197.25302,-137.25301)"><g data-paper-data="{&quot;isPaintingLayer&quot;:true}" fill-rule="nonzero" stroke-linecap="butt" stroke-linejoin="miter" stroke-miterlimit="10" stroke-dasharray="" stroke-dashoffset="0" style="mix-blend-mode: normal"><path d="M208.63952,205.58013c0.00324,-13.1024 0,-44.63208 0,-51.75c0,-3.5626 2.97813,-5.21784 6.54073,-5.21784c12.68063,0 43.89984,0 51,0c2.96729,0 5.18024,2.50056 5.18024,5.46784c0,6.43742 0,39.20833 0,51.75c0,2.95974 -2.72049,5.55758 -5.68024,5.55758c-6.61442,0 -39.17756,0 -52,0c-3.13138,0 -5.04177,-1.58613 -5.04073,-5.80758z" fill="url(#color-1)" stroke="#a97a4a" stroke-width="2"/><path d="M197.25302,222.74699v-85.49398h85.49398v85.49398z" fill="none" stroke="none" stroke-width="0"/><g stroke="none"><g stroke-width="0"><g data-paper-data="{&quot;index&quot;:null}"><path d="M256.01979,159.44601c0.03906,2.1544 -0.96368,2.41533 -3.39972,3.06914c-1.10258,0.29593 -2.86057,0.35032 -3.74501,0.01865c-0.93516,-0.35071 -1.845,-1.09251 -2.10044,-2.04421c-0.17833,-0.66445 1.64392,-1.2783 2.05091,-1.94608c0.72722,-1.19324 0.54027,-2.34382 2.83296,-2.95915c3.60958,-0.96881 4.32654,1.94467 4.36131,3.86166z" data-paper-data="{&quot;index&quot;:null}" fill="#f29e4a"/><path d="M248.47804,162.3553l8.71206,-1.6194c0,0 -0.25015,7.44949 -2.12735,11.68939c-1.87719,4.2399 -7.54627,10.15973 -7.54627,10.15973l-8.4387,-3.80355c0,0 8.96815,-12.88012 9.48504,-13.64325c0.55522,-0.81974 -0.08481,-2.78292 -0.08481,-2.78292z" data-paper-data="{&quot;index&quot;:null}" fill="#908816"/></g><path d="M255.36446,197.61873c-1.62196,2.51975 -5.17349,0.43223 -5.17349,0.43223c0,0 2.31349,-4.64223 3.93545,-7.16198c0.13164,-0.20449 1.64838,-2.73976 4.44232,-1.14655c2.42846,1.3848 -1.58233,5.35654 -3.20428,7.87629z" data-paper-data="{&quot;index&quot;:null}" fill="#908816"/><path d="M225.19864,195.87283c-0.16798,-1.0493 0.62863,-1.84734 1.23599,-2.35949c1.04416,-0.88048 2.55941,-0.41976 2.55941,-0.41976c0,0 1.76296,4.1391 2.21972,6.99231c0.03707,0.23155 1.25381,3.46625 -2.27262,4.4513c-3.52589,0.98489 -3.74248,-8.66436 -3.74248,-8.66436z" data-paper-data="{&quot;index&quot;:null}" fill="#908816"/><path d="M240.61537,176.96004c4.54591,0 8.43767,1.50543 9.16039,5.90663c0.24515,1.49293 0.53388,2.6939 0.31,3.66104c-0.91079,3.93439 -5.82297,4.61498 -9.47038,4.72029c-4.99541,0.14422 -7.38446,0.81719 -8.39073,-0.5163c-1.16081,-1.5383 -0.48147,-5.258 0.15963,-7.5595c1.24243,-4.46015 3.68519,-6.21216 8.2311,-6.21216z" data-paper-data="{&quot;index&quot;:null}" fill="#908816"/><path d="M236.32752,186.02657c2.30909,-2.99326 1.98323,-9.02997 1.98323,-9.02997l2.3648,-0.15004c0,0 -0.69757,6.55088 0.76582,7.7806c0.38559,0.32403 2.29315,0.54992 3.05939,-0.51435c0.75843,-1.05342 0.37757,-6.41135 0.37757,-6.41135l2.29261,1.34926c0,0 0.25222,2.82588 0.6991,4.10021c0.39028,1.11293 2.4516,3.12734 2.4516,3.12734l-0.71952,2.71917c0,0 0.48659,-0.20104 1.90081,-0.12041c1.41421,0.08063 3.25427,1.70315 3.25427,1.70315l-4.4356,7.66685c0,0 -1.5533,-2.55687 -5.64909,-2.28832c-2.24415,0.14714 -4.8472,2.02773 -7.19508,2.91933c-3.71787,1.41185 -4.94901,1.27564 -4.94901,1.27564c0,0 -1.77721,0.43893 -2.79276,-2.06446c-1.18122,-2.91178 -0.76186,-5.34255 -0.76186,-5.34255l2.35723,-0.89892l0.22459,-3.57294c0,0 2.46282,0.74503 4.77191,-2.24823z" data-paper-data="{&quot;index&quot;:null}" fill="#f32f00"/><path d="M238.4036,186.98626c0,-0.71899 0.58284,-1.30184 1.30183,-1.30184c0.71899,0 1.30184,0.58285 1.30184,1.30184c0,0.71899 -0.58285,1.30183 -1.30184,1.30183c-0.71899,0 -1.30183,-0.58284 -1.30183,-1.30183z" data-paper-data="{&quot;index&quot;:null}" fill="#f29e4a"/><path d="M243.95813,186.98626c0,-0.71899 0.58284,-1.30184 1.30183,-1.30184c0.71899,0 1.30184,0.58285 1.30184,1.30184c0,0.71899 -0.58285,1.30183 -1.30184,1.30183c-0.71899,0 -1.30183,-0.58284 -1.30183,-1.30183z" data-paper-data="{&quot;index&quot;:null}" fill="#f29e4a"/><path d="M233.46561,170.06237c0,-4.50565 3.74693,-7.14853 10.11843,-6.93716c6.13427,0.2035 4.35235,1.97557 6.9045,4.03487c1.04425,0.84259 3.01487,1.04258 4.3293,2.01649c1.31442,0.97392 2.14071,2.29759 2.14071,3.53135c0,0.87119 -1.54477,1.20512 -2.57436,1.38727c-1.8216,0.32226 -1.91342,2.20765 -3.59155,2.98608c-2.73131,1.26697 -4.59912,1.13927 -7.61563,1.13927c-4.57482,0 -7.307,0.15407 -9.17485,-2.57331c-0.73501,-1.07324 -0.53658,-4.31257 -0.53658,-5.58488z" data-paper-data="{&quot;index&quot;:null}" fill="#f29e4a"/><path d="M243.89131,175.66485c-0.03847,-0.35351 0.88566,-0.40984 1.54199,-1.1327c0.59536,-0.65571 0.86932,-1.99312 1.89549,-2.10477c0.96938,-0.10548 1.88031,1.4726 3.15088,1.80882c1.55718,0.41206 3.40175,-0.35976 3.44215,0.01151c0.00881,0.08089 0.25337,1.64886 -0.14948,1.97887c-0.45292,0.37101 -1.55977,-0.49678 -1.55977,-0.49678c0,0 -0.66777,1.1458 -1.23679,1.41546c-1.17749,0.55801 -1.70543,-0.34208 -1.70543,-0.34208c0,0 -1.45887,0.83282 -1.91823,0.70288c-0.8251,-0.2334 -1.29928,-1.28492 -1.29928,-1.28492c0,0 -2.12741,-0.24266 -2.16154,-0.55628z" data-paper-data="{&quot;index&quot;:null}" fill="#908816"/><path d="M235.12371,164.43819c2.82503,-1.33679 6.54523,-2.2076 7.71036,-0.59404c0.63865,0.88446 -3.33066,4.87067 -2.82626,5.68167c0.48791,0.78447 1.2946,1.63975 0.96564,2.69292c-0.13755,0.44036 -0.61191,1.56812 -1.15759,1.65401c-0.57327,0.09024 -1.22525,-0.86393 -1.64801,-0.47292c-1.02235,0.94558 -1.24872,3.04517 -2.23013,3.04517c-1.74439,0 -4.4957,0.22756 -5.25768,-1.24007c-1.46428,-2.8203 0.3808,-4.95 0.57707,-5.8826c0.61051,-2.90093 1.04156,-3.54733 3.86659,-4.88413z" data-paper-data="{&quot;index&quot;:null}" fill="#908816"/><path d="M236.27416,172.06965c0,-1.5173 1.06979,-2.42893 1.80035,-2.42893c0.73055,0 1.32278,0.91163 1.32278,2.42893c0,1.5173 -0.59223,2.74732 -1.32278,2.74732c-0.73055,0 -1.80035,-1.23002 -1.80035,-2.74732z" data-paper-data="{&quot;index&quot;:null}" fill="#f29e4a"/><path d="M246.92699,166.47326c0.78675,0 1.42453,0.95668 1.42453,2.1368c0,1.18011 -0.63778,2.1368 -1.42453,2.1368c-0.78675,0 -1.42454,-0.95668 -1.42454,-2.1368c0,-1.18011 0.63779,-2.1368 1.42454,-2.1368z" data-paper-data="{&quot;index&quot;:null}" fill="#908816"/><path d="M232.27463,164.64175c0.35662,-0.70129 1.67671,-5.33677 10.0735,-4.88413c5.0274,0.27101 6.66731,3.5192 7.01059,3.49146c2.69341,-0.21769 5.70847,0.93972 5.70847,1.39265c0,0.78675 -5.33007,1.42453 -11.90504,1.42453c-6.57497,0 -11.70153,0.17624 -10.88752,-1.42453z" data-paper-data="{&quot;index&quot;:null}" fill="#f32f00"/><g><path d="M230.16327,188.39248c0,0 -2.69785,-3.15275 -4.20998,-3.79695c-1.14955,-0.48973 -3.59001,-0.87648 -3.59001,-0.87648c0,0 3.48765,-4.05527 6.60751,-4.97948c4.65446,-1.37881 9.63743,-0.66004 9.63743,-0.66004l-3.44548,7.29507c0,0 -2.41632,-0.07837 -3.29396,0.20324c-0.94274,0.3025 -1.70552,2.81463 -1.70552,2.81463z" data-paper-data="{&quot;index&quot;:null}" fill="#908816"/><path d="M226.43715,184.12403c1.05026,0.44743 2.46728,1.48932 2.95863,2.29607c0.51953,0.85299 0.77782,1.99815 0.39162,2.90469c-0.26965,0.63293 -2.08241,-0.00838 -2.81473,0.26601c-1.30853,0.4903 -1.87135,1.51111 -4.05525,0.58072c-3.4383,-1.46478 -2.20486,-4.19993 -1.0494,-5.72993c1.29856,-1.7195 2.24864,-1.3061 4.56911,-0.31755z" data-paper-data="{&quot;index&quot;:null}" fill="#f29e4a"/></g></g><g fill="none" stroke-width="1" font-family="sans-serif" font-weight="normal" font-size="12" text-anchor="start"><g><g/><g/></g><g><g/><g/></g></g></g></g></g></svg>