<svg version="1.1" xmlns="http://www.w3.org/2000/svg" xmlns:xlink="http://www.w3.org/1999/xlink" width="85.49398" height="85.49398" viewBox="0,0,85.49398,85.49398"><defs><linearGradient x1="-3285.69704" y1="-2895.28053" x2="-3285.69704" y2="4105.40968" gradientUnits="userSpaceOnUse" id="color-1"><stop offset="0" stop-color="#ffffff"/><stop offset="1" stop-color="#ffffff" stop-opacity="0"/></linearGradient></defs><g transform="translate(-197.25302,-137.25302)"><g data-paper-data="{&quot;isPaintingLayer&quot;:true}" fill-rule="nonzero" stroke-linecap="butt" stroke-linejoin="miter" stroke-miterlimit="10" stroke-dasharray="" stroke-dashoffset="0" style="mix-blend-mode: normal"><path d="M208.63952,205.58015c0.00324,-13.1024 0,-44.63208 0,-51.75c0,-3.5626 2.97813,-5.21784 6.54073,-5.21784c12.68063,0 43.89984,0 51,0c2.96729,0 5.18024,2.50056 5.18024,5.46784c0,6.43742 0,39.20833 0,51.75c0,2.95974 -2.72049,5.55758 -5.68024,5.55758c-6.61442,0 -39.17756,0 -52,0c-3.13138,0 -5.04177,-1.58613 -5.04073,-5.80758z" fill="url(#color-1)" stroke="#a97a4a" stroke-width="2"/><path d="M197.25302,222.74701v-85.49398h85.49398v85.49398z" fill="none" stroke="none" stroke-width="0"/><path d="M207.25301,212.74699v-65.49398h65.49398v65.49398z" fill="none" stroke="none" stroke-width="0"/><g stroke="none" stroke-width="0"><path d="M232.17689,192.73443h-11.45219v-12.83115h11.45219z" fill="#aeaeae"/><path d="M231.58593,192.13832h-8.76966v-2.61753h8.76966z" fill="#ffffff"/><path d="M231.58593,188.57849h-9.68891v-2.36014h9.68891z" fill="#ffffff"/><path d="M231.58593,185.63922h-8.76966v-1.02956h8.76966z" fill="#ffffff"/><path d="M232.44696,193.10354h-0.85797v-13.26184h0.85797z" fill="#000000"/><path d="M232.01751,193.10313h-11.58176v-0.91883h11.58176z" fill="#000000"/><path d="M221.15566,193.10354h-0.85797v-13.27445h0.85797z" fill="#000000"/><path d="M222.18747,192.21187h-1.01118v-12.37159h1.01118z" fill="#ffffff"/><path d="M233.28092,190.80313h-1.08351v-10.9643h1.08351z" fill="#000000"/><g><path d="M232.38555,180.2707h-12.00906v-13.22094h12.00906z" fill="#aeaeae"/><g><path d="M231.63594,170.43781h-8.76966v-2.61753h8.76966z" fill="#ffffff"/><path d="M231.64513,172.62563h-8.77884v-2.29813h8.77884z" fill="#cccccc"/></g><path d="M233.28091,180.30897h-1.08351v-10.96429h1.08351z" fill="#000000"/><path d="M232.01751,167.8157h-11.58176v-0.91883h11.58176z" fill="#000000"/><path d="M232.44697,180.3102h-0.85797v-13.41375h0.85797z" fill="#000000"/><path d="M221.15566,180.35379h-0.85797v-13.4265h0.85797z" fill="#000000"/><path d="M222.18747,180.15972h-1.01118v-12.37159h1.01118z" fill="#ffffff"/></g><g><g><g><path d="M246.63404,180.10344h-13.27456v-10.50423h13.27456z" data-paper-data="{&quot;index&quot;:null}" fill="#aeaeae"/><path d="M246.66379,170.2117h-13.34059v-0.91883h13.34059z" data-paper-data="{&quot;index&quot;:null}" fill="#000000"/></g><path d="M246.70154,172.72616h-13.37189v-2.61753h13.37189z" fill="#ffffff"/><path d="M246.68621,174.91398h-13.31572v-2.29812h13.31572z" fill="#cccccc"/></g><g><path d="M246.53476,190.80641h-13.27456v-10.90443h13.27456z" fill="#aeaeae"/><path d="M246.51089,190.78531h-13.29431v-0.91883h13.29431z" fill="#000000"/><g fill="#ffffff"><path d="M246.53988,189.88485h-13.30496v-2.61753h13.30496z"/><path d="M246.53988,186.32501h-13.30496v-2.36014h13.30496z"/><path d="M246.53988,183.38574h-13.30496v-1.02956h13.30496z"/></g></g></g><g><g><g><path d="M259.63482,180.10344h-13.27456v-10.50423h13.27456z" data-paper-data="{&quot;index&quot;:null}" fill="#aeaeae"/><path d="M259.66456,170.2117h-13.34059v-0.91883h13.34059z" data-paper-data="{&quot;index&quot;:null}" fill="#000000"/></g><path d="M259.70231,172.72616h-13.37189v-2.61753h13.37189z" fill="#ffffff"/><path d="M259.68699,174.91398h-13.31572v-2.29812h13.31572z" fill="#cccccc"/></g><g><path d="M259.53554,190.80641h-13.27456v-10.90443h13.27456z" fill="#aeaeae"/><path d="M259.51167,190.78531h-13.29431v-0.91883h13.29431z" fill="#000000"/><g fill="#ffffff"><path d="M259.54066,189.88485h-13.30496v-2.61753h13.30496z"/><path d="M259.54066,186.32501h-13.30496v-2.36014h13.30496z"/><path d="M259.54066,183.38574h-13.30496v-1.02956h13.30496z"/></g></g></g></g></g></g></svg>