<svg version="1.1" xmlns="http://www.w3.org/2000/svg" xmlns:xlink="http://www.w3.org/1999/xlink" width="39.18926" height="35.29789" viewBox="0,0,39.18926,35.29789"><defs><linearGradient x1="221.28505" y1="182.26489" x2="259.14284" y2="182.26489" gradientUnits="userSpaceOnUse" id="color-1"><stop offset="0" stop-color="#ffffff"/><stop offset="1" stop-color="#eaeaea"/></linearGradient></defs><g transform="translate(-220.60669,-165.60528)"><g data-paper-data="{&quot;isPaintingLayer&quot;:true}" fill-rule="nonzero" stroke-linejoin="miter" stroke-miterlimit="10" stroke-dasharray="" stroke-dashoffset="0" style="mix-blend-mode: normal"><g><g stroke-width="1"><g data-paper-data="{&quot;index&quot;:null}"><path d="M231.4364,200.40317c-0.64117,-2.35073 -0.90648,-6.12453 -0.56166,-8.21812c0.35529,-2.15711 1.25877,-2.82432 1.25877,-2.82432l15.97692,0.07692c0,0 0.97947,1.06662 1.14178,2.35541c0.29148,2.31452 0.16682,5.65441 -0.20908,8.67261" data-paper-data="{&quot;index&quot;:null}" fill="#efcfaf" stroke="#5c442b" stroke-linecap="butt"/><path d="M246.08733,198.47707v-3.84616" fill="none" stroke="#b2815f" stroke-linecap="round"/></g><path d="M243.34633,196.98729v-2.125" fill="none" stroke="#b2815f" stroke-linecap="round"/><path d="M233.47133,199.11229v-4" fill="none" stroke="#b2815f" stroke-linecap="round"/></g><g stroke-linecap="butt"><path d="M240.20132,166.4461c1.83232,0 6.14033,-0.50352 7.81521,-0.09082c4.30994,1.06199 6.12762,3.97308 7.86953,7.25867c1.42609,2.68988 3.15989,5.51128 3.15989,8.77761c0,2.01555 0.44066,4.20386 -0.55749,5.88324c-0.88066,1.4817 -3.12224,2.48692 -4.34781,3.77005c-3.45462,3.61684 -8.01535,6.29216 -13.93932,6.29216c-5.15786,0 -9.10696,-1.75339 -12.50977,-4.59416c-1.77237,-1.47962 -4.47689,-3.25424 -5.63374,-5.22974c-1.10377,-1.88488 -0.70113,-3.95264 -0.70113,-6.12154c0,-2.02723 0.91947,-3.60372 1.83357,-5.38749c0.7452,-1.45419 1.36528,-3.16771 2.47664,-4.37955c1.82114,-1.98583 1.90913,-4.68495 4.5315,-5.76382c1.46158,-0.60132 3.01608,0.11128 5.21789,0.18705c1.32588,0.04563 3.71085,-0.60163 4.78506,-0.60163z" fill="url(#color-1)" stroke="#909090" stroke-width="1.5"/><path d="M242.41452,198.28525c-6.99574,0.76623 -10.61305,-1.81199 -10.61305,-1.81199c0,0 3.0414,1.84957 11.07598,0.39776c9.19489,-1.66147 11.44438,-4.7983 11.44438,-4.7983c0,0 -2.80012,5.21501 -11.90733,6.21251z" fill="#909090" stroke="none" stroke-width="0"/></g></g></g></g></svg>