<svg version="1.1" xmlns="http://www.w3.org/2000/svg" xmlns:xlink="http://www.w3.org/1999/xlink" width="109.33333" height="109.33333" viewBox="0,0,109.33333,109.33333"><g transform="translate(-185.33339,-125.33337)"><g data-paper-data="{&quot;isPaintingLayer&quot;:true}" fill-rule="nonzero" stroke="none" stroke-linecap="butt" stroke-linejoin="miter" stroke-miterlimit="10" stroke-dasharray="" stroke-dashoffset="0" style="mix-blend-mode: normal"><path d="M252.65257,166.05971c0.46256,0.21311 4.16527,-3.9914 5.11346,-3.00407c3.14217,3.27186 5.02106,6.06104 3.65525,8.02568c-1.30332,1.87477 -4.76358,3.26847 -6.18791,3.54527c-2.91693,0.56687 -5.13012,-1.79463 -5.72112,-4.8357c-0.591,-3.04107 -1.32081,-4.59068 0.16601,-5.74657c0.85826,-0.66724 2.41961,1.75983 2.97431,2.01538z" data-paper-data="{&quot;index&quot;:null}" fill="#f29e4a" stroke-width="0"/><path d="M185.33339,234.6667v-109.33333h109.33333v109.33333z" fill="none" stroke-width="0"/><path d="M229.72948,184.48232c0,-3.68234 0.17304,-9.51194 2.13404,-9.31291c3.15134,0.31984 15.43122,0.9131 16.93143,0.47792c1.35497,-0.39304 1.55202,7.36833 1.55202,8.69262c0,0 -6.96383,4.46128 -10.41811,4.48514c-3.41783,0.0236 -10.19938,-4.34276 -10.19938,-4.34276z" fill="#908816" stroke-width="0"/><path d="M227.69991,165.49025c0.5547,-0.25555 2.11604,-2.68262 2.9743,-2.01538c1.48682,1.15588 0.75702,2.7055 0.16602,5.74657c-0.591,3.04107 -2.80419,5.40257 -5.72112,4.8357c-1.42433,-0.2768 -4.88459,-1.67049 -6.18791,-3.54527c-1.36581,-1.96464 0.51308,-4.75382 3.65525,-8.02568c0.94819,-0.98732 4.65091,3.21718 5.11346,3.00407z" data-paper-data="{&quot;index&quot;:null}" fill="#f29e4a" stroke-width="0"/><path d="M230.55421,165.37539l0.00457,-0.00387c1.60447,-0.62949 3.09426,-0.59049 4.77724,-0.90524c3.35125,-0.61477 7.07718,0.0704 10.4563,0.11827c2.52538,0.16489 8.71751,2.19025 6.87707,5.60477c-0.59916,0.59737 -1.04379,1.50271 -1.51045,2.07373c-0.08696,0.1064 1.73067,0.72738 1.76676,0.78466c0.93053,1.47704 -0.86285,3.28323 -1.49734,4.35425c-2.55971,2.57878 -6.02736,2.59515 -9.55999,2.59515c-3.17997,0 -7.11336,0.40176 -9.97511,-1.0263c-2.18194,-1.21355 -4.05874,-2.82536 -4.6984,-5.2221c-0.209,-0.7831 1.02332,-1.81027 0.45537,-2.3885c-3.49545,-1.83959 0.73406,-5.24808 2.89151,-5.98135c0,0 0.0045,-0.0015 0.01247,-0.00347z" data-paper-data="{&quot;index&quot;:null}" fill="#908816" stroke-width="0.5"/><path d="M249.4717,171.65088c0,5.24087 -1.47637,9.88748 -9.48942,9.88748c-7.37332,0 -9.48942,-4.64662 -9.48942,-9.88748c0,-5.24087 -0.01826,-9.39368 9.48942,-9.48942c9.50445,-0.09571 9.48942,4.24855 9.48942,9.48942z" data-paper-data="{&quot;index&quot;:null}" fill="#f29e4a" stroke-width="0"/><path d="M250.32468,172.2906c0,0.69979 -2.21249,2.39495 -2.21249,2.39495c0,0 3.09115,0.85305 1.77646,1.56543c-0.7567,0.41003 -3.12144,1.78666 -4.91914,2.23367c-2.12494,0.52838 -3.71173,0.09669 -4.56074,0.09669c-1.57916,0 -4.80915,0.35063 -6.42676,-0.38341c-0.60012,-0.27232 -3.84805,-1.31683 -4.19945,-1.9474c-0.49686,-0.89156 2.02701,-1.38168 2.02701,-1.38168c0,0 -2.38294,-1.94225 -2.38294,-2.57825c0,-1.7077 6.71723,1.17285 6.71723,1.17285c0,0 1.37569,2.49606 3.9349,2.48371c2.8558,-0.01378 4.00839,-2.64428 4.00839,-2.64428c0,0 6.23754,-1.86614 6.23754,-1.01228z" data-paper-data="{&quot;index&quot;:null}" fill="#908816" stroke-width="0"/><path d="M235.93061,167.70581c0.76552,0 1.3861,1.00247 1.3861,2.23908c0,1.23661 -0.62058,2.23907 -1.3861,2.23907c-0.76552,0 -1.3861,-1.00246 -1.3861,-2.23907c0,-1.23661 0.62058,-2.23908 1.3861,-2.23908z" data-paper-data="{&quot;index&quot;:null}" fill="#908816" stroke-width="0"/><path d="M244.24718,167.4926c0.76552,0 1.3861,1.05021 1.3861,2.3457c0,1.29549 -0.62058,2.3457 -1.3861,2.3457c-0.76552,0 -1.38609,-1.05021 -1.38609,-2.3457c0,-1.29549 0.62058,-2.3457 1.38609,-2.3457z" data-paper-data="{&quot;index&quot;:null}" fill="#908816" stroke-width="0"/><path d="M249.25846,165.89324c0,0.6129 -4.05761,0.31987 -9.06294,0.31987c-5.00532,0 -9.91591,0.29303 -9.91591,-0.53311c0,-2.53211 4.69735,-7.14372 9.70267,-7.14372c5.00532,0 9.27618,4.82486 9.27618,7.35697z" data-paper-data="{&quot;index&quot;:null}" fill="#f32f00" stroke-width="0"/><path d="M231.58107,180.18253c0.00315,-1.05465 0.73443,-1.79161 0.73443,-1.79161l2.01931,0.97938c0,0 1.49245,6.49643 5.78639,6.49643c2.68969,0 5.68284,-6.28315 5.68284,-6.28315l2.29426,-1.84976c0,0 1.35056,3.23336 1.97411,5.39172c0.80693,2.79308 1.50303,4.76353 1.38935,7.45876c-0.20239,4.79854 -4.7991,7.21845 -11.6816,6.9911c-6.19707,-0.20471 -10.98905,-2.01744 -10.99954,-7.10477c-0.00641,-3.10875 0.12219,-4.22231 0.97042,-6.4718c0.84823,-2.24949 1.83003,-3.8163 1.83003,-3.8163z" data-paper-data="{&quot;index&quot;:null}" fill="#f32f00" stroke-width="0"/><path d="M256.08902,190.5943c1.91198,2.60734 0.76981,6.6952 -2.55113,9.13046c-3.32094,2.43526 -7.56305,2.29576 -9.47504,-0.31158c-1.91198,-2.60734 1.00919,-3.96015 3.62121,-7.14393c3.65652,-4.45693 6.49298,-4.2823 8.40496,-1.67495z" fill="#908816" stroke-width="0"/><path d="M233.45626,191.29038c1.8543,3.67705 4.40987,5.6347 1.97498,7.76198c-2.43489,2.12727 -6.60521,1.33768 -9.3147,-1.76359c-2.70947,-3.10127 -2.93207,-7.33984 -0.49719,-9.46713c2.43489,-2.12727 5.24111,-1.67873 7.83691,3.46872z" data-paper-data="{&quot;index&quot;:null}" fill="#908816" stroke-width="0"/><g fill="#f29e4a" stroke-width="0"><path d="M234.54924,188.1516c0,-0.88076 0.714,-1.59476 1.59476,-1.59476c0.88076,0 1.59476,0.714 1.59476,1.59476c0,0.88076 -0.714,1.59476 -1.59476,1.59476c-0.88076,0 -1.59476,-0.714 -1.59476,-1.59476z" data-paper-data="{&quot;index&quot;:null}"/><path d="M241.35358,188.1516c0,-0.88076 0.714,-1.59476 1.59477,-1.59476c0.88076,0 1.59476,0.714 1.59476,1.59476c0,0.88076 -0.714,1.59476 -1.59476,1.59476c-0.88076,0 -1.59477,-0.714 -1.59477,-1.59476z" data-paper-data="{&quot;index&quot;:null}"/></g></g></g></svg>