<svg version="1.1" xmlns="http://www.w3.org/2000/svg" xmlns:xlink="http://www.w3.org/1999/xlink" width="93.39969" height="93.39969" viewBox="0,0,93.39969,93.39969"><defs><linearGradient x1="239.59443" y1="168.42634" x2="239.59443" y2="191.64902" gradientUnits="userSpaceOnUse" id="color-1"><stop offset="0" stop-color="#e3872b"/><stop offset="1" stop-color="#dc570f"/></linearGradient></defs><g transform="translate(-193.30016,-133.30015)"><g data-paper-data="{&quot;isPaintingLayer&quot;:true}" fill-rule="nonzero" stroke="#000000" stroke-width="0" stroke-linecap="butt" stroke-linejoin="miter" stroke-miterlimit="10" stroke-dasharray="" stroke-dashoffset="0" style="mix-blend-mode: normal"><path d="M193.30017,226.69985v-93.39969h93.39969v93.39969z" fill="none"/><path d="M241.41244,168.44842c0,0 3.14452,6.1804 3.14452,11.55151c0,5.524 -3.50377,11.64909 -3.50377,11.64909l-3.08372,-0.07629c0,0 -3.35689,-2.24979 -3.33749,-11.44781c0.02099,-9.95066 2.85164,-11.69858 2.85164,-11.69858z" data-paper-data="{&quot;index&quot;:null}" fill="url(#color-1)"/><g data-paper-data="{&quot;index&quot;:null}"><path d="M245.3681,179.9999c0,6.46713 -0.98117,11.67043 -3.58749,11.70976c-2.44836,0.03695 -3.58749,-5.24263 -3.58749,-11.70976c0,-6.46713 1.21623,-11.70976 3.58749,-11.70976c2.44925,0 3.58749,5.24263 3.58749,11.70976z" fill="#e3872b"/><path d="M241.70263,173.12682c1.11814,0 1.4038,4.00166 1.4038,7.79758c0,2.0058 0.18688,3.49635 -0.10663,4.75014c-0.26195,1.11897 -0.97003,2.1121 -1.53114,2.12298c-1.11773,0.0217 -1.63777,-3.0772 -1.63777,-6.87312c0,-3.79592 0.7892,-7.79758 1.87173,-7.79758z" fill="#dc570f"/><path d="M242.28754,172.43349c1.11814,0 1.63777,3.0772 1.63777,6.87312c0,3.79592 -0.44794,7.46634 -1.63777,7.48943c-1.11773,0.02169 -1.26277,-3.69351 -1.26277,-7.48943c0,-2.17074 -0.05238,-4.10643 0.30554,-5.36603c0.26797,-0.94303 0.49376,-1.5071 0.95723,-1.5071z" fill="#ffffff"/><path d="M243.57436,179.99994c0,3.79592 -0.44793,6.85003 -1.63777,6.87312c-1.11773,0.0217 -1.13777,-3.0772 -1.13777,-6.87312c0,-3.79592 0.05524,-6.87312 1.13777,-6.87312c1.11814,0 1.63777,3.0772 1.63777,6.87312z" fill="#e3872b"/></g></g></g></svg>