<svg version="1.1" xmlns="http://www.w3.org/2000/svg" xmlns:xlink="http://www.w3.org/1999/xlink" width="81.67068" height="81.67068" viewBox="0,0,81.67068,81.67068"><g transform="translate(-199.16466,-139.16466)"><g data-paper-data="{&quot;isPaintingLayer&quot;:true}" fill-rule="nonzero" stroke="none" stroke-width="0" stroke-linecap="butt" stroke-linejoin="miter" stroke-miterlimit="10" stroke-dasharray="" stroke-dashoffset="0" style="mix-blend-mode: normal"><path d="M199.16466,220.83534v-81.67068h81.67068v81.67068z" data-paper-data="{&quot;index&quot;:null}" fill="none"/><path d="M237.61892,201.34246v-32.78003h4.73489v32.78003z" data-paper-data="{&quot;index&quot;:null}" fill="#20ad00"/><g><path d="M240,159.67895c10.57358,0 19.14517,3.74033 19.14517,8.35426c0,4.61393 -8.57158,8.35426 -19.14517,8.35426c-10.57358,0 -19.14517,-3.74033 -19.14517,-8.35426c0,-4.61393 8.57158,-8.35426 19.14517,-8.35426z" fill="#ffffff"/><path d="M240,162.72478c6.96896,0 12.61841,2.37666 12.61841,5.30843c0,2.93176 -5.64946,5.30843 -12.61841,5.30843c-6.96896,0 -12.61841,-2.37666 -12.61841,-5.30843c0,-2.93176 5.64946,-5.30843 12.61841,-5.30843z" fill="#f29e4a"/><path d="M233.29919,168.03321c0,-1.55687 3.00006,-2.81896 6.70081,-2.81896c3.70076,0 6.70081,1.26209 6.70081,2.81896c0,1.55687 -3.00006,2.81896 -6.70081,2.81896c-3.70076,0 -6.70081,-1.26209 -6.70081,-2.81896z" fill="#f32f00"/></g><g fill="#20ad00"><path d="M235.67764,190.17919c2.48246,2.42461 2.21782,5.93236 2.71519,7.85261c0.32988,1.27358 2.06676,1.75931 1.33674,2.58626c-0.9972,1.12963 -5.09935,1.10539 -9.22827,-2.92731c-1.77331,-1.73198 -2.12381,-4.23233 -3.03669,-6.52155c-1.21265,-3.04095 -3.88146,-4.92718 -3.88146,-4.92718c0,0 7.96556,-0.09553 12.0945,3.93717z" data-paper-data="{&quot;index&quot;:null}"/><path d="M256.41685,186.24202c0,0 -2.6688,1.88624 -3.88146,4.92718c-0.91289,2.28922 -1.26338,4.78957 -3.0367,6.52155c-4.12893,4.0327 -8.23107,4.05694 -9.22827,2.92731c-0.73001,-0.82695 1.00686,-1.31268 1.33674,-2.58626c0.49737,-1.92025 0.23273,-5.42801 2.71519,-7.85261c4.12893,-4.0327 12.09449,-3.93718 12.09449,-3.93718z" data-paper-data="{&quot;index&quot;:null}"/></g></g></g></svg>