<svg version="1.1" xmlns="http://www.w3.org/2000/svg" xmlns:xlink="http://www.w3.org/1999/xlink" width="42.65698" height="35.67239" viewBox="0,0,42.65698,35.67239"><g transform="translate(-218.66243,-167.09257)"><g data-paper-data="{&quot;isPaintingLayer&quot;:true}" fill-rule="nonzero" stroke="none" stroke-width="0" stroke-linecap="butt" stroke-linejoin="miter" stroke-miterlimit="10" stroke-dasharray="" stroke-dashoffset="0" style="mix-blend-mode: normal"><g><path d="M258.71363,186.83731c0.38578,4.00773 2.02099,7.23127 -1.80322,7.59171c-11.77625,1.1099 -10.48884,7.57515 -16.63859,7.57515c-7.52966,0 -4.42373,-7.04722 -17.87427,-7.77596c-2.6017,-0.14096 -1.88227,-4.66396 -1.60652,-7.39089c1.03898,-10.27427 8.48927,-19.74475 18.96131,-19.74475c10.47204,0 17.92233,8.951 18.96131,19.74475z" data-paper-data="{&quot;index&quot;:null}" fill="#f32f00"/><g data-paper-data="{&quot;index&quot;:null}" fill="#f29e4a"><path d="M248.65239,198.26957l-5.1041,-10.02531l-9.81703,-0.0728l-10.37551,-10.29755l1.29155,-2.26138l10.9932,10.47538l9.82312,-0.04728l4.91962,10.79599z"/><path d="M229.26212,196.97035l4.91962,-10.79599l9.82312,0.04728l10.9932,-10.47538l1.29155,2.26138l-10.37551,10.29755l-9.81704,0.0728l-5.10409,10.02531z" data-paper-data="{&quot;index&quot;:null}"/></g><g data-paper-data="{&quot;index&quot;:null}" fill="#f29e4a"><path d="M250.38535,170.74209l-3.68329,3.76584l-11.67168,-0.04728l-14.49214,15.00441l0.37235,-3.6916l11.85126,-13.39636l11.66445,-0.07279l3.62713,-3.14011z"/><path d="M231.93931,168.87694l3.63359,3.29365l11.66445,0.0728l11.37452,13.15798l0.61072,4.16833l-14.25378,-15.24277l-11.67167,0.04728l-3.7317,-3.90236z" data-paper-data="{&quot;index&quot;:null}"/></g><path d="M220.10798,196.40773c-2.44515,-1.68726 -1.33067,-4.77566 0,-5.39756c0.64171,-0.29991 5.67316,0.01075 10.78275,3.18769c3.15157,1.95951 5.61838,5.22904 9.23631,5.20698c3.58574,-0.02187 5.32434,-2.37016 8.44792,-4.34485c5.09501,-3.22102 10.8109,-4.49539 11.46948,-4.04981c2.03469,1.37662 1.32902,4.17095 0,5.39756c-0.39231,0.36209 -4.93642,-0.10592 -8.7643,1.91182c-3.64762,1.92273 -6.47514,4.43869 -11.15365,4.44538c-5.1781,0.00741 -7.13449,-2.24998 -10.94522,-4.41498c-3.13426,-1.78068 -8.56756,-1.59324 -9.07329,-1.94222z" data-paper-data="{&quot;index&quot;:null}" fill="#ffffff"/></g></g></g></svg>