<svg version="1.1" xmlns="http://www.w3.org/2000/svg" xmlns:xlink="http://www.w3.org/1999/xlink" width="41.27485" height="41.4912" viewBox="0,0,41.27485,41.4912"><g transform="translate(-219.37503,-159.30501)"><g data-paper-data="{&quot;isPaintingLayer&quot;:true}" fill-rule="nonzero" stroke="none" stroke-width="0" stroke-linecap="butt" stroke-linejoin="miter" stroke-miterlimit="10" stroke-dasharray="" stroke-dashoffset="0" style="mix-blend-mode: normal"><g><path d="M222.66496,195.41868c-1.6571,-1.96917 -5.31917,-21.34305 5.72911,-30.91278c7.03864,-6.09669 32.2558,-4.8861 32.2558,-4.8861v40.63442c0,0 -11.12409,0.42532 -22.43012,-0.38871c0,0 -12.84392,-1.22542 -15.55479,-4.44683z" fill="#f29e4a"/><path d="M240.72615,179.2186c4.50862,0 8.16359,3.86583 8.16359,8.63457c0,4.76874 -3.65496,8.63457 -8.16359,8.63457c-4.50862,0 -8.16359,-3.86583 -8.16359,-8.63457c0,-4.76874 3.65496,-8.63457 8.16359,-8.63457z" fill="#f32f00"/><path d="M227.02034,165.6083c2.43593,-2.96153 9.35991,-3.59589 9.35991,-3.59589c1.16927,1.94788 1.67703,2.74135 1.67703,5.1963c0,7.0664 -5.58788,12.79486 -12.48088,12.79486c-1.64072,0 -3.20749,-0.32456 -4.64257,-0.91446c0,0 3.44575,-10.27024 6.08651,-13.48081z" fill="#f32f00"/><path d="M260.03619,160.06556c0.37701,4.03859 -3.86583,7.69262 -8.63457,7.69262c-4.76874,0 -8.63457,-2.9441 -8.63457,-7.19262c0,0 17.22214,-1.0035 17.26914,-0.5z" fill="#f32f00"/><path d="M227.89945,164.28438c5.50439,-5.1615 32.75043,-4.97857 32.75043,-4.97857v1.1402c0,0 -26.8413,-0.82294 -32.79655,5.6511c-4.20439,4.57065 -8.82646,12.95953 -5.38032,27.28164c0.42458,1.76455 3.16499,3.33836 6.99963,4.20769c11.04755,2.50453 31.17724,1.59513 31.17724,1.59513v1.54363c0,0 -20.31361,0.60407 -31.73597,-1.71162c-3.94208,-0.79919 -6.82514,-2.23978 -7.44868,-3.77254c-5.47966,-13.46987 0.92983,-25.79516 6.43422,-30.95666z" fill="#000000"/></g></g></g></svg>