<svg version="1.1" xmlns="http://www.w3.org/2000/svg" xmlns:xlink="http://www.w3.org/1999/xlink" width="85.49398" height="85.49398" viewBox="0,0,85.49398,85.49398"><defs><linearGradient x1="-3285.69704" y1="-2895.28054" x2="-3285.69704" y2="4105.40968" gradientUnits="userSpaceOnUse" id="color-1"><stop offset="0" stop-color="#ffffff"/><stop offset="1" stop-color="#ffffff" stop-opacity="0"/></linearGradient></defs><g transform="translate(-197.25302,-137.25303)"><g data-paper-data="{&quot;isPaintingLayer&quot;:true}" fill-rule="nonzero" stroke-linejoin="miter" stroke-miterlimit="10" stroke-dasharray="" stroke-dashoffset="0" style="mix-blend-mode: normal"><path d="M197.25302,222.74701v-85.49398h85.49398v85.49398z" fill="none" stroke="none" stroke-width="0" stroke-linecap="butt"/><path d="M208.63952,205.58014c0.00324,-13.1024 0,-44.63208 0,-51.75c0,-3.5626 2.97813,-5.21784 6.54073,-5.21784c12.68063,0 43.89984,0 51,0c2.96729,0 5.18024,2.50056 5.18024,5.46784c0,6.43742 0,39.20833 0,51.75c0,2.95974 -2.72049,5.55758 -5.68024,5.55758c-6.61442,0 -39.17756,0 -52,0c-3.13138,0 -5.04177,-1.58613 -5.04073,-5.80758z" fill="url(#color-1)" stroke="#a97a4a" stroke-width="2" stroke-linecap="butt"/><path d="M207.25301,212.74699v-65.49398h65.49398v65.49398z" fill="none" stroke="none" stroke-width="0" stroke-linecap="butt"/><g><path d="M219.73503,200.2618v-26.31161h40.74426v26.31161z" data-paper-data="{&quot;index&quot;:null}" fill="#f32f00" stroke="none" stroke-width="0" stroke-linecap="butt"/><g fill="#f32f00" stroke="none" stroke-width="0" stroke-linecap="butt"><path d="M219.77485,174.13393c0,0 7.20179,-4.38689 10.28749,-6.82469c5.05591,-3.99433 6.05565,-5.93915 6.66921,-6.08664c0.41557,-0.09989 2.30897,3.44594 1.20716,6.90281c-1.10181,3.45687 2.074,6.00852 2.074,6.00852z" data-paper-data="{&quot;index&quot;:null}"/><path d="M240.28209,174.13393c0,0 7.20179,-4.38689 10.28749,-6.82469c5.05591,-3.99433 6.05565,-5.93915 6.66921,-6.08664c0.41557,-0.09989 2.30897,3.44594 1.20716,6.90281c-1.10181,3.45687 2.074,6.00852 2.074,6.00852z" data-paper-data="{&quot;index&quot;:null}"/></g><g fill="none" stroke="#ffffff" stroke-width="1.5" stroke-linecap="butt"><path d="M219.695,174.25692c1.69879,-0.02656 7.09443,-5.03105 10.18013,-7.46885c5.05591,-3.99433 6.05565,-5.93915 6.66921,-6.08664c0.41557,-0.09989 2.30897,3.44594 1.20716,6.90281c-1.10181,3.45687 1.16244,6.6381 2.43482,5.88825" data-paper-data="{&quot;index&quot;:null}"/><path d="M240.09488,173.61277c0,0 7.20179,-4.38689 10.28749,-6.82469c5.05591,-3.99433 6.05565,-5.93915 6.66921,-6.08664c0.41557,-0.09989 2.30897,3.44594 1.20716,6.90281c-1.10181,3.45687 0.71323,6.33741 2.28872,6.22324" data-paper-data="{&quot;index&quot;:null}"/></g><path d="M234.17222,178.0803c0,0 4.3102,2.68897 13.34849,-4.88899c1.97859,-1.65891 2.83262,4.90911 2.83262,4.90911" fill="none" stroke="#ffffff" stroke-width="1" stroke-linecap="round"/></g></g></g></svg>