<svg version="1.1" xmlns="http://www.w3.org/2000/svg" xmlns:xlink="http://www.w3.org/1999/xlink" width="45.61657" height="40.72572" viewBox="0,0,45.61657,40.72572"><g transform="translate(-218.02632,-160.63714)"><g data-paper-data="{&quot;isPaintingLayer&quot;:true}" fill-rule="nonzero" stroke-linejoin="miter" stroke-miterlimit="10" stroke-dasharray="" stroke-dashoffset="0" style="mix-blend-mode: normal"><g data-paper-data="{&quot;index&quot;:null}"><path d="M256.09713,197.02666c1.98846,1.0883 3.56313,2.67937 3.56313,3.9472c0,0.42546 -1.50374,0.38817 -4.89096,0.38817c-3.38722,0 -5.20149,0.03728 -5.20149,-0.54344c0,-2.44395 -0.98055,-5.35676 2.40667,-5.35676c1.63005,0 2.27805,0.55526 4.12266,1.56483z" data-paper-data="{&quot;index&quot;:null}" fill="#f29e4a" stroke="none" stroke-width="0" stroke-linecap="butt"/><path d="M260.53429,191.90747c-1.73622,2.55098 -8.0211,8.28745 -16.57491,8.28745c-2.56401,0 -7.60647,-1.91796 -7.60647,-1.91796c0,0 -17.82637,-1.16171 -18.20691,-3.10886c-0.52519,-2.68725 4.44272,-7.87542 4.44272,-7.87542l-2.2533,-2.09969c0,0 3.8098,-5.32181 8.54674,-7.52324c5.04409,-2.34418 10.11373,-2.61426 16.1641,-1.92961c12.98081,1.46889 17.58944,13.07979 15.48803,16.16733z" data-paper-data="{&quot;index&quot;:null}" fill="#f32f00" stroke="none" stroke-width="0" stroke-linecap="butt"/><path d="M223.71625,194.76052c-0.97544,0 -1.76618,-1.27736 -1.76618,-2.85306c0,-1.5757 0.79074,-2.85306 1.76618,-2.85306c0.97544,0 1.76618,1.27736 1.76618,2.85306c0,1.5757 -0.79074,2.85306 -1.76618,2.85306z" data-paper-data="{&quot;index&quot;:null}" fill="#ffffff" stroke="none" stroke-width="0" stroke-linecap="butt"/><path d="M241.5139,179.68007c-4.65351,0 -6.69342,-2.7172 -6.69342,-2.7172c0,0 5.1043,-16.25859 6.28584,-16.32536c1.36376,-0.07706 6.82928,16.32536 6.82928,16.32536c0,0 -2.0852,2.7172 -6.4217,2.7172z" data-paper-data="{&quot;index&quot;:null}" fill="#f29e4a" stroke="none" stroke-width="0" stroke-linecap="butt"/><path d="M259.19368,185.41635c0,0 -3.22988,1.13981 -6.86432,-1.22579c-3.90013,-2.53853 -4.12753,-5.92862 -4.12753,-5.92862c0,0 9.61478,-13.01573 10.64146,-12.42715c1.18501,0.67934 0.35039,19.58155 0.35039,19.58155z" data-paper-data="{&quot;index&quot;:null}" fill="#f29e4a" stroke="none" stroke-width="0" stroke-linecap="butt"/><path d="M229.80993,182.83195c-3.63444,2.3656 -6.86431,1.22579 -6.86431,1.22579c0,0 -0.83462,-18.9022 0.35039,-19.58155c1.02669,-0.58858 10.64146,12.42715 10.64146,12.42715c0,0 -0.2274,3.39009 -4.12753,5.92862z" data-paper-data="{&quot;index&quot;:null}" fill="#f29e4a" stroke="none" stroke-width="0" stroke-linecap="butt"/><path d="M248.85033,186.88065c0,3.1514 -3.46711,5.70612 -7.74401,5.70612c-4.2769,0 -7.74401,-2.55472 -7.74401,-5.70612c0,-3.15141 5.36915,-6.24956 7.74401,-6.24956c2.37486,0 7.74401,3.09816 7.74401,6.24956z" data-paper-data="{&quot;index&quot;:null}" fill="#f29e4a" stroke="none" stroke-width="0" stroke-linecap="butt"/><path d="M252.32936,184.19056c-3.90012,-2.53853 -4.12753,-5.92862 -4.12753,-5.92862c0,0 9.61478,-13.01573 10.64146,-12.42715c0,0 -6.6764,11.33062 -7.15512,12.33383c-1.13992,2.01214 2.38865,7.15934 0.64119,6.02194z" data-paper-data="{&quot;index&quot;:null}" fill="#ffffff" stroke="none" stroke-width="0" stroke-linecap="butt"/><path d="M238.15369,176.34181c0.0018,1.81645 7.69672,3.33827 3.36022,3.33827c-4.65351,0 -6.69342,-2.7172 -6.69342,-2.7172c0,0 5.1043,-16.25859 6.28584,-16.32536c1.36375,-0.07707 -2.95673,11.57989 -2.95264,15.70428z" data-paper-data="{&quot;index&quot;:null}" fill="#ffffff" stroke="none" stroke-width="0" stroke-linecap="butt"/><path d="M229.80993,182.83195c-3.63444,2.3656 -6.86431,1.22579 -6.86431,1.22579c0,0 -0.83462,-18.9022 0.35039,-19.58155c1.02669,-0.58858 0.54815,9.75314 2.5675,15.68779c1.16491,3.42354 7.84656,0.12945 3.94643,2.66798z" data-paper-data="{&quot;index&quot;:null}" fill="#ffffff" stroke="none" stroke-width="0" stroke-linecap="butt"/><path d="M238.13681,186.57011c0,2.44889 -1.50249,5.43866 -3.24389,3.71685c-0.9615,-0.95068 -1.53061,-2.12952 -1.53061,-3.40631c0,-3.15141 5.36915,-6.24956 7.74401,-6.24956c2.37486,0 -2.96951,2.78762 -2.96951,5.93902z" data-paper-data="{&quot;index&quot;:null}" fill="#ffffff" stroke="none" stroke-width="0" stroke-linecap="butt"/><path d="M228.62196,197.02666c1.84461,-1.00957 2.49261,-1.56483 4.12266,-1.56483c3.38722,0 2.40666,2.91282 2.40666,5.35676c0,0.58072 -1.81427,0.54344 -5.20149,0.54344c-3.38722,0 -4.89096,0.03728 -4.89096,-0.38817c0,-1.26783 1.57467,-2.8589 3.56313,-3.9472z" fill="#f29e4a" stroke="none" stroke-width="0" stroke-linecap="butt"/><path d="M261.89289,191.22817c0,0 -3.45587,3.17528 -9.08757,5.52444c-3.70723,1.5464 -5.28687,2.58084 -9.34314,2.66036c-6.15359,0.12064 -10.16549,-5.63683 -14.86514,-9.27557c-4.14201,-3.20699 -8.82072,-4.07191 -8.82072,-4.07191" data-paper-data="{&quot;index&quot;:null}" fill="none" stroke="#ffffff" stroke-width="3.5" stroke-linecap="round"/></g></g></g></svg>