<svg version="1.1" xmlns="http://www.w3.org/2000/svg" xmlns:xlink="http://www.w3.org/1999/xlink" width="112.66618" height="112.66618" viewBox="0,0,112.66618,112.66618"><g transform="translate(-183.66691,-123.66691)"><g data-paper-data="{&quot;isPaintingLayer&quot;:true}" fill-rule="nonzero" stroke-linejoin="miter" stroke-miterlimit="10" stroke-dasharray="" stroke-dashoffset="0" style="mix-blend-mode: normal"><path d="M183.66691,236.33309v-112.66618h112.66618v112.66618z" data-paper-data="{&quot;index&quot;:null}" fill="none" stroke="none" stroke-width="0" stroke-linecap="butt"/><path d="M223.54042,197.87475c0,0 -3.85059,-28.43789 16.88563,-28.64545c20.73755,-0.20758 15.82003,28.85303 15.82003,28.85303c0,0 -2.67956,2.20252 -6.96531,3.71779c-6.54339,2.31348 -10.63929,-1.7999 -17.15746,-4.18351c-4.31261,-1.57708 -8.58289,0.25814 -8.58289,0.25814z" data-paper-data="{&quot;index&quot;:null}" fill="#095352" stroke="none" stroke-width="0" stroke-linecap="butt"/><path d="M257.125,197.87475c0,0 -0.42113,0.86246 -3.153,2.31557c-1.86843,0.99383 -1.23695,1.46732 -5.66064,1.83292c-4.16601,0.3443 -7.97782,-1.44664 -11.55024,-2.69042c-1.35215,-0.47076 -5.28171,-1.29388 -7.3676,-1.51374c-3.43998,-0.36258 -6.51852,1.22234 -6.51852,1.22234" data-paper-data="{&quot;index&quot;:null}" fill="none" stroke="#148382" stroke-width="3.5" stroke-linecap="round"/><g stroke="none" stroke-width="0" stroke-linecap="butt"><path d="M240.65923,171.2573c2.56105,0.088 4.4958,2.16128 4.54838,2.74401c0.03901,0.43243 -1.91807,0.64749 -4.47912,0.55949c-2.56105,-0.08801 -4.99568,-0.43709 -4.79527,-0.87817c0.14646,-0.32235 2.16495,-2.51333 4.72601,-2.42533z" fill="#148382"/><path d="M240.60465,171.87914c1.03114,0.07497 2.26508,1.06431 1.73722,1.38842c-0.32373,0.19878 -3.79079,0.44814 -4.31484,0.14273c-0.33393,-0.19461 1.54647,-1.60612 2.57761,-1.53115z" fill="#9bf2ff"/></g></g></g></svg>