<svg version="1.1" xmlns="http://www.w3.org/2000/svg" xmlns:xlink="http://www.w3.org/1999/xlink" width="81.67068" height="81.67068" viewBox="0,0,81.67068,81.67068"><g transform="translate(-199.16466,-139.16466)"><g data-paper-data="{&quot;isPaintingLayer&quot;:true}" fill-rule="nonzero" stroke="none" stroke-linecap="butt" stroke-linejoin="miter" stroke-miterlimit="10" stroke-dasharray="" stroke-dashoffset="0" style="mix-blend-mode: normal"><path d="M199.16466,220.83534v-81.67068h81.67068v81.67068z" data-paper-data="{&quot;index&quot;:null}" fill="none" stroke-width="0"/><g><g><g fill="#ffffff"><path d="M252.29768,190.15374l-24.59283,-0.0192c0,0 -0.8671,-12.06759 2.12661,-19.05788c2.67042,-6.2354 7.24274,-12.69167 10.19972,-12.69167c3.12958,0 7.44518,5.62275 9.81317,12.40148c3.13024,8.96077 2.45333,19.36729 2.45333,19.36729z" stroke-width="NaN"/><g stroke-width="0"><path d="M220.49825,174.75282c-0.25105,-1.98626 5.29143,-6.82939 9.61275,-10.5125c3.95354,-3.36965 6.59163,-5.68456 8.89818,-5.68456c5.56767,0 0.34034,5.69177 -3.35656,10.78766c-1.72592,2.37905 -3.81379,6.43779 -6.41309,6.43779c-4.82767,0 -8.48417,1.00567 -8.74127,-1.02839z"/><path d="M259.50174,174.82357c-0.2571,2.03406 -3.9136,1.02839 -8.74127,1.02839c-2.5993,0 -4.68717,-4.05874 -6.41309,-6.43779c-3.6969,-5.0959 -8.92423,-10.78766 -3.35656,-10.78766c2.30655,0 4.94464,2.3149 8.89818,5.68457c4.32132,3.68312 9.8638,8.52624 9.61275,10.5125z" data-paper-data="{&quot;index&quot;:null}"/></g></g><g fill="#aeaeae" stroke-width="0"><path d="M231.55339,166.78283c3.39997,-6.39366 6.88783,-8.22707 7.45579,-8.22707c0.23654,0 0.7798,0.73773 0.11744,1.62977c-0.92809,1.24991 -3.4802,3.55518 -6.03064,8.65408c-1.58631,3.17139 -3.32022,6.17185 -4.30752,7.85629c-0.515,0.87862 -0.6397,1.39918 -0.8344,1.39918c-0.56796,0 -0.17645,-4.21181 3.59935,-11.31224z"/><path d="M248.17433,166.85357c3.7758,7.10042 4.16731,11.31224 3.59935,11.31224c-0.1947,0 -0.31941,-0.52056 -0.8344,-1.39918c-0.98731,-1.68443 -2.72121,-4.68489 -4.30752,-7.85629c-2.55043,-5.09889 -5.10255,-7.40417 -6.03064,-8.65408c-0.66236,-0.89204 -0.1191,-1.62977 0.11743,-1.62977c0.56796,0 4.05582,1.83342 7.45579,8.22708z" data-paper-data="{&quot;index&quot;:null}"/></g></g><path d="M227.33727,187.86426v-4.62726c0,0 1.73381,-2.40714 12.59772,-2.57097c10.561,-0.15925 12.34062,2.57097 12.34062,2.57097v4.62726c0,0 0.83534,2.05676 -12.34062,2.05676c-12.61892,0 -12.59772,-2.05676 -12.59772,-2.05676z" fill="#000000" stroke-width="0"/></g><path d="M252.74459,184.22713c0.05926,0.82122 1.66684,1.97155 1.17003,2.86151c-1.97985,3.54654 -7.66667,7.17361 -13.85283,7.17361c-6.77107,0 -12.81405,-4.24404 -14.21912,-7.52213c-0.20075,-0.46835 0.83499,-1.78843 0.83499,-2.14344c0,-0.78304 3.21708,-1.90401 10.95555,-1.90401c1.1952,0 1.44464,1.12682 2.51981,1.15805c0.59144,0.01718 2.02782,-1.17619 2.61248,-1.18073c8.63832,-0.06725 9.97909,1.55714 9.97909,1.55714z" data-paper-data="{&quot;index&quot;:null}" fill="#ffffff" stroke-width="NaN"/><path d="M231.58989,193.39798c-0.70816,-7.97978 2.33048,-7.84142 3.89492,-7.84142c0.77222,0 2.09415,-0.21977 2.51776,1.10358c0.43457,1.35763 -0.03917,4.28738 -0.03917,6.57276c0,4.51304 0.85629,8.33667 -0.70816,8.33667c-1.56443,0 -5.26517,-3.6624 -5.66533,-8.17159z" fill="#ffffff" stroke-width="0"/><g fill="#aeaeae" stroke-width="0"><path d="M235.72314,192.32823c-0.09628,0.76814 -4.09181,0.92019 -4.09181,0.92019c0,0 -0.1444,-0.37648 -0.1444,-0.78553c0,-0.40904 -0.06513,-0.48254 0.12034,-0.9763c1.37651,-0.08892 4.16706,0.43329 4.11588,0.84164z"/><path d="M235.04563,195.00086c0.05662,0.58278 -2.93089,0.84354 -2.93089,0.84354c0,0 -0.17224,-0.27863 -0.24104,-0.5871c-0.06881,-0.30846 -0.13027,-0.36151 -0.07348,-0.74064c1.02308,-0.11738 3.21532,0.17438 3.24541,0.48419z"/><path d="M235.82486,197.64835c0.25526,0.49643 -2.21949,0.95074 -2.21949,0.95074c0,0 -0.24679,-0.22616 -0.41528,-0.48593c-0.16849,-0.25976 -0.24012,-0.30061 -0.32572,-0.63078c0.83754,-0.17972 2.82479,-0.09793 2.9605,0.16597z"/></g><path d="M248.05628,193.44341c-0.38258,4.50918 -3.92064,8.17159 -5.41632,8.17159c-1.49567,0 -0.67704,-3.82363 -0.67704,-8.33667c0,-2.28538 -0.45292,-5.21513 -0.03745,-6.57276c0.40499,-1.32334 1.66882,-1.10358 2.4071,-1.10358c1.49567,0 4.40076,-0.13835 3.72372,7.84142z" data-paper-data="{&quot;index&quot;:null}" fill="#ffffff" stroke-width="0"/><g fill="#aeaeae" stroke-width="0"><path d="M248.16714,191.48658c0.17732,0.49376 0.11505,0.56725 0.11505,0.9763c0,0.40904 -0.13806,0.78553 -0.13806,0.78553c0,0 -3.81992,-0.15204 -3.91197,-0.92019c-0.04893,-0.40835 2.61898,-0.93056 3.93498,-0.84164z"/><path d="M247.98265,194.51667c0.0543,0.37913 -0.00446,0.43217 -0.07025,0.74064c-0.06578,0.30846 -0.23045,0.5871 -0.23045,0.5871c0,0 -2.85618,-0.26076 -2.80207,-0.84354c0.02877,-0.30981 2.12465,-0.60158 3.10276,-0.48419z"/><path d="M246.96527,197.48238c-0.08185,0.33016 -0.15033,0.37102 -0.3114,0.63078c-0.16107,0.25976 -0.39703,0.48593 -0.39703,0.48593c0,0 -2.36598,-0.4543 -2.12195,-0.95073c0.12974,-0.2639 2.02965,-0.34569 2.83038,-0.16597z"/></g><g stroke-width="0"><path d="M230.78222,189.88262c-1.76031,-0.79162 -4.02293,-1.75447 -4.02293,1.42542c0,2.67255 2.6671,4.40751 4.3062,5.5072c1.63444,1.09657 2.24206,1.56149 1.43443,1.69453c-0.87475,0.1441 -4.60747,0.57203 -8.19581,-1.95033c-2.42002,-1.70111 -3.57805,-4.55366 -3.44105,-6.57498c0.46226,-6.82021 6.51506,-6.61601 8.0346,-5.66675z" fill="#ffffff"/><path d="M222.68171,187.24153c0.9083,0 1.64462,0.425 1.64462,0.94926c0,0.52426 -0.73632,0.94926 -1.64462,0.94926c-0.9083,0 -1.64462,-0.425 -1.64462,-0.94926c0,-0.52426 0.73632,-0.94926 1.64462,-0.94926z" fill="#aeaeae"/><path d="M222.40761,191.98782c0.75692,0 1.37052,0.34 1.37052,0.75941c0,0.41941 -0.6136,0.75941 -1.37052,0.75941c-0.75692,0 -1.37052,-0.34 -1.37052,-0.75941c0,-0.41941 0.6136,-0.75941 1.37052,-0.75941z" fill="#aeaeae"/><path d="M223.09288,193.69649c0.68123,0 1.23347,0.2125 1.23347,0.47463c0,0.26213 -0.55224,0.47463 -1.23347,0.47463c-0.68123,0 -1.23347,-0.2125 -1.23347,-0.47463c0,-0.26213 0.55224,-0.47463 1.23347,-0.47463z" fill="#aeaeae"/></g><g data-paper-data="{&quot;index&quot;:null}" stroke-width="0"><path d="M250.71253,184.31771c1.51954,-0.94926 7.57234,-1.15346 8.0346,5.66675c0.137,2.02132 -1.02103,4.87387 -3.44105,6.57498c-3.58834,2.52237 -7.32105,2.09443 -8.19581,1.95033c-0.80763,-0.13304 -0.20002,-0.59796 1.43442,-1.69454c1.6391,-1.0997 4.3062,-2.83465 4.3062,-5.5072c0,-3.17989 -2.26262,-2.21705 -4.02293,-1.42542z" fill="#ffffff"/><path d="M258.5731,188.19079c0,0.52426 -0.73633,0.94926 -1.64462,0.94926c-0.9083,0 -1.64462,-0.425 -1.64462,-0.94926c0,-0.52426 0.73633,-0.94926 1.64462,-0.94926c0.9083,0 1.64462,0.425 1.64462,0.94926z" fill="#aeaeae"/><path d="M258.5731,192.74723c0,0.41941 -0.6136,0.75941 -1.37052,0.75941c-0.75692,0 -1.37052,-0.34 -1.37052,-0.75941c0,-0.41941 0.6136,-0.75941 1.37052,-0.75941c0.75692,0 1.37052,0.34 1.37052,0.75941z" fill="#aeaeae"/><path d="M257.75079,194.17112c0,0.26213 -0.55224,0.47463 -1.23347,0.47463c-0.68123,0 -1.23347,-0.2125 -1.23347,-0.47463c0,-0.26213 0.55224,-0.47463 1.23347,-0.47463c0.68123,0 1.23347,0.2125 1.23347,0.47463z" fill="#aeaeae"/></g></g></g></svg>