<svg version="1.1" xmlns="http://www.w3.org/2000/svg" xmlns:xlink="http://www.w3.org/1999/xlink" width="112.66618" height="112.66618" viewBox="0,0,112.66618,112.66618"><g transform="translate(-183.66691,-123.66691)"><g data-paper-data="{&quot;isPaintingLayer&quot;:true}" fill-rule="nonzero" stroke="none" stroke-width="0" stroke-linecap="butt" stroke-linejoin="miter" stroke-miterlimit="10" stroke-dasharray="" stroke-dashoffset="0" style="mix-blend-mode: normal"><path d="M183.66691,236.33309v-112.66618h112.66618v112.66618z" data-paper-data="{&quot;index&quot;:null}" fill="none"/><path d="M258.71363,189.35969c0.38578,4.00773 2.02099,11.85119 -1.80322,12.21163c-11.77625,1.1099 -10.48884,-7.17879 -16.63859,-7.17879c-7.52966,0 -4.42373,7.70672 -17.87427,6.97798c-2.6017,-0.14096 -1.88227,-9.28388 -1.60652,-12.01081c1.03898,-10.27427 8.48927,-19.74475 18.96131,-19.74475c10.47204,0 17.92233,8.951 18.96131,19.74475z" data-paper-data="{&quot;index&quot;:null}" fill="#148382"/><g data-paper-data="{&quot;index&quot;:null}" fill="#dc570f"><path d="M229.36611,201.37379l-4.50798,-8.83307l1.91533,-2.20363l4.77676,9.79599z"/><path d="M220.70956,190.49593l4.60514,0.02217l7.58458,-7.06676l1.29155,2.26138l-6.96689,6.88893l-6.51339,0.04618z" data-paper-data="{&quot;index&quot;:null}"/></g><path d="M243.13964,169.89966l-12.12773,11.90473l-2.27576,-2.20362l10.30967,-9.96551c0,0 1.6859,-0.07248 2.41825,0.00464c0.60961,0.06419 1.67557,0.25977 1.67557,0.25977z" fill="#dc570f"/><path d="M225.99588,176.52393l2.55131,0.01592l11.37452,13.15798l0.0505,4.16833l-13.69356,-15.24277l-1.7119,-0.1365z" data-paper-data="{&quot;index&quot;:null}" fill="#dc570f"/><g data-paper-data="{&quot;index&quot;:null}" fill="#dc570f"><g data-paper-data="{&quot;index&quot;:null}"><path d="M248.13154,199.84737l4.77676,-9.51028l1.91533,2.20363l-4.50798,8.54736z"/><path d="M258.97122,192.64783l-6.51339,-0.04618l-6.75262,-6.67465l1.29155,-2.26138l7.37031,6.85248l4.60514,-0.02217z" data-paper-data="{&quot;index&quot;:null}"/></g><g data-paper-data="{&quot;index&quot;:null}"><path d="M255.11501,178.48689l-1.7119,0.1365l-13.69356,15.24277l0.0505,-4.16833l11.37452,-13.15798l2.55131,-0.01593z" data-paper-data="{&quot;index&quot;:null}"/></g></g><path d="M220.10798,198.75708c0.50573,-0.34898 5.93903,-0.16154 9.07329,-1.94222c3.81073,-2.165 5.76712,-4.42239 10.94522,-4.41498c4.67851,0.00669 7.50603,2.52265 11.15365,4.44538c3.82788,2.01774 8.37199,1.54973 8.7643,1.91182c1.32902,1.22661 2.03469,4.02094 0,5.39756c-0.65858,0.44558 -6.37447,-0.82879 -11.46948,-4.04981c-3.12358,-1.97469 -4.86218,-4.32298 -8.44792,-4.34485c-3.61793,-0.02206 -6.08474,3.24747 -9.23631,5.20698c-5.10959,3.17694 -10.14104,3.4876 -10.78275,3.18769c-1.33067,-0.6219 -2.44515,-3.7103 0,-5.39756z" data-paper-data="{&quot;index&quot;:null}" fill="#ffffff"/><path d="M239.68711,169.63527l10.30967,9.96551l-2.27576,2.20362l-12.12773,-11.73806c0,0 1.42757,-0.31699 2.12191,-0.3901c0.66935,-0.07048 1.97191,-0.04097 1.97191,-0.04097z" data-paper-data="{&quot;index&quot;:null}" fill="#dc570f"/></g></g></svg>