<svg version="1.1" xmlns="http://www.w3.org/2000/svg" xmlns:xlink="http://www.w3.org/1999/xlink" width="41.5641" height="41.44861" viewBox="0,0,41.5641,41.44861"><g transform="translate(-219.14005,-159.29217)"><g data-paper-data="{&quot;isPaintingLayer&quot;:true}" fill-rule="nonzero" stroke="none" stroke-width="0" stroke-linecap="butt" stroke-linejoin="miter" stroke-miterlimit="10" stroke-dasharray="" stroke-dashoffset="0" style="mix-blend-mode: normal"><g><path d="M219.26857,200.7067v-41.32314h41.32315v41.32314z" fill="#cccccc"/><g fill="#a5a5a5"><path d="M219.14005,200.74078v-3.63207h41.5641v3.63207z"/><path d="M219.14005,190.36346v-3.63207h41.56408v3.63207z"/><path d="M219.14005,180.1591v-3.63206h41.56408v3.63206z"/><path d="M219.14005,169.78177v-3.63207h41.56408v3.63207z"/><g><path d="M236.81622,166.32268v-6.9182h3.50408v6.9182z"/><path d="M257.09667,166.21038v-6.91821h3.50406v6.91821z"/></g><g><path d="M226.62255,176.52704v-6.9182h3.50407v6.9182z"/><path d="M246.90299,176.58393v-6.91821h3.50408v6.91821z"/></g><g><path d="M236.81622,186.90058v-7.25656h3.50408v7.25656z"/><path d="M257.09667,186.95747v-7.25657h3.50406v7.25657z"/></g><g><path d="M226.62255,197.10871v-6.9182h3.50407v6.9182z"/><path d="M246.90299,197.16561v-6.91821h3.50408v6.91821z"/></g></g></g></g></g></svg>