<svg version="1.1" xmlns="http://www.w3.org/2000/svg" xmlns:xlink="http://www.w3.org/1999/xlink" width="109.33333" height="109.33333" viewBox="0,0,109.33333,109.33333"><g transform="translate(-185.33334,-125.33334)"><g data-paper-data="{&quot;isPaintingLayer&quot;:true}" fill-rule="nonzero" stroke="none" stroke-width="0" stroke-linecap="butt" stroke-linejoin="miter" stroke-miterlimit="10" stroke-dasharray="" stroke-dashoffset="0" style="mix-blend-mode: normal"><path d="M241.9628,198.10643c-0.4403,3.20207 -5.66006,2.77569 -5.66006,2.77569c0,0 0.15132,-5.59243 0.59164,-8.79451c0.03574,-0.25987 0.69394,-3.409 4.56597,-3.12069c3.17671,0.23655 0.50245,9.13951 0.50245,9.13951z" data-paper-data="{&quot;index&quot;:null}" fill="#908816"/><path d="M222.4887,174.84938c1.64523,0 3.59381,-1.14511 4.95369,-0.35292c3.09612,1.80364 4.80756,6.98223 4.80756,11.11021c0,0.51957 -0.67784,2.14876 -0.67784,2.14876l5.49807,3.52123c0,0 1.82926,2.01034 1.77942,5.34139c-0.03875,2.58981 -2.21841,4.26522 -2.21841,4.26522c0,0 -11.9663,-3.32406 -13.74406,-3.32406c-5.39099,0 -10.8814,-6.20882 -9.36283,-11.95255c1.99209,-7.53476 3.57342,-10.75728 8.96441,-10.75728z" fill="#f32f00"/><g><path d="M215.11056,167.50827c0,-4.85981 4.04146,-7.71044 10.9138,-7.48246c6.61645,0.2195 4.69447,2.13087 7.44723,4.35204c1.12634,0.90882 3.25186,1.12453 4.66961,2.175c1.41774,1.05047 2.30899,2.4782 2.30899,3.80894c0,0.93967 -1.6662,1.29985 -2.77672,1.49632c-1.96479,0.34759 -2.06383,2.38118 -3.87386,3.2208c-2.94601,1.36657 -4.96064,1.22882 -8.21425,1.22882c-4.93443,0 -7.88138,0.16619 -9.89605,-2.77559c-0.79277,-1.1576 -0.57875,-4.65156 -0.57875,-6.02388z" data-paper-data="{&quot;index&quot;:null}" fill="#f29e4a"/><path d="M226.35579,173.55113c-0.0415,-0.38131 0.95529,-0.44205 1.6632,-1.22174c0.64216,-0.70725 0.93765,-2.14978 2.04448,-2.27022c1.04557,-0.11377 2.0281,1.58835 3.39855,1.95099c1.67959,0.44445 3.66914,-0.38803 3.71273,0.01242c0.0095,0.08725 0.27329,1.77848 -0.16123,2.13442c-0.48852,0.40017 -1.68237,-0.53583 -1.68237,-0.53583c0,0 -0.72026,1.23586 -1.334,1.52672c-1.27005,0.60187 -1.83948,-0.36897 -1.83948,-0.36897c0,0 -1.57354,0.89828 -2.06902,0.75812c-0.88997,-0.25174 -1.40141,-1.38592 -1.40141,-1.38592c0,0 -2.29464,-0.26173 -2.33144,-0.6z" data-paper-data="{&quot;index&quot;:null}" fill="#908816"/><path d="M216.89898,161.44195c3.04709,-1.44187 7.05973,-2.38112 8.31644,-0.64074c0.68885,0.95398 -3.59247,5.25352 -3.04841,6.12828c0.52626,0.84613 1.39635,1.76865 1.04154,2.90459c-0.14836,0.47497 -0.66001,1.69138 -1.24859,1.78402c-0.61834,0.09733 -1.32156,-0.93184 -1.77755,-0.51009c-1.10272,1.01991 -1.34687,3.28453 -2.40543,3.28453c-1.88151,0 -4.84908,0.24545 -5.67096,-1.33754c-1.57938,-3.04199 0.41072,-5.3391 0.62243,-6.34501c0.65851,-3.12896 1.12343,-3.82617 4.17053,-5.26804z" data-paper-data="{&quot;index&quot;:null}" fill="#908816"/><path d="M218.14033,169.67332c0,-1.63657 1.15342,-2.62016 1.9414,-2.62016c0.78798,0 1.42676,0.9836 1.42676,2.62016c0,1.63657 -0.63878,2.96326 -1.42676,2.96326c-0.78798,0 -1.9414,-1.3267 -1.9414,-2.96326z" data-paper-data="{&quot;index&quot;:null}" fill="#f29e4a"/><path d="M229.63008,163.63702c0.84859,0 1.5365,1.03187 1.5365,2.30476c0,1.27288 -0.68792,2.30476 -1.5365,2.30476c-0.84859,0 -1.5365,-1.03187 -1.5365,-2.30476c0,-1.27288 0.68792,-2.30476 1.5365,-2.30476z" data-paper-data="{&quot;index&quot;:null}" fill="#908816"/><path d="M213.82598,161.66152c0.38464,-0.75641 1.8085,-5.75627 10.86533,-5.26804c5.42258,0.29231 7.1914,3.79583 7.56166,3.7659c2.90514,-0.23481 6.15719,1.01359 6.15719,1.50213c0,0.84859 -5.74904,1.5365 -12.84085,1.5365c-7.0918,0 -12.62133,0.19009 -11.74333,-1.5365z" data-paper-data="{&quot;index&quot;:null}" fill="#f32f00"/></g><path d="M228.66413,184.01297c0.88015,0 1.59367,0.80271 1.59367,1.79288c0,0.99019 -0.7135,1.79288 -1.59367,1.79288c-0.88015,0 -1.59367,-0.80271 -1.59367,-1.79288c0,-0.99019 0.7135,-1.79288 1.59367,-1.79288z" fill="#f29e4a"/><g><path d="M232.6892,171.16701c0,0 2.50441,3.2622 3.96716,3.97927c1.112,0.54514 3.50705,1.0562 3.50705,1.0562c0,0 -8.63278,5.9635 -12.89983,8.02976c-4.13196,2.00084 -7.02013,-4.29088 -3.67397,-6.69746c3.10943,-2.23631 9.0996,-6.36778 9.0996,-6.36778z" data-paper-data="{&quot;index&quot;:null}" fill="#908816"/><path d="M236.15266,175.58752c-1.01596,-0.49805 -2.36365,-1.60373 -2.80754,-2.42802c-0.46935,-0.87155 -0.6648,-2.01853 -0.23489,-2.89545c0.30015,-0.61224 2.06059,0.11777 2.79981,-0.11529c1.32087,-0.41647 1.93156,-1.39722 4.04412,-0.36157c3.32599,1.63049 1.96143,4.2727 0.73741,5.72624c-1.37561,1.63357 -2.29421,1.17448 -4.53889,0.07408z" data-paper-data="{&quot;index&quot;:null}" fill="#f29e4a"/></g><path d="M185.33334,234.66667v-109.33333h109.33333v109.33333z" fill="none"/></g></g></svg>