<svg version="1.1" xmlns="http://www.w3.org/2000/svg" xmlns:xlink="http://www.w3.org/1999/xlink" width="41.21467" height="40.29708" viewBox="0,0,41.21467,40.29708"><g transform="translate(-219.09485,-159.46611)"><g data-paper-data="{&quot;isPaintingLayer&quot;:true}" fill-rule="nonzero" stroke="none" stroke-linecap="butt" stroke-linejoin="miter" stroke-miterlimit="10" stroke-dasharray="" stroke-dashoffset="0" style="mix-blend-mode: normal"><g data-paper-data="{&quot;index&quot;:null}"><path d="M249.84923,198.58889c-6.7164,-0.09554 -10.23452,-3.09062 -10.23452,-3.09062c0,0 -3.67144,2.9862 -9.60408,3.16201c-6.51103,0.19295 -9.96991,-5.06038 -9.96991,-5.06038c0,0 -0.32474,-15.16807 -0.4572,-21.35493c-0.1448,-6.7631 3.43755,-12.61461 10.2022,-12.61461c7.47401,0 30.39699,0 30.39699,0v35.42408c0,0 -6.0954,3.59473 -10.33347,3.53445z" fill="#a5e62a" stroke-width="0"/><g fill="none" stroke-width="1" font-family="sans-serif" font-weight="normal" font-size="12" text-anchor="start"/></g><path d="M220.89966,170.47976l-1.54546,-0.03626c0,0 1.21156,-10.97739 10.6607,-10.97739c7.32638,0 30.29463,0 30.29463,0v1.47943c0,0 -21.75862,0.13523 -29.19689,0c-10.00101,-0.18182 -10.21297,9.53422 -10.21297,9.53422z" data-paper-data="{&quot;index&quot;:null}" fill="#21370a" stroke-width="0"/><g data-paper-data="{&quot;index&quot;:null}" fill="#21370a" stroke-width="0"><path d="M239.65103,194.43723c0,0 2.46789,4.01724 10.0166,3.84653c7.00966,-0.15852 10.48724,-3.84653 10.48724,-3.84653v1.77532c0,0 -3.26187,3.55064 -10.1684,3.55064c-7.96931,0 -10.33543,-3.55064 -10.33543,-3.55064z"/><path d="M239.72015,196.21255c0,0 -3.0456,3.55063 -10.77701,3.55063c-2.95326,0 -7.96603,-2.77842 -8.74806,-5.12044c-1.91879,-5.74638 -0.74459,-24.56914 -0.74459,-24.56914l1.45332,0.03911c0,0 -0.85891,20.79469 0.58425,23.97342c0.91808,2.02218 5.55825,4.1462 7.76441,4.19762c7.32337,0.17071 10.46769,-3.84652 10.46769,-3.84652z" data-paper-data="{&quot;index&quot;:null}"/></g></g></g></svg>