<svg version="1.1" xmlns="http://www.w3.org/2000/svg" xmlns:xlink="http://www.w3.org/1999/xlink" width="85.49398" height="85.49398" viewBox="0,0,85.49398,85.49398"><defs><linearGradient x1="-3285.69704" y1="-2895.28054" x2="-3285.69704" y2="4105.40968" gradientUnits="userSpaceOnUse" id="color-1"><stop offset="0" stop-color="#ffffff"/><stop offset="1" stop-color="#ffffff" stop-opacity="0"/></linearGradient></defs><g transform="translate(-199.57062,-137.63928)"><g data-paper-data="{&quot;isPaintingLayer&quot;:true}" fill-rule="nonzero" stroke-linejoin="miter" stroke-miterlimit="10" stroke-dasharray="" stroke-dashoffset="0" style="mix-blend-mode: normal"><path d="M199.57062,223.13326v-85.49398h85.49398v85.49398z" fill="none" stroke="none" stroke-width="0" stroke-linecap="butt"/><path d="M208.63952,205.58014c0.00324,-13.1024 0,-44.63208 0,-51.75c0,-3.5626 2.97813,-5.21784 6.54073,-5.21784c12.68063,0 43.89984,0 51,0c2.96729,0 5.18024,2.50056 5.18024,5.46784c0,6.43742 0,39.20833 0,51.75c0,2.95974 -2.72049,5.55758 -5.68024,5.55758c-6.61442,0 -39.17756,0 -52,0c-3.13138,0 -5.04177,-1.58613 -5.04073,-5.80758z" fill="url(#color-1)" stroke="#a97a4a" stroke-width="2" stroke-linecap="butt"/><g data-paper-data="{&quot;index&quot;:null}"><path d="M246.3846,182.78799c-2.42563,1.16371 -7.27685,3.40694 -9.6086,-4.24907c-3.41106,-11.19978 5.5339,-25.74954 10.5367,-23.36887c3.94962,1.87949 -2.35696,11.24722 -2.35696,11.24722c0,0 5.44032,-4.61796 6.52601,-0.90739c1.18287,4.04267 -4.08778,10.25965 -4.08778,10.25965c0,0 4.23622,-3.95098 4.84753,-0.31908c0.71768,4.26387 -5.30483,7.07268 -5.85692,7.33754z" fill="#dcdcdc" stroke="#000000" stroke-width="0" stroke-linecap="butt"/><g data-paper-data="{&quot;index&quot;:null}"><g data-paper-data="{&quot;index&quot;:null}" stroke="none" stroke-width="0" stroke-linecap="butt"><path d="M234.67858,193.47846c-0.70033,0.20699 -3.33377,-0.13915 -4.86548,-1.4041c-1.53171,-1.26494 -1.18585,-3.1612 -2.18059,-4.41481c-0.58085,-0.73201 -0.86901,-1.77383 -1.675,-2.65174c-0.57433,-0.62556 -1.77515,-1.1679 -1.88401,-1.45562c-0.14271,-0.3772 1.3699,-1.05178 1.66421,-1.54546c0.58723,-0.98498 0.7359,-2.50327 0.77591,-3.91978c0.0605,-2.14232 2.45775,-2.79486 -0.00674,-3.86831c-0.69455,-0.30252 -1.2791,0.97858 -1.68171,1.7543c-0.54687,1.05368 -1.2922,0.70412 -1.72925,1.90234c-0.52747,1.44609 -0.71834,4.35976 -1.03988,4.42228c-0.36231,0.07045 -1.24351,-0.90925 -2.03423,-3.60631c-0.39311,-1.34085 -0.92781,-4.66616 -0.55139,-7.65167c0.37642,-2.9855 1.65604,-1.95288 2.58603,-4.06143c0.61333,-1.3906 1.21707,-4.60663 1.90812,-6.18603c1.03829,-2.37302 2.27365,-2.17796 4.03469,-2.17796c1.64896,0 3.88783,1.62391 5.13358,4.52869c1.34126,3.12753 1.81556,8.2823 0.484,10.94229c-0.95969,1.91716 -2.09565,4.10575 -2.71599,5.64009c-0.47264,1.16901 -0.55741,1.95824 -0.55741,1.95824l4.75802,0.79482z" data-paper-data="{&quot;index&quot;:null}" fill="#f29e4a"/><path d="M223.54943,171.78121c0,0.3435 -1.04171,0.1634 -1.43626,0.39556c-0.42878,0.25229 -0.22695,0.90231 -0.60025,0.90231c-0.71679,0 -0.55923,-0.58107 -0.55923,-1.29786c0,-0.71679 0.58107,-1.29787 1.29786,-1.29787c0.71679,0 1.29786,0.58108 1.29786,1.29787z" data-paper-data="{&quot;index&quot;:null}" fill="#20ad00"/><g data-paper-data="{&quot;index&quot;:null}"><path d="M229.85333,164.73566c0,4.19835 -1.782,6.11851 -3.52278,6.11851c-1.74078,0 -2.78113,-1.92015 -2.78113,-6.11851c0,-4.19835 -0.08543,-7.37518 3.15196,-7.60178c2.84184,-0.19891 3.15196,3.40343 3.15196,7.60178z" fill="#ffffff"/><path d="M226.14589,165.10647c0,1.53599 -0.70343,2.53493 -1.42022,2.53493c-0.71679,0 -0.80544,-0.99895 -0.80544,-2.53493c0,-1.53597 0.08865,-2.53492 0.80544,-2.53492c0.71679,0 1.42022,0.99893 1.42022,2.53492z" fill="#20ad00"/></g></g><path d="M250.69242,198.30891c0.78499,-0.62036 1.51697,-1.87125 1.51697,-1.87125c0,0 1.55897,1.33594 2.3593,1.78013c1.47724,0.81986 3.04932,1.87059 2.83632,1.9867c-0.0176,0.48123 -2.6131,1.16902 -5.19562,1.16902c-2.58252,0 -5.19563,-0.90924 -5.19563,-0.90924c0,0 2.16978,-0.96291 3.67865,-2.15535z" data-paper-data="{&quot;index&quot;:null}" fill="#f29e4a" stroke="none" stroke-width="0" stroke-linecap="butt"/><path d="M235.11586,196.14219c2.1538,1.70212 5.251,3.07661 5.251,3.07661c0,0 -3.73001,1.29786 -7.41637,1.29786c-3.68636,0 -8.2359,-0.13712 -8.26102,-0.82404c-0.30405,-0.16572 2.78462,-2.5102 4.89328,-3.6805c1.14241,-0.63404 3.36774,-2.54101 3.36774,-2.54101c0,0 1.04486,1.78555 2.16537,2.67108z" data-paper-data="{&quot;index&quot;:null}" fill="#f29e4a" stroke="none" stroke-width="0" stroke-linecap="butt"/><path d="M244.69645,199.77503c-3.7983,0 -6.48298,-1.50909 -8.8595,-3.10765c-1.49743,-1.00725 -3.27928,-1.37924 -3.8604,-3.54234c-1.06914,-3.97962 0.71931,-5.12149 0.71931,-6.71147c0,-1.96858 -0.18683,-5.83092 -0.18683,-5.83092c0,0 1.23637,-1.39152 2.7468,-3.53599c2.69901,-3.832 5.77322,-4.85584 10.78976,-3.97055c7.63279,1.34699 8.74583,8.82135 8.74583,16.80844c0,1.85608 -0.15102,5.61991 -0.15102,5.61991z" data-paper-data="{&quot;index&quot;:null}" fill="#20ad00" stroke="none" stroke-width="NaN" stroke-linecap="butt"/><g data-paper-data="{&quot;index&quot;:null}" fill="#f29e4a" stroke="none" stroke-width="0" stroke-linecap="butt"><path d="M254.7358,192.86328l-16.80488,-18.6856l1.62083,-0.92118l15.40417,16.89412z"/><path d="M249.72036,199.37852l-17.05916,-18.8042l1.09465,-1.46754l17.15698,18.96072z"/></g><g data-paper-data="{&quot;index&quot;:null}" fill="#f29e4a" stroke="none" stroke-width="0" stroke-linecap="butt"><path d="M231.98734,191.67085l16.28676,-17.90606l1.69841,0.7548l-16.79268,18.4623z"/><path d="M238.05847,197.60395l15.67798,-17.44554l0.60898,2.17428l-15.09449,16.5823z"/></g><path d="M252.00129,178.56309c0.93492,2.07097 0.45904,4.65475 0.45904,4.65475c0,0 -0.47616,-2.37745 -0.9398,-3.51547c-0.43764,-1.0742 -1.76852,-3.13224 -1.76852,-3.13224c0,0 1.76673,0.92402 2.24929,1.99295z" data-paper-data="{&quot;index&quot;:null}" fill="#ffffff" stroke="none" stroke-width="0" stroke-linecap="butt"/><path d="M256.26375,196.43765c0,0 -2.1068,-0.31524 -3.67608,0.05988c-1.66596,0.39823 -3.5916,2.29197 -5.85177,2.66275c-3.67252,0.60246 -7.85627,-0.34923 -10.47261,-1.94792c-1.83696,-1.12246 -3.70835,-2.85338 -4.26593,-4.786c-0.7521,-2.60683 0.19404,-5.58062 0.31207,-7.92307c0.1134,-2.25065 -0.19856,-4.06533 -0.19856,-4.06533" data-paper-data="{&quot;index&quot;:null}" fill="none" stroke="#ffffff" stroke-width="3.5" stroke-linecap="round"/></g><g stroke="#000000" stroke-width="0" stroke-linecap="butt"><path d="M250.44337,183.84144c-2.65945,0.40651 -7.95376,1.139 -7.95376,-6.86421c0,-11.70771 12.79599,-23.02011 16.88813,-19.28515c3.23068,2.94868 -5.5316,10.07257 -5.5316,10.07257c0,0 6.54975,-2.83257 6.50727,1.03334c-0.04629,4.21192 -6.8996,8.62357 -6.8996,8.62357c0,0 5.20355,-2.54534 4.73019,1.1071c-0.55574,4.28798 -7.13532,5.22027 -7.74063,5.31279z" fill="#ffffff"/><path d="M245.2105,176.85962c0.21629,-3.40505 1.93985,-8.16221 2.51609,-8.1256c0.57624,0.0366 -0.94776,4.4255 -1.16406,7.83055c-0.21629,3.40505 0.95703,4.53682 0.38079,4.50021c-0.57624,-0.0366 -1.94911,-0.80011 -1.73281,-4.20516z" fill="#f29e4a"/></g></g></g></g></svg>