<svg version="1.1" xmlns="http://www.w3.org/2000/svg" xmlns:xlink="http://www.w3.org/1999/xlink" width="109.33333" height="109.33333" viewBox="0,0,109.33333,109.33333"><g transform="translate(-185.33335,-125.33335)"><g data-paper-data="{&quot;isPaintingLayer&quot;:true}" fill-rule="nonzero" stroke="none" stroke-width="0" stroke-linecap="butt" stroke-linejoin="miter" stroke-miterlimit="10" stroke-dasharray="" stroke-dashoffset="0" style="mix-blend-mode: normal"><path d="M245.66961,197.26334c-0.58159,4.22955 -7.47626,3.66635 -7.47626,3.66635c0,0 0.19988,-7.38694 0.78148,-11.6165c0.04721,-0.34326 0.91661,-4.50288 6.0311,-4.12206c4.19606,0.31245 0.66368,12.0722 0.66368,12.0722z" data-paper-data="{&quot;index&quot;:null}" fill="#908816"/><path d="M218.63217,171.62851c2.17315,0 4.74699,-1.51256 6.54324,-0.46616c4.0896,2.38239 6.35021,9.22269 6.35021,14.67527c0,0.68629 -0.89535,2.83825 -0.89535,2.83825l8.57677,-0.18536c0,0 2.41624,2.90391 2.3504,7.30383c-0.05119,3.42083 -2.93026,5.63385 -2.93026,5.63385c0,0 -17.12054,0.19731 -19.46874,0.19731c-7.12086,0 -14.37304,-8.20111 -12.36719,-15.7879c2.63131,-9.95252 4.72006,-14.20909 11.84092,-14.20909z" fill="#f32f00"/><g><path d="M208.88652,161.93178c0,-6.41923 5.33829,-10.18458 14.41583,-9.88344c8.73954,0.28993 6.20083,2.81462 9.8369,5.74853c1.48776,1.20044 4.29532,1.48537 6.168,2.87291c1.87267,1.38754 3.0499,3.27341 3.0499,5.03116c0,1.24119 -2.20085,1.71695 -3.66772,1.97646c-2.59525,0.45913 -2.72607,3.14526 -5.11691,4.25429c-3.89133,1.80507 -6.55241,1.62313 -10.85005,1.62313c-6.51779,0 -10.41037,0.21952 -13.07151,-3.66622c-1.04716,-1.52905 -0.76446,-6.14416 -0.76446,-7.95683z" data-paper-data="{&quot;index&quot;:null}" fill="#f29e4a"/><path d="M223.74013,169.91368c-0.05481,-0.50366 1.26182,-0.58389 2.19689,-1.61377c0.84822,-0.93419 1.23853,-2.83961 2.70052,-2.99869c1.38108,-0.15028 2.67888,2.09802 4.48908,2.57703c2.21854,0.58707 4.8465,-0.51254 4.90407,0.01641c0.01255,0.11525 0.36098,2.34916 -0.21297,2.81931c-0.64528,0.52858 -2.22221,-0.70777 -2.22221,-0.70777c0,0 -0.95138,1.63243 -1.76206,2.01662c-1.67758,0.795 -2.42974,-0.48737 -2.42974,-0.48737c0,0 -2.07846,1.18652 -2.73293,1.00139c-1.17554,-0.33252 -1.8511,-1.83064 -1.8511,-1.83064c0,0 -3.03094,-0.34572 -3.07956,-0.79253z" data-paper-data="{&quot;index&quot;:null}" fill="#908816"/><path d="M211.24884,153.9189c4.02485,-1.90454 9.32506,-3.14518 10.98503,-0.84634c0.90989,1.2601 -4.74522,6.93928 -4.02659,8.09473c0.69513,1.11764 1.84441,2.33617 1.37575,3.83662c-0.19596,0.62738 -0.8718,2.23411 -1.64924,2.35648c-0.81675,0.12856 -1.74562,-1.23085 -2.34793,-0.67377c-1.45656,1.34718 -1.77906,4.33847 -3.17729,4.33847c-2.48525,0 -6.40506,0.32421 -7.49066,-1.76673c-2.08617,-4.01811 0.54251,-7.05232 0.82215,-8.38101c0.86981,-4.13298 1.48392,-5.05391 5.50877,-6.95845z" data-paper-data="{&quot;index&quot;:null}" fill="#908816"/><path d="M212.71058,164.79156c0,-2.16171 1.70149,-3.57102 2.74232,-3.57102c1.04083,0 1.88458,1.40931 1.88458,3.57102c0,2.16171 -0.84375,3.91412 -1.88458,3.91412c-1.04083,0 -2.74232,-1.75241 -2.74232,-3.91412z" data-paper-data="{&quot;index&quot;:null}" fill="#f29e4a"/><path d="M228.06509,156.81831c1.12088,0 2.02954,1.36298 2.02954,3.04432c0,1.68132 -0.90866,3.04432 -2.02954,3.04432c-1.12088,0 -2.02954,-1.36298 -2.02954,-3.04432c0,-1.68132 0.90866,-3.04432 2.02954,-3.04432z" data-paper-data="{&quot;index&quot;:null}" fill="#908816"/><path d="M207.18974,154.20893c0.50807,-0.99913 2.38882,-7.60335 14.35181,-6.95845c7.16258,0.38611 9.49898,5.01384 9.98806,4.97431c3.83734,-0.31015 8.13291,1.33883 8.13291,1.98413c0,1.12088 -7.5938,2.02954 -16.96123,2.02954c-9.36742,0 -16.67128,0.25109 -15.51154,-2.02954z" data-paper-data="{&quot;index&quot;:null}" fill="#f32f00"/></g><path d="M226.78922,183.73253c1.16258,0 2.10505,1.06028 2.10505,2.36818c0,1.30792 -0.94245,2.36818 -2.10505,2.36818c-1.16258,0 -2.10505,-1.06028 -2.10505,-2.36818c0,-1.30792 0.94245,-2.36818 2.10505,-2.36818z" fill="#f29e4a"/><g><path d="M236.89458,173.54625c0,0 0.5161,5.40777 1.65072,7.2361c0.86255,1.38994 3.18526,3.64138 3.18526,3.64138c0,0 -13.84509,0.62254 -20.07046,-0.0564c-6.0283,-0.65746 -4.84978,-9.7256 0.58338,-10.07331c5.04877,-0.3231 14.65111,-0.74777 14.65111,-0.74777z" data-paper-data="{&quot;index&quot;:null}" fill="#908816"/><path d="M237.67209,180.92311c-0.78806,-1.26989 -1.52141,-3.45256 -1.44034,-4.68652c0.08571,-1.30472 0.67115,-2.7257 1.76727,-3.40591c0.76528,-0.4749 2.22408,1.57665 3.21498,1.83408c1.77062,0.45995 3.14191,-0.20969 4.78057,2.43089c2.5799,4.15728 -0.80025,6.15822 -3.18963,6.92708c-2.68529,0.8641 -3.39169,-0.29391 -5.13284,-3.09961z" data-paper-data="{&quot;index&quot;:null}" fill="#f29e4a"/></g><path d="M185.33335,234.66668v-109.33333h109.33333v109.33333z" fill="none"/></g></g></svg>