<svg version="1.1" xmlns="http://www.w3.org/2000/svg" xmlns:xlink="http://www.w3.org/1999/xlink" width="119.71806" height="119.71806" viewBox="0,0,119.71806,119.71806"><defs><linearGradient x1="239.99937" y1="171.85658" x2="239.99937" y2="202.36703" gradientUnits="userSpaceOnUse" id="color-1"><stop offset="0" stop-color="#da842e"/><stop offset="1" stop-color="#f29e4a"/></linearGradient></defs><g transform="translate(-180.14097,-120.14097)"><g data-paper-data="{&quot;isPaintingLayer&quot;:true}" fill-rule="nonzero" stroke-width="0" stroke-linecap="butt" stroke-linejoin="miter" stroke-miterlimit="10" stroke-dasharray="" stroke-dashoffset="0" style="mix-blend-mode: normal"><path d="M180.14097,239.85903v-119.71806h119.71806v119.71806z" data-paper-data="{&quot;index&quot;:null}" fill="none" stroke="none"/><g><path d="M236.89696,171.85658h6.23631c0,0 -0.35745,8.99011 0.53289,17.80526c0.7352,7.27908 1.85144,12.70519 -3.37889,12.70519c-6.38816,0 -4.37851,-5.63572 -3.96204,-12.58547c0.54605,-9.11184 0.57172,-17.92497 0.57172,-17.92497z" data-paper-data="{&quot;index&quot;:null}" fill="url(#color-1)" stroke="none"/><g data-paper-data="{&quot;index&quot;:null}"><g data-paper-data="{&quot;index&quot;:null}"><path d="M260.96129,185.0262c0,0 -4.96503,7.55143 -8.91636,14.11395c-2.52523,4.19402 -7.38209,3.7807 -9.62604,2.66919c-0.73257,-0.36287 0.52098,-0.31226 -0.02302,-0.84236c-2.21032,-2.15384 -1.68633,-5.51636 3.21425,-9.73551c7.59938,-6.54267 15.35118,-6.20527 15.35118,-6.20527z" fill="#f29e4a" stroke="none"/><path d="M254.33946,189.01095c2.48165,-2.39442 5.1009,-3.4971 5.25873,-3.32496c0.16163,0.17628 -2.31265,1.34082 -4.98071,3.99818c-1.47409,1.46818 -4.17783,1.87962 -5.77276,3.34202c-4.37125,4.00802 -6.21345,7.66779 -6.46793,7.39026c-0.25448,-0.27754 1.5711,-3.95543 5.94236,-7.96345c1.66014,-1.52219 4.47074,-1.94693 6.02031,-3.44203z" fill="#20ad00" stroke="#20ad00"/></g><g data-paper-data="{&quot;index&quot;:null}"><path d="M234.22921,191.24814c4.90058,4.21915 5.42456,7.58167 3.21424,9.73552c-0.544,0.53009 0.70956,0.4795 -0.02302,0.84236c-2.24395,1.11152 -7.10081,1.52482 -9.62605,-2.66919c-3.95133,-6.56253 -8.91636,-14.11396 -8.91636,-14.11396c0,0 7.7518,-0.3374 15.35118,6.20527z" fill="#f29e4a" stroke="none"/><path d="M231.52014,192.46964c4.37125,4.00801 6.19683,7.68591 5.94236,7.96345c-0.25448,0.27754 -2.09668,-3.38224 -6.46793,-7.39025c-1.59492,-1.4624 -4.29866,-1.87384 -5.77276,-3.34202c-2.66806,-2.65736 -5.14233,-3.82191 -4.98071,-3.99818c0.15783,-0.17213 2.77708,0.93055 5.25873,3.32497c1.54957,1.4951 4.36017,1.91985 6.02031,3.44203z" fill="#20ad00" stroke="#20ad00"/></g></g></g><g data-paper-data="{&quot;index&quot;:null}" stroke="none"><g fill="#ffffff"><path d="M247.26278,157.51775c-0.58534,-0.24478 -1.62507,-1.128 -3.2508,-0.95869c-1.33799,0.13933 -2.74368,0.69373 -2.9685,0.16842c-0.45978,-1.07434 -0.1742,-2.13513 2.01416,-3.68165c2.04242,-1.44337 5.39545,-2.7189 5.39545,-2.7189z"/><path d="M247.89022,151.69519c-0.58534,-0.24478 -1.62507,-1.128 -3.2508,-0.95869c-1.33799,0.13933 -2.74368,0.69374 -2.96849,0.16843c-0.45978,-1.07434 -0.1742,-2.13514 2.01416,-3.68165c2.04242,-1.44337 6.50514,-1.73053 6.50514,-1.73053z"/><path d="M249.17546,145.77061c-0.52729,-0.35284 -1.37763,-1.41963 -3.00555,-1.56633c-1.33979,-0.12074 -2.82589,0.15279 -2.94541,-0.40596c-0.24445,-1.14274 0.23993,-2.12875 2.68499,-3.22524c2.282,-1.02337 5.81782,-1.62983 5.81782,-1.62983z"/><path d="M250.94152,139.62398c-0.46737,-0.42908 -2.58435,-2.23147 -4.1709,-2.62453c-1.30575,-0.3235 -2.95058,0.42985 -2.98356,-0.14061c-0.06745,-1.16664 0.69593,-2.77679 3.27953,-3.48788c2.41129,-0.66366 5.97802,-1.07391 5.97802,-1.07391z"/></g><path d="M259.14312,162.83713c-6.38724,14.07071 -19.1821,12.61454 -19.1821,12.61454l-0.63322,-4.2598c0,0 2.32856,-3.12671 3.1413,-5.43943c4.09093,-11.64117 3.49052,-17.46418 10.22877,-34.96073c0.17574,-0.45634 12.91414,17.79489 6.44527,32.04542z" data-paper-data="{&quot;index&quot;:null}" fill="#20ad00"/><path d="M246.93859,160.02614c-0.05415,-0.93649 0.66113,-1.73955 1.59762,-1.7937c0.93649,-0.05415 1.73955,0.66113 1.7937,1.59762c0.05415,0.93649 -0.66113,1.73955 -1.59762,1.7937c-0.93649,0.05415 -1.73955,-0.66113 -1.7937,-1.59762z" fill="#f29e4a"/><path d="M249.07575,152.3103c-0.04738,-0.81942 0.57848,-1.52211 1.39792,-1.56949c0.81942,-0.04738 1.52211,0.57848 1.56949,1.39792c0.04738,0.81942 -0.57848,1.52211 -1.39792,1.56949c-0.81942,0.04738 -1.52211,-0.57848 -1.56949,-1.39792z" fill="#f29e4a"/><path d="M256.18615,150.77215c-0.04738,-0.81942 0.57848,-1.52211 1.39792,-1.56949c0.81942,-0.04738 1.52211,0.57848 1.56949,1.39792c0.04738,0.81942 -0.57848,1.52211 -1.39792,1.56949c-0.81942,0.04738 -1.52211,-0.57848 -1.56949,-1.39792z" fill="#f29e4a"/><path d="M249.74889,142.42506c-0.04061,-0.70237 0.49585,-1.30467 1.19821,-1.34528c0.70237,-0.04061 1.30467,0.49585 1.34528,1.19821c0.04061,0.70237 -0.49585,1.30467 -1.19821,1.34528c-0.70237,0.04061 -1.30467,-0.49585 -1.34528,-1.19821z" fill="#f29e4a"/><path d="M254.0716,158.33772c-0.04061,-0.70237 0.49585,-1.30467 1.19821,-1.34528c0.70237,-0.04061 1.30467,0.49585 1.34528,1.19821c0.04061,0.70237 -0.49585,1.30467 -1.19821,1.34528c-0.70237,0.04061 -1.30467,-0.49585 -1.34528,-1.19821z" fill="#f29e4a"/><path d="M246.20608,169.42577c-0.05415,-0.93649 0.66113,-1.73955 1.59762,-1.7937c0.93649,-0.05415 1.73955,0.66113 1.7937,1.59762c0.05415,0.93649 -0.66113,1.73955 -1.59762,1.7937c-0.93649,0.05415 -1.73955,-0.66113 -1.7937,-1.59762z" fill="#f29e4a"/><path d="M251.12147,166.16426c-0.02707,-0.46824 0.33057,-0.86977 0.7988,-0.89684c0.46824,-0.02707 0.86977,0.33057 0.89684,0.7988c0.02707,0.46824 -0.33057,0.86977 -0.7988,0.89684c-0.46824,0.02707 -0.86977,-0.33057 -0.89684,-0.7988z" fill="#f29e4a"/><path d="M253.71842,137.51691c-0.04061,-0.70237 0.49585,-1.30467 1.19821,-1.34528c0.70237,-0.04061 1.30467,0.49585 1.34528,1.19821c0.04061,0.70237 -0.49585,1.30467 -1.19821,1.34528c-0.70237,0.04061 -1.30467,-0.49585 -1.34528,-1.19821z" fill="#f29e4a"/></g><g data-paper-data="{&quot;index&quot;:null}" stroke="none"><g fill="#ffffff"><path d="M232.80148,149.8867c0,0 3.28726,1.43658 5.2573,2.97727c2.11081,1.65079 2.34464,2.72418 1.83331,3.77497c-0.25002,0.51379 -1.62718,-0.1081 -2.95684,-0.31213c-1.61561,-0.24792 -2.69694,0.58386 -3.29345,0.79997z"/><path d="M231.30075,144.97398c0,0 4.44355,0.50318 6.41359,2.04386c2.11081,1.65078 2.34464,2.72418 1.83331,3.77497c-0.25001,0.51379 -1.62717,-0.10811 -2.95683,-0.31214c-1.61561,-0.24792 -2.69694,0.58386 -3.29345,0.79997z"/><path d="M230.083,138.35767c0,0 3.50226,0.77716 5.73197,1.90995c2.38902,1.21374 2.82504,2.22207 2.52548,3.35161c-0.14647,0.5523 -1.61756,0.20704 -2.96163,0.26269c-1.63312,0.06761 -2.53418,1.09192 -3.07795,1.41879z"/><path d="M229.08943,131.65544c0,0 3.54264,0.58267 5.91893,1.36245c2.54609,0.8355 3.23052,2.48076 3.10659,3.64275c-0.0606,0.56819 -1.66697,-0.26401 -2.98687,-0.0042c-1.60374,0.31569 -3.80561,2.01332 -4.29323,2.41925z"/></g><path d="M221.51753,161.86393c-5.77043,-14.54738 7.83779,-32.15961 7.9912,-31.69529c5.88212,17.80264 5.00013,23.5897 8.52191,35.4155c0.69966,2.34941 2.87391,5.58532 2.87391,5.58532l-0.83899,4.22409c0,0 -12.85041,0.83419 -18.54801,-13.52962z" data-paper-data="{&quot;index&quot;:null}" fill="#20ad00"/><path d="M231.97496,161.15671c-0.93276,-0.09948 -1.60826,-0.93628 -1.50878,-1.86904c0.09948,-0.93276 0.93628,-1.60826 1.86904,-1.50878c0.93276,0.09948 1.60826,0.93628 1.50878,1.86904c-0.09948,0.93276 -0.93628,1.60826 -1.86904,1.50878z" fill="#f29e4a"/><path d="M230.44799,153.15773c-0.81617,-0.08705 -1.40723,-0.81925 -1.32019,-1.63541c0.08705,-0.81617 0.81925,-1.40723 1.63541,-1.32019c0.81617,0.08705 1.40723,0.81925 1.32019,1.63541c-0.08705,0.81617 -0.81925,1.40723 -1.63541,1.32019z" fill="#f29e4a"/><path d="M223.42052,151.2767c-0.81617,-0.08705 -1.40723,-0.81925 -1.32019,-1.63541c0.08705,-0.81617 0.81925,-1.40723 1.63541,-1.32019c0.81617,0.08705 1.40723,0.81925 1.32019,1.63541c-0.08705,0.81617 -0.81925,1.40723 -1.63541,1.32019z" fill="#f29e4a"/><path d="M230.48849,143.0629c-0.69957,-0.07461 -1.2062,-0.70221 -1.13159,-1.40178c0.07461,-0.69957 0.70221,-1.2062 1.40178,-1.13159c0.69957,0.07461 1.2062,0.70221 1.13159,1.40178c-0.07461,0.69957 -0.70221,1.2062 -1.40178,1.13159z" fill="#f29e4a"/><path d="M225.39945,158.74728c-0.69957,-0.07461 -1.2062,-0.70221 -1.13159,-1.40178c0.07461,-0.69957 0.70221,-1.2062 1.40178,-1.13159c0.69957,0.07461 1.2062,0.70221 1.13159,1.40178c-0.07461,0.69957 -0.70221,1.2062 -1.40178,1.13159z" fill="#f29e4a"/><path d="M232.25093,170.58081c-0.93276,-0.09948 -1.60826,-0.93628 -1.50878,-1.86904c0.09948,-0.93276 0.93628,-1.60826 1.86904,-1.50878c0.93276,0.09948 1.60826,0.93628 1.50878,1.86904c-0.09948,0.93276 -0.93628,1.60826 -1.86904,1.50878z" fill="#f29e4a"/><path d="M228.43396,166.33044c-0.46637,-0.04974 -0.80413,-0.46814 -0.75439,-0.93451c0.04974,-0.46637 0.46814,-0.80413 0.93451,-0.75439c0.46637,0.04974 0.80413,0.46814 0.75439,0.93451c-0.04974,0.46637 -0.46814,0.80413 -0.93451,0.75439z" fill="#f29e4a"/><path d="M226.76157,137.96808c-0.69957,-0.07461 -1.2062,-0.70221 -1.13159,-1.40178c0.07461,-0.69957 0.70221,-1.2062 1.40178,-1.13159c0.69957,0.07461 1.2062,0.70221 1.13159,1.40178c-0.07461,0.69957 -0.70221,1.2062 -1.40178,1.13159z" fill="#f29e4a"/></g></g></g></svg>