<svg version="1.1" xmlns="http://www.w3.org/2000/svg" xmlns:xlink="http://www.w3.org/1999/xlink" width="435.40879" height="288.09246" viewBox="0,0,435.40879,288.09246"><defs><radialGradient cx="62.18924" cy="146.38707" r="7.42938" gradientUnits="userSpaceOnUse" id="color-1"><stop offset="0" stop-color="#ffffff"/><stop offset="1" stop-color="#ffffff" stop-opacity="0"/></radialGradient><radialGradient cx="85.05316" cy="166.93781" r="8.26702" gradientUnits="userSpaceOnUse" id="color-2"><stop offset="0" stop-color="#ffffff"/><stop offset="1" stop-color="#ffffff" stop-opacity="0"/></radialGradient><radialGradient cx="294.35884" cy="99.69101" r="8.26701" gradientUnits="userSpaceOnUse" id="color-3"><stop offset="0" stop-color="#ffffff"/><stop offset="1" stop-color="#ffffff" stop-opacity="0"/></radialGradient><radialGradient cx="230.44195" cy="123.64768" r="5.72179" gradientUnits="userSpaceOnUse" id="color-4"><stop offset="0" stop-color="#ffffff"/><stop offset="1" stop-color="#ffffff" stop-opacity="0"/></radialGradient><radialGradient cx="232.99613" cy="34.12537" r="8.26701" gradientUnits="userSpaceOnUse" id="color-5"><stop offset="0" stop-color="#ffffff"/><stop offset="1" stop-color="#ffffff" stop-opacity="0"/></radialGradient><radialGradient cx="16.12517" cy="207.2859" r="8.26701" gradientUnits="userSpaceOnUse" id="color-6"><stop offset="0" stop-color="#ffffff"/><stop offset="1" stop-color="#ffffff" stop-opacity="0"/></radialGradient><radialGradient cx="35.45864" cy="83.71989" r="8.26702" gradientUnits="userSpaceOnUse" id="color-7"><stop offset="0" stop-color="#ffffff"/><stop offset="1" stop-color="#ffffff" stop-opacity="0"/></radialGradient><radialGradient cx="352.35921" cy="35.80655" r="8.26701" gradientUnits="userSpaceOnUse" id="color-8"><stop offset="0" stop-color="#ffffff"/><stop offset="1" stop-color="#ffffff" stop-opacity="0"/></radialGradient><radialGradient cx="136.32885" cy="112.29979" r="8.26701" gradientUnits="userSpaceOnUse" id="color-9"><stop offset="0" stop-color="#ffffff"/><stop offset="1" stop-color="#ffffff" stop-opacity="0"/></radialGradient><radialGradient cx="155.6623" cy="127.43032" r="8.26701" gradientUnits="userSpaceOnUse" id="color-10"><stop offset="0" stop-color="#ffffff"/><stop offset="1" stop-color="#ffffff" stop-opacity="0"/></radialGradient><radialGradient cx="195.1698" cy="241.74989" r="8.26701" gradientUnits="userSpaceOnUse" id="color-11"><stop offset="0" stop-color="#ffffff"/><stop offset="1" stop-color="#ffffff" stop-opacity="0"/></radialGradient><radialGradient cx="292.67767" cy="215.69175" r="8.26701" gradientUnits="userSpaceOnUse" id="color-12"><stop offset="0" stop-color="#ffffff"/><stop offset="1" stop-color="#ffffff" stop-opacity="0"/></radialGradient><radialGradient cx="400.96545" cy="261.85317" r="8.26701" gradientUnits="userSpaceOnUse" id="color-13"><stop offset="0" stop-color="#ffffff"/><stop offset="1" stop-color="#ffffff" stop-opacity="0"/></radialGradient><radialGradient cx="364.74974" cy="292.26833" r="8.26701" gradientUnits="userSpaceOnUse" id="color-14"><stop offset="0" stop-color="#ffffff"/><stop offset="1" stop-color="#ffffff" stop-opacity="0"/></radialGradient><radialGradient cx="434.94179" cy="88.3591" r="8.26702" gradientUnits="userSpaceOnUse" id="color-15"><stop offset="0" stop-color="#ffffff"/><stop offset="1" stop-color="#ffffff" stop-opacity="0"/></radialGradient><radialGradient cx="118.12477" cy="303.10599" r="8.26701" gradientUnits="userSpaceOnUse" id="color-16"><stop offset="0" stop-color="#ffffff"/><stop offset="1" stop-color="#ffffff" stop-opacity="0"/></radialGradient></defs><g transform="translate(-7.82909,-24.56947)"><g data-paper-data="{&quot;isPaintingLayer&quot;:true}" fill-rule="nonzero" stroke="none" stroke-width="0" stroke-linecap="butt" stroke-linejoin="miter" stroke-miterlimit="10" stroke-dasharray="" stroke-dashoffset="0" style="mix-blend-mode: normal"><g><path d="M54.75987,146.38707c0,-4.10313 3.32625,-7.42938 7.42938,-7.42938c4.10313,0 7.42938,3.32625 7.42938,7.42938c0,4.10313 -3.32625,7.42938 -7.42938,7.42938c-4.10313,0 -7.42938,-3.32625 -7.42938,-7.42938z" fill="url(#color-1)"/><path d="M60.71567,148.05578c-1.00457,-1.00457 -5.98192,-1.6687 -5.98192,-1.6687c0,0 4.77475,-0.46153 5.73801,-1.42479c1.01201,-1.01201 1.71749,-7.16288 1.71749,-7.16288c0,0 0.5823,6.02769 1.57114,7.01653c0.98885,0.98885 5.88436,1.57114 5.88436,1.57114c0,0 -4.9363,0.62308 -5.93314,1.61993c-0.98058,0.98058 -1.52236,6.96775 -1.52236,6.96775c0,0 -0.50152,-5.94691 -1.47357,-6.91896z" data-paper-data="{&quot;index&quot;:null}" fill="#d8d8d8"/></g><g><path d="M76.78614,166.93781c0,-4.56575 3.70127,-8.26702 8.26702,-8.26702c4.56575,0 8.26702,3.70127 8.26702,8.26702c0,4.56575 -3.70127,8.26702 -8.26702,8.26702c-4.56575,0 -8.26702,-3.70127 -8.26702,-8.26702z" fill="url(#color-2)"/><path d="M83.41344,168.79466c-1.11783,-1.11783 -6.65637,-1.85684 -6.65637,-1.85684c0,0 5.31309,-0.51356 6.38495,-1.58544c1.12612,-1.12612 1.91113,-7.97048 1.91113,-7.97048c0,0 0.64795,6.70729 1.74828,7.80762c1.10033,1.10033 6.5478,1.74828 6.5478,1.74828c0,0 -5.49285,0.69333 -6.60208,1.80256c-1.09114,1.09114 -1.694,7.75335 -1.694,7.75335c0,0 -0.55806,-6.61741 -1.63971,-7.69906z" data-paper-data="{&quot;index&quot;:null}" fill="#ffffff"/></g><g><path d="M286.09182,99.69101c0,-4.56575 3.70127,-8.26701 8.26701,-8.26701c4.56575,0 8.26701,3.70126 8.26701,8.26701c0,4.56575 -3.70127,8.26702 -8.26701,8.26702c-4.56575,0 -8.26701,-3.70127 -8.26701,-8.26702z" fill="url(#color-3)"/><path d="M292.71913,101.54786c-1.11783,-1.11783 -6.65637,-1.85685 -6.65637,-1.85685c0,0 5.31309,-0.51356 6.38495,-1.58543c1.12612,-1.12612 1.91113,-7.97048 1.91113,-7.97048c0,0 0.64795,6.70729 1.74828,7.80762c1.10033,1.10033 6.5478,1.74828 6.5478,1.74828c0,0 -5.49285,0.69333 -6.60208,1.80257c-1.09114,1.09114 -1.694,7.75335 -1.694,7.75335c0,0 -0.55806,-6.61741 -1.63971,-7.69906z" data-paper-data="{&quot;index&quot;:null}" fill="#d8d8d8"/></g><g><path d="M224.72017,123.64768c0,-3.16005 2.56173,-5.72179 5.72179,-5.72179c3.16005,0 5.72179,2.56173 5.72179,5.72179c0,3.16005 -2.56173,5.7218 -5.72179,5.7218c-3.16005,0 -5.72179,-2.56173 -5.72179,-5.7218z" fill="url(#color-4)"/><path d="M229.30707,124.93285c-0.77367,-0.77367 -4.60702,-1.28517 -4.60702,-1.28517c0,0 3.67731,-0.35545 4.41917,-1.09732c0.77942,-0.77942 1.32274,-5.51654 1.32274,-5.51654c0,0 0.44846,4.64227 1.21002,5.40384c0.76157,0.76157 4.53188,1.21002 4.53188,1.21002c0,0 -3.80172,0.47987 -4.56945,1.2476c-0.7552,0.7552 -1.17246,5.36627 -1.17246,5.36627c0,0 -0.38625,-4.58006 -1.13488,-5.3287z" data-paper-data="{&quot;index&quot;:null}" fill="#ffffff"/></g><g><path d="M224.72912,34.12537c0,-4.56575 3.70127,-8.26701 8.26701,-8.26701c4.56575,0 8.26701,3.70127 8.26701,8.26701c0,4.56575 -3.70127,8.26702 -8.26701,8.26702c-4.56575,0 -8.26701,-3.70127 -8.26701,-8.26702z" fill="url(#color-5)"/><path d="M231.35642,35.98223c-1.11783,-1.11783 -6.65637,-1.85685 -6.65637,-1.85685c0,0 5.31309,-0.51356 6.38495,-1.58544c1.12611,-1.12612 1.91113,-7.97047 1.91113,-7.97047c0,0 0.64795,6.70729 1.74828,7.80762c1.10033,1.10033 6.5478,1.74828 6.5478,1.74828c0,0 -5.49285,0.69333 -6.60208,1.80257c-1.09114,1.09114 -1.694,7.75335 -1.694,7.75335c0,0 -0.55806,-6.61741 -1.63971,-7.69906z" data-paper-data="{&quot;index&quot;:null}" fill="#ffffff"/></g><g><path d="M7.85816,207.2859c0,-4.56575 3.70127,-8.26701 8.26701,-8.26701c4.56575,0 8.26701,3.70127 8.26701,8.26701c0,4.56575 -3.70127,8.26702 -8.26701,8.26702c-4.56575,0 -8.26701,-3.70127 -8.26701,-8.26702z" fill="url(#color-6)"/><path d="M14.48547,209.14275c-1.11783,-1.11783 -6.65637,-1.85684 -6.65637,-1.85684c0,0 5.31309,-0.51356 6.38495,-1.58543c1.12611,-1.12612 1.91113,-7.97048 1.91113,-7.97048c0,0 0.64795,6.70729 1.74828,7.80762c1.10033,1.10033 6.5478,1.74828 6.5478,1.74828c0,0 -5.49285,0.69333 -6.60208,1.80256c-1.09114,1.09114 -1.694,7.75335 -1.694,7.75335c0,0 -0.55806,-6.61741 -1.63971,-7.69906z" data-paper-data="{&quot;index&quot;:null}" fill="#c7c7c7"/></g><g><path d="M27.19163,83.71989c0,-4.56575 3.70127,-8.26701 8.26701,-8.26701c4.56575,0 8.26702,3.70126 8.26702,8.26701c0,4.56575 -3.70127,8.26702 -8.26702,8.26702c-4.56575,0 -8.26701,-3.70127 -8.26701,-8.26702z" fill="url(#color-7)"/><path d="M33.81893,85.57675c-1.11783,-1.11783 -6.65637,-1.85685 -6.65637,-1.85685c0,0 5.31309,-0.51356 6.38496,-1.58543c1.12612,-1.12612 1.91113,-7.97048 1.91113,-7.97048c0,0 0.64795,6.70729 1.74828,7.80762c1.10033,1.10033 6.5478,1.74828 6.5478,1.74828c0,0 -5.49285,0.69333 -6.60208,1.80257c-1.09114,1.09114 -1.69401,7.75335 -1.69401,7.75335c0,0 -0.55806,-6.61741 -1.63971,-7.69906z" data-paper-data="{&quot;index&quot;:null}" fill="#d8d8d8"/></g><g><path d="M344.0922,35.80655c0,-4.56575 3.70127,-8.26701 8.26701,-8.26701c4.56575,0 8.26701,3.70127 8.26701,8.26701c0,4.56575 -3.70127,8.26702 -8.26701,8.26702c-4.56575,0 -8.26701,-3.70127 -8.26701,-8.26702z" fill="url(#color-8)"/><path d="M350.71949,37.6634c-1.11783,-1.11783 -6.65637,-1.85685 -6.65637,-1.85685c0,0 5.31309,-0.51356 6.38495,-1.58544c1.12612,-1.12612 1.91113,-7.97047 1.91113,-7.97047c0,0 0.64795,6.70729 1.74828,7.80762c1.10033,1.10033 6.5478,1.74828 6.5478,1.74828c0,0 -5.49285,0.69333 -6.60208,1.80257c-1.09114,1.09114 -1.694,7.75335 -1.694,7.75335c0,0 -0.55806,-6.61741 -1.63971,-7.69906z" data-paper-data="{&quot;index&quot;:null}" fill="#d8d8d8"/></g><g><path d="M128.06183,112.29979c0,-4.56575 3.70127,-8.26701 8.26701,-8.26701c4.56575,0 8.26701,3.70126 8.26701,8.26701c0,4.56575 -3.70127,8.26702 -8.26701,8.26702c-4.56575,0 -8.26701,-3.70127 -8.26701,-8.26702z" fill="url(#color-9)"/><path d="M134.68912,114.15663c-1.11783,-1.11783 -6.65637,-1.85684 -6.65637,-1.85684c0,0 5.31309,-0.51356 6.38495,-1.58544c1.12612,-1.12612 1.91113,-7.97047 1.91113,-7.97047c0,0 0.64795,6.70729 1.74828,7.80762c1.10033,1.10033 6.5478,1.74828 6.5478,1.74828c0,0 -5.49285,0.69333 -6.60208,1.80256c-1.09114,1.09114 -1.694,7.75335 -1.694,7.75335c0,0 -0.55806,-6.61741 -1.63971,-7.69906z" data-paper-data="{&quot;index&quot;:null}" fill="#d8d8d8"/></g><g><path d="M147.39529,127.43032c0,-4.56575 3.70126,-8.26701 8.26701,-8.26701c4.56575,0 8.26701,3.70126 8.26701,8.26701c0,4.56575 -3.70126,8.26702 -8.26701,8.26702c-4.56575,0 -8.26701,-3.70127 -8.26701,-8.26702z" fill="url(#color-10)"/><path d="M154.02259,129.28717c-1.11783,-1.11783 -6.65637,-1.85685 -6.65637,-1.85685c0,0 5.31309,-0.51356 6.38495,-1.58543c1.12612,-1.12612 1.91113,-7.97048 1.91113,-7.97048c0,0 0.64795,6.70729 1.74828,7.80762c1.10033,1.10033 6.5478,1.74828 6.5478,1.74828c0,0 -5.49285,0.69333 -6.60208,1.80257c-1.09114,1.09114 -1.694,7.75335 -1.694,7.75335c0,0 -0.55806,-6.61741 -1.63971,-7.69906z" data-paper-data="{&quot;index&quot;:null}" fill="#d8d8d8"/></g><g><path d="M186.90279,241.74989c0,-4.56575 3.70126,-8.26701 8.26701,-8.26701c4.56575,0 8.26701,3.70127 8.26701,8.26701c0,4.56575 -3.70127,8.26702 -8.26701,8.26702c-4.56575,0 -8.26701,-3.70127 -8.26701,-8.26702z" fill="url(#color-11)"/><path d="M193.53009,243.60674c-1.11783,-1.11783 -6.65637,-1.85685 -6.65637,-1.85685c0,0 5.31309,-0.51356 6.38495,-1.58543c1.12612,-1.12612 1.91113,-7.97048 1.91113,-7.97048c0,0 0.64795,6.70729 1.74828,7.80762c1.10033,1.10033 6.5478,1.74828 6.5478,1.74828c0,0 -5.49285,0.69333 -6.60208,1.80257c-1.09114,1.09114 -1.694,7.75335 -1.694,7.75335c0,0 -0.55806,-6.61741 -1.63971,-7.69906z" data-paper-data="{&quot;index&quot;:null}" fill="#d8d8d8"/></g><g><path d="M284.41065,215.69175c0,-4.56575 3.70127,-8.26701 8.26701,-8.26701c4.56575,0 8.26701,3.70127 8.26701,8.26701c0,4.56575 -3.70127,8.26702 -8.26701,8.26702c-4.56575,0 -8.26701,-3.70127 -8.26701,-8.26702z" fill="url(#color-12)"/><path d="M291.03796,217.5486c-1.11783,-1.11783 -6.65637,-1.85685 -6.65637,-1.85685c0,0 5.31309,-0.51356 6.38495,-1.58543c1.12612,-1.12612 1.91113,-7.97048 1.91113,-7.97048c0,0 0.64795,6.70729 1.74828,7.80762c1.10033,1.10033 6.5478,1.74828 6.5478,1.74828c0,0 -5.49285,0.69333 -6.60208,1.80257c-1.09114,1.09114 -1.694,7.75335 -1.694,7.75335c0,0 -0.55806,-6.61741 -1.63971,-7.69906z" data-paper-data="{&quot;index&quot;:null}" fill="#ffffff"/></g><g><path d="M392.69843,261.85317c0,-4.56574 3.70128,-8.26701 8.26702,-8.26701c4.56574,0 8.26701,3.70127 8.26701,8.26701c0,4.56575 -3.70127,8.26702 -8.26701,8.26702c-4.56574,0 -8.26702,-3.70128 -8.26702,-8.26702z" fill="url(#color-13)"/><path d="M399.32573,263.71002c-1.11782,-1.11783 -6.65636,-1.85685 -6.65636,-1.85685c0,0 5.31309,-0.51356 6.38495,-1.58543c1.12613,-1.12613 1.91113,-7.97047 1.91113,-7.97047c0,0 0.64794,6.70728 1.74828,7.80762c1.10033,1.10033 6.54781,1.74828 6.54781,1.74828c0,0 -5.49285,0.69333 -6.60208,1.80257c-1.09114,1.09114 -1.694,7.75335 -1.694,7.75335c0,0 -0.55806,-6.61741 -1.63971,-7.69906z" data-paper-data="{&quot;index&quot;:null}" fill="#c7c7c7"/></g><g><path d="M356.48272,292.26833c0,-4.56574 3.70127,-8.26702 8.26701,-8.26702c4.56574,0 8.26701,3.70128 8.26701,8.26702c0,4.56574 -3.70127,8.26702 -8.26701,8.26702c-4.56574,0 -8.26701,-3.70127 -8.26701,-8.26702z" fill="url(#color-14)"/><path d="M363.11003,294.12518c-1.11782,-1.11783 -6.65636,-1.85685 -6.65636,-1.85685c0,0 5.31309,-0.51356 6.38495,-1.58543c1.12613,-1.12613 1.91113,-7.97048 1.91113,-7.97048c0,0 0.64795,6.70729 1.74828,7.80762c1.10033,1.10033 6.54779,1.74829 6.54779,1.74829c0,0 -5.49285,0.69333 -6.60208,1.80256c-1.09114,1.09114 -1.69399,7.75335 -1.69399,7.75335c0,0 -0.55806,-6.61741 -1.63972,-7.69906z" data-paper-data="{&quot;index&quot;:null}" fill="#d8d8d8"/></g><g><path d="M426.67478,88.3591c0,-4.56574 3.70127,-8.26701 8.26701,-8.26701c4.56574,0 8.26702,3.70127 8.26702,8.26701c0,4.56575 -3.70128,8.26702 -8.26702,8.26702c-4.56574,0 -8.26701,-3.70128 -8.26701,-8.26702z" fill="url(#color-15)"/><path d="M433.30208,90.21595c-1.11782,-1.11782 -6.65636,-1.85686 -6.65636,-1.85686c0,0 5.31308,-0.51356 6.38495,-1.58543c1.12613,-1.12613 1.91113,-7.97047 1.91113,-7.97047c0,0 0.64795,6.70729 1.74829,7.80763c1.10033,1.10034 6.5478,1.74828 6.5478,1.74828c0,0 -5.49285,0.69334 -6.60208,1.80257c-1.09114,1.09114 -1.694,7.75335 -1.694,7.75335c0,0 -0.55806,-6.61741 -1.63971,-7.69906z" data-paper-data="{&quot;index&quot;:null}" fill="#d8d8d8"/></g><g><path d="M109.85775,303.10599c0,-4.56575 3.70127,-8.26701 8.26701,-8.26701c4.56574,0 8.26701,3.70126 8.26701,8.26701c0,4.56574 -3.70127,8.26702 -8.26701,8.26702c-4.56574,0 -8.26701,-3.70128 -8.26701,-8.26702z" fill="url(#color-16)"/><path d="M116.48505,304.96285c-1.11783,-1.11783 -6.65636,-1.85685 -6.65636,-1.85685c0,0 5.31308,-0.51356 6.38495,-1.58542c1.12613,-1.12613 1.91113,-7.97048 1.91113,-7.97048c0,0 0.64794,6.70729 1.74828,7.80763c1.10034,1.10033 6.54779,1.74828 6.54779,1.74828c0,0 -5.49285,0.69333 -6.60208,1.80257c-1.09114,1.09114 -1.694,7.75335 -1.694,7.75335c0,0 -0.55806,-6.61741 -1.63971,-7.69906z" data-paper-data="{&quot;index&quot;:null}" fill="#c7c7c7"/></g></g></g></svg>