<svg version="1.1" xmlns="http://www.w3.org/2000/svg" xmlns:xlink="http://www.w3.org/1999/xlink" width="85.49398" height="85.49398" viewBox="0,0,85.49398,85.49398"><defs><linearGradient x1="-3285.69704" y1="-2895.28055" x2="-3285.69704" y2="4105.40967" gradientUnits="userSpaceOnUse" id="color-1"><stop offset="0" stop-color="#ffffff"/><stop offset="1" stop-color="#ffffff" stop-opacity="0"/></linearGradient></defs><g transform="translate(-197.25302,-137.25301)"><g data-paper-data="{&quot;isPaintingLayer&quot;:true}" fill-rule="nonzero" stroke-linejoin="miter" stroke-miterlimit="10" stroke-dasharray="" stroke-dashoffset="0" style="mix-blend-mode: normal"><path d="M197.25302,222.74699v-85.49398h85.49398v85.49398z" fill="none" stroke="none" stroke-width="0" stroke-linecap="butt"/><path d="M208.63952,205.58013c0.00324,-13.1024 0,-44.63208 0,-51.75c0,-3.5626 2.97813,-5.21784 6.54073,-5.21784c12.68063,0 43.89984,0 51,0c2.96729,0 5.18024,2.50056 5.18024,5.46784c0,6.43742 0,39.20833 0,51.75c0,2.95974 -2.72049,5.55758 -5.68024,5.55758c-6.61442,0 -39.17756,0 -52,0c-3.13138,0 -5.04177,-1.58613 -5.04073,-5.80758z" fill="url(#color-1)" stroke="#a97a4a" stroke-width="2" stroke-linecap="butt"/><g><path d="M247.87434,183.0899c-2.55326,1.22495 -7.65973,3.5862 -10.11417,-4.47264c-3.59054,-11.78908 5.82508,-27.10439 11.0911,-24.59846c4.15743,1.97838 -2.48097,11.83901 -2.48097,11.83901c0,0 5.72657,-4.86094 6.86939,-0.95513c1.24511,4.25538 -4.30286,10.79948 -4.30286,10.79948c0,0 4.45912,-4.15886 5.10259,-0.33587c0.75544,4.48822 -5.58395,7.44481 -6.16509,7.72362z" fill="#dcdcdc" stroke="#000000" stroke-width="0" stroke-linecap="butt"/><g data-paper-data="{&quot;index&quot;:null}"><g data-paper-data="{&quot;index&quot;:null}" stroke="none" stroke-width="0" stroke-linecap="butt"><path d="M235.55238,194.34286c-0.73718,0.21788 -3.50918,-0.14647 -5.12149,-1.47798c-1.61231,-1.33149 -1.24824,-3.32754 -2.29533,-4.6471c-0.61141,-0.77052 -0.91474,-1.86716 -1.76313,-2.79127c-0.60454,-0.65848 -1.86855,-1.22936 -1.98314,-1.53221c-0.15022,-0.39705 1.44198,-1.10712 1.75177,-1.62677c0.61812,-1.0368 0.77463,-2.63498 0.81674,-4.12602c0.06368,-2.25504 2.58707,-2.94192 -0.0071,-4.07185c-0.7311,-0.31844 -1.3464,1.03007 -1.77019,1.84661c-0.57565,1.10912 -1.36019,0.74117 -1.82024,2.00243c-0.55522,1.52218 -0.75613,4.58916 -1.0946,4.65497c-0.38137,0.07415 -1.30894,-0.95709 -2.14127,-3.79606c-0.4138,-1.4114 -0.97663,-4.91168 -0.5804,-8.05427c0.39622,-3.14259 1.74318,-2.05564 2.72209,-4.27513c0.6456,-1.46377 1.28111,-4.84901 2.00852,-6.51152c1.09292,-2.49788 2.39328,-2.29256 4.24698,-2.29256c1.73573,0 4.0924,1.70936 5.40369,4.76698c1.41184,3.29209 1.91108,8.71809 0.50947,11.51804c-1.01019,2.01803 -2.20591,4.32178 -2.8589,5.93685c-0.49751,1.23052 -0.58674,2.06128 -0.58674,2.06128l5.00837,0.83664z" data-paper-data="{&quot;index&quot;:null}" fill="#f29e4a"/><path d="M223.83766,171.50398c0,0.36157 -1.09653,0.172 -1.51183,0.41637c-0.45134,0.26556 -0.2389,0.94978 -0.63183,0.94978c-0.75451,0 -0.58866,-0.61164 -0.58866,-1.36615c0,-0.75451 0.61164,-1.36616 1.36615,-1.36616c0.7545,0 1.36615,0.61165 1.36615,1.36616z" data-paper-data="{&quot;index&quot;:null}" fill="#f32f00"/><g data-paper-data="{&quot;index&quot;:null}"><path d="M230.47324,164.08772c0,4.41925 -1.87576,6.44044 -3.70814,6.44044c-1.83237,0 -2.92747,-2.02119 -2.92747,-6.44044c0,-4.41925 -0.08992,-7.76324 3.3178,-8.00176c2.99136,-0.20938 3.3178,3.5825 3.3178,8.00176z" fill="#ffffff"/><path d="M226.57073,164.47804c0,1.6168 -0.74044,2.66831 -1.49495,2.66831c-0.75451,0 -0.84782,-1.05151 -0.84782,-2.66831c0,-1.61679 0.09331,-2.6683 0.84782,-2.6683c0.75451,0 1.49495,1.05149 1.49495,2.6683z" fill="#f32f00"/></g></g><path d="M252.40882,199.42748c0.82629,-0.653 1.59679,-1.96971 1.59679,-1.96971c0,0 1.641,1.40623 2.48344,1.87379c1.55497,0.863 3.20976,1.96901 2.98556,2.09123c-0.01852,0.50655 -2.7506,1.23053 -5.46899,1.23053c-2.71841,0 -5.469,-0.95708 -5.469,-0.95708c0,0 2.28394,-1.01358 3.87221,-2.26876z" data-paper-data="{&quot;index&quot;:null}" fill="#f29e4a" stroke="none" stroke-width="0" stroke-linecap="butt"/><path d="M236.01267,197.14675c2.26713,1.79168 5.52729,3.23849 5.52729,3.23849c0,0 -3.92627,1.36615 -7.80659,1.36615c-3.88033,0 -8.66924,-0.14433 -8.69568,-0.8674c-0.32004,-0.17444 2.93114,-2.64228 5.15074,-3.87416c1.20252,-0.6674 3.54493,-2.67471 3.54493,-2.67471c0,0 1.09983,1.8795 2.2793,2.81162z" data-paper-data="{&quot;index&quot;:null}" fill="#f29e4a" stroke="none" stroke-width="0" stroke-linecap="butt"/><path d="M246.09736,200.97074c-3.99815,0 -6.8241,-1.58849 -9.32566,-3.27117c-1.57622,-1.06025 -3.45182,-1.45182 -4.06352,-3.72873c-1.12539,-4.18901 0.75716,-5.39096 0.75716,-7.0646c0,-2.07216 -0.19666,-6.13772 -0.19666,-6.13772c0,0 1.30142,-1.46474 2.89133,-3.72204c2.84103,-4.03362 6.07699,-5.11134 11.35748,-4.17947c8.0344,1.41786 9.20601,9.2855 9.20601,17.69284c0,1.95374 -0.15897,5.91561 -0.15897,5.91561z" data-paper-data="{&quot;index&quot;:null}" fill="#f32f00" stroke="none" stroke-width="NaN" stroke-linecap="butt"/><g data-paper-data="{&quot;index&quot;:null}" fill="#f29e4a" stroke="none" stroke-width="0" stroke-linecap="butt"><path d="M256.66494,193.69532l-17.6891,-19.66877l1.70612,-0.96965l16.21468,17.78303z"/><path d="M251.38561,200.55337l-17.95675,-19.79362l1.15225,-1.54476l18.05972,19.95837z"/></g><g data-paper-data="{&quot;index&quot;:null}" fill="#f29e4a" stroke="none" stroke-width="0" stroke-linecap="butt"><path d="M232.71954,192.44014l17.14371,-18.84821l1.78777,0.79452l-17.67625,19.43372z"/><path d="M239.11011,198.68542l16.5029,-18.36346l0.64103,2.28869l-15.88871,17.4548z"/></g><path d="M253.78655,178.6427c0.98411,2.17994 0.48319,4.89967 0.48319,4.89967c0,0 -0.50122,-2.50254 -0.98925,-3.70044c-0.46067,-1.13072 -1.86158,-3.29704 -1.86158,-3.29704c0,0 1.85969,0.97264 2.36764,2.09781z" data-paper-data="{&quot;index&quot;:null}" fill="#ffffff" stroke="none" stroke-width="0" stroke-linecap="butt"/><path d="M258.27329,197.45775c0,0 -2.21765,-0.33182 -3.8695,0.06303c-1.75362,0.41919 -3.78058,2.41257 -6.15967,2.80286c-3.86576,0.63416 -8.26964,-0.36761 -11.02364,-2.05042c-1.93362,-1.18151 -3.90347,-3.00352 -4.49039,-5.03782c-0.79167,-2.74399 0.20425,-5.87425 0.32849,-8.33995c0.11937,-2.36907 -0.20901,-4.27924 -0.20901,-4.27924" data-paper-data="{&quot;index&quot;:null}" fill="none" stroke="#ffffff" stroke-width="3.5" stroke-linecap="round"/></g><g stroke="#000000" stroke-width="0" stroke-linecap="butt"><path d="M252.14666,184.19878c-2.79938,0.4279 -8.37226,1.19893 -8.37226,-7.22538c0,-12.32373 13.46927,-24.23135 17.77673,-20.29987c3.40067,3.10383 -5.82265,10.60256 -5.82265,10.60256c0,0 6.89437,-2.98161 6.84965,1.08771c-0.04872,4.43354 -7.26263,9.07731 -7.26263,9.07731c0,0 5.47735,-2.67927 4.97908,1.16535c-0.58498,4.5136 -7.51076,5.49494 -8.14791,5.59233z" fill="#ffffff"/><path d="M246.63846,176.8496c0.22767,-3.58421 2.04191,-8.59167 2.64847,-8.55314c0.60656,0.03853 -0.99763,4.65836 -1.22531,8.24256c-0.22767,3.58421 1.00738,4.77553 0.40082,4.737c-0.60656,-0.03853 -2.05166,-0.84221 -1.82398,-4.42643z" fill="#f29e4a"/></g></g></g></g></svg>