<svg version="1.1" xmlns="http://www.w3.org/2000/svg" xmlns:xlink="http://www.w3.org/1999/xlink" width="85.49398" height="85.49398" viewBox="0,0,85.49398,85.49398"><defs><linearGradient x1="-3285.69704" y1="-2895.28054" x2="-3285.69704" y2="4105.40968" gradientUnits="userSpaceOnUse" id="color-1"><stop offset="0" stop-color="#ffffff"/><stop offset="1" stop-color="#ffffff" stop-opacity="0"/></linearGradient></defs><g transform="translate(-197.25301,-137.25301)"><g data-paper-data="{&quot;isPaintingLayer&quot;:true}" fill-rule="nonzero" stroke-linecap="butt" stroke-linejoin="miter" stroke-miterlimit="10" stroke-dasharray="" stroke-dashoffset="0" style="mix-blend-mode: normal"><path d="M197.25301,222.74699v-85.49398h85.49398v85.49398z" fill="none" stroke="none" stroke-width="0"/><path d="M208.63952,205.58014c0.00324,-13.1024 0,-44.63208 0,-51.75c0,-3.5626 2.97813,-5.21784 6.54073,-5.21784c12.68063,0 43.89984,0 51,0c2.96729,0 5.18024,2.50056 5.18024,5.46784c0,6.43742 0,39.20833 0,51.75c0,2.95974 -2.72049,5.55758 -5.68024,5.55758c-6.61442,0 -39.17756,0 -52,0c-3.13138,0 -5.04177,-1.58613 -5.04073,-5.80758z" fill="url(#color-1)" stroke="#a97a4a" stroke-width="2"/><path d="M207.25301,212.74699v-65.49398h65.49398v65.49398z" fill="none" stroke="none" stroke-width="0"/><g stroke="none" stroke-width="0"><g fill="#dc570f"><path d="M219.93719,173.8628v-5.72561h40.12562v5.72561z"/><path d="M219.93719,191.8628v-5.72561h40.12562v5.72561z"/></g><g fill="#752e08"><path d="M248.76515,173.83333v-1.66667h11.43182v1.66667z"/><path d="M219.76515,173.83334v-1.66667h11.43182v1.66667z"/></g><g fill="#752e08"><path d="M248.76515,192.19697v-1.66667h11.43182v1.66667z"/><path d="M219.76516,192.19697v-1.66667h11.43182v1.66667z"/></g><g fill="#752e08"><path d="M248.76515,192.19697v-1.66667h11.43182v1.66667z"/><path d="M219.76516,192.19697v-1.66667h11.43182v1.66667z"/></g><g fill="#752e08"><g><path d="M248.51515,173.83333v-1.66667h11.43182v1.66667z"/><path d="M219.81515,173.83334v-1.66667h11.13182v1.66667z"/></g><g><path d="M248.51515,192.19697v-1.66667h11.43182v1.66667z"/><path d="M219.81516,192.19697v-1.66667h11.13182v1.66667z"/></g></g><path d="M219.81515,169.73334v-1.66667h11.53182v1.66667z" fill="#efcfaf"/><path d="M219.81516,187.79697v-1.66667h11.53182v1.66667z" fill="#efcfaf"/><g fill="#efcfaf"><path d="M248.51515,169.73333v-1.66667h8.03182v1.66667z"/><path d="M248.51515,187.79697v-1.66667h8.03182v1.66667z"/></g><g><path d="M231.13719,200.06281v-40.12561h17.72562v40.12561z" fill="#dc570f"/><path d="M231.1,200.2v-40.4h12c0,0 0.88543,7.83974 -0.8,7.6c-2.12272,-0.30194 -2.0697,-3.0538 -2.15092,3.19804c-0.02959,2.27773 0.00905,16.22769 0.55268,18.29638c0.34433,1.31028 0.89125,-8.61322 1.75176,-8.66688c1.1504,-0.07174 0.64648,19.97246 0.64648,19.97246z" fill="#efcfaf"/><path d="M239.3,187c0.33137,0 0.6,2.68629 0.6,6c0,3.31371 -0.26863,6 -0.6,6c-0.33137,0 -0.6,-2.68629 -0.6,-6c0,-3.31371 0.26863,-6 0.6,-6z" fill="#dc570f"/><path d="M234.7,179.6c0,10.2725 -0.44772,18.6 -1,18.6c-0.55228,0 -1,-8.3275 -1,-18.6c0,-10.2725 0.44772,-18.6 1,-18.6c0.55228,0 1,8.3275 1,18.6z" fill="#dc570f"/><path d="M246.3,199.8v-40h2.58182v40z" fill="#752e08"/></g></g></g></g></svg>