<svg version="1.1" xmlns="http://www.w3.org/2000/svg" xmlns:xlink="http://www.w3.org/1999/xlink" width="85.49398" height="85.49398" viewBox="0,0,85.49398,85.49398"><defs><linearGradient x1="-3285.69704" y1="-2895.28055" x2="-3285.69704" y2="4105.40967" gradientUnits="userSpaceOnUse" id="color-1"><stop offset="0" stop-color="#ffffff"/><stop offset="1" stop-color="#ffffff" stop-opacity="0"/></linearGradient></defs><g transform="translate(-197.25302,-137.25301)"><g data-paper-data="{&quot;isPaintingLayer&quot;:true}" fill-rule="nonzero" stroke-linejoin="miter" stroke-miterlimit="10" stroke-dasharray="" stroke-dashoffset="0" style="mix-blend-mode: normal"><path d="M208.63952,205.58013c0.00324,-13.1024 0,-44.63208 0,-51.75c0,-3.5626 2.97813,-5.21784 6.54073,-5.21784c12.68063,0 43.89984,0 51,0c2.96729,0 5.18024,2.50056 5.18024,5.46784c0,6.43742 0,39.20833 0,51.75c0,2.95974 -2.72049,5.55758 -5.68024,5.55758c-6.61442,0 -39.17756,0 -52,0c-3.13138,0 -5.04177,-1.58613 -5.04073,-5.80758z" fill="url(#color-1)" stroke="#a97a4a" stroke-width="2" stroke-linecap="butt"/><path d="M197.25302,222.74699v-85.49398h85.49398v85.49398z" fill="none" stroke="none" stroke-width="0" stroke-linecap="butt"/><path d="M207.25301,212.74699v-65.49398h65.49398v65.49398z" fill="none" stroke="none" stroke-width="0" stroke-linecap="butt"/><g data-paper-data="{&quot;index&quot;:null}"><path d="M234.66697,199.25407c-1.52424,-1.55791 -2.74753,-3.8411 -2.57638,-4.25046c0.42973,-1.02783 2.70869,0.20999 3.62415,-0.01387c0.91545,-0.22386 1.21094,-1.58956 1.69045,-1.97778c0.37999,-0.30764 6.10334,2.56683 5.93696,4.35617c-0.17741,1.90786 -3.96919,3.81161 -4.4124,3.90465c-0.7223,0.15163 -2.71301,-0.4347 -4.26279,-2.01871z" data-paper-data="{&quot;index&quot;:null}" fill="#dc570f" stroke="none" stroke-width="0" stroke-linecap="butt"/><path d="M236.25941,191.61893c-1.96619,-3.53119 -1.97938,-10.35831 -1.13774,-14.03605c0.77937,-3.40558 1.45833,-6.27828 3.86347,-7.15535c5.0025,-1.82423 12.43397,-0.54773 16.14063,8.90401c3.49567,8.71448 -0.2057,14.56064 -0.2057,14.56064c0,0 -3.29585,1.27911 -4.6972,1.79012c-1.0678,3.19282 -8.91187,5.00906 -13.96346,-4.06338z" data-paper-data="{&quot;index&quot;:null}" fill="#148382" stroke="none" stroke-width="0" stroke-linecap="butt"/><path d="M235.46464,175.58558c-5.07591,0 -8.6212,-3.02882 -8.6212,-7.64328c0,-2.10669 -1.53924,-3.04058 -0.25306,-4.67153c1.53105,-1.94145 6.11572,-4.39562 8.87426,-4.39562c5.07591,0 9.19074,3.74076 9.19074,8.35522c0,1.09342 1.19284,3.84643 0.77272,4.80359c-1.35286,3.08226 -6.09031,3.55163 -9.96345,3.55163z" data-paper-data="{&quot;index&quot;:null}" fill="#148382" stroke="none" stroke-width="0" stroke-linecap="butt"/><path d="M229.37801,165.92871c2.93288,-0.56955 2.56296,3.70206 2.56296,3.70206c0,0 -0.34201,0.85432 -1.99341,0.85432c-1.6514,0 -2.99013,-1.01998 -2.99013,-2.27819c0,-1.25821 0.79946,-1.96338 2.42058,-2.27819z" data-paper-data="{&quot;index&quot;:null}" fill="#ffffff" stroke="none" stroke-width="0" stroke-linecap="butt"/><path d="M227.95414,167.21019c0.47182,0 0.85432,0.63748 0.85432,1.42386c0,0.78638 -0.38249,1.42386 -0.85432,1.42386c-0.47183,0 -0.85432,-0.63748 -0.85432,-1.42386c0,-0.78638 0.38249,-1.42386 0.85432,-1.42386z" data-paper-data="{&quot;index&quot;:null}" fill="#148382" stroke="none" stroke-width="0" stroke-linecap="butt"/><path d="M223.70942,174.77052c-0.79541,-3.18289 -0.2864,-6.50422 2.63528,-6.57572c0.70225,-0.01719 1.60944,1.6717 1.60944,1.6717c0,0 9.68516,-2.50508 9.96993,3.19538c0.05645,1.12993 -0.63496,2.22555 -2.01619,2.79113c-1.58005,0.64698 -3.97492,0.68822 -5.67556,0.80377c-4.19133,0.28477 -3.18787,-2.92638 -6.52291,-1.88626z" data-paper-data="{&quot;index&quot;:null}" fill="#dc570f" stroke="none" stroke-width="0" stroke-linecap="butt"/><path d="M226.25146,163.15845c0,0 2.86771,-8.57559 11.71442,-6.29433c8.66475,2.23434 7.20987,11.17426 7.20987,11.17426z" data-paper-data="{&quot;index&quot;:null}" fill="#148382" stroke="none" stroke-width="0" stroke-linecap="butt"/><path d="M224.92517,164.53225l0.59662,-2.75439c0,0 5.73312,0.93666 8.79138,1.72274c3.71461,0.95479 11.91248,3.59889 11.91248,3.59889l-0.59662,2.75439c0,0 -8.27288,-2.62678 -11.98016,-3.57968c-3.07515,-0.79042 -8.7237,-1.74195 -8.7237,-1.74195z" data-paper-data="{&quot;index&quot;:null}" fill="#ffffff" stroke="none" stroke-width="0" stroke-linecap="butt"/><path d="M235.78542,172.33612l-0.14239,-5.4107h1.99342v5.4107z" data-paper-data="{&quot;index&quot;:null}" fill="#ffffff" stroke="none" stroke-width="0" stroke-linecap="butt"/><path d="M236.87517,172.5779l-0.5054,-1.95748l7.01151,-2.51291l1.78688,1.38792z" data-paper-data="{&quot;index&quot;:null}" fill="#ffffff" stroke="none" stroke-width="0" stroke-linecap="butt"/><path d="M232.83628,176.38664c0,0 1.92843,-1.58761 2.46173,-2.47086c0.44914,-0.74386 0.52917,-2.48268 0.52917,-2.48268l1.83948,0.76813c0,0 -0.17104,1.8406 -0.67504,2.67533c-0.4927,0.81602 -2.31586,2.27822 -2.31586,2.27822z" data-paper-data="{&quot;index&quot;:null}" fill="#ffffff" stroke="none" stroke-width="0" stroke-linecap="butt"/><path d="M240.5949,161.3507c-0.86416,-1.01999 -1.1999,-2.15593 -0.74991,-2.53717c0.45,-0.38126 1.51533,0.13656 2.3795,1.15654c0.86417,1.01999 1.1999,2.15593 0.74991,2.53717c-0.44999,0.38126 -1.51532,-0.13656 -2.37949,-1.15654z" data-paper-data="{&quot;index&quot;:null}" fill="#ffffff" stroke="none" stroke-width="0" stroke-linecap="butt"/><path d="M253.59445,177.73835c0.52369,1.69008 0.81482,3.1545 0.43925,3.27088c-0.37558,0.11638 -1.6178,-1.15936 -2.14148,-2.84944c-0.52369,-1.69008 -0.64375,-3.1545 -0.26818,-3.27088c0.37557,-0.11638 1.44672,1.15936 1.97041,2.84944z" data-paper-data="{&quot;index&quot;:null}" fill="#ffffff" stroke="none" stroke-width="0" stroke-linecap="butt"/><path d="M244.84647,191.42168l10.80416,-10.80416l0.30561,1.58512l-10.1644,10.1644z" data-paper-data="{&quot;index&quot;:null}" fill="#dc570f" stroke="none" stroke-width="0" stroke-linecap="butt"/><path d="M252.45182,185.43628l-7.17885,-7.17885l0.94537,-0.94536l7.17884,7.17885z" data-paper-data="{&quot;index&quot;:null}" fill="#dc570f" stroke="none" stroke-width="0" stroke-linecap="butt"/><path d="M243.03382,176.38728l5.36619,-5.36619l1.05198,0.83874l-5.47281,5.47281z" data-paper-data="{&quot;index&quot;:null}" fill="#dc570f" stroke="none" stroke-width="0" stroke-linecap="butt"/><path d="M243.9046,195.9053c0.79544,-0.4374 1.77287,-1.04067 3.55225,-1.31014c2.4878,-0.37675 5.47697,-0.27967 5.84005,-0.10854c0.76295,0.35959 1.68983,2.23134 1.7541,4.17868c0.07791,2.36084 -1.98355,4.8328 -2.56656,4.8562c-0.67411,0.02706 -1.5193,-1.48204 -3.70093,-3.16557c-2.57312,-1.98563 -5.30938,-4.21392 -4.87892,-4.45063z" data-paper-data="{&quot;index&quot;:null}" fill="#dc570f" stroke="none" stroke-width="0" stroke-linecap="butt"/><path d="M254.44884,194.12548l-5.90095,-5.90095l0.94536,-0.94537l5.6877,5.68771z" data-paper-data="{&quot;index&quot;:null}" fill="#dc570f" stroke="none" stroke-width="0" stroke-linecap="butt"/><path d="M255.13522,193.68281c0,0 -9.81036,1.42446 -10.95015,-3.56901c-0.97478,-4.27061 3.06762,-4.44367 2.51627,-9.4752c-0.68817,-6.28012 -4.98026,-2.2048 -4.56214,-5.18844c0.55994,-3.99564 2.60177,-5.54595 2.60177,-5.54595" data-paper-data="{&quot;index&quot;:null}" fill="none" stroke="#ffffff" stroke-width="2.5" stroke-linecap="round"/><path d="M236.89033,181.53344c2.98751,-3.76073 7.21793,-7.04347 9.22092,-3.66183c1.53419,2.59019 -0.78072,6.0952 -5.13565,8.8045c-4.35493,2.70931 -10.0045,2.02013 -10.63495,1.00675c-0.41716,-0.67053 3.3594,-2.13347 6.54967,-6.14942z" data-paper-data="{&quot;index&quot;:null}" fill="#dc570f" stroke="none" stroke-width="0" stroke-linecap="butt"/></g></g></g></svg>