<svg version="1.1" xmlns="http://www.w3.org/2000/svg" xmlns:xlink="http://www.w3.org/1999/xlink" width="109.33333" height="109.33333" viewBox="0,0,109.33333,109.33333"><g transform="translate(-185.33335,-125.33335)"><g data-paper-data="{&quot;isPaintingLayer&quot;:true}" fill-rule="nonzero" stroke="none" stroke-width="0" stroke-linecap="butt" stroke-linejoin="miter" stroke-miterlimit="10" stroke-dasharray="" stroke-dashoffset="0" style="mix-blend-mode: normal"><path d="M185.33335,234.66668v-109.33333h109.33333v109.33333z" fill="none"/><g><g data-paper-data="{&quot;index&quot;:null}"><path d="M225.56625,181.01176c1.27358,-1.94159 2.32468,-1.56491 4.89035,-0.66755c1.16126,0.40615 2.75928,1.42533 3.34519,2.25771c0.61951,0.88012 0.97898,2.09303 0.62841,3.09536c-0.24476,0.69981 -2.23975,0.13962 -3.00759,0.48692c-1.37204,0.6206 -1.90435,1.7584 -4.31902,0.91385c-3.80164,-1.32963 -2.67056,-4.35867 -1.53733,-6.08631z" data-paper-data="{&quot;index&quot;:null}" fill="#f29e4a"/><path d="M235.0333,183.6749l-8.73905,-3.84918c0,0 3.46072,-4.60941 6.74945,-5.82584c4.90638,-1.81478 10.31567,-1.39755 10.31567,-1.39755l-3.18413,8.09005c0,0 -2.60378,0.08818 -3.52738,0.45363c-0.9921,0.39256 -1.61456,2.52889 -1.61456,2.52889z" data-paper-data="{&quot;index&quot;:null}" fill="#908816"/></g><path d="M248.64605,198.33095c-3.07705,0.9798 -5.25834,-2.5283 -5.25834,-2.5283c0,0 5.1085,-2.26827 8.18555,-3.24805c0.24973,-0.07951 4.45204,-1.32935 5.14294,1.91079c0.44706,2.09658 -8.07015,3.86556 -8.07015,3.86556z" data-paper-data="{&quot;index&quot;:null}" fill="#908816"/><path d="M228.07123,197.99462c-0.20812,-1.25301 1.20636,-2.29274 1.20636,-2.29274c0,0 3.44635,-0.49434 6.61225,-0.31797c2.96536,0.1652 5.68469,0.91882 5.09551,3.21825c-1.09641,3.05105 -12.53786,1.65781 -12.91412,-0.60754z" data-paper-data="{&quot;index&quot;:null}" fill="#908816"/><path d="M240.63188,171.34137c4.89882,0 8.76071,2.28626 9.53953,7.02913c1.33888,8.15359 -4.64276,8.22663 -9.53953,8.36801c-11.59322,0.33472 -10.15986,-4.07263 -8.87009,-8.70273c1.33888,-4.80639 3.97128,-6.69441 8.87009,-6.69441z" data-paper-data="{&quot;index&quot;:null}" fill="#908816"/><path d="M238.66702,180.44777c2.48835,-3.22563 3.46514,-8.07105 3.46514,-8.07105l1.88441,-0.49368c0,0 -1.28975,10.07218 0.80232,7.16637c0.81731,-1.1352 0.40688,-6.90907 0.40688,-6.90907l2.47059,1.454l1.53714,7.78864c0,0 0.63303,2.70173 0.92149,4.20727c0.61515,3.21058 2.39351,6.73469 2.39351,6.73469l-9.29234,4.01231c0,0 -0.74355,-6.32246 -2.12422,-5.00744c-1.59373,1.51799 -1.94069,4.57874 -1.94069,4.57874c0,0 -4.67841,0.32992 -5.93163,0.37389c-1.96697,0.06901 -5.72313,1.32803 -5.72313,1.32803c0,0 2.50059,-5.12819 3.60658,-7.4506c1.05621,-2.21784 -0.20819,-6.22732 -0.20819,-6.22732c0,0 6.40866,-1.76917 7.73214,-3.48478z" data-paper-data="{&quot;index&quot;:null}" fill="#f32f00"/><path d="M241.23628,182.14594c0,-0.7748 0.6281,-1.4029 1.4029,-1.4029c0.7748,0 1.4029,0.6281 1.4029,1.4029c0,0.7748 -0.6281,1.4029 -1.4029,1.4029c-0.7748,0 -1.4029,-0.6281 -1.4029,-1.4029z" data-paper-data="{&quot;index&quot;:null}" fill="#f29e4a"/><path d="M246.55801,182.14594c0,-0.7748 0.6281,-1.4029 1.4029,-1.4029c0.7748,0 1.4029,0.6281 1.4029,1.4029c0,0.7748 -0.6281,1.4029 -1.4029,1.4029c-0.7748,0 -1.4029,-0.6281 -1.4029,-1.4029z" data-paper-data="{&quot;index&quot;:null}" fill="#f29e4a"/><path d="M232.92708,163.90823c0,-4.85542 4.03781,-7.70348 10.90394,-7.4757c6.61047,0.2193 4.69022,2.12894 7.4405,4.34811c1.12532,0.908 3.24892,1.12351 4.66539,2.17303c1.41646,1.04952 2.3069,2.47596 2.3069,3.8055c0,0.93882 -1.66469,1.29868 -2.77421,1.49497c-1.96301,0.34728 -2.06196,2.37903 -3.87036,3.21789c-2.94335,1.36533 -4.95615,1.22771 -8.20683,1.22771c-4.92997,0 -7.87426,0.16604 -9.88711,-2.77308c-0.79206,-1.15655 -0.57823,-4.64736 -0.57823,-6.01844z" data-paper-data="{&quot;index&quot;:null}" fill="#f29e4a"/><path d="M244.16214,169.94563c-0.04146,-0.38096 0.95442,-0.44165 1.6617,-1.22063c0.64158,-0.70661 0.93681,-2.14784 2.04264,-2.26817c1.04463,-0.11367 2.02627,1.58691 3.39548,1.94923c1.67807,0.44405 3.66583,-0.38768 3.70937,0.01241c0.00949,0.08717 0.27304,1.77687 -0.16109,2.13249c-0.48808,0.39981 -1.68085,-0.53535 -1.68085,-0.53535c0,0 -0.71961,1.23475 -1.3328,1.52534c-1.2689,0.60133 -1.83782,-0.36864 -1.83782,-0.36864c0,0 -1.57212,0.89747 -2.06715,0.75744c-0.88916,-0.25151 -1.40015,-1.38467 -1.40015,-1.38467c0,0 -2.29256,-0.2615 -2.32934,-0.59946z" data-paper-data="{&quot;index&quot;:null}" fill="#908816"/><path d="M234.7139,157.84738c3.04434,-1.44057 7.05335,-2.37897 8.30893,-0.64016c0.68823,0.95312 -3.58922,5.24878 -3.04566,6.12274c0.52579,0.84537 1.39509,1.76705 1.0406,2.90197c-0.14822,0.47454 -0.65942,1.68985 -1.24746,1.78241c-0.61778,0.09724 -1.32036,-0.931 -1.77594,-0.50963c-1.10172,1.01899 -1.34566,3.28156 -2.40326,3.28156c-1.87981,0 -4.8447,0.24523 -5.66583,-1.33633c-1.57795,-3.03924 0.41035,-5.33428 0.62186,-6.33928c0.65791,-3.12613 1.12242,-3.82271 4.16676,-5.26328z" data-paper-data="{&quot;index&quot;:null}" fill="#908816"/><path d="M235.95364,166.07133c0,-1.63509 1.15284,-2.61749 1.94011,-2.61749c0.78727,0 1.42547,0.9824 1.42547,2.61749c0,1.63509 -0.6382,2.96059 -1.42547,2.96059c-0.78727,0 -1.94011,-1.3255 -1.94011,-2.96059z" data-paper-data="{&quot;index&quot;:null}" fill="#f29e4a"/><path d="M247.43346,160.04044c0.84782,0 1.53512,1.03094 1.53512,2.30268c0,1.27173 -0.6873,2.30268 -1.53512,2.30268c-0.84782,0 -1.53512,-1.03094 -1.53512,-2.30268c0,-1.27173 0.6873,-2.30268 1.53512,-2.30268z" data-paper-data="{&quot;index&quot;:null}" fill="#908816"/><path d="M231.64362,158.06676c0.3843,-0.75573 1.80687,-5.75107 10.85551,-5.26328c5.41768,0.29205 7.1849,3.7924 7.55483,3.7625c2.90251,-0.23459 6.15162,1.01267 6.15162,1.50077c0,0.84782 -5.74385,1.53512 -12.82924,1.53512c-7.08539,0 -12.60993,0.18992 -11.73272,-1.53512z" data-paper-data="{&quot;index&quot;:null}" fill="#f32f00"/><g><path d="M250.3208,177.58401c0,0 -0.37789,4.45562 0.27193,6.10334c0.49399,1.25262 2.04379,3.41789 2.04379,3.41789c0,0 -7.02168,-1.31164 -10.09146,-3.00631c-4.57973,-2.52823 -7.82623,-4.15817 -7.82623,-4.15817l4.9826,-6.02833c0,0 3.4353,1.91543 5.27414,2.55119c1.68804,0.58363 5.34525,1.12039 5.34525,1.12039z" data-paper-data="{&quot;index&quot;:null}" fill="#908816"/><path d="M249.86485,183.67279c-0.45134,-1.14445 -0.72404,-3.0201 -0.47678,-4.00752c0.26144,-1.04405 0.94469,-2.10871 1.93254,-2.4983c0.68969,-0.27199 1.56921,1.60425 2.33384,1.95855c1.36631,0.6331 2.57544,0.29257 3.51395,2.67231c1.47759,3.74661 -1.55444,4.86967 -3.60271,5.14071c-2.30195,0.30461 -2.70362,-0.73719 -3.70083,-3.26574z" data-paper-data="{&quot;index&quot;:null}" fill="#f29e4a"/></g></g></g></g></svg>