<svg version="1.1" xmlns="http://www.w3.org/2000/svg" xmlns:xlink="http://www.w3.org/1999/xlink" width="85.49398" height="85.49398" viewBox="0,0,85.49398,85.49398"><defs><linearGradient x1="-3285.69704" y1="-2895.28054" x2="-3285.69704" y2="4105.40968" gradientUnits="userSpaceOnUse" id="color-1"><stop offset="0" stop-color="#ffffff"/><stop offset="1" stop-color="#ffffff" stop-opacity="0"/></linearGradient></defs><g transform="translate(-197.25301,-137.25301)"><g data-paper-data="{&quot;isPaintingLayer&quot;:true}" fill-rule="nonzero" stroke-linecap="butt" stroke-linejoin="miter" stroke-miterlimit="10" stroke-dasharray="" stroke-dashoffset="0" style="mix-blend-mode: normal"><path d="M197.25301,222.74699v-85.49398h85.49398v85.49398z" fill="none" stroke="none" stroke-width="0"/><path d="M208.63952,205.58014c0.00324,-13.1024 0,-44.63208 0,-51.75c0,-3.5626 2.97813,-5.21784 6.54073,-5.21784c12.68063,0 43.89984,0 51,0c2.96729,0 5.18024,2.50056 5.18024,5.46784c0,6.43742 0,39.20833 0,51.75c0,2.95974 -2.72049,5.55758 -5.68024,5.55758c-6.61442,0 -39.17756,0 -52,0c-3.13138,0 -5.04177,-1.58613 -5.04073,-5.80758z" fill="url(#color-1)" stroke="#a97a4a" stroke-width="2"/><g stroke="none"><path d="M219.87737,200.0783v-40.12561h40.12562v40.12561z" fill="#20ad00" stroke-width="0"/><path d="M240.64779,160.00545c9.80548,0 16.69796,-0.41619 16.69796,0.72778c0,0.28942 1.69086,2.55457 1.63799,3.53064c-0.03182,0.58737 -1.33296,0.07004 -2.21605,0.17243c-1.77412,0.20569 -0.84436,-0.77136 -3.813,-1.18618c-2.80396,-0.39181 -9.47414,-0.21732 -12.3069,-0.21732c-3.04695,0 -12.98999,-1.62083 -15.14429,3.31544c-3.5526,8.14029 -1.49717,23.57806 -2.26876,30.53849c-0.18434,1.66295 3.82261,2.75023 3.08636,3.11613c-0.32713,0.16258 -5.33605,0.00439 -5.65842,-0.00392c-0.89944,-0.02317 -0.83666,-5.31843 -0.66473,-11.70666c0.1827,-6.78835 -1.08575,-22.58722 1.45087,-26.66783c1.72687,-2.06007 15.4583,-1.61898 19.19897,-1.61898z" fill="#87ff94" stroke-width="0"/><path d="M220.94316,191.63376c0,-4.5173 3.66199,-8.17929 8.17928,-8.17929c4.51729,0 8.17928,3.662 8.17928,8.17929c0,0.73633 -1.24917,1.1258 -1.24917,1.1258c0,0 0.28636,-1.33922 -0.10284,-2.59436c-0.23459,-0.75653 -0.76512,-1.40159 -1.32061,-2.12981c-1.36568,-1.79031 -3.75781,-2.84089 -5.50666,-2.3502c-6.22662,1.74708 -6.24338,7.99966 -5.07958,11.48346c0.53584,1.60402 2.49383,1.15623 2.1185,2.02738c-0.57388,1.33196 -4.84119,0.61067 -4.84119,0.61067c0,0 -0.37702,-5.63056 -0.37702,-8.17294z" fill="#87ff94" stroke-width="0"/><path d="M241.36672,166.32393c0.13145,-0.27267 2.02296,-0.8051 3.76144,0.25142c0.64954,0.39475 1.85133,1.96732 2.10269,2.47599c0.77198,1.56225 1.65887,4.52598 2.41917,5.84546c0.53278,0.92462 1.0034,0.74261 1.32877,1.1127c1.006,1.14427 4.89934,0.51199 6.30521,0.28336c0.58853,-0.56742 1.38894,-0.78756 2.10193,-1.48548l0.20747,-0.41495c0.04008,-0.08456 0.12623,-0.14305 0.22603,-0.14305c0.12923,0 0.23555,0.09805 0.24865,0.22381l0.05831,0.4934l-0.07657,0.00905c0.50905,2.9 -1.68241,5.70294 -2.22676,8.4366c-0.87826,0.85018 -1.22572,2.4361 -1.76507,3.55813c-0.58995,1.2273 -1.94914,3.22548 -2.85247,4.12358c-1.88625,2.84513 -5.00285,4.64219 -7.9562,5.90743c-1.01182,0.41824 -3.86808,0.65213 -5.98336,0.19222c-1.65161,-0.35909 -2.76476,-1.40141 -2.76476,-1.40141l1.36898,-1.63519c0,0 3.12702,1.60379 5.96819,0.81999c3.56632,-0.98385 7.06598,-4.57836 7.71953,-6.7665c1.04054,-3.48379 -2.08444,-10.7737 -5.33465,-15.93824c-2.22139,-3.52976 -4.85654,-5.94832 -4.85654,-5.94832z" fill="#000000" stroke-width="0.5"/><path d="M226.89172,175.64697c0,-1.01263 -0.71758,-2.70874 -0.45611,-3.71782c0.36558,-1.41087 1.79631,-2.11528 2.2926,-3.34501c0.85091,-2.10843 1.56743,-3.80135 3.69671,-4.56689c1.14371,-0.4112 4.15229,0.47616 5.43448,0.47616c6.05728,0 8.08006,2.02582 7.99338,2.6025c-0.1204,0.80096 -2.17467,0.61726 -3.01027,0.44365c-1.74477,-0.3625 -4.06942,-1.42763 -8.37441,1.37016c-4.83861,3.14459 -5.2315,6.78719 -4.60087,9.93373c0.85237,4.25296 3.94213,7.59964 3.90254,7.58532c-1.70676,-0.61747 -2.51639,-1.96776 -4.63846,-2.23646c-2.02803,-0.25679 -2.23958,-5.79555 -2.23958,-8.54532z" fill="#87ff94" stroke-width="0"/><path d="M237.22633,188.59496c1.53786,2.18228 1.77328,4.54675 1.10134,7.24566c-0.92522,3.66892 -4.01546,4.43652 -7.57436,4.43652c-2.21694,-0.00582 -4.62958,-0.16451 -4.62958,-0.16451c0,0 -1.20375,-1.06093 -1.58636,-1.7075c-0.38659,-0.65329 -0.72135,-2.1923 -0.72135,-2.1923c0,0 1.50548,1.53205 3.72356,1.92578c0.4119,0.07312 1.86457,0.22244 2.20633,0.14495c0.61811,-0.14015 0.07988,-0.60932 0.74541,-0.68523c1.0428,-0.11894 2.35612,0.26808 3.15154,-0.40806c0.53032,-0.45079 0.01108,-1.82806 0.82166,-2.0786c0.53161,-0.16431 1.16963,-1.30387 1.3539,-2.01765c0.76213,-2.95211 -0.55282,-4.1988 -0.17449,-4.71605c0.56181,-0.78657 1.58241,0.21698 1.58241,0.21698z" fill="#000000" stroke-width="0.5"/><path d="M260.02058,187.17336c0,5 -0.11697,12.80834 -0.11697,12.80834l-18.86014,0.16524c0,0 -0.8137,-0.35838 -1.15216,-0.80129c-0.46444,-0.60774 -0.38721,-1.37463 0.69496,-1.59302c0.95312,-0.19235 0.53939,0.82541 1.41905,1.26678c0.9189,0.46105 3.13971,0.34787 4.55909,0.19194c3.76057,-0.41313 8.98725,-3.34059 10.06037,-4.51033c2.62697,-2.86351 3.3958,-7.52766 3.3958,-7.52766z" fill="#000000" stroke-width="0.5"/><path d="M254.4013,160.05856l5.65557,-0.00192c0,0 0.42416,6.28462 -0.03135,7.50115l-0.59067,-0.49278c0,0 -0.7861,-3.70391 -1.70889,-4.98838c-0.67932,-0.94557 -3.32467,-2.01807 -3.32467,-2.01807z" fill="#000000" stroke-width="0.5"/><g stroke-width="0"><path d="M248.79856,170.91704c0,-4.14214 3.35786,-7.5 7.5,-7.5c1.86714,0 2.67494,0.6823 3.98764,1.81116c0.00212,0.21553 -0.16314,11.8577 -0.13509,11.90768c-1.30798,1.11094 -2.002,1.28116 -3.85255,1.28116c-4.14214,0 -7.5,-3.35786 -7.5,-7.5z" fill="#20ad00"/><path d="M248.79856,170.75038c0,-4.05009 3.28325,-7.33333 7.33333,-7.33333c1.9348,0 2.5946,0.54929 3.90505,1.77352c-0.13441,0.45699 0.16295,1.12756 0.09462,1.60918c-1.61202,-1.84018 -3.32654,-3.05903 -6.71187,-0.44171c-4.2193,3.26209 -3.69823,6.84297 -1.72088,9.14471c1.69268,1.97037 4.05304,2.24764 3.09975,2.24764c-4.05009,0 -6,-2.94991 -6,-7z" fill="#87ff94"/></g><g stroke-width="0"><path d="M219.97666,164.30595c0,0 3.97464,1.80465 3.95523,6.6111c-0.02103,5.20648 -4.10393,6.68885 -4.10393,6.68885z" fill="#20ad00"/><path d="M219.94012,164.40288c0,0 1.87822,1.06937 2.95538,2.83636c0.61741,1.01281 0.90306,2.72341 0.90306,3.71114c0,0.62187 -0.6296,-0.70772 -1.63545,-2.15502c-0.96048,-1.38202 -2.2993,-2.87138 -2.2993,-2.87138z" fill="#87ff94"/></g><path d="M237.27778,169.36149c0,-0.55229 0.44771,-1 1,-1c0.55229,0 1,0.44771 1,1c0,0.55229 -0.44771,1 -1,1c-0.55229,0 -1,-0.44771 -1,-1z" fill="#0d9500" stroke-width="0"/><path d="M235.27778,171.02816c0,-0.24546 0.19898,-0.44445 0.44444,-0.44445c0.24546,0 0.44445,0.19898 0.44445,0.44445c0,0.24546 -0.19898,0.44445 -0.44445,0.44445c-0.24546,0 -0.44444,-0.19898 -0.44444,-0.44445z" fill="#0d9500" stroke-width="0"/><path d="M231.72222,172.69483c0,-0.42955 0.34823,-0.77778 0.77778,-0.77778c0.42955,0 0.77778,0.34823 0.77778,0.77778c0,0.42955 -0.34823,0.77777 -0.77778,0.77777c-0.42955,0 -0.77778,-0.34822 -0.77778,-0.77777z" fill="#0d9500" stroke-width="0"/><path d="M255.94445,169.4726c0,-0.85911 0.69645,-1.55555 1.55555,-1.55555c0.85911,0 1.55556,0.69645 1.55556,1.55555c0,0.85911 -0.69645,1.55555 -1.55556,1.55555c-0.85911,0 -1.55555,-0.69645 -1.55555,-1.55555z" fill="#0d9500" stroke-width="0"/><path d="M257.5,173.25038c0,-0.36819 0.29847,-0.66667 0.66667,-0.66667c0.36819,0 0.66667,0.29848 0.66667,0.66667c0,0.36819 -0.29848,0.66666 -0.66667,0.66666c-0.36819,0 -0.66667,-0.29847 -0.66667,-0.66666z" fill="#0d9500" stroke-width="0"/><path d="M250.83334,172.58371c0,-0.49092 0.39796,-0.88888 0.88888,-0.88888c0.49092,0 0.88889,0.39796 0.88889,0.88888c0,0.49092 -0.39797,0.88889 -0.88889,0.88889c-0.49092,0 -0.88888,-0.39797 -0.88888,-0.88889z" fill="#0d9500" stroke-width="0"/><path d="M245.5,179.02816c0,-0.49092 0.39797,-0.88889 0.88889,-0.88889c0.49092,0 0.88889,0.39797 0.88889,0.88889c0,0.49092 -0.39797,0.88889 -0.88889,0.88889c-0.49092,0 -0.88889,-0.39797 -0.88889,-0.88889z" fill="#0d9500" stroke-width="0"/><path d="M242.38889,171.36149c0,-0.30683 0.24873,-0.55555 0.55555,-0.55555c0.30683,0 0.55555,0.24873 0.55555,0.55555c0,0.30683 -0.24873,0.55555 -0.55555,0.55555c-0.30683,0 -0.55555,-0.24873 -0.55555,-0.55555z" fill="#0d9500" stroke-width="0"/><path d="M225.27778,180.13927c0,-0.36819 0.29847,-0.66666 0.66666,-0.66666c0.36819,0 0.66666,0.29847 0.66666,0.66666c0,0.36819 -0.29847,0.66667 -0.66666,0.66667c-0.36819,0 -0.66666,-0.29848 -0.66666,-0.66667z" fill="#0d9500" stroke-width="0"/><path d="M224.38889,183.13927c0,-0.30683 0.24873,-0.55555 0.55555,-0.55555c0.30683,0 0.55555,0.24873 0.55555,0.55555c0,0.30683 -0.24873,0.55556 -0.55555,0.55556c-0.30683,0 -0.55555,-0.24874 -0.55555,-0.55556z" fill="#0d9500" stroke-width="0"/><path d="M229.5,188.4726c0,-0.55229 0.44771,-1 1,-1c0.55229,0 1,0.44771 1,1c0,0.55229 -0.44771,1 -1,1c-0.55229,0 -1,-0.44771 -1,-1z" fill="#0d9500" stroke-width="0"/><path d="M226.61111,190.25038c0,-0.30683 0.24873,-0.55555 0.55555,-0.55555c0.30683,0 0.55555,0.24873 0.55555,0.55555c0,0.30683 -0.24873,0.55555 -0.55555,0.55555c-0.30683,0 -0.55555,-0.24873 -0.55555,-0.55555z" fill="#0d9500" stroke-width="0"/><path d="M246.83334,189.91705c0,-0.49092 0.39796,-0.88889 0.88888,-0.88889c0.49092,0 0.88889,0.39797 0.88889,0.88889c0,0.49092 -0.39797,0.88889 -0.88889,0.88889c-0.49092,0 -0.88888,-0.39797 -0.88888,-0.88889z" fill="#0d9500" stroke-width="0"/><path d="M243.05556,192.4726c0,-0.30683 0.24873,-0.55555 0.55555,-0.55555c0.30683,0 0.55555,0.24873 0.55555,0.55555c0,0.30683 -0.24873,0.55555 -0.55555,0.55555c-0.30683,0 -0.55555,-0.24873 -0.55555,-0.55555z" fill="#0d9500" stroke-width="0"/><path d="M238.38889,198.13927c0,-0.36819 0.29847,-0.66666 0.66666,-0.66666c0.36819,0 0.66666,0.29847 0.66666,0.66666c0,0.36819 -0.29847,0.66667 -0.66666,0.66667c-0.36819,0 -0.66666,-0.29848 -0.66666,-0.66667z" fill="#0d9500" stroke-width="0"/><path d="M254.16667,194.58371c0,-0.49092 0.39797,-0.88888 0.88889,-0.88888c0.49092,0 0.88889,0.39796 0.88889,0.88888c0,0.49092 -0.39797,0.88889 -0.88889,0.88889c-0.49092,0 -0.88889,-0.39797 -0.88889,-0.88889z" fill="#0d9500" stroke-width="0"/><path d="M237.05556,184.13927c0,-0.49092 0.39797,-0.88888 0.88889,-0.88888c0.49092,0 0.88889,0.39796 0.88889,0.88888c0,0.49092 -0.39797,0.88889 -0.88889,0.88889c-0.49092,0 -0.88889,-0.39797 -0.88889,-0.88889z" fill="#0d9500" stroke-width="0"/><path d="M232.83334,179.02816c0,-0.24546 0.19898,-0.44445 0.44445,-0.44445c0.24546,0 0.44444,0.19898 0.44444,0.44445c0,0.24546 -0.19898,0.44445 -0.44444,0.44445c-0.24546,0 -0.44445,-0.19898 -0.44445,-0.44445z" fill="#0d9500" stroke-width="0"/><path d="M247.27778,180.36149c0,-0.49092 0.39796,-0.88889 0.88888,-0.88889c0.49092,0 0.88889,0.39797 0.88889,0.88889c0,0.49092 -0.39797,0.88889 -0.88889,0.88889c-0.49092,0 -0.88888,-0.39797 -0.88888,-0.88889z" fill="#0d9500" stroke-width="0"/><path d="M226.38889,166.80594c0,-0.49092 0.39797,-0.88889 0.88889,-0.88889c0.49092,0 0.88888,0.39797 0.88888,0.88889c0,0.49092 -0.39796,0.88889 -0.88888,0.88889c-0.49092,0 -0.88889,-0.39797 -0.88889,-0.88889z" fill="#0d9500" stroke-width="0"/><path d="M247.5,178.25038c0,-0.30683 0.24873,-0.55555 0.55555,-0.55555c0.30683,0 0.55555,0.24873 0.55555,0.55555c0,0.30683 -0.24873,0.55555 -0.55555,0.55555c-0.30683,0 -0.55555,-0.24873 -0.55555,-0.55555z" fill="#0d9500" stroke-width="0"/><path d="M251.42956,192.74911c3.30025,-3.08453 4.5556,-9.29464 6.50625,-9.29464c1.95065,0 -1.20463,9.1055 -5.0191,11.52536c-5.94857,3.77372 -12.07803,4.77558 -12.8266,2.97428c-0.4635,-1.11536 6.50625,-0.68771 11.33946,-5.205z" fill="#87ff94" stroke-width="0"/></g></g></g></svg>