<svg version="1.1" xmlns="http://www.w3.org/2000/svg" xmlns:xlink="http://www.w3.org/1999/xlink" width="112.66618" height="112.66618" viewBox="0,0,112.66618,112.66618"><g transform="translate(-183.66691,-123.66691)"><g data-paper-data="{&quot;isPaintingLayer&quot;:true}" fill-rule="nonzero" stroke="none" stroke-width="0" stroke-linecap="butt" stroke-linejoin="miter" stroke-miterlimit="10" stroke-dasharray="" stroke-dashoffset="0" style="mix-blend-mode: normal"><path d="M183.66691,236.33309v-112.66618h112.66618v112.66618z" data-paper-data="{&quot;index&quot;:null}" fill="none"/><g><path d="M258.71363,189.35969c0.38578,4.00773 -0.46195,6.5485 -0.46195,6.5485c0,0 -5.2728,8.3203 -11.42255,8.3203c-3.15503,0 -12.27403,-6.03977 -15.57102,-7.1701c-4.57146,-1.56726 -9.45668,1.92764 -9.45668,1.92764c0,0 -1.28615,-6.89941 -1.0104,-9.62634c1.03898,-10.27427 8.48927,-19.74475 18.96131,-19.74475c10.47204,0 17.92233,8.951 18.96131,19.74475z" data-paper-data="{&quot;index&quot;:null}" fill="#f32f00"/><g fill="#f29e4a"><g data-paper-data="{&quot;index&quot;:null}"><path d="M256.55097,198.5565l-4.06089,-7.78986l-9.81703,-0.0728l-15.51704,-15.43908l1.73864,-1.66526l15.68764,15.02079l9.82312,-0.04728l3.87641,8.56054z"/><path d="M237.01167,201.13206l6.11186,-12.43532l9.82312,0.04728l4.82785,-4.60746l0.70588,3.09263l-3.62449,3.59837l-9.81704,0.0728l-6.29633,11.66464z" data-paper-data="{&quot;index&quot;:null}"/></g><g data-paper-data="{&quot;index&quot;:null}"><path d="M243.97217,176.98303l-19.7827,20.74205l0.37235,-3.6916l17.14182,-19.134z"/><path d="M238.64565,169.61096l5.86904,5.08201l7.63337,0.04764l1.91157,2.1087l-11.8207,0.04728l-6.56326,-6.73392z" data-paper-data="{&quot;index&quot;:null}"/></g></g><path d="M221.30022,201.46362c-2.30158,-1.34761 -2.35723,-2.99995 -0.74515,-5.24854c2.42919,-3.3883 11.4108,-2.44824 16.52039,0.7287c3.15157,1.95951 5.61838,5.22904 9.23631,5.20698c3.58574,-0.02187 5.39886,-3.93497 8.52244,-5.90966c5.09501,-3.22102 4.55165,-3.15412 5.21023,-2.70854c2.03469,1.37662 1.32902,4.17095 0,5.39756c-0.39231,0.36209 -0.76359,-0.55301 -4.59147,1.46473c-3.64762,1.92273 -4.46324,5.10932 -9.14175,5.11601c-5.1781,0.00741 -7.13449,-2.24998 -10.94522,-4.41498c-3.81073,-2.165 -5.20964,-2.42723 -9.17464,-1.58064c-3.116,0.66531 -2.58956,3.29599 -4.89114,1.94837z" data-paper-data="{&quot;index&quot;:null}" fill="#ffffff"/><path d="M227.94116,191.73646l-6.41142,-6.49152l0.87219,-2.67453l7.30559,7.3857z" fill="#f29e4a"/></g></g></g></svg>