<svg version="1.1" xmlns="http://www.w3.org/2000/svg" xmlns:xlink="http://www.w3.org/1999/xlink" width="119.71806" height="119.71806" viewBox="0,0,119.71806,119.71806"><defs><linearGradient x1="239.99937" y1="171.85658" x2="239.99937" y2="202.36703" gradientUnits="userSpaceOnUse" id="color-1"><stop offset="0" stop-color="#da842e"/><stop offset="1" stop-color="#f29e4a"/></linearGradient></defs><g transform="translate(-180.14097,-120.14097)"><g data-paper-data="{&quot;isPaintingLayer&quot;:true}" fill-rule="nonzero" stroke-width="0" stroke-linecap="butt" stroke-linejoin="miter" stroke-miterlimit="10" stroke-dasharray="" stroke-dashoffset="0" style="mix-blend-mode: normal"><path d="M180.14097,239.85903v-119.71806h119.71806v119.71806z" data-paper-data="{&quot;index&quot;:null}" fill="none" stroke="none"/><g><path d="M236.89696,171.85658h6.23631c0,0 -0.35745,8.99011 0.53289,17.80526c0.7352,7.27908 1.85144,12.70519 -3.37889,12.70519c-6.38816,0 -4.37851,-5.63572 -3.96204,-12.58547c0.54605,-9.11184 0.57172,-17.92497 0.57172,-17.92497z" data-paper-data="{&quot;index&quot;:null}" fill="url(#color-1)" stroke="none"/><g data-paper-data="{&quot;index&quot;:null}"><g data-paper-data="{&quot;index&quot;:null}"><path d="M260.96129,185.0262c0,0 -4.96503,7.55143 -8.91636,14.11395c-2.52523,4.19402 -7.38209,3.7807 -9.62604,2.66919c-0.73257,-0.36287 0.52098,-0.31226 -0.02302,-0.84236c-2.21032,-2.15384 -1.68633,-5.51636 3.21425,-9.73551c7.59938,-6.54267 15.35118,-6.20527 15.35118,-6.20527z" fill="#f29e4a" stroke="none"/><path d="M254.33946,189.01095c2.48165,-2.39442 5.1009,-3.4971 5.25873,-3.32496c0.16163,0.17628 -2.31265,1.34082 -4.98071,3.99818c-1.47409,1.46818 -4.17783,1.87962 -5.77276,3.34202c-4.37125,4.00802 -6.21345,7.66779 -6.46793,7.39026c-0.25448,-0.27754 1.5711,-3.95543 5.94236,-7.96345c1.66014,-1.52219 4.47074,-1.94693 6.02031,-3.44203z" fill="#20ad00" stroke="#20ad00"/></g><g data-paper-data="{&quot;index&quot;:null}"><path d="M234.22921,191.24814c4.90058,4.21915 5.42456,7.58167 3.21424,9.73552c-0.544,0.53009 0.70956,0.4795 -0.02302,0.84236c-2.24395,1.11152 -7.10081,1.52482 -9.62605,-2.66919c-3.95133,-6.56253 -8.91636,-14.11396 -8.91636,-14.11396c0,0 7.7518,-0.3374 15.35118,6.20527z" fill="#f29e4a" stroke="none"/><path d="M231.52014,192.46964c4.37125,4.00801 6.19683,7.68591 5.94236,7.96345c-0.25448,0.27754 -2.09668,-3.38224 -6.46793,-7.39025c-1.59492,-1.4624 -4.29866,-1.87384 -5.77276,-3.34202c-2.66806,-2.65736 -5.14233,-3.82191 -4.98071,-3.99818c0.15783,-0.17213 2.77708,0.93055 5.25873,3.32497c1.54957,1.4951 4.36017,1.91985 6.02031,3.44203z" fill="#20ad00" stroke="#20ad00"/></g></g></g><g data-paper-data="{&quot;index&quot;:null}" stroke="none"><g fill="#ffffff"><path d="M248.00548,157.62407c-0.57023,-0.27816 -1.55725,-1.21992 -3.19004,-1.14474c-1.3438,0.06187 -2.77915,0.5342 -2.97327,-0.00321c-0.397,-1.09909 -0.05066,-2.14163 2.22332,-3.55925c2.12233,-1.32307 5.5434,-2.40293 5.5434,-2.40293z"/><path d="M248.96797,151.84743c-0.57023,-0.27816 -1.55725,-1.21992 -3.19004,-1.14474c-1.3438,0.06187 -2.77915,0.53421 -2.97326,-0.0032c-0.397,-1.09909 -0.05066,-2.14164 2.22332,-3.55925c2.12233,-1.32307 6.59418,-1.35215 6.59418,-1.35215z"/><path d="M250.59305,146.00692c-0.50604,-0.38269 -1.29339,-1.49678 -2.91013,-1.73721c-1.33059,-0.19788 -2.83,-0.01058 -2.91707,-0.5753c-0.17808,-1.15494 0.36241,-2.11135 2.86668,-3.06488c2.33727,-0.88994 5.9022,-1.29129 5.9022,-1.29129z"/><path d="M252.71097,139.97248c-0.44182,-0.45534 -2.45123,-2.37692 -4.01245,-2.86091c-1.2849,-0.39833 -2.97047,0.25882 -2.97047,-0.31259c0,-1.16859 0.85505,-2.73199 3.47539,-3.29276c2.44558,-0.52337 6.03004,-0.72705 6.03004,-0.72705z"/></g><path d="M259.55897,163.62034c-7.18879,13.67856 -19.87826,11.48626 -19.87826,11.48626l-0.38628,-4.28925c0,0 2.50516,-2.98709 3.45004,-5.24904c4.75607,-11.38562 4.49278,-17.23358 12.22975,-34.31201c0.20179,-0.44543 11.86544,18.51066 4.58477,32.36403z" data-paper-data="{&quot;index&quot;:null}" fill="#20ad00"/><path d="M247.53704,160.10956c0,-0.93805 0.76044,-1.69849 1.69849,-1.69849c0.93805,0 1.69849,0.76044 1.69849,1.69849c0,0.93805 -0.76044,1.69849 -1.69849,1.69849c-0.93805,0 -1.69849,-0.76044 -1.69849,-1.69849z" fill="#f29e4a"/><path d="M250.11602,152.52995c0,-0.82079 0.66538,-1.48618 1.48618,-1.48618c0.82079,0 1.48618,0.66538 1.48618,1.48618c0,0.82079 -0.66538,1.48618 -1.48618,1.48618c-0.82079,0 -1.48618,-0.66538 -1.48618,-1.48618z" fill="#f29e4a"/><path d="M257.30335,151.4048c0,-0.82079 0.66538,-1.48618 1.48618,-1.48618c0.82079,0 1.48618,0.66538 1.48618,1.48618c0,0.82079 -0.66538,1.48618 -1.48618,1.48618c-0.82079,0 -1.48618,-0.66538 -1.48618,-1.48618z" fill="#f29e4a"/><path d="M251.35864,142.70005c0,-0.70354 0.57033,-1.27387 1.27387,-1.27387c0.70354,0 1.27387,0.57033 1.27387,1.27387c0,0.70354 -0.57033,1.27387 -1.27387,1.27387c-0.70354,0 -1.27387,-0.57033 -1.27387,-1.27387z" fill="#f29e4a"/><path d="M254.75562,158.83569c0,-0.70354 0.57033,-1.27387 1.27387,-1.27387c0.70354,0 1.27387,0.57033 1.27387,1.27387c0,0.70354 -0.57033,1.27387 -1.27387,1.27387c-0.70354,0 -1.27387,-0.57033 -1.27387,-1.27387z" fill="#f29e4a"/><path d="M246.26318,169.45124c0,-0.93805 0.76044,-1.69849 1.69849,-1.69849c0.93805,0 1.69849,0.76044 1.69849,1.69849c0,0.93805 -0.76044,1.69849 -1.69849,1.69849c-0.93805,0 -1.69849,-0.76044 -1.69849,-1.69849z" fill="#f29e4a"/><path d="M251.35864,166.47889c0,-0.46902 0.38022,-0.84924 0.84924,-0.84924c0.46902,0 0.84924,0.38022 0.84924,0.84924c0,0.46902 -0.38022,0.84924 -0.84924,0.84924c-0.46902,0 -0.84924,-0.38022 -0.84924,-0.84924z" fill="#f29e4a"/><path d="M255.60486,138.02921c0,-0.70354 0.57033,-1.27387 1.27387,-1.27387c0.70354,0 1.27387,0.57033 1.27387,1.27387c0,0.70354 -0.57033,1.27387 -1.27387,1.27387c-0.70354,0 -1.27387,-0.57033 -1.27387,-1.27387z" fill="#f29e4a"/></g><g data-paper-data="{&quot;index&quot;:null}" stroke="none"><g fill="#ffffff"><path d="M230.26785,150.51395c0,0 3.42107,1.07986 5.5434,2.40293c2.27398,1.41762 2.62032,2.46016 2.22332,3.55925c-0.19412,0.53741 -1.62947,0.06508 -2.97327,0.00321c-1.63279,-0.07518 -2.61981,0.86658 -3.19004,1.14474z"/><path d="M228.25458,145.78809c0,0 4.47185,0.02909 6.59418,1.35216c2.27398,1.41761 2.62032,2.46016 2.22332,3.55925c-0.19411,0.53741 -1.62946,0.06507 -2.97326,0.0032c-1.63279,-0.07518 -2.61981,0.86658 -3.19004,1.14474z"/><path d="M226.34202,139.33824c0,0 3.56493,0.40135 5.9022,1.29129c2.50427,0.95353 3.04476,1.90994 2.86668,3.06488c-0.08707,0.56472 -1.58648,0.37742 -2.91707,0.5753c-1.61674,0.24043 -2.40409,1.35452 -2.91013,1.73721z"/><path d="M224.64327,132.77918c0,0 3.58446,0.20368 6.03004,0.72705c2.62034,0.56077 3.47539,2.12417 3.47539,3.29275c0,0.57141 -1.68557,-0.08573 -2.97047,0.31259c-1.56122,0.48399 -3.57063,2.40556 -4.01245,2.86091z"/></g><path d="M220.31775,163.62033c-7.28067,-13.85337 4.38298,-32.80946 4.58477,-32.36403c7.73696,17.07843 7.47368,22.92639 12.22975,34.31201c0.94488,2.26196 3.45004,5.24904 3.45004,5.24904l-0.38628,4.28925c0,0 -12.68947,2.1923 -19.87826,-11.48626z" data-paper-data="{&quot;index&quot;:null}" fill="#20ad00"/><path d="M230.64121,161.80806c-0.93805,0 -1.69849,-0.76044 -1.69849,-1.69849c0,-0.93805 0.76044,-1.69849 1.69849,-1.69849c0.93805,0 1.69849,0.76044 1.69849,1.69849c0,0.93805 -0.76044,1.69849 -1.69849,1.69849z" fill="#f29e4a"/><path d="M228.27454,154.01613c-0.8208,0 -1.48618,-0.66539 -1.48618,-1.48618c0,-0.8208 0.66539,-1.48618 1.48618,-1.48618c0.8208,0 1.48618,0.66539 1.48618,1.48618c0,0.8208 -0.66539,1.48618 -1.48618,1.48618z" fill="#f29e4a"/><path d="M221.08721,152.89099c-0.8208,0 -1.48618,-0.66539 -1.48618,-1.48618c0,-0.8208 0.66539,-1.48618 1.48618,-1.48618c0.8208,0 1.48618,0.66539 1.48618,1.48618c0,0.8208 -0.66539,1.48618 -1.48618,1.48618z" fill="#f29e4a"/><path d="M227.24423,143.97393c-0.70354,0 -1.27387,-0.57033 -1.27387,-1.27387c0,-0.70354 0.57033,-1.27387 1.27387,-1.27387c0.70354,0 1.27387,0.57033 1.27387,1.27387c0,0.70354 -0.57033,1.27387 -1.27387,1.27387z" fill="#f29e4a"/><path d="M223.84725,160.10957c-0.70354,0 -1.27387,-0.57033 -1.27387,-1.27387c0,-0.70354 0.57033,-1.27387 1.27387,-1.27387c0.70354,0 1.27387,0.57033 1.27387,1.27387c0,0.70354 -0.57033,1.27387 -1.27387,1.27387z" fill="#f29e4a"/><path d="M231.91507,171.14974c-0.93805,0 -1.69849,-0.76044 -1.69849,-1.69849c0,-0.93805 0.76044,-1.69849 1.69849,-1.69849c0.93805,0 1.69849,0.76044 1.69849,1.69849c0,0.93805 -0.76044,1.69849 -1.69849,1.69849z" fill="#f29e4a"/><path d="M227.66886,167.32814c-0.46902,0 -0.84924,-0.38022 -0.84924,-0.84924c0,-0.46902 0.38022,-0.84924 0.84924,-0.84924c0.46902,0 0.84924,0.38022 0.84924,0.84924c0,0.46902 -0.38022,0.84924 -0.84924,0.84924z" fill="#f29e4a"/><path d="M222.99801,139.30309c-0.70354,0 -1.27387,-0.57033 -1.27387,-1.27387c0,-0.70354 0.57033,-1.27387 1.27387,-1.27387c0.70354,0 1.27387,0.57033 1.27387,1.27387c0,0.70354 -0.57033,1.27387 -1.27387,1.27387z" fill="#f29e4a"/></g></g></g></svg>