<svg version="1.1" xmlns="http://www.w3.org/2000/svg" xmlns:xlink="http://www.w3.org/1999/xlink" width="85.49398" height="85.49398" viewBox="0,0,85.49398,85.49398"><defs><linearGradient x1="-3285.69704" y1="-2895.28054" x2="-3285.69704" y2="4105.40968" gradientUnits="userSpaceOnUse" id="color-1"><stop offset="0" stop-color="#ffffff"/><stop offset="1" stop-color="#ffffff" stop-opacity="0"/></linearGradient><linearGradient x1="235.45406" y1="198.5092" x2="244.8998" y2="198.5092" gradientUnits="userSpaceOnUse" id="color-2"><stop offset="0" stop-color="#efcfaf"/><stop offset="1" stop-color="#000000"/></linearGradient><linearGradient x1="230.16134" y1="190.48201" x2="250.12374" y2="190.48201" gradientUnits="userSpaceOnUse" id="color-3"><stop offset="0" stop-color="#ffffff"/><stop offset="1" stop-color="#eaeaea"/></linearGradient><linearGradient x1="230.16134" y1="170.50852" x2="250.12374" y2="170.50852" gradientUnits="userSpaceOnUse" id="color-4"><stop offset="0" stop-color="#ffffff"/><stop offset="1" stop-color="#eaeaea"/></linearGradient></defs><g transform="translate(-197.25301,-137.25301)"><g data-paper-data="{&quot;isPaintingLayer&quot;:true}" fill-rule="nonzero" stroke-linejoin="miter" stroke-miterlimit="10" stroke-dasharray="" stroke-dashoffset="0" style="mix-blend-mode: normal"><path d="M197.25301,222.74699v-85.49398h85.49398v85.49398z" fill="none" stroke="none" stroke-width="0" stroke-linecap="butt"/><path d="M208.63952,205.58014c0.00324,-13.1024 0,-44.63208 0,-51.75c0,-3.5626 2.97813,-5.21784 6.54073,-5.21784c12.68063,0 43.89984,0 51,0c2.96729,0 5.18024,2.50056 5.18024,5.46784c0,6.43742 0,39.20833 0,51.75c0,2.95974 -2.72049,5.55758 -5.68024,5.55758c-6.61442,0 -39.17756,0 -52,0c-3.13138,0 -5.04177,-1.58613 -5.04073,-5.80758z" fill="url(#color-1)" stroke="#a97a4a" stroke-width="2" stroke-linecap="butt"/><path d="M207.25301,212.74699v-65.49398h65.49398v65.49398z" fill="none" stroke="none" stroke-width="0" stroke-linecap="butt"/><g><g stroke-width="1"><g data-paper-data="{&quot;index&quot;:null}"><path d="M235.81469,201.2837c-0.32403,-1.18801 -0.45811,-3.0952 -0.28385,-4.15325c0.17956,-1.09015 0.63615,-1.42735 0.63615,-1.42735l8.07437,0.03887c0,0 0.495,0.53905 0.57703,1.19037c0.14731,1.16971 0.08431,2.85761 -0.10566,4.38294" data-paper-data="{&quot;index&quot;:null}" fill="url(#color-2)" stroke="#000000" stroke-linecap="butt"/><path d="M243.21894,200.3103v-1.94376" fill="none" stroke="#b2815f" stroke-linecap="round"/></g><path d="M241.8337,199.5574v-1.07393" fill="none" stroke="#b2815f" stroke-linecap="round"/><path d="M236.8431,200.63132v-2.02151" fill="none" stroke="#b2815f" stroke-linecap="round"/></g><g><path d="M250.07926,180.15368c0,0 0.04448,9.84991 0.04448,10.81873c0,5.44269 -4.46874,9.85486 -9.9812,9.85486c-5.51246,0 -9.9812,-4.41217 -9.9812,-9.85486c0,-0.7408 0.23972,-10.83566 0.23972,-10.83566z" fill="url(#color-3)" stroke="none" stroke-width="0" stroke-linecap="butt"/><path d="M249.9974,180.57607c0,0 0.39152,3.99969 0.35141,7.97305c-0.01242,1.23066 -0.249,2.64155 -0.31789,3.69673c-0.08632,1.05272 -0.82217,2.82524 -1.69698,4.33366c-1.32086,2.27752 -3.47592,4.21165 -8.29969,4.21165c-2.68504,0 -4.90358,-0.61784 -6.38457,-1.84487c-0.77314,-0.64057 -0.96318,-1.42495 -1.4242,-2.26788c-0.68196,-1.24687 -1.47651,-2.62183 -1.72229,-3.84884c-0.11113,-0.55482 0.21692,-1.09411 0.16705,-1.60028c-0.12706,-1.28945 -0.81903,-2.62529 -0.8761,-3.89159c-0.15748,-3.49391 0.50798,-6.45841 0.50798,-6.45841" fill="none" stroke="#909090" stroke-width="1" stroke-linecap="round"/></g><path d="M241.47818,200.64677c-3.90234,0.42742 -5.92014,-1.01075 -5.92014,-1.01075c0,0 1.69654,1.03172 6.17837,0.22188c5.12906,-0.9268 6.38386,-2.67657 6.38386,-2.67657c0,0 -1.56195,2.90902 -6.6421,3.46544z" fill="#909090" stroke="none" stroke-width="0" stroke-linecap="butt"/><g data-paper-data="{&quot;index&quot;:null}"><path d="M230.20582,180.76207c0,0 -0.04448,-9.70036 -0.04448,-10.66919c0,-5.44269 4.46874,-9.85486 9.9812,-9.85486c3.19253,0 6.43928,1.07559 8.26633,3.37848c1.32768,1.67346 1.71487,4.18581 1.71487,6.47637c0,0.36667 -0.05873,2.91514 -0.11805,5.39572c-0.06053,2.53099 -0.12167,5.29039 -0.12167,5.29039z" fill="url(#color-4)" stroke="none" stroke-width="0" stroke-linecap="butt"/><path d="M230.28768,180.48922c0,0 -0.4117,-2.46635 -0.35952,-5.40674c0.03702,-2.08625 0.50832,-4.41113 0.62922,-6.26304c0.1018,-1.2415 0.09572,-3.20296 1.3212,-4.93369c0.78731,-1.11192 1.44071,-1.32 3.16456,-1.98937c0.86809,-0.33708 1.71856,-1.5512 3.00058,-1.91951c0.64288,-0.18469 1.69692,0.29726 2.30818,0.29726c0.9822,0 1.86464,0.51402 2.65714,0.71326c2.41329,0.60671 4.80105,1.34032 5.8228,2.93753c1.06739,1.66855 0.71785,4.22419 0.88407,5.91107c0.17038,1.729 0.63177,3.9843 0.63471,5.65026c0.0053,3.00454 -0.56982,5.00297 -0.56982,5.00297" fill="none" stroke="#909090" stroke-width="1" stroke-linecap="round"/></g></g></g></g></svg>