<svg version="1.1" xmlns="http://www.w3.org/2000/svg" xmlns:xlink="http://www.w3.org/1999/xlink" width="43.87521" height="44.33617" viewBox="0,0,43.87521,44.33617"><g transform="translate(-217.18948,-156.30832)"><g data-paper-data="{&quot;isPaintingLayer&quot;:true}" fill-rule="nonzero" stroke-linejoin="miter" stroke-miterlimit="10" stroke-dasharray="" stroke-dashoffset="0" style="mix-blend-mode: normal"><g><path d="M217.62881,200.64449v-24.19594c0,0 1.0494,-0.25166 4.03268,-4.77707c1.04141,-1.57973 3.65372,-7.90129 5.13308,-8.85996c1.2782,-0.82832 2.94728,-0.03842 3.97709,-1.04673c1.94348,-1.90292 3.75528,-5.11828 7.78566,-4.38495c8.5884,-0.07326 10.97131,12.22018 10.97131,12.22018c0,0 1.10458,-1.21386 1.79075,-2.06809c0.91112,-1.13429 1.6672,-1.91875 3.80449,-1.1585c3.7469,1.3328 5.36289,7.6307 5.36289,7.6307v26.64034z" fill="#a5e62a" stroke="none" stroke-width="0" stroke-linecap="butt"/><g fill="#61cd25" stroke="none" stroke-width="0" stroke-linecap="butt"><path d="M229.31289,176.64449c0.81717,-0.41341 5.12177,-1.33368 5.37668,-0.82236c0.30148,0.60474 -3.59027,2.73341 -4.55674,3.22235c-1.11771,0.56546 -4.19574,0.77361 -4.12295,0.03635c0.07348,-0.74411 3.30302,-2.43634 3.30302,-2.43634z"/><path d="M228.26152,181.54513c1.06964,-0.54115 6.70419,-1.74573 7.03786,-1.07643c0.39462,0.79158 -4.69952,3.57792 -5.9646,4.21794c-1.46303,0.74016 -5.49207,1.01262 -5.39678,0.04757c0.09618,-0.97401 4.32352,-3.18908 4.32352,-3.18908z"/></g><path d="M217.93949,175.78327c0,0 2.33768,-1.70485 3.52236,-3.63589c1.35388,-2.20682 1.66919,-4.82303 3.34802,-7.49845c1.05814,-1.68627 5.01888,-1.90664 5.56584,-2.19124c0.6677,-0.40623 3.85549,-4.99035 5.34511,-5.23058c10.37242,-1.67276 12.17924,9.60854 12.65906,10.85802c0.26286,0.68452 0.1636,2.80982 2.08964,1.00101c1.15549,-1.08517 1.82692,-2.80623 2.51598,-2.80623c1.12777,0 4.20658,1.08643 5.27192,2.55181c2.20665,3.03529 2.05507,5.2755 2.05507,5.2755" fill="none" stroke="#000000" stroke-width="1.5" stroke-linecap="round"/></g></g></g></svg>