<svg version="1.1" xmlns="http://www.w3.org/2000/svg" xmlns:xlink="http://www.w3.org/1999/xlink" width="81.67068" height="81.67068" viewBox="0,0,81.67068,81.67068"><g transform="translate(-199.16466,-139.16466)"><g data-paper-data="{&quot;isPaintingLayer&quot;:true}" fill-rule="nonzero" stroke-width="0" stroke-linecap="butt" stroke-linejoin="miter" stroke-miterlimit="10" stroke-dasharray="" stroke-dashoffset="0" style="mix-blend-mode: normal"><path d="M199.16466,220.83534v-81.67068h81.67068v81.67068z" data-paper-data="{&quot;index&quot;:null}" fill="none" stroke="none"/><path d="M252.70295,188.34016c-1.2026,2.27581 -3.82031,4.29997 -6.37121,5.24549c-1.55668,0.577 -5.67145,-0.02591 -7.43169,-0.02591c-1.64229,0 -3.24932,-1.12828 -5.02537,-1.45134c-1.60983,-0.29286 -3.41096,0.2624 -4.52938,-0.54222c-1.76515,-1.26989 -2.34822,-3.44981 -3.08099,-5.54537c-0.74757,-2.13787 -1.62696,-4.20212 -1.62696,-6.5737c0,-3.2979 2.31953,-5.63463 4.23524,-8.03727c1.56059,-1.95726 3.21386,-4.44146 5.26123,-5.56312c1.37919,-0.7556 2.93721,-0.51223 4.76621,-0.51223c2.69938,0 5.81173,0.04509 7.96388,1.33421c2.04868,1.22716 3.98956,2.71112 5.048,4.93465c1.07427,2.2568 2.80138,5.48464 2.80138,8.06528c0,2.58063 -0.80773,6.39573 -2.01035,8.67154z" data-paper-data="{&quot;index&quot;:null}" fill="#f32f00" stroke="#000000"/><path d="M246.79309,187.87174c-1.46207,1.34892 -5.32109,0.11262 -7.45196,0.11262c-1.13009,0 -2.17324,-0.92813 -3.8315,-1.34653c-1.10295,-0.2783 -2.96998,0.05749 -3.52389,-0.37346c-1.96453,-1.52844 -0.87875,-3.93549 -0.87875,-6.64306c0,-2.30638 -0.25709,-5.44007 1.22955,-6.95299c0.85016,-0.8652 3.44487,0.19169 4.9292,0.06187c1.11806,-0.0978 1.09721,-1.4719 2.07538,-1.4719c3.08195,0 5.39492,0.03472 7.4834,2.30112c1.37768,1.49505 2.74433,4.29567 2.74433,6.50494c0,1.28038 -2.77579,7.8074 -2.77579,7.8074z" data-paper-data="{&quot;index&quot;:null}" fill="#f29e4a" stroke="#000000"/><path d="M245.81136,185.12167c-0.99175,1.1801 -3.44638,-1.99972 -5.76656,-1.99972c-1.97327,0 -3.72335,1.4096 -4.81266,0.509c-0.73411,-0.60694 -1.16813,-3.35126 -1.16813,-4.16392c0,-0.92506 0.56238,-3.98497 1.48959,-4.6288c1.09603,-0.76105 2.70186,0.97387 4.49121,0.97387c2.09192,0 3.71148,-2.44482 4.78039,-1.45073c0.61888,0.57556 1.20042,4.36549 1.20042,5.10566c0,0.60067 0.20591,5.15471 -0.21424,5.65465z" data-paper-data="{&quot;index&quot;:null}" fill="#ffffff" stroke="#000000"/><path d="M253.77848,195.41581c0,0.79519 -0.64463,1.43983 -1.43983,1.43983c-0.79519,0 -1.43983,-0.64463 -1.43983,-1.43983c0,-0.79519 0.64463,-1.43983 1.43983,-1.43983c0.79519,0 1.43983,0.64463 1.43983,1.43983z" data-paper-data="{&quot;index&quot;:null}" fill="#f32f00" stroke="#000000"/><path d="M243.55004,197.57536c0,0.73402 -0.59505,1.32907 -1.32907,1.32907c-0.73402,0 -1.32907,-0.59505 -1.32907,-1.32907c0,-0.73402 0.59505,-1.32907 1.32907,-1.32907c0.73402,0 1.32907,0.59505 1.32907,1.32907z" data-paper-data="{&quot;index&quot;:null}" fill="#f32f00" stroke="none"/><path d="M255.55057,190.54257c0,0.42817 -0.3471,0.77528 -0.77528,0.77528c-0.42817,0 -0.77528,-0.3471 -0.77528,-0.77528c0,-0.42817 0.3471,-0.77528 0.77528,-0.77528c0.42817,0 0.77528,0.3471 0.77528,0.77528z" data-paper-data="{&quot;index&quot;:null}" fill="#f32f00" stroke="none"/><path d="M257.54418,164.62578c0,1.1622 -0.94216,2.10436 -2.10436,2.10436c-1.1622,0 -2.10436,-0.94216 -2.10436,-2.10436c0,-1.1622 0.94216,-2.10436 2.10436,-2.10436c1.1622,0 2.10436,0.94216 2.10436,2.10436z" data-paper-data="{&quot;index&quot;:null}" fill="#f32f00" stroke="none"/><path d="M251.12035,163.51823c0,0.55052 -0.44629,0.99679 -0.99679,0.99679c-0.55052,0 -0.99679,-0.44629 -0.99679,-0.99679c0,-0.55052 0.44629,-0.99679 0.99679,-0.99679c0.55052,0 0.99679,0.44629 0.99679,0.99679z" data-paper-data="{&quot;index&quot;:null}" fill="#f32f00" stroke="none"/><path d="M228.96925,166.0656c0,1.22337 -0.99174,2.21511 -2.21511,2.21511c-1.22337,0 -2.21511,-0.99174 -2.21511,-2.21511c0,-1.22337 0.99174,-2.21511 2.21511,-2.21511c1.22337,0 2.21511,0.99174 2.21511,2.21511z" data-paper-data="{&quot;index&quot;:null}" fill="#f32f00" stroke="none"/><path d="M223.20077,172.04746c0,0.42817 -0.3471,0.77528 -0.77528,0.77528c-0.42817,0 -0.77528,-0.3471 -0.77528,-0.77528c0,-0.42817 0.3471,-0.77528 0.77528,-0.77528c0.42817,0 0.77528,0.3471 0.77528,0.77528z" data-paper-data="{&quot;index&quot;:null}" fill="#f32f00" stroke="none"/><path d="M225.64659,192.64691c0,1.34571 -1.09091,2.43662 -2.43662,2.43662c-1.34571,0 -2.43662,-1.09091 -2.43662,-2.43662c0,-1.34571 1.09091,-2.43662 2.43662,-2.43662c1.34571,0 2.43662,1.09091 2.43662,2.43662z" data-paper-data="{&quot;index&quot;:null}" fill="#f32f00" stroke="none"/><path d="M228.96925,197.96318c0,0.48934 -0.39669,0.88604 -0.88604,0.88604c-0.48934,0 -0.88604,-0.39669 -0.88604,-0.88604c0,-0.48934 0.39669,-0.88604 0.88604,-0.88604c0.48934,0 0.88604,0.39669 0.88604,0.88604z" data-paper-data="{&quot;index&quot;:null}" fill="#f32f00" stroke="none"/><path d="M232.40269,188.90891c0,-1.07045 0.86777,-1.93822 1.93822,-1.93822c1.07045,0 1.93822,0.86777 1.93822,1.93822c0,1.07045 -0.86777,1.93822 -1.93822,1.93822c-1.07045,0 -1.93822,-0.86777 -1.93822,-1.93822z" fill="#f29e4a" stroke="#000000"/><path d="M228.72007,183.38499c0,-0.58875 0.47727,-1.06602 1.06602,-1.06602c0.58875,0 1.06602,0.47727 1.06602,1.06602c0,0.58875 -0.47727,1.06602 -1.06602,1.06602c-0.58875,0 -1.06602,-0.47727 -1.06602,-1.06602z" fill="#f29e4a" stroke="none"/><path d="M229.68917,179.1209c0,-0.26761 0.21694,-0.48455 0.48455,-0.48455c0.26761,0 0.48455,0.21694 0.48455,0.48455c0,0.26761 -0.21694,0.48455 -0.48455,0.48455c-0.26761,0 -0.48455,-0.21694 -0.48455,-0.48455z" fill="#f29e4a" stroke="none"/><path d="M235.50384,170.59273c0,-1.01692 0.82439,-1.84131 1.84131,-1.84131c1.01692,0 1.84131,0.82439 1.84131,1.84131c0,1.01692 -0.82439,1.84131 -1.84131,1.84131c-1.01692,0 -1.84131,-0.82439 -1.84131,-1.84131z" fill="#f29e4a" stroke="none"/><path d="M241.51232,171.56183c0,-0.80284 0.65083,-1.45367 1.45367,-1.45367c0.80284,0 1.45367,0.65083 1.45367,1.45367c0,0.80284 -0.65083,1.45367 -1.45367,1.45367c-0.80284,0 -1.45367,-0.65083 -1.45367,-1.45367z" fill="#f29e4a" stroke="none"/><path d="M249.65285,176.11666c0,-0.74932 0.60744,-1.35675 1.35675,-1.35675c0.74932,0 1.35675,0.60744 1.35675,1.35675c0,0.74932 -0.60744,1.35675 -1.35675,1.35675c-0.74932,0 -1.35675,-0.60744 -1.35675,-1.35675z" fill="#f29e4a" stroke="none"/><path d="M248.10227,184.54792c0,-0.48171 0.3905,-0.8722 0.8722,-0.8722c0.48171,0 0.8722,0.3905 0.8722,0.8722c0,0.48171 -0.3905,0.8722 -0.8722,0.8722c-0.48171,0 -0.8722,-0.3905 -0.8722,-0.8722z" fill="#f29e4a" stroke="none"/><path d="M243.0629,189.10274c0,-0.64227 0.52066,-1.16294 1.16294,-1.16294c0.64227,0 1.16294,0.52066 1.16294,1.16294c0,0.64227 -0.52066,1.16294 -1.16294,1.16294c-0.64227,0 -1.16294,-0.52066 -1.16294,-1.16294z" fill="#f29e4a" stroke="none"/><path d="M239.18646,183.96645c0,-0.6958 0.56405,-1.25984 1.25984,-1.25984c0.6958,0 1.25984,0.56405 1.25984,1.25984c0,0.6958 -0.56405,1.25984 -1.25984,1.25984c-0.6958,0 -1.25984,-0.56405 -1.25984,-1.25984z" fill="#ffffff" stroke="#000000"/><path d="M232.79033,182.12514c0,-0.42817 0.3471,-0.7753 0.7753,-0.7753c0.42817,0 0.7753,0.3471 0.7753,0.7753c0,0.42817 -0.3471,0.7753 -0.7753,0.7753c-0.42817,0 -0.7753,-0.3471 -0.7753,-0.7753z" fill="#ffffff" stroke="none"/><path d="M232.98416,177.86106c0,-0.64227 0.52066,-1.16294 1.16294,-1.16294c0.64227,0 1.16294,0.52066 1.16294,1.16294c0,0.64227 -0.52066,1.16294 -1.16294,1.16294c-0.64227,0 -1.16294,-0.52066 -1.16294,-1.16294z" fill="#ffffff" stroke="none"/><path d="M240.54321,175.05064c0,-0.58875 0.47727,-1.06602 1.06602,-1.06602c0.58875,0 1.06602,0.47727 1.06602,1.06602c0,0.58875 -0.47727,1.06602 -1.06602,1.06602c-0.58875,0 -1.06602,-0.47727 -1.06602,-1.06602z" fill="#ffffff" stroke="none"/><path d="M244.22584,177.47341c0,-0.64227 0.52066,-1.16294 1.16294,-1.16294c0.64227,0 1.16294,0.52066 1.16294,1.16294c0,0.64227 -0.52066,1.16294 -1.16294,1.16294c-0.64227,0 -1.16294,-0.52066 -1.16294,-1.16294z" fill="#ffffff" stroke="none"/><path d="M225.61891,173.59697c0,-1.07045 0.86777,-1.93822 1.93822,-1.93822c1.07045,0 1.93822,0.86777 1.93822,1.93822c0,1.07045 -0.86777,1.93822 -1.93822,1.93822c-1.07045,0 -1.93822,-0.86777 -1.93822,-1.93822z" fill="#f32f00" stroke="#000000"/><path d="M250.81578,172.0464c0,-0.74932 0.60744,-1.35675 1.35675,-1.35675c0.74932,0 1.35675,0.60744 1.35675,1.35675c0,0.74932 -0.60744,1.35675 -1.35675,1.35675c-0.74932,0 -1.35675,-0.60744 -1.35675,-1.35675z" fill="#f32f00" stroke="none"/><path d="M253.5293,183.86955c0,-0.74932 0.60744,-1.35675 1.35675,-1.35675c0.74932,0 1.35675,0.60744 1.35675,1.35675c0,0.74932 -0.60744,1.35675 -1.35675,1.35675c-0.74932,0 -1.35675,-0.60744 -1.35675,-1.35675z" fill="#f32f00" stroke="none"/></g></g></svg>