<svg version="1.1" xmlns="http://www.w3.org/2000/svg" xmlns:xlink="http://www.w3.org/1999/xlink" width="81.67068" height="81.67068" viewBox="0,0,81.67068,81.67068"><g transform="translate(-199.16466,-139.16466)"><g data-paper-data="{&quot;isPaintingLayer&quot;:true}" fill-rule="nonzero" stroke="none" stroke-linecap="butt" stroke-linejoin="miter" stroke-miterlimit="10" stroke-dasharray="" stroke-dashoffset="0" style="mix-blend-mode: normal"><path d="M199.16466,220.83534v-81.67068h81.67068v81.67068z" data-paper-data="{&quot;index&quot;:null}" fill="none" stroke-width="0"/><g><g><path d="M240.15228,167.20173c8.93561,0 15.13554,8.50595 17.91908,14.95779c3.21808,7.45905 -9.15804,11.56531 -18.16762,11.56531c-9.01559,0 -21.04982,-4.5809 -18.01849,-11.25689c3.73396,-8.22342 9.33141,-15.2662 18.26703,-15.2662z" data-paper-data="{&quot;index&quot;:null}" fill="#f29e4a" stroke-width="0"/><g data-paper-data="{&quot;index&quot;:null}" fill="none" stroke-width="1" font-family="sans-serif" font-weight="normal" font-size="12" text-anchor="start"><g data-paper-data="{&quot;index&quot;:null}"/><g data-paper-data="{&quot;index&quot;:null}"/><g data-paper-data="{&quot;index&quot;:null}"/></g></g><path d="M226.48216,182.01919c0,-3.13853 2.87044,-5.68283 6.41132,-5.68283c3.54087,0 6.41132,2.54429 6.41132,5.68283c0,3.13853 -2.87044,5.68283 -6.41132,5.68283c-3.54087,0 -6.41132,-2.54429 -6.41132,-5.68283z" fill="#20ad00" stroke-width="0"/><path d="M242.0291,171.97278c0,-1.74482 2.28344,-4.06178 2.28344,-4.06178c0,0 3.03278,0.9628 4.99302,2.50222c2.57293,2.02058 4.50388,4.66667 4.50388,4.66667c0,0 -3.1219,2.57571 -5.36903,2.57571c-3.54087,0 -6.41132,-2.5443 -6.41132,-5.68283z" fill="#20ad00" stroke-width="0"/><path d="M255.1621,184.22122c0.64938,1.89339 -0.44041,3.86379 -2.43411,4.40101c-1.9937,0.53721 -4.13633,-0.56218 -4.78572,-2.45558c-0.64938,-1.89339 0.44041,-3.86379 2.43411,-4.40101c1.9937,-0.53721 4.13633,0.56218 4.78572,2.45558z" fill="#20ad00" stroke-width="0"/><path d="M225.57214,189.876c0,0 7.14645,0.90774 14.49925,0.90774c7.3528,0 14.82265,-0.8122 14.82265,-0.8122c0,0 -5.52944,3.96542 -15.03826,3.86986c-8.53807,-0.08579 -14.28364,-3.96542 -14.28364,-3.96542z" fill="#20ad00" stroke-width="0"/><path d="M240.23593,191.66868c5.09234,0 9.2205,-0.08624 9.2205,2.6511c0,2.73734 -4.12816,4.95639 -9.2205,4.95639c-5.09234,0 -9.2205,-2.21906 -9.2205,-4.95639c0,-2.73735 4.12816,-2.6511 9.2205,-2.6511z" fill="#ffffff" stroke-width="0"/></g></g></g></svg>