<svg version="1.1" xmlns="http://www.w3.org/2000/svg" xmlns:xlink="http://www.w3.org/1999/xlink" width="41.41093" height="41.41092" viewBox="0,0,41.41093,41.41092"><g transform="translate(-219.29454,-159.29454)"><g data-paper-data="{&quot;isPaintingLayer&quot;:true}" fill-rule="nonzero" stroke-width="0" stroke-linecap="butt" stroke-linejoin="miter" stroke-miterlimit="10" stroke-dasharray="" stroke-dashoffset="0" style="mix-blend-mode: normal"><path d="M219.29454,200.70546v-41.41092h41.41093v41.41092z" data-paper-data="{&quot;index&quot;:null}" fill="#355aff" stroke="none"/><path d="M222.72154,200.45281c0,0 -1.61451,-4.0914 0.95515,-8.33528c3.2926,-5.43782 7.18474,-2.65925 7.48594,-6.55669c0.41714,-5.39757 1.31412,-12.06421 1.31412,-12.06421c0,0 1.6734,4.3544 3.73123,10.98521c0.46024,1.48301 -0.0724,4.59671 -1.56823,6.16956c-1.7655,1.85641 -1.15812,1.86078 -1.57526,3.89623c-0.80966,3.95077 4.9567,5.90518 4.9567,5.90518z" fill="#20ad00" stroke="#ffffff"/><path d="M240.09312,200.48515c0,0 0.67096,-3.05783 2.50854,-5.91633c1.14477,-1.78079 3.53998,-3.25632 4.06788,-4.56407c1.3558,-3.35869 1.61764,-9.81852 1.61764,-9.81852c0,0 0.94765,5.42536 1.11737,9.1252c0.07441,1.6222 -0.48201,4.34238 -1.33954,6.46756c-1.09829,2.72183 -1.08143,4.70615 -1.08143,4.70615z" fill="#20ad00" stroke="#ffffff"/><path d="M248.65964,200.48515c0,0 0.94969,-1.97519 1.99357,-4.92723c0.67028,-1.89551 0.89748,-2.73659 1.67111,-4.66896c0.5908,-1.4757 1.6169,-2.9972 1.83454,-3.97659c0.51888,-2.33495 0.83255,-10.07826 0.83255,-10.07826c0,0 1.17705,5.87474 1.86228,8.75274c0.22969,0.96469 -0.20935,2.97959 0.09582,5.47986c0.29774,2.43939 -0.35423,3.06399 0.42031,5.33981c0.79997,2.35055 2.09108,4.07863 2.09108,4.07863z" fill="#20ad00" stroke="#ffffff"/><path d="M236.84355,200.48515c0,0 -1.34806,-2.46846 -0.62522,-6.28974c0.30151,-1.59395 1.47325,-4.10339 1.54967,-5.90345c0.08369,-1.97154 1.58734,-3.61327 1.34793,-5.49267c-0.4146,-3.2547 0.08724,-5.17406 0.25299,-6.69896c0.24429,-2.24749 1.12559,-5.2187 1.12559,-5.2187c0,0 0.46167,3.65901 0.46167,6.37077c0,1.38346 0.15717,2.99267 0.82061,5.48952c0.53266,2.00471 -1.38944,4.22148 -1.32205,6.41453c0.06571,2.138 -0.54798,4.05694 -0.87469,5.85182c-0.54238,2.97979 0.54199,5.47686 0.54199,5.47686z" data-paper-data="{&quot;index&quot;:null}" fill="#20ad00" stroke="#ffffff"/></g></g></svg>