<svg version="1.1" xmlns="http://www.w3.org/2000/svg" xmlns:xlink="http://www.w3.org/1999/xlink" width="85.49398" height="85.49398" viewBox="0,0,85.49398,85.49398"><defs><linearGradient x1="-3285.69704" y1="-2895.28053" x2="-3285.69704" y2="4105.40968" gradientUnits="userSpaceOnUse" id="color-1"><stop offset="0" stop-color="#ffffff"/><stop offset="1" stop-color="#ffffff" stop-opacity="0"/></linearGradient></defs><g transform="translate(-197.25302,-137.25303)"><g data-paper-data="{&quot;isPaintingLayer&quot;:true}" fill-rule="nonzero" stroke-linejoin="miter" stroke-miterlimit="10" stroke-dasharray="" stroke-dashoffset="0" style="mix-blend-mode: normal"><path d="M208.63952,205.58015c0.00324,-13.1024 0,-44.63208 0,-51.75c0,-3.5626 2.97813,-5.21784 6.54073,-5.21784c12.68063,0 43.89984,0 51,0c2.96729,0 5.18024,2.50056 5.18024,5.46784c0,6.43742 0,39.20833 0,51.75c0,2.95974 -2.72049,5.55758 -5.68024,5.55758c-6.61442,0 -39.17756,0 -52,0c-3.13138,0 -5.04177,-1.58613 -5.04073,-5.80758z" fill="url(#color-1)" stroke="#a97a4a" stroke-width="2" stroke-linecap="butt"/><path d="M197.25302,222.74701v-85.49398h85.49398v85.49398z" fill="none" stroke="none" stroke-width="0" stroke-linecap="butt"/><path d="M207.25301,212.74701v-65.49398h65.49398v65.49398z" fill="none" stroke="none" stroke-width="0" stroke-linecap="butt"/><g><path d="M228.9298,192.0474v-13.50497c0,0 0.58572,-0.14046 2.25084,-2.66632c0.58126,-0.88173 2.03932,-4.41011 2.86503,-4.94519c0.71343,-0.46233 1.64503,-0.02144 2.21981,-0.58423c1.08475,-1.06212 2.09601,-2.85677 4.34557,-2.44746c4.79362,-0.04089 6.12364,6.8207 6.12364,6.8207c0,0 0.61652,-0.67752 0.99951,-1.1543c0.50854,-0.6331 0.93055,-1.07095 2.12348,-0.64662c2.09133,0.7439 2.9933,4.25908 2.9933,4.25908v14.86931z" fill="#cccccc" stroke="none" stroke-width="0" stroke-linecap="butt"/><g fill="#a5a5a5" stroke="none" stroke-width="0" stroke-linecap="butt"><path d="M235.45128,178.65179c0.4561,-0.23074 2.85872,-0.74439 3.001,-0.459c0.16827,0.33754 -2.00391,1.52565 -2.54335,1.79856c-0.62385,0.31561 -2.34185,0.43179 -2.30123,0.02029c0.04101,-0.41533 1.84358,-1.35984 1.84358,-1.35984z"/><path d="M234.86445,181.38709c0.59702,-0.30204 3.74195,-0.97438 3.92818,-0.60081c0.22026,0.44182 -2.62304,1.99702 -3.32914,2.35424c-0.81659,0.41312 -3.0654,0.56519 -3.01221,0.02655c0.05368,-0.54364 2.41317,-1.77999 2.41317,-1.77999z"/></g><path d="M229.10322,178.1711c0,0 1.30478,-0.95156 1.96601,-2.02937c0.75567,-1.23174 0.93166,-2.69198 1.8687,-4.18526c0.5906,-0.94119 2.80129,-1.06419 3.10657,-1.22304c0.37268,-0.22674 2.15194,-2.78537 2.98337,-2.91945c5.78937,-0.93365 6.79785,5.36301 7.06566,6.06041c0.14672,0.38207 0.09131,1.5683 1.16633,0.55871c0.64494,-0.60569 1.0197,-1.5663 1.40429,-1.5663c0.62947,0 2.3479,0.60639 2.94252,1.42429c1.23164,1.69415 1.14704,2.94452 1.14704,2.94452" fill="none" stroke="#a5a5a5" stroke-width="1.5" stroke-linecap="round"/><g><g><path d="M215.25108,189.13226c-0.25734,-0.71251 -0.07031,-1.42827 -0.07031,-1.60561c0,-0.32517 0.97032,-0.27527 1.08423,-0.58889c0.16506,-0.45443 0.38847,-1.26373 0.94758,-1.67252c0.896,-0.6551 3.28776,-0.75233 3.28776,-0.75233l1.08345,-1.3321c0,0 -0.45787,-1.40232 0.52033,-2.66026c0.23368,-0.30049 0.83014,-0.91133 1.2774,-1.10688c0.47446,-0.20745 2.47986,-1.61027 3.17515,-1.61027c1.30196,0 2.46277,0.20789 2.46277,0.20789v14.13526l-10.38445,0.13369c0,0 -1.33632,-0.59327 -2.00703,-1.21722c-0.67072,-0.62394 -1.3769,-1.93074 -1.3769,-1.93074z" fill="#cccccc" stroke="#000000" stroke-width="0" stroke-linecap="butt"/><path d="M218.56848,192.10776c0,0 -0.81005,-0.20847 -1.71607,-0.88092c-0.98424,-0.73051 -1.83213,-3.0306 -1.6762,-3.54097c0.15593,-0.51037 0.94071,-0.24287 1.14906,-0.76422c0.73784,-1.84623 2.19754,-2.62501 4.17926,-2.46456c0.26773,0.02168 0.82585,-0.94328 0.92971,-1.26711c0.23592,-0.73562 -0.13313,-1.7837 0.59437,-2.62917c0.37557,-0.43647 0.74873,-0.98299 1.46008,-1.27807c0.92692,-0.3845 1.92955,-1.36026 2.96916,-1.62891c1.22921,-0.31765 2.42737,0.105 2.42737,0.105" fill="none" stroke="#a5a5a5" stroke-width="1.5" stroke-linecap="round"/></g><path d="M224.21936,181.14509c0.78709,-0.38122 3.60067,-0.73326 3.75112,-0.45214c0.17794,0.33248 -2.35013,1.15623 -2.92057,1.42506c-0.65969,0.31089 -2.01427,1.34962 -1.97131,0.94427c0.04336,-0.40911 0.35367,-1.53597 1.14075,-1.91719z" fill="#a5a5a5" stroke="none" stroke-width="0" stroke-linecap="butt"/></g><g><g data-paper-data="{&quot;index&quot;:null}"><path d="M252.51697,192.03906l0.11078,-14.25975c0,0 1.75202,0.02576 2.45738,1.03147c0.70536,1.00571 1.07714,3.96177 1.07714,3.96177c0,0 1.69322,-2.1848 3.13882,-2.19941c1.42439,0.80875 1.4431,4.67414 1.4431,4.67414c0,0 2.35231,-2.33189 3.14635,-1.56744c0.48358,0.46556 0.90633,1.38919 0.85022,2.53875c-0.05414,1.10921 -0.57903,2.45367 -0.57903,2.45367c0,0 0.50369,0.56663 0.62968,1.25067c0.11964,0.64952 -1.04846,1.92489 -1.04846,1.92489z" fill="#cccccc" stroke="#000000" stroke-width="0" stroke-linecap="butt"/><path d="M253.1132,177.8341c0,0 1.53825,0.25686 2.34984,1.89904c0.54453,1.1018 0.07611,2.54112 1.15879,2.88544c0.10447,0.03322 0.96254,-1.10554 1.58505,-1.65858c1.82401,-1.62044 2.39233,1.92819 2.50367,4.36549c0.03246,0.71051 2.1875,-1.9926 3.1341,-1.59702c0.91361,0.38179 1.22863,1.946 0.93232,2.89495c-0.28065,0.89882 -0.80434,1.89366 -0.66128,1.96217c0.71121,1.11551 0.51163,2.27605 -0.4465,3.18829" fill="none" stroke="#a5a5a5" stroke-width="1.5" stroke-linecap="round"/></g><path d="M254.88334,183.01527c-0.08518,0.16683 -0.9555,-0.71038 -1.22718,-0.86991c-0.31419,-0.18449 -1.1362,-0.64159 -0.95856,-0.73785c0.17929,-0.09715 0.85485,0.03266 1.27322,0.3404c0.41837,0.30774 0.98454,1.12631 0.91253,1.26736z" fill="#a5a5a5" stroke="none" stroke-width="0" stroke-linecap="butt"/></g></g></g></g></svg>