<svg version="1.1" xmlns="http://www.w3.org/2000/svg" xmlns:xlink="http://www.w3.org/1999/xlink" width="41.41093" height="41.5177" viewBox="0,0,41.41093,41.5177"><g transform="translate(-219.29454,-159.29454)"><g data-paper-data="{&quot;isPaintingLayer&quot;:true}" fill-rule="nonzero" stroke-linejoin="miter" stroke-miterlimit="10" stroke-dasharray="" stroke-dashoffset="0" style="mix-blend-mode: normal"><g><path d="M219.29454,200.70546v-41.41092h41.41093v41.41092z" data-paper-data="{&quot;index&quot;:null}" fill="#355aff" stroke="none" stroke-width="0" stroke-linecap="butt"/><path d="M248.52225,200.27399h5.20306" fill="none" stroke="#74a714" stroke-width="1" stroke-linecap="round"/><g><g><path d="M221.25104,200.81224c0,0 2.66494,-23.78131 12.14228,-23.79888c11.83219,-0.02193 11.89944,23.79888 11.89944,23.79888z" fill="#a5e62a" stroke="none" stroke-width="0" stroke-linecap="butt"/><path d="M221.25104,200.81224c0,0 1.94025,-17.31436 8.3973,-22.40642c1.11039,-0.87566 -2.18089,5.13869 0.10229,13.90682c1.76251,6.7686 6.31399,8.4996 6.31399,8.4996z" fill="#74a714" stroke="none" stroke-width="0" stroke-linecap="butt"/><path d="M229.75064,194.98394h4.61407" fill="none" stroke="#74a714" stroke-width="1" stroke-linecap="round"/><path d="M229.50779,193.52687h2.6713" fill="none" stroke="#74a714" stroke-width="1" stroke-linecap="round"/><path d="M241.89293,198.74805c0,-0.46942 0.38054,-0.84996 0.84996,-0.84996c0.46942,0 0.84996,0.38054 0.84996,0.84996c0,0.46942 -0.38054,0.84996 -0.84996,0.84996c-0.46942,0 -0.84996,-0.38054 -0.84996,-0.84996z" fill="#74a714" stroke="none" stroke-width="0" stroke-linecap="butt"/><path d="M240.19301,196.19817c0,-0.40236 0.32617,-0.72854 0.72853,-0.72854c0.40236,0 0.72854,0.32618 0.72854,0.72854c0,0.40236 -0.32618,0.72853 -0.72854,0.72853c-0.40236,0 -0.72853,-0.32617 -0.72853,-0.72853z" fill="#74a714" stroke="none" stroke-width="0" stroke-linecap="butt"/><path d="M229.75064,182.59881c0,-0.40236 0.32617,-0.72853 0.72853,-0.72853c0.40236,0 0.72854,0.32617 0.72854,0.72853c0,0.40236 -0.32618,0.72854 -0.72854,0.72854c-0.40236,0 -0.72853,-0.32618 -0.72853,-0.72854z" fill="#74a714" stroke="none" stroke-width="0" stroke-linecap="butt"/></g><g stroke="none" stroke-width="0" stroke-linecap="butt"><path d="M240.26912,200.81224c0,0 1.96887,-17.56977 8.97079,-17.58275c8.74169,-0.0162 8.79138,17.58275 8.79138,17.58275z" fill="#a5e62a"/><path d="M240.26913,200.81224c0,0 1.43347,-12.79195 6.20398,-16.554c0.82036,-0.64694 -1.61125,3.79649 0.07558,10.27444c1.30215,5.00068 4.66482,6.27956 4.66482,6.27956z" fill="#74a714"/><path d="M248.52225,196.77538c0,-0.34681 0.28115,-0.62796 0.62796,-0.62796c0.34681,0 0.62796,0.28115 0.62796,0.62796c0,0.34681 -0.28115,0.62796 -0.62796,0.62796c-0.34681,0 -0.62796,-0.28115 -0.62796,-0.62796z" fill="#74a714"/><path d="M247.44576,194.53268c0,-0.29727 0.24098,-0.53825 0.53825,-0.53825c0.29727,0 0.53825,0.24098 0.53825,0.53825c0,0.29727 -0.24098,0.53825 -0.53825,0.53825c-0.29727,0 -0.53825,-0.24098 -0.53825,-0.53825z" fill="#74a714"/><path d="M251.21349,197.94159c0,-0.29727 0.24098,-0.53825 0.53825,-0.53825c0.29727,0 0.53825,0.24098 0.53825,0.53825c0,0.29727 -0.24098,0.53825 -0.53825,0.53825c-0.29727,0 -0.53825,-0.24098 -0.53825,-0.53825z" fill="#74a714"/></g><path d="M245.11335,193.45619h2.87065" fill="none" stroke="#74a714" stroke-width="1" stroke-linecap="round"/><path d="M245.11335,191.84145h5.02364" fill="none" stroke="#74a714" stroke-width="1" stroke-linecap="round"/></g></g></g></g></svg>