<svg version="1.1" xmlns="http://www.w3.org/2000/svg" xmlns:xlink="http://www.w3.org/1999/xlink" width="112.66618" height="112.66618" viewBox="0,0,112.66618,112.66618"><g transform="translate(-183.66691,-123.66691)"><g data-paper-data="{&quot;isPaintingLayer&quot;:true}" fill-rule="nonzero" stroke="none" stroke-width="0" stroke-linecap="butt" stroke-linejoin="miter" stroke-miterlimit="10" stroke-dasharray="" stroke-dashoffset="0" style="mix-blend-mode: normal"><path d="M183.66691,236.33309v-112.66618h112.66618v112.66618z" data-paper-data="{&quot;index&quot;:null}" fill="none"/><g><path d="M249.88303,194.41939c-0.76576,0.43573 0.02895,-5.1887 -2.90991,-3.77587c-2.11013,1.01443 -4.47525,5.99679 -6.97312,5.99679c-2.54429,0 -4.95088,-5.00369 -7.09052,-6.05382c-2.86145,-1.40438 -1.47777,4.51894 -2.60447,3.90521c-5.11912,-2.78842 -6.41914,-12.0652 -6.41914,-15.01788c0,-8.89959 7.21454,-16.11413 16.11413,-16.11413c8.89959,0 16.11413,7.21454 16.11413,16.11413c0,2.92281 -1.59487,12.30748 -6.2311,14.94556z" data-paper-data="{&quot;index&quot;:null}" fill="#f32f00"/><path d="M246.65592,186.20676c-0.51572,0.29345 0.0195,-3.49443 -1.95974,-2.54294c-1.4211,0.68318 -3.01394,6.66238 -4.69619,6.66238c-1.71351,0 -3.33426,-5.99356 -4.77525,-6.70079c-1.9271,-0.94581 -0.99524,3.04337 -1.75403,2.63005c-3.44756,-1.87792 -4.32309,-4.79309 -4.32309,-6.78163c0,-5.9936 4.85878,-10.85237 10.85237,-10.85237c5.9936,0 10.85237,4.85878 10.85237,10.85237c0,1.96843 -1.07409,4.95627 -4.19645,6.73294z" data-paper-data="{&quot;index&quot;:null}" fill="#f29e4a"/><path d="M234.12437,177.01834c0,-3.24503 2.63061,-5.87563 5.87563,-5.87563c3.24503,0 5.87563,2.63061 5.87563,5.87563c0,3.24503 -2.63061,6.92798 -5.87563,6.92798c-3.24503,0 -5.87563,-3.68296 -5.87563,-6.92798z" fill="#ffffff"/></g></g></g></svg>