<svg version="1.1" xmlns="http://www.w3.org/2000/svg" xmlns:xlink="http://www.w3.org/1999/xlink" width="81.67068" height="81.67068" viewBox="0,0,81.67068,81.67068"><g transform="translate(-199.1647,-139.1647)"><g data-paper-data="{&quot;isPaintingLayer&quot;:true}" fill-rule="nonzero" stroke="none" stroke-width="0" stroke-linecap="butt" stroke-linejoin="miter" stroke-miterlimit="10" stroke-dasharray="" stroke-dashoffset="0" style="mix-blend-mode: normal"><path d="M199.1647,220.83538v-81.67068h81.67068v81.67068z" data-paper-data="{&quot;index&quot;:null}" fill="none"/><g data-paper-data="{&quot;index&quot;:null}"><g><path d="M240.17083,185.83706c10.02199,0 16.9757,3.94922 20.09766,6.94474c3.60934,3.46316 -10.27146,5.36965 -20.37642,5.36965c-10.1117,0 -23.60904,-2.12686 -20.20916,-5.22646c4.18793,-3.81805 10.46591,-7.08794 20.48792,-7.08794z" data-paper-data="{&quot;index&quot;:null}" fill="#c84f0e"/><g data-paper-data="{&quot;index&quot;:null}"><g data-paper-data="{&quot;index&quot;:null}"><path d="M231.22074,189.99632c0,0 3.54228,1.26604 4.63222,1.67984c0.69013,0.26201 2.07008,-0.04538 2.07008,0.49344c0,1.38979 -2.02374,2.51643 -4.52015,2.51643c-2.49641,0 -4.52016,-1.12664 -4.52016,-2.51643c0,-1.38979 2.33802,-2.17328 2.33802,-2.17328z" fill="#ffe2e2"/><path d="M236.6761,192.34116c0,0.72648 -1.11655,1.3154 -2.49388,1.3154c-1.37733,0 -2.49388,-0.58893 -2.49388,-1.3154c0,-0.72648 1.11655,-1.3154 2.49388,-1.3154c1.37733,0 2.49388,0.58893 2.49388,1.3154z" fill="#000000"/></g><g data-paper-data="{&quot;index&quot;:null}"><path d="M251.0159,192.16958c0,1.38979 -2.02374,2.51643 -4.52015,2.51643c-2.49641,0 -4.52015,-1.12664 -4.52015,-2.51643c0,-0.53881 1.37996,-0.23143 2.07008,-0.49344c1.08994,-0.4138 4.63222,-1.67984 4.63222,-1.67984c0,0 2.33801,0.78349 2.33801,2.17328z" fill="#ffe2e2"/><path d="M245.71641,191.02576c1.37733,0 2.49388,0.58893 2.49388,1.3154c0,0.72648 -1.11655,1.3154 -2.49388,1.3154c-1.37733,0 -2.49388,-0.58893 -2.49388,-1.3154c0,-0.72648 1.11655,-1.3154 2.49388,-1.3154z" fill="#000000"/></g><g data-paper-data="{&quot;index&quot;:null}" fill="#000000"><path d="M226.78311,189.99631v-1.14383c0,0 3.68978,0.29863 5.69447,0.7585c2.0047,0.45987 2.76481,1.14718 4.36079,1.54815c1.66839,0.41917 3.34935,0.32416 3.34935,0.32416v1.14383c0,0 -2.03083,0.23169 -3.89985,-0.22795c-1.84963,-0.45487 -2.55886,-1.15406 -4.76099,-1.73727c-2.20212,-0.58321 -4.74377,-0.66559 -4.74377,-0.66559z"/><path d="M248.38094,190.66189c-2.20212,0.58321 -2.91136,1.2824 -4.76099,1.73727c-1.86902,0.45964 -3.89985,0.22795 -3.89985,0.22795v-1.14383c0,0 1.68095,0.095 3.34935,-0.32416c1.59597,-0.40097 2.35608,-1.08828 4.36079,-1.54815c2.0047,-0.45988 5.69447,-0.7585 5.69447,-0.7585v1.14383c0,0 -2.54165,0.08238 -4.74377,0.66559z" data-paper-data="{&quot;index&quot;:null}"/></g></g></g><path d="M234.22323,198.92573c2.43892,0.42867 4.43907,0.39803 4.55045,1.17875c0.11138,0.78072 -1.98758,1.45567 -4.68817,1.50755c-2.7006,0.05187 -6.44426,-0.58226 -6.17374,-1.60158c0.37794,-1.42412 3.03505,-1.66058 6.31147,-1.08472z" data-paper-data="{&quot;index&quot;:null}" fill="#000000"/><path d="M240.26464,197.19681c5.71146,0 10.34152,-0.04004 10.34152,1.23088c0,1.27092 -4.63006,2.3012 -10.34152,2.3012c-5.71146,0 -10.34152,-1.03028 -10.34152,-2.3012c0,-1.27092 4.63006,-1.23088 10.34152,-1.23088z" fill="#ffe2e2"/><path d="M255.64772,199.28916c0.9472,1.30115 -3.53885,2.41868 -7.0729,2.56405c-3.53405,0.14538 -6.65202,-0.565 -6.96418,-1.58666c-0.31216,-1.02167 2.30072,-1.13943 5.2142,-1.88764c3.91392,-1.00514 7.49952,-0.90761 8.82288,0.91026z" fill="#000000"/></g></g></g></svg>