<svg version="1.1" xmlns="http://www.w3.org/2000/svg" xmlns:xlink="http://www.w3.org/1999/xlink" width="41.41939" height="41.41939" viewBox="0,0,41.41939,41.41939"><g transform="translate(-219.23048,-159.30581)"><g data-paper-data="{&quot;isPaintingLayer&quot;:true}" fill-rule="nonzero" stroke="none" stroke-width="0" stroke-linecap="butt" stroke-linejoin="miter" stroke-miterlimit="10" stroke-dasharray="" stroke-dashoffset="0" style="mix-blend-mode: normal"><path d="M219.23048,200.72519v-41.41938h41.41939v41.41938z" fill="#f29e4a"/><path d="M219.23048,200.7252v-1.38637h41.41939v1.38637z" fill="#000000"/><path d="M233.34751,169.48508c6.50283,0 11.77441,5.97447 11.77441,13.34434c0,7.36988 -5.27158,13.34434 -11.77441,13.34434c-6.50283,0 -11.77441,-5.97447 -11.77441,-13.34434c0,-7.36988 5.27158,-13.34434 11.77441,-13.34434z" fill="#f32f00"/><path d="M240.41216,160.06556c-0.01057,-0.32876 19.93801,0 19.93801,0c0,4.76874 -4.46327,8.63457 -9.969,8.63457c-5.50572,0 -9.81268,-3.77591 -9.969,-8.63457z" fill="#f32f00"/><path d="M219.23048,160.3782v-1.07239h41.41939v1.07239z" fill="#000000"/></g></g></svg>