<svg version="1.1" xmlns="http://www.w3.org/2000/svg" xmlns:xlink="http://www.w3.org/1999/xlink" width="109.33333" height="109.33333" viewBox="0,0,109.33333,109.33333"><g transform="translate(-185.33334,-125.33334)"><g data-paper-data="{&quot;isPaintingLayer&quot;:true}" fill-rule="nonzero" stroke="none" stroke-width="0" stroke-linecap="butt" stroke-linejoin="miter" stroke-miterlimit="10" stroke-dasharray="" stroke-dashoffset="0" style="mix-blend-mode: normal"><g><path d="M227.76452,176.24886c0,0 -1.81095,-5.46664 -3.48376,-6.63854c-1.27171,-0.8909 -4.35399,-1.68208 -4.35399,-1.68208c0,0 9.15275,-8.89631 14.11698,-9.05138c5.78963,-0.18086 -3.24322,13.01689 -3.24322,13.01689l-3.03603,4.3551z" data-paper-data="{&quot;index&quot;:null}" fill="#908816"/><path d="M225.09202,169.01622c1.16188,0.81397 2.61682,2.44492 3.00682,3.55204c0.41236,1.17061 0.43203,2.62925 -0.27055,3.63211c-0.49052,0.70018 -2.52961,-0.5455 -3.49046,-0.40015c-1.71693,0.25972 -2.66358,1.35611 -5.07954,-0.33643c-3.80367,-2.66469 -1.60098,-5.67296 0.1971,-7.23607c2.02077,-1.75671 3.06961,-1.00991 5.63665,0.78849z" data-paper-data="{&quot;index&quot;:null}" fill="#f29e4a"/></g><path d="M185.33334,234.66667v-109.33333h109.33333v109.33333z" fill="none"/><path d="M226.39255,199.75997c-1.7772,0.18586 -3.19743,-7.39108 -4.27715,-11.233c-1.07971,-3.8419 3.78734,-5.65749 3.78734,-5.65749c0,0 2.89883,7.92309 3.97855,11.76501c0,0 3.74219,2.81466 2.04565,4.31188c-0.53562,0.4727 -4.45284,0.70049 -5.53439,0.8136z" data-paper-data="{&quot;index&quot;:null}" fill="#908816"/><path d="M240.37183,154.88404c5.649,0 9.34537,3.07451 10.24345,11.28454c1.54391,14.11409 -5.35373,14.24052 -11.00037,14.48526c-13.36856,0.5794 -11.7157,-7.04983 -10.22842,-15.06467c1.54391,-8.31999 5.33635,-10.70513 10.98534,-10.70513z" data-paper-data="{&quot;index&quot;:null}" fill="#908816"/><path d="M239.65258,157.47533l3.82171,-1.16298c0,0 -0.48837,9.57083 1.33012,11.86477c1.10163,1.38969 2.32084,0.43569 2.95255,-1.46001c1.27257,-3.81887 -2.08775,-10.45003 -2.08775,-10.45003l2.84893,2.51691c0,0 1.36008,7.08782 2.32891,12.27095c0.22492,1.20331 -0.13162,3.5486 0.8146,4.46223c0.76693,0.74052 3.33902,2.12754 4.95121,3.99496c2.47807,2.87037 4.06349,6.36003 4.06349,6.36003l-13.08577,5.9615c0,0 0.08745,-1.88801 -1.35389,-3.31414c-1.09597,-1.08441 -2.24004,-2.42612 -3.75996,-2.45692c-0.58314,-0.01182 -3.12029,4.3878 -5.03021,5.70335c-1.90992,1.31555 -7.98249,3.02161 -7.98249,3.02161l-4.05422,-12.96427c0,0 1.42037,0.54424 1.78014,-0.28759c0.22518,-0.86299 -1.30647,0.04474 -0.56707,-4.04515c0.58961,-3.26132 1.59213,-7.05329 2.49838,-10.58602c0.7862,-3.06476 1.92728,-4.99187 2.82711,-7.07673c0.79979,-1.85307 2.29206,-2.65501 2.29206,-2.65501c0,0 -4.57227,9.98039 -3.16978,13.07942c1.52316,3.36567 7.91649,-1.57274 8.48792,-3.13738c1.44875,-3.96683 0.09404,-9.63952 0.09404,-9.63952z" data-paper-data="{&quot;index&quot;:null}" fill="#f32f00"/><path d="M240.02029,171.99402c0,-0.89345 0.72428,-1.61773 1.61773,-1.61773c0.89345,0 1.61773,0.72428 1.61773,1.61773c0,0.89345 -0.72428,1.61773 -1.61773,1.61773c-0.89345,0 -1.61773,-0.72428 -1.61773,-1.61773z" data-paper-data="{&quot;index&quot;:null}" fill="#f29e4a"/><path d="M246.03956,171.61554c0,-0.89345 0.72428,-1.61773 1.61773,-1.61773c0.89345,0 1.61773,0.72428 1.61773,1.61773c0,0.89345 -0.72428,1.61773 -1.61773,1.61773c-0.89345,0 -1.61773,-0.72428 -1.61773,-1.61773z" data-paper-data="{&quot;index&quot;:null}" fill="#f29e4a"/><g><path d="M229.76987,146.4272c0,-6.36705 5.2949,-10.10179 14.29865,-9.80311c8.6685,0.28757 6.15042,2.79174 9.75695,5.70181c1.47567,1.19068 4.2604,1.47329 6.11786,2.84956c1.85745,1.37627 3.0251,3.2468 3.0251,4.99026c0,1.2311 -2.18296,1.703 -3.6379,1.9604c-2.57416,0.4554 -2.70391,3.11969 -5.07532,4.21972c-3.8597,1.79039 -6.49914,1.60993 -10.76186,1.60993c-6.46481,0 -10.32574,0.21774 -12.96526,-3.63643c-1.03865,-1.51662 -0.75824,-6.09422 -0.75824,-7.89215z" data-paper-data="{&quot;index&quot;:null}" fill="#f29e4a"/><path d="M244.50273,154.34426c-0.05437,-0.49956 1.25156,-0.57915 2.17903,-1.60064c0.84133,-0.9266 1.22847,-2.81652 2.67857,-2.97432c1.36986,-0.14905 2.6571,2.08096 4.45259,2.55609c2.20051,0.5823 4.80711,-0.50837 4.8642,0.01627c0.01244,0.11431 0.35805,2.33006 -0.21124,2.7964c-0.64004,0.52428 -2.20415,-0.70202 -2.20415,-0.70202c0,0 -0.94365,1.61916 -1.74774,2.00022c-1.66394,0.78854 -2.40998,-0.48341 -2.40998,-0.48341c0,0 -2.06156,1.17688 -2.71071,0.99325c-1.16598,-0.32981 -1.83606,-1.81576 -1.83606,-1.81576c0,0 -3.00631,-0.34291 -3.05453,-0.78609z" data-paper-data="{&quot;index&quot;:null}" fill="#908816"/><path d="M232.11298,138.47955c3.99213,-1.88906 9.24927,-3.11961 10.89574,-0.83946c0.90249,1.24985 -4.70665,6.88288 -3.99386,8.02893c0.68948,1.10856 1.82943,2.31718 1.36456,3.80544c-0.19436,0.62228 -0.86471,2.21595 -1.63583,2.33733c-0.81011,0.12751 -1.73142,-1.22085 -2.32884,-0.66829c-1.44472,1.33623 -1.7646,4.3032 -3.15146,4.3032c-2.46505,0 -6.35299,0.32157 -7.42977,-1.75236c-2.06921,-3.98544 0.5381,-6.99499 0.81546,-8.31289c0.86274,-4.09939 1.47186,-5.01283 5.464,-6.90189z" data-paper-data="{&quot;index&quot;:null}" fill="#908816"/><path d="M233.55587,149.26379c0,-2.14414 1.69463,-3.53921 2.727,-3.53921c1.03237,0 1.86926,1.39507 1.86926,3.53921c0,2.14414 -0.83689,3.88231 -1.86926,3.88231c-1.03237,0 -2.727,-1.73817 -2.727,-3.88231z" data-paper-data="{&quot;index&quot;:null}" fill="#f29e4a"/><path d="M248.79254,141.35538c1.11177,0 2.01305,1.3519 2.01305,3.01957c0,1.66765 -0.90128,3.01957 -2.01305,3.01957c-1.11177,0 -2.01305,-1.3519 -2.01305,-3.01957c0,-1.66765 0.90128,-3.01957 2.01305,-3.01957z" data-paper-data="{&quot;index&quot;:null}" fill="#908816"/><path d="M228.08689,138.76717c0.50394,-0.991 2.36941,-7.54154 14.23515,-6.90189c7.10437,0.38297 9.42176,4.97308 9.90687,4.93388c3.80614,-0.30762 8.0668,1.32794 8.0668,1.968c0,1.11177 -7.53208,2.01305 -16.82335,2.01305c-9.29128,0 -16.53577,0.24904 -15.38546,-2.01305z" data-paper-data="{&quot;index&quot;:null}" fill="#f32f00"/></g><path d="M264.61403,189.33283c0.34779,1.75272 -7.06731,3.86066 -10.79425,5.28758c-3.72692,1.4269 -5.98047,-3.2535 -5.98047,-3.2535c0,0 7.62443,-3.61203 11.35136,-5.03894c0,0 4.54131,-1.44029 5.42335,3.00485z" data-paper-data="{&quot;index&quot;:null}" fill="#908816"/><g data-paper-data="{&quot;index&quot;:null}"><path d="M253.34931,175.69945c-2.5023,-0.95292 -2.33868,-2.23003 -1.96419,-5.34187c0.16951,-1.40845 1.21109,-2.33444 2.00323,-3.20063c0.83757,-0.91587 2.11439,-1.62139 3.3301,-1.47509c0.84879,0.10216 0.7125,2.48773 1.294,3.26634c1.03905,1.39128 2.16237,0.58234 1.80991,3.51104c-0.55491,4.61091 -4.24652,4.08808 -6.47306,3.2402z" data-paper-data="{&quot;index&quot;:null}" fill="#f29e4a"/><path d="M255.14518,165.59161l-2.88755,9.61793c0,0 -10.21007,0.52454 -13.67709,-3.03179c-0.19623,-0.20128 -5.92145,-5.04601 -5.92145,-5.04601l7.31552,-7.53378c0,0 4.03611,3.72159 7.21921,4.97918c3.1831,1.25759 7.95136,1.01447 7.95136,1.01447z" data-paper-data="{&quot;index&quot;:null}" fill="#908816"/></g></g></g></svg>