<svg version="1.1" xmlns="http://www.w3.org/2000/svg" xmlns:xlink="http://www.w3.org/1999/xlink" width="93.39969" height="93.39969" viewBox="0,0,93.39969,93.39969"><g transform="translate(-193.30016,-133.30015)"><g data-paper-data="{&quot;isPaintingLayer&quot;:true}" fill-rule="nonzero" stroke="#000000" stroke-width="0" stroke-linecap="butt" stroke-linejoin="miter" stroke-miterlimit="10" stroke-dasharray="" stroke-dashoffset="0" style="mix-blend-mode: normal"><path d="M193.30017,226.69985v-93.39969h93.39969v93.39969z" fill="none"/><path d="M240,168.29016c7.32861,0 11.08749,5.24263 11.08749,11.70976c0,6.46713 -3.52058,11.74671 -11.08749,11.70976c-8.05509,-0.03933 -11.08749,-5.24263 -11.08749,-11.70976c0,-6.46713 3.51784,-11.70976 11.08749,-11.70976z" fill="#ffb770"/><g><path d="M239.90369,172.78017c3.93234,0 6.79915,4.00166 6.79915,7.79758c0,3.79592 -1.88905,6.89482 -5.94925,6.87312c-2.03826,-0.01088 -4.61036,-1.00401 -5.5619,-2.12298c-1.0662,-1.25379 -0.38734,-2.74434 -0.38734,-4.75014c0,-3.79592 1.03768,-7.79758 5.09934,-7.79758z" fill="#f0871e"/><path d="M239.24641,172.54906c1.68357,0 3.86598,0.56407 4.83938,1.5071c1.30017,1.2596 1.10987,3.19529 1.10987,5.36603c0,3.79592 -1.88905,7.51112 -5.94925,7.48943c-4.32212,-0.02309 -5.94925,-3.69351 -5.94925,-7.48943c0,-3.79592 1.88758,-6.87312 5.94925,-6.87312z" fill="#ffffff"/><path d="M239.93358,173.1174c3.93234,0 5.94925,3.0772 5.94925,6.87312c0,3.79592 -1.88905,6.89482 -5.94925,6.87312c-4.32215,-0.02309 -5.94925,-3.0772 -5.94925,-6.87312c0,-3.79592 1.88758,-6.87312 5.94925,-6.87312z" fill="#ffb770"/></g></g></g></svg>