<svg version="1.1" xmlns="http://www.w3.org/2000/svg" xmlns:xlink="http://www.w3.org/1999/xlink" width="43.10594" height="41.66351" viewBox="0,0,43.10594,41.66351"><g transform="translate(-218.44703,-158.94096)"><g data-paper-data="{&quot;isPaintingLayer&quot;:true}" fill-rule="nonzero" stroke="none" stroke-width="0" stroke-linecap="butt" stroke-linejoin="miter" stroke-miterlimit="10" stroke-dasharray="" stroke-dashoffset="0" style="mix-blend-mode: normal"><g><path d="M237.61892,200.60447v-32.78003h4.73489v32.78003z" data-paper-data="{&quot;index&quot;:null}" fill="#20ad00"/><g><path d="M240,158.94096c10.57358,0 19.14517,3.74033 19.14517,8.35426c0,4.61393 -8.57158,8.35426 -19.14517,8.35426c-10.57358,0 -19.14517,-3.74033 -19.14517,-8.35426c0,-4.61393 8.57158,-8.35426 19.14517,-8.35426z" fill="#ffffff"/><path d="M240,161.98679c6.96896,0 12.61841,2.37666 12.61841,5.30843c0,2.93176 -5.64946,5.30843 -12.61841,5.30843c-6.96896,0 -12.61841,-2.37666 -12.61841,-5.30843c0,-2.93176 5.64946,-5.30843 12.61841,-5.30843z" fill="#f29e4a"/><path d="M233.29919,167.29522c0,-1.55687 3.00006,-2.81896 6.70081,-2.81896c3.70076,0 6.70081,1.26209 6.70081,2.81896c0,1.55687 -3.00006,2.81896 -6.70081,2.81896c-3.70076,0 -6.70081,-1.26209 -6.70081,-2.81896z" fill="#f32f00"/></g><g fill="#20ad00"><path d="M234.32536,187.19564c3.25912,2.91605 2.91168,7.13479 3.56466,9.44425c0.43309,1.53172 2.71336,2.1159 1.75495,3.11047c-1.30918,1.35859 -6.69471,1.32944 -12.1154,-3.52065c-2.3281,-2.08303 -2.78826,-5.09018 -3.98674,-7.8434c-1.59204,-3.65732 -5.0958,-5.92587 -5.0958,-5.92587c0,0 10.45764,-0.11489 15.87834,4.7352z" data-paper-data="{&quot;index&quot;:null}"/><path d="M261.55297,182.46044c0,0 -3.50375,2.26856 -5.0958,5.92587c-1.19849,2.75322 -1.65864,5.76037 -3.98675,7.8434c-5.42069,4.85009 -10.80621,4.87924 -12.1154,3.52065c-0.9584,-0.99456 1.32186,-1.57875 1.75495,-3.11047c0.65298,-2.30946 0.30554,-6.52821 3.56466,-9.44425c5.42069,-4.85009 15.87833,-4.73521 15.87833,-4.73521z" data-paper-data="{&quot;index&quot;:null}"/></g></g></g></g></svg>