<svg version="1.1" xmlns="http://www.w3.org/2000/svg" xmlns:xlink="http://www.w3.org/1999/xlink" width="81.67068" height="81.67068" viewBox="0,0,81.67068,81.67068"><g transform="translate(-199.16466,-139.16466)"><g data-paper-data="{&quot;isPaintingLayer&quot;:true}" fill-rule="nonzero" stroke="none" stroke-width="0" stroke-linecap="butt" stroke-linejoin="miter" stroke-miterlimit="10" stroke-dasharray="" stroke-dashoffset="0" style="mix-blend-mode: normal"><path d="M199.16466,220.83534v-81.67068h81.67068v81.67068z" data-paper-data="{&quot;index&quot;:null}" fill="none"/><g><path d="M256.92772,182.25205c2.83269,7.03826 -8.41296,11.86773 -16.83778,11.86773c-8.4192,0 -19.98434,-4.32907 -16.97713,-12.19288c2.60114,-6.80194 8.3948,-15.76945 16.74488,-15.76945c8.35009,0 13.58075,7.42495 17.07003,16.0946z" data-paper-data="{&quot;index&quot;:null}" fill="#148382"/><g data-paper-data="{&quot;index&quot;:null}"><g data-paper-data="{&quot;index&quot;:null}"><path d="M249.26266,180.53677c0,3.15579 -1.68614,5.71406 -3.76609,5.71406c-2.07995,0 -3.76608,-2.55827 -3.76608,-5.71406c0,-1.22349 1.14974,-0.52551 1.72474,-1.12045c0.90811,-0.93962 3.85945,-3.81442 3.85945,-3.81442c0,0 1.94798,1.77908 1.94798,4.93487z" fill="#9bf2ff"/><path d="M244.84725,177.93943c1.14756,0 2.07784,1.33727 2.07784,2.98689c0,1.64961 -0.93028,2.98689 -2.07784,2.98689c-1.14756,0 -2.07784,-1.33727 -2.07784,-2.98689c0,-1.64961 0.93028,-2.98689 2.07784,-2.98689z" fill="#000000"/></g><g data-paper-data="{&quot;index&quot;:null}"><path d="M232.76981,175.60186c0,0 2.95134,2.8748 3.85945,3.81442c0.57499,0.59495 1.72474,-0.10303 1.72474,1.12045c0,3.15579 -1.68613,5.71406 -3.76608,5.71406c-2.07995,0 -3.76608,-2.55827 -3.76608,-5.71406c0,-3.15579 1.94797,-4.93487 1.94797,-4.93487z" fill="#9bf2ff"/><path d="M237.31509,180.92634c0,1.64961 -0.93028,2.98689 -2.07784,2.98689c-1.14756,0 -2.07784,-1.33727 -2.07784,-2.98689c0,-1.64961 0.93028,-2.98689 2.07784,-2.98689c1.14756,0 2.07784,1.33727 2.07784,2.98689z" fill="#000000"/></g><g data-paper-data="{&quot;index&quot;:null}" fill="#000000"><path d="M251.01201,175.60188c0,0 -2.11764,0.18706 -3.95239,1.51136c-1.83476,1.3243 -2.42567,2.91194 -3.96674,3.94482c-1.55722,1.0437 -3.24926,0.5176 -3.24926,0.5176v-2.5973c0,0 1.40054,0.21572 2.7906,-0.73608c1.32973,-0.91049 1.96303,-2.47116 3.6333,-3.51539c1.67026,-1.04423 4.74449,-1.72232 4.74449,-1.72232v2.5973z"/><path d="M233.01723,177.1132c-1.83475,-1.3243 -3.95239,-1.51136 -3.95239,-1.51136v-2.5973c0,0 3.07422,0.67808 4.74449,1.72232c1.67027,1.04424 2.30358,2.6049 3.6333,3.51539c1.39007,0.9518 2.7906,0.73608 2.7906,0.73608v2.5973c0,0 -1.69204,0.5261 -3.24926,-0.5176c-1.54107,-1.03287 -2.13199,-2.62052 -3.96674,-3.94482z" data-paper-data="{&quot;index&quot;:null}"/></g></g></g><path d="M250.07164,197.64483c0.22539,2.31458 -2.89374,3.7545 -5.14381,3.63671c-2.25007,-0.1178 -3.99887,-1.65041 -3.90607,-3.42319c0.0928,-1.77279 1.75927,-1.70321 3.79132,-2.67659c2.72983,-1.30762 4.94367,-0.77068 5.25856,2.46307z" data-paper-data="{&quot;index&quot;:null}" fill="#000000"/><path d="M248.39583,194.05083c0,2.88588 -3.85765,5.22535 -8.6163,5.22535c-4.75865,0 -8.6163,-2.33947 -8.6163,-5.22535c0,-2.88588 3.85765,-2.79496 8.6163,-2.79496c4.75865,0 8.6163,-0.09093 8.6163,2.79496z" fill="#9bf2ff"/><path d="M234.31373,193.94007c2.42744,1.69898 4.60442,1.96638 4.34434,4.28628c-0.26008,2.3199 -2.8579,3.93295 -5.80238,3.60284c-2.94449,-0.3301 -6.68215,-2.86768 -5.89297,-5.8222c1.10259,-4.12783 4.09003,-4.3493 7.35101,-2.06692z" fill="#000000"/></g></g></svg>