<svg version="1.1" xmlns="http://www.w3.org/2000/svg" xmlns:xlink="http://www.w3.org/1999/xlink" width="85.49398" height="85.49398" viewBox="0,0,85.49398,85.49398"><defs><linearGradient x1="-3285.69704" y1="-2895.28054" x2="-3285.69704" y2="4105.40968" gradientUnits="userSpaceOnUse" id="color-1"><stop offset="0" stop-color="#ffffff"/><stop offset="1" stop-color="#ffffff" stop-opacity="0"/></linearGradient></defs><g transform="translate(-197.25302,-137.25303)"><g data-paper-data="{&quot;isPaintingLayer&quot;:true}" fill-rule="nonzero" stroke-linecap="butt" stroke-linejoin="miter" stroke-miterlimit="10" stroke-dasharray="" stroke-dashoffset="0" style="mix-blend-mode: normal"><path d="M197.25302,222.74701v-85.49398h85.49398v85.49398z" fill="none" stroke="none" stroke-width="0"/><path d="M208.63952,205.58014c0.00324,-13.1024 0,-44.63208 0,-51.75c0,-3.5626 2.97813,-5.21784 6.54073,-5.21784c12.68063,0 43.89984,0 51,0c2.96729,0 5.18024,2.50056 5.18024,5.46784c0,6.43742 0,39.20833 0,51.75c0,2.95974 -2.72049,5.55758 -5.68024,5.55758c-6.61442,0 -39.17756,0 -52,0c-3.13138,0 -5.04177,-1.58613 -5.04073,-5.80758z" fill="url(#color-1)" stroke="#a97a4a" stroke-width="2"/><g stroke="none" stroke-width="0"><path d="M218.99303,200.60429v-41.18869h41.41092v41.18869z" data-paper-data="{&quot;index&quot;:null}" fill="#dc570f"/><path d="M230.41419,180.33147c0.72892,0.60277 0.54892,12.43822 0.25492,12.64664c-1.2252,0.86854 -1.46341,-1.34607 -2.21821,0.10646c-0.99982,1.92401 -1.68768,5.34611 -2.14858,5.34611c-0.80881,0 0.1315,-10.91979 2.62575,-8.20418z" data-paper-data="{&quot;index&quot;:null}" fill="#582306"/><path d="M251.02568,179.86919c0.72892,0.60277 0.54892,12.43822 0.25492,12.64664c-1.2252,0.86854 -1.46341,-1.34606 -2.21821,0.10646c-0.99982,1.92401 -1.68768,5.34611 -2.14858,5.34611c-0.80881,0 0.13151,-10.91979 2.62575,-8.20419z" data-paper-data="{&quot;index&quot;:null}" fill="#582306"/><path d="M229.96248,161.68582c0.72892,0.60277 0.54892,12.43822 0.25492,12.64665c-1.2252,0.86853 -1.46341,-1.34607 -2.21821,0.10646c-0.99982,1.92401 -1.68767,5.34611 -2.14857,5.34611c-0.80881,0 0.1315,-10.91978 2.62575,-8.20418z" data-paper-data="{&quot;index&quot;:null}" fill="#582306"/><path d="M250.91275,161.33588c0.72892,0.60277 0.54891,12.43821 0.25491,12.64664c-1.2252,0.86853 -1.4634,-1.34606 -2.2182,0.10647c-0.99982,1.92401 -1.68769,5.34611 -2.14858,5.34611c-0.80881,0 0.13151,-10.91979 2.62575,-8.20419z" data-paper-data="{&quot;index&quot;:null}" fill="#582306"/></g></g></g></svg>