<svg version="1.1" xmlns="http://www.w3.org/2000/svg" xmlns:xlink="http://www.w3.org/1999/xlink" width="81.67068" height="81.67068" viewBox="0,0,81.67068,81.67068"><g transform="translate(-199.16466,-139.16466)"><g data-paper-data="{&quot;isPaintingLayer&quot;:true}" fill-rule="nonzero" stroke="none" stroke-width="0" stroke-linecap="butt" stroke-linejoin="miter" stroke-miterlimit="10" stroke-dasharray="" stroke-dashoffset="0" style="mix-blend-mode: normal"><path d="M199.16466,220.83534v-81.67068h81.67068v81.67068z" data-paper-data="{&quot;index&quot;:null}" fill="none"/><path d="M228.68416,195.94124h-8.44444v-31.88247h8.44444z" fill="#cccccc"/><path d="M221.51343,170.29844v-4.18499h5.32635v4.18499z" fill="#ffffff"/><g fill="#aeaeae"><path d="M226.07887,199.48531v-38.97061h18.45199c0,0 17.78277,12.4169 17.78277,18.79246c0,6.60644 -17.78277,20.17815 -17.78277,20.17815z"/><path d="M244.40976,199.4853v-38.97061c0,0 19.97381,6.61968 19.97381,19.29508c0,12.6754 -19.97381,19.67553 -19.97381,19.67553z"/><path d="M215.61643,199.48531v-38.97061h6.84817v38.97061z"/></g><path d="M230.07365,165.92322v-1.90227c0,0 8.75002,0 13.5061,0c5.32494,0 12.55496,6.27748 12.55496,6.27748v1.90227c0,0 -7.23002,-6.27748 -12.55496,-6.27748c-4.75608,0 -13.5061,0 -13.5061,0z" fill="#ffffff"/><path d="M253.3335,173.34562c4.18187,1.38754 7.74708,5.13564 7.74708,5.20326c0,3.76772 -1.66794,6.606 -4.92478,6.606c-3.25684,0 -6.86928,-2.83828 -6.86928,-6.606c0,-3.76772 3.37024,-5.4278 4.04698,-5.20326z" fill="#cccccc"/><path d="M251.123,178.44086c0,-3.76772 1.53377,-5.31979 2.21051,-5.09524c4.18186,1.38753 7.74708,5.13564 7.74708,5.20326c0,3.76771 -1.77597,5.20163 -5.03281,5.20163c-1.85248,0 -4.92478,-2.08208 -4.92478,-5.30966z" fill="#ffffff"/><path d="M257.08582,179.71466c0,-0.99806 0.80909,-1.80715 1.80715,-1.80715c0.99806,0 1.80715,0.80909 1.80715,1.80715c0,0.99806 -0.80909,1.80715 -1.80715,1.80715c-0.99806,0 -1.80715,-0.80909 -1.80715,-1.80715z" fill="#aeaeae"/><path d="M229.51375,182.64193c0,-2.60862 2.11471,-4.72333 4.72333,-4.72333c2.60862,0 4.72333,2.11471 4.72333,4.72333c0,2.60862 -2.11471,4.72333 -4.72333,4.72333c-2.60862,0 -4.72333,-2.11471 -4.72333,-4.72333z" fill="#cccccc"/><g fill="#ffffff"><path d="M238.99719,190.93805c0,-1.69732 0.50694,-4.70441 1.07439,-5.56902c0.5147,-0.78423 3.16422,-1.35569 3.73327,-1.06356c1.74103,0.89377 0.68062,2.7681 0.97114,3.02228c0.48735,0.42638 4.07875,0.19057 4.07875,1.79363c0,1.07446 -0.59901,1.94652 -1.17303,3.08898c-0.38525,0.76676 -0.34973,2.02736 -0.84582,2.69768c-0.82458,1.11417 -2.2639,1.45146 -3.27326,1.45146c-2.52142,0 -4.56544,-2.42727 -4.56544,-5.42146z"/><path d="M230.72482,183.67139c0.26639,-1.8876 1.43691,-3.45167 3.20944,-3.45167c1.77253,0 3.63675,2.14088 2.725,3.815c-3.14889,5.78185 4.29944,4.29944 4.29944,4.29944l-1.39557,4.97159c0,0 -10.41275,1.52188 -8.83831,-9.63437z"/></g></g></g></svg>