<svg version="1.1" xmlns="http://www.w3.org/2000/svg" xmlns:xlink="http://www.w3.org/1999/xlink" width="81.67068" height="81.67068" viewBox="0,0,81.67068,81.67068"><g transform="translate(-199.16466,-139.16466)"><g data-paper-data="{&quot;isPaintingLayer&quot;:true}" fill-rule="nonzero" stroke="none" stroke-width="0" stroke-linecap="butt" stroke-linejoin="miter" stroke-miterlimit="10" stroke-dasharray="" stroke-dashoffset="0" style="mix-blend-mode: normal"><path d="M199.16466,220.83534v-81.67068h81.67068v81.67068z" data-paper-data="{&quot;index&quot;:null}" fill="none"/><g><path d="M240.1423,165.80935c8.35008,0 14.14374,8.96751 16.74488,15.76945c3.00721,7.86381 -8.55793,12.19288 -16.97713,12.19288c-8.42482,0 -19.67047,-4.82947 -16.83778,-11.86773c3.48928,-8.66965 8.71994,-16.0946 17.07003,-16.0946z" data-paper-data="{&quot;index&quot;:null}" fill="#148382"/><g data-paper-data="{&quot;index&quot;:null}"><g data-paper-data="{&quot;index&quot;:null}"><path d="M232.68531,175.25379c0,0 2.95134,2.8748 3.85945,3.81442c0.575,0.59494 1.72474,-0.10304 1.72474,1.12045c0,3.15579 -1.68613,5.71406 -3.76608,5.71406c-2.07995,0 -3.76609,-2.55827 -3.76609,-5.71406c0,-3.15579 1.94798,-4.93487 1.94798,-4.93487z" fill="#9bf2ff"/><path d="M237.23058,180.57822c0,1.64962 -0.93028,2.98689 -2.07784,2.98689c-1.14756,0 -2.07784,-1.33728 -2.07784,-2.98689c0,-1.64962 0.93028,-2.98689 2.07784,-2.98689c1.14756,0 2.07784,1.33728 2.07784,2.98689z" fill="#000000"/></g><g data-paper-data="{&quot;index&quot;:null}"><path d="M249.17815,180.18863c0,3.15579 -1.68613,5.71406 -3.76608,5.71406c-2.07995,0 -3.76608,-2.55827 -3.76608,-5.71406c0,-1.22348 1.14975,-0.5255 1.72474,-1.12045c0.90811,-0.93962 3.85945,-3.81442 3.85945,-3.81442c0,0 1.94797,1.77908 1.94797,4.93487z" fill="#9bf2ff"/><path d="M244.76274,177.59135c1.14756,0 2.07784,1.33728 2.07784,2.98689c0,1.64962 -0.93028,2.98689 -2.07784,2.98689c-1.14756,0 -2.07784,-1.33728 -2.07784,-2.98689c0,-1.64962 0.93028,-2.98689 2.07784,-2.98689z" fill="#000000"/></g><g data-paper-data="{&quot;index&quot;:null}" fill="#000000"><path d="M228.98798,175.25377v-2.5973c0,0 3.07423,0.67809 4.74449,1.72232c1.67027,1.04423 2.30357,2.6049 3.6333,3.51539c1.39006,0.9518 2.7906,0.73608 2.7906,0.73608v2.5973c0,0 -1.69204,0.5261 -3.24926,-0.5176c-1.54107,-1.03288 -2.13198,-2.62052 -3.96674,-3.94482c-1.83475,-1.3243 -3.95239,-1.51136 -3.95239,-1.51136z"/><path d="M246.98276,176.76511c-1.83475,1.3243 -2.42567,2.91195 -3.96674,3.94482c-1.55722,1.0437 -3.24926,0.5176 -3.24926,0.5176v-2.5973c0,0 1.40053,0.21572 2.7906,-0.73608c1.32972,-0.91049 1.96303,-2.47115 3.6333,-3.51539c1.67027,-1.04424 4.74449,-1.72232 4.74449,-1.72232v2.5973c0,0 -2.11764,0.18706 -3.95239,1.51136z" data-paper-data="{&quot;index&quot;:null}"/></g></g></g><path d="M234.67689,194.36104c2.30516,1.1042 4.1956,1.02527 4.30088,3.03632c0.10527,2.01104 -1.87857,3.74964 -4.43104,3.88327c-2.55248,0.13362 -6.09082,-1.49982 -5.83513,-4.12548c0.35721,-3.66837 2.86859,-4.27747 5.96531,-2.7941z" data-paper-data="{&quot;index&quot;:null}" fill="#000000"/><path d="M240.22046,191.25587c4.75865,0 8.6163,-0.09092 8.6163,2.79496c0,2.88588 -3.85765,5.22535 -8.6163,5.22535c-4.75865,0 -8.6163,-2.33947 -8.6163,-5.22535c0,-2.88589 3.85765,-2.79496 8.6163,-2.79496z" fill="#9bf2ff"/><path d="M251.83469,196.6963c0.67301,2.5196 -2.51445,4.68364 -5.0255,4.96515c-2.51104,0.28152 -4.72645,-1.09409 -4.94825,-3.07249c-0.2218,-1.9784 1.63472,-2.20644 3.70484,-3.65532c2.78095,-1.9464 5.32863,-1.75754 6.26891,1.76266z" fill="#000000"/></g></g></svg>