<svg version="1.1" xmlns="http://www.w3.org/2000/svg" xmlns:xlink="http://www.w3.org/1999/xlink" width="85.49398" height="85.49398" viewBox="0,0,85.49398,85.49398"><defs><linearGradient x1="-3285.69704" y1="-2895.28052" x2="-3285.69704" y2="4105.40968" gradientUnits="userSpaceOnUse" id="color-1"><stop offset="0" stop-color="#ffffff"/><stop offset="1" stop-color="#ffffff" stop-opacity="0"/></linearGradient></defs><g transform="translate(-197.25302,-137.25304)"><g data-paper-data="{&quot;isPaintingLayer&quot;:true}" fill-rule="nonzero" stroke-linecap="butt" stroke-linejoin="miter" stroke-miterlimit="10" stroke-dasharray="" stroke-dashoffset="0" style="mix-blend-mode: normal"><g><path d="M208.63952,205.58016c0.00324,-13.1024 0,-44.63208 0,-51.75c0,-3.5626 2.97813,-5.21784 6.54073,-5.21784c12.68063,0 43.89984,0 51,0c2.96729,0 5.18024,2.50056 5.18024,5.46784c0,6.43742 0,39.20833 0,51.75c0,2.95974 -2.72049,5.55758 -5.68024,5.55758c-6.61442,0 -39.17756,0 -52,0c-3.13138,0 -5.04177,-1.58613 -5.04073,-5.80758z" fill="url(#color-1)" stroke="#a97a4a" stroke-width="2"/><path d="M197.25302,222.74702v-85.49398h85.49398v85.49398z" fill="none" stroke="none" stroke-width="0"/></g><g stroke="none" stroke-width="0"><path d="M251.31584,164.05877h8.44444v31.88247h-8.44444z" fill="#cccccc"/><path d="M253.16022,170.29844v-4.18499h5.32635v4.18499z" fill="#ffffff"/><g fill="#aeaeae"><path d="M235.46914,199.48531c0,0 -17.78277,-13.57171 -17.78277,-20.17815c0,-6.37556 17.78277,-18.79246 17.78277,-18.79246h18.45199v38.97061z"/><path d="M215.61643,179.80977c0,-12.6754 19.97381,-19.29508 19.97381,-19.29508v38.97061c0,0 -19.97381,-7.00013 -19.97381,-19.67553z"/><path d="M257.5354,199.48531v-38.97061h6.84817v38.97061z"/></g><path d="M236.42025,165.92322c-5.32494,0 -12.55496,6.27748 -12.55496,6.27748v-1.90227c0,0 7.23002,-6.27748 12.55496,-6.27748c4.75608,0 13.5061,0 13.5061,0v1.90227c0,0 -8.75002,0 -13.5061,0z" fill="#ffffff"/><path d="M230.71348,178.54888c0,3.76772 -3.61244,6.606 -6.86928,6.606c-3.25684,0 -4.92478,-2.83828 -4.92478,-6.606c0,-0.06762 3.56521,-3.81572 7.74708,-5.20326c0.67674,-0.22454 4.04698,1.43554 4.04698,5.20326z" fill="#cccccc"/><path d="M228.877,178.44085c0,3.22758 -3.0723,5.30966 -4.92478,5.30966c-3.25684,0 -5.03281,-1.43392 -5.03281,-5.20163c0,-0.06762 3.56522,-3.81573 7.74708,-5.20326c0.67674,-0.22455 2.21051,1.32752 2.21051,5.09524z" fill="#ffffff"/><path d="M221.10703,181.52181c-0.99806,0 -1.80715,-0.80909 -1.80715,-1.80715c0,-0.99806 0.80909,-1.80715 1.80715,-1.80715c0.99806,0 1.80715,0.80909 1.80715,1.80715c0,0.99806 -0.80909,1.80715 -1.80715,1.80715z" fill="#aeaeae"/><path d="M245.76292,187.36526c-2.60862,0 -4.72333,-2.11471 -4.72333,-4.72333c0,-2.60862 2.11471,-4.72333 4.72333,-4.72333c2.60862,0 4.72333,2.11471 4.72333,4.72333c0,2.60862 -2.11471,4.72333 -4.72333,4.72333z" fill="#cccccc"/><g fill="#ffffff"><path d="M241.00281,190.93804c0,2.99419 -2.04402,5.42146 -4.56544,5.42146c-1.00936,0 -2.44868,-0.33729 -3.27326,-1.45146c-0.49609,-0.67032 -0.46057,-1.93092 -0.84582,-2.69768c-0.57402,-1.14246 -1.17303,-2.01452 -1.17303,-3.08898c0,-1.60306 3.5914,-1.36725 4.07875,-1.79363c0.29052,-0.25418 -0.76989,-2.12851 0.97114,-3.02228c0.56905,-0.29213 3.21857,0.27933 3.73327,1.06356c0.56745,0.86461 1.07439,3.8717 1.07439,5.56902z"/><path d="M249.27518,183.67138c1.57444,11.15625 -8.83831,9.63437 -8.83831,9.63437l-1.39557,-4.97159c0,0 7.44833,1.48241 4.29944,-4.29944c-0.91175,-1.67412 0.95247,-3.815 2.725,-3.815c1.77253,0 2.94305,1.56407 3.20944,3.45167z"/></g></g></g></g></svg>