<svg version="1.1" xmlns="http://www.w3.org/2000/svg" xmlns:xlink="http://www.w3.org/1999/xlink" width="112.66618" height="112.66618" viewBox="0,0,112.66618,112.66618"><g transform="translate(-183.66691,-123.66691)"><g data-paper-data="{&quot;isPaintingLayer&quot;:true}" fill-rule="nonzero" stroke="none" stroke-width="0" stroke-linecap="butt" stroke-linejoin="miter" stroke-miterlimit="10" stroke-dasharray="" stroke-dashoffset="0" style="mix-blend-mode: normal"><path d="M183.66691,236.33309v-112.66618h112.66618v112.66618z" data-paper-data="{&quot;index&quot;:null}" fill="none"/><g><g fill="#f29e4a"><g data-paper-data="{&quot;index&quot;:null}"><path d="M254.13783,181.11935c0,0 7.05423,5.94724 6.74502,6.68862c-0.26789,0.64232 -9.35084,0.57312 -9.35084,0.57312c0,0 -0.94319,-1.61338 -0.01859,-4.18999c0.86161,-2.40108 2.62441,-3.07174 2.62441,-3.07174z" data-paper-data="{&quot;index&quot;:null}"/><path d="M228.48657,184.3911c0.9246,2.57661 -0.01859,4.18999 -0.01859,4.18999c0,0 -9.08294,0.06921 -9.35084,-0.57312c-0.30921,-0.74138 6.74502,-6.68862 6.74502,-6.68862c0,0 1.76279,0.67066 2.6244,3.07174z" data-paper-data="{&quot;index&quot;:null}"/></g><g><path d="M251.51343,175.31152c-0.9246,-2.57661 0.01859,-4.18999 0.01859,-4.18999c0,0 9.08294,-0.06921 9.35084,0.57312c0.30921,0.74138 -6.74503,6.68862 -6.74503,6.68862c0,0 -1.76279,-0.67066 -2.6244,-3.07174z" data-paper-data="{&quot;index&quot;:null}"/><path d="M225.86217,178.18326c0,0 -7.05423,-5.94724 -6.74503,-6.68862c0.26789,-0.64232 9.35084,-0.57312 9.35084,-0.57312c0,0 0.94318,1.61338 0.01859,4.18999c-0.86161,2.40108 -2.6244,3.07175 -2.6244,3.07175z" data-paper-data="{&quot;index&quot;:null}"/></g><g data-paper-data="{&quot;index&quot;:null}"><path d="M247.12873,191.27659c2.31894,-1.45475 4.09683,-0.87883 4.09683,-0.87883c0,0 2.01204,8.85756 1.44197,9.25675c-0.658,0.46075 -7.97751,-5.15678 -7.97751,-5.15678c0,0 0.27774,-1.8655 2.43871,-3.22115z" data-paper-data="{&quot;index&quot;:null}"/><path d="M232.3721,191.02069c2.32243,1.44917 2.58206,3.2999 2.58206,3.2999c0,0 -7.08558,5.68325 -7.69389,5.34517c-0.70212,-0.39022 1.14851,-9.42942 1.14851,-9.42942c0,0 1.7991,-0.5661 3.96332,0.78436z" data-paper-data="{&quot;index&quot;:null}"/></g><path d="M244.69002,165.50225c0,0 7.31952,-5.61752 7.97751,-5.15677c0.57008,0.39919 -1.44197,9.25675 -1.44197,9.25675c0,0 -1.77789,0.57593 -4.09682,-0.87882c-2.16097,-1.35565 -2.43871,-3.22115 -2.43871,-3.22115z" data-paper-data="{&quot;index&quot;:null}"/><path d="M228.40878,169.76366c0,0 -1.85063,-9.0392 -1.14851,-9.42942c0.60831,-0.33808 7.69388,5.34517 7.69388,5.34517c0,0 -0.25962,1.85072 -2.58205,3.2999c-2.16422,1.35045 -3.96332,0.78436 -3.96332,0.78436z" data-paper-data="{&quot;index&quot;:null}"/></g><path d="M225.03937,180.1465c0,8.89178 6.62618,16.1 14.8,16.1c8.17381,0 14.8,-7.20821 14.8,-16.1c0,-8.89178 -6.62619,-16.1 -14.8,-16.1c-8.17381,0 -14.8,7.20821 -14.8,16.1z" fill="#f32f00"/><path d="M231.37542,169.64395c-2.11944,2.17595 -2.7792,4.97081 -1.47363,6.24247c1.30557,1.27167 2.08209,-1.26142 4.20153,-3.43737c2.11944,-2.17595 4.77921,-3.1708 3.47364,-4.44246c-1.30557,-1.27167 -4.08209,-0.53859 -6.20153,1.63736z" fill="#ffffff"/><path d="M241.97749,191.60368c-1.30557,-1.27167 1.3542,-2.26651 3.47363,-4.44246c2.11944,-2.17595 2.89596,-4.70904 4.20153,-3.43737c1.30557,1.27167 0.64581,4.06652 -1.47363,6.24247c-2.11944,2.17595 -4.89596,2.90903 -6.20153,1.63737z" data-paper-data="{&quot;index&quot;:null}" fill="#ffffff"/></g></g></g></svg>