<svg version="1.1" xmlns="http://www.w3.org/2000/svg" xmlns:xlink="http://www.w3.org/1999/xlink" width="330.44442" height="164.28593" viewBox="0,0,330.44442,164.28593"><defs><linearGradient x1="239.99999" y1="18.268" x2="239.99999" y2="180.05391" gradientUnits="userSpaceOnUse" id="color-1"><stop offset="0" stop-color="#c84c0c"/><stop offset="1" stop-color="#aa3900"/></linearGradient></defs><g transform="translate(-74.77779,-16.77596)"><g data-paper-data="{&quot;isPaintingLayer&quot;:true}" fill-rule="nonzero" stroke-linecap="butt" stroke-linejoin="miter" stroke-miterlimit="10" stroke-dasharray="" stroke-dashoffset="0" style="mix-blend-mode: normal"><g><path d="M76.02779,179.81186v-161.7859h327.94442v161.78593z" fill="url(#color-1)" stroke="#fcbcb0" stroke-width="2.5"/><g><g fill="#000000" stroke="none" stroke-width="0"><path d="M199.3453,173.7854v-74.7505h11.24381v74.7505z"/><g><path d="M169.36183,173.7854v-74.7505h11.24381v74.7505z"/><path d="M184.58781,128.81015v-14.78354h11.24381v14.78354z"/><path d="M169.54829,114.40852c0,-8.54811 5.83127,-15.47772 13.02453,-15.47772c7.19326,0 13.02453,6.92962 13.02453,15.47772c0,0.99484 -0.22987,-0.12452 -0.22987,-0.12452l-25.86259,0.18929c0,0 0.0434,0.88994 0.0434,-0.06478z"/><path d="M184.62127,173.7854v-36.2003h7.30849c0,0 1.11819,0.38923 2.16249,2.18009c0.91478,1.56875 1.77282,4.43106 1.77282,6.1338c0,6.56587 0,27.88645 0,27.88645z"/><path d="M182.26784,128.59396l13.09963,-0.05039c0,0 0.22987,-1.11932 0.22987,-0.12452c0,8.54811 -5.83127,15.47772 -13.02453,15.47772c-0.39731,0 -0.16965,-0.06253 -0.16965,-0.06253z" data-paper-data="{&quot;index&quot;:null}"/></g><g><path d="M214.33707,158.79365v-44.76703h11.24381v44.76703z"/><path d="M229.32882,158.79365v-44.76703h11.24381v44.76703z"/><path d="M214.52353,114.40852c0,-8.54811 5.83127,-15.47772 13.02453,-15.47772c7.19326,0 13.02453,6.92962 13.02453,15.47772c0,0.99484 -0.22987,-0.12452 -0.22987,-0.12452l-25.86259,0.18929c0,0 0.0434,0.88994 0.0434,-0.06478z"/><path d="M214.48012,158.47163l25.86259,0.18929c0,0 0.22987,-1.11932 0.22987,-0.12452c0,8.54811 -5.83127,15.47772 -13.02453,15.47772c-7.19326,0 -13.02453,-6.92962 -13.02453,-15.47772c0,-0.9547 -0.0434,-0.06478 -0.0434,-0.06478z" data-paper-data="{&quot;index&quot;:null}"/></g><g><path d="M139.37833,173.7854v-59.75876h11.24381v59.75876z"/><path d="M154.37009,173.7854v-59.75876h11.24381v59.75876z"/><path d="M139.56481,114.40852c0,-8.54811 5.83127,-15.47772 13.02453,-15.47772c7.19326,0 13.02453,6.92962 13.02453,15.47772c0,0.99484 -0.22987,-0.12452 -0.22987,-0.12452l-25.86259,0.18929c0,0 0.0434,0.88994 0.0434,-0.06478z"/><path d="M145.00023,158.83827v-14.99174h11.24381v14.99174z"/></g><g><path d="M94.40311,173.7854v-59.75876h11.24381v59.75876z"/><path d="M109.39484,173.7854v-59.75876h11.24381v59.75876z"/><path d="M124.38658,173.7854v-59.75876h11.24381v59.75876z"/><path d="M114.39207,114.40852c0,-8.54811 4.75437,-15.47772 10.61915,-15.47772c5.86481,0 10.61913,6.92962 10.61913,15.47772c0,0.99484 -0.18744,-0.12452 -0.18744,-0.12452l-21.08625,0.18929c0,0 0.03537,0.88994 0.03537,-0.06478z"/><path d="M94.40311,114.40852c0,-8.54811 4.75437,-15.47772 10.61915,-15.47772c5.86481,0 10.61913,6.92962 10.61913,15.47772c0,0.99484 -0.18744,-0.12452 -0.18744,-0.12452l-21.08625,0.18929c0,0 0.03537,0.88994 0.03537,-0.06478z"/></g><g><g><path d="M259.39038,173.7854v-74.7505h11.24381v74.7505z"/><path d="M274.61637,128.81015v-14.78354h11.24381v14.78354z"/><path d="M259.57686,114.40852c0,-8.54811 5.83127,-15.47772 13.02453,-15.47772c7.19324,0 13.02453,6.92962 13.02453,15.47772c0,0.99484 -0.22991,-0.12452 -0.22991,-0.12452l-25.86259,0.18929c0,0 0.0434,0.88994 0.0434,-0.06478z"/><path d="M272.77587,173.7854v-14.75292h1.87397v-21.44739h7.3085c0,0 1.11819,0.38923 2.16249,2.18009c0.91478,1.56875 1.77282,4.43106 1.77282,6.1338c0,3.11856 0,9.5657 0,15.47598c0,5.56416 0.09355,12.41046 -5.47061,12.41046c-2.33611,0 -7.64715,0 -7.64715,0z"/><path d="M272.29639,128.59396l13.09963,-0.05039c0,0 0.22991,-1.11932 0.22991,-0.12452c0,8.54811 -5.83127,15.47772 -13.02453,15.47772c-0.39731,0 -0.16965,-0.06253 -0.16965,-0.06253z" data-paper-data="{&quot;index&quot;:null}"/></g><g><path d="M289.2958,173.7854v-74.7505h11.24381v74.7505z"/><path d="M304.52179,128.81015v-14.78354h11.24381v14.78354z"/><path d="M289.48228,114.40852c0,-8.54811 5.83127,-15.47772 13.02453,-15.47772c7.19324,0 13.02453,6.92962 13.02453,15.47772c0,0.99484 -0.22991,-0.12452 -0.22991,-0.12452l-25.86259,0.18929c0,0 0.0434,0.88994 0.0434,-0.06478z"/><path d="M304.55525,173.7854v-36.2003h7.30849c0,0 1.11819,0.38923 2.16249,2.18009c0.91478,1.56875 1.77284,4.43106 1.77284,6.1338c0,6.56587 0,27.88645 0,27.88645z"/><path d="M302.2018,128.59396l13.09963,-0.05039c0,0 0.22991,-1.11932 0.22991,-0.12452c0,8.54811 -5.83127,15.47772 -13.02453,15.47772c-0.39731,0 -0.16968,-0.06253 -0.16968,-0.06253z" data-paper-data="{&quot;index&quot;:null}"/></g><path d="M379.31137,174.17741v-15.46023h11.24381v15.46023z"/><g><g><path d="M349.48584,132.5581v-18.53147h11.24381v18.53147z"/><path d="M349.44925,114.40852c0,-8.54811 5.83127,-15.47772 13.02453,-15.47772c7.19324,0 13.02453,6.92962 13.02453,15.47772c0,0.99484 -0.22991,-0.12452 -0.22991,-0.12452l-25.86259,0.18929c0,0 0.0434,0.88994 0.0434,-0.06478z"/><path d="M364.4776,128.81015v-14.78354h11.24381v14.78354z"/></g><g><path d="M375.64142,140.42577v18.53147h-11.24381v-18.53147z"/><path d="M375.67801,158.57539c0,8.54811 -5.83127,15.47772 -13.02453,15.47772c-7.19324,0 -13.02453,-6.92962 -13.02453,-15.47772c0,-0.99484 0.22991,0.12452 0.22991,0.12452l25.86259,-0.18929c0,0 -0.0434,-0.88994 -0.0434,0.06478z"/><path d="M360.64967,144.17371v14.78354h-11.24381v-14.78354z"/></g><path d="M364.32195,144.6624c0,0 -0.28926,-2.73693 -2.76437,-3.82533c-2.38454,-1.04858 -5.44172,-1.10762 -8.86523,-3.61979c-2.69696,-1.97903 -3.15392,-4.83976 -3.15392,-4.83976l11.24381,-6.45478c0,0 -0.16331,3.26909 1.39339,4.1039c3.21891,1.72618 7.36841,4.5676 9.42228,5.69647c4.43601,2.43815 3.75963,7.06532 3.75963,7.06532z"/></g><g><path d="M319.27929,158.79365v-44.76703h11.24381v44.76703z"/><path d="M334.27102,158.79365v-44.76703h11.24381v44.76703z"/><path d="M319.46575,114.40852c0,-8.54811 5.83127,-15.47772 13.02453,-15.47772c7.19324,0 13.02453,6.92962 13.02453,15.47772c0,0.99484 -0.22991,-0.12452 -0.22991,-0.12452l-25.86259,0.18929c0,0 0.0434,0.88994 0.0434,-0.06478z"/><path d="M319.42234,158.47163l25.86259,0.18929c0,0 0.22991,-1.11932 0.22991,-0.12452c0,8.54811 -5.83127,15.47772 -13.02453,15.47772c-7.19324,0 -13.02453,-6.92962 -13.02453,-15.47772c0,-0.9547 -0.0434,-0.06478 -0.0434,-0.06478z" data-paper-data="{&quot;index&quot;:null}"/></g></g></g><g fill="#000000" stroke="none" stroke-width="0"><path d="M108.14732,87.00213c-14.5618,0.74654 -14.60144,-15.63214 -14.60144,-15.63214l15.82751,-0.17932c0,0 -3.67031,-2.16859 -8.47127,-5.28376c-6.43765,-4.17713 -10.18875,-12.2421 -5.45271,-19.71451c5.23917,-8.26622 17.00995,-6.94678 21.01989,-2.34356c4.54914,5.22218 3.94665,12.50772 3.94665,12.50772l-12.95582,-0.01748c0,0 10.58977,4.47848 12.95992,14.85171c1.65003,7.22163 -2.05925,15.28771 -12.27279,15.81132z"/><path d="M124.02221,74.96591v-33.73143h10.82737v29.98349l4.986,-0.06751l0.01124,-29.91597h10.82737v33.73143c0,0 -1.04572,10.97382 -12.90956,11.24381c-12.42528,0.28276 -13.74245,-11.24381 -13.74245,-11.24381z"/><path d="M154.42214,86.20973v-44.97522c0,0 14.61154,-3.60098 22.19856,2.44492c2.83965,2.26282 3.97905,6.95132 4.037,12.13039c0.05108,4.56766 -0.93271,8.62752 -2.82707,10.9007c-3.81656,4.57975 -10.05517,4.45504 -10.05517,4.45504l-0.03358,-14.97393l-2.49237,0.03463v29.98349z"/><path d="M198.14806,68.71935v-10.82736h10.82737v10.82736z"/><path d="M184.82206,74.13303c0,-4.44647 0,-13.93652 0,-21.65473c0,-6.49532 3.49919,-11.66024 9.99452,-11.66024c4.75979,0 16.24105,0 16.24105,0v14.99174l-14.95781,-0.01046l-0.03393,15.00219h14.99174v14.57531c0,0 -11.48127,0 -16.24105,0c-3.73388,0 -9.99452,-3.08235 -9.99452,-11.24381z"/><path d="M214.87061,85.76726v-44.97522c0,0 11.99681,0 16.86572,0c6.36121,0 9.83833,5.3511 9.83833,11.7123c0,9.75902 -3.27945,12.64929 -3.27945,12.64929c0,0 2.34636,2.50092 2.70827,7.11822c0.17999,2.29641 0.57117,13.49542 0.57117,13.49542h-10.77532c0,0 -2.1138,-9.69565 -2.63161,-15.19878c-0.43816,-4.65677 -0.27648,-15.70698 -0.27648,-15.70698l-1.77682,-0.0147l-0.46849,30.92048z"/></g><g fill="#fcbcb0" stroke="none" stroke-width="0"><path d="M106.27332,78.56929c-14.5618,0.74654 -14.60144,-15.63214 -14.60144,-15.63214l14.42204,-0.17932c0,0 -2.26482,-2.16859 -7.0658,-5.28376c-6.43765,-4.17713 -10.18875,-12.2421 -5.45271,-19.71451c5.23917,-8.26622 17.00995,-6.94678 21.01989,-2.34356c4.54914,5.22218 3.94665,11.10225 3.94665,11.10225l-12.95582,-0.01748c0,0 3.22562,3.19773 6.51485,6.54777c2.67054,2.71992 5.38301,5.06125 6.44507,9.70944c1.65003,7.22163 -2.05925,15.28771 -12.27279,15.81132z" data-paper-data="{&quot;index&quot;:null}"/><path d="M122.14823,66.53308v-33.73143h10.82737v29.98349l4.986,-0.06751l0.01124,-29.91597h10.82737v33.73143c0,0 -1.04572,10.97382 -12.90956,11.24381c-12.42528,0.28276 -13.74245,-11.24381 -13.74245,-11.24381z"/><path d="M152.54816,77.77686v-44.97522c0,0 4.363,-0.15705 9.47591,-0.12993c4.47345,0.02368 9.521,0.02356 12.72264,2.57488c2.83965,2.26282 3.97905,6.95132 4.037,12.13039c0.05108,4.56766 -0.93271,8.62752 -2.82707,10.9007c-3.81656,4.57975 -10.05517,4.45504 -10.05517,4.45504l-0.03358,-14.97393l-2.49237,0.03463v29.98349z"/><path d="M196.27409,60.2865v-10.82736h10.82737v10.82736z"/><path d="M182.9481,65.70017c0,-4.44647 0,-13.93652 0,-21.65473c0,-6.49532 3.49919,-11.66024 9.99452,-11.66024c4.75979,0 16.24105,0 16.24105,0v14.99174l-14.95781,-0.01046l-0.03393,15.00219h14.99174v14.57531c0,0 -11.48127,0 -16.24105,0c-3.73388,0 -9.99452,-3.08235 -9.99452,-11.24381z"/><path d="M213.64212,77.33441v-44.97522c0,0 11.99681,0 16.86572,0c6.36121,0 9.83833,5.3511 9.83833,11.7123c0,9.75902 -3.27945,12.64929 -3.27945,12.64929c0,0 2.34636,2.50092 2.70827,7.11822c0.17999,2.29641 0.57117,13.49542 0.57117,13.49542h-10.77532c0,0 -0.20046,-7.50619 -0.67667,-10.2565c-0.37823,-2.18447 -1.95497,-4.94229 -1.95497,-4.94229l-0.27648,-15.70698l-1.77682,-0.0147l-0.46849,30.92048z"/></g><g fill="#fcbcb0" stroke="#fcbcb0"><path d="M197.47136,166.28952v-74.7505h11.24381v74.7505z" stroke-width="0.5"/><g stroke-width="0.5"><path d="M166.73826,166.28952v-74.7505h11.24381v74.7505z"/><path d="M182.98154,121.79838v-15.75172h10.70839v15.75172z"/><path d="M167.67433,106.91264c0,-8.54811 5.83127,-15.47772 13.02453,-15.47772c7.19326,0 13.02453,6.92962 13.02453,15.47772c0,0.99484 -0.22987,-0.12452 -0.22987,-0.12452l-25.86259,0.18929c0,0 0.0434,0.88994 0.0434,-0.06478z"/><path d="M182.74727,166.28952v-36.2003h7.30849c0,0 1.11819,0.38923 2.16249,2.18009c0.91478,1.56875 1.77282,4.43106 1.77282,6.1338c0,6.56587 0,27.88645 0,27.88645z"/><path d="M180.39387,121.09808l13.09963,-0.05039c0,0 0.22987,-1.11932 0.22987,-0.12452c0,8.54811 -5.83127,15.47772 -13.02453,15.47772c-0.39731,0 -0.16965,-0.06253 -0.16965,-0.06253z" data-paper-data="{&quot;index&quot;:null}"/></g><g><path d="M212.65673,151.29779v-44.76703h11.24381v44.76703z" stroke-width="0.5"/><path d="M227.6485,151.29779v-44.76703h11.24381v44.76703z" stroke-width="0"/><path d="M212.64957,107.15468c0,-8.54811 5.83127,-15.47772 13.02453,-15.47772c7.19326,0 13.02453,6.92962 13.02453,15.47772c0,0.99484 -0.22987,-0.12452 -0.22987,-0.12452l-25.86259,0.18929c0,0 0.0434,0.88994 0.0434,-0.06478z" stroke-width="0.5"/><path d="M212.56558,150.27303l25.86259,0.18929c0,0 0.22987,-1.11932 0.22987,-0.12452c0,8.54811 -5.83127,15.47772 -13.02453,15.47772c-7.19326,0 -13.02453,-6.92962 -13.02453,-15.47772c0,-0.9547 -0.0434,-0.06478 -0.0434,-0.06478z" data-paper-data="{&quot;index&quot;:null}" stroke-width="0.5"/></g><g stroke-width="0.5"><path d="M137.50437,166.28952v-59.75876h11.24381v59.75876z"/><path d="M152.49612,166.28952v-59.75876h11.24381v59.75876z"/><path d="M137.69084,106.91264c0,-8.54811 5.83127,-15.47772 13.02453,-15.47772c7.19326,0 13.02453,6.92962 13.02453,15.47772c0,0.99484 -0.22987,-0.12452 -0.22987,-0.12452l-25.86259,0.18929c0,0 0.0434,0.88994 0.0434,-0.06478z"/><path d="M143.12628,151.34239v-14.99174h11.24381v14.99174z"/></g><g stroke-width="0.5"><path d="M92.52913,166.28952v-59.75876h11.24381v59.75876z"/><path d="M107.52087,166.28952v-59.75876h11.24381v59.75876z"/><path d="M122.51261,166.28952v-59.75876h11.24381v59.75876z"/><path d="M112.51811,106.91264c0,-8.54811 4.75437,-15.47772 10.61915,-15.47772c5.86481,0 10.61913,6.92962 10.61913,15.47772c0,0.99484 -0.18744,-0.12452 -0.18744,-0.12452l-21.08625,0.18929c0,0 0.03537,0.88994 0.03537,-0.06478z"/><path d="M92.52913,106.91264c0,-8.54811 4.75437,-15.47772 10.61915,-15.47772c5.86481,0 10.61913,6.92962 10.61913,15.47772c0,0.99484 -0.18744,-0.12452 -0.18744,-0.12452l-21.08625,0.18929c0,0 0.03537,0.88994 0.03537,-0.06478z"/></g><g><g stroke-width="0.5"><path d="M256.98098,166.28952v-74.28202h11.24381v74.28202z"/><path d="M272.50816,121.3143v-14.78354h11.24381v14.78354z"/><path d="M257.7029,107.38113c0,-8.54811 5.83127,-15.47772 13.02453,-15.47772c7.19324,0 13.02453,6.92962 13.02453,15.47772c0,0.99484 -0.22991,-0.12452 -0.22991,-0.12452l-25.86259,0.18929c0,0 0.0434,0.88994 0.0434,-0.06478z"/><path d="M270.90191,166.28952v-14.75292h1.87397v-21.44739h7.3085c0,0 1.11819,0.38923 2.16249,2.18009c0.91478,1.56875 1.77282,4.43106 1.77282,6.1338c0,3.11856 0,9.5657 0,15.47598c0,5.56416 0.09355,12.41046 -5.47061,12.41046c-2.33611,0 -7.64715,0 -7.64715,0z"/><path d="M270.42244,121.09808l13.09963,-0.05039c0,0 0.22991,-1.11932 0.22991,-0.12452c0,8.54811 -5.83127,15.47772 -13.02453,15.47772c-0.39731,0 -0.16965,-0.06253 -0.16965,-0.06253z" data-paper-data="{&quot;index&quot;:null}"/></g><g stroke-width="0.5"><path d="M287.1541,166.28952v-74.28202h11.24381v74.28202z"/><path d="M302.41358,121.3143v-14.78354h11.24381v14.78354z"/><path d="M287.6083,107.38113c0,-8.54811 5.83127,-15.47772 13.02453,-15.47772c7.19324,0 13.02453,6.92962 13.02453,15.47772c0,0.99484 -0.22991,-0.12452 -0.22991,-0.12452l-25.86259,0.18929c0,0 0.0434,0.88994 0.0434,-0.06478z"/><path d="M302.68127,166.28952v-36.2003h7.30849c0,0 1.11819,0.38923 2.16249,2.18009c0.91478,1.56875 1.77284,4.43106 1.77284,6.1338c0,6.56587 0,27.88645 0,27.88645z"/><path d="M300.32785,121.09808l13.09963,-0.05039c0,0 0.22991,-1.11932 0.22991,-0.12452c0,8.54811 -5.83127,15.47772 -13.02453,15.47772c-0.39731,0 -0.16968,-0.06253 -0.16968,-0.06253z" data-paper-data="{&quot;index&quot;:null}"/></g><path d="M377.4374,166.68152v-15.46023h11.24381v15.46023z" stroke-width="0.5"/><g><g><path d="M347.84612,125.06224c0,0 -0.23424,-1.878 -0.23424,-3.42471c0,-3.24848 0,-15.10678 0,-15.10678h11.24381v18.53147z" stroke-width="0.5"/><path d="M347.57528,106.91264c0,-8.54811 5.83127,-15.47772 13.02453,-15.47772c7.19324,0 13.02453,6.92962 13.02453,15.47772c0,0.99484 -0.22991,-0.12452 -0.22991,-0.12452l-25.86259,0.18929c0,0 0.0434,0.88994 0.0434,-0.06478z" stroke-width="0.5"/><path d="M362.87134,121.3143v-14.78354h11.24381v14.78354z" stroke-width="0"/></g><g><path d="M373.76744,132.92991c0,0 0.46849,4.36093 0.46849,6.97881c0,3.3682 0,11.55266 0,11.55266h-12.18079v-18.53147z" stroke-width="0"/><path d="M373.80403,151.07952c0,8.54811 -5.83127,15.47772 -13.02453,15.47772c-7.19324,0 -13.02453,-6.92962 -13.02453,-15.47772c0,-0.99484 0.22991,0.12452 0.22991,0.12452l25.86259,-0.18929c0,0 -0.0434,-0.88994 -0.0434,0.06478z" stroke-width="0.5"/><path d="M358.50797,136.67785v14.78354h-11.24381v-14.78354z" stroke-width="0"/></g><path d="M362.44799,137.16651c0,0 -0.28926,-2.73693 -2.76437,-3.82533c-2.38454,-1.04858 -5.44172,-1.10762 -8.86523,-3.61979c-2.69696,-1.97903 -2.91965,-4.83976 -2.91965,-4.83976l10.77532,-6.45478c0,0 0.07094,3.26909 1.62763,4.1039c3.21891,1.72618 7.36841,4.5676 9.42228,5.69647c4.43601,2.43815 3.75963,7.06532 3.75963,7.06532z" stroke-width="0.5"/></g><g stroke-width="0.5"><path d="M317.40531,151.29779v-44.76703h11.24381v44.76703z"/><path d="M332.39705,151.29779v-44.76703h11.24381v44.76703z"/><path d="M317.59179,106.91264c0,-8.54811 5.83127,-15.47772 13.02453,-15.47772c7.19324,0 13.02453,6.92962 13.02453,15.47772c0,0.99484 -0.22991,-0.12452 -0.22991,-0.12452l-25.86259,0.18929c0,0 0.0434,0.88994 0.0434,-0.06478z"/><path d="M317.54841,150.97574l25.86259,0.18929c0,0 0.22991,-1.11932 0.22991,-0.12452c0,8.54811 -5.83127,15.47772 -13.02453,15.47772c-7.19324,0 -13.02453,-6.92962 -13.02453,-15.47772c0,-0.9547 -0.0434,-0.06478 -0.0434,-0.06478z" data-paper-data="{&quot;index&quot;:null}"/></g></g></g></g></g><g stroke="none" stroke-width="0"><g><path d="M84.26282,30.81662v-4.49754h4.49754v4.49754z" fill="#000000"/><path d="M82.01406,28.56786v-4.49754h4.49754v4.49754z" fill="#fcbcb0"/></g><g><path d="M84.26282,177.61078v-4.49754h4.49754v4.49754z" fill="#000000"/><path d="M82.01409,175.36202v-4.49754h4.49754v4.49754z" fill="#fcbcb0"/></g></g><g stroke="none" stroke-width="0"><g><path d="M395.96622,30.81662v-4.49754h4.49754v4.49754z" fill="#000000"/><path d="M393.71745,28.56786v-4.49754h4.49754v4.49754z" fill="#fcbcb0"/></g><g><path d="M395.96622,177.61079v-4.49754h4.49754v4.49754z" fill="#000000"/><path d="M393.71745,175.36204v-4.49754h4.49754v4.49754z" fill="#fcbcb0"/></g></g></g></g></svg>