<svg version="1.1" xmlns="http://www.w3.org/2000/svg" xmlns:xlink="http://www.w3.org/1999/xlink" width="42.32333" height="40.58349" viewBox="0,0,42.32333,40.58349"><g transform="translate(-218.61167,-160.00112)"><g data-paper-data="{&quot;isPaintingLayer&quot;:true}" fill-rule="nonzero" stroke-linejoin="miter" stroke-miterlimit="10" stroke-dasharray="" stroke-dashoffset="0" style="mix-blend-mode: normal"><path d="M219.40235,200.58461v-26.74099h41.40916v26.74099z" data-paper-data="{&quot;index&quot;:null}" fill="#355aff" stroke="none" stroke-width="0" stroke-linecap="butt"/><g stroke-linecap="butt"><g fill="#355aff" stroke="none" stroke-width="0"><path d="M219.44282,174.40282c0,0 7.31932,-4.45848 10.45537,-6.93606c5.13842,-4.05951 6.15447,-6.03607 6.77804,-6.18597c0.42235,-0.10152 2.34665,3.50217 1.22686,7.01546c-1.11979,3.51328 2.10785,6.10657 2.10785,6.10657z" data-paper-data="{&quot;index&quot;:null}"/><path d="M240.28471,174.40282c0,0 7.31932,-4.45848 10.45537,-6.93606c5.13842,-4.05951 6.15447,-6.03607 6.77804,-6.18597c0.42235,-0.10152 2.34665,3.50217 1.22686,7.01546c-1.11979,3.51328 2.10785,6.10657 2.10785,6.10657z" data-paper-data="{&quot;index&quot;:null}"/></g><g fill="none" stroke="#ffffff" stroke-width="1.5"><path d="M219.36167,174.52782c1.72651,-0.02699 7.2102,-5.11315 10.34626,-7.59073c5.13842,-4.05951 6.15447,-6.03607 6.77804,-6.18597c0.42235,-0.10152 2.34665,3.50217 1.22686,7.01546c-1.11979,3.51328 1.18141,6.74643 2.47455,5.98434" data-paper-data="{&quot;index&quot;:null}"/><path d="M240.09445,173.87315c0,0 7.31932,-4.45848 10.45537,-6.93606c5.13842,-4.05951 6.15447,-6.03607 6.77804,-6.18597c0.42235,-0.10152 2.34665,3.50217 1.22686,7.01546c-1.11979,3.51328 0.72487,6.44083 2.32607,6.3248" data-paper-data="{&quot;index&quot;:null}"/></g></g><path d="M234.26137,178.78604c0,0 4.38054,2.73285 13.56632,-4.96877c2.01088,-1.68598 2.87885,4.98922 2.87885,4.98922" fill="none" stroke="#ffffff" stroke-width="1" stroke-linecap="round"/></g></g></svg>