<svg version="1.1" xmlns="http://www.w3.org/2000/svg" xmlns:xlink="http://www.w3.org/1999/xlink" width="85.49398" height="85.49398" viewBox="0,0,85.49398,85.49398"><defs><linearGradient x1="-3285.69704" y1="-2895.28055" x2="-3285.69704" y2="4105.40967" gradientUnits="userSpaceOnUse" id="color-1"><stop offset="0" stop-color="#ffffff"/><stop offset="1" stop-color="#ffffff" stop-opacity="0"/></linearGradient></defs><g transform="translate(-197.25302,-137.25301)"><g data-paper-data="{&quot;isPaintingLayer&quot;:true}" fill-rule="nonzero" stroke-linejoin="miter" stroke-miterlimit="10" stroke-dasharray="" stroke-dashoffset="0" style="mix-blend-mode: normal"><path d="M208.63952,205.58013c0.00324,-13.1024 0,-44.63208 0,-51.75c0,-3.5626 2.97813,-5.21784 6.54073,-5.21784c12.68063,0 43.89984,0 51,0c2.96729,0 5.18024,2.50056 5.18024,5.46784c0,6.43742 0,39.20833 0,51.75c0,2.95974 -2.72049,5.55758 -5.68024,5.55758c-6.61442,0 -39.17756,0 -52,0c-3.13138,0 -5.04177,-1.58613 -5.04073,-5.80758z" fill="url(#color-1)" stroke="#a97a4a" stroke-width="2" stroke-linecap="butt"/><path d="M197.25302,222.74699v-85.49398h85.49398v85.49398z" fill="none" stroke="none" stroke-width="0" stroke-linecap="butt"/><path d="M207.25301,212.74699v-65.49398h65.49398v65.49398z" fill="none" stroke="none" stroke-width="0" stroke-linecap="butt"/><g><path d="M257.77619,193.48091c2.26275,1.23841 4.05462,3.04895 4.05462,4.49166c0,0.48414 -1.71116,0.44171 -5.5656,0.44171c-3.85445,0 -5.91897,0.04242 -5.91897,-0.6184c0,-2.78106 -1.1158,-6.09565 2.73864,-6.09565c1.8549,0 2.59228,0.63185 4.69133,1.78068z" data-paper-data="{&quot;index&quot;:null}" fill="#9bf2ff" stroke="none" stroke-width="0" stroke-linecap="butt"/><path d="M245.20209,161.65953c12.98081,2.1376 17.58944,19.03433 15.48803,23.52747c-1.73622,3.7123 -7.81963,9.8441 -16.37344,9.8441c-2.56401,0 -7.80794,-0.57492 -7.80794,-0.57492c0,0 -17.82637,-1.69057 -18.20691,-4.52416c-0.19422,-1.44623 -0.27266,-4.05494 0.46921,-5.9209c0.25354,-0.6377 1.31465,-0.47688 1.53534,-1.11761c0.87969,-2.55399 1.22935,-5.02659 1.22935,-5.02659l-1.04447,-2.45115c0,0 3.8098,-7.74455 8.54674,-10.94818c5.04409,-3.41136 10.11373,-3.8044 16.1641,-2.80806z" data-paper-data="{&quot;index&quot;:null}" fill="#095352" stroke="#6d0000" stroke-width="0" stroke-linecap="butt"/><path d="M223.40141,198.35251c0,-1.51765 1.88496,-3.42225 4.26525,-4.725c2.2081,-1.2085 2.98379,-1.87318 4.93504,-1.87318c4.05468,0 2.8809,3.4868 2.8809,6.41232c0,0.69516 -2.17177,0.65053 -6.22645,0.65053c-4.05467,0 -5.85473,0.04463 -5.85473,-0.46466z" fill="#9bf2ff" stroke="none" stroke-width="0" stroke-linecap="butt"/><path d="M261.44431,184.19844c0,0 -1.44115,5.82965 -7.07285,9.24826c-3.89156,2.36229 -14.50586,1.85955 -18.10555,0.58636c-5.40171,-1.91055 -6.51545,-11.17207 -8.92333,-13.63815c-2.40788,-2.46608 -7.81336,-3.3065 -7.81336,-3.3065" data-paper-data="{&quot;index&quot;:null}" fill="none" stroke="#148382" stroke-width="3.5" stroke-linecap="round"/><path d="M252.23297,168.19866c2.33678,2.46107 1.93819,6.38618 1.74734,6.81449c-0.26114,0.58608 -2.74564,-1.52037 -5.08242,-3.98144c-2.33678,-2.46107 -3.84267,-4.58972 -3.3798,-4.93089c0.62375,-0.45974 4.3781,-0.36323 6.71487,2.09784z" fill="#148382" stroke="none" stroke-width="0" stroke-linecap="butt"/><path d="M251.66457,168.79897c0.98003,0.95615 1.23271,4.05973 0.74651,3.8997c-0.76301,-0.25115 -3.56122,-3.90653 -3.64856,-4.402c-0.14241,-0.80787 1.92202,-0.45387 2.90205,0.50229z" fill="#9bf2ff" stroke="none" stroke-width="0" stroke-linecap="butt"/><path d="M223.15584,186.55593c-0.78241,0 -1.41667,-0.63427 -1.41667,-1.41667c0,-0.78241 0.63427,-1.41667 1.41667,-1.41667c0.78241,0 1.41667,0.63427 1.41667,1.41667c0,0.78241 -0.63427,1.41667 -1.41667,1.41667z" fill="#148382" stroke="none" stroke-width="0" stroke-linecap="butt"/></g></g></g></svg>