<svg version="1.1" xmlns="http://www.w3.org/2000/svg" xmlns:xlink="http://www.w3.org/1999/xlink" width="85.49398" height="85.49398" viewBox="0,0,85.49398,85.49398"><defs><linearGradient x1="-3285.69704" y1="-2895.28055" x2="-3285.69704" y2="4105.40967" gradientUnits="userSpaceOnUse" id="color-1"><stop offset="0" stop-color="#ffffff"/><stop offset="1" stop-color="#ffffff" stop-opacity="0"/></linearGradient></defs><g transform="translate(-197.25302,-137.25301)"><g data-paper-data="{&quot;isPaintingLayer&quot;:true}" fill-rule="nonzero" stroke-linejoin="miter" stroke-miterlimit="10" stroke-dasharray="" stroke-dashoffset="0" style="mix-blend-mode: normal"><path d="M208.63952,205.58013c0.00324,-13.1024 0,-44.63208 0,-51.75c0,-3.5626 2.97813,-5.21784 6.54073,-5.21784c12.68063,0 43.89984,0 51,0c2.96729,0 5.18024,2.50056 5.18024,5.46784c0,6.43742 0,39.20833 0,51.75c0,2.95974 -2.72049,5.55758 -5.68024,5.55758c-6.61442,0 -39.17756,0 -52,0c-3.13138,0 -5.04177,-1.58613 -5.04073,-5.80758z" fill="url(#color-1)" stroke="#a97a4a" stroke-width="2" stroke-linecap="butt"/><path d="M197.25302,222.74699v-85.49398h85.49398v85.49398z" fill="none" stroke="none" stroke-width="0" stroke-linecap="butt"/><path d="M207.25301,212.74699v-65.49398h65.49398v65.49398z" fill="none" stroke="none" stroke-width="0" stroke-linecap="butt"/><g><path d="M223.54042,191.62475c0,0 -3.85059,-28.43789 16.88563,-28.64545c20.73755,-0.20758 15.82003,28.85303 15.82003,28.85303c0,0 -3.01289,0.53585 -7.29864,2.05112c-2.66447,0.94205 -5.82093,3.15407 -9.05123,3.13827c-3.5121,-0.01718 -5.66294,-2.03402 -8.2729,-2.98845c-4.31261,-1.57708 -8.08289,-2.40852 -8.08289,-2.40852z" fill="#aeaeae" stroke="none" stroke-width="0" stroke-linecap="butt"/><path d="M257.125,191.62475c0,0 -4.30405,0.21094 -7.88612,1.45807c-3.57242,1.24378 -5.38423,3.86805 -9.55024,3.52375c-4.42369,-0.3656 -5.77926,-2.51992 -9.16064,-3.66625c-3.92543,-1.33077 -7.653,-1.31557 -7.653,-1.31557" fill="none" stroke="#cccccc" stroke-width="3.5" stroke-linecap="round"/><g stroke="none" stroke-width="0" stroke-linecap="butt"><path d="M240.65923,165.0073c2.56105,0.088 4.4958,2.16128 4.54838,2.74401c0.03901,0.43243 -1.91807,0.64749 -4.47912,0.55949c-2.56105,-0.08801 -4.99568,-0.43709 -4.79527,-0.87817c0.14646,-0.32235 2.16495,-2.51333 4.72601,-2.42533z" fill="#cccccc"/><path d="M240.60465,165.62914c1.03114,0.07497 2.26508,1.06431 1.73722,1.38842c-0.32373,0.19878 -3.79079,0.44814 -4.31484,0.14273c-0.33393,-0.19461 1.54647,-1.60612 2.57761,-1.53115z" fill="#ffffff"/></g></g></g></g></svg>