<svg version="1.1" xmlns="http://www.w3.org/2000/svg" xmlns:xlink="http://www.w3.org/1999/xlink" width="81.67068" height="81.67068" viewBox="0,0,81.67068,81.67068"><g transform="translate(-199.16466,-139.16466)"><g data-paper-data="{&quot;isPaintingLayer&quot;:true}" fill-rule="nonzero" stroke="none" stroke-linecap="butt" stroke-linejoin="miter" stroke-miterlimit="10" stroke-dasharray="" stroke-dashoffset="0" style="mix-blend-mode: normal"><path d="M199.16466,220.83534v-81.67068h81.67068v81.67068z" data-paper-data="{&quot;index&quot;:null}" fill="none" stroke-width="0"/><g><g><path d="M240.14994,166.48744c8.79829,0 14.90295,8.69538 17.64372,15.2909c3.16863,7.62516 -9.01731,11.82287 -17.88844,11.82287c-8.87705,0 -20.72634,-4.68291 -17.7416,-11.50758c3.67658,-8.40655 9.18802,-15.60618 17.98632,-15.60618z" data-paper-data="{&quot;index&quot;:null}" fill="#f29e4a" stroke-width="0"/><g data-paper-data="{&quot;index&quot;:null}" fill="none" stroke-width="1" font-family="sans-serif" font-weight="normal" font-size="12" text-anchor="start"><g data-paper-data="{&quot;index&quot;:null}"/><g data-paper-data="{&quot;index&quot;:null}"/><g data-paper-data="{&quot;index&quot;:null}"/></g></g><path d="M226.6899,181.63489c0,-3.20842 2.82633,-5.80939 6.3128,-5.80939c3.48646,0 6.3128,2.60095 6.3128,5.80939c0,3.20842 -2.82633,5.80939 -6.3128,5.80939c-3.48646,0 -6.3128,-2.60095 -6.3128,-5.80939z" fill="#20ad00" stroke-width="0"/><path d="M241.99792,171.36474c0,-1.78368 2.24834,-4.15224 2.24834,-4.15224c0,0 2.98618,0.98425 4.91629,2.55795c2.53339,2.06558 4.43467,4.7706 4.43467,4.7706c0,0 -3.07392,2.63307 -5.28652,2.63307c-3.48646,0 -6.3128,-2.60096 -6.3128,-5.80939z" fill="#20ad00" stroke-width="0"/><path d="M254.9291,183.88595c0.6394,1.93555 -0.43364,3.94983 -2.39671,4.49901c-1.96307,0.54917 -4.07277,-0.5747 -4.71217,-2.51027c-0.6394,-1.93555 0.43364,-3.94983 2.39671,-4.49901c1.96307,-0.54917 4.07277,0.5747 4.71217,2.51027z" fill="#20ad00" stroke-width="0"/><path d="M225.79386,189.66666c0,0 7.03663,0.92795 14.27644,0.92795c7.23981,0 14.59486,-0.83029 14.59486,-0.83029c0,0 -5.44447,4.05373 -14.80716,3.95604c-8.40687,-0.0877 -14.06414,-4.05373 -14.06414,-4.05373z" fill="#20ad00" stroke-width="0"/><path d="M240.23231,191.49927c5.01408,0 9.07881,-0.08816 9.07881,2.71014c0,2.7983 -4.06472,5.06676 -9.07881,5.06676c-5.01408,0 -9.07881,-2.26848 -9.07881,-5.06676c0,-2.79831 4.06472,-2.71014 9.07881,-2.71014z" fill="#ffffff" stroke-width="0"/></g></g></g></svg>