<svg version="1.1" xmlns="http://www.w3.org/2000/svg" xmlns:xlink="http://www.w3.org/1999/xlink" width="26.09484" height="27.39614" viewBox="0,0,26.09484,27.39614"><g transform="translate(-233.65001,-174.10649)"><g data-paper-data="{&quot;isPaintingLayer&quot;:true}" fill-rule="nonzero" stroke-linejoin="miter" stroke-miterlimit="10" stroke-dasharray="" stroke-dashoffset="0" style="mix-blend-mode: normal"><path d="" fill="#6ff1ff" stroke="none" stroke-width="0" stroke-linecap="butt"/><g><g><path d="M234.56748,195.42164c-0.46106,-1.27656 -0.12597,-2.55893 -0.12597,-2.87666c0,-0.58258 1.73845,-0.49319 1.94254,-1.05508c0.29572,-0.81417 0.696,-2.26414 1.69772,-2.99654c1.6053,-1.1737 5.89046,-1.3479 5.89046,-1.3479l1.94114,-2.38664c0,0 -0.82034,-2.51244 0.93224,-4.7662c0.41866,-0.53837 1.48731,-1.63276 2.28864,-1.98312c0.85006,-0.37167 4.44299,-2.88502 5.6887,-2.88502c2.33264,0 4.41237,0.37246 4.41237,0.37246v25.32518l-18.60512,0.23952c0,0 -2.39419,-1.06293 -3.59586,-2.18081c-1.20168,-1.11788 -2.46689,-3.45918 -2.46689,-3.45918z" fill="#ffffff" stroke="#000000" stroke-width="0" stroke-linecap="butt"/><path d="M240.51103,200.75263c0,0 -1.45132,-0.3735 -3.07457,-1.57829c-1.76339,-1.3088 -3.28251,-5.42972 -3.00313,-6.34412c0.27937,-0.9144 1.6854,-0.43514 2.0587,-1.36921c1.32193,-3.30777 3.93719,-4.70306 7.4877,-4.41558c0.47967,0.03884 1.47962,-1.69001 1.66569,-2.27019c0.42269,-1.31796 -0.23852,-3.19574 1.0649,-4.71051c0.67288,-0.782 1.34145,-1.76115 2.61592,-2.28983c1.6607,-0.68889 3.45705,-2.43708 5.31965,-2.91841c2.2023,-0.56912 4.34896,0.18813 4.34896,0.18813" fill="none" stroke="#a5a5a5" stroke-width="1.5" stroke-linecap="round"/></g><path d="M250.63534,181.11156c1.41018,-0.683 6.45107,-1.31373 6.72063,-0.81006c0.31881,0.59569 -4.21057,2.07154 -5.23258,2.55318c-1.18193,0.557 -3.60884,2.41803 -3.53186,1.69178c0.07769,-0.73298 0.63364,-2.7519 2.04381,-3.4349z" fill="#cccccc" stroke="none" stroke-width="0" stroke-linecap="butt"/></g></g></g></svg>