<svg version="1.1" xmlns="http://www.w3.org/2000/svg" xmlns:xlink="http://www.w3.org/1999/xlink" width="334.83483" height="214.71471" viewBox="0,0,334.83483,214.71471"><defs><linearGradient x1="208.48885" y1="82.5183" x2="208.48885" y2="222.86065" gradientUnits="userSpaceOnUse" id="color-1"><stop offset="0" stop-color="#c84c0c"/><stop offset="1" stop-color="#aa3900"/></linearGradient></defs><g transform="translate(-38.04805,-43.92804)"><g data-paper-data="{&quot;isPaintingLayer&quot;:true}" fill-rule="nonzero" stroke-linecap="butt" stroke-linejoin="miter" stroke-miterlimit="10" stroke-dasharray="" stroke-dashoffset="0" style="mix-blend-mode: normal"><g><g><g><path d="M66.25,222.65067v-140.34233h284.4777v140.34235z" fill="url(#color-1)" stroke="#fcbcb0" stroke-width="2.5"/><g><g fill="#000000" stroke="none" stroke-width="0"><path d="M173.22266,217.42297v-64.84286h9.75352v64.84286z"/><g><path d="M147.21327,217.42297v-64.84286h9.75352v64.84286z"/><path d="M160.42116,178.40889v-12.82408h9.75352v12.82408z"/><path d="M147.37503,165.91608c0,-7.41512 5.05838,-13.42627 11.29822,-13.42627c6.23984,0 11.29822,6.01115 11.29822,13.42627c0,0.86297 -0.19941,-0.10801 -0.19941,-0.10801l-22.43468,0.16421c0,0 0.03765,0.77198 0.03765,-0.0562z"/><path d="M160.45018,217.42297v-31.40221h6.33979c0,0 0.96998,0.33763 1.87586,1.89113c0.79353,1.36082 1.53785,3.84375 1.53785,5.32081c0,5.69561 0,24.1903 0,24.1903z"/><path d="M158.40869,178.22135l11.36337,-0.04371c0,0 0.19941,-0.97096 0.19941,-0.10801c0,7.41512 -5.05838,13.42627 -11.29822,13.42627c-0.34465,0 -0.14716,-0.05424 -0.14716,-0.05424z" data-paper-data="{&quot;index&quot;:null}"/></g><g><path d="M186.22736,204.41828v-38.83347h9.75352v38.83347z"/><path d="M199.23205,204.41828v-38.83347h9.75352v38.83347z"/><path d="M186.38912,165.91608c0,-7.41512 5.05838,-13.42627 11.29822,-13.42627c6.23984,0 11.29822,6.01115 11.29822,13.42627c0,0.86297 -0.19941,-0.10801 -0.19941,-0.10801l-22.43468,0.16421c0,0 0.03765,0.77198 0.03765,-0.0562z"/><path d="M186.35147,204.13895l22.43468,0.16421c0,0 0.19941,-0.97096 0.19941,-0.10801c0,7.41512 -5.05838,13.42627 -11.29822,13.42627c-6.23984,0 -11.29822,-6.01115 -11.29822,-13.42627c0,-0.82818 -0.03765,-0.0562 -0.03765,-0.0562z" data-paper-data="{&quot;index&quot;:null}"/></g><g><path d="M121.20388,217.42297v-51.83816h9.75352v51.83816z"/><path d="M134.20858,217.42297v-51.83816h9.75352v51.83816z"/><path d="M121.36564,165.91608c0,-7.41512 5.05838,-13.42627 11.29822,-13.42627c6.23984,0 11.29822,6.01115 11.29822,13.42627c0,0.86297 -0.19941,-0.10801 -0.19941,-0.10801l-22.43468,0.16421c0,0 0.03765,0.77198 0.03765,-0.0562z"/><path d="M126.08064,204.45699v-13.00469h9.75352v13.00469z"/></g><g><path d="M82.1898,217.42297v-51.83816h9.75352v51.83816z"/><path d="M95.19448,217.42297v-51.83816h9.75352v51.83816z"/><path d="M108.19918,217.42297v-51.83816h9.75352v51.83816z"/><path d="M99.52937,165.91608c0,-7.41512 4.12421,-13.42627 9.21166,-13.42627c5.08747,0 9.21164,6.01115 9.21164,13.42627c0,0.86297 -0.16259,-0.10801 -0.16259,-0.10801l-18.29141,0.16421c0,0 0.03069,0.77198 0.03069,-0.0562z"/><path d="M82.1898,165.91608c0,-7.41512 4.12421,-13.42627 9.21166,-13.42627c5.08747,0 9.21164,6.01115 9.21164,13.42627c0,0.86297 -0.16259,-0.10801 -0.16259,-0.10801l-18.29141,0.16421c0,0 0.03069,0.77198 0.03069,-0.0562z"/></g><g><g><path d="M225.30916,217.42297v-64.84286h9.75352v64.84286z"/><path d="M238.51705,178.40889v-12.82408h9.75352v12.82408z"/><path d="M225.47094,165.91608c0,-7.41512 5.05838,-13.42627 11.29822,-13.42627c6.23983,0 11.29822,6.01115 11.29822,13.42627c0,0.86297 -0.19942,-0.10801 -0.19942,-0.10801l-22.43468,0.16421c0,0 0.03765,0.77198 0.03765,-0.0562z"/><path d="M236.92051,217.42297v-12.79753h1.62559v-18.60469h6.33981c0,0 0.96998,0.33763 1.87586,1.89113c0.79353,1.36082 1.53785,3.84375 1.53785,5.32081c0,2.70522 0,8.29784 0,13.42475c0,4.82668 0.08114,10.76554 -4.74552,10.76554c-2.02647,0 -6.63358,0 -6.63358,0z"/><path d="M236.50458,178.22135l11.36337,-0.04371c0,0 0.19942,-0.97096 0.19942,-0.10801c0,7.41512 -5.05838,13.42627 -11.29822,13.42627c-0.34465,0 -0.14716,-0.05424 -0.14716,-0.05424z" data-paper-data="{&quot;index&quot;:null}"/></g><g><path d="M251.25083,217.42297v-64.84286h9.75352v64.84286z"/><path d="M264.45872,178.40889v-12.82408h9.75352v12.82408z"/><path d="M251.4126,165.91608c0,-7.41512 5.05838,-13.42627 11.29822,-13.42627c6.23983,0 11.29822,6.01115 11.29822,13.42627c0,0.86297 -0.19942,-0.10801 -0.19942,-0.10801l-22.43468,0.16421c0,0 0.03765,0.77198 0.03765,-0.0562z"/><path d="M264.48775,217.42297v-31.40221h6.33979c0,0 0.96998,0.33763 1.87586,1.89113c0.79353,1.36082 1.53787,3.84375 1.53787,5.32081c0,5.69561 0,24.1903 0,24.1903z"/><path d="M262.44625,178.22135l11.36337,-0.04371c0,0 0.19942,-0.97096 0.19942,-0.10801c0,7.41512 -5.05838,13.42627 -11.29822,13.42627c-0.34465,0 -0.14718,-0.05424 -0.14718,-0.05424z" data-paper-data="{&quot;index&quot;:null}"/></g><path d="M329.33547,217.76302v-13.41109h9.75352v13.41109z"/><g><g><path d="M303.46311,181.66006v-16.07525h9.75352v16.07525z"/><path d="M303.43137,165.91608c0,-7.41512 5.05838,-13.42627 11.29822,-13.42627c6.23983,0 11.29822,6.01115 11.29822,13.42627c0,0.86297 -0.19942,-0.10801 -0.19942,-0.10801l-22.43468,0.16421c0,0 0.03765,0.77198 0.03765,-0.0562z"/><path d="M316.46781,178.40889v-12.82408h9.75352v12.82408z"/></g><g><path d="M326.15194,188.48493v16.07525h-9.75352v-16.07525z"/><path d="M326.18369,204.22895c0,7.41512 -5.05838,13.42627 -11.29822,13.42627c-6.23983,0 -11.29822,-6.01115 -11.29822,-13.42627c0,-0.86297 0.19942,0.10801 0.19942,0.10801l22.43468,-0.16421c0,0 -0.03765,-0.77198 -0.03765,0.0562z"/><path d="M313.14724,191.73611v12.82408h-9.75352v-12.82408z"/></g><path d="M316.33279,192.16002c0,0 -0.25093,-2.37417 -2.39797,-3.31831c-2.06848,-0.9096 -4.72046,-0.96081 -7.69021,-3.14001c-2.3395,-1.71671 -2.73589,-4.19829 -2.73589,-4.19829l9.75352,-5.59925c0,0 -0.14167,2.8358 1.20871,3.55996c2.79227,1.49738 6.39178,3.9622 8.17343,4.94144c3.84806,2.11499 3.26132,6.12886 3.26132,6.12886z"/></g><g><path d="M277.26022,204.41828v-38.83347h9.75352v38.83347z"/><path d="M290.26491,204.41828v-38.83347h9.75352v38.83347z"/><path d="M277.42197,165.91608c0,-7.41512 5.05838,-13.42627 11.29822,-13.42627c6.23983,0 11.29822,6.01115 11.29822,13.42627c0,0.86297 -0.19942,-0.10801 -0.19942,-0.10801l-22.43468,0.16421c0,0 0.03765,0.77198 0.03765,-0.0562z"/><path d="M277.38433,204.13895l22.43468,0.16421c0,0 0.19942,-0.97096 0.19942,-0.10801c0,7.41512 -5.05838,13.42627 -11.29822,13.42627c-6.23983,0 -11.29822,-6.01115 -11.29822,-13.42627c0,-0.82818 -0.03765,-0.0562 -0.03765,-0.0562z" data-paper-data="{&quot;index&quot;:null}"/></g></g></g><g fill="#000000" stroke="none" stroke-width="0"><path d="M94.1123,142.14222c-12.63173,0.64759 -12.66612,-13.56021 -12.66612,-13.56021l13.72969,-0.15555c0,0 -3.18383,-1.88116 -7.34847,-4.58344c-5.58439,-3.62348 -8.83831,-10.6195 -4.72999,-17.10148c4.54475,-7.17059 14.7554,-6.02603 18.23385,-2.03294c3.94617,4.53003 3.42356,10.84991 3.42356,10.84991l-11.23861,-0.01517c0,0 9.18617,3.88489 11.24217,12.88323c1.43133,6.26445 -1.78631,13.26143 -10.64612,13.71565z"/><path d="M107.88309,131.70132v-29.26057h9.39228v26.00939l4.32514,-0.05857l0.00976,-25.95082h9.39228v29.26057c0,0 -0.90712,9.51931 -11.19849,9.75352c-10.7784,0.24528 -11.92098,-9.75352 -11.92098,-9.75352z"/><path d="M134.25374,141.45485v-39.01408c0,0 12.67488,-3.1237 19.25629,2.12086c2.46327,1.9629 3.45166,6.02997 3.50192,10.5226c0.04431,3.96225 -0.80909,7.484 -2.45236,9.4559c-3.3107,3.97274 -8.72243,3.86456 -8.72243,3.86456l-0.02913,-12.98924l-2.16201,0.03004v26.00939z"/><path d="M172.18409,126.28269v-9.39227h9.39228v9.39227z"/><path d="M160.62436,130.97882c0,-3.85712 0,-12.08933 0,-18.78455c0,-5.63442 3.03539,-10.11476 8.66981,-10.11476c4.12891,0 14.08841,0 14.08841,0v13.00469l-12.97526,-0.00907l-0.02943,13.01377h13.00469v12.64346c0,0 -9.95951,0 -14.08841,0c-3.23898,0 -8.66981,-2.6738 -8.66981,-9.75352z"/><path d="M186.69019,141.07103v-39.01408c0,0 10.40672,0 14.63028,0c5.51807,0 8.53433,4.64185 8.53433,10.15992c0,8.46554 -2.84478,10.97271 -2.84478,10.97271c0,0 2.03537,2.16944 2.34932,6.17475c0.15614,1.99204 0.49546,11.7067 0.49546,11.7067h-9.34712c0,0 -1.83363,-8.41056 -2.28281,-13.18429c-0.38009,-4.03955 -0.23984,-13.62513 -0.23984,-13.62513l-1.54131,-0.01275l-0.4064,26.82219z"/></g><g fill="#fcbcb0" stroke="none" stroke-width="0"><path d="M92.48671,134.82708c-12.63173,0.64759 -12.66612,-13.56021 -12.66612,-13.56021l12.5105,-0.15555c0,0 -1.96463,-1.88116 -6.12927,-4.58344c-5.58439,-3.62348 -8.83831,-10.6195 -4.72999,-17.10148c4.54475,-7.17059 14.7554,-6.02603 18.23385,-2.03294c3.94617,4.53003 3.42356,9.63072 3.42356,9.63072l-11.23861,-0.01517c0,0 2.79809,2.77389 5.65136,5.6799c2.31657,2.35942 4.66953,4.39041 5.59082,8.42253c1.43133,6.26445 -1.78631,13.26143 -10.64612,13.71565z" data-paper-data="{&quot;index&quot;:null}"/><path d="M106.2575,124.38619v-29.26057h9.39228v26.00939l4.32514,-0.05857l0.00976,-25.95082h9.39228v29.26057c0,0 -0.90712,9.51931 -11.19849,9.75352c-10.7784,0.24528 -11.92098,-9.75352 -11.92098,-9.75352z"/><path d="M132.62815,134.13969v-39.01408c0,0 3.78472,-0.13623 8.21994,-0.11272c3.88053,0.02055 8.25906,0.02044 11.03635,2.23359c2.46327,1.9629 3.45166,6.02997 3.50192,10.5226c0.04431,3.96225 -0.80909,7.484 -2.45236,9.4559c-3.3107,3.97274 -8.72243,3.86456 -8.72243,3.86456l-0.02913,-12.98924l-2.16201,0.03004v26.00939z"/><path d="M170.5585,118.96755v-9.39227h9.39228v9.39227z"/><path d="M158.99878,123.66369c0,-3.85712 0,-12.08933 0,-18.78455c0,-5.63442 3.03539,-10.11476 8.66981,-10.11476c4.12891,0 14.08841,0 14.08841,0v13.00469l-12.97526,-0.00907l-0.02943,13.01377h13.00469v12.64346c0,0 -9.95951,0 -14.08841,0c-3.23898,0 -8.66981,-2.6738 -8.66981,-9.75352z"/><path d="M185.62452,133.75588v-39.01408c0,0 10.40672,0 14.63028,0c5.51807,0 8.53433,4.64185 8.53433,10.15992c0,8.46554 -2.84478,10.97271 -2.84478,10.97271c0,0 2.03537,2.16944 2.34932,6.17475c0.15614,1.99204 0.49546,11.7067 0.49546,11.7067h-9.34712c0,0 -0.17389,-6.51129 -0.58698,-8.89707c-0.32809,-1.89493 -1.69585,-4.28723 -1.69585,-4.28723l-0.23984,-13.62513l-1.54131,-0.01275l-0.4064,26.82219z"/></g><g fill="#fcbcb0" stroke="#fcbcb0"><path d="M171.59708,210.92062v-64.84286h9.75352v64.84286z" stroke-width="0.5"/><g stroke-width="0.5"><path d="M144.93745,210.92062v-64.84286h9.75352v64.84286z"/><path d="M159.02779,172.32647v-13.66394h9.28907v13.66394z"/><path d="M145.74944,159.41373c0,-7.41512 5.05838,-13.42627 11.29822,-13.42627c6.23984,0 11.29822,6.01115 11.29822,13.42627c0,0.86297 -0.19941,-0.10801 -0.19941,-0.10801l-22.43468,0.16421c0,0 0.03765,0.77198 0.03765,-0.0562z"/><path d="M158.82459,210.92062v-31.40221h6.33979c0,0 0.96998,0.33763 1.87586,1.89113c0.79353,1.36082 1.53785,3.84375 1.53785,5.32081c0,5.69561 0,24.1903 0,24.1903z"/><path d="M156.7831,171.719l11.36337,-0.04371c0,0 0.19941,-0.97096 0.19941,-0.10801c0,7.41512 -5.05838,13.42627 -11.29822,13.42627c-0.34465,0 -0.14716,-0.05424 -0.14716,-0.05424z" data-paper-data="{&quot;index&quot;:null}"/></g><g><path d="M184.76974,197.91594v-38.83347h9.75352v38.83347z" stroke-width="0.5"/><path d="M197.77444,197.91594v-38.83347h9.75352v38.83347z" stroke-width="0"/><path d="M184.76353,159.62369c0,-7.41512 5.05838,-13.42627 11.29822,-13.42627c6.23984,0 11.29822,6.01115 11.29822,13.42627c0,0.86297 -0.19941,-0.10801 -0.19941,-0.10801l-22.43468,0.16421c0,0 0.03765,0.77198 0.03765,-0.0562z" stroke-width="0.5"/><path d="M184.69066,197.027l22.43468,0.16421c0,0 0.19941,-0.97096 0.19941,-0.10801c0,7.41512 -5.05838,13.42627 -11.29822,13.42627c-6.23984,0 -11.29822,-6.01115 -11.29822,-13.42627c0,-0.82818 -0.03765,-0.0562 -0.03765,-0.0562z" data-paper-data="{&quot;index&quot;:null}" stroke-width="0.5"/></g><g stroke-width="0.5"><path d="M119.5783,210.92062v-51.83816h9.75352v51.83816z"/><path d="M132.58299,210.92062v-51.83816h9.75352v51.83816z"/><path d="M119.74005,159.41373c0,-7.41512 5.05838,-13.42627 11.29822,-13.42627c6.23984,0 11.29822,6.01115 11.29822,13.42627c0,0.86297 -0.19941,-0.10801 -0.19941,-0.10801l-22.43468,0.16421c0,0 0.03765,0.77198 0.03765,-0.0562z"/><path d="M124.45506,197.95463v-13.00469h9.75352v13.00469z"/></g><g stroke-width="0.5"><path d="M80.5642,210.92062v-51.83816h9.75352v51.83816z"/><path d="M93.5689,210.92062v-51.83816h9.75352v51.83816z"/><path d="M106.57359,210.92062v-51.83816h9.75352v51.83816z"/><path d="M97.90378,159.41373c0,-7.41512 4.12421,-13.42627 9.21166,-13.42627c5.08747,0 9.21164,6.01115 9.21164,13.42627c0,0.86297 -0.16259,-0.10801 -0.16259,-0.10801l-18.29141,0.16421c0,0 0.03069,0.77198 0.03069,-0.0562z"/><path d="M80.5642,159.41373c0,-7.41512 4.12421,-13.42627 9.21166,-13.42627c5.08747,0 9.21164,6.01115 9.21164,13.42627c0,0.86297 -0.16259,-0.10801 -0.16259,-0.10801l-18.29141,0.16421c0,0 0.03069,0.77198 0.03069,-0.0562z"/></g><g><g stroke-width="0.5"><path d="M223.21913,210.92062v-64.43646h9.75352v64.43646z"/><path d="M236.68827,171.90655v-12.82408h9.75352v12.82408z"/><path d="M223.84535,159.82013c0,-7.41512 5.05838,-13.42627 11.29822,-13.42627c6.23983,0 11.29822,6.01115 11.29822,13.42627c0,0.86297 -0.19942,-0.10801 -0.19942,-0.10801l-22.43468,0.16421c0,0 0.03765,0.77198 0.03765,-0.0562z"/><path d="M235.29492,210.92062v-12.79753h1.62559v-18.60469h6.33981c0,0 0.96998,0.33763 1.87586,1.89113c0.79353,1.36082 1.53785,3.84375 1.53785,5.32081c0,2.70522 0,8.29784 0,13.42475c0,4.82668 0.08114,10.76554 -4.74552,10.76554c-2.02647,0 -6.63358,0 -6.63358,0z"/><path d="M234.87901,171.719l11.36337,-0.04371c0,0 0.19942,-0.97096 0.19942,-0.10801c0,7.41512 -5.05838,13.42627 -11.29822,13.42627c-0.34465,0 -0.14716,-0.05424 -0.14716,-0.05424z" data-paper-data="{&quot;index&quot;:null}"/></g><g stroke-width="0.5"><path d="M249.39301,210.92062v-64.43646h9.75352v64.43646z"/><path d="M262.62993,171.90655v-12.82408h9.75352v12.82408z"/><path d="M249.78701,159.82013c0,-7.41512 5.05838,-13.42627 11.29822,-13.42627c6.23983,0 11.29822,6.01115 11.29822,13.42627c0,0.86297 -0.19942,-0.10801 -0.19942,-0.10801l-22.43468,0.16421c0,0 0.03765,0.77198 0.03765,-0.0562z"/><path d="M262.86216,210.92062v-31.40221h6.33979c0,0 0.96998,0.33763 1.87586,1.89113c0.79353,1.36082 1.53787,3.84375 1.53787,5.32081c0,5.69561 0,24.1903 0,24.1903z"/><path d="M260.82066,171.719l11.36337,-0.04371c0,0 0.19942,-0.97096 0.19942,-0.10801c0,7.41512 -5.05838,13.42627 -11.29822,13.42627c-0.34465,0 -0.14718,-0.05424 -0.14718,-0.05424z" data-paper-data="{&quot;index&quot;:null}"/></g><path d="M327.70988,211.26067v-13.41109h9.75352v13.41109z" stroke-width="0.5"/><g><g><path d="M302.04073,175.15772c0,0 -0.2032,-1.62908 -0.2032,-2.97078c0,-2.81792 0,-13.10448 0,-13.10448h9.75352v16.07525z" stroke-width="0.5"/><path d="M301.80579,159.41373c0,-7.41512 5.05838,-13.42627 11.29822,-13.42627c6.23983,0 11.29822,6.01115 11.29822,13.42627c0,0.86297 -0.19942,-0.10801 -0.19942,-0.10801l-22.43468,0.16421c0,0 0.03765,0.77198 0.03765,-0.0562z" stroke-width="0.5"/><path d="M315.07445,171.90655v-12.82408h9.75352v12.82408z" stroke-width="0"/></g><g><path d="M324.52635,181.98259c0,0 0.4064,3.78293 0.4064,6.05382c0,2.92176 0,10.02144 0,10.02144h-10.56632v-16.07525z" stroke-width="0"/><path d="M324.5581,197.7266c0,7.41512 -5.05838,13.42627 -11.29822,13.42627c-6.23983,0 -11.29822,-6.01115 -11.29822,-13.42627c0,-0.86297 0.19942,0.10801 0.19942,0.10801l22.43468,-0.16421c0,0 -0.03765,-0.77198 -0.03765,0.0562z" stroke-width="0.5"/><path d="M311.28942,185.23377v12.82408h-9.75352v-12.82408z" stroke-width="0"/></g><path d="M314.70721,185.65767c0,0 -0.25093,-2.37417 -2.39797,-3.31831c-2.06848,-0.9096 -4.72046,-0.96081 -7.69021,-3.14001c-2.3395,-1.71671 -2.53268,-4.19829 -2.53268,-4.19829l9.34712,-5.59925c0,0 0.06153,2.8358 1.41191,3.55996c2.79227,1.49738 6.39178,3.9622 8.17343,4.94144c3.84806,2.11499 3.26132,6.12886 3.26132,6.12886z" stroke-width="0.5"/></g><g stroke-width="0.5"><path d="M275.63463,197.91594v-38.83347h9.75352v38.83347z"/><path d="M288.63933,197.91594v-38.83347h9.75352v38.83347z"/><path d="M275.79639,159.41373c0,-7.41512 5.05838,-13.42627 11.29822,-13.42627c6.23983,0 11.29822,6.01115 11.29822,13.42627c0,0.86297 -0.19942,-0.10801 -0.19942,-0.10801l-22.43468,0.16421c0,0 0.03765,0.77198 0.03765,-0.0562z"/><path d="M275.75874,197.63659l22.43468,0.16421c0,0 0.19942,-0.97096 0.19942,-0.10801c0,7.41512 -5.05838,13.42627 -11.29822,13.42627c-6.23983,0 -11.29822,-6.01115 -11.29822,-13.42627c0,-0.82818 -0.03765,-0.0562 -0.03765,-0.0562z" data-paper-data="{&quot;index&quot;:null}"/></g></g></g></g></g><g stroke="none" stroke-width="0"><g><path d="M73.39354,93.4037v-3.90141h3.90141v3.90141z" fill="#000000"/><path d="M71.44284,91.45299v-3.90141h3.90141v3.90141z" fill="#fcbcb0"/></g><g><path d="M73.39354,220.74133v-3.90141h3.90141v3.90141z" fill="#000000"/><path d="M71.44286,218.79063v-3.90141h3.90141v3.90141z" fill="#fcbcb0"/></g></g><g stroke="none" stroke-width="0"><g><path d="M343.78284,93.4037v-3.90141h3.90141v3.90141z" fill="#000000"/><path d="M341.83214,91.45299v-3.90141h3.90141v3.90141z" fill="#fcbcb0"/></g><g><path d="M343.78284,220.74134v-3.90141h3.90141v3.90141z" fill="#000000"/><path d="M341.83214,218.79065v-3.90141h3.90141v3.90141z" fill="#fcbcb0"/></g></g><g stroke-width="1"><g><path d="M192.97354,236.54867c0,-3.59115 2.91119,-6.50234 6.50234,-6.50234c3.59115,0 6.50234,2.91119 6.50234,6.50234c0,3.59115 -2.91119,6.50234 -6.50234,6.50234c-3.59115,0 -6.50234,-2.91119 -6.50234,-6.50234z" fill="none" stroke="#fcbcb0"/><text transform="translate(195.00552,240.40944) scale(0.37249,0.37249)" font-size="40" xml:space="preserve" fill="#fcbcb0" fill-rule="nonzero" stroke="none" stroke-width="1" stroke-linecap="butt" stroke-linejoin="miter" stroke-miterlimit="10" stroke-dasharray="" stroke-dashoffset="0" font-family="&quot;ヒラギノ角ゴ Pro W3&quot;, &quot;Hiragino Kaku Gothic Pro&quot;, Osaka, &quot;メイリオ&quot;, Meiryo, &quot;ＭＳ Ｐゴシック&quot;, &quot;MS PGothic&quot;" font-weight="normal" text-anchor="start" style="mix-blend-mode: normal"><tspan x="0" dy="0">c</tspan></text></g><text transform="translate(207.60382,242.43297) scale(0.44367,0.44367)" font-size="40" xml:space="preserve" fill="#fcbcb0" fill-rule="nonzero" stroke="#fcbcb0" stroke-width="1" stroke-linecap="butt" stroke-linejoin="miter" stroke-miterlimit="10" stroke-dasharray="" stroke-dashoffset="0" font-family="&quot;ヒラギノ角ゴ Pro W3&quot;, &quot;Hiragino Kaku Gothic Pro&quot;, Osaka, &quot;メイリオ&quot;, Meiryo, &quot;ＭＳ Ｐゴシック&quot;, &quot;MS PGothic&quot;" font-weight="normal" text-anchor="start" style="mix-blend-mode: normal"><tspan x="0" dy="0">2022 CHIPM0NK</tspan></text></g></g><path d="M38.04805,258.64275v-214.71471h334.83483v214.71471z" fill="none" stroke="none" stroke-width="0"/></g></g></g></svg>