<svg version="1.1" xmlns="http://www.w3.org/2000/svg" xmlns:xlink="http://www.w3.org/1999/xlink" width="119.71806" height="119.71806" viewBox="0,0,119.71806,119.71806"><g transform="translate(-180.14097,-120.14097)"><g data-paper-data="{&quot;isPaintingLayer&quot;:true}" fill-rule="nonzero" stroke-width="0" stroke-linecap="butt" stroke-linejoin="miter" stroke-miterlimit="10" stroke-dasharray="" stroke-dashoffset="0" style="mix-blend-mode: normal"><path d="M180.14097,239.85903v-119.71806h119.71806v119.71806z" data-paper-data="{&quot;index&quot;:null}" fill="none" stroke="none"/><path d="M236.89696,171.85658h6.23631c0,0 -0.35745,8.99011 0.53289,17.80526c0.7352,7.27908 1.85144,12.70519 -3.37889,12.70519c-6.38816,0 -4.37851,-5.63572 -3.96204,-12.58547c0.54605,-9.11184 0.57172,-17.92497 0.57172,-17.92497z" data-paper-data="{&quot;index&quot;:null}" fill="#dc570f" stroke="none"/><g data-paper-data="{&quot;index&quot;:null}" stroke="none"><path d="M262.52444,186.8999c0,0 -5.91174,6.83571 -10.68893,12.82388c-3.05303,3.82696 -7.81385,2.78077 -9.8928,1.38481c-0.6787,-0.45574 0.55741,-0.2413 0.08756,-0.83811c-1.90903,-2.4249 -0.94894,-5.68977 4.46225,-9.23038c8.39119,-5.49045 16.03193,-4.14019 16.03193,-4.14019z" fill="#dc570f"/><path d="M255.43756,189.98258c2.77401,-2.04859 5.51517,-2.79854 5.64908,-2.6072c0.13714,0.19594 -2.46841,1.02622 -5.46167,3.31105c-1.65377,1.26236 -4.38811,1.31596 -6.16091,2.55676c-4.85876,3.40066 -7.16464,6.78748 -7.38056,6.479c-0.21592,-0.30849 2.07586,-3.71545 6.93463,-7.11611c1.84529,-1.29152 4.68731,-1.34431 6.41943,-2.62347z" fill="#148382"/></g><g data-paper-data="{&quot;index&quot;:null}"><path d="M233.16995,190.7966c5.58886,3.25293 6.71828,6.46315 4.93861,8.98453c-0.43801,0.62054 0.78521,0.34181 0.13124,0.83239c-2.00314,1.50274 -6.70277,2.79632 -9.95167,-0.86581c-5.08366,-5.73029 -11.34463,-12.24765 -11.34463,-12.24765c0,0 7.55973,-1.7478 16.22643,3.29654z" fill="#dc570f" stroke="none"/><path d="M230.7296,192.49243c5.02987,3.14204 7.4966,6.42456 7.29711,6.74391c-0.1995,0.31936 -2.67926,-2.94231 -7.70912,-6.08435c-1.83523,-1.14643 -4.56863,-1.05704 -6.28613,-2.23123c-3.10861,-2.12525 -5.75397,-2.81821 -5.62727,-3.02104c0.12373,-0.19807 2.90034,0.40758 5.77764,2.30837c1.79662,1.18687 4.63752,1.09104 6.54779,2.28434z" fill="#148382" stroke="#148382"/></g><g stroke="none"><path d="M224.48302,154.30014c0,0 3.58719,0.04355 6.0016,0.69578c2.58694,0.69884 3.22018,1.59653 3.15825,2.76349c-0.03028,0.57059 -1.5409,0.53388 -2.8451,0.86356c-1.58468,0.40058 -2.2569,1.58769 -2.72222,2.01898z" fill="#ffffff"/><path d="M221.1882,150.35919c0,0 4.28889,-1.26635 6.70332,-0.61413c2.58694,0.69883 3.22018,1.59653 3.15825,2.76349c-0.03027,0.57059 -1.5409,0.53387 -2.84509,0.86355c-1.58468,0.40058 -2.2569,1.58769 -2.72222,2.01898z" fill="#ffffff"/><path d="M217.12277,144.43424c0,0 3.2872,-1.43672 5.75608,-1.83601c2.6453,-0.42783 3.59189,0.12967 4.01574,1.21869c0.20725,0.53249 -1.1846,1.12075 -2.23752,1.95801c-1.27935,1.0173 -1.40342,2.37588 -1.64999,2.96046z" fill="#ffffff"/><path d="M212.35958,139.66048c0,0 3.12952,-1.75952 5.47181,-2.63614c2.50967,-0.93927 4.07229,-0.08281 4.70186,0.90169c0.30784,0.4814 -1.46623,0.83587 -2.33412,1.86367c-1.05453,1.24884 -1.71216,3.95027 -1.83906,4.57192z" fill="#ffffff"/><path d="M218.75185,169.7253c-6.75346,-6.86112 -5.9595,-17.2778 -6.25461,-24.01814c-0.18462,-4.21675 -1.55992,-6.89001 -1.55992,-6.89001c0,0 2.64999,-1.40362 6.43562,2.65991c5.76092,6.18382 13.3019,19.50052 18.03761,25.24658c1.55907,1.8917 4.82153,4.02594 4.82153,4.02594l0.87161,4.21749c0,0 -11.51195,5.77094 -22.35181,-5.24174z" data-paper-data="{&quot;index&quot;:null}" fill="#148382"/><path d="M228.10904,165.00287c-0.8979,0.27148 -1.84589,-0.23634 -2.11737,-1.13424c-0.27148,-0.8979 0.23634,-1.84589 1.13424,-2.11737c0.8979,-0.27148 1.84589,0.23634 2.11737,1.13424c0.27148,0.8979 -0.23634,1.84589 -1.13424,2.11737z" fill="#dc570f"/><path d="M223.58858,158.22934c-0.78568,0.23755 -1.61515,-0.2068 -1.8527,-0.99247c-0.23755,-0.78568 0.2068,-1.61515 0.99247,-1.8527c0.78568,-0.23755 1.61515,0.2068 1.8527,0.99247c0.23755,0.78568 -0.2068,1.61515 -0.99247,1.8527z" fill="#dc570f"/><path d="M216.38321,159.23243c-0.78568,0.23755 -1.61515,-0.2068 -1.8527,-0.99247c-0.23755,-0.78568 0.2068,-1.61515 0.99247,-1.8527c0.78568,-0.23755 1.61515,0.2068 1.8527,0.99247c0.23755,0.78568 -0.2068,1.61515 -0.99247,1.8527z" fill="#dc570f"/><path d="M219.69606,148.91507c-0.67343,0.20361 -1.38441,-0.17725 -1.58803,-0.85068c-0.20361,-0.67343 0.17725,-1.38441 0.85068,-1.58803c0.67343,-0.20361 1.38441,0.17725 1.58803,0.85068c0.20361,0.67343 -0.17725,1.38441 -0.85068,1.58803z" fill="#dc570f"/><path d="M221.11427,165.34331c-0.67343,0.20361 -1.38441,-0.17725 -1.58803,-0.85068c-0.20361,-0.67343 0.17725,-1.38441 0.85068,-1.58803c0.67343,-0.20361 1.38441,0.17725 1.58803,0.85068c0.20361,0.67343 -0.17725,1.38441 -0.85068,1.58803z" fill="#dc570f"/><path d="M232.03196,173.57611c-0.8979,0.27148 -1.84589,-0.23634 -2.11737,-1.13424c-0.27148,-0.8979 0.23634,-1.84589 1.13424,-2.11737c0.8979,-0.27148 1.84589,0.23634 2.11737,1.13424c0.27148,0.8979 -0.23634,1.84589 -1.13424,2.11737z" fill="#dc570f"/><path d="M226.86145,171.14694c-0.44895,0.13574 -0.92293,-0.11817 -1.05867,-0.56712c-0.13574,-0.44895 0.11817,-0.92293 0.56712,-1.05867c0.44895,-0.13574 0.92293,0.11817 1.05867,0.56712c0.13574,0.44895 -0.11817,0.92293 -0.56712,1.05867z" fill="#dc570f"/><path d="M214.27976,145.67302c-0.67343,0.20361 -1.38441,-0.17725 -1.58803,-0.85068c-0.20361,-0.67343 0.17725,-1.38441 0.85068,-1.58803c0.67343,-0.20361 1.38441,0.17725 1.58803,0.85068c0.20361,0.67343 -0.17725,1.38441 -0.85068,1.58803z" fill="#dc570f"/></g><g data-paper-data="{&quot;index&quot;:null}" stroke="none"><path d="M252.57298,160.83318c-0.45409,-0.44311 -1.09559,-1.64709 -2.66945,-2.08826c-1.2953,-0.36309 -2.80636,-0.36519 -2.82197,-0.93637c-0.03192,-1.16816 0.62417,-2.04928 3.22821,-2.68143c2.43037,-0.58998 6.0175,-0.54136 6.0175,-0.54136z" fill="#ffffff"/><path d="M255.30013,155.65067c-0.45409,-0.44311 -1.09559,-1.64709 -2.66945,-2.08826c-1.29529,-0.36308 -2.80636,-0.36518 -2.82197,-0.93636c-0.03192,-1.16816 0.62417,-2.04929 3.22821,-2.68143c2.43038,-0.58998 6.68533,0.78614 6.68533,0.78614z" fill="#ffffff"/><path d="M257.9457,149.06075c-0.23147,-0.59072 -0.32059,-1.95204 -1.57338,-3.00187c-1.03106,-0.86403 -2.40734,-1.48786 -2.18648,-2.01484c0.45169,-1.07777 1.4123,-1.61076 4.04572,-1.11511c2.45781,0.4626 5.70701,1.98329 5.70701,1.98329z" fill="#ffffff"/><path d="M262.70355,144.80783c-0.11089,-0.62471 -0.6989,-3.34213 -1.72099,-4.61766c-0.8412,-1.04976 -2.60558,-1.44969 -2.28547,-1.92302c0.65464,-0.968 2.23877,-1.78403 4.72347,-0.78059c2.319,0.93651 5.40228,2.77585 5.40228,2.77585z" fill="#ffffff"/><path d="M261.66022,170.15309c-11.11922,10.73055 -22.47911,4.66575 -22.47911,4.66575l0.97967,-4.1937c0,0 3.31621,-2.04971 4.92337,-3.90073c4.88177,-5.62249 12.76239,-18.74106 18.68028,-24.77482c3.88878,-3.96492 6.50183,-2.49369 6.50183,-2.49369c0,0 -1.44352,2.63704 -1.73642,6.84765c-0.46818,6.73054 0.05789,17.16418 -6.86961,23.84952z" data-paper-data="{&quot;index&quot;:null}" fill="#148382"/><path d="M251.34801,163.04599c0.29446,-0.89063 1.25518,-1.37393 2.14581,-1.07947c0.89063,0.29446 1.37393,1.25518 1.07947,2.14581c-0.29446,0.89063 -1.25518,1.37393 -2.14581,1.07947c-0.89063,-0.29446 -1.37393,-1.25518 -1.07947,-2.14581z" fill="#dc570f"/><path d="M256.17593,156.65906c0.25766,-0.7793 1.09827,-1.2022 1.87758,-0.94454c0.7793,0.25766 1.2022,1.09827 0.94454,1.87758c-0.25766,0.7793 -1.09827,1.2022 -1.87758,0.94454c-0.7793,-0.25766 -1.2022,-1.09827 -0.94454,-1.87758z" fill="#dc570f"/><path d="M263.35315,157.84694c0.25766,-0.7793 1.09827,-1.2022 1.87758,-0.94454c0.7793,0.25766 1.2022,1.09827 0.94454,1.87758c-0.25766,0.7793 -1.09827,1.2022 -1.87758,0.94454c-0.7793,-0.25766 -1.2022,-1.09827 -0.94454,-1.87758z" fill="#dc570f"/><path d="M260.44141,147.7161c0.22085,-0.66798 0.94138,-1.03045 1.60936,-0.8096c0.66798,0.22085 1.03045,0.94138 0.8096,1.60936c-0.22085,0.66798 -0.94138,1.03045 -1.60936,0.8096c-0.66798,-0.22085 -1.03045,-0.94138 -0.8096,-1.60936z" fill="#dc570f"/><path d="M258.60159,164.10248c0.22085,-0.66798 0.94138,-1.03045 1.60936,-0.8096c0.66798,0.22085 1.03045,0.94138 0.8096,1.60936c-0.22085,0.66798 -0.94138,1.03045 -1.60936,0.8096c-0.66798,-0.22085 -1.03045,-0.94138 -0.8096,-1.60936z" fill="#dc570f"/><path d="M247.20612,171.51561c0.29446,-0.89063 1.25518,-1.37393 2.14581,-1.07947c0.89063,0.29446 1.37393,1.25518 1.07947,2.14581c-0.29446,0.89063 -1.25518,1.37393 -2.14581,1.07947c-0.89063,-0.29446 -1.37393,-1.25518 -1.07947,-2.14581z" fill="#dc570f"/><path d="M252.97706,170.29301c0.14723,-0.44532 0.62758,-0.68696 1.07289,-0.53974c0.44532,0.14723 0.68696,0.62758 0.53974,1.07289c-0.14723,0.44532 -0.62758,0.68696 -1.07289,0.53974c-0.44532,-0.14723 -0.68696,-0.62758 -0.53974,-1.07289z" fill="#dc570f"/><path d="M265.9392,144.61428c0.22085,-0.66798 0.94138,-1.03045 1.60936,-0.8096c0.66798,0.22085 1.03045,0.94138 0.8096,1.60936c-0.22085,0.66798 -0.94138,1.03045 -1.60936,0.8096c-0.66798,-0.22085 -1.03045,-0.94138 -0.8096,-1.60936z" fill="#dc570f"/></g></g></g></svg>