<svg version="1.1" xmlns="http://www.w3.org/2000/svg" xmlns:xlink="http://www.w3.org/1999/xlink" width="85.49398" height="85.49398" viewBox="0,0,85.49398,85.49398"><defs><linearGradient x1="-3285.69704" y1="-2895.28053" x2="-3285.69704" y2="4105.40968" gradientUnits="userSpaceOnUse" id="color-1"><stop offset="0" stop-color="#ffffff"/><stop offset="1" stop-color="#ffffff" stop-opacity="0"/></linearGradient></defs><g transform="translate(-197.25302,-137.25302)"><g data-paper-data="{&quot;isPaintingLayer&quot;:true}" fill-rule="nonzero" stroke-linecap="butt" stroke-linejoin="miter" stroke-miterlimit="10" stroke-dasharray="" stroke-dashoffset="0" style="mix-blend-mode: normal"><g><path d="M208.63952,205.58015c0.00324,-13.1024 0,-44.63208 0,-51.75c0,-3.5626 2.97813,-5.21784 6.54073,-5.21784c12.68063,0 43.89984,0 51,0c2.96729,0 5.18024,2.50056 5.18024,5.46784c0,6.43742 0,39.20833 0,51.75c0,2.95974 -2.72049,5.55758 -5.68024,5.55758c-6.61442,0 -39.17756,0 -52,0c-3.13138,0 -5.04177,-1.58613 -5.04073,-5.80758z" fill="url(#color-1)" stroke="#a97a4a" stroke-width="2"/><path d="M197.25302,222.74701v-85.49398h85.49398v85.49398z" fill="none" stroke="none" stroke-width="0"/></g><g stroke="none" stroke-width="0"><path d="M219.55374,200.58049v-41.02112h41.02113v41.02112z" fill="#cccccc"/><g fill="#aeaeae"><path d="M219.42616,200.61432v-3.60894h41.26032v3.60894z"/><path d="M219.42616,190.30309v-3.60894h41.2603v3.60894z"/><path d="M219.42616,180.16371v-3.60893h41.2603v3.60893z"/><path d="M219.42616,169.85249v-3.60894h41.2603v3.60894z"/><g><path d="M236.97313,166.41542v-6.87414h3.47847v6.87414z"/><path d="M257.10536,166.30384v-6.87415h3.47845v6.87415z"/></g><g><path d="M226.85398,176.5548v-6.87414h3.47846v6.87414z"/><path d="M246.98619,176.61132v-6.87415h3.47847v6.87415z"/></g><g><path d="M236.97313,186.86225v-7.21035h3.47847v7.21035z"/><path d="M257.10536,186.91878v-7.21036h3.47845v7.21036z"/></g><g><path d="M226.85398,197.00538v-6.87414h3.47846v6.87414z"/><path d="M246.98619,197.06191v-6.87415h3.47847v6.87415z"/></g></g></g><path d="M219.07746,163.80261v-4.70494h11.8662v17.14597l19.22848,0.07346l-0.01806,-17.0884h11.23944v4.57391h-7.94623l0.0009,16.1408l-26.34662,-0.04064v-16.10016z" fill="#ffffff" stroke="none" stroke-width="0"/></g></g></svg>