<svg version="1.1" xmlns="http://www.w3.org/2000/svg" xmlns:xlink="http://www.w3.org/1999/xlink" width="41.20665" height="41.09182" viewBox="0,0,41.20665,41.09182"><g transform="translate(-219.45376,-159.55848)"><g data-paper-data="{&quot;isPaintingLayer&quot;:true}" fill-rule="nonzero" stroke="none" stroke-linecap="butt" stroke-linejoin="miter" stroke-miterlimit="10" stroke-dasharray="" stroke-dashoffset="0" style="mix-blend-mode: normal"><path d="M219.50409,200.44778v-40.86785h40.86786v40.86785z" fill="#20ad00" stroke-width="0"/><path d="M240.65872,159.63367c9.98686,0 17.00684,-0.42389 17.00684,0.74124c0,0.29477 1.72214,2.60182 1.66829,3.59595c-0.03241,0.59824 -1.35762,0.07134 -2.25704,0.17562c-1.80694,0.20949 -0.85998,-0.78563 -3.88353,-1.20812c-2.85583,-0.39906 -9.64939,-0.22134 -12.53455,-0.22134c-3.10331,0 -13.23028,-1.65081 -15.42443,3.37677c-3.61832,8.29087 -1.52486,24.0142 -2.31073,31.10339c-0.18775,1.69371 3.89332,2.8011 3.14345,3.17377c-0.33318,0.16559 -5.43476,0.00447 -5.76309,-0.00399c-0.91608,-0.0236 -0.85214,-5.41681 -0.67703,-11.92321c0.18608,-6.91392 -1.10583,-23.00503 1.47771,-27.16113c1.75881,-2.09818 15.74425,-1.64893 19.55411,-1.64893z" fill="#87ff94" stroke-width="0"/><path d="M220.58959,191.84703c0,-4.60086 3.72973,-8.33059 8.33058,-8.33059c4.60085,0 8.33058,3.72974 8.33058,8.33059c0,0.74995 -1.27228,1.14662 -1.27228,1.14662c0,0 0.29166,-1.36399 -0.10474,-2.64235c-0.23893,-0.77052 -0.77927,-1.42752 -1.34504,-2.16921c-1.39094,-1.82343 -3.82732,-2.89344 -5.60852,-2.39367c-6.3418,1.7794 -6.35887,8.14764 -5.17354,11.69588c0.54575,1.63369 2.53996,1.17762 2.15769,2.06488c-0.5845,1.3566 -4.93074,0.62197 -4.93074,0.62197c0,0 -0.38399,-5.73471 -0.38399,-8.32412z" fill="#87ff94" stroke-width="0"/><path d="M241.39095,166.06903c0.13388,-0.27771 2.06038,-0.81999 3.83102,0.25607c0.66156,0.40205 1.88558,2.00371 2.14159,2.52179c0.78626,1.59115 1.68956,4.6097 2.46392,5.95359c0.54264,0.94172 1.02196,0.75635 1.35335,1.13328c1.02461,1.16544 4.98997,0.52146 6.42184,0.2886c0.59942,-0.57792 1.41463,-0.80213 2.14081,-1.51296l0.21131,-0.42263c0.04082,-0.08612 0.12856,-0.1457 0.23021,-0.1457c0.13162,0 0.23991,0.09986 0.25325,0.22795l0.05939,0.50253l-0.07799,0.00922c0.51847,2.95364 -1.71353,5.80843 -2.26795,8.59266c-0.89451,0.86591 -1.24839,2.48116 -1.79772,3.62395c-0.60086,1.25 -1.98519,3.28514 -2.90523,4.19986c-1.92114,2.89776 -5.09539,4.72806 -8.10337,6.0167c-1.03054,0.42598 -3.93963,0.66419 -6.09404,0.19578c-1.68216,-0.36573 -2.8159,-1.42733 -2.8159,-1.42733l1.3943,-1.66544c0,0 3.18486,1.63346 6.07859,0.83516c3.63229,-1.00205 7.19669,-4.66305 7.86232,-6.89167c1.05979,-3.54823 -2.123,-10.97299 -5.43333,-16.23306c-2.26248,-3.59505 -4.94638,-6.05835 -4.94638,-6.05835z" fill="#000000" stroke-width="0.5"/><path d="M226.64819,175.56452c0,-1.03136 -0.73085,-2.75885 -0.46455,-3.78659c0.37234,-1.43697 1.82954,-2.15441 2.33501,-3.40689c0.86665,-2.14743 1.59642,-3.87167 3.76509,-4.65137c1.16487,-0.41881 4.2291,0.48497 5.53501,0.48497c6.16933,0 8.22952,2.06329 8.14124,2.65064c-0.12263,0.81578 -2.2149,0.62868 -3.06595,0.45186c-1.77704,-0.36921 -4.1447,-1.45404 -8.52932,1.3955c-4.92811,3.20276 -5.32827,6.91274 -4.68598,10.11748c0.86814,4.33163 4.01505,7.74022 3.97473,7.72563c-1.73833,-0.62889 -2.56294,-2.00416 -4.72426,-2.27783c-2.06554,-0.26154 -2.28101,-5.90276 -2.28101,-8.70339z" fill="#87ff94" stroke-width="0"/><path d="M237.17397,188.75202c1.56631,2.22265 1.80608,4.63086 1.12171,7.37969c-0.94233,3.73679 -4.08974,4.51859 -7.71447,4.51859c-2.25795,-0.00593 -4.71522,-0.16755 -4.71522,-0.16755c0,0 -1.22602,-1.08055 -1.6157,-1.73909c-0.39374,-0.66537 -0.73469,-2.23285 -0.73469,-2.23285c0,0 1.53333,1.56039 3.79244,1.9614c0.41952,0.07447 1.89906,0.22655 2.24714,0.14763c0.62954,-0.14274 0.08136,-0.62059 0.7592,-0.69791c1.06209,-0.12114 2.3997,0.27304 3.20984,-0.41561c0.54013,-0.45913 0.01128,-1.86188 0.83686,-2.11705c0.54144,-0.16735 1.19127,-1.32799 1.37894,-2.05497c0.77623,-3.00672 -0.56305,-4.27647 -0.17772,-4.80329c0.5722,-0.80112 1.61168,0.22099 1.61168,0.22099z" fill="#000000" stroke-width="0.5"/><path d="M260.38985,187.30412c0,5.09249 -0.11913,13.04527 -0.11913,13.04527l-19.20901,0.1683c0,0 -0.82875,-0.36501 -1.17347,-0.81611c-0.47303,-0.61898 -0.39437,-1.40006 0.70782,-1.62249c0.97075,-0.19591 0.54937,0.84068 1.4453,1.29021c0.9359,0.46958 3.19779,0.3543 4.64342,0.19549c3.83013,-0.42077 9.15349,-3.40238 10.24647,-4.59376c2.67556,-2.91648 3.45861,-7.66691 3.45861,-7.66691z" fill="#000000" stroke-width="0.5"/><path d="M254.66664,159.68776l5.76019,-0.00196c0,0 0.43201,6.40087 -0.03193,7.63991l-0.6016,-0.5019c0,0 -0.80064,-3.77242 -1.7405,-5.08065c-0.69189,-0.96306 -3.38617,-2.0554 -3.38617,-2.0554z" fill="#000000" stroke-width="0.5"/><g stroke-width="0"><path d="M248.96026,170.7471c0,-4.21876 3.41997,-7.63873 7.63873,-7.63873c1.90168,0 2.72442,0.69492 4.0614,1.84466c0.00216,0.21952 -0.16616,12.07704 -0.13759,12.12795c-1.33217,1.13149 -2.03903,1.30486 -3.92381,1.30486c-4.21876,0 -7.63873,-3.41997 -7.63873,-7.63873z" fill="#20ad00"/><path d="M248.96026,170.57736c0,-4.12501 3.34398,-7.46898 7.46898,-7.46898c1.97059,0 2.64259,0.55945 3.97728,1.80633c-0.1369,0.46544 0.16596,1.14842 0.09637,1.63895c-1.64184,-1.87422 -3.38807,-3.11562 -6.83603,-0.44988c-4.29735,3.32243 -3.76664,6.96955 -1.75271,9.31387c1.72399,2.00682 4.12801,2.28922 3.15709,2.28922c-4.12501,0 -6.11099,-3.00448 -6.11099,-7.12948z" fill="#87ff94"/></g><g stroke-width="0"><path d="M219.60522,164.01372c0,0 4.04816,1.83803 4.02839,6.73339c-0.02142,5.30279 -4.17984,6.81258 -4.17984,6.81258z" fill="#20ad00"/><path d="M219.568,164.11244c0,0 1.91296,1.08915 3.01005,2.88883c0.62883,1.03154 0.91976,2.77379 0.91976,3.77979c0,0.63337 -0.64125,-0.72081 -1.6657,-2.19488c-0.97825,-1.40758 -2.34183,-2.92449 -2.34183,-2.92449z" fill="#87ff94"/></g><path d="M237.22637,169.16277c0,-0.56251 0.45599,-1.0185 1.0185,-1.0185c0.56251,0 1.0185,0.45599 1.0185,1.0185c0,0.56251 -0.45599,1.0185 -1.0185,1.0185c-0.56251,0 -1.0185,-0.45599 -1.0185,-1.0185z" fill="#0d9500" stroke-width="0"/><path d="M235.18937,170.86027c0,-0.25 0.20266,-0.45267 0.45266,-0.45267c0.25,0 0.45267,0.20266 0.45267,0.45267c0,0.25 -0.20266,0.45267 -0.45267,0.45267c-0.25,0 -0.45266,-0.20266 -0.45266,-0.45267z" fill="#0d9500" stroke-width="0"/><path d="M231.56804,172.55777c0,-0.4375 0.35467,-0.79217 0.79217,-0.79217c0.4375,0 0.79217,0.35467 0.79217,0.79217c0,0.4375 -0.35467,0.79216 -0.79217,0.79216c-0.4375,0 -0.79217,-0.35466 -0.79217,-0.79216z" fill="#0d9500" stroke-width="0"/><path d="M256.23833,169.27594c0,-0.875 0.70933,-1.58432 1.58432,-1.58432c0.875,0 1.58433,0.70933 1.58433,1.58432c0,0.875 -0.70933,1.58432 -1.58433,1.58432c-0.875,0 -1.58432,-0.70933 -1.58432,-1.58432z" fill="#0d9500" stroke-width="0"/><path d="M257.82266,173.1236c0,-0.375 0.30399,-0.679 0.679,-0.679c0.375,0 0.679,0.304 0.679,0.679c0,0.375 -0.304,0.67899 -0.679,0.67899c-0.375,0 -0.679,-0.30399 -0.679,-0.67899z" fill="#0d9500" stroke-width="0"/><path d="M251.03268,172.4446c0,-0.5 0.40532,-0.90532 0.90532,-0.90532c0.5,0 0.90533,0.40532 0.90533,0.90532c0,0.5 -0.40533,0.90533 -0.90533,0.90533c-0.5,0 -0.90532,-0.40533 -0.90532,-0.90533z" fill="#0d9500" stroke-width="0"/><path d="M245.60068,179.00826c0,-0.5 0.40533,-0.90533 0.90533,-0.90533c0.5,0 0.90533,0.40533 0.90533,0.90533c0,0.5 -0.40533,0.90533 -0.90533,0.90533c-0.5,0 -0.90533,-0.40533 -0.90533,-0.90533z" fill="#0d9500" stroke-width="0"/><path d="M242.43202,171.19977c0,-0.31251 0.25333,-0.56583 0.56583,-0.56583c0.31251,0 0.56583,0.25333 0.56583,0.56583c0,0.31251 -0.25333,0.56583 -0.56583,0.56583c-0.31251,0 -0.56583,-0.25333 -0.56583,-0.56583z" fill="#0d9500" stroke-width="0"/><path d="M225.00439,180.13992c0,-0.375 0.30399,-0.67899 0.67899,-0.67899c0.375,0 0.67899,0.30399 0.67899,0.67899c0,0.375 -0.30399,0.679 -0.67899,0.679c-0.375,0 -0.67899,-0.304 -0.67899,-0.679z" fill="#0d9500" stroke-width="0"/><path d="M224.09906,183.19541c0,-0.31251 0.25333,-0.56583 0.56583,-0.56583c0.31251,0 0.56583,0.25333 0.56583,0.56583c0,0.31251 -0.25333,0.56584 -0.56583,0.56584c-0.31251,0 -0.56583,-0.25334 -0.56583,-0.56584z" fill="#0d9500" stroke-width="0"/><path d="M229.30472,188.6274c0,-0.56251 0.45599,-1.0185 1.0185,-1.0185c0.56251,0 1.0185,0.45599 1.0185,1.0185c0,0.56251 -0.45599,1.0185 -1.0185,1.0185c-0.56251,0 -1.0185,-0.45599 -1.0185,-1.0185z" fill="#0d9500" stroke-width="0"/><path d="M226.36239,190.43806c0,-0.31251 0.25333,-0.56583 0.56583,-0.56583c0.31251,0 0.56583,0.25333 0.56583,0.56583c0,0.31251 -0.25333,0.56583 -0.56583,0.56583c-0.31251,0 -0.56583,-0.25333 -0.56583,-0.56583z" fill="#0d9500" stroke-width="0"/><path d="M246.95869,190.09857c0,-0.5 0.40532,-0.90533 0.90532,-0.90533c0.5,0 0.90533,0.40533 0.90533,0.90533c0,0.5 -0.40533,0.90533 -0.90533,0.90533c-0.5,0 -0.90532,-0.40533 -0.90532,-0.90533z" fill="#0d9500" stroke-width="0"/><path d="M243.11102,192.70139c0,-0.31251 0.25333,-0.56583 0.56583,-0.56583c0.31251,0 0.56583,0.25333 0.56583,0.56583c0,0.31251 -0.25333,0.56583 -0.56583,0.56583c-0.31251,0 -0.56583,-0.25333 -0.56583,-0.56583z" fill="#0d9500" stroke-width="0"/><path d="M238.35803,198.47288c0,-0.375 0.30399,-0.67899 0.67899,-0.67899c0.375,0 0.67899,0.30399 0.67899,0.67899c0,0.375 -0.30399,0.679 -0.67899,0.679c-0.375,0 -0.67899,-0.304 -0.67899,-0.679z" fill="#0d9500" stroke-width="0"/><path d="M254.42767,194.85155c0,-0.5 0.40533,-0.90532 0.90533,-0.90532c0.5,0 0.90533,0.40532 0.90533,0.90532c0,0.5 -0.40533,0.90533 -0.90533,0.90533c-0.5,0 -0.90533,-0.40533 -0.90533,-0.90533z" fill="#0d9500" stroke-width="0"/><path d="M237.00004,184.21391c0,-0.5 0.40533,-0.90532 0.90533,-0.90532c0.5,0 0.90533,0.40532 0.90533,0.90532c0,0.5 -0.40533,0.90533 -0.90533,0.90533c-0.5,0 -0.90533,-0.40533 -0.90533,-0.90533z" fill="#0d9500" stroke-width="0"/><path d="M232.69972,179.00826c0,-0.25 0.20266,-0.45267 0.45267,-0.45267c0.25,0 0.45266,0.20266 0.45266,0.45267c0,0.25 -0.20266,0.45267 -0.45266,0.45267c-0.25,0 -0.45267,-0.20266 -0.45267,-0.45267z" fill="#0d9500" stroke-width="0"/><path d="M247.41135,180.36625c0,-0.5 0.40532,-0.90533 0.90532,-0.90533c0.5,0 0.90533,0.40533 0.90533,0.90533c0,0.5 -0.40533,0.90533 -0.90533,0.90533c-0.5,0 -0.90532,-0.40533 -0.90532,-0.90533z" fill="#0d9500" stroke-width="0"/><path d="M226.13606,166.55995c0,-0.5 0.40533,-0.90533 0.90533,-0.90533c0.5,0 0.90532,0.40533 0.90532,0.90533c0,0.5 -0.40532,0.90533 -0.90532,0.90533c-0.5,0 -0.90533,-0.40533 -0.90533,-0.90533z" fill="#0d9500" stroke-width="0"/><path d="M247.63768,178.21609c0,-0.31251 0.25333,-0.56583 0.56583,-0.56583c0.31251,0 0.56583,0.25333 0.56583,0.56583c0,0.31251 -0.25333,0.56583 -0.56583,0.56583c-0.31251,0 -0.56583,-0.25333 -0.56583,-0.56583z" fill="#0d9500" stroke-width="0"/><path d="M251.63993,192.98301c3.3613,-3.14159 4.63987,-9.46657 6.6266,-9.46657c1.98673,0 -1.22691,9.27393 -5.11194,11.73855c-6.05861,3.84353 -12.30145,4.86392 -13.06386,3.0293c-0.47207,-1.13599 6.6266,-0.70043 11.54922,-5.30128z" fill="#87ff94" stroke-width="0"/></g></g></svg>