<svg version="1.1" xmlns="http://www.w3.org/2000/svg" xmlns:xlink="http://www.w3.org/1999/xlink" width="85.49398" height="85.49398" viewBox="0,0,85.49398,85.49398"><defs><linearGradient x1="-3285.69704" y1="-2895.28055" x2="-3285.69704" y2="4105.40967" gradientUnits="userSpaceOnUse" id="color-1"><stop offset="0" stop-color="#ffffff"/><stop offset="1" stop-color="#ffffff" stop-opacity="0"/></linearGradient></defs><g transform="translate(-197.25302,-137.25301)"><g data-paper-data="{&quot;isPaintingLayer&quot;:true}" fill-rule="nonzero" stroke-linecap="butt" stroke-linejoin="miter" stroke-miterlimit="10" stroke-dasharray="" stroke-dashoffset="0" style="mix-blend-mode: normal"><path d="M208.63952,205.58013c0.00324,-13.1024 0,-44.63208 0,-51.75c0,-3.5626 2.97813,-5.21784 6.54073,-5.21784c12.68063,0 43.89984,0 51,0c2.96729,0 5.18024,2.50056 5.18024,5.46784c0,6.43742 0,39.20833 0,51.75c0,2.95974 -2.72049,5.55758 -5.68024,5.55758c-6.61442,0 -39.17756,0 -52,0c-3.13138,0 -5.04177,-1.58613 -5.04073,-5.80758z" fill="url(#color-1)" stroke="#a97a4a" stroke-width="2"/><path d="M197.25302,222.74699v-85.49398h85.49398v85.49398z" fill="none" stroke="none" stroke-width="0"/><g stroke="none" stroke-width="0"><path d="M219.87735,200.0783v-40.12561h40.12562v40.12561z" fill="#148382"/><path d="M236.87611,190.9421c0,0 6.39317,-3.17004 8.96856,-7.91573c0.77209,-1.42273 0.5149,-4.23423 1.00251,-5.76319c2.82654,-8.86296 0.93997,-17.28759 0.93997,-17.28759h2.61688l0.90931,2.19356c0,0 -0.06336,9.41215 -1.21316,14.93607c-0.58115,2.79201 -0.9913,5.79249 -2.21768,7.61695c-3.79289,5.64257 -8.60759,7.09222 -8.60759,7.09222l-0.06038,8.18081l-2.33843,0.00335z" fill="#9bf2ff"/><path d="M249.11585,180.349v-5.46463c0,0 1.3573,2.07105 2.51747,2.40943c1.1867,0.34612 4.95045,0.34968 4.95045,0.34968l1.9,1.06297v1.64254z" fill="#9bf2ff"/><path d="M222.37822,162.19863v-2.27693h24.59081v2.27693z" fill="#9bf2ff"/><path d="M219.84107,197.60585v-35.21205h2.34198v35.21205z" fill="#9bf2ff"/><path d="M250.07541,162.28006v-2.27693h7.80661v2.27693z" fill="#9bf2ff"/><path d="M219.98744,187.65154v-2.27693c0,0 3.87507,0.43271 5.47767,0.97292c1.01689,0.34277 2.56998,2.62016 4.10116,3.29386c2.47664,1.0897 4.89594,0.61236 4.89594,0.61236v2.27693c0,0 -3.8105,0.4031 -6.21785,-0.55616c-2.02418,-0.80658 -2.57981,-2.95756 -3.75396,-3.35334c-1.28017,-0.43152 -4.50295,-0.96963 -4.50295,-0.96963z" fill="#9bf2ff"/><path d="M224.66178,165.33986c1.60468,-1.74164 9.84772,-1.15672 12.32989,-1.15672c2.86494,0 5.03185,1.68255 5.50705,4.39059c0.33399,1.90331 0.32629,4.81518 0.32629,6.94274c0,3.48116 -0.59315,7.03182 -3.56315,8.53752c-1.42777,0.72384 -4.68633,0.46248 -6.27018,0.46248c-4.87852,0 -8.83334,-4.17867 -8.83334,-9.33333c0,-2.532 -1.04577,-8.16184 0.50344,-9.84328z" fill="#117472"/><path d="M245.45361,192.47654c0.16535,-1.76895 3.0207,-1.51064 3.63721,-2.66286c1.61208,-3.01285 1.98847,-6.63054 3.23418,-6.63054c2.30119,0 3.83333,4.756 3.83333,7.33333c0,2.57733 -1.86547,4.66667 -4.16666,4.66667c0,0 -7.02691,2.5232 -6.53806,-2.7066z" fill="#117472"/><g fill="#000000"><path d="M251.33452,178.43354l-1.47904,-1.60632l0.78242,-3.65082l1.77247,2.83542l5.25289,-0.19517v2.61688z"/><path d="M222.23788,200.06068v-2.53715h12.24058v2.53715z"/><path d="M239.16242,200.06068v-2.73231h18.34553v2.73232z"/><path d="M257.55674,197.24715v-18.86597h2.43957v18.86597z"/><path d="M257.55674,175.77898v-13.33629h2.6022v13.33629z"/><path d="M234.53413,190.64936c0,0 6.78351,-2.68213 9.3589,-7.42781c4.33567,-7.98933 1.95053,-23.21341 1.95053,-23.21341h3.10883c0,0 2.43912,16.78555 -3.02152,24.90921c-3.79289,5.64257 -8.60759,7.09223 -8.60759,7.09223l-0.06039,5.44849l-2.72876,0.00335z"/><path d="M219.98744,185.86252v-2.27693c0,0 3.87507,0.43271 5.47767,0.97291c1.01689,0.34277 2.56998,2.62016 4.10116,3.29386c2.47664,1.0897 11.58731,0.61236 11.58731,0.61236l-3.6245,2.27693c0,0 -6.87737,0.4031 -9.28472,-0.55616c-2.02418,-0.80658 -2.57981,-2.95756 -3.75396,-3.35334c-1.28017,-0.43152 -4.50295,-0.96963 -4.50295,-0.96963z"/></g></g></g></g></svg>