<svg version="1.1" xmlns="http://www.w3.org/2000/svg" xmlns:xlink="http://www.w3.org/1999/xlink" width="85.49398" height="85.49398" viewBox="0,0,85.49398,85.49398"><g transform="translate(-197.25302,-137.25301)"><g data-paper-data="{&quot;isPaintingLayer&quot;:true}" fill-rule="nonzero" stroke="none" stroke-width="0" stroke-linecap="butt" stroke-linejoin="miter" stroke-miterlimit="10" stroke-dasharray="" stroke-dashoffset="0" style="mix-blend-mode: normal"><path d="M212.25306,148.68277c1.17548,0 53.69876,0 55.60428,0c3.01814,0 4.99582,2.09516 4.99582,5.1133c0,1.18985 0,50.99371 0,52.87471c0,3.01127 -2.2517,4.64645 -5.26297,4.64645c-1.87147,0 -54.32529,0 -55.47071,0c-2.94003,0 -4.93093,-1.97357 -4.93093,-4.91358c0,-1.74992 -0.09385,-49.59954 0,-52.47399c0.09385,-2.87445 3.88903,-5.24689 5.06451,-5.24689z" fill="#45a7e0"/><path d="M197.25302,222.74699v-85.49398h85.49398v85.49398z" data-paper-data="{&quot;index&quot;:null}" fill="none"/><g fill="#ffffff"><path d="M226.67263,170.54749h26.65474l-13.32737,13.32738z"/><path d="M235.54276,177.21118v-14.98687h8.91448v14.98687z"/></g><path d="M219.29028,198.91754v-19.91319h4.08221v16.12969l33.24952,0.09746l-0.19362,-16.22715h4.28132v19.91319z" fill="#ffffff"/></g></g></svg>