<svg version="1.1" xmlns="http://www.w3.org/2000/svg" xmlns:xlink="http://www.w3.org/1999/xlink" width="283.96161" height="161.29987" viewBox="0,0,283.96161,161.29987"><defs><linearGradient x1="239.36133" y1="104.73126" x2="239.36133" y2="243.58568" gradientUnits="userSpaceOnUse" id="color-1"><stop offset="0" stop-color="#c84c0c"/><stop offset="1" stop-color="#aa3900"/></linearGradient></defs><g transform="translate(-97.38052,-103.27353)"><g data-paper-data="{&quot;isPaintingLayer&quot;:true}" fill-rule="nonzero" stroke-linecap="butt" stroke-linejoin="miter" stroke-miterlimit="10" stroke-dasharray="" stroke-dashoffset="0" style="mix-blend-mode: normal"><path d="M98.63052,243.37793v-138.8544h281.46161v138.85442z" fill="url(#color-1)" stroke="#fcbcb0" stroke-width="2.5"/><g><g fill="#000000" stroke="none" stroke-width="0"><path d="M199.12948,236.42579v-64.15538h9.65011v64.15538z"/><g><path d="M173.39584,236.42579v-64.15538h9.65011v64.15538z"/><path d="M186.4637,197.82535v-12.68812h9.65011v12.68812z"/><path d="M173.5559,185.46499c0,-7.3365 5.00475,-13.28392 11.17843,-13.28392c6.17369,0 11.17843,5.94742 11.17843,13.28392c0,0.85382 -0.1973,-0.10686 -0.1973,-0.10686l-22.19682,0.16246c0,0 0.03725,0.7638 0.03725,-0.0556z"/><path d="M186.49242,236.42579v-31.06928h6.27258c0,0 0.9597,0.33405 1.85597,1.87108c0.78512,1.34639 1.52155,3.803 1.52155,5.2644c0,5.63522 0,23.93383 0,23.93383z"/><path d="M184.47257,197.6398l11.24289,-0.04325c0,0 0.1973,-0.96067 0.1973,-0.10686c0,7.3365 -5.00475,13.28392 -11.17843,13.28392c-0.34099,0 -0.1456,-0.05366 -0.1456,-0.05366z" data-paper-data="{&quot;index&quot;:null}"/></g><g><path d="M211.9963,223.55899v-38.42175h9.65011v38.42175z"/><path d="M224.86312,223.55899v-38.42175h9.65011v38.42175z"/><path d="M212.15634,185.46499c0,-7.3365 5.00475,-13.28392 11.17843,-13.28392c6.17369,0 11.17843,5.94742 11.17843,13.28392c0,0.85382 -0.1973,-0.10686 -0.1973,-0.10686l-22.19682,0.16246c0,0 0.03725,0.7638 0.03725,-0.0556z"/><path d="M212.11909,223.28262l22.19682,0.16246c0,0 0.1973,-0.96067 0.1973,-0.10686c0,7.3365 -5.00475,13.28392 -11.17843,13.28392c-6.17369,0 -11.17843,-5.94742 -11.17843,-13.28392c0,-0.8194 -0.03725,-0.0556 -0.03725,-0.0556z" data-paper-data="{&quot;index&quot;:null}"/></g><g><path d="M147.66221,236.42579v-51.28856h9.65011v51.28856z"/><path d="M160.52903,236.42579v-51.28856h9.65011v51.28856z"/><path d="M147.82225,185.46499c0,-7.3365 5.00475,-13.28392 11.17843,-13.28392c6.17369,0 11.17843,5.94742 11.17843,13.28392c0,0.85382 -0.1973,-0.10686 -0.1973,-0.10686l-22.19682,0.16246c0,0 0.03725,0.7638 0.03725,-0.0556z"/><path d="M152.48727,223.59729v-12.86682h9.65011v12.86682z"/></g><g><path d="M109.06177,236.42579v-51.28856h9.65011v51.28856z"/><path d="M121.92857,236.42579v-51.28856h9.65011v51.28856z"/><path d="M134.79539,236.42579v-51.28856h9.65011v51.28856z"/><path d="M126.2175,185.46499c0,-7.3365 4.08049,-13.28392 9.11399,-13.28392c5.03353,0 9.11397,5.94742 9.11397,13.28392c0,0.85382 -0.16086,-0.10686 -0.16086,-0.10686l-18.09748,0.16246c0,0 0.03036,0.7638 0.03036,-0.0556z"/><path d="M109.06177,185.46499c0,-7.3365 4.08049,-13.28392 9.11399,-13.28392c5.03353,0 9.11397,5.94742 9.11397,13.28392c0,0.85382 -0.16086,-0.10686 -0.16086,-0.10686l-18.09748,0.16246c0,0 0.03036,0.7638 0.03036,-0.0556z"/></g><g><g><path d="M250.66375,236.42579v-64.15538h9.65011v64.15538z"/><path d="M263.73161,197.82535v-12.68812h9.65011v12.68812z"/><path d="M250.82381,185.46499c0,-7.3365 5.00475,-13.28392 11.17843,-13.28392c6.17367,0 11.17843,5.94742 11.17843,13.28392c0,0.85382 -0.19731,-0.10686 -0.19731,-0.10686l-22.19682,0.16246c0,0 0.03725,0.7638 0.03725,-0.0556z"/><path d="M262.15199,236.42579v-12.66185h1.60835v-18.40744h6.27259c0,0 0.9597,0.33405 1.85597,1.87108c0.78512,1.34639 1.52155,3.803 1.52155,5.2644c0,2.67654 0,8.20986 0,13.28242c0,4.77551 0.08028,10.6514 -4.69521,10.6514c-2.00498,0 -6.56325,0 -6.56325,0z"/><path d="M261.74047,197.6398l11.24289,-0.04325c0,0 0.19731,-0.96067 0.19731,-0.10686c0,7.3365 -5.00475,13.28392 -11.17843,13.28392c-0.34099,0 -0.1456,-0.05366 -0.1456,-0.05366z" data-paper-data="{&quot;index&quot;:null}"/></g><g><path d="M276.33038,236.42579v-64.15538h9.65011v64.15538z"/><path d="M289.39824,197.82535v-12.68812h9.65011v12.68812z"/><path d="M276.49043,185.46499c0,-7.3365 5.00475,-13.28392 11.17843,-13.28392c6.17367,0 11.17843,5.94742 11.17843,13.28392c0,0.85382 -0.19731,-0.10686 -0.19731,-0.10686l-22.19682,0.16246c0,0 0.03725,0.7638 0.03725,-0.0556z"/><path d="M289.42696,236.42579v-31.06928h6.27258c0,0 0.9597,0.33405 1.85597,1.87108c0.78512,1.34639 1.52157,3.803 1.52157,5.2644c0,5.63522 0,23.93383 0,23.93383z"/><path d="M287.4071,197.6398l11.24289,-0.04325c0,0 0.19731,-0.96067 0.19731,-0.10686c0,7.3365 -5.00475,13.28392 -11.17843,13.28392c-0.34099,0 -0.14562,-0.05366 -0.14562,-0.05366z" data-paper-data="{&quot;index&quot;:null}"/></g><path d="M353.58716,236.76224v-13.2689h9.65011v13.2689z"/><g><g><path d="M327.9891,201.04205v-15.90482h9.65011v15.90482z"/><path d="M327.95769,185.46499c0,-7.3365 5.00475,-13.28392 11.17843,-13.28392c6.17367,0 11.17843,5.94742 11.17843,13.28392c0,0.85382 -0.19731,-0.10686 -0.19731,-0.10686l-22.19682,0.16246c0,0 0.03725,0.7638 0.03725,-0.0556z"/><path d="M340.85592,197.82535v-12.68812h9.65011v12.68812z"/></g><g><path d="M350.43737,207.79456v15.90482h-9.65011v-15.90482z"/><path d="M350.46879,223.37167c0,7.3365 -5.00475,13.28392 -11.17843,13.28392c-6.17367,0 -11.17843,-5.94742 -11.17843,-13.28392c0,-0.85382 0.19731,0.10686 0.19731,0.10686l22.19682,-0.16246c0,0 -0.03725,-0.7638 -0.03725,0.0556z"/><path d="M337.57056,211.01127v12.68812h-9.65011v-12.68812z"/></g><path d="M340.72233,211.43069c0,0 -0.24827,-2.349 -2.37255,-3.28313c-2.04655,-0.89995 -4.67042,-0.95063 -7.60867,-3.10672c-2.3147,-1.69851 -2.70689,-4.15378 -2.70689,-4.15378l9.65011,-5.53988c0,0 -0.14017,2.80574 1.1959,3.52222c2.76267,1.4815 6.32401,3.92019 8.08678,4.88905c3.80726,2.09257 3.22674,6.06388 3.22674,6.06388z"/></g><g><path d="M302.06401,223.55899v-38.42175h9.65011v38.42175z"/><path d="M314.93083,223.55899v-38.42175h9.65011v38.42175z"/><path d="M302.22405,185.46499c0,-7.3365 5.00475,-13.28392 11.17843,-13.28392c6.17367,0 11.17843,5.94742 11.17843,13.28392c0,0.85382 -0.19731,-0.10686 -0.19731,-0.10686l-22.19682,0.16246c0,0 0.03725,0.7638 0.03725,-0.0556z"/><path d="M302.18681,223.28262l22.19682,0.16246c0,0 0.19731,-0.96067 0.19731,-0.10686c0,7.3365 -5.00475,13.28392 -11.17843,13.28392c-6.17367,0 -11.17843,-5.94742 -11.17843,-13.28392c0,-0.8194 -0.03725,-0.0556 -0.03725,-0.0556z" data-paper-data="{&quot;index&quot;:null}"/></g></g></g><g fill="#000000" stroke="none" stroke-width="0"><path d="M120.85786,161.94319c-12.49781,0.64073 -12.53183,-13.41644 -12.53183,-13.41644l13.58412,-0.1539c0,0 -3.15008,-1.86122 -7.27056,-4.53485c-5.52518,-3.58506 -8.7446,-10.50691 -4.67984,-16.92017c4.49657,-7.09456 14.59896,-5.96214 18.04053,-2.01138c3.90433,4.482 3.38726,10.73488 3.38726,10.73488l-11.11946,-0.01501c0,0 9.08878,3.8437 11.12298,12.74664c1.41616,6.19804 -1.76737,13.12083 -10.53325,13.57023z"/><path d="M134.48266,151.61298v-28.95035h9.2927v25.73363l4.27929,-0.05795l0.00966,-25.67568h9.2927v28.95035c0,0 -0.8975,9.41838 -11.07976,9.65011c-10.66413,0.24268 -11.79459,-9.65011 -11.79459,-9.65011z"/><path d="M160.57372,161.2631v-38.60045c0,0 12.5405,-3.09059 19.05214,2.09837c2.43716,1.94209 3.41506,5.96604 3.46479,10.41104c0.04384,3.92025 -0.80051,7.40465 -2.42636,9.35564c-3.2756,3.93062 -8.62995,3.82359 -8.62995,3.82359l-0.02882,-12.85153l-2.13909,0.02972v25.73363z"/><path d="M198.10192,146.25181v-9.29269h9.2927v9.29269z"/><path d="M186.66475,150.89814c0,-3.81622 0,-11.96116 0,-18.5854c0,-5.57468 3.0032,-10.00752 8.57789,-10.00752c4.08513,0 13.93904,0 13.93904,0v12.86682l-12.8377,-0.00897l-0.02912,12.8758h12.86682v12.50941c0,0 -9.85392,0 -13.93904,0c-3.20464,0 -8.57789,-2.64545 -8.57789,-9.65011z"/><path d="M212.45423,160.88335v-38.60045c0,0 10.29638,0 14.47517,0c5.45957,0 8.44385,4.59264 8.44385,10.0522c0,8.37579 -2.81462,10.85638 -2.81462,10.85638c0,0 2.01379,2.14644 2.32441,6.10928c0.15448,1.97092 0.49021,11.58258 0.49021,11.58258h-9.24802c0,0 -1.81419,-8.32139 -2.2586,-13.04451c-0.37606,-3.99673 -0.2373,-13.48068 -0.2373,-13.48068l-1.52497,-0.01262l-0.40209,26.53781z"/></g><g fill="#fcbcb0" stroke="none" stroke-width="0"><path d="M119.24951,154.70561c-12.49781,0.64073 -12.53183,-13.41644 -12.53183,-13.41644l12.37786,-0.1539c0,0 -1.9438,-1.86122 -6.06429,-4.53485c-5.52518,-3.58506 -8.7446,-10.50691 -4.67984,-16.92017c4.49657,-7.09456 14.59896,-5.96214 18.04053,-2.01138c3.90433,4.482 3.38726,9.52862 3.38726,9.52862l-11.11946,-0.01501c0,0 2.76842,2.74448 5.59145,5.61968c2.29201,2.33441 4.62002,4.34386 5.53154,8.33323c1.41616,6.19804 -1.76737,13.12083 -10.53325,13.57023z" data-paper-data="{&quot;index&quot;:null}"/><path d="M132.87429,144.37541v-28.95035h9.2927v25.73363l4.27929,-0.05795l0.00966,-25.67568h9.2927v28.95035c0,0 -0.8975,9.41838 -11.07976,9.65011c-10.66413,0.24268 -11.79459,-9.65011 -11.79459,-9.65011z"/><path d="M158.96536,154.0255v-38.60045c0,0 3.74459,-0.13479 8.13279,-0.11153c3.83939,0.02033 8.1715,0.02022 10.91934,2.20991c2.43716,1.94209 3.41506,5.96604 3.46479,10.41104c0.04384,3.92025 -0.80051,7.40465 -2.42636,9.35564c-3.2756,3.93062 -8.62995,3.82359 -8.62995,3.82359l-0.02882,-12.85153l-2.13909,0.02972v25.73363z"/><path d="M196.49357,139.01422v-9.29269h9.2927v9.29269z"/><path d="M185.0564,143.66057c0,-3.81622 0,-11.96116 0,-18.5854c0,-5.57468 3.0032,-10.00752 8.57789,-10.00752c4.08513,0 13.93904,0 13.93904,0v12.86682l-12.8377,-0.00897l-0.02912,12.8758h12.86682v12.50941c0,0 -9.85392,0 -13.93904,0c-3.20464,0 -8.57789,-2.64545 -8.57789,-9.65011z"/><path d="M211.39985,153.64576v-38.60045c0,0 10.29638,0 14.47517,0c5.45957,0 8.44385,4.59264 8.44385,10.0522c0,8.37579 -2.81462,10.85638 -2.81462,10.85638c0,0 2.01379,2.14644 2.32441,6.10928c0.15448,1.97092 0.49021,11.58258 0.49021,11.58258h-9.24802c0,0 -0.17205,-6.44226 -0.58076,-8.80274c-0.32461,-1.87484 -1.67787,-4.24178 -1.67787,-4.24178l-0.2373,-13.48068l-1.52497,-0.01262l-0.40209,26.53781z"/></g><g fill="#fcbcb0" stroke="#fcbcb0"><path d="M197.52113,229.99239v-64.15538h9.65011v64.15538z" stroke-width="0.5"/><g stroke-width="0.5"><path d="M171.14415,229.99239v-64.15538h9.65011v64.15538z"/><path d="M185.08511,191.80742v-13.51907h9.19059v13.51907z"/><path d="M171.94753,179.03158c0,-7.3365 5.00475,-13.28392 11.17843,-13.28392c6.17369,0 11.17843,5.94742 11.17843,13.28392c0,0.85382 -0.1973,-0.10686 -0.1973,-0.10686l-22.19682,0.16246c0,0 0.03725,0.7638 0.03725,-0.0556z"/><path d="M184.88406,229.99239v-31.06928h6.27258c0,0 0.9597,0.33405 1.85597,1.87108c0.78512,1.34639 1.52155,3.803 1.52155,5.2644c0,5.63522 0,23.93383 0,23.93383z"/><path d="M182.86421,191.20639l11.24289,-0.04325c0,0 0.1973,-0.96067 0.1973,-0.10686c0,7.3365 -5.00475,13.28392 -11.17843,13.28392c-0.34099,0 -0.1456,-0.05366 -0.1456,-0.05366z" data-paper-data="{&quot;index&quot;:null}"/></g><g><path d="M210.55413,217.12558v-38.42175h9.65011v38.42175z" stroke-width="0.5"/><path d="M223.42096,217.12558v-38.42175h9.65011v38.42175z" stroke-width="0"/><path d="M210.54799,179.23932c0,-7.3365 5.00475,-13.28392 11.17843,-13.28392c6.17369,0 11.17843,5.94742 11.17843,13.28392c0,0.85382 -0.1973,-0.10686 -0.1973,-0.10686l-22.19682,0.16246c0,0 0.03725,0.7638 0.03725,-0.0556z" stroke-width="0.5"/><path d="M210.4759,216.24607l22.19682,0.16246c0,0 0.1973,-0.96067 0.1973,-0.10686c0,7.3365 -5.00475,13.28392 -11.17843,13.28392c-6.17369,0 -11.17843,-5.94742 -11.17843,-13.28392c0,-0.8194 -0.03725,-0.0556 -0.03725,-0.0556z" data-paper-data="{&quot;index&quot;:null}" stroke-width="0.5"/></g><g stroke-width="0.5"><path d="M146.05387,229.99239v-51.28856h9.65011v51.28856z"/><path d="M158.92068,229.99239v-51.28856h9.65011v51.28856z"/><path d="M146.2139,179.03158c0,-7.3365 5.00475,-13.28392 11.17843,-13.28392c6.17369,0 11.17843,5.94742 11.17843,13.28392c0,0.85382 -0.1973,-0.10686 -0.1973,-0.10686l-22.19682,0.16246c0,0 0.03725,0.7638 0.03725,-0.0556z"/><path d="M150.87892,217.16387v-12.86682h9.65011v12.86682z"/></g><g stroke-width="0.5"><path d="M107.4534,229.99239v-51.28856h9.65011v51.28856z"/><path d="M120.32022,229.99239v-51.28856h9.65011v51.28856z"/><path d="M133.18703,229.99239v-51.28856h9.65011v51.28856z"/><path d="M124.60915,179.03158c0,-7.3365 4.08049,-13.28392 9.11399,-13.28392c5.03353,0 9.11397,5.94742 9.11397,13.28392c0,0.85382 -0.16086,-0.10686 -0.16086,-0.10686l-18.09748,0.16246c0,0 0.03036,0.7638 0.03036,-0.0556z"/><path d="M107.4534,179.03158c0,-7.3365 4.08049,-13.28392 9.11399,-13.28392c5.03353,0 9.11397,5.94742 9.11397,13.28392c0,0.85382 -0.16086,-0.10686 -0.16086,-0.10686l-18.09748,0.16246c0,0 0.03036,0.7638 0.03036,-0.0556z"/></g><g><g stroke-width="0.5"><path d="M248.59588,229.99239v-63.75329h9.65011v63.75329z"/><path d="M261.92221,191.39195v-12.68812h9.65011v12.68812z"/><path d="M249.21546,179.43368c0,-7.3365 5.00475,-13.28392 11.17843,-13.28392c6.17367,0 11.17843,5.94742 11.17843,13.28392c0,0.85382 -0.19731,-0.10686 -0.19731,-0.10686l-22.19682,0.16246c0,0 0.03725,0.7638 0.03725,-0.0556z"/><path d="M260.54364,229.99239v-12.66185h1.60835v-18.40744h6.27259c0,0 0.9597,0.33405 1.85597,1.87108c0.78512,1.34639 1.52155,3.803 1.52155,5.2644c0,2.67654 0,8.20986 0,13.28242c0,4.77551 0.08028,10.6514 -4.69521,10.6514c-2.00498,0 -6.56325,0 -6.56325,0z"/><path d="M260.13214,191.20639l11.24289,-0.04325c0,0 0.19731,-0.96067 0.19731,-0.10686c0,7.3365 -5.00475,13.28392 -11.17843,13.28392c-0.34099,0 -0.1456,-0.05366 -0.1456,-0.05366z" data-paper-data="{&quot;index&quot;:null}"/></g><g stroke-width="0.5"><path d="M274.49226,229.99239v-63.75329h9.65011v63.75329z"/><path d="M287.58884,191.39195v-12.68812h9.65011v12.68812z"/><path d="M274.88208,179.43368c0,-7.3365 5.00475,-13.28392 11.17843,-13.28392c6.17367,0 11.17843,5.94742 11.17843,13.28392c0,0.85382 -0.19731,-0.10686 -0.19731,-0.10686l-22.19682,0.16246c0,0 0.03725,0.7638 0.03725,-0.0556z"/><path d="M287.81861,229.99239v-31.06928h6.27258c0,0 0.9597,0.33405 1.85597,1.87108c0.78512,1.34639 1.52157,3.803 1.52157,5.2644c0,5.63522 0,23.93383 0,23.93383z"/><path d="M285.79875,191.20639l11.24289,-0.04325c0,0 0.19731,-0.96067 0.19731,-0.10686c0,7.3365 -5.00475,13.28392 -11.17843,13.28392c-0.34099,0 -0.14562,-0.05366 -0.14562,-0.05366z" data-paper-data="{&quot;index&quot;:null}"/></g><path d="M351.9788,230.32883v-13.2689h9.65011v13.2689z" stroke-width="0.5"/><g><g><path d="M326.58179,194.60865c0,0 -0.20104,-1.61181 -0.20104,-2.93928c0,-2.78805 0,-12.96554 0,-12.96554h9.65011v15.90482z" stroke-width="0.5"/><path d="M326.34935,179.03158c0,-7.3365 5.00475,-13.28392 11.17843,-13.28392c6.17367,0 11.17843,5.94742 11.17843,13.28392c0,0.85382 -0.19731,-0.10686 -0.19731,-0.10686l-22.19682,0.16246c0,0 0.03725,0.7638 0.03725,-0.0556z" stroke-width="0.5"/><path d="M339.47733,191.39195v-12.68812h9.65011v12.68812z" stroke-width="0"/></g><g><path d="M348.82902,201.36116c0,0 0.40209,3.74282 0.40209,5.98963c0,2.89078 0,9.91519 0,9.91519h-10.45429v-15.90482z" stroke-width="0"/><path d="M348.86043,216.93825c0,7.3365 -5.00475,13.28392 -11.17843,13.28392c-6.17367,0 -11.17843,-5.94742 -11.17843,-13.28392c0,-0.85382 0.19731,0.10686 0.19731,0.10686l22.19682,-0.16246c0,0 -0.03725,-0.7638 -0.03725,0.0556z" stroke-width="0.5"/><path d="M335.73243,204.57788v12.68812h-9.65011v-12.68812z" stroke-width="0"/></g><path d="M339.11399,204.99728c0,0 -0.24827,-2.349 -2.37255,-3.28313c-2.04655,-0.89995 -4.67042,-0.95063 -7.60867,-3.10672c-2.3147,-1.69851 -2.50583,-4.15378 -2.50583,-4.15378l9.24802,-5.53988c0,0 0.06088,2.80574 1.39694,3.52222c2.76267,1.4815 6.32401,3.92019 8.08678,4.88905c3.80726,2.09257 3.22674,6.06388 3.22674,6.06388z" stroke-width="0.5"/></g><g stroke-width="0.5"><path d="M300.45566,217.12558v-38.42175h9.65011v38.42175z"/><path d="M313.32249,217.12558v-38.42175h9.65011v38.42175z"/><path d="M300.6157,179.03158c0,-7.3365 5.00475,-13.28392 11.17843,-13.28392c6.17367,0 11.17843,5.94742 11.17843,13.28392c0,0.85382 -0.19731,-0.10686 -0.19731,-0.10686l-22.19682,0.16246c0,0 0.03725,0.7638 0.03725,-0.0556z"/><path d="M300.57845,216.8492l22.19682,0.16246c0,0 0.19731,-0.96067 0.19731,-0.10686c0,7.3365 -5.00475,13.28392 -11.17843,13.28392c-6.17367,0 -11.17843,-5.94742 -11.17843,-13.28392c0,-0.8194 -0.03725,-0.0556 -0.03725,-0.0556z" data-paper-data="{&quot;index&quot;:null}"/></g></g></g></g><g stroke="none" stroke-width="0"><g><path d="M105.69831,114.61133v-3.86004h3.86004v3.86004z" fill="#000000"/><path d="M103.7683,112.68129v-3.86004h3.86004v3.86004z" fill="#fcbcb0"/></g><g><path d="M105.69831,240.5989v-3.86004h3.86004v3.86004z" fill="#000000"/><path d="M103.76832,238.66889v-3.86004h3.86004v3.86004z" fill="#fcbcb0"/></g></g><g stroke="none" stroke-width="0"><g><path d="M373.2209,114.61133v-3.86004h3.86004v3.86004z" fill="#000000"/><path d="M371.29089,112.68129v-3.86004h3.86004v3.86004z" fill="#fcbcb0"/></g><g><path d="M373.2209,240.59891v-3.86004h3.86004v3.86004z" fill="#000000"/><path d="M371.29089,238.6689v-3.86004h3.86004v3.86004z" fill="#fcbcb0"/></g></g><g stroke="none" stroke-width="1" font-family="Sans Serif" font-weight="normal" font-size="40" text-anchor="start"><text transform="translate(210.59008,261.14417) scale(0.3623,0.27434)" font-size="40" xml:space="preserve" fill="#000000" fill-rule="nonzero" stroke="none" stroke-width="1" stroke-linecap="butt" stroke-linejoin="miter" stroke-miterlimit="10" stroke-dasharray="" stroke-dashoffset="0" font-family="Sans Serif" font-weight="normal" text-anchor="start" style="mix-blend-mode: normal"><tspan x="0" dy="0">WORLD 1</tspan></text><text transform="translate(210.59008,260.36138) scale(0.3623,0.27434)" font-size="40" xml:space="preserve" fill="#c14809" fill-rule="nonzero" stroke="none" stroke-width="1" stroke-linecap="butt" stroke-linejoin="miter" stroke-miterlimit="10" stroke-dasharray="" stroke-dashoffset="0" font-family="Sans Serif" font-weight="normal" text-anchor="start" style="mix-blend-mode: normal"><tspan x="0" dy="0">WORLD 1</tspan></text></g></g></g></svg>